<?xml version="1.0" encoding="utf-8"?>
<!-- Generator: Adobe Illustrator 23.0.1, SVG Export Plug-In . SVG Version: 6.00 Build 0)  -->
<svg version="1.1" xmlns="http://www.w3.org/2000/svg" xmlns:xlink="http://www.w3.org/1999/xlink" x="0px" y="0px"
	 viewBox="0 0 195.1 270.3" style="enable-background:new 0 0 195.1 270.3;" xml:space="preserve">
<style type="text/css">
	.st0{fill:#E2286F;}
	.st1{fill:#69C9CE;}
	.st2{fill:#FFFFFF;}
	.st3{fill:none;stroke:#9A9B9B;stroke-miterlimit:10;}
	.st4{fill:#EAE8E8;}
	.st5{fill:#EE3569;}
	.st6{fill:url(#SVGID_1_);}
	.st7{fill:none;stroke:#4F4E4E;stroke-width:0.5;stroke-miterlimit:10;}
	.st8{fill:#F5CF56;}
	.st9{fill:none;}
	.st10{fill:#666766;}
	.st11{font-family:'Almaq-Refined';}
	.st12{font-size:29.7339px;}
	.st13{fill:#BB902F;}
	.st14{font-family:'Arial-BoldMT';}
	.st15{font-size:17.4905px;}
	.st16{fill:#6FC59B;}
</style>
<g id="Layer_1">
</g>
<g id="CRIME">
	<circle class="st3" cx="100" cy="102.8" r="75.8"/>
	<g>
		<rect x="35.2" y="199.5" class="st9" width="128.6" height="38.1"/>
		<text transform="matrix(1 0 0 1 45.9434 219.3531)" class="st10 st11 st12">Colombia</text>
	</g>
	<circle class="st4" cx="100" cy="100.7" r="47.8"/>
	<g>
		<rect x="37.3" y="95.9" class="st9" width="125.5" height="23.7"/>
		<text transform="matrix(1 0 0 1 61.149 108.4493)" class="st13 st14 st15">Moderate</text>
	</g>
	<path class="st8" d="M99.5,174.3c-39.4,0-71.5-32.1-71.5-71.5s32.1-71.5,71.5-71.5c0.2,0,0.3,0,0.5,0v-8.7c-0.2,0-0.3,0-0.5,0
		c-44.2,0-80.2,36-80.2,80.2c0,44.2,36,80.2,80.2,80.2c3.1,0,6.1-0.2,9.1-0.5l-0.9-8.7C105,174.1,102.2,174.3,99.5,174.3z"/>
</g>
<g id="SAFETY">
</g>
</svg>
