<?xml version="1.0" encoding="utf-8"?>
<!-- Generator: Adobe Illustrator 23.0.1, SVG Export Plug-In . SVG Version: 6.00 Build 0)  -->
<svg version="1.1" xmlns="http://www.w3.org/2000/svg" xmlns:xlink="http://www.w3.org/1999/xlink" x="0px" y="0px"
	 viewBox="0 0 195.1 270.3" style="enable-background:new 0 0 195.1 270.3;" xml:space="preserve">
<style type="text/css">
	.st0{fill:#E2286F;}
	.st1{fill:#69C9CE;}
	.st2{fill:#FFFFFF;}
	.st3{fill:none;stroke:#9A9B9B;stroke-miterlimit:10;}
	.st4{fill:#EAE8E8;}
	.st5{fill:#EE3569;}
	.st6{fill:url(#SVGID_1_);}
	.st7{fill:none;stroke:#4F4E4E;stroke-width:0.5;stroke-miterlimit:10;}
	.st8{fill:#F5CF56;}
	.st9{fill:none;}
	.st10{fill:#666766;}
	.st11{font-family:'Almaq-Refined';}
	.st12{font-size:29.7339px;}
	.st13{fill:#BB902F;}
	.st14{font-family:'Arial-BoldMT';}
	.st15{font-size:17.4905px;}
	.st16{fill:#6FC59B;}
</style>
<g id="Layer_1">
</g>
<g id="CRIME">
	<circle class="st3" cx="99" cy="103.3" r="75.8"/>
	<g>
		<rect x="35.6" y="200.2" class="st9" width="128.6" height="38.1"/>
		<text transform="matrix(1 0 0 1 41.3543 220.0215)" class="st10 st11 st12">Costa Rica</text>
	</g>
	<circle class="st4" cx="100.1" cy="101.1" r="47.8"/>
	<g>
		<rect x="37.4" y="96.4" class="st9" width="125.5" height="23.7"/>
		<text transform="matrix(1 0 0 1 61.2684 108.9131)" class="st13 st14 st15">Moderate</text>
	</g>
	<path class="st8" d="M99.3,174.3c-38.9,0-70.6-31.7-70.6-70.6c0-38.9,31.7-70.6,70.6-70.6V22.6c-44.7,0-81.1,36.4-81.1,81.1
		c0,44.7,36.4,81.1,81.1,81.1c10.7,0,21-2.1,30.4-5.9l-3.9-9.7C117.6,172.5,108.7,174.3,99.3,174.3z"/>
</g>
<g id="SAFETY">
</g>
</svg>
