<?xml version="1.0" encoding="utf-8"?>
<!-- Generator: Adobe Illustrator 23.0.1, SVG Export Plug-In . SVG Version: 6.00 Build 0)  -->
<svg version="1.1" xmlns="http://www.w3.org/2000/svg" xmlns:xlink="http://www.w3.org/1999/xlink" x="0px" y="0px"
	 viewBox="0 0 1195.4 899" style="enable-background:new 0 0 1195.4 899;" xml:space="preserve">
<style type="text/css">
	.st0{fill:#E2286F;}
	.st1{fill:#69C9CE;}
	.st2{fill:#FFFFFF;}
	.st3{fill:none;stroke:#9A9B9B;stroke-miterlimit:10;}
	.st4{fill:#EAE8E8;}
	.st5{fill:#EE3569;}
	.st6{fill:url(#SVGID_1_);}
	.st7{fill:none;stroke:#4F4E4E;stroke-width:0.5;stroke-miterlimit:10;}
	.st8{fill:#F5CF56;}
	.st9{fill:#6FC59B;}
	.st10{fill:none;}
	.st11{fill:#666766;}
	.st12{font-family:'Almaq-Refined';}
	.st13{font-size:29.7339px;}
	.st14{fill:#BB902F;}
	.st15{font-family:'Arial-BoldMT';}
	.st16{font-size:17.4905px;}
	.st17{fill:#38A56A;}
</style>
<g id="Layer_1">
</g>
<g id="CRIME">
</g>
<g id="SAFETY">
	<g>
		<circle class="st3" cx="710.6" cy="139.3" r="75.8"/>
		<circle class="st3" cx="982" cy="139.7" r="75.8"/>
		<circle class="st3" cx="193.9" cy="139.7" r="75.8"/>
		<circle class="st3" cx="453" cy="139.7" r="75.8"/>
		<circle class="st3" cx="194.4" cy="425.6" r="75.8"/>
		<circle class="st3" cx="453" cy="425.6" r="75.8"/>
		<circle class="st3" cx="711.7" cy="425.6" r="75.8"/>
		<circle class="st3" cx="981.9" cy="425.6" r="75.8"/>
		<circle class="st3" cx="194.4" cy="711.6" r="75.8"/>
		<circle class="st3" cx="454.7" cy="711.6" r="75.8"/>
		<circle class="st3" cx="713.3" cy="711.6" r="75.8"/>
		<circle class="st3" cx="982.1" cy="711.6" r="75.8"/>
	</g>
	<g>
		<rect x="129" y="236.2" class="st10" width="128.6" height="38.1"/>
		<text transform="matrix(1 0 0 1 158.7678 255.9994)" class="st11 st12 st13">Belize</text>
	</g>
	<g>
		<rect x="388.1" y="236.4" class="st10" width="128.6" height="38.1"/>
		<text transform="matrix(1 0 0 1 398.8781 256.2055)" class="st11 st12 st13">Colombia</text>
	</g>
	<g>
		<rect x="647.2" y="236.2" class="st10" width="128.6" height="38.1"/>
		<text transform="matrix(1 0 0 1 652.9489 255.9994)" class="st11 st12 st13">Costa Rica</text>
	</g>
	<g>
		<rect x="917.8" y="236.2" class="st10" width="128.6" height="65"/>
		<text transform="matrix(1 0 0 1 921.6257 255.9994)"><tspan x="0" y="0" class="st11 st12 st13">Dominican</tspan><tspan x="11" y="35.7" class="st11 st12 st13">Republic</tspan></text>
	</g>
	<rect x="129" y="519.1" class="st10" width="128.6" height="38.1"/>
	<text transform="matrix(1 0 0 1 146.7404 538.9335)" class="st11 st12 st13">Ecuador</text>
	<rect x="388.1" y="519.3" class="st10" width="128.6" height="38.1"/>
	<text transform="matrix(1 0 0 1 401.9109 539.1385)" class="st11 st12 st13">Malaysia</text>
	<rect x="647.2" y="519.1" class="st10" width="128.6" height="38.1"/>
	<text transform="matrix(1 0 0 1 679.0104 538.9335)" class="st11 st12 st13">Malta</text>
	<rect x="917.8" y="519.1" class="st10" width="128.6" height="38.1"/>
	<text transform="matrix(1 0 0 1 941.9333 538.9335)" class="st11 st12 st13">Mexico</text>
	<rect x="129" y="802.2" class="st10" width="128.6" height="38.1"/>
	<text transform="matrix(1 0 0 1 147.737 822.076)" class="st11 st12 st13">Panama</text>
	<rect x="388.1" y="802.4" class="st10" width="128.6" height="38.1"/>
	<text transform="matrix(1 0 0 1 401.8962 822.2811)" class="st11 st12 st13">Portugal</text>
	<rect x="647.2" y="802.2" class="st10" width="128.6" height="38.1"/>
	<text transform="matrix(1 0 0 1 679.07 822.076)" class="st11 st12 st13">Spain</text>
	<rect x="917.8" y="802.2" class="st10" width="128.6" height="38.1"/>
	<text transform="matrix(1 0 0 1 932.1813 822.076)" class="st11 st12 st13">Thailand</text>
	<circle class="st4" cx="194.4" cy="137.1" r="47.8"/>
	<g>
		<rect x="133" y="132.8" class="st10" width="125.5" height="23.7"/>
		<text transform="matrix(1 0 0 1 156.9138 145.3139)" class="st14 st15 st16">Moderate</text>
	</g>
	<circle class="st4" cx="452.9" cy="137.5" r="47.8"/>
	<g>
		<rect x="390.2" y="132.8" class="st10" width="125.5" height="23.7"/>
		<text transform="matrix(1 0 0 1 414.0837 145.3017)" class="st14 st15 st16">Moderate</text>
	</g>
	<circle class="st4" cx="711.7" cy="137.1" r="47.8"/>
	<g>
		<rect x="649" y="132.4" class="st10" width="125.5" height="23.7"/>
		<text transform="matrix(1 0 0 1 672.863 144.891)" class="st14 st15 st16">Moderate</text>
	</g>
	<path class="st5" d="M1028.2,192.9c-12.4,10.8-28.6,17.4-46.3,17.4c-38.9,0-70.6-31.7-70.6-70.6c0-38.9,31.7-70.6,70.6-70.6V58.6
		c-44.7,0-81.1,36.4-81.1,81.1c0,44.7,36.4,81.1,81.1,81.1c20.3,0,38.9-7.5,53.2-19.9L1028.2,192.9z"/>
	<circle class="st4" cx="981.9" cy="137.5" r="47.8"/>
	<rect x="919.2" y="132.8" class="st10" width="125.5" height="23.7"/>
	<text transform="matrix(1 0 0 1 964.4714 145.3017)" class="st0 st15 st16">Low</text>
	<path class="st8" d="M193.9,210.2c-38.9,0-70.6-31.7-70.6-70.6c0-38.9,31.7-70.6,70.6-70.6V58.5c-44.7,0-81.1,36.4-81.1,81.1
		c0,44.7,36.4,81.1,81.1,81.1c10.7,0,21-2.1,30.4-5.9l-3.9-9.7C212.1,208.3,203.2,210.2,193.9,210.2z"/>
	<path class="st8" d="M710.9,210.3c-38.9,0-70.6-31.7-70.6-70.6c0-38.9,31.7-70.6,70.6-70.6V58.6c-44.7,0-81.1,36.4-81.1,81.1
		c0,44.7,36.4,81.1,81.1,81.1c10.7,0,21-2.1,30.4-5.9l-3.9-9.7C729.2,208.5,720.3,210.3,710.9,210.3z"/>
	<path class="st8" d="M452.4,211.2c-39.4,0-71.5-32.1-71.5-71.5s32.1-71.5,71.5-71.5c0.2,0,0.3,0,0.5,0v-8.7c-0.2,0-0.3,0-0.5,0
		c-44.2,0-80.2,36-80.2,80.2c0,44.2,36,80.2,80.2,80.2c3.1,0,6.1-0.2,9.1-0.5l-0.9-8.7C457.9,211,455.2,211.2,452.4,211.2z"/>
	<path class="st8" d="M122.4,425.5c0-39.2,31.8-71.2,70.9-71.5v-8.7c-44,0.3-79.7,36.2-79.7,80.2c0,42.6,33.4,77.6,75.5,80.1
		l0.5-8.7C152.2,494.6,122.4,463.5,122.4,425.5z"/>
	<circle class="st4" cx="194.4" cy="425.2" r="47.8"/>
	<g>
		<rect x="131.1" y="420.9" class="st10" width="125.5" height="23.7"/>
		<text transform="matrix(1 0 0 1 154.9939 433.4472)" class="st14 st15 st16">Moderate</text>
	</g>
	<circle class="st4" cx="194.4" cy="709.8" r="47.8"/>
	<g>
		<rect x="131.1" y="705.5" class="st10" width="125.5" height="23.7"/>
		<text transform="matrix(1 0 0 1 154.9939 718.0341)" class="st14 st15 st16">Moderate</text>
	</g>
	<path class="st5" d="M453,497c-39.4,0-71.5-32.1-71.5-71.5c0-39.2,31.8-71.2,70.9-71.5v-8.7c-44,0.3-79.7,36.2-79.7,80.2
		c0,44.2,36,80.2,80.2,80.2c18,0,34.6-6,48-16l-5.3-7C483.8,491.7,469,497,453,497z"/>
	<path class="st9" d="M640.3,425.2c0-39,31.5-70.9,70.4-71.4v-8.7c-43.7,0.6-79.1,36.3-79.1,80.2c0,20.9,8.1,40,21.3,54.3l6.4-6
		C647.4,460.9,640.3,443.9,640.3,425.2z"/>
	<path class="st8" d="M982,497.1c-39.4,0-71.5-32.1-71.5-71.5c0-39.4,32.1-71.5,71.5-71.5v-8.7c-44.2,0-80.2,36-80.2,80.2
		c0,44.2,36,80.2,80.2,80.2c4.3,0,8.5-0.3,12.6-1l-1.4-8.6C989.5,496.8,985.8,497.1,982,497.1z"/>
	<circle class="st4" cx="452.4" cy="425.2" r="47.8"/>
	<rect x="389.6" y="420.5" class="st10" width="125.5" height="23.7"/>
	<text transform="matrix(1 0 0 1 434.9118 433.0253)" class="st0 st15 st16">Low</text>
	<circle class="st4" cx="713.3" cy="425.4" r="47.8"/>
	<rect x="650.6" y="420.7" class="st10" width="125.5" height="23.7"/>
	<text transform="matrix(1 0 0 1 693.9011 433.2284)" class="st17 st15 st16">High</text>
	<circle class="st4" cx="983.5" cy="425.2" r="47.8"/>
	<rect x="920.8" y="420.5" class="st10" width="125.5" height="23.7"/>
	<text transform="matrix(1 0 0 1 944.6745 433.0253)" class="st14 st15 st16">Moderate</text>
	<path class="st8" d="M124,711.5c0-38.7,30.9-70.3,69.3-71.4v-8.7c-43.3,1.1-78.1,36.6-78.1,80.2c0,36.3,24.3,67.1,57.5,76.9
		l2.3-8.4C145.5,771.1,124,743.8,124,711.5z"/>
	<path class="st9" d="M383.1,711.5c0-38.9,31.2-70.6,69.9-71.4v-8.7c-43.5,0.9-78.6,36.5-78.6,80.2c0,11.3,2.4,22,6.6,31.8l8-3.6
		C385.2,731,383.1,721.5,383.1,711.5z"/>
	<path class="st9" d="M641.9,711.2c0-39.4,32.1-71.5,71.5-71.5c0,0,0,0,0,0V631c0,0,0,0,0,0c-44.2,0-80.2,36-80.2,80.2
		c0,11.2,2.3,21.9,6.5,31.7l8.1-3.4C643.9,730.8,641.9,721.2,641.9,711.2z"/>
	<path class="st8" d="M912.1,711.6c0-38.9,31.2-70.6,69.8-71.4v-8.7c-43.5,0.9-78.6,36.5-78.6,80.2c0,38.9,27.8,71.4,64.6,78.7
		l1.5-8.6C936.8,775.1,912.1,746.2,912.1,711.6z"/>
	<circle class="st4" cx="454.7" cy="709.8" r="47.8"/>
	<rect x="392" y="705.1" class="st10" width="125.5" height="23.7"/>
	<text transform="matrix(1 0 0 1 435.3112 717.6112)" class="st17 st15 st16">High</text>
	<circle class="st4" cx="713.3" cy="710.8" r="47.8"/>
	<rect x="650.6" y="706.1" class="st10" width="125.5" height="23.7"/>
	<text transform="matrix(1 0 0 1 693.9011 718.6014)" class="st17 st15 st16">High</text>
	<circle class="st4" cx="983.5" cy="711.6" r="47.8"/>
	<g>
		<rect x="920.7" y="706.9" class="st10" width="125.5" height="23.7"/>
		<text transform="matrix(1 0 0 1 944.6286 719.3934)" class="st14 st15 st16">Moderate</text>
	</g>
</g>
</svg>
