<?xml version="1.0" encoding="utf-8"?>
<!-- Generator: Adobe Illustrator 23.0.1, SVG Export Plug-In . SVG Version: 6.00 Build 0)  -->
<svg version="1.0" id="Layer_1" xmlns="http://www.w3.org/2000/svg" xmlns:xlink="http://www.w3.org/1999/xlink" x="0px" y="0px"
	 viewBox="0 0 80 110" enable-background="new 0 0 80 110" xml:space="preserve">
<g>
	<path id="Minor_Islands" fill="#8D90C7" d="M48.9,76l0,0.2l0,0.2l0.1,0.1l0-0.6L48.9,76z M52.1,67.4l0.1,0.2l0.2-0.5l0-0.5
		l-0.3,0.3L52.1,67.4z M49.7,41.3l-0.2,0l0.1,0.4l0.2,0.2l0.2,0.2l0.1-0.6L50,41.5L49.7,41.3z M48.9,39.3l-0.2,0.2L48.4,40l0,0.3
		l0.2-0.2l0.2-0.3l0.1-0.2L48.9,39.3z M51.4,69.8l0.1,0.2l0,0.1l0.1,0l-0.1-0.6L51.4,69.8z M52,67.8l0.1,0.2l0.2-0.4L52,67.8
		L52,67.8z M51.9,67.6l0.1,0.2l0.1,0l-0.2-0.7L51.9,67.6z M48.4,40.3L48.4,40.3l0,0.2l0.1,0.3l0,0.2l0-0.1l0.1,0l0.2-0.2l0-0.2
		l-0.1-0.3L48.4,40.3z M43,97L43,97L43,97L43,97L43,97L43,97L43,97L43,97L43,97z M28.6,95.4l0-0.1l-0.3,0.4l0,0.2l-0.2,0.1l0.1,0.2
		l0.2,0.2l0.1-0.2l0.1-0.1l0.2-0.2L28.6,95.4L28.6,95.4z M54.5,20.4l-0.1,0.7l0.3-0.7L54.5,20.4z M45.6,99.1l0.1,0.1l0,0l0-0.1
		L45.6,99.1z M48.2,94.6L48.2,94.6l0-0.1L48.2,94.6z M44.5,82.3l-0.2,0.3l0.1,0l0.1-0.1l0.4-0.1l-0.1-0.2L44.5,82.3z M74.5,55.4
		l0.2,0.1l0.1-0.1l-0.2-0.1L74.5,55.4z M63.4,73.9l0.3-0.1l0.2-0.4l-0.4,0.2L63.4,73.9z M54.8,30.4l-0.2,0l-0.2,0.4l0,0.5l-0.1,0.4
		l0.2,0.2l0,0.3l-0.2,0.2l-0.2-0.1L54,32.6l0.1,0.2l0.6-0.7l-0.1-0.7l0.1-0.7L54.8,30.4z M54.3,62.4l0.1,0.2l0.1,0l-0.1-0.4
		L54.3,62.4z M71.9,55.5l0,0.6l0.2-0.4l0.4-0.5l0-0.3l-0.3-0.2L71.9,55.5z M54.4,59.2L54.4,59L53.7,59l-0.2,0.6l0.3-0.2l0.4,0l0.2,0
		L54.4,59.2z M75.5,44.2l-0.4-0.1l-0.3,0.3l0,0.2l0.6,0.3l0.2-0.1l0.1-0.3L75.5,44.2z M53.2,46.5l-0.3,0.2l0,0.3l0.3,0.4l0.3-0.3
		L53.2,46.5z M54,34.2v-0.7l-0.2,0.7l0,0.7L54,34.2z M53.6,28l0.3-0.1l-0.4-0.1l-0.6-0.1l0.2,0.3L53.6,28z M52.4,50.5l-0.1,0.4
		l0,0.8l0.1,0.3l0,0l0.2-0.4l0.1-0.7l-0.2-0.4L52.4,50.5z M54,85.7l0.1,0L54,85.6L54,85.7z M53.3,63.6L53.3,63.6l0.6-0.1l-0.3-0.1
		L53.3,63.6z M51.9,54.9v0.3l0.1,0l0-0.1l0.2-0.2l0.1-0.3l-0.3-0.2L51.9,54.9z"/>
	<polygon id="Toledo" fill-rule="evenodd" clip-rule="evenodd" fill="#8D90C7" points="35.7,82.6 36,82.6 36.1,82.6 37.6,82.7 
		37.8,82.7 38.2,82.7 38.4,82.7 38.6,82.8 39.4,82.6 39.7,82.7 39.9,82.7 40,83 40.5,83.2 40.5,83.2 40.6,83.5 39.9,84 39.1,85.7 
		38.3,86 38.3,86.2 38.2,87.2 38.2,87.4 38,87.5 37.8,87.5 37.7,87.5 37.7,87.4 37.4,87.6 37.3,87.6 37.3,87.7 37.1,87.9 36.6,89.2 
		36.5,89.4 36.2,89.5 35.1,90.9 35,91.1 34.9,91.6 34.8,91.8 34.7,92 34.8,92.3 34.8,92.4 34.7,92.4 34.3,92.4 34.2,92.4 34.1,92.5 
		33.6,92.6 33.4,92.7 33.3,92.9 33.1,93.5 33.1,91.8 32.9,91.8 32.6,92.7 32.1,92.9 31.5,92.5 31.3,92 31.1,91.8 30.8,91.7 
		30.5,91.8 30.3,91.8 30.3,92 30.3,92.7 30.2,93 29.9,93.1 28.6,93.3 28.4,93.4 28.2,93.6 27.9,93.8 27.4,93.8 26.9,94.1 26.7,94.7 
		26.8,96.3 26.6,97.2 26.3,97.8 25.7,98.2 25,98.3 24.8,98.4 24.6,98.6 24.4,99 24.3,99.7 24,99.9 23.7,100 23.3,100.2 22.9,100.6 
		22.7,100.8 22.5,101.1 22.4,101.5 22.4,102 22.3,102.3 21.3,102.6 20.7,103 20,103.6 19.6,104.1 19.4,105.1 20.2,106.8 20.1,107.8 
		18.6,108.4 15.2,107.5 13.9,107.5 12.8,107.7 9.9,107.5 9.1,107.8 8.8,107.8 8.3,108 8,108.2 7.9,108.3 7.6,107.8 7.6,107.3 
		7.7,105.3 8.6,95.9 9.2,87.5 9.7,86.8 9.9,86.5 10.1,86.3 10.4,86 10.5,85.8 10.5,85.7 10.6,85.5 10.6,85.4 10.7,85.2 10.9,85 
		11,84.9 12.4,84.3 12.9,84.3 13.1,84.2 13.4,84.1 14,84 14.3,83.9 14.6,83.7 15.4,82.9 15.6,82.6 15.7,82.6 15.9,82.6 16,82.7 
		16.1,82.8 16.4,83.1 16.5,83.2 16.7,83.2 16.9,83.1 18.4,82.6 18.6,82.4 18.6,82.1 18.6,82 18.7,81.7 18.9,81.5 19.1,81.4 
		19.6,81.2 19.8,81.1 20,81.2 20.2,81.1 20.6,80.9 21.6,80.1 21.9,79.9 22.2,79.8 22.4,79.8 23,79.3 23.8,78.5 23.9,78 23.9,77.8 
		23.7,77.1 23.7,77 23.8,76.8 24.2,76.2 24.5,76 24.6,75.9 24.9,75.7 25.5,75.7 26.7,75.3 29.6,75.3 30.4,75.4 31,75.5 32.4,76.3 
		32.6,76.4 32.7,76.6 32.8,77 32.9,77.2 32.9,77.3 32.9,77.5 32.7,77.9 32.8,78.1 32.9,78.3 33.4,78.8 33.5,79 33.7,79.2 33.7,79.3 
		33.8,79.5 33.9,79.7 34,79.8 34.2,80.2 34.3,80.4 34.3,80.5 34.3,80.7 34.2,80.9 34.1,81.6 34.1,81.7 34.1,81.9 34,82 34,82.1 
		33.9,82.3 34.1,82.4 	"/>
	<polygon id="Stann_Creek" fill-rule="evenodd" clip-rule="evenodd" fill="#8D90C7" points="40.5,83.2 40,83 39.9,82.7 39.7,82.7 
		39.4,82.6 38.6,82.8 38.4,82.7 38.2,82.7 37.8,82.7 37.6,82.7 36.1,82.6 36,82.6 35.7,82.6 34.1,82.4 33.9,82.3 34,82.1 34,82 
		34.1,81.9 34.1,81.7 34.1,81.6 34.2,80.9 34.3,80.7 34.3,80.5 34.3,80.4 34.2,80.2 34,79.8 33.9,79.7 33.8,79.5 33.7,79.3 
		33.7,79.2 33.5,79 33.4,78.8 32.9,78.3 32.8,78.1 32.7,77.9 32.9,77.5 32.9,77.3 32.9,77.2 32.8,77 32.7,76.6 32.6,76.4 32.4,76.3 
		31,75.5 30.4,75.4 29.6,75.3 26.7,75.3 25.5,75.7 25.4,75.2 25.4,75 25.6,74.2 26,73.4 26.3,72.8 27.3,71.2 27.5,71 27.7,70.8 
		28.5,70.6 29.2,70.5 29.3,70.4 29.4,70.3 29.5,70.2 29.3,70 28.8,69.6 28.8,69.5 28.8,69.4 29.1,69.1 29.4,69 29.6,68.9 29.7,68.7 
		29.7,68.6 29.8,68.3 29.7,67.8 29.7,67.6 29.8,67.1 29.8,66.8 29.8,66.7 29.8,66.5 29.8,66.3 31,65 31.3,64.5 31.5,64.3 31.9,64 
		32.2,63.7 32.4,63.2 32.6,62.5 33,61.7 33.2,61.5 33.4,61.4 33.6,61.2 33.6,60.8 33.3,60.6 32.8,60.1 32.2,59.1 32.1,58.8 
		32.2,58.4 42.5,58.2 42.9,58.1 43.1,58 43.9,57.7 44.4,57.1 44.4,57.5 44.6,58.4 44.8,58.9 45.1,59.1 46,59.4 46.4,60.1 46.7,60.8 
		46.9,61.7 47,63 47.3,64 47.2,64.5 46.9,64.6 46.6,64.6 46.2,64.7 45.8,65.1 45.2,65.8 44.8,66.5 44.6,67.1 44.8,67.9 45.5,69.1 
		45.7,69.8 45.8,69.8 45.9,69.9 46,70.1 46,70.3 45.8,70.4 45.3,70.3 45.1,70.3 44.6,70.7 44.4,71 44.4,71.3 44.3,71.5 44.1,71.7 
		43.9,72 43.8,72.4 43.8,72.9 44,73.6 44.1,74 43.7,76.9 43.5,77.3 43.1,77.7 42.7,78.2 42.3,79.8 42.1,80.4 42,81.1 42.2,82.1 
		42.1,82.5 41.8,82.8 41.5,82.9 41.4,82.2 42.6,77.6 43.3,76.9 43.5,76.5 42.5,77 41.4,79.7 40.6,80.7 40.9,80.7 41.4,81 41.1,81.1 
		40.9,81.2 40.7,81.1 40.3,81 40.4,81.3 40.5,81.5 40.7,81.6 41.1,81.5 41.1,81.8 40.7,82.1 40.4,82.5 40.4,83 	"/>
	<polygon id="Orange_Walk" fill-rule="evenodd" clip-rule="evenodd" fill="#8D90C7" points="44.6,22.8 35.9,25.1 33.9,26.3 33.6,27 
		33.6,27.3 33.5,27.7 33.5,28 33.7,28.6 33.7,28.8 33.7,29.4 33.5,30.4 33.4,30.6 33.4,30.9 33.6,31.8 33.6,32 33.5,33 33.5,33.3 
		33.7,33.8 33.7,34 33.7,34.3 33.5,34.5 33.2,34.6 32.8,34.7 31.7,35.3 31.2,36 30.7,37.4 30.7,38.2 31.2,44.1 30.6,43.9 30.3,44 
		29.5,44.4 29.1,44.5 28.4,44.7 27.3,45.5 26.6,45.7 25.7,45.9 24.7,45.8 24.1,45.9 23.7,45.8 22.8,45.9 22.1,45.8 21.5,45.7 
		21.2,45.8 21,46.1 20.7,46.5 20.3,46.8 19.8,46.9 15.3,47.5 15,47.4 14.7,47.3 14.2,47.3 13.7,47.5 12.1,48.6 10.9,49.5 10.7,38.2 
		10.5,29.3 10.5,25.7 10.8,24.1 11.1,23.7 11.6,22.9 14.8,21.7 15.7,22 16.3,22.6 16.9,23.2 17.5,23.8 18,23.8 18.4,23.7 18.8,23.8 
		19.3,25 19.8,25.3 21.4,26.3 21.8,26.2 22,25.8 22.2,24.9 22.3,24.6 24.3,23.1 24.7,22.7 25.2,21.1 25.4,20.7 26,20.2 26.5,19.9 
		27,19.5 27.4,18.9 27.5,18.5 27.6,17.6 27.7,17.2 28.7,15.5 28.8,15 28.7,14.5 28.5,14.4 29.7,13.5 30.8,13 31.2,12.6 31.6,12 
		31.8,11.5 32.1,11.6 34.6,12.7 36.4,14 39.2,17.9 	"/>
	<polygon id="Corozal" fill-rule="evenodd" clip-rule="evenodd" fill="#8D90C7" points="40.4,2.1 40.7,2.1 40.9,1.9 41.2,1.8 
		43.6,1.8 43.8,1.9 43.8,1.9 43.8,2 44.5,2.6 43.7,3.6 40.7,5.8 40.4,6.4 40.9,7.1 41.4,7.1 43.3,6.2 43.1,6.8 42.7,7.5 41.8,8.6 
		41.6,9 41.7,9.2 42,9.2 42.3,8.9 43,8.2 44.3,7.2 44.9,6.9 45.5,6.8 46.4,6.9 47.5,7.5 48.1,7.7 48.9,7.5 50.1,6.7 51.4,6.3 
		51.9,6.2 52.1,6.4 52,7 51.8,7.3 51,7.9 50.1,8.3 49.9,8.5 49.9,8.9 50.2,9 50.5,8.9 50.8,8.4 51.2,8.2 51.6,8 51.9,7.9 52.1,8.2 
		52.4,13 52.1,16.8 51.9,17.4 51.4,18.4 51.3,19.1 49.8,22.9 49.1,23.3 49.1,23.3 49.1,23.3 44.6,22.8 39.2,17.9 36.4,14 34.6,12.7 
		32.1,11.6 31.8,11.5 31.8,11.4 31.9,10.7 32,10 32.4,9.4 33.6,8 34.1,7.2 34.2,6.7 34.3,5.7 34.7,4.7 34.9,3.4 35.1,3 35.4,2.7 
		36.6,1.7 37,1.8 37.4,2 37.8,2.1 38.1,2 38.9,1.8 39.3,1.5 39.6,1.5 39.8,1.5 40.1,1.9 	"/>
	<polygon id="Cayo" fill-rule="evenodd" clip-rule="evenodd" fill="#8D90C7" points="32.2,58.4 32.1,58.8 32.2,59.1 32.8,60.1 
		33.3,60.6 33.6,60.8 33.6,61.2 33.4,61.4 33.2,61.5 33,61.7 32.6,62.5 32.4,63.2 32.2,63.7 31.9,64 31.5,64.3 31.3,64.5 31,65 
		29.8,66.3 29.8,66.5 29.8,66.7 29.8,66.8 29.8,67.1 29.7,67.6 29.7,67.8 29.8,68.3 29.7,68.6 29.7,68.7 29.6,68.9 29.4,69 
		29.1,69.1 28.8,69.4 28.8,69.5 28.8,69.6 29.3,70 29.5,70.2 29.4,70.3 29.3,70.4 29.2,70.5 28.5,70.6 27.7,70.8 27.5,71 27.3,71.2 
		26.3,72.8 26,73.4 25.6,74.2 25.4,75 25.4,75.2 25.5,75.7 24.9,75.7 24.6,75.9 24.5,76 24.2,76.2 23.8,76.8 23.7,77 23.7,77.1 
		23.9,77.8 23.9,78 23.8,78.5 23,79.3 22.4,79.8 22.2,79.8 21.9,79.9 21.6,80.1 20.6,80.9 20.2,81.1 20,81.2 19.8,81.1 19.6,81.2 
		19.1,81.4 18.9,81.5 18.7,81.7 18.6,82 18.6,82.1 18.6,82.4 18.4,82.6 16.9,83.1 16.7,83.2 16.5,83.2 16.4,83.1 16.1,82.8 16,82.7 
		15.9,82.6 15.7,82.6 15.6,82.6 15.4,82.9 14.6,83.7 14.3,83.9 14,84 13.4,84.1 13.1,84.2 12.9,84.3 12.4,84.3 11,84.9 10.9,85 
		10.7,85.2 10.6,85.4 10.6,85.5 10.5,85.7 10.5,85.8 10.4,86 10.1,86.3 9.9,86.5 9.7,86.8 9.2,87.5 9.6,83.3 10.3,71.8 11,61.2 
		10.9,49.5 12.1,48.6 13.7,47.5 14.2,47.3 14.7,47.3 15,47.4 15.3,47.5 19.8,46.9 20.3,46.8 20.7,46.5 21,46.1 21.2,45.8 21.5,45.7 
		22.1,45.8 22.8,45.9 23.7,45.8 24.1,45.9 24.7,45.8 25.7,45.9 26.6,45.7 27.3,45.5 28.4,44.7 29.1,44.5 29.5,44.4 30.3,44 
		30.6,43.9 31.2,44.1 32.1,43.7 32.3,43.3 32.6,42.8 32.9,42.6 33,42.9 33.1,43.4 33.5,51.6 33.5,53.1 33.5,53.3 34,53.9 34.3,54.7 
		34.3,55.2 34.3,55.6 34.1,56 34.1,56.3 33.9,56.8 33.8,57 33.8,57.1 33.7,57.1 33.6,57.2 33.5,57.4 33.5,57.6 33.4,57.8 33.3,57.9 
		33.2,58 33.1,58.1 	"/>
	<path id="Belize" fill="#8D90C7" d="M47.1,41.1l-0.4-0.3l-0.3-0.6l-1.4-0.7l-0.5-0.5l-0.2-1l0.2-0.9l0.4-0.8l1-1.2l0.3-0.7l0.9-3.4
		l0.5-3.4l-0.2-1.1l1.6-3.2l-4.6-0.5l-8.6,2.2l-2.1,1.2L33.6,27l-0.1,0.4l0,0.4l0,0.3l0.1,0.5l0,0.2l0,0.5l-0.2,1.1l0,0.2l0,0.2
		l0.1,0.9l0,0.2l-0.1,1l0,0.3l0.2,0.5l0,0.2l0,0.3l-0.2,0.2l-0.3,0.1l-0.4,0.1l-1.1,0.5L31.2,36l-0.5,1.4l0,0.7l0.5,5.9l0.9-0.4
		l0.2-0.4l0.2-0.5l0.3-0.2l0.1,0.2l0.1,0.6l0.4,8.2l-0.1,1.5l0.1,0.2l0.4,0.6l0.3,0.8l0,0.5l0,0.4L34.1,56l0,0.3l-0.1,0.4L33.8,57
		l-0.1,0.1l-0.1,0l-0.1,0.1l-0.1,0.1l0,0.2l-0.1,0.3l-0.1,0.1L33.2,58l-0.1,0.1l-0.9,0.3l10.3-0.2l0.4-0.1l0.2-0.1l0.8-0.3l0.5-0.5
		l0,0l0-0.1l-0.2-0.8l-0.3-0.9l0.1-1.6l0-0.9l0.4-4.2l1.6-5.4l0.1-0.6l0.4-0.4l1,0.2l1,0l0.5-0.8l-0.4-0.3L47.1,41.1z M56.8,18.7
		l0.3-0.3l0.1-0.4L57,17.8l-0.2,0.1l-0.1,0l-0.2,0.1l-0.3,0.4l0.1,0.3L56.8,18.7z M57.4,18l0.1,0l0.3-0.2l0.2-0.4l0-0.4L58,16.8
		l-0.1,0.1L57.8,17l-0.1,0.2l-0.2,0.2l-0.2,0.1l-0.1,0.1l0.1,0.2L57.4,18z M60.3,14l0.1-0.4l0-0.2l0-0.2l-0.1-0.1l-0.1,0l-0.1,0
		l0,0.1l0.1,0.2l0,0.1L60,13.3l-0.2,0.2l-0.1,0.7l0.2,0.2L60.3,14z M52.5,33.9l0.4-1.3l-0.5,0.2l-2.2,1.5l-0.8,0.4L49.2,35l-0.1,0.1
		l0,0.2l1.3-0.1l1.2-0.4L52.5,33.9z M63.8,40.9l-0.5-0.4l-0.6-0.1l-0.5,0l-0.4,1.1l0,0.3l0.3,0l0.4-0.2l0.4-0.4l0.3,0.5l-0.1,0.9
		l-0.3,0.8l-0.4,0.4l-0.5-0.1l-0.6-0.2l-0.4,0l-0.8,0.8l-0.7,0.5l-0.5,0.5l-0.3,0.6l-0.2,2l-0.4,1.4l-0.1,0.9l-0.1,0.1l0,0.1
		l-0.1,0.1l-0.1,0.1l0.6,0.6l0-0.6l0.2-0.5l0.2-0.4l0.1-0.3l0.2-1.8l0.3-1l0.4-0.5l0.5-0.4l0.4-0.7l0.8,0.6l0.6-0.4l0.4-0.7l0.5-0.7
		l0.8-1.6l0.2-0.6L63.8,40.9z M62.4,46.3l-0.5,0.4l0.4,0.4l0.1,1l0,2.5l0.1-0.2l0.1-0.2l0.1-0.1l0.2-0.1l0,0.1l0,0.4h0.3l0-1
		l0.1-0.4l0.2-0.3l-0.7-2L62.4,46.3z M58.9,22.4l0.3-1.8H59L58.9,21l-0.1,0.2l-0.4,0.5l-0.3-0.6v-0.3l0.3-0.2l0.2-0.2l0.1-0.3
		l0.1-0.4l0.3,0.1l0.3,0.2l0.4-0.7l0.8-2.2l0.3-0.5l0.5-0.5l0.1-0.9l-0.4-0.6l-0.9,0.6L59.7,15l-0.4,0.4l-0.6,2.2l0,0.4l-0.1,0.3
		l-0.2,0.2l-0.2,0.1l-0.1,0.2l-0.7,2.6l-0.2,1.3l0.6,0l-0.2,1.1l-0.5,0.7l-1.4,1l-0.1,0l-0.4,0v0.3l1.7-0.5l1.2-1.2L58.9,22.4z
		 M53.1,36.9l-0.5-0.5l0.5,2.3l0.3,1l0.2,0.4h0.3l-0.4-2.2L53.1,36.9z M51.9,41.5l-0.6-0.2l-0.3,0.2l0,0.2l0.1,0.1l0.1,0.2l0.2,0.3
		l0.3,0.2l0.3,0l0.1,0.2l0.1,0.9l0.1,0.3l0.3,0l0.2-0.4l0-0.2l0.1-0.2l0.1-0.4l-0.4-0.5L51.9,41.5z"/>
</g>
</svg>
