<?xml version="1.0" encoding="utf-8"?>
<!-- Generator: Adobe Illustrator 23.0.1, SVG Export Plug-In . SVG Version: 6.00 Build 0)  -->
<svg version="1.1" xmlns="http://www.w3.org/2000/svg" xmlns:xlink="http://www.w3.org/1999/xlink" x="0px" y="0px"
	 viewBox="0 0 195.1 270.3" style="enable-background:new 0 0 195.1 270.3;" xml:space="preserve">
<style type="text/css">
	.st0{fill:#E2286F;}
	.st1{fill:#69C9CE;}
	.st2{fill:#FFFFFF;}
	.st3{fill:none;stroke:#9A9B9B;stroke-miterlimit:10;}
	.st4{fill:#EAE8E8;}
	.st5{fill:#EE3569;}
	.st6{fill:url(#SVGID_1_);}
	.st7{fill:none;stroke:#4F4E4E;stroke-width:0.5;stroke-miterlimit:10;}
	.st8{fill:#F5CF56;}
	.st9{fill:#6FC59B;}
	.st10{fill:none;}
	.st11{fill:#818281;}
	.st12{font-family:'ArialMT';}
	.st13{font-size:25px;}
	.st14{fill:#2A2A84;}
	.st15{fill:#F7A296;}
	.st16{fill:#6177BA;}
	.st17{fill:#E43A62;}
	.st18{fill:#89CCA3;}
	.st19{fill:#EB2288;}
	.st20{fill:#424242;}
	.st21{fill:#78D0EA;}
	.st22{fill:#FBEB5D;}
	.st23{fill:#203A6D;}
	.st24{fill:#3A9EB5;}
	.st25{fill:#F2E356;}
	.st26{fill:#F9A35E;}
	.st27{fill:#E14F28;}
	.st28{fill:#BB902F;}
	.st29{fill:#4ABA7D;}
	.st30{fill:#D3245B;}
</style>
<g id="Layer_1">
</g>
<g id="CRIME">
	<circle class="st3" cx="99.7" cy="111.5" r="75.8"/>
	<path class="st9" d="M28.3,111.1c0-39,31.5-70.9,70.4-71.4v-8.7c-43.7,0.6-79.1,36.3-79.1,80.2c0,20.9,8.1,40,21.3,54.3l6.4-6
		C35.5,146.7,28.3,129.7,28.3,111.1z"/>
	<circle class="st4" cx="101.3" cy="111.3" r="47.8"/>
	<g>
		<rect x="35.2" y="204.9" class="st10" width="128.6" height="38.1"/>
		<text transform="matrix(1 0 0 1 68.9038 222.8436)" class="st11 st12 st13">Malta</text>
	</g>
</g>
<g id="SAFETY">
	<g>
		<path class="st29" d="M76.5,118.7l6.6-0.8c0.2,1.7,0.8,3,1.7,3.9c0.9,0.9,2.1,1.3,3.4,1.3c1.4,0,2.6-0.5,3.6-1.6
			c1-1.1,1.5-2.5,1.5-4.3c0-1.7-0.5-3.1-1.4-4.1c-0.9-1-2.1-1.5-3.4-1.5c-0.9,0-1.9,0.2-3.1,0.5l0.8-5.6c1.9,0,3.3-0.4,4.2-1.2
			s1.5-2,1.5-3.4c0-1.2-0.4-2.2-1.1-2.9c-0.7-0.7-1.7-1.1-2.9-1.1c-1.2,0-2.2,0.4-3,1.2c-0.8,0.8-1.3,2-1.5,3.6l-6.3-1.1
			c0.4-2.2,1.1-3.9,2-5.2c0.9-1.3,2.1-2.3,3.7-3.1s3.4-1.1,5.3-1.1c3.4,0,6.1,1.1,8.1,3.2c1.7,1.8,2.5,3.7,2.5,6
			c0,3.1-1.7,5.6-5.2,7.5c2.1,0.4,3.7,1.4,4.9,3c1.2,1.5,1.8,3.4,1.8,5.5c0,3.1-1.1,5.8-3.4,8c-2.3,2.2-5.2,3.3-8.6,3.3
			c-3.2,0-5.9-0.9-8.1-2.8S76.8,121.8,76.5,118.7z"/>
		<path class="st29" d="M104.5,99.3v-6.4H128v5c-1.9,1.9-3.9,4.6-5.9,8.2s-3.5,7.4-4.6,11.4s-1.6,7.6-1.6,10.8h-6.6
			c0.1-4.9,1.1-10,3.1-15.1c1.9-5.1,4.5-9.7,7.7-13.8H104.5z"/>
	</g>
</g>
</svg>
