<?xml version="1.0" encoding="utf-8"?>
<!-- Generator: Adobe Illustrator 23.0.1, SVG Export Plug-In . SVG Version: 6.00 Build 0)  -->
<svg version="1.1" xmlns="http://www.w3.org/2000/svg" xmlns:xlink="http://www.w3.org/1999/xlink" x="0px" y="0px"
	 viewBox="0 0 195.1 270.3" style="enable-background:new 0 0 195.1 270.3;" xml:space="preserve">
<style type="text/css">
	.st0{fill:#E2286F;}
	.st1{fill:#69C9CE;}
	.st2{fill:#FFFFFF;}
	.st3{fill:none;stroke:#9A9B9B;stroke-miterlimit:10;}
	.st4{fill:#EAE8E8;}
	.st5{fill:#EE3569;}
	.st6{fill:url(#SVGID_1_);}
	.st7{fill:none;stroke:#4F4E4E;stroke-width:0.5;stroke-miterlimit:10;}
	.st8{fill:#F5CF56;}
	.st9{fill:#6FC59B;}
	.st10{fill:none;}
	.st11{fill:#818281;}
	.st12{font-family:'ArialMT';}
	.st13{font-size:25px;}
	.st14{fill:#38A56A;}
	.st15{font-family:'Arial-BoldMT';}
	.st16{font-size:17.4905px;}
	.st17{fill:#2A2A84;}
	.st18{fill:#F7A296;}
	.st19{fill:#6177BA;}
	.st20{fill:#E43A62;}
	.st21{fill:#89CCA3;}
	.st22{fill:#EB2288;}
	.st23{fill:#424242;}
	.st24{fill:#78D0EA;}
	.st25{fill:#FBEB5D;}
	.st26{fill:#203A6D;}
	.st27{fill:#3A9EB5;}
	.st28{fill:#F2E356;}
	.st29{fill:#F9A35E;}
	.st30{fill:#E14F28;}
</style>
<g id="Layer_1">
</g>
<g id="CRIME">
	<circle class="st3" cx="100.3" cy="111.8" r="75.8"/>
	<g>
		<rect x="34.2" y="202.5" class="st10" width="128.6" height="38.1"/>
		<text transform="matrix(1 0 0 1 66.5036 220.3668)" class="st11 st12 st13">Spain</text>
	</g>
	<path class="st9" d="M28.9,111.4c0-39.4,32.1-71.5,71.5-71.5c0,0,0,0,0,0v-8.7c0,0,0,0,0,0c-44.2,0-80.2,36-80.2,80.2
		c0,11.2,2.3,21.9,6.5,31.7l8.1-3.4C31,131,28.9,121.4,28.9,111.4z"/>
	<circle class="st4" cx="100.3" cy="111" r="47.8"/>
	<rect x="37.6" y="106.3" class="st10" width="125.5" height="23.7"/>
	<text transform="matrix(1 0 0 1 82.8532 118.8248)" class="st14 st15 st16">Low</text>
</g>
<g id="SAFETY">
</g>
</svg>
