<?xml version="1.0" encoding="utf-8"?>
<!-- Generator: Adobe Illustrator 23.0.1, SVG Export Plug-In . SVG Version: 6.00 Build 0)  -->
<svg version="1.1" xmlns="http://www.w3.org/2000/svg" xmlns:xlink="http://www.w3.org/1999/xlink" x="0px" y="0px"
	 viewBox="0 0 195.1 270.3" style="enable-background:new 0 0 195.1 270.3;" xml:space="preserve">
<style type="text/css">
	.st0{fill:#E2286F;}
	.st1{fill:#69C9CE;}
	.st2{fill:#FFFFFF;}
	.st3{fill:none;stroke:#9A9B9B;stroke-miterlimit:10;}
	.st4{fill:#EAE8E8;}
	.st5{fill:#EE3569;}
	.st6{fill:url(#SVGID_1_);}
	.st7{fill:none;stroke:#4F4E4E;stroke-width:0.5;stroke-miterlimit:10;}
	.st8{fill:#F5CF56;}
	.st9{fill:#6FC59B;}
	.st10{fill:none;}
	.st11{fill:#818281;}
	.st12{font-family:'ArialMT';}
	.st13{font-size:25px;}
	.st14{fill:#2A2A84;}
	.st15{fill:#F7A296;}
	.st16{fill:#6177BA;}
	.st17{fill:#E43A62;}
	.st18{fill:#89CCA3;}
	.st19{fill:#EB2288;}
	.st20{fill:#424242;}
	.st21{fill:#78D0EA;}
	.st22{fill:#FBEB5D;}
	.st23{fill:#203A6D;}
	.st24{fill:#3A9EB5;}
	.st25{fill:#F2E356;}
	.st26{fill:#F9A35E;}
	.st27{fill:#E14F28;}
	.st28{fill:#BB902F;}
	.st29{fill:#4ABA7D;}
	.st30{fill:#D3245B;}
</style>
<g id="Layer_1">
</g>
<g id="CRIME">
	<circle class="st3" cx="99" cy="111.4" r="75.8"/>
	<g>
		<rect x="34.7" y="202" class="st10" width="128.6" height="38.1"/>
		<text transform="matrix(1 0 0 1 51.0562 219.9383)" class="st11 st12 st13">Thailand</text>
	</g>
	<path class="st8" d="M29,111.4c0-38.9,31.2-70.6,69.8-71.4v-8.7c-43.5,0.9-78.6,36.5-78.6,80.2c0,38.9,27.8,71.4,64.6,78.7l1.5-8.6
		C53.7,174.9,29,146,29,111.4z"/>
	<circle class="st4" cx="100.4" cy="111.4" r="47.8"/>
</g>
<g id="SAFETY">
	<g>
		<path class="st28" d="M87.4,128.7v-7.2H72.7v-6l15.5-22.7H94v22.7h4.4v6H94v7.2H87.4z M87.4,115.4v-12.2l-8.2,12.2H87.4z"/>
		<path class="st28" d="M101.7,99.7v-6.4h23.5v5c-1.9,1.9-3.9,4.6-5.9,8.2s-3.5,7.4-4.6,11.4c-1,4-1.6,7.6-1.5,10.8h-6.6
			c0.1-4.9,1.1-10,3.1-15.1s4.5-9.7,7.7-13.8H101.7z"/>
	</g>
</g>
</svg>
