<?xml version="1.0" encoding="utf-8"?>
<!-- Generator: Adobe Illustrator 23.0.1, SVG Export Plug-In . SVG Version: 6.00 Build 0)  -->
<svg version="1.1" xmlns="http://www.w3.org/2000/svg" xmlns:xlink="http://www.w3.org/1999/xlink" x="0px" y="0px"
	 viewBox="0 0 195.1 270.3" style="enable-background:new 0 0 195.1 270.3;" xml:space="preserve">
<style type="text/css">
	.st0{fill:#E2286F;}
	.st1{fill:#69C9CE;}
	.st2{fill:#FFFFFF;}
	.st3{fill:none;stroke:#9A9B9B;stroke-miterlimit:10;}
	.st4{fill:#EAE8E8;}
	.st5{fill:#EE3569;}
	.st6{fill:url(#SVGID_1_);}
	.st7{fill:none;stroke:#4F4E4E;stroke-width:0.5;stroke-miterlimit:10;}
	.st8{fill:#F5CF56;}
	.st9{fill:#6FC59B;}
	.st10{fill:none;}
	.st11{fill:#818281;}
	.st12{font-family:'ArialMT';}
	.st13{font-size:25px;}
	.st14{fill:#2A2A84;}
	.st15{fill:#F7A296;}
	.st16{fill:#6177BA;}
	.st17{fill:#E43A62;}
	.st18{fill:#89CCA3;}
	.st19{fill:#EB2288;}
	.st20{fill:#424242;}
	.st21{fill:#78D0EA;}
	.st22{fill:#FBEB5D;}
	.st23{fill:#203A6D;}
	.st24{fill:#3A9EB5;}
	.st25{fill:#F2E356;}
	.st26{fill:#F9A35E;}
	.st27{fill:#E14F28;}
	.st28{fill:#BB902F;}
	.st29{fill:#4ABA7D;}
	.st30{fill:#D3245B;}
</style>
<g id="Layer_1">
</g>
<g id="CRIME">
	<circle class="st3" cx="97.1" cy="111" r="75.8"/>
	<g>
		<rect x="31.8" y="201.6" class="st10" width="128.6" height="38.1"/>
		<text transform="matrix(1 0 0 1 49.5054 219.541)" class="st11 st12 st13">Panama</text>
	</g>
	<circle class="st4" cx="97.1" cy="109.2" r="47.8"/>
	<path class="st8" d="M26.7,110.9c0-38.7,30.9-70.3,69.3-71.4v-8.7C52.8,31.8,18,67.3,18,110.9c0,36.3,24.3,67.1,57.5,76.9l2.3-8.4
		C48.3,170.5,26.7,143.2,26.7,110.9z"/>
</g>
<g id="SAFETY">
	<g>
		<path class="st28" d="M84.4,128.7v-7.2H69.8v-6l15.5-22.7h5.8v22.7h4.4v6h-4.4v7.2H84.4z M84.4,115.4v-12.2l-8.2,12.2H84.4z"/>
		<path class="st28" d="M122,101.7l-6.6,0.7c-0.2-1.4-0.6-2.4-1.3-3s-1.6-1-2.7-1c-1.4,0-2.7,0.7-3.7,2s-1.6,4-1.9,8.1
			c1.7-2,3.8-3,6.4-3c2.9,0,5.3,1.1,7.4,3.3s3.1,5,3.1,8.4c0,3.7-1.1,6.6-3.2,8.8c-2.1,2.2-4.9,3.3-8.3,3.3c-3.6,0-6.6-1.4-8.9-4.2
			c-2.3-2.8-3.5-7.4-3.5-13.8c0-6.6,1.2-11.3,3.6-14.2c2.4-2.9,5.6-4.3,9.4-4.3c2.7,0,5,0.8,6.8,2.3
			C120.4,96.5,121.6,98.8,122,101.7z M106.5,116.6c0,2.2,0.5,4,1.5,5.2c1,1.2,2.2,1.8,3.5,1.8c1.3,0,2.3-0.5,3.2-1.5
			c0.8-1,1.3-2.6,1.3-4.9c0-2.3-0.5-4-1.4-5.1c-0.9-1.1-2.1-1.6-3.4-1.6c-1.3,0-2.4,0.5-3.3,1.5
			C106.9,113.1,106.5,114.6,106.5,116.6z"/>
	</g>
</g>
</svg>
