<?xml version="1.0" encoding="utf-8"?>
<!-- Generator: Adobe Illustrator 23.0.1, SVG Export Plug-In . SVG Version: 6.00 Build 0)  -->
<svg version="1.1" xmlns="http://www.w3.org/2000/svg" xmlns:xlink="http://www.w3.org/1999/xlink" x="0px" y="0px"
	 viewBox="0 0 195.1 270.3" style="enable-background:new 0 0 195.1 270.3;" xml:space="preserve">
<style type="text/css">
	.st0{fill:#E2286F;}
	.st1{fill:#69C9CE;}
	.st2{fill:#FFFFFF;}
	.st3{fill:none;stroke:#9A9B9B;stroke-miterlimit:10;}
	.st4{fill:#EAE8E8;}
	.st5{fill:#EE3569;}
	.st6{fill:url(#SVGID_1_);}
	.st7{fill:none;stroke:#4F4E4E;stroke-width:0.5;stroke-miterlimit:10;}
	.st8{fill:none;}
	.st9{font-family:'Arial-BoldMT';}
	.st10{font-size:17.4905px;}
	.st11{fill:#F5CF56;}
	.st12{fill:#6FC59B;}
	.st13{fill:#818281;}
	.st14{font-family:'ArialMT';}
	.st15{font-size:25px;}
	.st16{fill:#2A2A84;}
	.st17{fill:#F7A296;}
	.st18{fill:#6177BA;}
	.st19{fill:#E43A62;}
	.st20{fill:#89CCA3;}
	.st21{fill:#EB2288;}
	.st22{fill:#424242;}
	.st23{fill:#78D0EA;}
	.st24{fill:#FBEB5D;}
	.st25{fill:#203A6D;}
	.st26{fill:#3A9EB5;}
	.st27{fill:#F2E356;}
	.st28{fill:#F9A35E;}
	.st29{fill:#E14F28;}
</style>
<g id="Layer_1">
</g>
<g id="CRIME">
	<circle class="st3" cx="100.2" cy="103.7" r="75.8"/>
	<path class="st5" d="M146.5,157c-12.4,10.8-28.6,17.4-46.3,17.4c-38.9,0-70.6-31.7-70.6-70.6c0-38.9,31.7-70.6,70.6-70.6V22.6
		c-44.7,0-81.1,36.4-81.1,81.1c0,44.7,36.4,81.1,81.1,81.1c20.3,0,38.9-7.5,53.2-19.9L146.5,157z"/>
	<circle class="st4" cx="100.1" cy="101.6" r="47.8"/>
	<rect x="37.4" y="96.8" class="st8" width="125.5" height="23.7"/>
	<text transform="matrix(1 0 0 1 80.7508 109.3477)" class="st0 st9 st10">High</text>
	<g>
		<g>
			<rect x="36" y="200.2" class="st8" width="128.6" height="65"/>
			<text transform="matrix(1 0 0 1 41.2439 218.1128)"><tspan x="0" y="0" class="st13 st14 st15">Dominican</tspan><tspan x="10.4" y="30" class="st13 st14 st15">Republic</tspan></text>
		</g>
	</g>
</g>
<g id="SAFETY">
</g>
</svg>
