<?xml version="1.0" encoding="utf-8"?>
<!-- Generator: Adobe Illustrator 23.0.1, SVG Export Plug-In . SVG Version: 6.00 Build 0)  -->
<svg version="1.1" xmlns="http://www.w3.org/2000/svg" xmlns:xlink="http://www.w3.org/1999/xlink" x="0px" y="0px"
	 viewBox="0 0 195.1 270.3" style="enable-background:new 0 0 195.1 270.3;" xml:space="preserve">
<style type="text/css">
	.st0{fill:#E2286F;}
	.st1{fill:#69C9CE;}
	.st2{fill:#FFFFFF;}
	.st3{fill:none;stroke:#9A9B9B;stroke-miterlimit:10;}
	.st4{fill:#EAE8E8;}
	.st5{fill:#EE3569;}
	.st6{fill:url(#SVGID_1_);}
	.st7{fill:none;stroke:#4F4E4E;stroke-width:0.5;stroke-miterlimit:10;}
	.st8{fill:#F5CF56;}
	.st9{fill:#6FC59B;}
	.st10{fill:none;}
	.st11{fill:#818281;}
	.st12{font-family:'ArialMT';}
	.st13{font-size:25px;}
	.st14{fill:#2A2A84;}
	.st15{fill:#F7A296;}
	.st16{fill:#6177BA;}
	.st17{fill:#E43A62;}
	.st18{fill:#89CCA3;}
	.st19{fill:#EB2288;}
	.st20{fill:#424242;}
	.st21{fill:#78D0EA;}
	.st22{fill:#FBEB5D;}
	.st23{fill:#203A6D;}
	.st24{fill:#3A9EB5;}
	.st25{fill:#F2E356;}
	.st26{fill:#F9A35E;}
	.st27{fill:#E14F28;}
	.st28{fill:#BB902F;}
	.st29{fill:#4ABA7D;}
	.st30{fill:#D3245B;}
</style>
<g id="Layer_1">
</g>
<g id="CRIME">
	<circle class="st3" cx="100" cy="102.8" r="75.8"/>
	<circle class="st4" cx="100" cy="100.7" r="47.8"/>
	<path class="st8" d="M99.5,174.3c-39.4,0-71.5-32.1-71.5-71.5s32.1-71.5,71.5-71.5c0.2,0,0.3,0,0.5,0v-8.7c-0.2,0-0.3,0-0.5,0
		c-44.2,0-80.2,36-80.2,80.2c0,44.2,36,80.2,80.2,80.2c3.1,0,6.1-0.2,9.1-0.5l-0.9-8.7C105,174.1,102.2,174.3,99.5,174.3z"/>
	<g>
		<g>
			<rect x="35.2" y="199.5" class="st10" width="128.6" height="38.1"/>
			<text transform="matrix(1 0 0 1 46.6621 217.4205)" class="st11 st12 st13">Colombia</text>
		</g>
	</g>
</g>
<g id="SAFETY">
	<g>
		<path class="st28" d="M74.7,110l6.8-0.7c0.2,1.5,0.8,2.8,1.7,3.7c1,0.9,2.1,1.4,3.3,1.4c1.4,0,2.6-0.6,3.6-1.7
			c1-1.2,1.5-2.9,1.5-5.3c0-2.2-0.5-3.8-1.5-4.9s-2.3-1.6-3.8-1.6c-2,0-3.7,0.9-5.3,2.6l-5.6-0.8l3.5-18.6h18.1v6.4H84.3l-1.1,6.1
			c1.5-0.8,3.1-1.1,4.7-1.1c3,0,5.6,1.1,7.7,3.3c2.1,2.2,3.2,5.1,3.2,8.6c0,2.9-0.9,5.6-2.6,7.9c-2.3,3.2-5.6,4.7-9.7,4.7
			c-3.3,0-6-0.9-8.1-2.7C76.4,115.4,75.1,113,74.7,110z"/>
		<path class="st28" d="M125.6,112.8v6.4h-24c0.3-2.4,1-4.7,2.3-6.8c1.3-2.2,3.9-5,7.7-8.6c3.1-2.9,5-4.8,5.7-5.9
			c0.9-1.4,1.4-2.8,1.4-4.2c0-1.5-0.4-2.7-1.2-3.5s-2-1.2-3.4-1.2c-1.4,0-2.6,0.4-3.4,1.3c-0.8,0.9-1.3,2.3-1.5,4.3l-6.8-0.7
			c0.4-3.8,1.7-6.5,3.8-8.1c2.1-1.6,4.8-2.5,8.1-2.5c3.5,0,6.3,1,8.3,2.9c2,1.9,3,4.3,3,7.1c0,1.6-0.3,3.1-0.9,4.6s-1.5,3-2.7,4.6
			c-0.8,1.1-2.3,2.6-4.5,4.6c-2.2,2-3.5,3.3-4.1,4c-0.6,0.7-1,1.3-1.4,1.9H125.6z"/>
	</g>
</g>
</svg>
