<?xml version="1.0" encoding="utf-8"?>
<!-- Generator: Adobe Illustrator 23.0.1, SVG Export Plug-In . SVG Version: 6.00 Build 0)  -->
<svg version="1.1" xmlns="http://www.w3.org/2000/svg" xmlns:xlink="http://www.w3.org/1999/xlink" x="0px" y="0px"
	 viewBox="0 0 195.1 270.3" style="enable-background:new 0 0 195.1 270.3;" xml:space="preserve">
<style type="text/css">
	.st0{fill:#E2286F;}
	.st1{fill:#69C9CE;}
	.st2{fill:#FFFFFF;}
	.st3{fill:none;stroke:#9A9B9B;stroke-miterlimit:10;}
	.st4{fill:#EAE8E8;}
	.st5{fill:#EE3569;}
	.st6{fill:url(#SVGID_1_);}
	.st7{fill:none;stroke:#4F4E4E;stroke-width:0.5;stroke-miterlimit:10;}
	.st8{fill:#F5CF56;}
	.st9{fill:none;}
	.st10{fill:#BB902F;}
	.st11{font-family:'Arial-BoldMT';}
	.st12{font-size:17.4905px;}
	.st13{fill:#6FC59B;}
	.st14{fill:#818281;}
	.st15{font-family:'ArialMT';}
	.st16{font-size:25px;}
	.st17{fill:#2A2A84;}
	.st18{fill:#F7A296;}
	.st19{fill:#6177BA;}
	.st20{fill:#E43A62;}
	.st21{fill:#89CCA3;}
	.st22{fill:#EB2288;}
	.st23{fill:#424242;}
	.st24{fill:#78D0EA;}
	.st25{fill:#FBEB5D;}
	.st26{fill:#203A6D;}
	.st27{fill:#3A9EB5;}
	.st28{fill:#F2E356;}
	.st29{fill:#F9A35E;}
	.st30{fill:#E14F28;}
</style>
<g id="Layer_1">
</g>
<g id="CRIME">
	<circle class="st3" cx="98.2" cy="103.9" r="75.8"/>
	<circle class="st4" cx="98.7" cy="101.3" r="47.8"/>
	<g>
		<rect x="35.4" y="97" class="st9" width="125.5" height="23.7"/>
		<text transform="matrix(1 0 0 1 59.2737 109.4743)" class="st10 st11 st12">Moderate</text>
	</g>
	<path class="st8" d="M98.2,174.3c-38.9,0-70.6-31.7-70.6-70.6c0-38.9,31.7-70.6,70.6-70.6V22.6c-44.7,0-81.1,36.4-81.1,81.1
		c0,44.7,36.4,81.1,81.1,81.1c10.7,0,21-2.1,30.4-5.9l-3.9-9.7C116.4,172.5,107.5,174.3,98.2,174.3z"/>
	<g>
		<g>
			<rect x="33.3" y="200.3" class="st9" width="128.6" height="38.1"/>
			<text transform="matrix(1 0 0 1 63.5897 218.2273)" class="st14 st15 st16">Belize</text>
		</g>
	</g>
</g>
<g id="SAFETY">
</g>
</svg>
