<?xml version="1.0" encoding="utf-8"?>
<!-- Generator: Adobe Illustrator 23.0.1, SVG Export Plug-In . SVG Version: 6.00 Build 0)  -->
<svg version="1.1" xmlns="http://www.w3.org/2000/svg" xmlns:xlink="http://www.w3.org/1999/xlink" x="0px" y="0px"
	 viewBox="0 0 195.1 270.3" style="enable-background:new 0 0 195.1 270.3;" xml:space="preserve">
<style type="text/css">
	.st0{fill:#E2286F;}
	.st1{fill:#69C9CE;}
	.st2{fill:#FFFFFF;}
	.st3{fill:none;stroke:#9A9B9B;stroke-miterlimit:10;}
	.st4{fill:#EAE8E8;}
	.st5{fill:#EE3569;}
	.st6{fill:url(#SVGID_1_);}
	.st7{fill:none;stroke:#4F4E4E;stroke-width:0.5;stroke-miterlimit:10;}
	.st8{fill:#F5CF56;}
	.st9{fill:#6FC59B;}
	.st10{fill:none;}
	.st11{fill:#818281;}
	.st12{font-family:'ArialMT';}
	.st13{font-size:25px;}
	.st14{fill:#2A2A84;}
	.st15{fill:#F7A296;}
	.st16{fill:#6177BA;}
	.st17{fill:#E43A62;}
	.st18{fill:#89CCA3;}
	.st19{fill:#EB2288;}
	.st20{fill:#424242;}
	.st21{fill:#78D0EA;}
	.st22{fill:#FBEB5D;}
	.st23{fill:#203A6D;}
	.st24{fill:#3A9EB5;}
	.st25{fill:#F2E356;}
	.st26{fill:#F9A35E;}
	.st27{fill:#E14F28;}
	.st28{fill:#BB902F;}
	.st29{fill:#4ABA7D;}
	.st30{fill:#D3245B;}
</style>
<g id="Layer_1">
</g>
<g id="CRIME">
	<circle class="st3" cx="100.2" cy="103.7" r="75.8"/>
	<path class="st5" d="M146.5,157c-12.4,10.8-28.6,17.4-46.3,17.4c-38.9,0-70.6-31.7-70.6-70.6c0-38.9,31.7-70.6,70.6-70.6V22.6
		c-44.7,0-81.1,36.4-81.1,81.1c0,44.7,36.4,81.1,81.1,81.1c20.3,0,38.9-7.5,53.2-19.9L146.5,157z"/>
	<circle class="st4" cx="100.1" cy="101.6" r="47.8"/>
	<g>
		<g>
			<rect x="36" y="200.2" class="st10" width="128.6" height="65"/>
			<text transform="matrix(1 0 0 1 41.2439 218.1129)"><tspan x="0" y="0" class="st11 st12 st13">Dominican</tspan><tspan x="10.4" y="30" class="st11 st12 st13">Republic</tspan></text>
		</g>
	</g>
</g>
<g id="SAFETY">
	<g>
		<path class="st30" d="M98,92.2l-6.6,0.7c-0.2-1.4-0.6-2.4-1.3-3c-0.7-0.7-1.6-1-2.7-1c-1.4,0-2.7,0.7-3.7,2c-1,1.3-1.6,4-1.9,8.1
			c1.7-2,3.8-3,6.4-3c2.9,0,5.3,1.1,7.4,3.3c2,2.2,3.1,5,3.1,8.4c0,3.7-1.1,6.6-3.2,8.8c-2.1,2.2-4.9,3.3-8.3,3.3
			c-3.6,0-6.6-1.4-8.9-4.2s-3.5-7.4-3.5-13.8c0-6.6,1.2-11.3,3.6-14.2c2.4-2.9,5.6-4.3,9.4-4.3c2.7,0,5,0.8,6.8,2.3
			S97.5,89.3,98,92.2z M82.4,107.1c0,2.2,0.5,4,1.5,5.2s2.2,1.8,3.5,1.8c1.3,0,2.3-0.5,3.2-1.5c0.8-1,1.3-2.6,1.3-4.9
			c0-2.3-0.5-4-1.4-5.1s-2.1-1.6-3.4-1.6c-1.3,0-2.4,0.5-3.3,1.6S82.4,105.1,82.4,107.1z"/>
		<path class="st30" d="M120.1,119.2h-6.9V93.3c-2.5,2.3-5.5,4.1-8.9,5.2v-6.2c1.8-0.6,3.7-1.7,5.8-3.3s3.5-3.5,4.3-5.7h5.6V119.2z"
			/>
	</g>
</g>
</svg>
