<?xml version="1.0" encoding="utf-8"?>
<!-- Generator: Adobe Illustrator 23.0.1, SVG Export Plug-In . SVG Version: 6.00 Build 0)  -->
<svg version="1.1" xmlns="http://www.w3.org/2000/svg" xmlns:xlink="http://www.w3.org/1999/xlink" x="0px" y="0px"
	 viewBox="0 0 195.1 270.3" style="enable-background:new 0 0 195.1 270.3;" xml:space="preserve">
<style type="text/css">
	.st0{fill:#E2286F;}
	.st1{fill:#69C9CE;}
	.st2{fill:#FFFFFF;}
	.st3{fill:none;stroke:#9A9B9B;stroke-miterlimit:10;}
	.st4{fill:#EAE8E8;}
	.st5{fill:#EE3569;}
	.st6{fill:url(#SVGID_1_);}
	.st7{fill:none;stroke:#4F4E4E;stroke-width:0.5;stroke-miterlimit:10;}
	.st8{fill:#F5CF56;}
	.st9{fill:#6FC59B;}
	.st10{fill:none;}
	.st11{fill:#818281;}
	.st12{font-family:'ArialMT';}
	.st13{font-size:25px;}
	.st14{fill:#2A2A84;}
	.st15{fill:#F7A296;}
	.st16{fill:#6177BA;}
	.st17{fill:#E43A62;}
	.st18{fill:#89CCA3;}
	.st19{fill:#EB2288;}
	.st20{fill:#424242;}
	.st21{fill:#78D0EA;}
	.st22{fill:#FBEB5D;}
	.st23{fill:#203A6D;}
	.st24{fill:#3A9EB5;}
	.st25{fill:#F2E356;}
	.st26{fill:#F9A35E;}
	.st27{fill:#E14F28;}
	.st28{fill:#BB902F;}
	.st29{fill:#4ABA7D;}
	.st30{fill:#D3245B;}
</style>
<g id="Layer_1">
</g>
<g id="CRIME">
	<circle class="st3" cx="100" cy="109.5" r="75.8"/>
	<path class="st8" d="M28,109.4C28,70.2,59.8,38.2,99,38v-8.7c-44,0.3-79.7,36.2-79.7,80.2c0,42.6,33.4,77.6,75.5,80.1l0.5-8.7
		C57.8,178.5,28,147.4,28,109.4z"/>
	<circle class="st4" cx="100" cy="109.1" r="47.8"/>
	<g>
		<rect x="34.7" y="203" class="st10" width="128.6" height="38.1"/>
		<text transform="matrix(1 0 0 1 52.4033 220.8945)" class="st11 st12 st13">Ecuador</text>
	</g>
</g>
<g id="SAFETY">
	<g>
		<path class="st28" d="M86.3,127.2V120H71.7v-6l15.5-22.7H93V114h4.4v6H93v7.2H86.3z M86.3,114v-12.2L78.1,114H86.3z"/>
		<path class="st28" d="M100.8,119l6.6-0.7c0.2,1.4,0.6,2.4,1.3,3c0.7,0.7,1.6,1,2.7,1c1.4,0,2.6-0.7,3.6-2c1-1.3,1.6-4,1.9-8.1
			c-1.7,2-3.9,3-6.5,3c-2.8,0-5.2-1.1-7.3-3.3c-2-2.2-3.1-5-3.1-8.5c0-3.6,1.1-6.6,3.2-8.8c2.2-2.2,4.9-3.3,8.2-3.3
			c3.6,0,6.6,1.4,8.9,4.2s3.5,7.4,3.5,13.9c0,6.5-1.2,11.3-3.6,14.2c-2.4,2.9-5.6,4.3-9.5,4.3c-2.8,0-5.1-0.7-6.8-2.2
			S101.3,121.9,100.8,119z M116.3,104c0-2.2-0.5-3.9-1.5-5.2c-1-1.2-2.2-1.8-3.5-1.8c-1.3,0-2.3,0.5-3.2,1.5c-0.8,1-1.3,2.6-1.3,4.9
			c0,2.3,0.5,4,1.4,5.1s2.1,1.6,3.4,1.6c1.3,0,2.4-0.5,3.3-1.6C115.9,107.5,116.3,106,116.3,104z"/>
	</g>
</g>
</svg>
