<?xml version="1.0" encoding="utf-8"?>
<!-- Generator: Adobe Illustrator 23.0.1, SVG Export Plug-In . SVG Version: 6.00 Build 0)  -->
<svg version="1.1" xmlns="http://www.w3.org/2000/svg" xmlns:xlink="http://www.w3.org/1999/xlink" x="0px" y="0px"
	 viewBox="0 0 195.1 270.3" style="enable-background:new 0 0 195.1 270.3;" xml:space="preserve">
<style type="text/css">
	.st0{fill:#E2286F;}
	.st1{fill:#69C9CE;}
	.st2{fill:#FFFFFF;}
	.st3{fill:none;stroke:#9A9B9B;stroke-miterlimit:10;}
	.st4{fill:#EAE8E8;}
	.st5{fill:#EE3569;}
	.st6{fill:url(#SVGID_1_);}
	.st7{fill:none;stroke:#4F4E4E;stroke-width:0.5;stroke-miterlimit:10;}
	.st8{fill:#F5CF56;}
	.st9{fill:none;}
	.st10{fill:#BB902F;}
	.st11{font-family:'Arial-BoldMT';}
	.st12{font-size:17.4905px;}
	.st13{fill:#6FC59B;}
	.st14{fill:#818281;}
	.st15{font-family:'ArialMT';}
	.st16{font-size:25px;}
	.st17{fill:#2A2A84;}
	.st18{fill:#F7A296;}
	.st19{fill:#6177BA;}
	.st20{fill:#E43A62;}
	.st21{fill:#89CCA3;}
	.st22{fill:#EB2288;}
	.st23{fill:#424242;}
	.st24{fill:#78D0EA;}
	.st25{fill:#FBEB5D;}
	.st26{fill:#203A6D;}
	.st27{fill:#3A9EB5;}
	.st28{fill:#F2E356;}
	.st29{fill:#F9A35E;}
	.st30{fill:#E14F28;}
</style>
<g id="Layer_1">
</g>
<g id="CRIME">
	<circle class="st3" cx="100" cy="102.8" r="75.8"/>
	<circle class="st4" cx="100" cy="100.7" r="47.8"/>
	<g>
		<rect x="37.3" y="95.9" class="st9" width="125.5" height="23.7"/>
		<text transform="matrix(1 0 0 1 61.149 108.4493)" class="st10 st11 st12">Moderate</text>
	</g>
	<path class="st8" d="M99.5,174.3c-39.4,0-71.5-32.1-71.5-71.5s32.1-71.5,71.5-71.5c0.2,0,0.3,0,0.5,0v-8.7c-0.2,0-0.3,0-0.5,0
		c-44.2,0-80.2,36-80.2,80.2c0,44.2,36,80.2,80.2,80.2c3.1,0,6.1-0.2,9.1-0.5l-0.9-8.7C105,174.1,102.2,174.3,99.5,174.3z"/>
	<g>
		<g>
			<rect x="35.2" y="199.5" class="st9" width="128.6" height="38.1"/>
			<text transform="matrix(1 0 0 1 46.6621 217.4205)" class="st14 st15 st16">Colombia</text>
		</g>
	</g>
</g>
<g id="SAFETY">
</g>
</svg>
