<?xml version="1.0" encoding="utf-8"?>
<!-- Generator: Adobe Illustrator 23.0.1, SVG Export Plug-In . SVG Version: 6.00 Build 0)  -->
<svg version="1.1" id="Layer_1" xmlns="http://www.w3.org/2000/svg" xmlns:xlink="http://www.w3.org/1999/xlink" x="0px" y="0px"
	 viewBox="0 0 720 515.3" style="enable-background:new 0 0 720 515.3;" xml:space="preserve">
<style type="text/css">
	.st0{display:none;}
	.st1{fill:#A8A8A8;}
	.st2{fill:#89CCA3;stroke:#0FB753;stroke-width:0.25;stroke-miterlimit:10;}
	.st3{fill:#143C75;}
	.st4{fill:none;}
	.st5{font-family:'Bulo-Black';}
	.st6{font-size:14.5939px;}
	.st7{font-size:15px;}
	.st8{fill:#E5367A;}
	.st9{fill:#606060;}
	.st10{font-family:'ArialMT';}
	.st11{font-size:11px;}
	.st12{fill:#3D3D3D;}
	.st13{font-family:'Arial-BoldMT';}
	.st14{fill:#FFFFFF;}
	.st15{fill:#8D90C7;stroke:#FFFFFF;stroke-width:0.5;stroke-miterlimit:10;}
	.st16{fill-rule:evenodd;clip-rule:evenodd;fill:#8D90C7;stroke:#FFFFFF;stroke-width:0.5;stroke-miterlimit:10;}
	.st17{fill-rule:evenodd;clip-rule:evenodd;fill:#F8A25E;stroke:#FFFFFF;stroke-width:0.5;}
	.st18{fill-rule:evenodd;clip-rule:evenodd;fill:#3A9DB4;stroke:#FFFFFF;stroke-width:0.5;stroke-miterlimit:10;}
	.st19{fill:#3A9DB4;stroke:#FFFFFF;stroke-width:0.5;stroke-miterlimit:10;}
	.st20{fill-rule:evenodd;clip-rule:evenodd;fill:#F1E355;stroke:#FFFFFF;stroke-width:0.5;stroke-miterlimit:10;}
	.st21{fill:#F1E355;stroke:#FFFFFF;stroke-width:0.5;stroke-miterlimit:10;}
	.st22{fill-rule:evenodd;clip-rule:evenodd;fill:#D96CA9;stroke:#FFFFFF;stroke-width:0.5;stroke-miterlimit:10;}
	.st23{fill:#D96CA9;stroke:#FFFFFF;stroke-width:0.5;stroke-miterlimit:10;}
	.st24{fill:#D96CA9;}
	.st25{fill:#9ECF85;stroke:#FFFFFF;stroke-width:0.5;stroke-miterlimit:10;}
	.st26{fill-rule:evenodd;clip-rule:evenodd;fill:#9ECF85;stroke:#FFFFFF;stroke-width:0.5;stroke-miterlimit:10;}
	.st27{fill:#73AFDF;}
	.st28{fill-rule:evenodd;clip-rule:evenodd;fill:#F49294;stroke:#FFFFFF;stroke-width:0.5;}
	.st29{fill:#F49294;stroke:#FFFFFF;stroke-width:0.5;}
	.st30{fill:#77AE87;stroke:#FFFFFF;stroke-width:0.5;stroke-miterlimit:10;}
	.st31{fill-rule:evenodd;clip-rule:evenodd;fill:#77AE87;stroke:#FFFFFF;stroke-width:0.5;stroke-miterlimit:10;}
	.st32{fill-rule:evenodd;clip-rule:evenodd;fill:#D0B0CE;stroke:#FFFFFF;stroke-width:0.5;}
	.st33{fill:#D0B0CE;stroke:#FFFFFF;stroke-width:0.5;}
	.st34{fill:#BF84BE;}
	.st35{fill:#F37B58;stroke:#FFFFFF;stroke-width:0.5;stroke-miterlimit:10;}
	.st36{fill-rule:evenodd;clip-rule:evenodd;fill:#F37B58;stroke:#FFFFFF;stroke-width:0.5;stroke-miterlimit:10;}
	.st37{fill:#F37B58;}
	.st38{fill-rule:evenodd;clip-rule:evenodd;fill:#F6B3CD;stroke:#FFFFFF;stroke-width:0.5;stroke-miterlimit:10;}
	.st39{fill:#F6B3CD;stroke:#FFFFFF;stroke-width:0.5;stroke-miterlimit:10;}
	.st40{fill:none;stroke:#000000;stroke-width:0.75;stroke-miterlimit:10;}
	.st41{fill:none;stroke:#000000;stroke-width:0.5;stroke-miterlimit:10;}
	.st42{fill:#33353D;}
	.st43{font-size:9px;}
	.st44{font-size:8px;}
	.st45{font-size:6px;}
	.st46{fill:#565556;}
	.st47{font-family:'Arial-ItalicMT';}
</style>
<g id="Ecuador_1_" class="st0">
	
		<image style="display:inline;overflow:visible;" width="328" height="353" id="Layer_0_3_" xlink:href="7597CB5B53EDB08.png"  transform="matrix(1.0958 0 0 1.0958 6.0484 -4.977)">
	</image>
</g>
<text transform="matrix(1 0 0 1 399.7652 433.6366)" class="st3 st5 st6">Life Expectancy</text>
<text transform="matrix(1 0 0 1 399.7652 297.4646)" class="st3 st5 st6">Cost of Living</text>
<text transform="matrix(1 0 0 1 399.7652 342.287)" class="st3 st5 st6">Healthcare</text>
<text transform="matrix(1 0 0 1 399.7652 388.0098)" class="st3 st5 st6">Crime</text>
<rect x="397.3" y="138.5" class="st4" width="286.7" height="136"/>
<text transform="matrix(1 0 0 1 399.3329 21.3338)" class="st3 st5 st7">Capital:</text>
<text transform="matrix(1 0 0 1 448.3329 21.3338)" class="st8 st5 st7"> </text>
<text transform="matrix(1 0 0 1 451.2329 21.3338)" class="st9 st10 st11">Quito</text>
<text transform="matrix(1 0 0 1 399.3329 39.3338)" class="st3 st5 st7">Population:</text>
<text transform="matrix(1 0 0 1 473.8329 39.3338)" class="st8 st10 st11"> </text>
<text transform="matrix(1 0 0 1 476.9329 39.3338)" class="st9 st10 st11">16,498,502</text>
<text transform="matrix(1 0 0 1 399.3329 57.3337)" class="st3 st5 st7">Language:</text>
<text transform="matrix(1 0 0 1 465.1329 57.3337)" class="st12 st10 st11"> </text>
<text transform="matrix(1 0 0 1 468.1329 57.3337)" class="st9 st10 st11">Spanish (Castilian) 93% (official), </text>
<text transform="matrix(1 0 0 1 399.3329 70.5338)" class="st9 st10 st11">Quechua 4.1% </text>
<text transform="matrix(1 0 0 1 399.3329 88.5338)" class="st3 st5 st7">Climate:</text>
<text transform="matrix(1 0 0 1 452.733 88.5338)" class="st8 st13 st11"> </text>
<text transform="matrix(1 0 0 1 455.8329 88.5338)" class="st9 st10 st11">tropical along coast, becoming cooler </text>
<text transform="matrix(1 0 0 1 399.3329 101.7338)" class="st9 st10 st11">inland at higher elevations; tropical in Amazonian </text>
<text transform="matrix(1 0 0 1 399.3329 114.9338)" class="st9 st10 st11">jungle lowlands</text>
<path class="st1" d="M635,309.7H399.3c-1.1,0-2-0.9-2-2l0,0c0-1.1,0.9-2,2-2H635c1.1,0,2,0.9,2,2l0,0
	C636.9,308.8,636,309.7,635,309.7z"/>
<path class="st2" d="M461.7,312.5h-60.9c-1.9,0-3.4-1.8-3.4-3.9v-1.8c0-2.2,1.6-3.9,3.4-3.9h60.9c1.9,0,3.4,1.8,3.4,3.9v1.8
	C465.1,310.7,463.6,312.5,461.7,312.5z"/>
<path class="st1" d="M635,354.9H399.3c-1.1,0-2-0.9-2-2l0,0c0-1.1,0.9-2,2-2H635c1.1,0,2,0.9,2,2l0,0C636.9,354,636,354.9,635,354.9
	z"/>
<path class="st2" d="M576.1,358H403.4c-3.4,0-6-1.8-6-3.9V352c0-2.2,2.8-3.9,6-3.9h172.6c3.4,0,6,1.8,6,3.9v2.1
	C582.1,356.2,579.5,358,576.1,358z"/>
<path class="st1" d="M635,400.2H399.3c-1.1,0-2-0.9-2-2l0,0c0-1.1,0.9-2,2-2H635c1.1,0,2,0.9,2,2l0,0
	C636.9,399.3,636,400.2,635,400.2z"/>
<path class="st2" d="M516.8,403.1H400.6c-1.8,0-3.2-1.8-3.2-3.9v-1.8c0-2.2,1.5-3.9,3.2-3.9h116.1c1.8,0,3.2,1.8,3.2,3.9v1.8
	C520,401.3,518.6,403.1,516.8,403.1z"/>
<path class="st1" d="M635,446.1H399.3c-1.1,0-2-0.9-2-2l0,0c0-1.1,0.9-2,2-2H635c1.1,0,2,0.9,2,2l0,0
	C636.9,445.2,636,446.1,635,446.1z"/>
<path class="st2" d="M592.7,449.1H401.2c-2.2,0-3.8-1.8-3.8-3.9v-1.8c0-2.2,1.8-3.9,3.8-3.9h191.4c2.2,0,3.8,1.8,3.8,3.9v1.8
	C596.5,447.4,594.7,449.1,592.7,449.1z"/>
<polygon class="st3" points="653.4,296.7 653.4,303.2 644.2,308 653.4,312.2 653.4,318.6 675.3,318.6 675.3,296.7 "/>
<polygon class="st3" points="653.4,341.9 653.4,348.4 644.2,353.2 653.4,357.3 653.4,363.8 675.3,363.8 675.3,341.9 "/>
<polygon class="st3" points="653.4,387.3 653.4,393.7 644.2,398.5 653.4,402.7 653.4,409.2 675.3,409.2 675.3,387.3 "/>
<polygon class="st3" points="653.4,433.2 653.4,439.7 644.2,444.4 653.4,448.6 653.4,455.1 675.3,455.1 675.3,433.2 "/>
<text transform="matrix(1 0 0 1 657.7631 311.5071)" class="st14 st13 st11">27</text>
<text transform="matrix(1 0 0 1 658.7634 356.9701)" class="st14 st13 st11">73</text>
<text transform="matrix(1 0 0 1 657.7629 402.0516)" class="st14 st13 st11">49</text>
<text transform="matrix(1 0 0 1 657.7633 448.093)" class="st14 st13 st11">82</text>
<g id="Ecuador">
	<polygon id="Zamora-Chinchipe" class="st22" points="202,305 202.4,304.8 202.6,304.5 203.2,303.4 203.4,303.2 203.6,303 
		204.2,302.8 204.8,302.8 206.9,303 208,303 212,302.3 218.8,302.3 218.8,302.3 218.7,302.5 217.7,304.7 217.4,305.8 217.2,306.9 
		217.3,308.9 217.5,310 217.4,310.5 217,310.8 216.3,310.9 216.1,311 216,311.3 216.1,312 216.7,315.5 216.4,316.6 215.1,317.8 
		214.7,318.1 214,318.4 213.7,318.7 213.1,319.7 212.7,320.8 212.2,324.8 212.2,325.2 212,325.4 211.2,325.8 210.5,326 209.8,326.1 
		209.2,326.3 208.7,326.8 208.4,327.7 208.5,331 207.9,333.4 204.6,340.3 204.1,342.7 203.6,343.8 202.6,344.6 202.1,345.7 
		202.2,347.8 202.6,349.8 203.3,350.9 204.6,351.6 204.4,352.5 203.6,353.6 202.8,354.8 202.7,355.8 202.7,356.9 202.7,358 
		202.2,358.8 200.7,359.8 200.1,360.2 195.1,362.2 192.9,363.5 190.4,365.8 189.4,367.2 188.8,368.7 188.8,370.2 190,372.6 
		190.3,373.9 189.7,375 188.5,375.3 187,375.3 185.9,375.6 185.4,376.5 184.8,379.1 184.4,380.3 183,381.8 181.4,383.1 180.4,382.1 
		179.8,381.6 179.2,381.4 178.7,381.3 177.8,381.5 177.2,381.5 176.3,381.3 174.5,380.7 173.5,380.5 172.2,380.6 169.6,380.7 
		168.4,380.3 167.6,379.4 167.1,378.3 166.3,377.2 165.9,376.9 164.8,376.5 164.3,376.2 164,375.7 163.7,374.6 163.4,374.1 
		162.4,373.4 161.3,372.8 160.4,372.1 160,370.9 159.8,369.9 160.3,369.7 162.7,367.2 164.5,364.2 165.2,363.5 166.9,361.1 
		167.2,360.4 167.5,359.7 167.5,359.1 167.3,358.1 167.3,357.5 167.6,355.9 168.4,355.3 168.7,354.8 169,354.2 169.4,353.9 
		169.8,353.8 170.4,354 171,354.2 171.7,354.3 172.2,354.5 172.8,354.9 173.2,355.3 173.7,355.3 174.1,355 174.4,354.6 174.7,354.3 
		175.1,354.1 175.6,354 176.1,353.8 176.4,353.5 176.8,352.7 177.6,351.6 178.3,351 178.5,350.6 178.7,350.2 179,348.4 179.1,347.3 
		179.1,345.9 179,345.3 179.4,342.2 179.2,340.8 179.4,340.1 179.3,339.2 179.2,338.7 179.1,338.3 178.5,337.6 178.3,337.3 
		178.1,337 177.8,336.9 177.3,336.6 177.1,336.5 176.9,336.3 176.8,336.2 176.6,335.9 176.5,335.5 176.5,334.7 176.6,333.5 
		177.4,330.5 177.5,329.7 177.2,328 177.1,326.8 177.3,325.1 177.6,323.9 178.1,322.7 178.3,322.1 178.4,321.6 178.3,320.7 
		178.1,320.2 177.5,319 176.4,317.8 175.9,317 175.1,315.2 174.6,314.2 174.5,313.8 174.4,313.3 174.4,312.9 174.6,312.6 
		174.9,312.5 175.2,312.5 175.5,312.5 176,312.4 176.3,312.3 176.6,312.1 176.8,311.8 176.9,311.5 176.8,310.7 177.1,310.3 
		177.8,309.7 178.2,309.4 179.3,308.1 180.3,308 180.6,307.8 181,307.6 181.3,307.2 181.5,306.7 182.1,303.5 181.8,301.6 181.9,301 
		182,300.4 182.4,299.3 182.3,298.9 182.2,298.5 181.9,298.2 181.6,297.4 181.5,297 181.6,296.5 181.9,295.9 182.4,295.2 
		183.1,294.5 184,293.8 187.1,292.1 188.2,291.1 192.7,294.3 193.1,294.7 193.2,295.1 193.2,295.4 193.1,295.7 192.8,296 
		192.2,296.6 192,296.9 191.8,297.2 191.7,297.6 191.7,298 192,298.7 192,299.7 192.1,300.2 192.3,300.6 192.5,300.9 192.8,301.2 
		193.2,301.6 193.4,301.9 193.6,302.3 193.6,302.6 193.9,303 194.5,303.3 196.1,303.5 198.3,304.1 200.1,304.4 200.7,304.5 
		201.7,305 	"/>
	<polygon id="Tungurahua" class="st22" points="220.8,173.7 222.7,172.5 223.4,172.3 224.1,172.3 225.3,172.6 225.7,172.6 
		226.6,172.4 227.2,172.3 227.4,172.5 227.6,172.8 227.7,173.3 228,173.5 228.6,173.4 228.9,173.4 229.1,173.6 229.7,174.7 
		230.5,175 232.3,175.3 232.7,175.6 232.9,176.1 232.9,177.4 233,183.3 232.9,184.2 232.6,185 231.2,187.8 229.8,189 228.7,190.1 
		228.3,190.5 227.3,190.9 226.6,191.1 225.2,191.2 223.3,190.9 222.6,191.1 221.5,191.7 220.9,192.1 220,193.3 219.6,192.7 
		219.4,191.8 219.2,191.5 218.8,191.3 218.1,191.1 217.5,190.7 216.8,190.5 215.9,190.2 215.2,189.9 213.8,189 213.1,188.7 
		212.5,188.7 212,189.3 211.7,190.2 211.2,190.8 210.6,191 209.7,190.8 208.8,190.7 207.8,190.8 206.9,191.1 205.5,191.3 
		204.1,191.3 201.3,190.7 199.9,190.2 198.8,189.5 197.2,188.4 196.4,188 195.7,187.8 195,187.8 194.3,188.2 192.5,189.3 
		191.4,189.7 190.9,188.9 190.3,188.2 189,186.3 188.8,185.5 189.4,182.8 189.8,181.8 190.5,180.2 190.7,179.4 190.8,177.3 
		191,176.6 192.1,174.4 193.7,173.8 195.2,172.5 196.5,172.1 197.5,171.9 198.5,171.9 201.1,172.4 202.4,172.5 203.3,172.3 
		204.2,171.8 205.5,170.8 206,170.6 207.4,170.5 208,170.3 208.4,170 208.6,169.6 208.6,168.9 208.6,168.5 209.2,168 209.7,167.9 
		210.3,167.9 210.7,168.1 211.1,168.3 211.3,168.6 211.8,169 212.5,169.2 213.8,169.1 214.5,168.8 215,168.2 215.6,167.1 
		215.6,166.2 215.7,165.6 215.8,165.1 216.2,164.5 216.4,164.1 217.9,162.7 219.1,164.6 220.5,166.2 221,167.2 221.2,168 
		221.2,170.5 221.1,171.3 221,171.9 220.5,172.8 220.3,173.4 220.5,173.6 	"/>
	<polygon id="Sucumbíos" class="st22" points="282.3,92.2 283.5,92.1 286.2,91.1 287.2,90.9 287.9,91.1 289.1,91.4 291.1,93.8 
		292.8,94.3 294.9,94.3 295.6,94.5 296.5,94.8 297.1,95.2 298.2,96.4 299.2,97 300,97.3 300.8,97.4 304.6,96.8 305.2,96.9 
		307.2,97.7 308,97.7 307.9,95.5 308.5,95.3 310.4,95.8 313.1,96.1 313.8,96.3 314.7,96.9 316.2,98.3 317.2,98.6 318,98.5 
		319.4,97.8 324.8,97.2 325.7,96.5 325.2,92.9 325.3,88.9 325.3,88.5 325.8,88.6 327,88.6 327.6,88.4 328.1,88.3 329.4,86.6 
		329.7,86.4 330,86.2 331,85.5 331.6,85.3 332.1,85.5 333.6,87.1 334.7,87.8 335.8,88.3 336.9,88.5 338.3,88.6 339.4,88.6 
		340.1,88.6 340.5,88.8 340.8,89.4 341.1,90.8 341.4,91.3 342.4,91.2 343.8,90.8 345,90.6 345.5,91.4 345.8,92.1 349.4,96.7 
		349.7,97.4 349.9,98.4 350.5,99.3 351.9,100.5 355.2,102.6 355.6,103.3 357.8,104.9 359.3,105.8 360.2,106.1 361.3,106.4 
		362.5,106.5 363.7,106.4 366.1,105.9 367.1,105.7 368.2,106.1 369.1,106.9 369.7,107.6 370.3,108 371.3,108.3 373.8,110.6 
		377,112.5 378.3,113 379.4,113.8 382.4,114.3 385.9,115.6 386.9,116.2 386.2,117 385,117.9 384.3,118.2 383.6,118.5 382.7,118.5 
		380.8,118.3 380.4,118.3 378.9,119.3 377.5,119.1 373.7,117.1 373,116.9 372.2,116.9 371.2,117 370.4,116.8 369.4,116.4 
		368.4,116.2 367.6,116.4 367.3,117.4 367.6,118.6 368.1,119.6 368.6,120.2 369.1,120.3 370.3,120.2 370.8,120.3 371.5,120.7 
		372.6,121.8 373.3,122.1 374.4,122.5 375.3,123 375.9,123.8 377.7,130 378.7,132.3 380.2,134.4 381.2,135.4 381.8,135.8 
		382.4,135.8 383.1,135.8 383.4,136 383.6,136.3 385.7,137.9 386,138.2 386.2,138.8 386.4,139.1 386.7,139.1 387.2,138.9 
		387.5,138.9 388.1,139.9 388.3,140.9 388.1,143 388.2,143.5 388.3,143.9 388.4,144.3 388.3,144.8 387.8,145.3 387.7,145.3 
		386.9,145.3 386.8,145.2 386.7,144.9 386.8,144.3 386.7,144.1 386.5,144 386.2,144.1 385.8,144.2 385.1,144.2 383.2,143.7 
		382.4,143.3 381.9,143.2 381.5,143.1 381.2,142.8 381,142.3 380.8,141.7 380.6,141.3 380.4,141.1 379.5,141.1 379,141 378.4,140.6 
		377.8,140.4 375.4,140.3 375,140.4 374.5,140.4 372.8,139.8 372.2,139.3 371.8,139 371.6,138.6 371.4,138.3 371.3,137.7 
		371.2,137.4 371,137.3 370.5,137.6 370.3,137.5 370.1,137.2 370,136.9 369.7,136.6 369,136.2 367.8,135.7 367.2,135.3 366.7,135.1 
		366.2,135.2 365.7,135.4 364.9,135.6 364.2,135.6 363.6,135.3 363.2,134.9 362.8,134.1 362.5,133.8 362,133.4 361.6,133.3 
		361,133.5 360.5,133.7 359.9,133.8 358.6,133.8 358.1,133.9 357.5,134.1 357.1,134.1 356.5,133.9 355.8,133.5 355,133.1 
		354.1,132.8 352.3,132.8 351.4,133 350.8,133.4 350.6,133.9 350.6,134.8 351.1,139.2 351.4,139.9 351.6,140.3 351.7,140.5 
		351.6,140.7 351.3,140.9 350.7,140.8 349.4,140.7 348.2,140.4 347,139.7 344.8,138.1 343.7,137.6 343.4,137.3 343.2,136 
		342.9,135.3 342.6,134.7 342.3,134.4 337.2,134 333,134.5 332.5,134.6 331.4,135.2 329.6,135.7 329.1,135.9 326.9,137.5 
		325.6,138.1 325.1,137.6 324.7,136.8 323.8,136.6 321.6,136.6 320.6,136.1 317.8,134 316.6,132.4 315.3,132.7 314.1,133.5 
		313.5,132.7 313.3,132.2 312.8,131.6 309.7,129.5 309.1,129 308.8,128.6 308.6,128.2 308.1,127.4 307.6,126.9 306.6,125.4 
		306.5,125.1 306.5,124.6 306.4,124.4 306.2,124.1 304.5,122.6 299,116 298.4,115.1 298,114.6 297.3,114.2 296.5,113.9 295.1,114.2 
		294.3,114.5 293.5,114.9 292.9,115.3 292.1,115.8 290.9,116 289.6,115.9 286.5,115 285.6,114.9 284.7,115 284.1,115.3 283.5,115.4 
		282.8,115.3 281.2,114.2 279.8,113.5 278.9,113.1 278.1,112.9 277.3,113.6 275.9,115.2 275.5,115.9 274.9,117.1 274.5,117.5 
		274.2,117.8 273.9,118 273.2,118 272.3,117.9 269.8,117.4 269.3,117.2 269.2,116.8 269.2,116.5 269.2,116.1 269.3,115.8 
		269.4,115.5 269.3,115.2 269.1,114.8 269.1,114.5 269.2,114.2 269.4,113.9 269.4,113.7 269.4,113.4 269.2,113.2 269,112.8 
		268.9,112.2 268.6,111.8 268.3,111.6 267.7,111.9 266.9,112.4 266.7,112.5 266.4,112.7 266.3,112.9 266.1,113.2 265.7,113.4 
		265.2,113.6 264.3,113.7 263.7,114.1 262.5,115.3 261.9,115.7 261.6,115.8 261,115.4 260.3,115.1 258.7,114.8 253.3,114.6 
		252.3,114.4 251.6,114 251.2,112.9 250.9,111.1 250.9,110.6 251,110.3 251,110.2 251.1,110.1 251.1,110.1 251.2,110 251.2,109.9 
		251.2,109.8 251.2,109.6 251.2,109.5 250.7,109.2 248.3,108.6 247.6,108.4 247.4,108.2 247.3,108.1 247.3,108 247.2,107.4 
		247.1,106.9 246.9,106.6 246.6,106.3 245.8,105.9 245.6,105.8 245.3,105.7 245.1,105.7 244.3,105.4 242.9,104.7 242.8,104.7 
		242.5,104.7 242.5,104.7 242.4,104.7 241.8,104.5 241.1,104.3 240.9,104.2 240.8,104.1 240.8,104 240.8,103.9 240.8,103.9 
		242.2,101.6 244.1,99.6 244.9,99.1 245.1,99 245.4,98.9 245.6,98.8 245.8,98.6 246.1,98.3 247.1,96.9 247.8,96.1 248,95.9 
		248.2,95.7 248.2,95.6 248.1,95.3 248,95.3 247.8,95.2 247.7,95.2 247.5,95.2 247.4,95.1 247.4,95.1 247.3,95 247.3,94.8 
		247.2,94.5 247.6,93.8 249.3,91.6 250.5,90.2 250.8,89.5 250.6,88.8 250.6,88.3 250.7,87.4 251,86.7 251.4,86 255.2,81.2 
		255.6,80.8 257.7,79.3 258,78.9 258.2,78.6 258.2,78.4 258.2,78.1 258,77.9 257.7,77.6 257.1,77.1 257,76.8 256.9,76.5 257,75.9 
		257.2,75.7 257.4,75.5 257.6,75.5 257.9,75.5 258.4,75.6 259.2,75.8 259.7,75.9 261.2,75.9 261.5,76 262.6,76.4 263.5,76.2 
		265.4,74.7 265.6,74.5 265.9,74.4 268.1,75 268.9,77.6 269.2,83.3 269.7,85.2 269.9,86.8 270.5,88.2 272,89.3 273.9,90 279.6,91.2 
		280.7,91.5 281.5,92 	"/>
	<polygon id="Santa_Elena" class="st22" points="102.5,210.4 103,212.8 104.5,215.3 107.4,217 111.6,218.1 114.9,220 116.8,221.8 
		118.9,225.1 118.8,229.9 117.9,235.4 115.5,239.1 112.9,240.6 108.2,241.7 105,244.1 101,247.9 99.3,245.9 94.8,241.7 93.1,241.1 
		91.5,240.4 89.7,240.4 86.9,239.5 85.9,239 83.6,237 82.4,236.5 81.5,236.5 80.9,236.4 80.5,235.9 80.1,234.1 79.7,233.3 78.8,232 
		78.1,231.2 76.1,229.6 75.8,229.3 75.6,228.7 75.5,228.2 75.7,227.9 76.1,228 76.3,228.3 76.4,228.5 76.6,228.7 78,229 78.6,229 
		78.9,229.2 79.2,230.1 79.9,230.9 81.3,230.8 83.2,230.1 86,227.9 88.1,226.9 90,224.7 90.5,221.5 89.7,219.8 89.3,218.1 
		89.1,217.7 89.3,217.1 89.9,217 90.7,216.6 90.8,215.2 90.7,213.9 89.2,208.1 88.4,205.8 88,204.8 87.5,203.9 87,203.3 86.4,202.3 
		86.1,201.5 86.1,201.5 87.5,201.2 88.6,201.3 89,201.3 89.7,201 93.6,201.2 94.7,201 96.6,200.4 97.6,200.4 99.1,200.6 99.9,201 
		100.2,201.5 100.1,202 100.1,202.3 100.2,202.7 100.9,203.4 101.1,203.8 101.2,204.3 101,205.9 100.9,206.2 100.2,207.2 
		100.1,207.6 99.9,208.1 99.9,208.6 100,209.1 100.5,209.7 101.3,210.1 	"/>
	<polygon id="Santo_Domingo_de_los_Tsáchilas" class="st22" points="179.4,114.8 189.1,114.5 190.8,116.2 196,119 198.7,122.1 
		197.7,125.9 190.8,126.5 189.1,129.1 188.8,129.2 188.6,129.4 188.5,129.6 188.3,129.8 187.7,129.9 187.4,130.1 187.2,130.3 
		186.9,130.7 186.7,131 186.7,131.5 186.5,131.8 186.4,132.1 186.1,132.3 185.2,132.7 185,132.9 184.7,133.1 184.5,133.4 183.8,135 
		183.3,135.9 183.1,136.2 183.1,136.5 183.2,136.7 183.5,136.9 184.4,137.4 184.8,137.7 185.1,138.1 185.3,138.6 185.4,139 
		185.4,139.3 185.2,139.5 184.8,139.6 184.2,139.8 183.8,140.1 183.5,140.3 183.4,141.1 183.2,141.5 182.9,141.9 182.3,142.2 
		181.9,142.2 181.5,142 181.2,141.8 181,141.6 180.2,140.4 179.2,140 178.6,140.1 177.7,140.6 173.7,144.6 173.1,145 171.7,145.7 
		171,146.2 170.3,146.9 169.7,147.6 169.1,148 168.4,148.2 167.7,148.2 167,148.1 166.4,147.8 165.8,147.5 165.5,147 165.4,146.5 
		165.3,146 165.4,145.5 165.8,144.8 166,144.2 165.9,143.4 165.6,142.5 165.5,141.7 165.7,141.2 166.1,140.8 166.3,140.5 
		165.8,140.2 164.6,140 161.6,140.2 160.4,140 158.8,139.9 159.7,138.8 160.3,137.2 160.4,136.7 160.5,135.5 162.2,132.8 162.6,132 
		162.8,131.2 162.4,121.5 162.5,120.6 162.3,120.1 161.8,119.9 161.4,119.9 160.5,120 160.2,119.9 158.2,119.3 157.9,119.2 
		156.5,117.9 155.1,116.2 154.7,115.8 154,115.3 153.5,114.9 153.2,114.8 152.8,114.6 152.3,114.3 152.1,113.7 151.9,112.6 152,112 
		152.1,111.6 152.5,111.1 153.6,111 154.8,111.3 158.1,111.8 159.7,112.2 160.2,112.4 160.6,112.7 161.2,113.1 161.3,113.1 
		161.5,112.9 161.7,112.7 162,112.5 162,112.2 161.9,112 161.7,111.9 161.5,111.9 161.3,112 161.2,111.9 161,111.8 160.4,111 
		160.3,110.7 160.4,110.4 161.4,110.1 161.9,109.8 163.3,109.5 164,109.1 164.8,108.4 165.1,107.8 168.1,110 179.1,110.4 	"/>
	<polygon id="Pichincha" class="st22" points="175.5,93.1 177,93.1 182.7,94.3 183.1,94.6 183.4,94.8 184.3,95.8 185.2,97.9 
		185.7,98.3 186.5,98.6 187.5,98.9 188.3,98.9 189,98.7 190.1,98.5 192.3,97.9 196.9,97.4 198.2,97.5 203.8,98.7 204.9,98.7 
		205.6,98.6 206.2,98.4 209.1,98 210.2,97.7 211,97.7 213.8,97.2 216.7,97 218.2,97.2 219.1,97.5 219.4,98 219.6,98.5 219.7,99.2 
		219.6,99.7 219.3,100.7 219.3,101 219.4,101.3 219.7,101.2 220.6,100.3 221.3,100 221.8,100.1 222.4,100.6 223.6,101.6 
		224.4,102.2 225.4,102.6 226.9,103.1 228.2,103.1 229.7,102.7 232.1,101.6 233.1,101 234.3,100 235,99.6 235.9,99.7 242.2,101.6 
		240.8,103.9 240.8,103.9 240.8,104 240.8,104.1 240.9,104.2 241.1,104.3 241.8,104.5 242.4,104.7 242.5,104.7 242.5,104.7 
		242.8,104.7 242.9,104.7 244.3,105.4 245.1,105.7 245.3,105.7 245.6,105.8 245.8,105.9 246.6,106.3 246.9,106.6 247.1,106.9 
		247.2,107.4 247.3,108 247.3,108.1 247.4,108.2 247.6,108.4 248.3,108.6 247.6,109.8 247,110.3 243.1,112.3 241.2,113 240.8,113.3 
		240.6,113.8 240.5,115.2 240.3,115.8 240,116.1 239.7,116.2 239.4,116.5 238.8,117.5 238.5,117.8 238,117.8 236.8,117.5 
		236.3,117.5 236.1,117.6 236,118 235.8,118.6 235.2,119.6 234.7,120.1 234,120.4 233.6,120.4 233.3,120.3 232.8,119.7 232.3,119.6 
		231.9,119.6 230.6,120 230.2,120 229.6,120.2 229.3,120.6 229.1,121 229.2,121.6 229,126.5 228.7,127.8 228,129 226.5,131.1 
		225.9,132.1 225.6,132.9 226.4,134.4 226.3,135 226,135.7 225.4,136.8 225.1,137.4 225,138 225,138.5 225,139.3 224.5,140.3 
		223.8,141.2 222.8,142.2 222.3,142.9 222,143.6 221.8,145.1 221.6,145.9 221.3,146.3 220.9,146.5 219.4,146.8 218.8,147 
		217.7,147.6 214.1,143.8 212.6,143.2 211.9,143.3 210.6,143.1 209.8,143.1 209.2,143.2 207.8,144 207.2,144.2 206.8,144 
		206.6,143.7 206.1,143.3 205.6,143.3 205,143.7 204.4,144.1 204,144.3 203.6,144.5 203.2,144.6 202.7,144.9 201.3,145.9 200.8,146 
		200.4,145.8 200.1,145.4 199.9,144.8 199.8,143.9 199.3,142.7 198.4,141.5 194.9,139 194.1,138.4 193.9,137.8 193.6,136.5 
		193.4,136 192.8,135 192,133.5 189.9,130.8 189.8,130.5 189.8,129.8 189.6,129.5 189.1,129.1 190.8,126.5 197.7,125.9 198.7,122.1 
		196,119 190.8,116.2 189.1,114.5 179.4,114.8 179.1,110.4 168.1,110 165.1,107.8 166.2,105.1 166.9,103.9 167.5,102.3 168.2,101.3 
		168.4,101 168.4,100.6 168.2,100.3 167.8,99.9 167.3,99.4 165.9,98.5 165.7,98.1 165.7,97.8 166,97.4 166.5,97 167.6,96.5 
		168.4,96.1 169.5,95.1 170,94.8 170.7,94.5 171.3,94.2 172.8,93.2 173.5,93.1 174.3,93 	"/>
	<polygon id="Pastaza" class="st22" points="300.7,173.3 301.7,173.2 302.1,172.8 302.2,172.2 302.3,171.6 302.5,171 302.8,170.5 
		303.9,169.6 304.2,169.5 304.7,169.6 305.3,169.9 306.1,170.1 306.6,170 307.3,169.6 307.7,169.5 309.1,169.5 310.1,169.3 
		311.2,169 311.8,168.9 312.3,168.8 312.5,168.6 313,168 313.2,167.8 314.2,167.6 315.6,167.2 316.4,167.1 317.4,167.2 318.3,167.5 
		319,167.9 319.7,168.6 319.9,169.3 319.9,170.1 319.7,170.8 319.7,173 319.8,174.1 320.1,174.9 320.6,175.5 320.8,175.9 
		321.1,176.2 321.6,176.6 321.9,176.9 322,177.1 322,177.5 322.1,177.8 322.4,178.2 322.7,178.4 323.2,178.3 323.4,178.2 
		323.5,178.1 323.6,178.3 323.5,178.5 323.5,178.7 323.8,178.8 324.3,178.7 324.9,178.9 325.5,178.7 325.9,178.6 326.2,178.5 
		326.5,178.5 326.9,178.8 327.2,179 327.7,179 328,179 328.2,179 328.3,179.2 328.5,179.5 328.6,179.7 328.5,179.9 328.4,180.1 
		328.7,180.3 329.5,180.4 330.9,180.8 331.7,180.9 332.2,181 332.3,181.2 332.4,181.6 332.5,181.6 332.7,181.5 332.8,181.3 
		333,181.1 333.3,180.8 333.5,180.7 333.6,180.7 333.8,180.6 334,180.7 334.2,180.5 334.4,180.3 334.6,180.1 334.7,180.1 
		334.9,180.3 335,180.5 335.2,180.6 335.5,180.4 335.8,180.2 336.1,180.2 336.4,180.2 336.8,180.4 337.8,180.3 338.1,180.3 
		338.4,180.5 338.5,180.6 338.9,180.6 339.1,180.6 339.5,180.7 339.6,180.6 339.8,180.4 340,180.3 340.5,179.7 340.7,179.6 
		340.9,179.5 341,179.6 341.1,179.8 341.1,179.9 341.3,179.8 341.3,179.6 341.6,179.6 342.2,179.6 343.1,180 343.7,180.1 344,180 
		344.1,179.8 344.3,179.7 344.5,179.7 344.6,180 344.8,180.4 344.7,180.7 344.7,180.9 344.8,181.1 345.1,181 345.2,180.9 
		345.4,180.8 345.8,181 346.4,181.3 347,181.4 347.7,181.6 348.1,182 348.3,182.3 348.6,182.5 349.3,182.5 349.6,182.7 349.9,183 
		350.6,183.4 351.5,183.6 352.5,183.6 353,183.7 353.4,183.6 353.6,183.5 353.6,183.2 353.5,182.9 353.6,182.7 353.7,182.6 
		354.1,182.6 354.3,182.5 354.5,182.6 354.5,182.8 354.4,183.1 354.4,183.4 354.7,183.6 356,184 356.4,184.1 356.8,185 356.9,185.3 
		356.9,185.5 357,185.6 357.3,185.5 357.7,185.5 358,185.5 358.4,185.8 358.7,185.9 358.9,186.2 359.1,186.3 359.9,186.4 
		360.7,186.6 361.4,186.6 361.6,186.8 361.8,187.2 361.9,187.3 362.4,188.2 362.9,188.9 363.1,189.3 363.3,189.5 363.6,189.3 
		363.8,189.1 364.1,188.9 364.2,189 364.3,189.3 364.4,189.5 364.7,189.7 365.2,189.8 366.8,190.4 367.1,190.7 367.4,190.8 
		367.8,190.9 368.1,191.3 368.7,191.4 369.1,191.5 369.5,191.7 369.9,192.2 370.1,193.4 370.7,194.4 370.7,194.4 369.8,195.5 
		366.9,198.2 364.7,200.8 362,204 359.2,207.1 356.5,210.3 353.8,213.4 351.1,216.6 348.4,219.8 345.7,222.9 343,226.1 339.7,228.6 
		336.5,231.1 333.2,233.5 330,236 326.7,238.5 323.5,241 320.3,243.5 317,246 313.9,248.3 311.5,249.8 311.5,249.8 310.7,249.6 
		309.6,250.1 308.5,250.5 306.2,249.3 304.3,249 303.6,248.6 302.7,247.9 302.1,247.8 300.5,248.4 298,248.5 295.8,247.8 294,246.6 
		292.6,245 292,243.2 291.9,243 291.7,242.5 291.3,242.1 290.9,241.8 290.4,241 288.5,238.7 287.5,237 286.9,236.1 286.1,235.8 
		285.2,235.6 272.7,227.5 257.7,221.1 255.8,220.6 254.9,220.3 254.2,219.7 253.9,218.8 253.7,217.9 253.3,217.1 252.6,216.4 
		251.6,216 249.4,215.5 248.5,215 248,214.3 247.8,213.6 247.7,211.9 247.4,211.2 246.6,209.8 246.4,209.1 246.4,207.9 246.2,207.4 
		245.2,205.8 244.5,202.2 243.9,201 243.1,200.5 242,200.4 239.6,200.9 238.7,201 238.1,200.4 237.5,199.1 237.1,197.3 235.4,193 
		235,192.2 234.3,191.4 233.5,190.6 232.2,189.5 229.8,189 231.2,187.8 232.6,185 232.9,184.2 233,183.3 232.9,177.4 235.7,177.6 
		237.2,177.5 241,176.9 242.4,176.9 243.2,177 243.8,177.3 244.3,177.5 244.8,177.6 245.1,177.3 245.4,176.6 245.6,176.4 
		245.9,176.3 246.4,176.5 246.9,176.8 247.6,176.9 248.4,176.8 249.7,176.1 251.8,174.7 252.4,174.4 253.5,174 254.2,173.8 
		255.3,173.2 255.8,173 256.5,172.9 257.2,172.7 257.9,172.6 258.7,172.8 259.3,172.9 259.8,172.8 260.5,172.5 261.2,172.4 
		263.8,172.1 268.7,169.9 269.4,169.5 269.9,169.3 271.8,169.3 273.3,169 278.4,167.4 279.7,166.7 280.3,166.3 280.9,166.1 
		281.7,165.9 290.8,165.3 289.7,166.5 289.5,166.9 289.6,167.2 289.8,167.7 290.1,169.2 290.5,169.8 291.1,170.1 295.5,171.1 	"/>
	<polygon id="Orellana" class="st22" points="283.5,115.4 284.1,115.3 284.7,115 285.6,114.9 286.5,115 289.6,115.9 290.9,116 
		292.1,115.8 292.9,115.3 293.5,114.9 294.3,114.5 295.1,114.2 296.5,113.9 297.3,114.2 298,114.6 298.4,115.1 299,116 304.5,122.6 
		306.2,124.1 306.4,124.4 306.5,124.6 306.5,125.1 306.6,125.4 307.6,126.9 308.1,127.4 308.6,128.2 308.8,128.6 309.1,129 
		309.7,129.5 312.8,131.6 313.3,132.2 313.5,132.7 314.1,133.5 315.3,132.7 316.6,132.4 317.8,134 320.6,136.1 321.6,136.6 
		323.8,136.6 324.7,136.8 325.1,137.6 325.6,138.1 326.9,137.5 329.1,135.9 329.6,135.7 331.4,135.2 332.5,134.6 333,134.5 
		337.2,134 342.3,134.4 342.6,134.7 342.9,135.3 343.2,136 343.4,137.3 343.7,137.6 344.8,138.1 347,139.7 348.2,140.4 349.4,140.7 
		350.7,140.8 351.3,140.9 351.6,140.7 351.7,140.5 351.6,140.3 351.4,139.9 351.1,139.2 350.6,134.8 350.6,133.9 350.8,133.4 
		351.4,133 352.3,132.8 354.1,132.8 355,133.1 355.8,133.5 356.5,133.9 357.1,134.1 357.5,134.1 358.1,133.9 358.6,133.8 
		359.9,133.8 360.5,133.7 361,133.5 361.6,133.3 362,133.4 362.5,133.8 362.8,134.1 363.2,134.9 363.6,135.3 364.2,135.6 
		364.9,135.6 365.7,135.4 366.2,135.2 366.7,135.1 367.2,135.3 367.8,135.7 369,136.2 369.7,136.6 370,136.9 370.1,137.2 
		370.3,137.5 370.5,137.6 371,137.3 371.2,137.4 371.3,137.7 371.4,138.3 371.6,138.6 371.8,139 372.2,139.3 372.8,139.8 
		374.5,140.4 375,140.4 375.4,140.3 377.8,140.4 378.4,140.6 379,141 379.5,141.1 380.4,141.1 380.6,141.3 380.8,141.7 381,142.3 
		381.2,142.8 381.5,143.1 381.9,143.2 382.4,143.3 383.2,143.7 385.1,144.2 385.8,144.2 386.2,144.1 386.5,144 386.7,144.1 
		386.8,144.3 386.7,144.9 386.8,145.2 386.9,145.3 387.7,145.3 387.8,145.3 387.8,145.3 387.1,145.6 386.5,146 386.3,146.7 
		386.3,147.2 386.6,148.2 386.6,148.8 386.5,149.3 386.1,150.3 386.1,151 388.5,159.2 388.5,159.7 388.5,160.6 388.6,161.1 
		389,161.7 389.5,162.2 389.9,162.7 389.9,163.1 389.4,163.1 386.9,163.1 384.5,163.4 383.3,163.4 382.8,162.9 382.5,162.4 
		381.7,161.5 380.2,160.1 379.8,160.6 379.2,163.3 377.5,169.7 375.9,176.1 374.3,182.5 372.6,188.9 371.8,192 371.1,193.9 
		370.7,194.4 370.7,194.4 370.1,193.4 369.9,192.2 369.5,191.7 369.1,191.5 368.7,191.4 368.1,191.3 367.8,190.9 367.4,190.8 
		367.1,190.7 366.8,190.4 365.2,189.8 364.7,189.7 364.4,189.5 364.3,189.3 364.2,189 364.1,188.9 363.8,189.1 363.6,189.3 
		363.3,189.5 363.1,189.3 362.9,188.9 362.4,188.2 361.9,187.3 361.8,187.2 361.6,186.8 361.4,186.6 360.7,186.6 359.9,186.4 
		359.1,186.3 358.9,186.2 358.7,185.9 358.4,185.8 358,185.5 357.7,185.5 357.3,185.5 357,185.6 356.9,185.5 356.9,185.3 356.8,185 
		356.4,184.1 356,184 354.7,183.6 354.4,183.4 354.4,183.1 354.5,182.8 354.5,182.6 354.3,182.5 354.1,182.6 353.7,182.6 
		353.6,182.7 353.5,182.9 353.6,183.2 353.6,183.5 353.4,183.6 353,183.7 352.5,183.6 351.5,183.6 350.6,183.4 349.9,183 
		349.6,182.7 349.3,182.5 348.6,182.5 348.3,182.3 348.1,182 347.7,181.6 347,181.4 346.4,181.3 345.8,181 345.4,180.8 345.2,180.9 
		345.1,181 344.8,181.1 344.7,180.9 344.7,180.7 344.8,180.4 344.6,180 344.5,179.7 344.3,179.7 344.1,179.8 344,180 343.7,180.1 
		343.1,180 342.2,179.6 341.6,179.6 341.3,179.6 341.3,179.8 341.1,179.9 341.1,179.8 341,179.6 340.9,179.5 340.7,179.6 
		340.5,179.7 340,180.3 339.8,180.4 339.6,180.6 339.5,180.7 339.1,180.6 338.9,180.6 338.5,180.6 338.4,180.5 338.1,180.3 
		337.8,180.3 336.8,180.4 336.4,180.2 336.1,180.2 335.8,180.2 335.5,180.4 335.2,180.6 335,180.5 334.9,180.3 334.7,180.1 
		334.6,180.1 334.4,180.3 334.2,180.5 334,180.7 333.8,180.6 333.6,180.7 333.5,180.7 333.3,180.8 333,181.1 332.8,181.3 
		332.7,181.5 332.5,181.6 332.4,181.6 332.3,181.2 332.2,181 331.7,180.9 330.9,180.8 329.5,180.4 328.7,180.3 328.4,180.1 
		328.5,179.9 328.6,179.7 328.5,179.5 328.3,179.2 328.2,179 328,179 327.7,179 327.2,179 326.9,178.8 326.5,178.5 326.2,178.5 
		325.9,178.6 325.5,178.7 324.9,178.9 324.3,178.7 323.8,178.8 323.5,178.7 323.5,178.5 323.6,178.3 323.5,178.1 323.4,178.2 
		323.2,178.3 322.7,178.4 322.4,178.2 322.1,177.8 322,177.5 322,177.1 321.9,176.9 321.6,176.6 321.1,176.2 320.8,175.9 
		320.6,175.5 320.1,174.9 319.8,174.1 319.7,173 319.7,170.8 319.9,170.1 319.9,169.3 319.7,168.6 319,167.9 318.3,167.5 
		317.4,167.2 316.4,167.1 315.6,167.2 314.2,167.6 313.2,167.8 313,168 312.5,168.6 312.3,168.8 311.8,168.9 311.2,169 310.1,169.3 
		309.1,169.5 307.7,169.5 307.3,169.6 306.6,170 306.1,170.1 305.3,169.9 304.7,169.6 304.2,169.5 303.9,169.6 302.8,170.5 
		302.5,171 302.3,171.6 302.2,172.2 302.1,172.8 301.7,173.2 300.7,173.3 295.5,171.1 291.1,170.1 290.5,169.8 290.1,169.2 
		289.8,167.7 289.6,167.2 289.5,166.9 289.7,166.5 290.8,165.3 291.2,164.1 290.8,163.5 290.4,163.2 290.2,162.7 290.3,162.4 
		291.3,161.6 291.7,161 291.6,160.7 291.3,160.4 290.6,160.2 288.3,159.8 287.4,159.5 284.9,157.8 284.5,157.6 284,157.4 
		283.4,157.1 283.1,156.7 282.9,155.8 283,154.9 283.4,154 284,153.1 286.6,150.7 287.1,150.1 287.3,149.4 287.2,149.1 286.8,148.8 
		286,148.8 285.4,149.3 284.6,149.7 282.2,151.9 280.8,154.5 280.1,155.5 279.7,155.7 277.7,156.4 269.1,160.5 268.5,160.9 
		267.5,161.2 267.3,161.4 266.4,161.7 265.4,162 264,162.1 262.8,161.8 262.1,161.5 262.1,161 262.7,160.5 263.1,159.9 263.6,159.1 
		264.8,156.1 265,155.3 264.5,153.6 264.6,152.8 264.9,151.8 265.3,150.9 265.7,150.2 266.5,149.2 266.6,148.7 266.6,147.9 
		266.2,146.6 265.9,146 265.4,145.6 264.7,145.2 264.4,144.8 263.8,143.6 262.3,141.7 261.7,141.2 261.2,140.9 260.6,140.8 
		259.9,140.4 259.8,140 259.9,139.5 260.2,139.1 260.7,138.7 262.4,137.7 262.8,137.3 263,136.9 262.9,136.2 262.9,135.8 
		263.1,135.4 263.6,135.3 264.4,135.5 266.7,137 267.9,137.5 269.2,138 270.3,138.1 271,138 271.6,137.8 272.1,137.4 273.4,135.2 
		274,133.9 274.2,133.5 274.5,133.3 274.8,133.3 275.4,133.5 275.7,133.4 275.8,133.1 275.8,132.2 275.8,131.8 276,131.4 
		277.6,130.7 278.2,130.4 278.7,130 278.9,129.5 278.9,128.6 279,128.2 279.2,128 279.6,127.6 279.7,127.2 279.7,126.4 279.3,125.4 
		279.3,125.1 279.5,124.9 279.5,124.6 279.6,124.1 279.4,123.8 278.8,122.8 278,121.9 277.7,121.4 277.4,120.7 277.4,120.2 
		277.6,119.4 277.7,117.9 277.8,117.4 277.3,113.6 278.1,112.9 278.9,113.1 279.8,113.5 281.2,114.2 282.8,115.3 	"/>
	<polygon id="Napo" class="st22" points="261.6,115.8 261.9,115.7 262.5,115.3 263.7,114.1 264.3,113.7 265.2,113.6 265.7,113.4 
		266.1,113.2 266.3,112.9 266.4,112.7 266.7,112.5 266.9,112.4 267.7,111.9 268.3,111.6 268.6,111.8 268.9,112.2 269,112.8 
		269.2,113.2 269.4,113.4 269.4,113.7 269.4,113.9 269.2,114.2 269.1,114.5 269.1,114.8 269.3,115.2 269.4,115.5 269.3,115.8 
		269.2,116.1 269.2,116.5 269.2,116.8 269.3,117.2 269.8,117.4 272.3,117.9 273.2,118 273.9,118 274.2,117.8 274.5,117.5 
		274.9,117.1 275.5,115.9 275.9,115.2 277.3,113.6 277.8,117.4 277.7,117.9 277.6,119.4 277.4,120.2 277.4,120.7 277.7,121.4 
		278,121.9 278.8,122.8 279.4,123.8 279.6,124.1 279.5,124.6 279.5,124.9 279.3,125.1 279.3,125.4 279.7,126.4 279.7,127.2 
		279.6,127.6 279.2,128 279,128.2 278.9,128.6 278.9,129.5 278.7,130 278.2,130.4 277.6,130.7 276,131.4 275.8,131.8 275.8,132.2 
		275.8,133.1 275.7,133.4 275.4,133.5 274.8,133.3 274.5,133.3 274.2,133.5 274,133.9 273.4,135.2 272.1,137.4 271.6,137.8 271,138 
		270.3,138.1 269.2,138 267.9,137.5 266.7,137 264.4,135.5 263.6,135.3 263.1,135.4 262.9,135.8 262.9,136.2 263,136.9 262.8,137.3 
		262.4,137.7 260.7,138.7 260.2,139.1 259.9,139.5 259.8,140 259.9,140.4 260.6,140.8 261.2,140.9 261.7,141.2 262.3,141.7 
		263.8,143.6 264.4,144.8 264.7,145.2 265.4,145.6 265.9,146 266.2,146.6 266.6,147.9 266.6,148.7 266.5,149.2 265.7,150.2 
		265.3,150.9 264.9,151.8 264.6,152.8 264.5,153.6 265,155.3 264.8,156.1 263.6,159.1 263.1,159.9 262.7,160.5 262.1,161 
		262.1,161.5 262.8,161.8 264,162.1 265.4,162 266.4,161.7 267.3,161.4 267.5,161.2 268.5,160.9 269.1,160.5 277.7,156.4 
		279.7,155.7 280.1,155.5 280.8,154.5 282.2,151.9 284.6,149.7 285.4,149.3 286,148.8 286.8,148.8 287.2,149.1 287.3,149.4 
		287.1,150.1 286.6,150.7 284,153.1 283.4,154 283,154.9 282.9,155.8 283.1,156.7 283.4,157.1 284,157.4 284.5,157.6 284.9,157.8 
		287.4,159.5 288.3,159.8 290.6,160.2 291.3,160.4 291.6,160.7 291.7,161 291.3,161.6 290.3,162.4 290.2,162.7 290.4,163.2 
		290.8,163.5 291.2,164.1 290.8,165.3 281.7,165.9 280.9,166.1 280.3,166.3 279.7,166.7 278.4,167.4 273.3,169 271.8,169.3 
		269.9,169.3 269.4,169.5 268.7,169.9 263.8,172.1 261.2,172.4 260.5,172.5 259.8,172.8 259.3,172.9 258.7,172.8 257.9,172.6 
		257.2,172.7 256.5,172.9 255.8,173 255.3,173.2 254.2,173.8 253.5,174 252.4,174.4 251.8,174.7 249.7,176.1 248.4,176.8 
		247.6,176.9 246.9,176.8 246.4,176.5 245.9,176.3 245.6,176.4 245.4,176.6 245.1,177.3 244.8,177.6 244.3,177.5 243.8,177.3 
		243.2,177 242.4,176.9 241,176.9 237.2,177.5 235.7,177.6 232.9,177.4 232.9,176.1 232.7,175.6 232.3,175.3 230.5,175 229.7,174.7 
		229.1,173.6 228.9,173.4 228.6,173.4 228,173.5 227.7,173.3 227.6,172.8 227.4,172.5 227.2,172.3 226.6,172.4 225.7,172.6 
		225.3,172.6 224.1,172.3 223.4,172.3 222.7,172.5 220.8,173.7 220.5,173.6 220.3,173.4 220.5,172.8 221,171.9 221.1,171.3 
		221.2,170.5 221.2,168 221,167.2 220.5,166.2 219.1,164.6 217.9,162.7 217.1,162.2 215.8,162 215.4,161.7 215.2,161.4 215.4,161 
		215.6,160.8 216,160.5 216.3,160.1 216.4,159.7 216.4,158.9 216.5,158.4 216.8,157.6 217.4,156.8 218,155.6 218.1,154.6 
		218.1,153.4 217.8,151.5 217.2,149.5 217.2,149 217.7,147.6 218.8,147 219.4,146.8 220.9,146.5 221.3,146.3 221.6,145.9 
		221.8,145.1 222,143.6 222.3,142.9 222.8,142.2 223.8,141.2 224.5,140.3 225,139.3 225,138.5 225,138 225.1,137.4 225.4,136.8 
		226,135.7 226.3,135 226.4,134.4 225.6,132.9 225.9,132.1 226.5,131.1 228,129 228.7,127.8 229,126.5 229.2,121.6 229.1,121 
		229.3,120.6 229.6,120.2 230.2,120 230.6,120 231.9,119.6 232.3,119.6 232.8,119.7 233.3,120.3 233.6,120.4 234,120.4 234.7,120.1 
		235.2,119.6 235.8,118.6 236,118 236.1,117.6 236.3,117.5 236.8,117.5 238,117.8 238.5,117.8 238.8,117.5 239.4,116.5 239.7,116.2 
		240,116.1 240.3,115.8 240.5,115.2 240.6,113.8 240.8,113.3 241.2,113 243.1,112.3 247,110.3 247.6,109.8 248.3,108.6 250.7,109.2 
		251.2,109.5 251.2,109.6 251.2,109.8 251.2,109.9 251.2,110 251.1,110.1 251.1,110.1 251,110.2 251,110.3 250.9,110.6 250.9,111.1 
		251.2,112.9 251.6,114 252.3,114.4 253.3,114.6 258.7,114.8 260.3,115.1 261,115.4 	"/>
	<polygon id="Morona-Santiago" class="st22" points="238.7,201 239.6,200.9 242,200.4 243.1,200.5 243.9,201 244.5,202.2 
		245.2,205.8 246.2,207.4 246.4,207.9 246.4,209.1 246.6,209.8 247.4,211.2 247.7,211.9 247.8,213.6 248,214.3 248.5,215 
		249.4,215.5 251.6,216 252.6,216.4 253.3,217.1 253.7,217.9 253.9,218.8 254.2,219.7 254.9,220.3 255.8,220.6 257.7,221.1 
		272.7,227.5 285.2,235.6 286.1,235.8 286.9,236.1 287.5,237 288.5,238.7 290.4,241 290.9,241.8 291.3,242.1 291.7,242.5 291.9,243 
		292,243.2 292.6,245 294,246.6 295.8,247.8 298,248.5 300.5,248.4 302.1,247.8 302.7,247.9 303.6,248.6 304.3,249 306.2,249.3 
		308.5,250.5 309.6,250.1 310.7,249.6 311.5,249.8 311.5,249.8 310.7,250.3 305.7,252 298.9,254.4 292,256.8 285.2,259.2 
		278.4,261.6 271.5,264 264.7,266.4 257.9,268.8 251,271.2 249.5,271.7 247.4,272.4 246.4,273 242.4,276.5 236.9,283.8 234.3,286 
		233.5,286.8 231.8,290.1 231.2,291 229.2,292.5 228.5,293.3 228.5,294.5 229.2,295.5 230,296.1 230.7,296.9 230.8,298.3 
		230.3,299.5 229.5,299.8 228.5,300 227.7,300.7 226.9,301.1 226.4,300.1 225.7,296.6 225.2,295.8 224.6,295.2 222.2,294.6 
		221.1,294.4 220.2,294.7 219.6,295.7 219.6,296.1 219.9,297.1 219.9,297.7 219.5,300.1 218.8,302.3 218.8,302.3 212,302.3 208,303 
		206.9,303 204.8,302.8 204.2,302.8 203.6,303 203.4,303.2 203.2,303.4 202.6,304.5 202.4,304.8 202,305 201.7,305 200.7,304.5 
		200.1,304.4 198.3,304.1 196.1,303.5 194.5,303.3 193.9,303 193.6,302.6 193.6,302.3 193.4,301.9 193.2,301.6 192.8,301.2 
		192.5,300.9 192.3,300.6 192.1,300.2 192,299.7 192,298.7 191.7,298 191.7,297.6 191.8,297.2 192,296.9 192.2,296.6 192.8,296 
		193.1,295.7 193.2,295.4 193.2,295.1 193.1,294.7 192.7,294.3 188.2,291.1 187.9,290.1 188,289.7 188.3,289.1 195,283.8 
		196.1,282.7 198.1,282.1 200,281 201.3,280 202.7,278.4 203.3,277.5 203.5,276.5 203.3,275.7 203.3,274.8 203.6,273.9 204.9,271.2 
		205,270.7 205.3,269.8 207.9,265.5 208.2,264.7 208.2,264.2 208,263.7 207.6,263.1 207.2,262.6 206.8,262.2 206.7,261.8 
		206.8,261.5 208.4,258.3 208.9,257.7 209.5,257.3 215.5,254.2 216.1,253.7 216.3,253.2 216.3,252.7 216.2,252.3 216,251.8 
		215.6,251.4 213.9,250.1 213.6,250 213.1,250 212.6,250.1 212.1,250.4 211.5,250.9 211.2,251.5 211,252.1 210.9,252.7 210.6,253 
		210.2,253 209.7,252.8 209.3,252.4 209.1,251.8 209,251.3 209.4,249.7 209.8,249.9 209.9,249.9 210.1,249.9 210.3,249.8 
		210.5,249.7 211.1,249 212.4,247 212.6,246.6 212.7,246.1 212.7,245.5 212.7,245 212.9,244 212.9,240.9 212.9,240.3 213.1,239.8 
		212.7,239.2 211.9,238.6 208.5,237.1 207.8,236.6 207.7,236 209.6,234.7 209.9,234.2 210.2,233.5 210.2,232.9 210.4,232.2 
		210.9,231.7 211.9,231 212.2,230.5 212.2,230.2 212,229.9 211.8,229.6 211.7,227.5 212,226 212.6,225.1 213.3,224.5 214.2,224.1 
		214.8,223.6 215,223.2 214.5,222.1 214.2,221.5 214.3,220.1 214,219.5 213.7,219 213.2,218.7 212.8,218.3 212.6,217.8 212.6,217.2 
		212.8,216.6 214.3,214.3 216.5,211.9 216.6,211.2 216.2,209.5 216.1,208.2 215.9,207.8 215.6,207.5 215.3,207.2 215,206.7 
		214.9,205.8 214.8,204.9 214.8,203.7 214.9,203.1 215.2,202.6 215.5,202.3 215.8,202 216.2,201.6 216.6,201 217,200.5 217.5,200.1 
		218.8,199.4 219.3,199 219.7,198.5 219.9,198 220,197.4 219.9,196.9 219.4,195.4 219.4,194.6 219.5,194.2 220,193.3 220.9,192.1 
		221.5,191.7 222.6,191.1 223.3,190.9 225.2,191.2 226.6,191.1 227.3,190.9 228.3,190.5 228.7,190.1 229.8,189 232.2,189.5 
		233.5,190.6 234.3,191.4 235,192.2 235.4,193 237.1,197.3 237.5,199.1 238.1,200.4 	"/>
	<polygon id="Manabí" class="st22" points="148.1,101.2 148.2,101.1 148.4,101 148.6,100.9 148.7,100.8 149,100.8 149.2,100.9 
		149.3,101.1 149.4,102 149.5,102.3 149.6,102.5 149.7,102.5 149.8,102.5 150,102.4 150.4,102.1 150.7,102 151,102 151.2,102.2 
		151.6,102.6 152.6,103.6 153,103.8 153.4,103.9 153.7,103.9 153.9,104 154,104 154,104.1 154,104.2 152.6,105.8 152.4,106 
		152.3,106.2 152.3,106.6 152.3,106.8 152.2,107 152.1,107 152.1,107.1 152,107.2 151.8,107.2 151.7,107.3 151.5,107.4 151.4,107.5 
		151.3,107.7 151.3,107.9 151.2,108.1 151.3,108.3 151.5,108.8 151.5,109 151.5,109.4 151.6,109.7 152.5,111.1 152.1,111.6 152,112 
		151.9,112.6 152.1,113.7 152.3,114.3 152.8,114.6 153.2,114.8 153.5,114.9 154,115.3 154.7,115.8 155.1,116.2 156.5,117.9 
		157.9,119.2 158.2,119.3 160.2,119.9 160.5,120 161.4,119.9 161.8,119.9 162.3,120.1 162.5,120.6 162.4,121.5 162.8,131.2 
		162.6,132 162.2,132.8 160.5,135.5 160.4,136.7 160.3,137.2 159.7,138.8 158.8,139.9 158.1,142.4 157.6,143.6 156.4,146 
		155.7,147.9 155.6,148.2 155,148.6 154.5,148.7 154,149 153.4,149.7 153,150.6 152.3,154.4 151.2,156.6 147.7,157.2 146.8,157.4 
		146.2,157.8 145.6,158.3 143.6,161.2 143.3,161.8 143.1,162.5 142.8,163 142,163.5 141.7,163.8 141.6,164.3 141.7,164.6 141.6,165 
		141.5,165.5 141.2,166 140.8,166.6 140,167.3 139.1,168.8 138.5,169.5 135.7,171.8 134.9,172.2 133.9,172.5 133.4,172.4 133,172.3 
		132.2,172.3 131.9,172.2 131.8,172 131.9,171.5 132,171.1 131.8,171 131.4,171.2 130.9,171.7 130.6,172.5 130.2,173.8 129.7,174.9 
		129.3,176.5 128.2,179.5 127.7,180.2 125.6,181.9 124.4,182.4 123.8,182.9 123.4,183.7 123.3,184.7 123.5,186 123.4,186.3 
		123.1,186.6 121.9,186.9 121,187.5 120.7,187.6 120.4,187.7 120.1,188.2 119.8,188.8 119.6,190.2 119.6,190.9 119.7,191.5 
		119.9,192.1 120.5,193 120.6,193.4 120.3,193.9 118.5,195.1 115.1,195.6 115.1,195.9 115.4,196.4 116,197.1 116.7,197.7 
		117.2,197.9 117.8,198.1 118.1,198.2 118.2,198.4 118.2,198.6 118.1,199.1 118.2,199.6 118.8,201.2 118.5,201.7 117.8,202 
		115.6,201.8 114.9,202.2 114.6,202.6 114.2,202.6 113.9,202.4 113.5,202.1 113.1,201.9 112.6,202.1 112.2,202.5 111.7,203.4 
		111.4,203.7 110.6,204 110.1,204.3 109.4,204.8 109,205.3 108.7,205.9 108.3,206.5 107.8,207 107.4,207.7 107.3,208.2 107.3,208.7 
		107.2,209.1 107.1,209.5 107,209.9 106.8,210.2 106.3,210.3 104.7,210.5 102.5,210.4 101.3,210.1 100.5,209.7 100,209.1 
		99.9,208.6 99.9,208.1 100.1,207.6 100.2,207.2 100.9,206.2 101,205.9 101.2,204.3 101.1,203.8 100.9,203.4 100.2,202.7 
		100.1,202.3 100.1,202 100.2,201.5 99.9,201 99.1,200.6 97.6,200.4 96.6,200.4 94.7,201 93.6,201.2 89.7,201 89,201.3 88.6,201.3 
		87.5,201.2 86.1,201.5 86.1,201.5 85.1,199.2 84.4,198.2 84.1,197.5 84,196.7 84.3,196.1 86.2,194.7 85.9,193.5 85.9,191.9 
		86.4,191.4 87.1,190.9 87.7,190.7 88.6,190.7 88.9,190 88.8,189.2 89,188.2 89.2,187.2 89,186 89.2,185.2 90.2,184.7 90.1,183.4 
		88.5,181.2 85.2,177.3 82.6,172.6 81.4,169.9 80.7,168.3 81.1,167.2 81.8,166.5 82.5,165.9 83.2,165.1 83.6,164.6 84,164 
		84.8,163.3 85.4,162.5 85.6,162 86.2,161.8 86.9,162 87.7,162 88.5,161.6 89.2,161.3 90,161.4 90.6,161.2 91.3,161 91.2,161.5 
		92.2,161.9 93,162 93.6,161.4 94,161.2 94.5,160.7 95,160.5 95.6,161.3 96,161.4 97,161.5 98.4,161 99.6,160 100.8,158.7 
		101.6,155.3 101.8,154.2 102.5,150.7 103.5,148 104.7,145.5 105.4,144 105.7,143.7 106.1,143.3 106.9,143.2 107.6,143 107.7,144.4 
		108.5,145.5 109.9,146.1 111.4,146.3 114.3,146.4 114.3,145.7 112.8,145.3 111.1,145 110,145 109.2,144.4 108.7,142.8 107.9,141.6 
		107.2,141.3 106.8,140.7 106.7,139.4 106.1,137.9 106,136.3 105.2,134.6 104.2,133.4 103.5,131.1 104.1,130.3 105.3,130.2 
		107,128.8 108.7,126.2 109.3,125.3 109.4,124.5 109.9,123.4 110.4,122.5 111.5,122.1 112.2,121 112.9,119.8 113.9,120.7 
		115.1,120.1 116.4,119.1 117.9,118 121.2,114.4 123.7,111.1 124.7,110 125.1,108.9 125.2,108.2 125.4,108 125.8,107.9 126.9,107.5 
		127.7,105.5 128.2,103.7 128.5,100.8 128.4,99.5 128,97.2 127.9,93.1 128.4,91.6 128.4,91.2 128.5,91 129.1,91.2 129.4,91.5 
		129.6,91.9 129.8,92.7 130.2,92.7 130.3,92.1 130.6,91.6 130.6,91.6 131.9,94.9 132.6,95.9 133,96.1 133.4,96.2 133.8,96.3 
		134.1,96.3 134.4,96.2 134.6,96.1 134.9,95.9 135.1,95.7 135.4,95.5 135.5,95.3 135.7,95.1 135.9,94.6 136.2,94 136.3,93.4 
		136.3,93.2 136.4,93.1 136.5,93.1 136.7,93 136.8,93 138.7,93.1 139.6,93 140.6,92.8 141.3,92.6 141.6,92.4 142.2,92 143.4,90.8 
		143.6,90.5 144,90.3 144.6,90 145,90 145.3,90 145.6,90.1 145.9,90.2 146.4,90.7 146.9,91.1 147,91.3 147,91.4 147.1,91.5 
		147.1,91.6 147.1,91.7 147,91.8 146.4,92.4 146.2,92.7 146.1,92.9 146.1,93.1 146,93.3 146,93.5 146.1,93.7 146.2,93.9 146.3,94.1 
		146.5,94.2 149.1,95.8 149.3,96 149.4,96.2 149.4,96.3 149.4,96.4 149.4,96.5 149.2,96.7 148.9,97.1 148.5,97.3 148.3,97.6 148,98 
		147.7,98.4 146.7,99.8 146.6,100 146.7,100.2 146.9,100.4 147.5,100.9 147.8,101.1 	"/>
	<polygon id="Los_Ríos" class="st22" points="161.6,140.2 164.6,140 165.8,140.2 166.3,140.5 166.1,140.8 165.7,141.2 165.5,141.7 
		165.6,142.5 165.9,143.4 166,144.2 165.8,144.8 165.4,145.5 165.3,146 165.4,146.5 165.5,147 165.8,147.5 166.4,147.8 167,148.1 
		167.7,148.2 168.4,148.2 169.1,148 169.7,147.6 170.3,146.9 171,146.2 171.7,145.7 173.1,145 173.7,144.6 177.7,140.6 178.6,140.1 
		179.2,140 180.2,140.4 179.6,142.8 175.9,151.6 175.1,153.1 174.7,153.5 174.2,153.8 173.8,154 173.2,154.5 172.8,154.9 
		171.4,157.7 170.8,158.2 170.1,158.7 169.6,159.3 169.1,160 168.4,161.9 168.2,162.9 168.2,163.9 168.3,164.8 167.5,168.7 
		167.3,170 167.3,171.3 167.8,172.1 169.2,174 169.6,175.7 167.1,177 166,178.3 164.7,180.4 163.9,181.3 163.8,182 163.9,182.3 
		164.3,182.4 164.8,182.2 165.2,181.9 165.9,180.8 166.2,180.5 166.5,180.5 166.9,180.8 167.4,181.8 169,182.9 169.1,183.2 
		168.9,183.5 168.6,183.7 168.3,183.9 168,183.8 167.8,183.9 167.5,184.2 167.4,184.8 167.4,189 167.6,190.2 168,191.1 168.8,191.9 
		170.5,193 171,193.4 171.3,194.1 171.2,194.8 170.9,195.6 170.7,196.1 170.4,196.6 170.2,196.8 169.9,196.8 169.6,196.6 
		169.3,196.5 169,196.5 167.5,198.2 167.1,198.6 166.6,198.9 166.4,199.1 166.2,199.4 166.4,199.7 166.7,199.8 167.1,199.9 
		167.4,200 167.6,200.3 167.9,200.4 168.2,200.4 168.6,200.6 169,201.1 169.6,202.3 171.3,204.7 171.3,205.2 171.1,206.3 
		171.2,206.8 171.4,207.6 171.8,208.3 172.2,208.8 172.4,209.5 172.3,210.2 171.7,211.3 170.8,214.9 170.6,215.2 169.9,215.6 
		169.7,216.1 169.8,216.6 171.5,218.8 173.4,221.9 173.7,222.6 173.7,223.1 173.3,224 172.9,225.8 172.1,227.5 169.3,224.9 
		165.3,218.2 164.6,217.5 163,216.2 162.3,215.8 161.1,215.2 158.7,213.5 157.6,213 156.4,212.8 155.4,212.9 152.7,214 150.8,214.3 
		149.6,214 149.1,213.6 148.8,212.3 147.6,210.1 146.8,208.2 146.5,207.6 145.1,205.7 144.6,204.9 144.2,203.7 143.6,202.6 
		142.9,201.9 138.4,199.6 138.2,199.2 138,198.7 137.9,197.9 138,197.2 138.3,196.3 138.4,195.9 137.6,193.5 137.6,192.9 
		137.8,189.5 138,188.9 138.8,186.4 139.1,185.9 139.8,184.9 140.7,183.8 141.2,183.2 144.2,177.5 144.4,177 144.5,176.4 
		144.5,175.4 144.6,175 144.8,174.8 145,174.6 145.2,174.5 145.8,174.4 146.1,174.3 146.3,174 146.4,173.4 146.5,173.1 146.7,173 
		146.9,173 147.3,172.9 147.6,172.7 147.8,172.4 147.9,172 148,171.3 148.3,170.9 148.6,170.8 149.5,170.7 149.8,170.4 150.3,169.6 
		150.9,168.9 151.1,168.6 151.5,168.3 152,168.1 152.5,168 152.9,167.9 153.3,167.5 153.6,166.9 153.9,165 154.1,164.6 154.4,164 
		154.7,163.6 155.2,163.2 155.6,163 155.9,162.5 155.8,162.2 155.6,161.8 155.7,161.3 156.5,158.9 156.8,157.1 156.4,156.3 
		155.8,155.9 154.9,155.9 153,156.1 151.2,156.6 152.3,154.4 153,150.6 153.4,149.7 154,149 154.5,148.7 155,148.6 155.6,148.2 
		155.7,147.9 156.4,146 157.6,143.6 158.1,142.4 158.8,139.9 160.4,140 	"/>
	<polygon id="Loja" class="st22" points="164.7,292.1 166.2,292 167,292 167.6,292.4 168.2,292.9 168.5,293.7 168.6,294.3 
		168.5,295.4 168.6,296.6 168.9,297.3 169.6,298 170.9,298.6 172,298.6 172.8,298.4 174.3,297.6 174.8,297.5 175.2,297.9 175.6,299 
		176.1,300.1 177.8,302.7 178.2,303.8 178.2,305.1 178.3,306.7 179.3,308.1 178.2,309.4 177.8,309.7 177.1,310.3 176.8,310.7 
		176.9,311.5 176.8,311.8 176.6,312.1 176.3,312.3 176,312.4 175.5,312.5 175.2,312.5 174.9,312.5 174.6,312.6 174.4,312.9 
		174.4,313.3 174.5,313.8 174.6,314.2 175.1,315.2 175.9,317 176.4,317.8 177.5,319 178.1,320.2 178.3,320.7 178.4,321.6 
		178.3,322.1 178.1,322.7 177.6,323.9 177.3,325.1 177.1,326.8 177.2,328 177.5,329.7 177.4,330.5 176.6,333.5 176.5,334.7 
		176.5,335.5 176.6,335.9 176.8,336.2 176.9,336.3 177.1,336.5 177.3,336.6 177.8,336.9 178.1,337 178.3,337.3 178.5,337.6 
		179.1,338.3 179.2,338.7 179.3,339.2 179.4,340.1 179.2,340.8 179.4,342.2 179,345.3 179.1,345.9 179.1,347.3 179,348.4 
		178.7,350.2 178.5,350.6 178.3,351 177.6,351.6 176.8,352.7 176.4,353.5 176.1,353.8 175.6,354 175.1,354.1 174.7,354.3 
		174.4,354.6 174.1,355 173.7,355.3 173.2,355.3 172.8,354.9 172.2,354.5 171.7,354.3 171,354.2 170.4,354 169.8,353.8 169.4,353.9 
		169,354.2 168.7,354.8 168.4,355.3 167.6,355.9 167.3,357.5 167.3,358.1 167.5,359.1 167.5,359.7 167.2,360.4 166.9,361.1 
		165.2,363.5 164.5,364.2 162.7,367.2 160.3,369.7 159.8,369.9 159.8,369.9 158.4,367.2 157.8,363.9 156.2,361.6 156.2,360.4 
		157.5,358.2 157.6,357.4 157.3,356.9 156.2,356.3 154.9,356.3 154.6,356.1 153.8,355.5 153.4,355.3 150.6,352.6 149.1,351.8 
		147.2,352.1 145.3,353.2 141.6,354.3 139.6,354 138.3,352.6 137.1,350.9 135.7,349.7 134.3,349.3 132.9,349.3 131.5,349.1 
		130,348.3 128.9,347.5 127.2,345.6 126.2,344.8 125.3,344.4 124.2,344.2 123.3,344 122.9,343.4 122.8,343.4 120.5,343.7 
		119.9,343.9 119.4,344.2 118.9,344.5 118.5,345.3 117.9,347.2 117.5,348.1 116.6,349 112.5,352.2 110.2,353.4 109.7,353.9 
		109.3,353.9 108.3,354 107.4,353.6 105,352.2 104.3,351.6 103.8,350.4 104,349.5 111.2,340 111.8,338.7 109.3,339.1 106.9,339.8 
		105,339.6 103.9,337.1 103.9,336.6 104.1,335.6 104.1,335.1 103.8,334.4 102.9,333.2 102.6,332.5 102.7,331.5 102.7,331.4 
		103.2,330.1 103.8,328.7 104.4,327.9 105.2,327.3 106.2,327 107.3,326.9 108.4,327 109.5,327.3 111.8,328.6 112.8,328.8 114,328.2 
		114.9,327.1 115.7,325.8 116.4,324.9 120.7,322.9 121.5,321.9 121.6,321.4 122.4,321.4 126.3,321.2 129.8,320.4 133,318.9 
		134.1,318.6 137.2,318.3 138.2,318.4 139,318.5 140.1,318.9 141.1,319 144.6,318.8 145.7,318.6 146.5,318.2 147.9,316.6 148.5,316 
		150.1,315.1 150.9,314.8 151.5,314.5 151.9,314.4 152.2,314.5 152.6,315.3 152.9,315.7 153.8,316.5 154.5,316.8 155.4,316.9 
		157.2,316.6 157.9,316.7 159,317.1 159.6,317.3 160.6,317.3 161.6,317.1 162.3,316.7 162.7,316.2 163.1,315.7 163.3,315.2 
		163.4,314.6 162.9,313.1 163,312.8 163.3,312.4 164.1,311.6 164.4,311.3 164.6,310.7 164.9,309.9 165,309.1 164.9,308.3 
		164.6,307.7 164.2,307.3 163.9,307 163.2,306.6 162.6,306 162.2,305.7 161.6,305.6 161.1,305.8 160.8,306.1 160.1,306.9 
		159.5,307.6 159.1,307.9 158.7,308.1 158.5,307.7 158.4,307.2 158.4,306.5 159.2,304 159.2,303.3 159.3,302 159.5,301.3 
		159.8,300.7 161.6,298.6 161.8,298.3 161.9,297.9 161.9,297.6 161.7,297.3 161.4,297.1 161,296.9 160.6,296.8 160.3,296.6 
		160.1,296.1 159.8,295.2 159.7,294.2 160,291.3 161.4,291.9 162.8,292.1 	"/>
	<polygon id="Imbabura" class="st22" points="249.3,91.6 247.6,93.8 247.2,94.5 247.3,94.8 247.3,95 247.4,95.1 247.4,95.1 
		247.5,95.2 247.7,95.2 247.8,95.2 248,95.3 248.1,95.3 248.2,95.6 248.2,95.7 248,95.9 247.8,96.1 247.1,96.9 246.1,98.3 
		245.8,98.6 245.6,98.8 245.4,98.9 245.1,99 244.9,99.1 244.1,99.6 242.2,101.6 235.9,99.7 235,99.6 234.3,100 233.1,101 
		232.1,101.6 229.7,102.7 228.2,103.1 226.9,103.1 225.4,102.6 224.4,102.2 223.6,101.6 222.4,100.6 221.8,100.1 221.3,100 
		220.6,100.3 219.7,101.2 219.4,101.3 219.3,101 219.3,100.7 219.6,99.7 219.7,99.2 219.6,98.5 219.4,98 219.1,97.5 218.2,97.2 
		216.7,97 213.8,97.2 211,97.7 210.2,97.7 209.1,98 206.2,98.4 205.6,98.6 204.9,98.7 203.8,98.7 198.2,97.5 196.9,97.4 192.3,97.9 
		190.1,98.5 189,98.7 188.3,98.9 187.5,98.9 186.5,98.6 185.7,98.3 185.2,97.9 184.3,95.8 185.2,95.9 185.6,95.8 185.8,95.6 
		186.1,95.3 187.9,92.4 189,91.2 189.6,90.9 189.7,90.8 189.7,90.4 189.7,90.1 189.9,89.8 190.2,89.4 190.9,88.6 191.5,88 
		192.5,87.4 193.2,87.2 193.8,87.2 195.4,87.7 197.3,87.9 198,88.1 199.1,88.4 199.7,88.4 200.1,88.5 200.6,88.7 201,89 201.7,89.7 
		202.2,90 202.5,90.2 203,90.1 203.3,89.9 204.2,89.2 205.1,88.3 206.9,85.9 208.7,83.9 209.5,82.8 209.9,82.4 211.7,81.1 
		212.2,80.9 212.7,80.9 213.5,81 214.1,81.1 214.8,80.9 215.4,80.7 215.8,80.4 216.1,80 216.2,79.3 216.2,78.5 215.7,77.6 
		214.3,75.8 214,75.3 213.7,74.7 213.3,73.1 213.1,72.5 211.4,69.6 211.3,69.1 211.4,68.7 211.9,68.4 212.4,68.3 213.5,68.3 
		213.9,68.1 214.3,67.9 214.7,67.5 215.1,66.8 215.2,66 215.1,65 215.2,63 215.9,63.3 217,63.7 219,63.9 219.6,64 220.1,64.3 
		221,65.2 223.5,66.8 225.2,68.2 226.5,69.8 227.9,72.3 230.1,75 231.2,78.1 231.2,78.6 231.2,80.2 231.2,81.1 231.5,82.1 
		232.1,82.9 234.2,83.3 234.5,83.6 235.2,84.1 236.3,84.4 237.3,84.5 239.2,84.9 241.7,86.3 243.8,87.8 246.4,89.3 247.1,89.7 
		248,90.9 	"/>
	<path id="Guayas" class="st23" d="M129.7,255.2l-2.5-0.1l-1.1,0.4l-3,1.5l-3.3,1l-0.8,0.6l-0.8,2.2l-1.8,3.4l-0.2,0.7l-0.2,6.5
		l-0.3,1.9l0.3,1.2l0.8,0.4l1.3,0.3l1.3,0.1l0.9-0.3l1.1-0.6l1.9,0.2l0.9-1.2l0.3-0.8l0.8-0.8l0-1.3l0.7-0.8l0.9-0.4l0.4-0.9
		l0.7-1.2l0.7-1.3l0.6-1l0.1,0l0.5-0.5l0.4-0.8l0.3-0.8l0.2-0.3l0.8-0.7l0.2-0.5l2.7-1.2l0.6-0.5l0.3-0.3l0.2-0.4l0.2-0.4l0.1-0.4
		l-2.3-0.6L129.7,255.2z M138.3,254.5l1.3-0.8l0.2-2.4l1.9-1l1.2-1.7l-0.7-1.2l-1.3-0.5l-0.6-1.4l-1.5,2.6l-1.2,3l-0.7,2.1l0.2,1.2
		L138.3,254.5z M177.7,227.5l-0.4-0.4l-0.5,0l-0.5,0.3l-0.3,0.3l-0.4,0.2l-0.6,0l-0.6,0l-2.2-0.4l-2.7-2.5l-4.1-6.8l-0.7-0.7
		l-1.6-1.3l-0.7-0.4l-1.2-0.6l-2.5-1.7l-1.1-0.5l-1.2-0.1l-1,0.1l-2.8,1l-1.9,0.3l-1.2-0.3l-0.4-0.4l-0.3-1.2l-1.2-2.2l-0.8-1.8
		l-0.4-0.7l-1.4-1.8l-0.5-0.9l-0.4-1.2l-0.6-1.1l-0.8-0.7l-4.5-2.3l-0.2-0.4l-0.1-0.5l-0.1-0.8l0.1-0.7l0.3-1l0.1-0.4l-0.8-2.4
		l0-0.6l0.3-3.4l0.1-0.6l0.9-2.5l0.3-0.5l0.7-1l1-1.1l0.4-0.6l3-5.7l0.2-0.5l0.1-0.6l0-1.1l0.1-0.4l0.2-0.2l0.2-0.2l0.2-0.1l0.6-0.1
		l0.3-0.1l0.2-0.2l0.1-0.6l0.1-0.3l0.2-0.1l0.2,0l0.4-0.1l0.3-0.2l0.2-0.3l0.1-0.4l0.1-0.7l0.2-0.4l0.4-0.1l0.9-0.1l0.4-0.3l0.5-0.8
		l0.6-0.6l0.2-0.3l0.4-0.3l0.5-0.2l0.5-0.1l0.5-0.2l0.4-0.4l0.3-0.6l0.3-1.9l0.1-0.4l0.3-0.6l0.4-0.4l0.4-0.3l0.4-0.3l0.3-0.4
		l-0.1-0.3l-0.2-0.4l0-0.5l0.9-2.4l0.3-1.8l-0.3-0.8l-0.7-0.4l-0.9,0l-1.9,0.2l-1.8,0.5l-3.5,0.6l-0.9,0.3l-0.7,0.3l-0.6,0.5
		l-2.1,2.9l-0.2,0.6l-0.2,0.7l-0.3,0.5l-0.8,0.5l-0.3,0.3l-0.1,0.5l0,0.4l-0.1,0.4l-0.1,0.4l-0.3,0.5l-0.4,0.6l-0.7,0.8l-0.9,1.5
		l-0.6,0.7l-2.8,2.3l-0.8,0.4l-1,0.3l-0.5-0.1l-0.4-0.1l-0.9,0l-0.3-0.1l-0.1-0.3l0.1-0.5l0-0.4l-0.2-0.1l-0.3,0.2l-0.5,0.6
		l-0.4,0.8l-0.4,1.3l-0.5,1.1l-0.4,1.7l-1.1,3l-0.5,0.7l-2.1,1.7l-1.2,0.5l-0.6,0.5l-0.4,0.8l-0.1,1.1l0.2,1.3l-0.1,0.3l-0.3,0.2
		l-1.2,0.4l-0.8,0.5l-0.4,0.1l-0.3,0.2l-0.3,0.4l-0.3,0.6l-0.2,1.4l0,0.6l0.1,0.7l0.2,0.6l0.6,0.9l0,0.4l-0.3,0.5l-1.8,1.2l-3.3,0.4
		l0,0.4l0.3,0.4l0.6,0.7l0.7,0.6l0.5,0.3l0.6,0.1l0.4,0.1l0.1,0.2l-0.1,0.3l0,0.4l0.1,0.5l0.5,1.6l-0.3,0.5l-0.8,0.2l-2.1-0.2
		l-0.7,0.4l-0.3,0.4l-0.3,0.1l-0.3-0.2l-0.4-0.3l-0.4-0.2l-0.5,0.2l-0.4,0.4l-0.5,1l-0.3,0.3l-0.8,0.3l-0.5,0.3l-0.7,0.5l-0.4,0.5
		l-0.3,0.6l-0.4,0.6l-0.5,0.5l-0.4,0.6l-0.1,0.6l0,0.5l-0.1,0.4l-0.1,0.3l-0.1,0.4l-0.2,0.3l-0.4,0.2l-1.6,0.2l-2.3-0.1l0.5,2.4
		l1.6,2.5l2.8,1.7l4.3,1l3.2,1.9l2,1.8l2.1,3.2l-0.1,4.8l-0.9,5.5l-2.4,3.7l-2.6,1.5l-4.7,1.1l-3.2,2.4l-3.9,3.8l4.1,4.8l2.1,1.3
		l0.5,0.1l1,0.1l0.3,0.1l0.3,0.2l0.7,0.7l0.8,0.5l2.3,2l2.3,0.9l1.2,0.2l0.5-0.5l0.1-1.2l0-0.6l-0.2-0.5l-1.5-1.5l-0.2-0.2l-0.2-1.1
		l0.2-0.9l0.5-0.4l0.8,0.4l0.3,0.4l0.2,0.3l0.3,0.2l0.5,0l0.5-0.3l0.4-0.5l0.4-0.7l1.8-0.8l1.7-1.8l3.7-5.2l2.3-6.1l0.5-0.7l0.6-0.4
		l0.5-0.1l1.1,0.1l0.5-0.2l0.6-0.6l0.3-0.2l0.5-0.1l-1.1,1.8l-0.4,0.4l-0.6,0.2l-0.6,0.1l-0.5,0.3l-0.2,0.7l-0.2,1.3l-1,2.3
		l-0.2,1.2l0.3,0.8l0.8-0.2l1.1-0.6l1.2-0.1l1.3,1.2l0.7,0.2l0.2-1.1l0.3,0.6l0,0.6l-0.2,0.5l-0.5,0.3l-0.6,0l-0.4-0.4l-0.3-0.5
		l-0.3-0.2l-1.5,0.2l-0.6,0.5l-0.2,0.8l-0.5,1.1l-1.6,1.1l-0.7,0.8l0.3,0.9l0.7,0.5l0.4,0.1l1.2-0.1l0.4,0.1l0.3,0.7l0.5,0.3
		l0.8-0.2l1.9-1.1l0.9-0.3l0.5-0.3l1.5-1.7l0.4-0.6l0.6-2.2l0.8-10.6l-0.1-1.7l-1.7-2.9l-0.3-1.6l0.1-1.6l0.5-2.2l0.5-1.3l0.1-0.4
		l0.4-0.5l1.8-0.1l0.4-0.2l0-1l0.1-0.5l0.3-0.3l3.2-1.8l-0.4,1.2l-0.9,0.6l-0.9,0.4l-0.4,0.6l-0.3,1.3l-0.7,0.4l-0.9,0.3L138,225
		l0.4,0.7l-0.1,0.5l-0.4,0.5l-0.3,0.6l0,0.7l0.1,0.4l0.2,0.3l0.1,0.4l0.2,0.2l0.7,0.9l0.1,0.2l0.3,0.3l-0.1,0.7l-0.3,1.2l0,0.7
		l0.4,2.5l0,3.2l0.1,0.8l0.3,0.7l0.7,1.1l1,2.9l0.7,1l0.4,0.2l0.6,0.1l1.2-0.1l0.2,0.3l0.7,1.9l0.3,2.4l-0.1,1.3l-0.5,1l-1.6,1.7
		l-0.6,0.9l-1.2,3.2l-0.2,1.3l-0.5,1.2l-0.1,0.4l-1.1,2.1l-1.7,5.5l-0.1,1l-0.7,2.1l-0.2,1.2l0.5,0.9l-0.5,1.1l-0.7,1.1l0,0l0.4,0.1
		l4.2,0.2l0.6,0.1l2.2,0.7l0.1-1.1l0.2-0.5l0.4-0.7l2.9-3.6l0-0.4l-0.1-1.6l-0.3-1.5l-0.1-1l0.2-1.4l0.5-1.3l11.9-12.4l0.2-0.2
		l0.3-0.2l0.3-0.2l0.5-0.4l1.2-1.3l0.3-0.5l0.1-0.6l-0.4-0.6l-0.7-1.4l-1.6,0.5l-1.3,0.7l-0.8-0.1l-0.4-0.4l-0.1-0.7l3-2.8l1.8-1.2
		l0.1-0.3l-0.2-0.4l-0.2-0.4l0.1-0.4l0.2-0.5l0-1.3l0.5-0.7l0.6-0.6l1.5-1.1l0.8-0.4l0.7-0.3l6.4-1.2l1.1-0.3l1.3-0.5l1.3-0.7
		l0.7-0.6l0.6-0.6l0.3-0.4l0.5-1.1l0.2-2.2L177.7,227.5z"/>
	<path id="Esmeraldas" class="st23" d="M186.1,42.3l1.1,0.8l0.6-0.5l0.5-0.6l1.3,0.6l0.7-1.4l0.3-2.2l-0.1-1.8l-0.3-0.6l-0.1-0.4
		l0-0.5l-4.3,3.6l-0.8,1.2l0.2,1L186.1,42.3z M216.2,78.5l-0.4-0.9l-1.5-1.8l-0.3-0.5l-0.2-0.6l-0.4-1.6l-0.2-0.5l-1.6-3l-0.1-0.5
		l0.1-0.3l0.5-0.3l0.5-0.1l1-0.1l0.4-0.1l0.4-0.2l0.5-0.4l0.3-0.7l0.2-0.8l-0.1-1l0.1-2l-0.3-0.1l-0.9-0.6l-1-1l-0.9-0.5l-0.6,0.1
		l-0.7-0.6l-0.2-0.2l-0.5-1l-0.2-1l0.2-3.1l0.3-1.1l1.3-2l0.3-1.2l0-1.7l-0.1-1l0-0.8l0.1-0.4l0.9-0.8l0,0l-0.4-0.3l-3-0.7l-0.8,0.1
		l-0.8,0.4l-0.3-0.9l-1.1-1.2l-0.2-0.6l-0.1-1l-0.5-0.2l-0.8,0.2l-0.9,0.1l-1.3-0.4l-1.1-0.8l-0.8-1.1l-0.5-1.2l-0.6-0.9l-1.6-1.3
		l-1.1-1.6l-3.2-2.2l0,0l-0.1,0.6l0.2,0.7l0,0.8l-0.3,0.7l-2,2l-0.5,0.6l-0.2,0.7l0.4,0.8l0.9,0.4l1.1,0.1l1,0.3l0.4,0.8l-2.3-0.8
		l-0.9,0.1l-0.9,1l-0.2,0.6l0,0.4l-0.1,0.4l-0.5,0.5l-0.5,0.3l-0.4,0l-0.3-0.2l-0.2-0.5l-0.6,0.8l-0.5,0.5l-0.3,0.6l-0.2,2.4l-0.2,1
		l-0.6,0.8l-1,0.6l-0.1-1.5l-0.4-1.3l-0.7-1.1l-1.1-0.9l-1.3-0.5l-0.8,0.4l-4.1,5.4l-1,0.5l-1.4,0.3l-1.6,0.5l-1.5,0.2l-1.3-0.7
		l-0.6,0.3l-0.7,0.1l-1.5,0l-0.5,0.1l-1.2,0.5l-0.5,0.1l-3.8-0.3l-1.2,0.3l-3.7,3.4l-2.6,1.5l-2.3-0.7l-1,0.5l-0.5,0.8l-0.1,1
		l0.1,1.4l-0.1,0.3l-0.3,0.5l0,0.3l0.2,0.3l0.7,0.6l0.9,2.4l-0.4-0.4l-0.7-1.5l-0.6-0.6l-0.6-0.4l-0.5-0.5l-0.3-0.8l1.1-3.4l0-0.5
		l-0.3-0.6l-1.4,1l-3.3,1l-1.3,0.6l-0.4,0.4l-0.7,1l-0.4,0.4l-1.7,1.3l-0.4,0.2L139,62l-1,0.8l-1.7,0.3l-1.4,0.5l-0.8,0.1l-0.7,0.2
		l-1.1,1l-0.8,0.2l-1.8,0.2l-0.8-0.1l-0.9-0.5l-1.6,1.3l-1.2,1.9l-0.6,2.3l0,2.3l0.2,0.8l0.3,0.8l0.5,0.7l0.7,0.3l1,0.1l0.8,0.4
		l0.5,0.6l0.4,1.6l0.4,0.9l0.3,1.1l-0.1,1.1L129,82l-0.5,0.5l-0.4,0.6l-0.2,1.2l0.1,1.1l0.4,1.1l1.3,2.1l0.7,0.7l0.3,0.5l0.1,0.7
		l-0.1,0.5l-0.3,0.6l0,0l1.4,3.3l0.7,1l0.4,0.2l0.4,0.1l0.4,0.1l0.3,0l0.2,0l0.2-0.1l0.4-0.3l0.2-0.2l0.3-0.2l0.2-0.2l0.1-0.2
		l0.2-0.5l0.3-0.6l0.1-0.6l0-0.1l0.1-0.1l0.1-0.1l0.1,0l0.2,0l1.8,0.1l0.9,0l1-0.2l0.7-0.3l0.3-0.2l0.6-0.4l1.1-1.2l0.3-0.2l0.3-0.2
		l0.6-0.3L145,90l0.3,0l0.3,0.1l0.2,0.1l0.5,0.4l0.4,0.5l0.1,0.2l0.1,0.1l0,0.1l0,0.1l0,0.1l-0.1,0.1l-0.6,0.6l-0.2,0.3l-0.1,0.2
		l-0.1,0.2l0,0.2l0,0.2l0.1,0.2l0.1,0.2l0.1,0.2l0.2,0.2l2.6,1.6l0.2,0.2l0.1,0.1l0,0.1l0,0.1l-0.1,0.1l-0.1,0.2l-0.3,0.3l-0.4,0.3
		l-0.3,0.3L148,98l-0.2,0.4l-1,1.5l-0.1,0.1l0.1,0.2l0.2,0.2l0.6,0.5l0.3,0.2l0.3,0.1l0.2-0.1l0.1-0.1l0.2-0.1l0.2-0.1l0.3,0
		l0.1,0.1l0.1,0.2l0.1,0.9l0.1,0.3l0.1,0.1l0.1,0l0.1,0l0.2-0.1l0.4-0.3l0.3-0.1l0.2,0.1l0.2,0.2l0.4,0.4l1,1l0.4,0.2l0.3,0.1l0.4,0
		l0.2,0.1l0.1,0.1l0,0.1l0,0.1l-1.4,1.5l-0.1,0.2l-0.1,0.2l0,0.4l-0.1,0.3l0,0.1l-0.1,0.1l-0.1,0.1l-0.1,0.1l-0.2,0.1l-0.1,0.1
		l-0.1,0.1l-0.1,0.1l-0.1,0.2l-0.1,0.2l0,0.2l0,0.2l0.2,0.5l0,0.2l0,0.4l0.1,0.3l0.9,1.4l1.1-0.1l1.2,0.3l3.3,0.4l1.6,0.4l0.6,0.2
		l0.4,0.2l0.5,0.4l0.2,0l0.2-0.2l0.2-0.2l0.3-0.2l0.1-0.3l-0.1-0.2l-0.2-0.1l-0.2,0l-0.2,0l-0.2,0l-0.2-0.2l-0.6-0.8l-0.1-0.3
		l0.1-0.2l1-0.3l0.5-0.3l1.5-0.4l0.7-0.3l0.7-0.7l0.3-0.6l1.1-2.7l0.7-1.2l0.7-1.6l0.7-1l0.2-0.3l0-0.3l-0.2-0.4l-0.4-0.4l-0.5-0.4
		l-1.4-1l-0.2-0.3l0-0.4l0.3-0.4l0.5-0.3l1-0.5l0.8-0.5l1.1-0.9l0.5-0.3l0.7-0.3l0.6-0.3l1.5-1l0.7-0.2l0.8,0l1.3,0.1l1.5,0l5.7,1.2
		l0.5,0.2l0.3,0.2l0.9,1.1l0.9,0l0.3-0.1l0.3-0.2l0.3-0.4l1.8-2.8l1.1-1.2l0.6-0.3l0.1-0.1l0-0.4l0-0.3l0.2-0.3l0.3-0.4l0.7-0.8
		l0.6-0.6l1-0.6l0.7-0.2l0.6,0l1.6,0.5l1.9,0.2l0.7,0.2l1.1,0.2l0.6,0l0.5,0.1l0.5,0.2L201,89l0.8,0.8l0.5,0.3l0.3,0.1l0.4,0
		l0.3-0.2l0.9-0.7l0.9-1l1.8-2.4l1.8-1.9l0.8-1.1l0.4-0.5l1.7-1.2l0.5-0.2l0.5,0l0.9,0.2l0.6,0l0.8-0.1l0.5-0.2l0.4-0.3l0.3-0.4
		l0.2-0.7L216.2,78.5z"/>
	<polygon id="El_Oro" class="st22" points="143.5,277 150.2,280.5 152.2,282.3 152.5,283 152.6,283.8 152.6,284.6 152.3,285.3 
		151.1,287.7 150.8,288.8 150.5,289.3 149.9,289.7 148.9,290.2 148.7,290.4 148.6,290.9 148.9,291.2 149.6,291.4 151.5,291.4 
		154.6,290.7 156.5,290.5 157.3,290.5 158.2,290.7 160,291.3 159.7,294.2 159.8,295.2 160.1,296.1 160.3,296.6 160.6,296.8 
		161,296.9 161.4,297.1 161.7,297.3 161.9,297.6 161.9,297.9 161.8,298.3 161.6,298.6 159.8,300.7 159.5,301.3 159.3,302 
		159.2,303.3 159.2,304 158.4,306.5 158.4,307.2 158.5,307.7 158.7,308.1 159.1,307.9 159.5,307.6 160.1,306.9 160.8,306.1 
		161.1,305.8 161.6,305.6 162.2,305.7 162.6,306 163.2,306.6 163.9,307 164.2,307.3 164.6,307.7 164.9,308.3 165,309.1 164.9,309.9 
		164.6,310.7 164.4,311.3 164.1,311.6 163.3,312.4 163,312.8 162.9,313.1 163.4,314.6 163.3,315.2 163.1,315.7 162.7,316.2 
		162.3,316.7 161.6,317.1 160.6,317.3 159.6,317.3 159,317.1 157.9,316.7 157.2,316.6 155.4,316.9 154.5,316.8 153.8,316.5 
		152.9,315.7 152.6,315.3 152.2,314.5 151.9,314.4 151.5,314.5 150.9,314.8 150.1,315.1 148.5,316 147.9,316.6 146.5,318.2 
		145.7,318.6 144.6,318.8 141.1,319 140.1,318.9 139,318.5 138.2,318.4 137.2,318.3 134.1,318.6 133,318.9 129.8,320.4 126.3,321.2 
		122.4,321.4 121.6,321.4 121.6,321.4 121.2,321 120.7,320.7 120.3,320.2 120.1,319.7 120.1,318.7 120.1,318.2 119.6,317.1 
		118.5,315.4 118.2,314.3 118.3,313.9 118.6,313.5 118.7,313.1 118.7,312.5 118.4,311.5 118.3,311.1 118.3,310.5 118.4,310.1 
		118.7,309 118.8,308.5 118.8,307.9 118.5,306.8 118.4,306.2 118.3,305.7 117.8,305.5 117.3,305.3 116.9,304.9 116.9,304.5 
		117.4,303 117.5,302 117.5,301.5 117.3,301 117,300.6 116.1,300.2 115.8,299.9 115.6,298.8 116,297.6 116.1,296.7 115.3,296.1 
		113.3,295.6 112.4,295.1 112,294.9 112,294.9 111.9,294.5 111.8,294.1 112,293.5 112.7,293.1 113.1,292.5 113.3,291.7 113.9,290.9 
		113.3,292.5 113.1,292.8 113.4,294 114.1,293.4 114.4,291.7 115,290.9 116.4,292.4 117.2,292.1 121.1,291.3 121.8,291.4 
		122.2,291.5 122.6,291.5 123.2,291.3 124.4,289.9 124.6,289.6 126.7,285.4 127.3,284.6 128.5,284.8 128.7,286.1 128.4,288.7 
		128.9,288.4 129.3,287.8 129.6,287.2 130,286.6 130.5,286.3 132.3,285.2 133.1,284.2 133.6,283.1 133.9,281.9 134.2,279.8 
		135,277.8 136.2,276 136.2,276 136.6,276 140.8,276.2 141.3,276.3 	"/>
	<polygon id="Cotopaxi" class="st22" points="200.8,146 201.3,145.9 202.7,144.9 203.2,144.6 203.6,144.5 204,144.3 204.4,144.1 
		205,143.7 205.6,143.3 206.1,143.3 206.6,143.7 206.8,144 207.2,144.2 207.8,144 209.2,143.2 209.8,143.1 210.6,143.1 211.9,143.3 
		212.6,143.2 214.1,143.8 217.7,147.6 217.2,149 217.2,149.5 217.8,151.5 218.1,153.4 218.1,154.6 218,155.6 217.4,156.8 
		216.8,157.6 216.5,158.4 216.4,158.9 216.4,159.7 216.3,160.1 216,160.5 215.6,160.8 215.4,161 215.2,161.4 215.4,161.7 215.8,162 
		217.1,162.2 217.9,162.7 216.4,164.1 216.2,164.5 215.8,165.1 215.7,165.6 215.6,166.2 215.6,167.1 215,168.2 214.5,168.8 
		213.8,169.1 212.5,169.2 211.8,169 211.3,168.6 211.1,168.3 210.7,168.1 210.3,167.9 209.7,167.9 209.2,168 208.6,168.5 
		208.6,168.9 208.6,169.6 208.4,170 208,170.3 207.4,170.5 206,170.6 205.5,170.8 204.2,171.8 203.3,172.3 202.4,172.5 201.1,172.4 
		198.5,171.9 197.5,171.9 196.5,172.1 195.2,172.5 193.7,173.8 192.1,174.4 190.6,174 189.9,174 189,174.5 187.5,175.8 186.6,176.1 
		185.4,176.1 184.1,175.7 183,175.3 181.4,174.2 181,173.8 180.8,173.4 180.4,173.1 179.7,173 178.9,173 177.4,173.2 176.1,173.6 
		172.1,175.6 169.6,175.7 169.2,174 167.8,172.1 167.3,171.3 167.3,170 167.5,168.7 168.3,164.8 168.2,163.9 168.2,162.9 
		168.4,161.9 169.1,160 169.6,159.3 170.1,158.7 170.8,158.2 171.4,157.7 172.8,154.9 173.2,154.5 173.8,154 174.2,153.8 
		174.7,153.5 175.1,153.1 175.9,151.6 179.6,142.8 180.2,140.4 181,141.6 181.2,141.8 181.5,142 181.9,142.2 182.3,142.2 
		182.9,141.9 183.2,141.5 183.4,141.1 183.5,140.3 183.8,140.1 184.2,139.8 184.8,139.6 185.2,139.5 185.4,139.3 185.4,139 
		185.3,138.6 185.1,138.1 184.8,137.7 184.4,137.4 183.5,136.9 183.2,136.7 183.1,136.5 183.1,136.2 183.3,135.9 183.8,135 
		184.5,133.4 184.7,133.1 185,132.9 185.2,132.7 186.1,132.3 186.4,132.1 186.5,131.8 186.7,131.5 186.7,131 186.9,130.7 
		187.2,130.3 187.4,130.1 187.7,129.9 188.3,129.8 188.5,129.6 188.6,129.4 188.8,129.2 189.1,129.1 189.6,129.5 189.8,129.8 
		189.8,130.5 189.9,130.8 192,133.5 192.8,135 193.4,136 193.6,136.5 193.9,137.8 194.1,138.4 194.9,139 198.4,141.5 199.3,142.7 
		199.8,143.9 199.9,144.8 200.1,145.4 200.4,145.8 	"/>
	<polygon id="Chimborazo" class="st22" points="205.5,191.3 206.9,191.1 207.8,190.8 208.8,190.7 209.7,190.8 210.6,191 
		211.2,190.8 211.7,190.2 212,189.3 212.5,188.7 213.1,188.7 213.8,189 215.2,189.9 215.9,190.2 216.8,190.5 217.5,190.7 
		218.1,191.1 218.8,191.3 219.2,191.5 219.4,191.8 219.6,192.7 220,193.3 219.5,194.2 219.4,194.6 219.4,195.4 219.9,196.9 
		220,197.4 219.9,198 219.7,198.5 219.3,199 218.8,199.4 217.5,200.1 217,200.5 216.6,201 216.2,201.6 215.8,202 215.5,202.3 
		215.2,202.6 214.9,203.1 214.8,203.7 214.8,204.9 214.9,205.8 215,206.7 215.3,207.2 215.6,207.5 215.9,207.8 216.1,208.2 
		216.2,209.5 216.6,211.2 216.5,211.9 214.3,214.3 212.8,216.6 212.6,217.2 212.6,217.8 212.8,218.3 213.2,218.7 213.7,219 
		214,219.5 214.3,220.1 214.2,221.5 214.5,222.1 215,223.2 214.8,223.6 214.2,224.1 213.3,224.5 212.6,225.1 212,226 211.7,227.5 
		211.8,229.6 212,229.9 212.2,230.2 212.2,230.5 211.9,231 210.9,231.7 210.4,232.2 210.2,232.9 210.2,233.5 209.9,234.2 
		209.6,234.7 207.7,236 206.7,235.5 199.8,236.3 197.8,236.8 196.4,237.3 195.2,238.6 194.3,239.3 192.4,240.3 190.6,240.7 
		189.1,240.9 187.9,240.7 187.2,240.4 186.1,239.6 184.9,239.2 184.1,238.6 183.3,237.9 181.6,235.4 181.1,235 180.6,234.7 
		180.2,234.4 180,234 179.7,233.2 179.5,233 179.2,232.8 178.8,232.6 178.5,232.4 178.2,231.9 178,231.6 177.8,230.2 180.7,228.6 
		182.7,226.7 183.7,225.1 184,224.5 184.1,223.9 184,223.3 183.7,222.8 183.5,222.3 183.5,221.6 184.9,214.6 184.9,214 184.6,212.9 
		184.4,211.1 184.6,208.7 184.6,207.7 184.8,207.2 185,206.8 185.6,206.4 186.2,206.1 188.2,205.8 188.9,205.6 190.8,203.9 
		191.9,202.2 192.5,200.8 192.7,199.4 192.6,197.5 192.7,196.3 192.9,195 192.9,194.1 192.6,193.4 191.7,192 191.4,191.3 
		191.3,190.8 191.4,189.7 192.5,189.3 194.3,188.2 195,187.8 195.7,187.8 196.4,188 197.2,188.4 198.8,189.5 199.9,190.2 
		201.3,190.7 204.1,191.3 	"/>
	<polygon id="Carchi" class="st22" points="243.1,63 243.4,62.8 243.7,62.8 244.2,63.4 244.4,64 244.4,64.6 244.5,65.1 245.1,65.6 
		246.3,66.1 247.5,66.4 248.6,66.4 249.7,66.2 254,64.5 255.4,64.6 257,65.8 257.3,69.7 258.5,71.4 262.1,73.9 264,74.7 265.6,74.5 
		265.4,74.7 263.5,76.2 262.6,76.4 261.5,76 261.2,75.9 259.7,75.9 259.2,75.8 258.4,75.6 257.9,75.5 257.6,75.5 257.4,75.5 
		257.2,75.7 257,75.9 256.9,76.5 257,76.8 257.1,77.1 257.7,77.6 258,77.9 258.2,78.1 258.2,78.4 258.2,78.6 258,78.9 257.7,79.3 
		255.6,80.8 255.2,81.2 251.4,86 251,86.7 250.7,87.4 250.6,88.3 250.6,88.8 250.8,89.5 250.5,90.2 249.3,91.6 248,90.9 247.1,89.7 
		246.4,89.3 243.8,87.8 241.7,86.3 239.2,84.9 237.3,84.5 236.3,84.4 235.2,84.1 234.5,83.6 234.2,83.3 232.1,82.9 231.5,82.1 
		231.2,81.1 231.2,80.2 231.2,78.6 231.2,78.1 230.1,75 227.9,72.3 226.5,69.8 225.2,68.2 223.5,66.8 221,65.2 220.1,64.3 219.6,64 
		219,63.9 217,63.7 215.9,63.3 215.2,63 214.9,62.9 214,62.2 213,61.2 212.2,60.7 211.6,60.7 211,60.1 210.8,59.9 210.3,59 
		210.2,58 210.4,54.9 210.7,53.8 212,51.8 212.4,50.5 212.4,48.8 212.2,47.9 212.2,47.1 212.3,46.7 213.2,45.9 213.2,45.9 
		213.8,46.3 219,52 220.2,53 221.3,53.5 224.5,54.4 225.6,55 232.7,60.3 235,61.4 238.8,61.6 242.5,62.9 	"/>
	<polygon id="Cañar" class="st22" points="189.1,240.9 190.6,240.7 192.4,240.3 194.3,239.3 195.2,238.6 196.4,237.3 197.8,236.8 
		199.8,236.3 206.7,235.5 207.7,236 207.8,236.6 208.5,237.1 211.9,238.6 212.7,239.2 213.1,239.8 212.9,240.3 212.9,240.9 
		212.9,244 212.7,245 212.7,245.5 212.7,246.1 212.6,246.6 212.4,247 211.1,249 210.5,249.7 210.3,249.8 210.1,249.9 209.9,249.9 
		209.8,249.9 209.4,249.7 208.5,249.6 206.6,251 206,251.6 205.8,252.2 205.7,252.8 205.3,253.5 204.5,254.1 203.9,254.3 
		202.7,254.6 202.1,255 201,255.9 200.3,256.4 199.8,256.7 199.4,256.7 198.3,256.5 197.6,256.5 197.1,256.7 196.6,257.1 
		196.2,257.7 196.1,258.2 196.2,258.8 196.4,259.3 196.5,259.7 196.3,260.1 196.1,260.4 195.1,261.7 194.9,262.2 194.8,262.6 
		194.9,263.5 194.9,263.8 194.7,263.9 194.3,263.8 193.8,263.7 193.4,263.8 192.9,263.9 192.3,264 191.5,264 189.5,263.8 
		188.7,263.5 188.3,262.9 188.1,261.6 187.9,261 187.5,260.5 186.3,259.3 185.4,258.6 183.8,256.6 183.1,255.8 182.3,255.1 
		181.6,254.7 181,254.4 180.6,254.5 180.3,254.7 180.1,255.1 180,255.5 179.7,255.9 179.2,256.2 178.1,256.7 177.7,257 177.4,257.3 
		177.4,257.8 177.3,258.3 177.1,258.7 176.6,259.1 176,258.9 175.2,258.4 170.4,253.4 169.9,252.8 169.6,252.2 169.4,251.6 
		168.9,251.1 168,250.5 166.6,250.3 165.9,250.1 165.4,249.5 164.4,247.4 163.8,246.7 162.9,246.2 161.1,246.1 159.5,246.6 
		158.3,247.2 157.4,247.1 157,246.8 156.9,246 160,243.2 161.8,242 161.8,241.7 161.6,241.3 161.4,240.9 161.5,240.5 161.7,240 
		161.7,238.7 162.2,238 162.8,237.4 164.3,236.3 165.1,235.9 165.7,235.6 172.1,234.4 173.2,234.1 174.4,233.6 175.7,232.9 
		176.5,232.3 177,231.7 177.3,231.3 177.8,230.2 178,231.6 178.2,231.9 178.5,232.4 178.8,232.6 179.2,232.8 179.5,233 179.7,233.2 
		180,234 180.2,234.4 180.6,234.7 181.1,235 181.6,235.4 183.3,237.9 184.1,238.6 184.9,239.2 186.1,239.6 187.2,240.4 187.9,240.7 
			"/>
	<polygon id="Bolivar" class="st22" points="185.4,176.1 186.6,176.1 187.5,175.8 189,174.5 189.9,174 190.6,174 192.1,174.4 
		191,176.6 190.8,177.3 190.7,179.4 190.5,180.2 189.8,181.8 189.4,182.8 188.8,185.5 189,186.3 190.3,188.2 190.9,188.9 
		191.4,189.7 191.3,190.8 191.4,191.3 191.7,192 192.6,193.4 192.9,194.1 192.9,195 192.7,196.3 192.6,197.5 192.7,199.4 
		192.5,200.8 191.9,202.2 190.8,203.9 188.9,205.6 188.2,205.8 186.2,206.1 185.6,206.4 185,206.8 184.8,207.2 184.6,207.7 
		184.6,208.7 184.4,211.1 184.6,212.9 184.9,214 184.9,214.6 183.5,221.6 183.5,222.3 183.7,222.8 184,223.3 184.1,223.9 184,224.5 
		183.7,225.1 182.7,226.7 180.7,228.6 177.8,230.2 178,227.9 177.7,227.5 177.3,227.1 176.8,227 176.3,227.4 175.9,227.7 
		175.5,227.9 174.9,227.9 174.3,227.9 172.1,227.5 172.9,225.8 173.3,224 173.7,223.1 173.7,222.6 173.4,221.9 171.5,218.8 
		169.8,216.6 169.7,216.1 169.9,215.6 170.6,215.2 170.8,214.9 171.7,211.3 172.3,210.2 172.4,209.5 172.2,208.8 171.8,208.3 
		171.4,207.6 171.2,206.8 171.1,206.3 171.3,205.2 171.3,204.7 169.6,202.3 169,201.1 168.6,200.6 168.2,200.4 167.9,200.4 
		167.6,200.3 167.4,200 167.1,199.9 166.7,199.8 166.4,199.7 166.2,199.4 166.4,199.1 166.6,198.9 167.1,198.6 167.5,198.2 
		169,196.5 169.3,196.5 169.6,196.6 169.9,196.8 170.2,196.8 170.4,196.6 170.7,196.1 170.9,195.6 171.2,194.8 171.3,194.1 
		171,193.4 170.5,193 168.8,191.9 168,191.1 167.6,190.2 167.4,189 167.4,184.8 167.5,184.2 167.8,183.9 168,183.8 168.3,183.9 
		168.6,183.7 168.9,183.5 169.1,183.2 169,182.9 167.4,181.8 166.9,180.8 166.5,180.5 166.2,180.5 165.9,180.8 165.2,181.9 
		164.8,182.2 164.3,182.4 163.9,182.3 163.8,182 163.9,181.3 164.7,180.4 166,178.3 167.1,177 169.6,175.7 172.1,175.6 176.1,173.6 
		177.4,173.2 178.9,173 179.7,173 180.4,173.1 180.8,173.4 181,173.8 181.4,174.2 183,175.3 184.1,175.7 	"/>
	<polygon id="Azuay" class="st22" points="176.6,259.1 177.1,258.7 177.3,258.3 177.4,257.8 177.4,257.3 177.7,257 178.1,256.7 
		179.2,256.2 179.7,255.9 180,255.5 180.1,255.1 180.3,254.7 180.6,254.5 181,254.4 181.6,254.7 182.3,255.1 183.1,255.8 
		183.8,256.6 185.4,258.6 186.3,259.3 187.5,260.5 187.9,261 188.1,261.6 188.3,262.9 188.7,263.5 189.5,263.8 191.5,264 192.3,264 
		192.9,263.9 193.4,263.8 193.8,263.7 194.3,263.8 194.7,263.9 194.9,263.8 194.9,263.5 194.8,262.6 194.9,262.2 195.1,261.7 
		196.1,260.4 196.3,260.1 196.5,259.7 196.4,259.3 196.2,258.8 196.1,258.2 196.2,257.7 196.6,257.1 197.1,256.7 197.6,256.5 
		198.3,256.5 199.4,256.7 199.8,256.7 200.3,256.4 201,255.9 202.1,255 202.7,254.6 203.9,254.3 204.5,254.1 205.3,253.5 
		205.7,252.8 205.8,252.2 206,251.6 206.6,251 208.5,249.6 209.4,249.7 209,251.3 209.1,251.8 209.3,252.4 209.7,252.8 210.2,253 
		210.6,253 210.9,252.7 211,252.1 211.2,251.5 211.5,250.9 212.1,250.4 212.6,250.1 213.1,250 213.6,250 213.9,250.1 215.6,251.4 
		216,251.8 216.2,252.3 216.3,252.7 216.3,253.2 216.1,253.7 215.5,254.2 209.5,257.3 208.9,257.7 208.4,258.3 206.8,261.5 
		206.7,261.8 206.8,262.2 207.2,262.6 207.6,263.1 208,263.7 208.2,264.2 208.2,264.7 207.9,265.5 205.3,269.8 205,270.7 
		204.9,271.2 203.6,273.9 203.3,274.8 203.3,275.7 203.5,276.5 203.3,277.5 202.7,278.4 201.3,280 200,281 198.1,282.1 196.1,282.7 
		195,283.8 188.3,289.1 188,289.7 187.9,290.1 188.2,291.1 187.1,292.1 184,293.8 183.1,294.5 182.4,295.2 181.9,295.9 181.6,296.5 
		181.5,297 181.6,297.4 181.9,298.2 182.2,298.5 182.3,298.9 182.4,299.3 182,300.4 181.9,301 181.8,301.6 182.1,303.5 181.5,306.7 
		181.3,307.2 181,307.6 180.6,307.8 180.3,308 179.3,308.1 178.3,306.7 178.2,305.1 178.2,303.8 177.8,302.7 176.1,300.1 175.6,299 
		175.2,297.9 174.8,297.5 174.3,297.6 172.8,298.4 172,298.6 170.9,298.6 169.6,298 168.9,297.3 168.6,296.6 168.5,295.4 
		168.6,294.3 168.5,293.7 168.2,292.9 167.6,292.4 167,292 166.2,292 164.7,292.1 162.8,292.1 161.4,291.9 160,291.3 158.2,290.7 
		157.3,290.5 156.5,290.5 154.6,290.7 151.5,291.4 149.6,291.4 148.9,291.2 148.6,290.9 148.7,290.4 148.9,290.2 149.9,289.7 
		150.5,289.3 150.8,288.8 151.1,287.7 152.3,285.3 152.6,284.6 152.6,283.8 152.5,283 152.2,282.3 150.2,280.5 143.5,277 
		143.6,275.9 143.8,275.5 144.2,274.8 147.1,271.2 147.1,270.7 147.1,269.2 146.7,267.7 146.6,266.7 146.8,265.3 147.3,264 
		159.2,251.6 159.5,251.4 159.8,251.2 160.1,251 160.6,250.6 161.8,249.3 162.1,248.8 162.2,248.1 161.8,247.5 161.1,246.1 
		162.9,246.2 163.8,246.7 164.4,247.4 165.4,249.5 165.9,250.1 166.6,250.3 168,250.5 168.9,251.1 169.4,251.6 169.6,252.2 
		169.9,252.8 170.4,253.4 175.2,258.4 176,258.9 	"/>
</g>
<path id="Galápagos" class="st24" d="M86.2,66.8L86,67l-0.3,0.1l-0.3,0l-0.3-0.2l-0.3-0.1L84.2,67l-0.3,0l-0.2,0.2l-0.8,0.3
	l-0.2,0.1l-0.1,0.2l-0.6,0.5l-0.2,0.3l-0.3,0.7l-0.3,0.2l-0.9,0.2l-0.2,0l-0.2,0.7l-0.3,0.2l-0.9,0.4l-0.2,0.2l-0.3,0.3L78,72l0,0.2
	l0.2,0.1l0.8,0.1l0.2,0.1l0.5,0.3l0.2,0.1l0.3-0.1l0.5-0.3l0.2-0.1l0.7,0l0.3,0l0.3-0.1l0.3-0.2l0.3-0.3l0.4-0.7l0.3-0.6l0-0.2
	l0.1-0.1l0.8-0.2l0.6-0.5l0.6-0.8l0.4-0.9L86.2,66.8z M25.9,15.5l0.1,0.2l0.1,0v-0.2L26,15.4L25.9,15.5z M30.1,21.5L30,21.6l0,0.1
	l0.1,0.1l0.1,0.1l0.1-0.1l0-0.1l-0.1-0.2L30.1,21.5z M53.3,39.8l0.4-0.7l-0.3-1l-0.9-0.5L52.3,38l0.1,0.9l-0.2,0.5L53.3,39.8z
	 M58.3,45.4l0.2,0.2l0.2,0.1l0.3,0.1l0.3,0.3l0.3,0.1L60,46l0.5-0.3l0.4-0.4l0.1-0.3l-0.2-0.4l-0.4-0.3l-0.5-0.3l-0.5-0.2L58.9,44
	l-0.5,0.2l-0.3,0.4l0,0.5l0.1,0.1L58.3,45.4z M37.5,62.6L39,62l0.2-0.1v-1.9l0.1-0.8l-0.1-0.5L39,58.4l-0.2-0.1l-0.8-0.8l-0.3-0.2
	l-0.1,0l-0.5,0.2l-1,0.2l-0.8,0.4l-1.9,0l-0.1,0.3l0.3,0.8l0.1,1l0.2,0.5l0.3,0.4l0.4,0.4l0.1,0.1l0,0.1l0,0.1l0.1,0.1l0.1,0l0.2,0
	l0.1,0l0.7,0.3l0.4,0.1l0.5,0.3l0.2,0.1l0.2,0L37.5,62.6z M30.1,21.3L30.1,21.3L30.1,21.3L30.1,21.3z M78,81.5l-0.6-0.2l-0.3,0.1
	l-1,0l-0.3-0.1l-0.4,0.4l1.8,0.8l0.7,0.1l0.7-0.2l0-0.5L78,81.5z M65.5,63.7l-0.4-0.1l-0.2,0l-0.2-0.1l0-0.2l0-0.3l0-0.2l-0.1-0.1
	l-0.1-0.1l-0.1-0.1l-0.1,0l-0.5,0.2L61.6,63L61.5,63l-0.2,0.2L61,63.3l-0.2,0l-0.5-0.1l-0.2,0l-0.3,0.1l-0.6,0.3l-0.2,0.1l-0.3,0.4
	l-0.3,0.5l-0.2,0.5L58,65.5l0,1.1l0,0.3l0.2,0.2l0.4,0.2l0.4,0.1l0.3,0l0.2,0.2l0.5,0.7l0.2,0.1l0.1,0l0.1,0.1l0.1,0.1l0.5,0.1
	l0.7,0.3l0.4,0l0.4-0.1l0.3-0.2l0.1-0.4l0.1-0.1l1.1,0l0.1,0l0.2-0.1l0.3-0.3l0.2-0.4l0.3-0.3l0.4-0.1l0-0.1l0.2-0.5l0.1-0.1l0-0.2
	l-0.1-0.3l0-0.3l0.3-0.9l0.1-0.5l-0.3-0.2L65.5,63.7z M61.8,79.5l-0.1-0.1l0-0.1l-0.2-0.3l-0.5-0.2l-0.6-0.1l-0.4,0.1l-0.2-0.3
	l-0.3,0.1L59.1,79L59,79.7L58.9,80l-0.2,0.3l-0.2,0.2l0.5,0.3l0.3,0.3l0.3,0.2l0.8,0.1l0.1,0l0.7-0.4l0.1-0.1l0-0.1l0-0.3l0-0.1
	l0.1-0.1l0.3-0.1l0.1-0.1l0-0.1l0.1-0.1l0.1-0.1l0-0.1l-0.1-0.2L61.8,79.5z M52.5,68h-0.1l-0.2-0.1l-0.8-0.8L51.1,67l0.1-0.3
	l-0.1-0.3l-0.2-0.2l-0.3-0.1l-0.3,0l0-0.5l-0.5-0.2L49,65.2l-0.1-0.3l0-0.4l-0.1-0.2l-0.5,0.3l0.2-0.3l0.6-0.5l0.1-0.4l-0.1-0.9
	l-0.2-0.8l0-0.1l0.1-0.1l0.1-0.1l0-0.1l-0.3-0.1L48.6,61l-0.3-0.3l-0.1-0.2l-0.1-0.2l-0.2-0.2l-2.2-1.4l-0.1-0.1l-0.2,0l-0.2-0.1
	l-0.1-0.2l0-0.3l0-0.1l-0.1-0.1l-0.9-0.8L44,56.5l-0.4-2.4l0.1-1l0-0.5l-0.2-0.4l-0.1-0.1l-0.2,0l-0.5,0l-0.2-0.1l-0.3-0.4L42,51.4
	l-0.2-0.2l-0.3-0.9L41.3,50l-0.1-0.2l-0.1-0.5l-0.2-0.5l-0.4-0.3l-0.2,0.1l-0.4,0l-0.3,0.1l-0.2,0.2L39.4,49l-0.1,0.2l-0.7,0.2
	l-0.4,0.2l-0.4,0.1l-0.5-0.2L37,50.5l-0.4,0.4l-1.5,0.8l-0.2,0.1l-0.1,0.1l0,0.2l0.1,0.2l0.4,0.6l0.4,0.2l0.4-0.1l0.8-0.5l0.8-0.3
	l0.7,0l0.5,0.4l0.2,0.7l0,0.2l0.1,0.4l0,0.2v0.8l0.1,0.4l0.2,0.3l0.4,0.6l-0.5,0.2l0,0.4l0.3,0.5l0.4,0.3l0,0.7l0.5,0.6l1.3,0.7
	l0.2,0.4l0.1,0.1l0.1,0.1l0.3,0l0.2,0.1l0.3,0.2l0.1,0.2l0,0.6l0.2,0.7l0.4,0.8l0.5,0.7l0.5,0.5l0.3,0.1l0.6,0.2l0.3,0.1l0.3,0.2
	l0.2,0.3l0,0.3l-0.3,0.4l-0.3-0.1l-0.3,0.3L45,66l0,0.2l-0.1,0.1l-0.2,0.3l-0.1,0.1l-0.2,0.1l-0.2,0l-0.4-0.1l-0.1-0.1l-0.1-0.1
	l-0.1-0.1l-0.2-0.1l-0.3,0l-0.8,0.2l-0.6,0.2l-0.3,0L41.2,67v0.1L41,67.3L38.5,69l-0.7,0.6l-0.6,0.9l-0.2,1l0.5,0.9l0.2,0.1l0.3,0
	l0.2,0.1l0.1,0.2l0,0.5l0,0.2l0.1,0.2l0.3,0.3l0.5,0.1l2.5,0l2,0.3l0.3-0.1l0.5,0.1l2.5-0.8l0.7-0.5l0.4-0.1l0.7-0.1l0.4,0l0.4,0.2
	l0.2-0.4l0.6-0.6l0.3-0.4l0.5,0.1l0-0.4L51.1,71l0.7-2.1l0.2-0.1l0.5-0.2l0.1-0.1L52.5,68L52.5,68z M57.7,58.1L57.7,58.1l0.2-0.1
	l-0.6-0.4l-1.1-1.3L55.4,56L54.9,56l-1.5-0.5l-0.4-0.3l-0.1,0.1l-0.1,0l-0.2-0.1l-0.4,0.1l-0.4,0.3l-0.2,0.4l0.1,0.4l-0.1,0.3
	l-0.9,1.3l0.6,0.1l0.2,0.5l0.1,0.6l0.3,0.4l0.5-0.2l0.4,0.1l0.4,0.2l0.4,0.1h1.5l0.9,0.3l0.5,0.1l0.4-0.1l0.2-0.5l0.5-0.7l0.1-0.4
	l-0.3-0.2L57.7,58.1z"/>
<circle cx="185.6" cy="266" r="4"/>
<rect x="199.8" y="128" class="st4" width="60.1" height="12.6"/>
<text transform="matrix(1 0 0 1 199.7968 134.4497)" class="st42 st10 st43">Quito</text>
<rect x="159.6" y="270.8" class="st4" width="60.1" height="12.6"/>
<text transform="matrix(1 0 0 1 159.5651 277.2566)" class="st42 st10 st43">Cuenca</text>
<rect x="24" y="105.1" class="st4" width="68.9" height="19.6"/>
<text transform="matrix(1 0 0 1 36.7072 111.586)"><tspan x="0" y="0" class="st42 st10 st43">Galapagos</tspan><tspan x="7.5" y="10.8" class="st42 st10 st43">Islands</tspan></text>
<g>
	<circle cx="212.7" cy="121" r="4"/>
	<polygon class="st14" points="212.7,117 213.4,119.7 216.4,119.7 214,121.3 215,124.2 212.7,122.3 210.4,124.2 211.4,121.3 
		208.9,119.7 211.7,119.8 	"/>
</g>
<rect x="22" y="24.3" class="st40" width="75.8" height="76.9"/>
<line class="st40" x1="227.2" y1="446.9" x2="275.9" y2="446.9"/>
<line class="st40" x1="226.8" y1="450.5" x2="305.8" y2="450.5"/>
<line class="st41" x1="227.2" y1="443.3" x2="227.2" y2="447.4"/>
<line class="st41" x1="251.4" y1="443.3" x2="251.4" y2="446.9"/>
<line class="st41" x1="275.9" y1="443.3" x2="275.9" y2="447.2"/>
<rect x="225.1" y="435.9" class="st4" width="115" height="8.3"/>
<text transform="matrix(1 0 0 1 225.1472 441.6217)" class="st10 st44">0        50      100 km</text>
<rect x="225.1" y="455.4" class="st4" width="121" height="8.5"/>
<text transform="matrix(1 0 0 1 225.1472 461.1602)" class="st10 st44">0               50            100 mi</text>
<line class="st41" x1="227" y1="450.2" x2="227" y2="454.3"/>
<line class="st41" x1="266.3" y1="450.2" x2="266.3" y2="453.8"/>
<line class="st41" x1="305.6" y1="449.7" x2="305.6" y2="453.9"/>
<circle cx="134.4" cy="226.2" r="4"/>
<rect x="109.4" y="211.5" class="st4" width="60.1" height="12.6"/>
<text transform="matrix(1 0 0 1 109.4486 217.9362)" class="st42 st10 st43">Guayaquil</text>
<line class="st40" x1="65.9" y1="38.7" x2="76.8" y2="38.7"/>
<line class="st40" x1="65.5" y1="40.3" x2="83.4" y2="40.3"/>
<line class="st41" x1="65.9" y1="35" x2="65.9" y2="39.2"/>
<line class="st41" x1="76.8" y1="35" x2="76.8" y2="39"/>
<rect x="63.9" y="27.7" class="st4" width="27.4" height="8.3"/>
<text transform="matrix(1 0 0 1 63.8727 31.9783)" class="st10 st45">0  50 km</text>
<rect x="63.9" y="45.2" class="st4" width="33.3" height="8.5"/>
<text transform="matrix(1 0 0 1 63.8732 49.5177)" class="st10 st45">0        50 mi</text>
<line class="st41" x1="65.7" y1="39.9" x2="65.7" y2="44.1"/>
<line class="st41" x1="83.3" y1="39.9" x2="83.3" y2="44.1"/>
<rect x="399.3" y="156.1" class="st4" width="273.9" height="188.8"/>
<text transform="matrix(1 0 0 1 399.3326 164.0156)"><tspan x="0" y="0" class="st46 st10 st11">“Ecuador s a country in northwestern South America, </tspan><tspan x="0" y="13.2" class="st46 st10 st11">bordered by Colombia on the north, Peru on the east </tspan><tspan x="0" y="26.4" class="st46 st10 st11">and south, and the Pacific Ocean on the west. Ecuador </tspan><tspan x="0" y="39.6" class="st46 st10 st11">also includes the Galápagos Islands in the Pacific, </tspan><tspan x="0" y="52.8" class="st46 st10 st11">about 1,000 kilometres (620 mi) west of the mainland. </tspan><tspan x="0" y="66" class="st46 st10 st11">The capital city is Quito, which is also the largest city.”</tspan><tspan x="262.9" y="66" class="st46 st47 st11"> </tspan><tspan x="0" y="79.2" class="st46 st47 st11">Source: Wikipedia        </tspan></text>
</svg>
