<?xml version="1.0" encoding="utf-8"?>
<!-- Generator: Adobe Illustrator 23.0.1, SVG Export Plug-In . SVG Version: 6.00 Build 0)  -->
<svg version="1.1" id="Layer_1" xmlns="http://www.w3.org/2000/svg" xmlns:xlink="http://www.w3.org/1999/xlink" x="0px" y="0px"
	 viewBox="0 0 720 515.3" style="enable-background:new 0 0 720 515.3;" xml:space="preserve">
<style type="text/css">
	.st0{fill:none;}
	.st1{fill:#A8A8A8;}
	.st2{fill:#89CCA3;stroke:#0FB753;stroke-width:0.25;stroke-miterlimit:10;}
	.st3{fill:#143C75;}
	.st4{font-family:'Bulo-Black';}
	.st5{font-size:14.5939px;}
	.st6{font-size:36px;}
	.st7{fill:#565556;}
	.st8{font-family:'ArialMT';}
	.st9{font-size:11px;}
	.st10{font-size:15px;}
	.st11{fill:#E5367A;}
	.st12{fill:#606060;}
	.st13{fill:#3D3D3D;}
	.st14{font-family:'Arial-BoldMT';}
	.st15{fill:#FFFFFF;}
	.st16{fill:#8D90C7;stroke:#FFFFFF;stroke-width:0.5;stroke-miterlimit:10;}
	.st17{fill-rule:evenodd;clip-rule:evenodd;fill:#8D90C7;stroke:#FFFFFF;stroke-width:0.5;stroke-miterlimit:10;}
	.st18{fill-rule:evenodd;clip-rule:evenodd;fill:#F8A25E;stroke:#FFFFFF;stroke-width:0.5;}
	
		.st19{fill-rule:evenodd;clip-rule:evenodd;fill:#3A9DB4;stroke:#F7F8F9;stroke-width:0.5;stroke-linecap:round;stroke-linejoin:round;}
	.st20{fill:#3A9DB4;stroke:#F7F8F9;stroke-width:0.5;stroke-linecap:round;stroke-linejoin:round;}
	
		.st21{fill-rule:evenodd;clip-rule:evenodd;fill:#F1E355;stroke:#F7F8F9;stroke-width:0.5;stroke-linecap:round;stroke-linejoin:round;}
	.st22{fill:#F1E355;stroke:#F7F8F9;stroke-width:0.5;stroke-linecap:round;stroke-linejoin:round;}
	
		.st23{fill-rule:evenodd;clip-rule:evenodd;fill:#D96CA9;stroke:#F7F8F9;stroke-width:0.5;stroke-linecap:round;stroke-linejoin:round;}
	.st24{fill:#D96CA9;stroke:#F7F8F9;stroke-width:0.5;stroke-linecap:round;stroke-linejoin:round;}
	.st25{fill:#9ECF85;stroke:#F7F8F9;stroke-width:0.5;stroke-linecap:round;stroke-linejoin:round;}
	
		.st26{fill-rule:evenodd;clip-rule:evenodd;fill:#9ECF85;stroke:#F7F8F9;stroke-width:0.5;stroke-linecap:round;stroke-linejoin:round;}
	.st27{fill:#73AFDF;}
	.st28{fill-rule:evenodd;clip-rule:evenodd;fill:#F49294;stroke:#FFFFFF;stroke-width:0.5;}
	.st29{fill:#F49294;stroke:#FFFFFF;stroke-width:0.5;}
	.st30{fill:#77AE87;stroke:#F7F8F9;stroke-width:0.5;stroke-linecap:round;stroke-linejoin:round;}
	
		.st31{fill-rule:evenodd;clip-rule:evenodd;fill:#77AE87;stroke:#F7F8F9;stroke-width:0.5;stroke-linecap:round;stroke-linejoin:round;}
	.st32{fill-rule:evenodd;clip-rule:evenodd;fill:#D0B0CE;stroke:#FFFFFF;stroke-width:0.5;}
	.st33{fill:#D0B0CE;stroke:#FFFFFF;stroke-width:0.5;}
	.st34{fill:#D0B0CE;}
	.st35{fill:#F37B58;stroke:#F7F8F9;stroke-width:0.5;stroke-linecap:round;stroke-linejoin:round;}
	
		.st36{fill-rule:evenodd;clip-rule:evenodd;fill:#F37B58;stroke:#F7F8F9;stroke-width:0.5;stroke-linecap:round;stroke-linejoin:round;}
	.st37{fill:#F37B58;}
	
		.st38{fill-rule:evenodd;clip-rule:evenodd;fill:#F6B3CD;stroke:#F7F8F9;stroke-width:0.5;stroke-linecap:round;stroke-linejoin:round;}
	.st39{fill:#F6B3CD;stroke:#F7F8F9;stroke-width:0.5;stroke-linecap:round;stroke-linejoin:round;}
</style>
<text transform="matrix(1 0 0 1 399.765 433.6366)" class="st3 st4 st5">Life Expectancy</text>
<text transform="matrix(1 0 0 1 399.765 297.4646)" class="st3 st4 st5">Cost of Living</text>
<text transform="matrix(1 0 0 1 399.765 342.287)" class="st3 st4 st5">Healthcare</text>
<text transform="matrix(1 0 0 1 399.765 388.0098)" class="st3 st4 st5">Crime</text>
<rect x="397.3" y="138.5" class="st0" width="286.7" height="136"/>
<text transform="matrix(1 0 0 1 397.3331 163.893)" class="st3 st4 st6">B</text>
<text transform="matrix(1 0 0 1 418.3331 163.893)" class="st7 st8 st9">elize ipsum dolor sit amet, consectetuer adipiscing elit, </text>
<text transform="matrix(1 0 0 1 397.3331 177.093)" class="st7 st8 st9">sed diam nonummy nibh euismod tincidunt ut laoreet </text>
<text transform="matrix(1 0 0 1 397.3331 190.293)" class="st7 st8 st9">dolore magna aliquam erat volutpat. Ut wisi enim ad minim </text>
<text transform="matrix(1 0 0 1 397.3331 203.4927)" class="st7 st8 st9">veniam, quis nostrud exerci tation ullamcorper suscipit </text>
<text transform="matrix(1 0 0 1 397.3331 216.6928)" class="st7 st8 st9">lobortis nisl ut aliquip ex ea commodo consequat. Duis </text>
<text transform="matrix(1 0 0 1 397.3331 229.8927)" class="st7 st8 st9">autem vel eum iriure dolor in hendrerit in vulputate velit </text>
<text transform="matrix(1 0 0 1 397.3331 243.0928)" class="st7 st8 st9">esse molestie uis autem vel eum iriure dolor in hendrerit in </text>
<text transform="matrix(1 0 0 1 397.3331 256.2928)" class="st7 st8 st9">vulputate velit esse molestie</text>
<text transform="matrix(1 0 0 1 399.3328 21.3339)" class="st3 st4 st10">Capital:</text>
<text transform="matrix(1 0 0 1 448.3328 21.3339)" class="st11 st4 st10"> </text>
<text transform="matrix(1 0 0 1 451.2328 21.3339)" class="st12 st8 st9">Belmopan</text>
<text transform="matrix(1 0 0 1 399.3328 39.3339)" class="st3 st4 st10">Population:</text>
<text transform="matrix(1 0 0 1 473.8328 39.3339)" class="st11 st8 st9"> </text>
<text transform="matrix(1 0 0 1 476.9327 39.3339)" class="st12 st8 st9">385,854</text>
<text transform="matrix(1 0 0 1 399.3328 57.3338)" class="st3 st4 st10">Language:</text>
<text transform="matrix(1 0 0 1 465.1328 57.3338)" class="st13 st8 st9"> </text>
<text transform="matrix(1 0 0 1 468.1328 57.3338)" class="st12 st8 st9">English 62.9% (official), Spanish 56.6%, </text>
<text transform="matrix(1 0 0 1 399.3328 70.5337)" class="st12 st8 st9">Creole 44.6% </text>
<text transform="matrix(1 0 0 1 399.3328 88.5338)" class="st3 st4 st10">Climate:</text>
<text transform="matrix(1 0 0 1 452.7328 88.5338)" class="st11 st14 st9"> </text>
<text transform="matrix(1 0 0 1 455.8328 88.5338)" class="st12 st8 st9">tropical; very hot and humid; rainy</text>
<text transform="matrix(1 0 0 1 399.3328 101.7338)" class="st12 st8 st9">season (May to November); dry season </text>
<text transform="matrix(1 0 0 1 399.3328 114.9338)" class="st12 st8 st9">(February to May)</text>
<path class="st1" d="M635,309.7H399.3c-1.1,0-2-0.9-2-2l0,0c0-1.1,0.9-2,2-2H635c1.1,0,2,0.9,2,2l0,0
	C636.9,308.8,636,309.7,635,309.7z"/>
<path class="st2" d="M470.6,312.5h-69.3c-2.2,0-3.9-1.8-3.9-3.9v-1.8c0-2.2,1.8-3.9,3.9-3.9h69.3c2.2,0,3.9,1.8,3.9,3.9v1.8
	C474.5,310.7,472.7,312.5,470.6,312.5z"/>
<path class="st1" d="M635,354.9H399.3c-1.1,0-2-0.9-2-2l0,0c0-1.1,0.9-2,2-2H635c1.1,0,2,0.9,2,2l0,0C636.9,354,636,354.9,635,354.9
	z"/>
<path class="st2" d="M513.2,358H401.3c-2.2,0-3.9-1.8-3.9-3.9V352c0-2.2,1.8-3.9,3.9-3.9h111.9c2.2,0,3.9,1.8,3.9,3.9v2.1
	C517.1,356.2,515.4,358,513.2,358z"/>
<path class="st1" d="M635,400.2H399.3c-1.1,0-2-0.9-2-2l0,0c0-1.1,0.9-2,2-2H635c1.1,0,2,0.9,2,2l0,0
	C636.9,399.3,636,400.2,635,400.2z"/>
<path class="st2" d="M541.4,403.1H401.3c-2.2,0-3.9-1.8-3.9-3.9v-1.8c0-2.2,1.8-3.9,3.9-3.9h140.1c2.2,0,3.9,1.8,3.9,3.9v1.8
	C545.3,401.3,543.6,403.1,541.4,403.1z"/>
<path class="st1" d="M635,446.1H399.3c-1.1,0-2-0.9-2-2l0,0c0-1.1,0.9-2,2-2H635c1.1,0,2,0.9,2,2l0,0
	C636.9,445.2,636,446.1,635,446.1z"/>
<path class="st2" d="M596.5,449.1H401.3c-2.2,0-3.9-1.8-3.9-3.9v-1.8c0-2.2,1.8-3.9,3.9-3.9h195.2c2.2,0,3.9,1.8,3.9,3.9v1.8
	C600.4,447.4,598.6,449.1,596.5,449.1z"/>
<polygon class="st3" points="653.4,296.7 653.4,303.2 644.2,308 653.4,312.2 653.4,318.6 675.3,318.6 675.3,296.7 "/>
<polygon class="st3" points="653.4,341.9 653.4,348.4 644.2,353.2 653.4,357.3 653.4,363.8 675.3,363.8 675.3,341.9 "/>
<polygon class="st3" points="653.4,387.3 653.4,393.7 644.2,398.5 653.4,402.7 653.4,409.2 675.3,409.2 675.3,387.3 "/>
<polygon class="st3" points="653.4,433.2 653.4,439.7 644.2,444.4 653.4,448.6 653.4,455.1 675.3,455.1 675.3,433.2 "/>
<text transform="matrix(1 0 0 1 657.7627 311.5071)" class="st15 st14 st9">30</text>
<text transform="matrix(1 0 0 1 658.7631 356.9701)" class="st15 st14 st9">45</text>
<text transform="matrix(1 0 0 1 657.7626 402.0516)" class="st15 st14 st9">56</text>
<text transform="matrix(1 0 0 1 657.7629 448.093)" class="st15 st14 st9">83</text>
<g id="Portugal">
	<polygon id="Viseu" class="st32" points="349.8,106.8 350.7,106.7 349.8,109.7 349.5,111 349.4,111.9 349.5,113.1 349.1,113.4 
		348.3,113.4 348.2,113.6 348.2,113.8 348.4,114.3 348.7,114.6 349,114.8 349.3,114.9 349.5,115.2 349.6,115.6 349.6,116.1 
		349.3,116.8 348.2,117.9 346.9,117.5 346.4,117.8 346.6,118.7 346.7,119 346.8,119.4 346.8,119.9 346,121.7 345.7,122.2 
		345.1,122.2 344.9,121.9 344.7,121.7 343.5,120.5 343,120.1 342.6,119.9 341.8,119.9 341.4,120.1 341.1,120.3 341,120.5 
		340.6,121.8 340.2,122.5 339.8,123 339.7,123.3 339.7,123.7 340,124 340.9,124.7 341.1,125 341.2,125.3 341.2,125.6 341.1,125.9 
		340.7,126.4 341.1,127.1 341.8,127.6 342.4,128.4 342.2,129.5 341.8,130.1 341,132.6 341.1,133.5 338.8,133.9 337.3,134.4 
		336.3,135.3 335.2,135.6 334.3,136.3 334,136.4 332.9,136.5 332.6,136.9 331.9,137.1 331.5,137.3 331.1,137.8 329.9,138.7 
		329.1,140 328.5,140.3 327,141.4 325.1,142.2 322.5,144.1 320.5,143.8 319,144.1 318.9,144.2 318.8,144.4 318.8,144.6 318.7,144.8 
		318.6,144.9 318.4,144.9 318.1,144.7 317.6,144.4 317,143.9 316.2,143.3 315.2,143 314.8,142.8 314.4,142.6 314.3,141.2 
		315.3,139.7 315.4,139.3 315.4,138.7 315.1,138.1 315,137.8 315.1,137.5 315.9,136.9 317.8,136.1 317.4,135.4 317.1,135.2 
		316.9,134.9 316.7,134.6 316.5,133.8 316.1,132.8 316.1,132.5 316.3,132.2 316.5,131.9 317.9,131.4 317.4,130.9 316.7,130.7 
		316.6,130.5 316.3,129.9 316.3,128.7 316.2,128.3 316,128 315.5,127.4 315.3,127.1 315.3,126.9 315.3,126.6 315.3,126.5 
		315.6,125.9 316.4,125.2 317.2,124.3 317.9,122.8 318.2,122.3 318.3,122 317.9,120.6 319,120.5 319.2,120.6 319.6,120.7 
		320.1,120.6 320.7,120.3 321.1,120.3 321.4,120.4 321.6,120.6 321.9,120.7 322.2,120.8 322.5,120.7 322.7,120.4 322.7,119.8 
		322.4,119 322.3,117.8 322.1,117.2 322.1,116.9 322.2,116.4 322.3,115.9 323.4,114.3 323.5,114.1 323.5,114 323.5,113.9 
		323.5,113.7 323.4,113.5 323.1,113.5 322.7,113.9 322.6,114 322.5,114.2 322.2,114.7 321.8,114.8 321.4,114.8 318.8,113.6 
		318.8,112.6 318.8,112.3 318.7,111.8 318.6,111.5 316.5,110.2 318.8,109.3 320,109 323.4,109.2 324.4,109.1 328.6,107.7 
		330.1,106.7 331.9,105.5 332.6,105.5 333.1,105.7 333.9,106.5 334.3,106.8 334.9,107 335.6,107 336.2,106.9 336.8,106.7 337.8,106 
		338.3,105.7 338.9,105.7 339,105.7 340.4,105.8 342.1,105.6 346.1,104.1 346.6,104.1 347.2,104.5 348.2,106 348.6,106.4 	"/>
	<polygon id="Viana_do_Castelo_x0A__x0A_" class="st32" points="319.9,65 320.4,64.9 321.1,64.6 321.8,64.5 322.4,64.8 323,65.3 
		323.2,66 323.2,66.8 322.8,67.4 322.2,67.8 321.2,68.5 320.2,69.5 318.9,71.5 318.6,72.3 318.5,73.2 318.9,74 320.1,74.5 
		320.4,74.9 320.5,75.5 320.3,76.6 320.3,76.6 320.2,76.6 319.8,76.6 316.5,78.4 315.6,78.7 312.6,78.9 312.1,79 311.6,79.2 
		311.4,79.4 310.7,79.9 310.2,80.1 309.9,80.1 309.6,80 309.3,80.1 309.1,80.2 308.9,80.5 308.8,80.9 308.7,81.2 308.6,81.9 
		308.6,82.3 308.5,82.6 308.1,82.9 308,83.2 307.9,83.5 308.1,84 307.5,85.1 307.2,85.1 306.9,85 306.5,84.8 305.8,84.6 304.8,84.3 
		304.5,84.1 304.4,84.2 304.2,84.4 304,84.6 303.7,84.7 301.9,84.8 299.4,85.7 299,85.7 298.4,85.6 298.2,85.6 298.2,85 297.9,84.2 
		297.8,83.1 298,82.6 298.7,82.3 300.9,81.9 301.5,81.7 302,81.2 302.5,80.8 298.7,81.9 297.9,82 297.4,82 296.8,81.6 296.1,80.1 
		296.1,78.8 296.4,76.7 296.2,75.4 296.3,74.9 296.6,74.4 299,72.4 300.2,71 300.6,69.3 301,69 301.8,68.6 302.6,68.4 303.4,67.9 
		303.6,67.4 304,66.4 304.3,66 304.9,65.5 305.5,65.4 306.7,65.4 307.4,65.1 308.6,64.3 309.2,64 314.5,63.2 315.1,62.8 316,62 
		316.3,61.8 316.6,61.8 317.2,61.7 317.8,61.5 318.8,60.7 319.2,61.2 319.5,61.9 319.4,63.9 319.5,64.7 	"/>
	<polygon id="Vila_Real" class="st32" points="331.2,74.5 331.4,74.2 331.5,73.9 331.7,73.7 332.1,73.5 333,73.6 335.1,73.1 
		336.1,72.6 336.7,72.7 337.6,73.4 338.2,73.7 340.1,73.8 339.5,75.2 339.6,75.7 340.1,76 340.7,76 341.5,75.9 342.2,75.7 
		342.7,75.3 342.9,75 342.9,74.7 343,74.4 343.2,74.2 343.5,74.2 344,74.5 344.4,74.6 344.8,74.7 345.3,75.3 345.6,76.2 345.8,76.9 
		346.2,76.5 347.1,75.5 347.5,75.2 348,75.1 349.3,75.2 349.9,75.1 352.4,74.2 353.5,73.5 353.8,73 353.9,73.3 354.1,74.2 354,74.7 
		353.9,75.6 354,76.4 354.1,76.9 354.4,77.7 355,78.6 355.1,79 355.1,79.6 355,79.9 354.8,80.1 354.6,80.2 354.3,80.5 353.5,82.4 
		352.3,86.2 352.2,87.4 352.2,88 352.4,88.4 352.5,88.7 352.7,89 352.8,89.3 352.9,89.6 352.8,89.9 352.5,90 352.2,90.1 351.9,90.1 
		351.6,90.2 351.2,90.6 350.8,91.4 350.6,92.2 350.3,92.5 350,92.7 349.7,92.8 348.5,93.7 348.5,96 348.7,96.9 349,97.5 349.3,97.9 
		350.1,98.4 348.9,98.8 348.3,99.4 348.2,99.9 348.3,100.2 348.2,100.4 347.9,100.8 347.6,101.2 347.4,101.8 347.4,102.2 
		347.4,102.5 347.5,102.7 347.4,102.8 346.9,102.9 346.5,103 346.4,103.3 346.3,103.5 346.1,104.1 342.1,105.6 340.4,105.8 
		339,105.7 338.9,105.7 338.3,105.7 337.8,106 336.8,106.7 336.2,106.9 335.6,107 334.9,107 334.3,106.8 333.9,106.5 333.1,105.7 
		332.6,105.5 331.9,105.5 330.1,106.7 330.3,105.6 330.3,104.5 330.8,102.7 330.7,102.6 330.2,102.3 329.7,101.2 329.5,100.5 
		329.7,99.9 328.7,99.2 328.2,98.9 328,98.6 327.9,98.2 327.9,97.7 327.4,97 327.7,96.2 327.7,96 327.6,95.6 327.7,95.5 327.8,95.4 
		327.9,95.3 328,95 328.5,94.1 328.6,93.8 328.7,93.6 328.5,93.2 328.8,92.2 329.2,91.7 329.3,91.6 329.5,91.6 329.8,91.6 
		330.1,91.3 330.3,90.7 330.4,90.6 331.1,90.3 331.5,89.8 332.9,87.8 333,87.2 332.4,86.2 332.2,86 331.8,85.8 331.1,86.6 
		330.1,86.9 329.7,86.9 328.3,86.6 328,86.5 327.7,86.3 327.3,86.2 326.6,85.9 326.7,83.8 326.8,83.4 326.9,82.8 326.8,82.5 
		326.7,82.4 325.8,81.8 325.5,81.7 325.3,81.7 324.7,82 324.4,82 324.1,82 323.8,82 323.6,82 323.4,82.1 322.9,82.2 322.4,82.1 
		323.2,81.2 323.4,80.9 323.6,80.5 323.9,79.5 324.2,79 324.5,77.6 324.6,77.3 324.8,77 324.9,76.8 324.9,76.5 324.8,76.4 
		324.8,76.4 326,75.2 326.3,74.7 326.7,74.2 327.2,74 327.8,74.1 328.4,74.1 328.8,73.5 328.9,72.7 329.1,72.2 329.8,71.9 
		329.9,73.1 330.1,74.5 	"/>
	<path id="Setúbal" class="st33" d="M322,237.3l-0.3-1.1l-0.8-1.8l-1.3-1l-0.6-0.2l-0.3,0l-0.3-0.1L318,233l-0.7-0.4l-0.5-0.4
		l-0.7-0.3l-0.2-0.1v-0.3l0.6-1l0.1-0.8l-0.2-0.3l-0.3-0.2l-0.5-0.2l-0.2-0.2l0-0.2l0.1-0.1l0-0.3l-0.5-1.2l0-0.3l0-0.1l0-0.1l0,0
		l-0.2-0.2l-0.5-0.5l-0.7-0.8l-0.3-0.1l-0.6,0.2l-0.8,0.5l-0.5,0.2l-1,0l-0.4-0.2l-0.3-0.2l-0.2-0.2l-0.1-0.2l-0.2-0.2l-0.3,0
		l-0.1,0.2l0.1,0.2l0.1,0.3l0,0.2l-0.2,0.1l-0.8-0.3l-1-0.1l-1.3-0.8l-1-0.1l-0.2-1.1l-0.1-0.3l-0.2-0.3l0-0.4l0-0.3l1.2-1.6l2.9-2
		l0.5-0.7l0.3-0.4l0.1-0.5l0-0.3l0.4-0.7l-0.1-0.5l-0.2-0.1l-1.4-0.3l-0.9-0.1l-0.3,0l-0.4-0.1l-0.4-0.5l-0.1-0.4l0-0.4l0.1-0.3
		l0-0.3l0.1-0.3l0-0.2l-0.2-0.1l-0.6,0.3l-0.7,0.4l-1-0.4l-0.4-0.3l-0.2-0.2l-0.3-0.1l-0.2,0.1l-1,2l-0.4,1.2l-0.1,0.4l-0.5,0.7
		l-0.6,0.2l-0.2,0l-1-0.4l-0.3-0.4l-0.3-0.1l-0.4-0.1l-0.6,0.2l-0.4,0.2l-0.7,0.3l-0.4,0l-0.3-0.1l-0.3-0.3l-0.2-0.7l0-0.6l-0.3,0
		l-0.4,0.1l-0.2,0.1l-0.2,0.2l-0.1,0.1l-1.2,1.1l-1,0.8l-0.6,0.6l-0.5,0.6v0.3l-0.5,0.1l-1.1,0.3l-0.5,0.3l0.2,0.9h-0.2l-0.4-0.5
		l-0.7-0.4l-1.5,0.1l-1.6,0.2l-0.6,0.3l0.5,1.3l1,1.7l0.8,2l0,2.1l-0.2,1.4l-1,1l-0.3,0.4l-0.1,0.1l-0.1,0.3l0,0.3l0.1,0.2l0.2,0
		l0.9,0.3l0.6-0.1l0.6-0.4l0.7-0.3l3.4-0.4l2-0.8l-0.3-0.2l1.5-1.8l1.7-0.3l1.3,0.5l1.2,0.7l0.7,0.2l0.8,0.1l0.3-0.3l0-0.7l-0.4-0.6
		l-0.8-0.1v-0.3l0.7-0.2l0.7-1.4l0.5,0.1l-0.2,0.5l0.1,0.6l0.3,0.5l0.5,0.2v0.3l-0.3,0.2l-0.2,0.4l-0.1,0.6l0.1,0.6l0.2,0.6l0.3,0.4
		l2.5,1.2l0.9,0.2l1,0.1l-1.7,0.6l-3.5-0.9l-1.4,0.1l-0.1-0.6l-0.7-0.4l-1.6-0.5l-1.3-1.1l-0.8-0.3l-0.5,0.5l1,0.4l1.3,1l1.1,1.3
		l0.9,0.9l0.9,1.7l0.3,2.4l0.3,2.8l0.1,2.4l-0.8,2.4l-0.6,3.1l-1.8,3.9l-0.3,0.3l-0.3,0.1l-0.2,0.2l-0.2,0.4l1.4,0.9l1.1,0.2
		l0.5,1.1l0.2,1l0.1,1.5l-0.1,0.8l0.3,0.3l0.2,0.3l0.2,0.1l0.3,0l0.2-0.2l0.3-0.1l0.2-0.1l0.6,0.2l0.2,0.3l0.1,0.2l0.9,1.1l0.3,0.6
		l0.2,0.2l0.2,0l0.1-0.2l0.1-0.2l0.2-0.1l0.3,0.1l0.3,0.2l0.3,0.2l0.6,0.3l0.4,0l0.6-0.2l0.2-0.3l0.1-0.3l0-0.3l0.3-1l0.2-0.3
		l0.6-0.6l0.1-0.3l0.1-0.3l0.3-0.3l0.6-0.3l3.1-0.6l1.5,0.3l0.9,0l0.1,0l1,0.6l0.5-1.2l0.1-0.3l0.4-1.2l0.2-1.9l0-1.3l-0.3-0.9
		l-0.2-0.4l-0.5-0.4l-0.4,0l-0.4-0.1l-0.4-0.2l-0.5-0.6l-0.7-0.5l-0.2-0.4l-0.1-0.2l0-0.2l0.1-0.3l0.1-0.3l0.1-0.3l0.1-0.3l0.2-0.4
		l0.2,0l0.2,0.1l0.2,0.1l0.2,0l0.1-0.2l0.1-0.1l0.2-0.4l0-0.2l0-0.2l0-0.2l0.1-0.2l0.2-0.1l0.2-0.2l0.2-0.1l0.3,0.1l0.3,0.2l0.3,0.1
		l0.2-0.1l0.2-0.8l0-0.4l0.1-0.3l0.3-0.2l1.2,0.1l0.2-0.3l0.1-0.5l0.3-0.1l1.2-0.3l0.6-0.3l1.2-0.3l0.2-0.5l0-0.3L322,237.3z
		 M297.5,226.9l-0.2,0l0,0.2l0,0.1l0.3,0.3l0.2-0.4L297.5,226.9z"/>
	<polygon id="Santarém" class="st32" points="311.2,171 311.9,170.8 313.3,170.3 313.7,170.2 314.5,169.8 315.2,169.9 315.3,169.8 
		315.2,168.9 315.1,168.6 315.2,168.4 315.4,168.5 316.9,168.7 317.1,169.3 317.4,169.6 317.9,169.7 318.3,169.9 318.5,170.1 
		318.6,170.4 318.7,170.6 318.7,170.8 318.6,171 318.7,171.9 318.5,172.3 318.5,173.1 318.6,174.7 318.9,175.3 320.8,176.1 
		321.7,176.7 322.4,176.7 323.7,176.6 324.4,176.3 324.4,176.1 324.3,175.8 324.1,175.1 324.1,174.6 324.2,174 324.5,173.6 
		324.9,171.3 325.1,170.9 325.8,170.8 326.9,171.2 327.7,171.2 327.9,171.4 328,171.7 328.1,172 328.1,172.4 328.2,172.7 
		328.2,173.4 328.2,174.1 328.2,174.4 328.5,174.6 328.8,174.7 329.3,174.7 330,175 330.5,175.4 331.1,175.8 331.8,176.6 
		332.6,177.8 332.7,178.1 332.9,178.9 333.3,179.3 332.5,179.8 332.3,179.9 331.6,180.7 331.5,180.9 331.3,181 331.2,180.9 
		330.8,180.4 329.4,179.7 328.7,179.5 328.3,179.7 327.6,180.2 326.9,181.3 326.2,183.3 327.5,184.7 328.1,185.1 328.2,185.4 
		328.3,185.7 327.6,186.8 325.9,187.9 325.7,188.1 325.6,188.7 325.4,189.1 324.9,189.8 324.1,190.8 324,191.1 323.8,191.2 
		323.6,191.5 323.1,191.6 322.4,191.5 322.1,191.6 321.6,192 321.2,192.9 320.4,193.6 318.4,195.5 316.5,196.9 316,197.4 315,199 
		315,199.7 315.8,200.1 316.2,200.3 316.5,200.6 316.6,201.1 316.7,201.4 316.9,201.8 317.3,202.1 317.5,202.6 317.7,202.9 
		317.7,203.2 318.2,203.6 319.7,204.1 319.4,204.7 319.2,204.9 318.7,204.9 318.6,204.9 318.4,205.2 318.3,205.6 318.3,206.3 
		318.2,206.8 318.1,207.2 317.9,207.5 317.6,207.7 317.5,208 317.6,208.3 317.9,208.6 318.1,208.7 319.9,209.6 320.3,209.6 
		320.5,209.8 320.7,210.1 320.5,210.9 320.5,211.2 320.7,211.6 321.2,212.2 321.5,212.2 321.8,212.4 322,212.6 322.1,213 
		321.9,213.6 321.3,214.2 320.7,213.9 320.6,213.6 320.4,213.1 320.2,213 320,213 319.8,213 319.7,212.8 319.7,212.6 319.5,212.3 
		319.3,212.1 319,211.9 317.9,211.7 317.6,211.5 316.7,210.5 316.4,210.3 316.2,210.3 316,210.5 316,210.7 315.8,210.8 315.6,210.8 
		315.2,210.8 314.8,211 314.4,210.9 313.8,210.7 313.6,210.7 313.5,210.9 313.4,211.2 313.3,211.4 313.1,211.6 312.9,211.7 
		312.7,211.8 312.3,211.7 311.9,211.8 311.2,212.5 310.8,212.8 309.3,213.1 307.6,214.5 306.7,214.4 306.4,214.4 306,214.3 
		305.6,213.8 305.6,213.4 305.6,213 305.7,212.7 305.7,212.3 305.7,212 305.7,211.8 305.5,211.7 304.9,212 304.3,212.4 303.3,212 
		302.9,211.8 302.7,211.6 302.5,211.4 302.2,211.5 301.2,213.5 300.8,214.7 300.7,215.1 300.2,215.8 299.6,216 299.4,216 
		298.4,215.6 298.1,215.2 297.8,215 297.4,215 296.9,215.1 296.5,215.3 295.8,215.6 295.4,215.7 295.1,215.6 294.8,215.3 
		294.6,214.6 294.6,214 294.4,213 294.2,212.7 294.1,212.5 293.5,211.8 293.5,211.2 294,210.7 294.3,210.3 294.8,209.4 296,206.1 
		296.3,205.4 296.7,204.9 296.8,204.5 297.5,203.5 297.1,203.2 297,202.8 298.3,202.4 299,201.6 299.2,201.4 299.3,201.3 299.2,201 
		299.2,201 299.8,200.5 300.1,199.8 299.2,200.5 299.2,200.5 298.9,199.9 298.8,199.7 298.6,199.5 298.4,199.3 297.7,199 
		297.5,198.9 296.4,197.9 296.3,197.7 296,197.1 295.8,196.9 295.5,196.8 295.3,196.5 295.3,196.3 295.9,195.9 296.3,195.8 
		297.3,195.8 297.8,195.7 298.3,195.2 296.6,193.5 296.3,192.9 294.9,193.3 292.5,192.6 292.6,191.9 292.2,190.9 292.1,189.4 
		291.9,188.6 292,188.1 292.8,186.8 293.5,186.6 293.8,186.4 294.1,186 295.2,183.7 295.6,183.2 296.6,182.8 298.9,182.6 
		300.6,182.8 301.1,182.4 301.1,182.1 301.2,181.9 301.2,181.9 301.1,181.8 300.9,181.3 300.9,180.9 300.9,180.6 301,180.4 
		301.3,180.4 301.6,180.5 301.9,180.5 302.2,180.5 303.1,179.3 303.3,179 302.9,177.8 302.8,176.9 302.5,175.5 303.3,174.9 
		303.6,174.7 303.9,174.5 304.1,174.3 304.3,173.9 304.1,173.1 303.9,172.8 303.6,172.6 303.3,172.3 303.2,172 303.2,171.4 
		303.2,170.6 303.2,170.3 303.3,169.9 303.5,169.6 305.1,168.9 305.7,169.1 306.2,169 306.8,168.7 308.5,167.4 308.9,167.3 
		309.3,167.3 309.7,166.9 310.3,166.7 310.7,168.6 310.8,169.1 311.1,170.2 311.1,170.5 311.2,170.8 	"/>
	<polygon id="Porto" class="st32" points="305.7,98 305.8,98 306.1,97.9 308.1,97.9 308.3,97.8 308.6,97.7 308.9,97.5 309.1,97.3 
		309.8,96.9 310.4,96.7 310.8,96.7 311.1,96.9 311.3,97.1 312.2,97.2 313.2,96.9 314.6,96.7 314.9,96.8 315.4,97.2 315.6,97.2 
		316.4,96.8 316.7,96.8 317.7,96.3 318.4,95.8 318.9,95 320.7,95.6 321.4,96.3 321.5,96.6 321.4,97 322.7,98 323.8,98.4 324.1,98.3 
		324.9,98.8 325.3,99.1 325.6,99.1 325.9,99 326.2,98.7 326.3,98.6 326.5,98.4 326.7,98.2 326.9,98.1 327.1,97.9 327.2,97.7 
		327.2,97.5 327.4,97 327.9,97.7 327.9,98.2 328,98.6 328.2,98.9 328.7,99.2 329.7,99.9 329.5,100.5 329.7,101.2 330.2,102.3 
		330.7,102.6 330.8,102.7 330.3,104.5 330.3,105.6 330.1,106.7 328.6,107.7 324.4,109.1 323.4,109.2 320,109 318.8,109.3 
		316.5,110.2 316.4,110.7 316.2,110.8 314.6,112 313.9,111.7 313,112.2 312.9,112.4 313,112.7 313.1,113 313.2,113.3 313.1,113.5 
		312.8,113.5 312.2,113 311.9,112.5 311.8,112.2 311,111.5 310.4,112.1 310.3,112.4 310.1,113 309.8,113.2 309.4,113.2 308.9,113 
		308.7,112.7 308.4,112.5 307.9,112.5 307.4,112.9 306.3,113.3 305.7,112.9 304.2,113.1 303.9,113.2 303.9,113.2 303.9,112.6 
		303.5,109.5 303.5,107.9 304.1,107.3 304.1,107 302.8,106.7 302.2,105.4 301.7,103.8 301.1,102.6 301.2,101.9 301.2,101.4 
		301,100.9 300.8,100.4 300.8,98.9 300.7,98.5 300.4,98.4 300.3,97.9 300.1,97.4 299.6,96.6 299.5,95.9 299.5,95.4 299.4,94 
		299.8,92.5 300.6,92.5 301.4,93 302.3,93.5 303.1,93.5 303.5,93.6 303.8,93.9 304,94.1 304.6,94.7 305.1,95 305.5,95.1 305.8,95.4 
		305.9,95.7 305.8,96 305.6,96.1 305.3,96.2 305,96.5 305.1,96.9 305.2,97.5 305.4,97.8 	"/>
	<polygon id="Portalegre" class="st32" points="341.9,173.9 342.1,174.6 343.2,177.7 343.9,178.2 344.9,179.6 345.5,180.2 
		346.6,180.8 346.9,181.2 347.3,182.2 347.8,182.6 348.5,182.9 350,183.3 350.2,183.8 350.2,184.7 350,185.8 349.8,186.4 349.6,187 
		349.6,188 349.8,189 350,189.5 350.7,190 352.4,192.1 351.9,192.9 351.9,193.9 352.1,194.8 352.6,195.5 353.5,195.9 354.4,196.2 
		355.3,196.6 355.7,197.4 355.6,197.9 355.2,198.8 355.3,199.1 355.6,199.5 356.1,199.7 356.7,199.8 357.1,199.7 357.9,199.2 
		358.8,199.1 359.7,199.3 360.5,199.9 361.1,200.4 361.5,201.2 361.8,202.1 361.5,202.8 361.9,203.1 362,203.6 361.8,204 
		361.4,204.4 360.3,206.7 359.5,207.8 358.8,208.4 359.3,209.3 359.1,210 359.1,210.6 358.8,210.8 358.4,211.1 358,211.6 
		357.4,211.8 355.8,212.2 355.5,212.5 355.3,212.9 354.8,213.4 354.3,213.9 353.8,214.1 353.3,214.5 353.2,214.5 353,214.2 
		353,213.8 353.1,213.6 353.6,212.8 353.7,212.5 353.6,211.9 353.5,211.6 353.1,211.3 352.7,211.1 352.1,211.2 351,211.5 
		350.3,212.1 349.6,212.9 349.1,213 348.9,213 348.3,213 347.8,212.7 347.5,212.4 347,211.5 346.8,211.2 347,210.5 346.5,209.8 
		346.4,209.2 346.1,208.3 345.4,207.6 345.3,207.2 345.3,206.9 345.2,206.1 345,205.7 344.4,205.2 343,204.6 342.9,204.2 
		342.8,204.2 342.7,204.2 342.5,204.2 342.1,204.5 342.3,204.8 342.5,205.1 342.5,205.4 342.3,205.7 342,205.9 341.5,206.1 
		340.8,206.3 340.3,206.4 339.7,206.9 339.5,207.2 339.3,207.5 339.2,207.7 339,207.8 338.7,207.8 338,207.5 337.6,207.4 
		337.3,207.5 337,207.6 336.7,207.6 336.2,207.2 335.9,207.2 335.3,207.9 335,208.2 333.9,208.7 333.1,208.6 332.8,208.7 
		332.5,208.7 332.1,208.6 331.1,207.9 329.6,205.8 329.2,205.5 328.4,205.6 327.9,206 327.7,206.3 327.4,206.5 327.1,206.6 
		326.8,206.7 326,206.6 325.9,206.5 325.9,206 325.9,205.3 325.8,205 325,204.1 325,204.1 324.8,204 324.5,203.9 324,204 
		323.6,204.1 323.5,204.2 323.5,204.2 323.5,204.3 323.4,204.5 323.4,204.8 323.3,205.1 323.1,205.2 322.9,204.9 322.7,204.3 
		322.9,203.7 323,203.4 323,203.2 322.4,203 321.5,203 321.2,203.1 321,203.3 320.4,203.5 319.7,204.1 318.2,203.6 317.7,203.2 
		317.7,202.9 317.5,202.6 317.3,202.1 316.9,201.8 316.7,201.4 316.6,201.1 316.5,200.6 316.2,200.3 315.8,200.1 315,199.7 315,199 
		316,197.4 316.5,196.9 318.4,195.5 320.4,193.6 321.2,192.9 321.6,192 322.1,191.6 322.4,191.5 323.1,191.6 323.6,191.5 
		323.8,191.2 324,191.1 324.1,190.8 324.9,189.8 325.4,189.1 325.6,188.7 325.7,188.1 325.9,187.9 327.6,186.8 328.3,185.7 
		328.2,185.4 328.1,185.1 327.5,184.7 326.2,183.3 326.9,181.3 327.6,180.2 328.3,179.7 328.7,179.5 329.4,179.7 330.8,180.4 
		331.2,180.9 331.3,181 331.5,180.9 331.6,180.7 332.3,179.9 332.5,179.8 333.3,179.3 333.8,178.8 334.3,178.1 334.8,177.5 
		335.5,177.2 335.7,176.9 336,176.2 336.5,175.5 337,175 337.8,175.1 338.4,175.4 339,175.5 339.8,174.9 340.2,174.4 340.8,174 
		341.5,173.8 341.8,173.9 	"/>
	<path id="Lisbon" class="st33" d="M291.5,208l-0.2-0.3l-0.3,0.7l0,0.7l0.2-0.2L291.5,208z M290.6,210L290.6,210l-0.3,0.3l-0.4,0.4
		l-0.3,0.6l-0.3,0.8l0.2,0.1l0.6-0.7l0.5-0.7l0.2-0.7l0-0.3L290.6,210z M288.9,211.1l1.1-1.2l1.9-3.8l1.7-2.4l0.7-1.3l0.5-0.4l3-0.3
		l1.5-1.1l-0.3-0.6l-0.1-0.2l-0.1-0.2l-0.2-0.2l-0.7-0.3l-0.2-0.2l-1-0.9l-0.2-0.3l-0.3-0.6l-0.2-0.2l-0.3-0.1l-0.2-0.2l0-0.3
		l0.5-0.4l0.4-0.1l1,0l0.5-0.1l0.5-0.4l-1.7-1.7l-0.3-0.7l-1.4,0.4l-2.4-0.7l0.1-0.7l-0.4-1.1l-1-0.2l-0.7-0.3l-0.5-0.1l-0.4,0
		l-0.2,0.1l-0.3,0.2l-0.7,0.9l-0.8,1.4l-0.7,0.8l-0.7,0.6l-0.6-0.5l-0.8-2.7l-0.3-0.5l-0.3-0.4l-0.2-0.1l-0.2,0l-0.5-0.1l-0.3,0.2
		l-1.5,0.9h-1.3l-0.3,0l0.2,1.1l-0.2,1.4l-0.1,1.7l-0.7,1.6l-0.4,1.2l-1.3,2.5l-0.1,1.2l-0.3,1l0.4,1.7l0.1,2.7l-1.1,3.6l-0.8,0.9
		l-0.4,0.5l-0.2,0.4v1l0.4,1.9l-0.2,0.8l0,0.9l0.7,0.2l1.5-0.2l0.8,0.1l1.5,0.6l1.3,0.8l0.6-0.8l0.6-0.5l2.2,0.2l2-0.3l1.8-0.6
		l0.5-1l-0.1-1.1l-0.1-1.5l-0.1-0.8l0.2-0.7L288.9,211.1z M299.2,201L299.2,201L299.2,201l-1.2,1l-0.7,0.3l-1.5,0.1l-0.7,0.2
		l-1.2,0.9l-0.9,1.4l-1.5,3.1l0.3,1l0.2,1.1l0.4,0.7l0.8-0.1l-0.2,0.7l0.2,0.9l0.4,0.9l0.3,0.6v0.3l0.4-0.1l0.3,0l-0.3-1l-0.1-0.3
		l-0.1-0.2l-0.6-0.8l0-0.5l0.5-0.5l0.2-0.4l0.5-1l1.2-3.2l0.4-0.8l0.3-0.4l0.2-0.5l0.7-1l-0.4-0.3l-0.1-0.4l1.3-0.4l0.7-0.8l0.2-0.1
		l0.1-0.2L299.2,201z M291.6,209.4l-0.3,0.2l-0.2,0.6l0.3,0.3l0.5-0.2l0.1-0.4l-0.2-0.4L291.6,209.4z"/>
	<path id="Leiria" class="st33" d="M274.3,185.8l0.4-0.4l-0.2-0.1L274.3,185.8z M322.4,161.3l0.4-0.3l-1.4-2.3l-0.1-0.8l0.2-1.3
		l-0.1-0.3l-0.2-0.3l-0.2-0.2l-0.4-0.3l-1.1,1.4l-1-0.4l-1.5,1.3l-0.5,0.8l0,0.3l0.1,0.3l0.1,0.2l0.4,0.4l0.1,0.3l-0.1,0.4l-0.2,0.2
		l-0.3,0l-0.5-0.3l-0.4,0.1l-1.2,1.4l-1.4,0.5l-0.3,0l-0.2-0.1l0.2-0.2l0.3-0.2l0.2-0.3l0.1-0.4l-0.1-0.6l-0.3-0.9l-0.5-1l-0.2-0.2
		l-0.3,0l-0.1,0.2l-0.7-0.1l-1.1,1l-0.9,0.6l-0.6,0.8l-0.2,0.2l-0.2-0.2l-0.1-0.2l-0.1-0.3v-0.7l0-0.4l-0.2-1l-0.2-0.3l-0.2-0.1
		l-0.2,0l-0.3,0l-0.2,0.1l-0.2,0.2l-0.5,0.9l-0.1,0.1l-0.2,0.1l-0.4,0l-0.2-0.1l-0.1-0.1l-0.3-0.5l-0.6-0.5l-0.4-0.3l-0.7-0.2
		l-0.7,0l-1.8-0.2l-0.9,0.4l-0.4,0.3l-0.3,0l-1.1-0.2l-0.5-0.2l-0.3-0.2l-0.9-0.4l-0.2-0.1l0,0l-3.1,9.2l-2.7,7.3l-0.2,1.7l-0.4,1.2
		l0.1,0.9l-0.1,0.8l-0.7,1.3l-0.4,0.7l-0.5,0.8l-1,0.6l-0.6,0.4l-0.3,0.5l-0.8,0.9l-0.6,0.9l0.6,0.5l0.3,0.6l-0.4,0.4l-0.4-0.1
		l-0.4-0.5l-0.7,0.1l-0.6,0.6l-2.5,1.7l-1.6-0.4l-0.4,0.1l0.3,0.4l1.2,1.3l0.4,0.9l0.2,1.1l0.3,0h1.3l1.5-0.9l0.3-0.2l0.5,0.1l0.2,0
		l0.2,0.1l0.3,0.4l0.3,0.5l0.8,2.7l0.6,0.5l0.7-0.6l0.7-0.8l0.8-1.4l0.7-0.9l0.3-0.2l0.2-0.1l0.4,0l0.5,0.1l0.7,0.3l1,0.2l-0.1-1.5
		l-0.2-0.8l0.1-0.5l0.8-1.3l0.7-0.2l0.3-0.2l0.3-0.4l1.1-2.3l0.5-0.5l1-0.4l2.3-0.2l1.7,0.2l0.5-0.4l0.1-0.3l0.1-0.2v-0.1l-0.1-0.1
		l-0.2-0.5l-0.1-0.4l0-0.3l0.2-0.2l0.3,0l0.3,0.1l0.3,0l0.3-0.1l0.9-1.2l0.2-0.3l-0.4-1.2l-0.1-0.8l-0.3-1.4l0.7-0.6l0.3-0.2
		l0.3-0.2l0.3-0.3l0.1-0.4l-0.1-0.7l-0.3-0.3l-0.3-0.2l-0.2-0.2l-0.1-0.4l0-0.5l-0.1-0.8l0-0.3l0.2-0.4l0.2-0.3l1.6-0.7l0.6,0.2
		l0.4-0.1l0.6-0.3l1.7-1.2l0.5-0.2l0.3,0l0.5-0.4l0.5-0.2l0.5,1.9l0.1,0.5l0.2,1.1l0,0.4l0.1,0.3l0,0.2l0.6-0.2l1.4-0.5l0.4-0.1
		l0.8-0.3l0.7,0.1l0.2-0.1l-0.1-0.9l-0.1-0.3l0-0.2l0.3,0.1l1.4,0.1l-0.2-0.5l0-0.2l0.3-0.4l0.2-0.2l0-0.3l0-0.2l0.2-0.3l0.2-0.2
		l1.5-0.5l0.3,0.1l0.2-0.2l0.3-0.4l0.3-0.3l0.3-0.1l0.3-0.1l0.3-0.2l0.3-0.3l0.7-1.3l0.1-0.6l0-0.1l-0.1-0.2l-0.1-0.2l0.2-0.5
		L322.4,161.3z"/>
	<polygon id="Guarda" class="st32" points="363.6,111.8 363.5,111.8 363.4,112.7 363,113.3 363.1,113.8 363.5,114.4 364.5,115.5 
		365,116.3 365.8,118.2 366.1,119.2 366.3,119.5 366.9,119.7 367.2,119.9 367.4,120.5 367.3,121.1 366.7,121.3 366.6,122.5 
		366.7,122.8 366.8,123.2 366.8,123.5 366.7,123.7 366.6,124.2 366.6,125.1 366.7,125.7 367.1,127.2 367.4,128.7 367.5,129.5 
		367.5,130.1 367.2,130.9 366.4,132.3 366.2,133.1 366.3,133.8 366.6,134.3 367,134.7 367.3,135.3 367.5,136.1 367.4,136.7 
		366.6,137.8 366,139.4 366.2,140.9 367,142.2 368.2,143.3 367.5,144.4 367.2,144.7 365.8,145.8 365.5,146.1 365.4,146.4 
		365.4,146.8 365.4,147.2 365.3,147.4 364.6,147.9 364,147.9 363.3,147.9 363.1,147.9 363,147.9 362.9,147.7 362.5,147.3 362,147 
		361.1,146.5 360.9,146.5 360.6,146.4 360,146.6 359.2,146.6 358.5,146.5 358.1,146.2 357.8,145.6 357.7,145.3 357.5,145.1 
		357.2,145 356.9,145.3 356.7,145.7 356.5,146 356.4,146.3 356.2,146.6 355.7,146.8 354.1,146.8 352.5,147.3 351.7,147.1 350.9,147 
		350.6,146.8 350.4,146.8 350.1,146.7 350,146.5 350,146.3 350,145.9 350.4,145.4 350.7,145.1 351,144.8 351.4,143.6 351.7,140.9 
		351.3,140.7 351,140.7 350.4,140.7 350.1,140.8 349.8,140.9 349,141.8 347.9,142.1 347.6,142.1 346.8,141.9 345.4,140.7 
		343.7,142.4 343.2,143.2 343.1,143.5 342.9,144.2 342.6,144.5 342.3,144.7 341.1,145 340.3,144.6 339.6,145.7 338.8,146.5 
		337.9,147 337,147.4 335.7,148.4 335.3,148.6 334.7,148.6 334,148.9 333.5,148.1 332.6,147.6 333,146.7 333.1,146 333.4,145.5 
		333.7,145.2 334.5,144.6 334.6,144.3 334.4,144.1 333.9,143.6 333.7,143.3 333.4,141.6 333.5,141.2 333.3,141 332.7,140.9 
		332.4,140.7 332.1,140.2 332.2,139.9 332.5,139.7 332.8,139.6 333.1,139.5 333.3,139.2 333.4,138.7 333.4,138.4 333.2,138.1 
		332.9,137.9 332.6,136.9 332.9,136.5 334,136.4 334.3,136.3 335.2,135.6 336.3,135.3 337.3,134.4 338.8,133.9 341.1,133.5 
		341,132.6 341.8,130.1 342.2,129.5 342.4,128.4 341.8,127.6 341.1,127.1 340.7,126.4 341.1,125.9 341.2,125.6 341.2,125.3 
		341.1,125 340.9,124.7 340,124 339.7,123.7 339.7,123.3 339.8,123 340.2,122.5 340.6,121.8 341,120.5 341.1,120.3 341.4,120.1 
		341.8,119.9 342.6,119.9 343,120.1 343.5,120.5 344.7,121.7 344.9,121.9 345.1,122.2 345.7,122.2 346,121.7 346.8,119.9 
		346.8,119.4 346.7,119 346.6,118.7 346.4,117.8 346.9,117.5 348.2,117.9 349.3,116.8 349.6,116.1 349.6,115.6 349.5,115.2 
		349.3,114.9 349,114.8 348.7,114.6 348.4,114.3 348.2,113.8 348.2,113.6 348.3,113.4 349.1,113.4 349.5,113.1 349.4,111.9 
		349.5,111 349.8,109.7 350.7,106.7 353.4,106.5 354.5,106.8 355.2,106.8 355.5,106.3 356.8,105.4 357.2,105.2 356.9,106.2 
		356.7,106.5 356.9,106.7 357,106.8 357.3,107 357.5,107 357.9,107.2 357.8,107.5 357.7,107.9 357.6,108.3 357.8,108.9 358.1,109.5 
		358.5,110 361.5,111.6 363,111.7 363.5,111.8 	"/>
	<path id="Faro" class="st33" d="M347,284l-0.1-0.1l-0.1-0.2l-0.1-0.2l-0.5-1.9l-0.2-1l0.2-0.7l-0.3-1.4l-0.3-3.5l-0.6-1.4l0.1-0.5
		l-0.1-1l-0.2-1.1l-0.2-0.8l-0.2-0.3l-0.6-0.5l-0.3-0.3l-0.3-0.4l0,0l-0.9,0.2l-1,0l-0.7,0.4l-0.7,0.6l-0.4,0.3l-0.3,0.1l-0.2-0.1
		l-0.5-0.1l-0.2-0.1l-1.8,0l-2.7,1.1l-0.6,0.4l-0.2,0.1l-0.2,0.1l-0.2,0l-0.6,0.3l-0.3,0.1l-0.2,0.1l0,0.3l-0.5,0.1l-0.6,0.4
		l-0.1,0.3l-0.2,0.3l-0.4,0.3l-1,0.2l-0.5,0l-1.1,0.2l-0.5,0.3l-0.1,0.3l-0.1,0.3l0.1,0.2l0.3,0.4v0.2l-0.3,0.1l-1.2,0.7l-0.8,0.6
		l-0.5,0.2l-0.4,0l-1.3-0.1l-0.7,0l-1.1-0.3l-2.4-1.8l-0.5-0.3l-0.4-0.5l-0.1-0.3l-0.1-0.6l-0.2-0.5L316,273l-0.6,0.1l-0.3,0.2
		l-0.4-0.1l-0.4,0l-0.7,0.2l-1.3,0.5l-0.1,0.1l-0.2,0.3l-0.1,0.3l-0.2,0.4l-0.6,0.3l-0.6,0.3l-1.5-0.2l-0.5-0.2l-1.3-0.8l-0.4-0.1
		l-1.3,0.2l-0.3,0.1l-0.2,0.2l-0.2,0.2l-0.2,0.2l-0.3-0.1L304,275l-0.9-0.4l-1.4-0.1l-0.3-0.2l-0.3-0.3l-0.3-0.3l-0.5-0.5l-0.5-0.1
		l-0.7-0.4l-0.4-0.3l-0.3,1.4l-0.6,1.4l-0.2,1.1l-1,1.1l-0.6,1.1l0.3,0.7l0.3,0.8l-0.5,1.9l-0.8,0.8l-0.6,0.6l0.3,1.3l-0.5,1
		l-0.5,1.2l-1.3,2.1l-0.2,0.3l-0.2,0.6l-0.2,1.2l0.5-0.2l0.4,0.2l0.4,0.4l0.5,0.2l0.4-0.1l0.7-0.6l0.4-0.1l0.3-0.2l0.6-0.6l0.7,0.3
		l0.8-0.7l0.8-0.2l0.5,0l0.4-0.2l0.9-0.6l0.4-0.1h2.1l1.1-1.2l0.5-0.3l0.5-0.1l1.6-0.1l1.5,0.3l1.8,1l0.1-0.1l1.5,0.6l1.5-0.2l1-0.5
		l1.3,0.5l1.2,0.4l2.8-0.4l1.2-0.1l1.1,0.5l1.4,0.3l2.5,1.4l1.2,1l0.8,1.1l0-0.4l-0.1-0.3l-0.3-0.5l0.3,0.2l0.4,0.3l0.4,0l0.3-0.5
		l0.6,0.2l2.1,0l0.7,0.2l0.5,0.2l0.5,0l1.1-1l5.2-3.6l0.3-0.4l2-1.3l0.6-0.2l1.4-1l0.7-0.3l0.7-0.1l0.8,0l0.7,0.2l0.6,0.4l0.3-0.3
		v-0.3L347,284z M330.6,291.9l0-0.1l-0.2,0l-0.3,0.1h-0.3l-0.1,0.1l0.2,0l0.2,0.2l0.6-0.1l-0.2-0.1l-0.1,0l0.1-0.1L330.6,291.9z
		 M331.4,291.9l-0.1-0.1l-0.8,0.8l-0.7,0.3l-1.8-0.2v0.3l0.8,0.3l1,0l0.9-0.2l0.6-0.4l0-0.1l0.2-0.1l-0.1-0.3L331.4,291.9z
		 M329.7,292.8l0.2,0l0-0.2l0-0.2l-0.2-0.1L329.7,292.8z"/>
	<polygon id="Évora" class="st32" points="323.1,205.2 323.3,205.1 323.4,204.8 323.4,204.5 323.5,204.3 323.5,204.2 323.5,204.2 
		323.6,204.1 324,204 324.5,203.9 324.8,204 325,204.1 325,204.1 325.8,205 325.9,205.3 325.9,206 325.9,206.5 326,206.6 
		326.8,206.7 327.1,206.6 327.4,206.5 327.7,206.3 327.9,206 328.4,205.6 329.2,205.5 329.6,205.8 331.1,207.9 332.1,208.6 
		332.5,208.7 332.8,208.7 333.1,208.6 333.9,208.7 335,208.2 335.3,207.9 335.9,207.2 336.2,207.2 336.7,207.6 337,207.6 
		337.3,207.5 337.6,207.4 338,207.5 338.7,207.8 339,207.8 339.2,207.7 339.3,207.5 339.5,207.2 339.7,206.9 340.3,206.4 
		340.8,206.3 341.5,206.1 342,205.9 342.3,205.7 342.5,205.4 342.5,205.1 342.3,204.8 342.1,204.5 342.5,204.2 342.7,204.2 
		342.8,204.2 342.9,204.2 343,204.6 344.4,205.2 345,205.7 345.2,206.1 345.3,206.9 345.3,207.2 345.4,207.6 346.1,208.3 
		346.4,209.2 346.5,209.8 347,210.5 346.8,211.2 347,211.5 347.5,212.4 347.8,212.7 348.3,213 348.9,213 349.1,213 349.6,212.9 
		350.3,212.1 351,211.5 352.1,211.2 352.7,211.1 353.1,211.3 353.5,211.6 353.6,211.9 353.7,212.5 353.6,212.8 353.1,213.6 
		353,213.8 353,214.2 353.2,214.5 353.3,214.5 351.7,215.8 351.7,216 351.4,216.6 351.2,216.9 351,218.4 350.9,219.4 351,219.9 
		351,220.2 351.2,220.5 351.4,220.6 351.6,220.8 351.7,221.1 351.5,221.7 350.1,223.8 349.5,226.1 349.1,226.6 349.5,227.1 
		349.5,227.7 349.1,228.1 348.7,228.7 349.1,228.9 350.1,229.6 353.8,234.4 353.9,234.6 354.1,235.2 354.3,235.5 354.5,235.7 
		355.1,236.2 355.3,236.4 356.7,239.9 357,240.2 356.9,240.3 356.6,240.5 356.3,240.6 355.8,240.6 355.4,240.3 355.1,239.9 
		354.8,239.3 354.7,239 354.3,238.1 354.2,237.8 354.1,237.5 353.9,237.3 353,236.8 352.3,236.1 352.2,235.8 352.1,235.5 352,235.2 
		351.9,234.9 351.7,234.6 351.6,234.4 351.5,234.3 351.5,234.1 351.4,233.9 351.4,233.8 351.1,233.7 350.8,233.7 349.9,234.1 
		349.7,234.1 349.4,234.2 348.3,234.8 347.2,235.1 347.2,235.4 347.1,235.7 347,236.1 346.8,236.5 346.4,236.8 346.3,237 
		345.7,237.3 345.7,237.4 344.7,238 344.1,238.6 343.6,239.3 343.6,239.6 343.2,239.7 341.6,239.6 340.9,239.4 340.2,239.2 
		337.9,239.2 337.4,239 335.2,237.8 334.3,237.5 332.6,237.3 329.7,236 328.9,235 327.9,234.6 327.6,234.5 327.2,234.5 326.4,234.9 
		326.1,234.9 325.8,234.8 325.5,234.5 325.1,234.1 324.9,234 324.4,233.9 323.6,234 321.1,234 320.9,234.4 319.6,233.3 319,233.1 
		318.7,233.1 318.3,233.1 318,233 317.3,232.5 316.8,232.1 316.1,231.8 315.9,231.7 315.9,231.4 316.4,230.4 316.6,229.6 
		316.4,229.3 316.1,229.1 315.6,228.9 315.5,228.6 315.5,228.4 315.6,228.2 315.6,228 315.2,226.8 315.1,226.5 315.1,226.4 
		315.1,226.3 315.1,226.3 314.9,226 314.5,225.6 313.8,224.7 313.5,224.6 312.9,224.7 312.1,225.2 311.6,225.4 310.6,225.5 
		310.1,225.3 309.8,225.1 309.6,224.9 309.5,224.6 309.3,224.5 309,224.4 308.8,224.6 308.9,224.8 308.9,225.1 308.9,225.3 
		308.7,225.5 307.8,225.2 306.8,225 305.5,224.2 304.5,224.1 304.3,223 304.2,222.7 304,222.4 304,222 304,221.6 305.3,220 
		308.2,218 308.7,217.3 309,216.9 309.1,216.4 309,216.1 309.4,215.4 309.3,214.9 309.1,214.8 307.6,214.5 309.3,213.1 310.8,212.8 
		311.2,212.5 311.9,211.8 312.3,211.7 312.7,211.8 312.9,211.7 313.1,211.6 313.3,211.4 313.4,211.2 313.5,210.9 313.6,210.7 
		313.8,210.7 314.4,210.9 314.8,211 315.2,210.8 315.6,210.8 315.8,210.8 316,210.7 316,210.5 316.2,210.3 316.4,210.3 316.7,210.5 
		317.6,211.5 317.9,211.7 319,211.9 319.3,212.1 319.5,212.3 319.7,212.6 319.7,212.8 319.8,213 320,213 320.2,213 320.4,213.1 
		320.6,213.6 320.7,213.9 321.3,214.2 321.9,213.6 322.1,213 322,212.6 321.8,212.4 321.5,212.2 321.2,212.2 320.7,211.6 
		320.5,211.2 320.5,210.9 320.7,210.1 320.5,209.8 320.3,209.6 319.9,209.6 318.1,208.7 317.9,208.6 317.6,208.3 317.5,208 
		317.6,207.7 317.9,207.5 318.1,207.2 318.2,206.8 318.3,206.3 318.3,205.6 318.4,205.2 318.6,204.9 318.7,204.9 319.2,204.9 
		319.4,204.7 319.7,204.1 320.4,203.5 321,203.3 321.2,203.1 321.5,203 322.4,203 323,203.2 323,203.4 322.9,203.7 322.7,204.3 
		322.9,204.9 	"/>
	<path id="Coimbra" class="st33" d="M335.6,154.4l0-0.3l-0.2-0.5l-0.9-0.7l-0.6-0.7l-0.4-0.3l-0.2-0.3l-0.2-0.6l0.1-0.4l0.7-1.8
		l-0.5-0.8l-0.9-0.5l0.4-0.9l0.2-0.7l0.2-0.5l0.3-0.4l0.8-0.6l0.1-0.3l-0.1-0.2l-0.5-0.4l-0.2-0.3l-0.3-1.6l0-0.4l-0.2-0.2l-0.6-0.1
		l-0.3-0.2l-0.2-0.5l0.1-0.3l0.2-0.2l0.3-0.1l0.3-0.2l0.2-0.3l0.1-0.4l0-0.3l-0.2-0.3l-0.2-0.2l-0.4-1l-0.7,0.2l-0.4,0.2l-0.4,0.4
		l-1.2,0.9l-0.8,1.3l-0.6,0.3l-1.5,1.1l-1.9,0.8l-2.6,1.9l-2-0.3l-1.5,0.3l-0.1,0.1l-0.1,0.2l0,0.2l-0.1,0.2l-0.1,0.1l-0.2,0
		l-0.3-0.3l-0.5-0.3l-0.5-0.5l-0.8-0.6l-1.1-0.3l-0.3-0.3l-0.4-0.2l-0.3,0.3l0,0.4l-0.4,0.5l-0.7-0.1l-0.2,0.1l-0.3,0.3l-0.2,0.4
		l-0.8,1l-0.2,0.4l-0.3,0.3l-0.3,0.2l-2-0.2l-0.2-0.3l0-0.3l0-0.4l0.1-0.5l0.3-0.7l0.2-0.3l0.2-0.2l0.1-0.1l0.1-0.1l0.1-0.1l0.2-0.7
		l0-0.3l-0.1-0.3l-0.4-0.8l-0.2-0.9l-0.4,0l-0.5,0.2l-0.6,0.4l-0.3,0.1l-0.3-0.1l-0.2-0.3l-0.1-0.8l0-0.4l0.2-1.1l-1.3-0.9l-0.8,1.2
		l-0.1,0.7l-0.3,0.5l-1.2-0.1l-3.8-3.9l-0.1-0.1l-0.4,2.2l-2.3,9l-1,2.1l-0.4,1.3l0.1,1l0.3,0.7l0.6,0.4l1.6,0.2l0.6,0.2l0.5,0.4
		l0.6,0.5v0.3L298,154l-0.6-0.3l-0.4-0.6l-0.5,0.7l-1.2,3.5l0,0l0.2,0.1l0.9,0.4l0.3,0.2l0.5,0.2l1.1,0.2l0.3,0l0.4-0.3l0.9-0.4
		l1.8,0.2l0.7,0l0.7,0.2l0.4,0.3l0.6,0.5l0.3,0.5l0.1,0.1l0.2,0.1l0.4,0l0.2-0.1l0.1-0.1l0.5-0.9l0.2-0.2l0.2-0.1l0.3,0l0.2,0
		l0.2,0.1l0.2,0.3l0.2,1l0,0.4v0.7l0.1,0.3l0.1,0.2l0.2,0.2l0.2-0.2l0.6-0.8l0.9-0.6l1.1-1l0.7,0.1l0.1-0.2l0.3,0l0.2,0.2l0.5,1
		l0.3,0.9l0.1,0.6l-0.1,0.4L313,162l-0.3,0.2l-0.2,0.2l0.2,0.1l0.3,0l1.4-0.5l1.2-1.4l0.4-0.1l0.5,0.3l0.3,0l0.2-0.2l0.1-0.4
		l-0.1-0.3l-0.4-0.4l-0.1-0.2l-0.1-0.3l0-0.3l0.5-0.8l1.5-1.3l1,0.4l1.1-1.4l0.4,0.3l0.2,0.2l0.2,0.3l0.1,0.3l-0.2,1.3l0.1,0.8
		l1.4,2.3l-0.4,0.3l-0.1,0.2l-0.2,0.5l0.1,0.2l0.1,0.2l0,0.1l-0.1,0.6l0.5-0.6l0.1-0.3l0.2-0.2l0.2-0.1l0.5-0.1l0.4-0.4l0.8-0.2
		l0.6,0l0.1-0.2l0.1-0.2l0-0.3l0.2-0.1l0.5,0l0.2-0.2l0.2-0.1l0.3-0.1l0.2,0l0.2,0.1l0.2,0.1l0.2-0.1l0.4-0.7l0.2-0.2l0.3,0l0.7,0
		l0.3-0.2l0.1-0.2l-0.2-0.6l0.1-0.4l0.4-0.5l0.8-0.4l0.5-0.1l0.4,0l0.3,0.1l0.3,0.1l0.7,0.6l0.1-0.9l-0.1-0.8l0.2-0.3l0.2-0.1l0.2,0
		l0.1,0.2l0.1,0.2l0.2,0.1l0.4-0.1l0.7-0.5l0.3-0.3l0.1-0.2l0-0.3L335.6,154.4z M297.9,153.8l0.4,0l0.7-0.3l-1.1-0.6l-0.4-0.1
		l-0.2,0.1l-0.1-0.1l0.1,0.3l0.1,0.2L297.9,153.8z"/>
	<polygon id="Castelo_Branco" class="st32" points="352.5,147.3 354.1,146.8 355.7,146.8 356.2,146.6 356.4,146.3 356.5,146 
		356.7,145.7 356.9,145.3 357.2,145 357.5,145.1 357.7,145.3 357.8,145.6 358.1,146.2 358.5,146.5 359.2,146.6 360,146.6 
		360.6,146.4 360.9,146.5 361.1,146.5 362,147 362.5,147.3 362.9,147.7 363,147.9 363.1,147.9 362.6,148 361.1,149 360.5,149.2 
		360.2,149.7 359.9,150.7 359.6,151.2 359.9,151.9 360.1,153.4 360.5,154 360.9,154.2 361.8,154.3 362.2,154.4 362.6,154.8 
		363.1,155.5 363.8,156.5 365.2,159 364.6,160 364.5,160.5 364.5,161 364.4,161.4 364.2,162.5 364.1,162.7 363.7,162.9 363.6,163.1 
		363.6,163.4 363.8,163.8 363.8,164 363.7,164.4 363.7,165.2 363.6,165.6 362.7,166.9 362.4,167.1 361.6,167.5 361.3,167.7 
		361,168.3 361.1,168.8 361.2,169.2 361.3,169.6 361.2,170 360.8,170.7 360.6,171.2 360.6,171.6 360.7,171.9 360.7,172.2 
		360.3,173.2 359.8,173.4 354.7,174 353.7,174 352.9,173.5 352.3,173.7 350.9,173.7 350.3,173.8 349.7,174 349.3,174.2 341.8,173.8 
		341.9,173.9 341.8,173.9 341.5,173.8 340.8,174 340.2,174.4 339.8,174.9 339,175.5 338.4,175.4 337.8,175.1 337,175 336.5,175.5 
		336,176.2 335.7,176.9 335.5,177.2 334.8,177.5 334.3,178.1 333.8,178.8 333.3,179.3 332.9,178.9 332.7,178.1 332.6,177.8 
		331.8,176.6 331.1,175.8 330.5,175.4 330,175 329.3,174.7 328.8,174.7 328.5,174.6 328.2,174.4 328.2,174.1 328.2,173.4 
		328.2,172.7 328.1,172.4 328.1,172 328,171.7 327.9,171.4 327.7,171.2 326.9,171.2 325.8,170.8 325.1,170.9 324.9,171.3 
		324.5,173.6 324.2,174 324.1,174.6 324.1,175.1 324.3,175.8 324.4,176.1 324.4,176.3 323.7,176.6 322.4,176.7 321.7,176.7 
		320.8,176.1 318.9,175.3 318.6,174.7 318.5,173.1 318.5,172.3 318.7,171.9 318.6,171 318.7,170.8 318.7,170.6 318.6,170.4 
		318.5,170.1 318.3,169.9 317.9,169.7 317.4,169.6 317.1,169.3 316.9,168.7 316.7,168.1 316.7,167.9 317,167.5 317.2,167.4 
		317.2,167.1 317.2,166.9 317.4,166.6 317.6,166.4 319.1,165.9 319.4,166 319.6,165.8 319.9,165.4 320.2,165.1 320.5,164.9 
		320.8,164.8 321.1,164.6 321.5,164.3 322.2,163 322.7,162.4 322.8,162.1 323,162 323.2,161.9 323.7,161.8 324.1,161.4 324.8,161.2 
		325.4,161.2 325.5,161 325.6,160.8 325.6,160.5 325.8,160.5 326.3,160.4 326.5,160.2 326.7,160.1 327,160 327.2,160.1 327.4,160.2 
		327.6,160.2 327.7,160.1 328.2,159.4 328.4,159.3 328.7,159.2 329.4,159.2 329.7,159 329.8,158.7 329.6,158.1 329.7,157.8 
		330.2,157.3 331,156.9 331.5,156.8 331.9,156.8 332.2,156.9 332.5,157 333.2,157.6 333.3,156.7 333.2,155.9 333.4,155.7 
		333.6,155.5 333.7,155.6 333.8,155.7 333.9,155.9 334.2,156 334.5,155.9 335.2,155.5 335.5,155.2 335.6,154.9 335.7,154.7 
		335.6,154.4 335.6,154.1 335.4,153.6 334.5,153 333.9,152.2 333.5,151.9 333.4,151.6 333.2,151.1 333.3,150.7 334,148.9 
		334.7,148.6 335.3,148.6 335.7,148.4 337,147.4 337.9,147 338.8,146.5 339.6,145.7 340.3,144.6 341.1,145 342.3,144.7 342.6,144.5 
		342.9,144.2 343.1,143.5 343.2,143.2 343.7,142.4 345.4,140.7 346.8,141.9 347.6,142.1 347.9,142.1 349,141.8 349.8,140.9 
		350.1,140.8 350.4,140.7 351,140.7 351.3,140.7 351.7,140.9 351.4,143.6 351,144.8 350.7,145.1 350.4,145.4 350,145.9 350,146.3 
		350,146.5 350.1,146.7 350.4,146.8 350.6,146.8 350.9,147 351.7,147.1 	"/>
	<polygon id="Bragança" class="st32" points="359.3,70.6 360.5,70 361.3,69.4 361.6,69.6 362.1,69.9 362.9,70.5 363.9,70.7 
		366.1,70.5 366.9,70 367.1,68.6 368.2,68.8 369.4,70.8 370.4,71.1 372.9,71 374.1,70.6 374.5,69.6 375.4,70 375.8,70.6 376,71.3 
		375.7,73.3 376,73.6 376.6,73.7 377.5,74 377.1,74.9 376.2,78.7 376.1,79.1 375.9,79.5 375.6,80 375.8,80.4 376,80.8 376.1,81.2 
		376.2,82.1 376.4,83 376.9,83.7 377.9,84.1 378.2,84 378.7,83.7 379.2,83.4 379.4,83.1 379.7,82.9 380.1,82.9 383,83.5 384.6,84.1 
		386.2,85.1 387.6,86.7 388.1,87.3 388.5,87.8 386.8,90.2 385.9,91.2 385.7,91.6 385.7,92 385.8,92.3 385.8,92.6 384.5,94.7 
		384.5,95.1 383.4,95.2 382.9,95.4 382.5,95.8 382.6,95.8 382.6,96.1 382.6,96.4 382.5,96.7 382.4,96.7 381.9,96.6 381.8,96.7 
		380.7,98.4 379.6,99.6 378.9,100.1 378.5,100.5 376.4,101.4 376.1,101.6 373.9,101.6 373.3,101.7 372.9,102.2 371.6,104 
		371.4,104.7 371.2,105.1 370,106.1 369.5,106.7 369.4,107 369.5,108.2 369.2,109 367.8,111 367.3,111.5 366.4,111.6 364.3,111.4 
		363.6,111.8 363.5,111.8 363,111.7 361.5,111.6 358.5,110 358.1,109.5 357.8,108.9 357.6,108.3 357.7,107.9 357.8,107.5 
		357.9,107.2 357.5,107 357.3,107 357,106.8 356.9,106.7 356.7,106.5 356.9,106.2 357.2,105.2 356.8,105.4 355.5,106.3 355.2,106.8 
		354.5,106.8 353.4,106.5 350.7,106.7 349.8,106.8 348.6,106.4 348.2,106 347.2,104.5 346.6,104.1 346.1,104.1 346.3,103.5 
		346.4,103.3 346.5,103 346.9,102.9 347.4,102.8 347.5,102.7 347.4,102.5 347.4,102.2 347.4,101.8 347.6,101.2 347.9,100.8 
		348.2,100.4 348.3,100.2 348.2,99.9 348.3,99.4 348.9,98.8 350.1,98.4 349.3,97.9 349,97.5 348.7,96.9 348.5,96 348.5,93.7 
		349.7,92.8 350,92.7 350.3,92.5 350.6,92.2 350.8,91.4 351.2,90.6 351.6,90.2 351.9,90.1 352.2,90.1 352.5,90 352.8,89.9 
		352.9,89.6 352.8,89.3 352.7,89 352.5,88.7 352.4,88.4 352.2,88 352.2,87.4 352.3,86.2 353.5,82.4 354.3,80.5 354.6,80.2 
		354.8,80.1 355,79.9 355.1,79.6 355.1,79 355,78.6 354.4,77.7 354.1,76.9 354,76.4 353.9,75.6 354,74.7 354.1,74.2 353.9,73.3 
		353.8,73 354.2,72.5 354.3,71.7 354.1,70.2 354.1,69.6 354.4,69.3 354.9,68.9 355.5,68.5 356,68.5 357.1,69.2 358.2,70.1 	"/>
	<polygon id="Braga" class="st32" points="322.9,82.2 323.4,82.1 323.6,82 323.8,82 324.1,82 324.4,82 324.7,82 325.3,81.7 
		325.5,81.7 325.8,81.8 326.7,82.4 326.8,82.5 326.9,82.8 326.8,83.4 326.7,83.8 326.6,85.9 327.3,86.2 327.7,86.3 328,86.5 
		328.3,86.6 329.7,86.9 330.1,86.9 331.1,86.6 331.8,85.8 332.2,86 332.4,86.2 333,87.2 332.9,87.8 331.5,89.8 331.1,90.3 
		330.4,90.6 330.3,90.7 330.1,91.3 329.8,91.6 329.5,91.6 329.3,91.6 329.2,91.7 328.8,92.2 328.5,93.2 328.7,93.6 328.6,93.8 
		328.5,94.1 328,95 327.9,95.3 327.8,95.4 327.7,95.5 327.6,95.6 327.7,96 327.7,96.2 327.4,97 327.2,97.5 327.2,97.7 327.1,97.9 
		326.9,98.1 326.7,98.2 326.5,98.4 326.3,98.6 326.2,98.7 325.9,99 325.6,99.1 325.3,99.1 324.9,98.8 324.1,98.3 323.8,98.4 
		322.7,98 321.4,97 321.5,96.6 321.4,96.3 320.7,95.6 318.9,95 318.4,95.8 317.7,96.3 316.7,96.8 316.4,96.8 315.6,97.2 315.4,97.2 
		314.9,96.8 314.6,96.7 313.2,96.9 312.2,97.2 311.3,97.1 311.1,96.9 310.8,96.7 310.4,96.7 309.8,96.9 309.1,97.3 308.9,97.5 
		308.6,97.7 308.3,97.8 308.1,97.9 306.1,97.9 305.8,98 305.7,98 305.4,97.8 305.2,97.5 305.1,96.9 305,96.5 305.3,96.2 305.6,96.1 
		305.8,96 305.9,95.7 305.8,95.4 305.5,95.1 305.1,95 304.6,94.7 304,94.1 303.8,93.9 303.5,93.6 303.1,93.5 302.3,93.5 301.4,93 
		300.6,92.5 299.8,92.5 299.8,92.5 299.4,91.4 299.3,90.5 299.1,89.8 299.1,89.1 298.6,87.7 298.4,86.6 298.2,85.9 298.2,85.6 
		298.4,85.6 299,85.7 299.4,85.7 301.9,84.8 303.7,84.7 304,84.6 304.2,84.4 304.4,84.2 304.5,84.1 304.8,84.3 305.8,84.6 
		306.5,84.8 306.9,85 307.2,85.1 307.5,85.1 308.1,84 307.9,83.5 308,83.2 308.1,82.9 308.5,82.6 308.6,82.3 308.6,81.9 308.7,81.2 
		308.8,80.9 308.9,80.5 309.1,80.2 309.3,80.1 309.6,80 309.9,80.1 310.2,80.1 310.7,79.9 311.4,79.4 311.6,79.2 312.1,79 
		312.6,78.9 315.6,78.7 316.5,78.4 319.8,76.6 320.2,76.6 320.3,76.6 320.3,76.6 320.3,76.7 323.3,76.9 324.8,76.4 324.9,76.5 
		324.9,76.8 324.8,77 324.6,77.3 324.5,77.6 324.2,79 323.9,79.5 323.6,80.5 323.4,80.9 323.2,81.2 322.4,82.1 	"/>
	<polygon id="Beja" class="st32" points="356.3,240.6 356.6,240.5 356.9,240.3 357,240.2 357.5,240.7 358,240.7 358.9,240.5 
		359.7,240.1 360.1,239.5 360.3,239.6 360.4,239.6 361.3,239.3 362.3,239.3 362.8,239.6 362.9,239.7 362.5,240.9 362.2,241.6 
		361.8,243 361.1,244.4 360.8,245.7 360.5,246.2 360.2,247.3 359.4,247.4 357.4,246.6 356.8,246.5 356.5,246.9 356.2,247.8 
		355.8,248.3 355.5,248.4 355.1,248.6 354.7,248.8 354.2,248.7 353.8,248.6 353.3,248.6 353,248.8 351.9,249 351.6,249.3 
		351.7,249.7 351.8,250.1 351.8,250.5 351.6,251.3 350.8,253.3 350.5,254.8 349.5,256.5 346.3,259.2 345.7,260.1 345.3,261.4 
		345,263.5 344.8,264.2 344.5,264.5 343.6,265.5 343.3,265.7 343.4,266 343.4,266.2 343.3,266.4 343.2,266.6 342.9,267 342.8,267.2 
		342.8,267.7 342.8,267.7 343,267.7 343.2,268.3 343.2,268.6 343.3,268.9 343.3,268.9 343.3,268.9 342.4,269.1 341.4,269.1 
		340.7,269.5 340,270.1 339.7,270.4 339.4,270.4 339.1,270.3 338.6,270.2 338.4,270.1 336.6,270.1 333.9,271.3 333.3,271.7 
		333.1,271.8 332.9,272 332.7,272 332,272.3 331.8,272.4 331.5,272.5 331.5,272.8 331,272.9 330.4,273.3 330.3,273.5 330.1,273.8 
		329.7,274.1 328.7,274.3 328.3,274.3 327.1,274.4 326.7,274.7 326.5,275 326.5,275.3 326.6,275.5 326.8,275.9 326.8,276.1 
		326.6,276.2 325.4,276.8 324.6,277.4 324.1,277.7 323.7,277.7 322.4,277.5 321.7,277.5 320.6,277.2 318.2,275.4 317.7,275.1 
		317.3,274.6 317.2,274.4 317.1,273.8 316.8,273.3 316,273 315.4,273.1 315,273.3 314.7,273.2 314.3,273.2 313.6,273.4 312.2,273.9 
		312.1,274 311.9,274.3 311.8,274.6 311.6,275 311,275.3 310.4,275.6 308.9,275.3 308.4,275.1 307.1,274.3 306.7,274.2 305.4,274.4 
		305.1,274.6 304.9,274.8 304.7,275 304.5,275.2 304.2,275.1 304,275 303.1,274.5 301.7,274.5 301.4,274.3 301.1,274 300.8,273.7 
		300.2,273.2 299.7,273.1 299,272.6 298.6,272.3 298.8,271.8 299,270.6 299,268.6 298.8,267.6 298.5,266.9 298.1,266.3 298,265.8 
		298.4,263.8 298.6,262.6 298.9,261.5 299.4,261.3 300.4,261.1 300.5,260.1 300.5,259.9 300.2,260.2 299.4,260.4 298.6,260.4 
		298.3,259.7 298.6,257.4 298.8,255.9 299.2,256.2 299.4,256.5 299.5,256.6 299.8,256.6 300,256.5 300.3,256.3 300.6,256.2 
		301.2,256.5 301.4,256.8 301.5,257 302.4,258.1 302.7,258.7 302.9,258.9 303.1,258.9 303.3,258.7 303.4,258.5 303.6,258.3 
		303.9,258.4 304.1,258.6 304.4,258.8 305,259 305.4,259 305.9,258.8 306.1,258.5 306.2,258.2 306.2,257.9 306.6,256.9 306.7,256.6 
		307.3,256 307.5,255.6 307.6,255.3 307.9,255 308.5,254.7 311.6,254.1 313.1,254.4 314,254.4 314.2,254.5 315.2,255 315.6,253.8 
		315.8,253.5 316.2,252.3 316.4,250.4 316.4,249.1 316.1,248.2 315.8,247.7 315.4,247.4 314.9,247.3 314.5,247.2 314.1,247 
		313.6,246.4 312.9,245.9 312.7,245.4 312.7,245.2 312.7,245 312.8,244.7 312.8,244.4 312.9,244.2 313,243.8 313.2,243.4 
		313.4,243.4 313.6,243.5 313.8,243.6 314,243.6 314.1,243.4 314.2,243.3 314.4,242.8 314.4,242.6 314.4,242.4 314.4,242.2 
		314.5,242 314.8,241.9 315,241.7 315.2,241.7 315.5,241.8 315.8,242 316.1,242.1 316.3,242 316.5,241.2 316.6,240.8 316.7,240.6 
		316.9,240.4 318.2,240.4 318.4,240.1 318.5,239.6 318.8,239.5 320,239.1 320.6,238.8 321.9,238.5 322,238 322,237.7 322,237.3 
		321.8,236.2 320.9,234.4 321.1,234 323.6,234 324.4,233.9 324.9,234 325.1,234.1 325.5,234.5 325.8,234.8 326.1,234.9 326.4,234.9 
		327.2,234.5 327.6,234.5 327.9,234.6 328.9,235 329.7,236 332.6,237.3 334.3,237.5 335.2,237.8 337.4,239 337.9,239.2 340.2,239.2 
		340.9,239.4 341.6,239.6 343.2,239.7 343.6,239.6 343.6,239.3 344.1,238.6 344.7,238 345.7,237.4 345.7,237.3 346.3,237 
		346.4,236.8 346.8,236.5 347,236.1 347.1,235.7 347.2,235.4 347.2,235.1 348.3,234.8 349.4,234.2 349.7,234.1 349.9,234.1 
		350.8,233.7 351.1,233.7 351.4,233.8 351.4,233.9 351.5,234.1 351.5,234.3 351.6,234.4 351.7,234.6 351.9,234.9 352,235.2 
		352.1,235.5 352.2,235.8 352.3,236.1 353,236.8 353.9,237.3 354.1,237.5 354.2,237.8 354.3,238.1 354.7,239 354.8,239.3 
		355.1,239.9 355.4,240.3 355.8,240.6 	"/>
	<polygon id="Aveiro" class="st32" points="321.8,114.8 322.2,114.7 322.5,114.2 322.6,114 322.7,113.9 323.1,113.5 323.4,113.5 
		323.5,113.7 323.5,113.9 323.5,114 323.5,114.1 323.4,114.3 322.3,115.9 322.2,116.4 322.1,116.9 322.1,117.2 322.3,117.8 
		322.4,119 322.7,119.8 322.7,120.4 322.5,120.7 322.2,120.8 321.9,120.7 321.6,120.6 321.4,120.4 321.1,120.3 320.7,120.3 
		320.1,120.6 319.6,120.7 319.2,120.6 319,120.5 317.9,120.6 318.3,122 318.2,122.3 317.9,122.8 317.2,124.3 316.4,125.2 
		315.6,125.9 315.3,126.5 315.3,126.6 315.3,126.9 315.3,127.1 315.5,127.4 316,128 316.2,128.3 316.3,128.7 316.3,129.9 
		316.6,130.5 316.7,130.7 317.4,130.9 317.9,131.4 316.5,131.9 316.3,132.2 316.1,132.5 316.1,132.8 316.5,133.8 316.7,134.6 
		316.9,134.9 317.1,135.2 317.4,135.4 317.8,136.1 315.9,136.9 315.1,137.5 315,137.8 315.1,138.1 315.4,138.7 315.4,139.3 
		315.3,139.7 314.3,141.2 314.4,142.6 314.1,142.9 314.1,143.3 313.7,143.9 313,143.8 312.7,143.9 312.4,144.2 312.2,144.6 
		311.5,145.6 311.3,146 311,146.3 310.7,146.5 308.7,146.3 308.5,146 308.4,145.7 308.4,145.3 308.5,144.8 308.8,144.2 309,143.9 
		309.2,143.7 309.3,143.6 309.4,143.5 309.5,143.3 309.7,142.7 309.7,142.4 309.7,142.1 309.3,141.3 309.1,140.4 308.7,140.5 
		308.1,140.7 307.6,141.1 307.3,141.2 307,141.1 306.7,140.8 306.6,140 306.6,139.5 306.8,138.4 305.5,137.5 304.7,138.7 
		304.6,139.4 304.3,139.9 303.2,139.8 299.4,135.8 299.3,135.7 299.4,135.1 300.1,133 300.5,130.4 300.6,130.2 300.8,130.1 
		300.8,131.1 300.8,131.4 301.5,130.2 302,129.8 302.5,130.1 302.7,130.1 302.7,129.8 302.6,129.7 302.5,129.5 302.4,129.2 
		302.5,128.9 302.8,128.7 303,128.8 303.1,129.1 303.3,129.2 303.7,129.1 303.9,128.7 304.4,128 303.8,127.6 303.5,127.1 
		303.6,126.6 304.2,126.4 305,126.3 305.7,126.1 306.2,125.7 306.7,125.2 306.2,125.2 305.3,125.6 304.6,125.8 304.4,125.9 
		304.2,125.9 303.4,125.5 303.2,125.2 302.9,123.9 304.2,122.1 303.9,121.1 303.8,121.8 303.6,122.5 303.4,122.6 303.2,122 
		302.7,122.9 302.3,124.1 302.1,125.4 302,126.5 301.9,127.3 301.5,128.3 301,129.3 300.6,129.8 303.9,114.3 303.9,113.2 
		303.9,113.2 304.2,113.1 305.7,112.9 306.3,113.3 307.4,112.9 307.9,112.5 308.4,112.5 308.7,112.7 308.9,113 309.4,113.2 
		309.8,113.2 310.1,113 310.3,112.4 310.4,112.1 311,111.5 311.8,112.2 311.9,112.5 312.2,113 312.8,113.5 313.1,113.5 313.2,113.3 
		313.1,113 313,112.7 312.9,112.4 313,112.2 313.9,111.7 314.6,112 316.2,110.8 316.4,110.7 316.5,110.2 318.6,111.5 318.7,111.8 
		318.8,112.3 318.8,112.6 318.8,113.6 321.4,114.8 	"/>
	<path id="Azurs" class="st34" d="M174.3,419.2L174.3,419.2l-0.2,0l0,0v0l0,0l0,0l0.1,0l0,0L174.3,419.2L174.3,419.2z M172.5,420.7
		L172.5,420.7L172.5,420.7L172.5,420.7L172.5,420.7z M167.5,390l-0.2-0.3l-0.2-0.2l0,0.1l0,0.1l0.1,0.1l0.1,0.1l0.4,0.6l-0.1-0.3
		L167.5,390z M169.8,383.4l0-0.4l-0.1,0.1l-0.2-0.1l-0.3,0.1l-0.2,0.2l-0.1,0.4l-0.1,0.1l-0.1,0l-0.1,0v0.1l0.2,0.1l0.1,0l0.1-0.1
		l0.1-0.2l0.1-0.1l0.2,0l0.4,0.1l-0.1-0.1L169.8,383.4z M165.6,387.3l-0.1,0l-0.1,0.1l-0.2-0.1l-0.2,0l-0.4,0l-0.1,0l-0.1-0.1
		l-0.5-0.4l-0.1-0.1l-0.3-0.2l-0.2-0.1l-0.4,0l-0.2,0.1l-0.2,0.1l-0.2,0.1l-0.3,0.1l-0.3,0l-0.3-0.2l-0.2-0.1l-0.1,0l-0.1-0.1
		l-0.2-0.3l-0.1-0.1l-0.1-0.1l-0.1,0l-0.1,0l-0.1,0.1l-0.3,0.4l-0.1,0.1l-0.2,0.1l-0.1,0.2l0,0.2l0.1,0.2l0.3,0.4l0.4,0.3l0.4,0.3
		l1.7,0.7l0.8,0.1l0.5,0l0.4-0.2l0.2-0.4l0.1-0.1l0.3-0.4l0.1-0.1l0.1,0l0.4-0.2l0.2,0l-0.1-0.1L165.6,387.3z"/>
	<path class="st34" d="M14.7,297.3l-0.1,0l-0.1,0.1l-0.1,0.1l0,0.1l0,0.1l0.2,0.4l0,0.1l0.3-0.1l0.2-0.4l0-0.4L14.7,297.3z
		 M14.5,300.6l-0.2-0.3l-0.1,0.1l-0.1,0l-0.1-0.1l-0.1-0.1l0.1-0.2l-0.2,0l-0.2,0.1l-0.2,0.1l-0.1,0.2l0,0.3l-0.1,0.2l-0.1,0.2
		l0.1,0.2l-0.1,0.1l0,0.2L13,302l0.1,0.2l0.1,0.1l0.2,0l0.2,0l0.2-0.1l0.2,0.1l0.2-0.2l0.2-0.4l0.1-0.3l0-0.6L14.5,300.6z
		 M40.7,312.2l-0.9-0.4l-0.1,0.1l-0.2,0.3l-0.1,0.1l-0.1,0.1l-0.1,0l-0.3,0l-0.3,0.1l0,0.1l0.5,0.3l0.2,0.2l0.3,0.4l0.2,0.1l0.1,0
		l0.3-0.1l0.1,0l0.3,0.1l0.1,0l0.1-0.1l-0.1,0l0,0l0,0l-0.1-0.1l0.1-0.1l0.3-0.1l0.1,0l-0.1-0.6L40.7,312.2z M46.9,306.7l0.2,0.1
		l0.2,0l0.2,0l0.2,0l0.2-0.1l0.1-0.2l-0.1-0.2l-0.2-0.2l-0.3-0.3l-0.2-0.2l-0.1,0.1l-0.1-0.1l-0.1,0l-0.1,0l-0.1,0.1l-0.2,0.4l0,0.2
		l0.1,0.2L46.9,306.7z M78.5,333.9l-0.1-0.3l-0.2-0.2l-0.2-0.1l-0.3,0l-0.4,0l-0.4,0.1l-0.2,0.2l-0.1,0.1l0.1,0.1l0.1,0.1l0.1,0.2
		l0.1,0.1l0.2,0l0.3-0.1l0.6,0.2l0.4,0l0.2-0.2L78.5,333.9z M57.4,311L57.4,311l0-0.2l-0.1-0.3l-0.3-0.3l-0.4-0.3l-0.3-0.1l-1.6-0.1
		l-0.4,0.1l-0.4,0.2l-0.2,0.3l0.1,0.4l0.1,0.3l0.2,0.3l0.3,0.2l0.2,0.1l0.3,0l0.3,0.1l0.3,0.2l0.1,0l0.1-0.2l0.2,0.2l0.7,0l0.3,0.1
		l0.3-0.1l0.1-0.1l0-0.1l0-0.2l0-0.1l0.1,0l0.2-0.1l0.1,0l0-0.1L57.4,311z M77.1,323.6l0.3-0.4l0-0.5l-0.2-0.4l-0.4-0.2l-1.5,0
		l-1.1,0.3l-0.2,0.1l-0.1-0.1l-0.2-0.2l-0.1,0l-0.1,0l-0.3,0.2l-0.2,0l-1.3-0.2l-0.1,0l-0.1-0.1l0-0.1l0-0.2l-0.1-0.1l-0.4-0.3
		l-0.3-0.1l-0.8,0.1l-0.2,0.7l0.4,0.5l1.3,0.9l0.9,0l0.6,0.2l0.3,0.1l0.3,0.2l0.2-0.1l0.2,0l0.5,0l0.5-0.1l0.5-0.1l1.4-0.2
		L77.1,323.6z M46.7,314.5l-0.5-0.1l-0.7-0.2l-0.2,0l-0.1,0L45,314l-0.1,0l0,0l-0.4-0.2l-1-0.6L43,313l-0.7,0l-0.4,0.1l-0.3,0.3v0.6
		l0.2,0.4l0.7,0.6l0.2-0.1l1.5,0l0.2,0.1l0.1,0.1l0.1,0.2l0.1,0.1l0.4-0.3l0.2-0.1l0.2,0l0.8,0.1l0.3,0l0.1-0.1l-0.1-0.3L46.7,314.5
		z M49.2,312.7l-0.8-0.3l-1.5-0.8l-2.1-0.8l-0.2,0l-0.1-0.1l-0.3-0.2l-0.2-0.1l0,0.2l0,0.1l0.5,0.4l0.1,0l0.1,0l0,0.1l0,0.1l0,0
		l0.1,0l0,0l0,0l0.1,0l0.1,0.1l0.2,0.4l0.2,0.1l1.1,0.4l0.1,0.1l0.2,0.2l0.1,0.1l0.1-0.1l0.2,0.1l0.3,0l0.2,0.1l0.1,0.1l0.2,0.1
		l0.2,0.1l0.3,0.1l0.3,0.2l0.2,0.1l0.4,0l0.2,0l0.2-0.1l-0.2-0.2L49.2,312.7z"/>
</g>
</svg>
