<?xml version="1.0" encoding="utf-8"?>
<!-- Generator: Adobe Illustrator 23.0.1, SVG Export Plug-In . SVG Version: 6.00 Build 0)  -->
<svg version="1.1" id="Layer_1" xmlns="http://www.w3.org/2000/svg" xmlns:xlink="http://www.w3.org/1999/xlink" x="0px" y="0px"
	 viewBox="0 0 720 515.3" style="enable-background:new 0 0 720 515.3;" xml:space="preserve">
<style type="text/css">
	.st0{display:none;}
	.st1{fill:#A8A8A8;}
	.st2{fill:#89CCA3;stroke:#0FB753;stroke-width:0.25;stroke-miterlimit:10;}
	.st3{fill:#143C75;}
	.st4{fill:none;}
	.st5{font-family:'Bulo-Black';}
	.st6{font-size:14.5939px;}
	.st7{font-size:15px;}
	.st8{fill:#E5367A;}
	.st9{fill:#606060;}
	.st10{font-family:'ArialMT';}
	.st11{font-size:11px;}
	.st12{fill:#3D3D3D;}
	.st13{font-family:'Arial-BoldMT';}
	.st14{fill:#FFFFFF;}
	.st15{fill:#8D90C7;stroke:#FFFFFF;stroke-width:0.5;stroke-miterlimit:10;}
	.st16{fill-rule:evenodd;clip-rule:evenodd;fill:#8D90C7;stroke:#FFFFFF;stroke-width:0.5;stroke-miterlimit:10;}
	.st17{fill-rule:evenodd;clip-rule:evenodd;fill:#F8A25E;stroke:#FFFFFF;stroke-width:0.5;}
	.st18{fill-rule:evenodd;clip-rule:evenodd;fill:#3A9DB4;stroke:#FFFFFF;stroke-width:0.5;stroke-miterlimit:10;}
	.st19{fill:#3A9DB4;stroke:#FFFFFF;stroke-width:0.5;stroke-miterlimit:10;}
	.st20{fill-rule:evenodd;clip-rule:evenodd;fill:#F1E355;stroke:#FFFFFF;stroke-width:0.5;stroke-miterlimit:10;}
	.st21{fill:#F1E355;stroke:#FFFFFF;stroke-width:0.5;stroke-miterlimit:10;}
	.st22{fill-rule:evenodd;clip-rule:evenodd;fill:#D96CA9;stroke:#FFFFFF;stroke-width:0.5;stroke-miterlimit:10;}
	.st23{fill:#D96CA9;stroke:#FFFFFF;stroke-width:0.5;stroke-miterlimit:10;}
	.st24{fill:#D96CA9;}
	.st25{fill:#9ECF85;stroke:#FFFFFF;stroke-width:0.5;stroke-miterlimit:10;}
	.st26{fill-rule:evenodd;clip-rule:evenodd;fill:#9ECF85;stroke:#FFFFFF;stroke-width:0.5;stroke-miterlimit:10;}
	.st27{fill:#73AFDF;}
	.st28{fill-rule:evenodd;clip-rule:evenodd;fill:#F49294;stroke:#FFFFFF;stroke-width:0.5;}
	.st29{fill:#F49294;stroke:#FFFFFF;stroke-width:0.5;}
	.st30{fill:#77AE87;stroke:#FFFFFF;stroke-width:0.5;stroke-miterlimit:10;}
	.st31{fill-rule:evenodd;clip-rule:evenodd;fill:#77AE87;stroke:#FFFFFF;stroke-width:0.5;stroke-miterlimit:10;}
	.st32{fill-rule:evenodd;clip-rule:evenodd;fill:#D0B0CE;stroke:#FFFFFF;stroke-width:0.5;}
	.st33{fill:#D0B0CE;stroke:#FFFFFF;stroke-width:0.5;}
	.st34{fill:#BF84BE;}
	.st35{fill:#F37B58;stroke:#FFFFFF;stroke-width:0.5;stroke-miterlimit:10;}
	.st36{fill-rule:evenodd;clip-rule:evenodd;fill:#F37B58;stroke:#FFFFFF;stroke-width:0.5;stroke-miterlimit:10;}
	.st37{fill:#F37B58;}
	.st38{fill-rule:evenodd;clip-rule:evenodd;fill:#F6B3CD;stroke:#FFFFFF;stroke-width:0.5;stroke-miterlimit:10;}
	.st39{fill:#F6B3CD;stroke:#FFFFFF;stroke-width:0.5;stroke-miterlimit:10;}
	.st40{fill:none;stroke:#000000;stroke-width:0.75;stroke-miterlimit:10;}
	.st41{fill:none;stroke:#000000;stroke-width:0.5;stroke-miterlimit:10;}
	.st42{fill:#33353D;}
	.st43{font-size:9px;}
	.st44{font-size:8px;}
	.st45{fill:#565556;}
	.st46{font-family:'Arial-ItalicMT';}
</style>
<g id="Malaysia_1_" class="st0">
	
		<image style="display:inline;overflow:visible;" width="633" height="322" id="Layer_0_4_" xlink:href="A8B31973B3364DFA.png"  transform="matrix(0.6151 0 0 0.6151 2.8833 103.5618)">
	</image>
</g>
<text transform="matrix(1 0 0 1 399.765 433.6366)" class="st3 st5 st6">Life Expectancy</text>
<text transform="matrix(1 0 0 1 399.765 297.4646)" class="st3 st5 st6">Cost of Living</text>
<text transform="matrix(1 0 0 1 399.765 342.287)" class="st3 st5 st6">Healthcare</text>
<text transform="matrix(1 0 0 1 399.765 388.0098)" class="st3 st5 st6">Crime</text>
<rect x="397.3" y="138.5" class="st4" width="286.7" height="136"/>
<text transform="matrix(1 0 0 1 399.3328 21.3339)" class="st3 st5 st7">Capital:</text>
<text transform="matrix(1 0 0 1 448.3328 21.3339)" class="st8 st5 st7"> </text>
<text transform="matrix(1 0 0 1 451.2328 21.3339)" class="st9 st10 st11">Kuala Lumpur</text>
<text transform="matrix(1 0 0 1 399.3328 39.3339)" class="st3 st5 st7">Population:</text>
<text transform="matrix(1 0 0 1 473.8328 39.3339)" class="st8 st10 st11"> </text>
<text transform="matrix(1 0 0 1 476.9327 39.3339)" class="st9 st10 st11">31,809,660</text>
<text transform="matrix(1 0 0 1 399.3328 57.3337)" class="st3 st5 st7">Language:</text>
<text transform="matrix(1 0 0 1 465.1328 57.3337)" class="st12 st10 st11"> </text>
<text transform="matrix(1 0 0 1 468.1328 57.3337)" class="st9 st10 st11">Bahasa Malaysia (official), English, Chinese</text>
<text transform="matrix(1 0 0 1 399.3328 70.5337)" class="st9 st10 st11">Tamil, Telugu, Malayalam, Panjabi, Thai</text>
<text transform="matrix(1 0 0 1 399.3328 88.5338)" class="st3 st5 st7">Climate:</text>
<text transform="matrix(1 0 0 1 452.7328 88.5338)" class="st8 st13 st11"> </text>
<text transform="matrix(1 0 0 1 455.8328 88.5338)" class="st9 st10 st11">tropical; annual southwest (April to October) and </text>
<text transform="matrix(1 0 0 1 399.3328 101.7338)" class="st9 st10 st11">northeast (October to February) monsoons</text>
<path class="st1" d="M635,309.7H399.3c-1.1,0-2-0.9-2-2l0,0c0-1.1,0.9-2,2-2H635c1.1,0,2,0.9,2,2l0,0
	C636.9,308.8,636,309.7,635,309.7z"/>
<path class="st2" d="M456.1,312.5h-55.6c-1.8,0-3.1-1.8-3.1-3.9v-1.8c0-2.2,1.4-3.9,3.1-3.9h55.6c1.8,0,3.1,1.8,3.1,3.9v1.8
	C459.2,310.7,457.8,312.5,456.1,312.5z"/>
<path class="st1" d="M635,354.9H399.3c-1.1,0-2-0.9-2-2l0,0c0-1.1,0.9-2,2-2H635c1.1,0,2,0.9,2,2l0,0C636.9,354,636,354.9,635,354.9
	z"/>
<path class="st2" d="M562.3,358H403c-3.1,0-5.6-1.8-5.6-3.9V352c0-2.2,2.6-3.9,5.6-3.9h159.4c3.1,0,5.6,1.8,5.6,3.9v2.1
	C567.9,356.2,565.5,358,562.3,358z"/>
<path class="st1" d="M635,400.2H399.3c-1.1,0-2-0.9-2-2l0,0c0-1.1,0.9-2,2-2H635c1.1,0,2,0.9,2,2l0,0
	C636.9,399.3,636,400.2,635,400.2z"/>
<path class="st2" d="M547.5,403.1h-146c-2.3,0-4.1-1.8-4.1-3.9v-1.8c0-2.2,1.9-3.9,4.1-3.9h146c2.3,0,4.1,1.8,4.1,3.9v1.8
	C551.6,401.3,549.8,403.1,547.5,403.1z"/>
<path class="st1" d="M635,446.1H399.3c-1.1,0-2-0.9-2-2l0,0c0-1.1,0.9-2,2-2H635c1.1,0,2,0.9,2,2l0,0
	C636.9,445.2,636,446.1,635,446.1z"/>
<path class="st2" d="M592.7,449.1H401.2c-2.2,0-3.8-1.8-3.8-3.9v-1.8c0-2.2,1.8-3.9,3.8-3.9h191.4c2.2,0,3.8,1.8,3.8,3.9v1.8
	C596.5,447.4,594.7,449.1,592.7,449.1z"/>
<polygon class="st3" points="653.4,296.7 653.4,303.2 644.2,308 653.4,312.2 653.4,318.6 675.3,318.6 675.3,296.7 "/>
<polygon class="st3" points="653.4,341.9 653.4,348.4 644.2,353.2 653.4,357.3 653.4,363.8 675.3,363.8 675.3,341.9 "/>
<polygon class="st3" points="653.4,387.3 653.4,393.7 644.2,398.5 653.4,402.7 653.4,409.2 675.3,409.2 675.3,387.3 "/>
<polygon class="st3" points="653.4,433.2 653.4,439.7 644.2,444.4 653.4,448.6 653.4,455.1 675.3,455.1 675.3,433.2 "/>
<text transform="matrix(1 0 0 1 657.7627 311.5071)" class="st14 st13 st11">26</text>
<text transform="matrix(1 0 0 1 658.7631 356.9701)" class="st14 st13 st11">68</text>
<text transform="matrix(1 0 0 1 657.7626 402.0516)" class="st14 st13 st11">60</text>
<text transform="matrix(1 0 0 1 657.7629 448.093)" class="st14 st13 st11">79</text>
<g id="Malaysia">
	<path class="st25" d="M78,174.5l0.2-0.1l0.2-0.1l0.1-0.1l0.1-0.3l0-0.1l-0.1,0l-0.2,0l-0.1-0.1l-0.1-0.3l-0.2-0.2l-0.2,0.1l0,0.5
		l0.1,0.5L78,174.5z M87.1,201.4l-0.6-1.7l0-0.3l-0.2-0.8l0.1-0.4l0.2-0.4l0-0.4l-0.3-2.8l-0.2-0.8l0-0.4l0.1-0.6l0-0.2l-0.1-0.2
		l-0.3-0.4l-0.1-0.1l-0.1-0.4l-1.1-2l-1.9-3.1l-0.7-1.6l-1.9-3l-1.8-2l-1-0.9l-0.3-0.2l-0.8-0.2l-0.8-0.4l-3.4-2.7l-0.5-0.2
		l-0.2-0.3l-0.2-0.6l-0.4-0.5l-0.4-0.3l-1-0.6l-0.2-0.1l0,0l0,0l-0.7,0.9l-1.4,1.3l-0.7,0.7l-0.1,0.2l0.3,1l0.1,0.1l0.1,0.2l0,0.1
		l-0.1,0.3l0,1l0,0.1l0,0.1l-0.2,0.1l0,0.2l0.1,1.1l0,0.3l0,0.2l-0.1,0l0,0.1l0,0.1l0.3,0.4l0.4,0.3l0.1,0.1l0,0.2l-0.1,0.5
		l-0.2,0.5l0,0.1l-0.1,0.4l0,1.1l0.1,0.3l0,0.1l0,0.1l0,0.1l-0.1,0.3l0,0.1l0,0.1l0.1,0.1l0.3,0.1l0.1,0l0.1,0.1l0.1,0l0.1,0l0.1,0
		l0.1,0l0.1,0l0.1,0.1l0.1,0.1l0.1,0l0.3,0.3l0.1,0.1l0.1,0l0.1,0l0.1,0l0.1,0.1l0.2,0.2l0.1,0.1l0,0l0,0.1l-0.1,0.1l0,0.1l0,0.1
		l0,0.1l0,0.1l-0.1,0l-0.1,0l-0.1,0l0,0l0,0.1l0.2,0.9l0,0.1l0,0.1l-0.1,0l-0.1,0l0,0l0,0l0,0l0,0v0l0,0v0l0,0.1l0,0.2l0.2,0.5
		l0,0.3l0,0.2l0,0.4l0,0.1l0.1,0.1l0.2,0.1l0.1,0l0.1,0l0,0l0,0l0.1,0l0.1,0l0.1,0l0.5,0.2l0.9,0.7l0.1,0l0.1,0l0.1,0.1l0,0.1l0,0.3
		l0,0.2l0.1,0.1l0.1,0.1l0.1,0.1l0.2,0.4l0,0.1l-0.1,0.3l0.4,0.8l0.2,0.2l0.3,0.2l0.3,0.3l0.2,0.1l0.3,0.1l0.1,0l0.1,0l0.3,0l0.3,0
		l0.5-0.1l0.3,0.1l0.4,0.3l0.2,0.2l0,0.1l0.1,0.2l0,0.1l0.1,0.2l0,0.1l0,0.1l-0.1,0.1l0,0.1l0,0.4l0,0.1l0,0.1l0,0l0,0l-0.1,0
		l-0.2,0.1l-0.1,0l-0.1,0.1l0,0.1l0,0.2l0,0.2l0,0.2l0.1,0.3l0.1,0.1l0.1,0.1l0.2,0.1l0.1,0.1l0.1,0.2l0.1,0.1l0.1,0l0.2,0l0.1,0
		l0.1,0l0.1,0l0.1,0l0.2,0l0.1,0l0.1,0l0.1,0l0.1,0.1l0.1,0l0.1,0l0,0l0-0.1l0-0.1l0-0.1l0,0l0.1,0l0,0l0.1,0l0.1,0l0.6,0.6l0,0.1
		l0,0.1l0,0.2l0,0.2l0,0.1l0.1,0l0,0.2l-0.1,0.3l-0.1,0.3l0,0.1l0,0.1l0.1,0.3l0,0.1l0,0l-0.1,0l-0.1,0l-0.2,0l-0.1,0l-0.1,0l-0.1,0
		l-0.1,0.1l-0.2,0.1l-0.1,0.1l0,0.1l-0.1,0.3l-0.1,0.1l-0.2,0.2l-0.1,0.1l0,0.1v0.1l-0.1,0.3l-0.2,0.7l0,0.3l0,0.1l0,0.3l0,0.1
		l0,0.1L76,205l0,0.1v0.1l0.2,0.3l0.1,0.1l0,0l0,0l0.1,0l0.1,0l0.2,0l1-0.4l0.3,0l0.1,0.1l0,0l0.1,0l0.2,0.1l0.5,0.1l0.1,0l0.1,0.1
		l0.1,0.1l0.1,0.1l0.7,0.2l0.1,0l0.1,0l0,0l0,0.1l0,0.1l0,0.1l0,0l0,0l0,0l0.1,0.1l0.1,0.1l0.1,0.1l0.1,0.1l0.4,0.3l0.1,0h0.1
		l0.1-0.1l0.1,0l0.1,0l0,0.1l0,0.1l0,0.1l0,0.1l0.1,0.1l0.1,0l0.1,0l0.1,0l0.1,0l0.1,0l0.1,0l0,0.1l0,0.3l0,0l0,0.1l0.1,0.1l0.1,0.2
		l0.3,0.3l0.1,0.1l0,0.1l0,0.1l0,0.1l0,0.1l0,0.1l0,0.1l0.2,0.2l0.1,0.1l0.2,0.4l0,0.1l0.1,0.1l0.1,0.1l0.1,0l0,0l0-0.1l-0.1-0.4
		l0-0.1l0-0.1l0,0l0,0l0,0l0.1-0.1l0.1-0.1l0-0.1l0-0.2l0-0.1l0-0.1l0-0.1l-0.2-0.5l-0.2-0.3l0,0l0,0l0-0.1l0-0.1v-0.1l0-0.1l0-0.1
		l0-0.1l0-0.1l0-0.2l0-0.1l0,0l0,0l-0.1,0l-0.1-0.1l0,0l0,0l0-0.1l0-0.1l0-0.1l0-0.1l0-0.1l0.1-0.4l0-0.1l0,0l0.1-0.1l0,0l0.1-0.1
		l0-0.1l0-0.1l0-0.1l0-0.2l-0.1-0.3l0-0.1l-0.1-0.4l0-0.1l0,0l0.2,0.1l0.1,0l0,0l0,0l0,0l0.1,0l0.1,0l1.4,0.1l0.3,0.1l0.1,0.1l0.1,0
		l0.1-0.1l0.1-0.2l-0.1-0.5l0-0.2l0.1-0.1l0.3-0.3l0.1-0.1l0.2-0.2l0.3-0.7l0-0.2L87.1,201.4z M73.1,171.8l0.2,0.2l0.1,0l0.1-0.2
		l0-0.1l0-0.1l-0.1-0.2l-0.2,0l-0.1,0.1l-0.2,0l-0.1,0.1l-0.1,0.2l0.1,0.3L73.1,171.8z"/>
	<path class="st25" d="M44.5,227.4l-0.1,0.3l0,0.1l0,0.3l0.2,0.1l0.2-0.1l0-1l-0.1-0.1L44.5,227.4z M45.1,225.6l-0.2-0.2l-0.3,0.1
		l-0.1,0.3l0.1,0.2l0.3-0.1l0.1-0.1L45.1,225.6z M58.2,225.7l-0.1-0.3l0-0.3l0-0.3l0-0.3l0.1-0.6l0-0.1l0-0.1l0-0.1l0-0.1l0-0.1
		l-0.1-0.2l-0.1-0.2l0-0.1l0-0.1l0.1-0.5l0-0.1l0-0.1l0-0.1l-0.1-0.2l-0.1-0.2l-0.1-0.1l0,0l-0.1-0.1l-0.1,0l-0.5-0.1l-0.1,0
		l-0.7-0.3l-0.2,0l-0.1,0l-0.1,0l-1.2-1.6l0.2-0.5l0.2-0.3l0-0.1l0-0.1l-0.1-0.6l0-0.1l0-0.1l-0.1-0.2l0-0.1l0-0.1l0-0.1l0-0.1
		l0-0.1l0.1-0.2l0.3-0.6l0,0l0.1,0l0.1,0l0.1,0l0,0l0,0l0-0.1l0.1-0.6l0-0.2l-0.2-0.3l-0.3-0.4l-0.1-0.2l0-0.1l0-0.1l0,0l-0.1-0.1
		l0,0l-0.1-0.2l-0.1-0.1l-0.6-0.4l-0.4-0.1l-0.1,0l-0.1,0l-0.1,0l-0.1,0l-0.3-0.2l-0.1-0.1l-0.2-0.2l-0.5-0.8l-0.3,0.1l0,0l-0.1,0.1
		l-0.1,0.1l-0.7,0.9l-0.4,0.4l-0.2,0.1l-0.2,0.1l-0.1,0l-0.1,0l-0.1,0l-0.1,0l0,0l0,0l-0.1-0.2l0,0l0,0l-0.1-0.1l-0.1,0l0,0l0,0l0,0
		l0,0l-0.1,0l-0.2,0l0,0l0,0l0,0l-0.1-0.2l0,0l-0.2-0.2l0,0l0,0l-0.1,0l-0.2,0l-0.1,0l-0.1-0.1l-0.1,0l-0.1,0l-0.1-0.1l0,0l0,0l0,0
		l0,0l0-0.1l0-0.1l0-0.1l0-0.1l-0.1-0.1l-0.2-0.1l-0.2,0l-0.3,0l-0.1,0l-0.1,0l0,0l0,0l0,0.1l0,0.1l0,0.1l0,0.1l0,0.1l0,0.1l0,0
		l0.1,0.1l0,0.1l0.1,0.3l0.1,0.3l0,0.3l-0.2,0.3l-0.4,0.2l-0.2,0.1l-0.5,0.1l-0.3,0l-0.1,0l-0.1,0l0,0l0,0l0-0.1l-0.1-0.1l0-0.1
		l0-0.1v-0.1l0-0.1l0-0.1v-0.2l-0.2-0.1l-0.1,0l-0.3,0.1l-0.1,0l-0.1,0l-0.1-0.1l-0.1-0.1l-0.1,0l-0.1,0l-0.1,0.1l-0.1,0l-0.1,0
		l-0.1,0l-0.1-0.2l0-0.1l-0.1-0.1l-0.1,0l0,0l0,0.1l-0.1,0l-0.1,0l0,0l0-0.1l0-0.1l0-0.1l-0.2-0.1l-0.1,0l0,0l0,0.1l0,0.1l0,0.1
		l-0.2,0.1l-0.1,0l-0.1,0l-0.1,0l-0.1,0l-0.1,0.1l0,0l0,0l0-0.1l0-0.1l0-0.1l0-0.1l0,0l0.1,0l0.2,0l0.1,0l0,0l0-0.1l0,0l-0.1-0.1
		l0,0l0-0.1l0-0.1l0-0.1l0,0l0,0l0,0l0,0l0,0l0,0l-0.1,0.1l0,0l-0.1,0.1l-0.1,0l0,0l0-0.1l0-0.1l0-0.1l0-0.1l0-0.2l0-0.1l-0.1,0
		l-0.1,0l-0.2,0l-0.2,0l-0.1,0l-0.1-0.1l0-0.1l-0.1-0.1l-0.1,0l-0.1,0l-0.1,0l-0.1,0.1l0,0l0,0l-0.1,0l0,0l0,0l0,0l0,0.1l0,0.1
		l0,0.1l0,0l-0.1,0l-0.1,0l-0.1,0l-0.1,0l0,0l0-0.1l0-0.1l0-0.1l0-0.1l0.1-0.1l0.1-0.1l0-0.1l0-0.1l-0.1-0.1l-0.5-0.3l0,0l0-0.1
		l0-0.1l0-0.1l0-0.1l0-0.1v-0.1l-0.1-0.1l-0.1,0l-0.1,0l-0.1,0l-0.5,0.1l-0.7,0.1l-0.4,0.1l-0.1,0l0,0l-0.3,0.3l-0.2,0.4l0,0.3
		l0.2,0.2l0.9,0.2l0.3,0.2l0.5,0.6l0.3,0.5l0.1,0.1l0.2,0.1l0.5,0.2l1.4,0.9l0.3,0.4l0.1,0.4l0.2,0.8l0.4,0.5l0.2,0.4l0.1,0.2
		l0.6,0.6l0.9,1.2l0.1,0.3l0.1,0.1l0.2,0.1l0.2,0.1l0.4,0.1l0.1,0.1l0.1,0.2l0.1,0.1l0.6,0.5l0.3,0.3l0.1,0.4l0.4,2.4l0.1,0.2
		l0.5,0.4l0.1,0.2L47,226v0.5l-0.2,0.2l-0.3,0.1l-0.3,0.2l-0.9,1.1l0,0.3l0.4,0.1l-0.3,0.8l0.5,0.3l0.8,0.1l0.8,0.2l0.6,0.5l0.9,1.4
		l0.4,0.5l0.7,0.5l0.4,0.2l0.6,0.1l0.4,0.2l1,0.2l0.3,0.2l0.2,0.2l0.2,0.1l0.1,0v0l0-0.5l0.1-0.2l0.1-0.2l0-0.1l0-0.3l0-0.1l0.2-0.3
		l0.5-1l0-0.8l-0.2-1.1l0-0.3l0-0.2l0,0l0.3,0l0.2,0l0.6,0l0.7,0.1l0.1,0l0.1,0l0.1-0.1l0.2-0.2l0.1-0.1l0.1-0.1l0.1-0.2l0.1-0.4
		l0.1-0.4l0-0.1l0-0.1l0,0l0.3-0.2l0.1-0.1l0-0.1l0-0.1l0-0.1l0-0.2l0-0.3l0.1-0.2l0.1-0.1l0.1-0.1l0.1,0l0.1-0.1l0.1-0.1l0-0.1
		l0-0.1L58.2,225.7z M53.8,227.8l-0.4,0.5l-0.1,0.2l-0.1,0.1l-0.3,0.2l-0.1,0l-0.1,0l-0.1-0.1l-0.1-0.1l0-0.1l0.1-0.2l0.1-0.1l0-0.1
		l0-0.1l0-0.1l-0.1-0.3l0-0.1l0.1-0.1l0-0.1l-0.1-0.1l0-0.1l0-0.1l0.1-0.1l0.3-0.1l0.1-0.1l0.1,0l0.1-0.1l0.1,0.3l0.1,0.1l0.1,0.2
		L53.8,227.8z M54.4,223.3L54.4,223.3l-0.2,0.2l0,0.1l0,0.3l0,0.1l-0.1,0.1l0,0.1l0,0.1l0,0.2l0.1,0.4l0.1,0.7l0,0.1l0,0.1l-0.1,0
		l-0.1,0l-0.1,0l-0.1,0l0,0.1l0,0.1l0,0.1l-0.1,0.1l0,0l0-0.1l0-0.1l0,0l-0.1,0l-0.1,0l-0.5,0.1l-0.1,0l-0.1,0l-0.1,0l-0.1-0.1
		l0-0.1l0-0.1l-0.1-0.1l0-0.1l0-0.1l0-0.1l0.1-0.1l0,0l0-0.1l0-0.1l0-0.1l0,0l0,0l0,0l0,0l0,0l0-0.1l0-0.1l0-0.1l-0.1-0.1l-0.2-0.1
		l-0.1,0l-0.1-0.1l0-0.1l-0.1-0.1l0-0.1l-0.1-0.7l0-0.1l0.3-0.5l0.1-0.1l0,0l0,0l0.2-0.1l0.1-0.1l0,0l0,0l0.1,0l0.1,0l0.2,0.2
		l0.4,0.2l0.2,0l0.1,0l0.1-0.1l0.2-0.1l0.1,0l0.1,0l0,0.1l0.1,0.1l0.1,0.2l0.1,0.2l0,0.1V223.3L54.4,223.3z M45.4,226.9l0.3-0.2
		l0.4-0.1l0.3-0.2l0-0.4l0-0.2l0-0.1l0-0.2l-0.2-0.1l-0.3,0.1l-0.3,0.4l-0.5,1.1l0,0.2l0,0.1l0.1,0l0.1-0.1L45.4,226.9z"/>
	<path class="st25" d="M234.8,235.8l-0.1,0.8l0.1,0.4l0.4,0.2l0.2,0.2l0.3,0.8l0.2,0.2l0.1-0.2l0.1-0.2l0.2-0.1l0.2,0.1l0.2,0.1
		l0.1-0.1l0-0.2l0-0.1l-0.4-1.1l-0.2-1.4l0-3.3l-0.2-0.8l-0.4-0.6l-0.7-0.2l-0.3,0.6l0,0.9l0.4,3.1L234.8,235.8z M317.1,201.5
		l-0.1-0.2l-0.3-0.3l-0.2-0.2l-0.2-0.1l-0.1,0l-0.3-0.1l-0.2,0l-0.1-0.1l-0.1-0.1l-0.1-0.2l0-0.3l0-0.4l0-0.1l-0.1-0.2l-0.3-0.5
		l-0.1-0.3l-0.1-1.4l0-0.2l0-0.1l0.6-1.1l0.1-0.2l0-0.2l0.1-0.7l0.1-0.4l0.1-0.2l0.1-0.2l0.4-0.4l0.1-0.2l0.1-0.2l0.3-0.9l0-0.2
		l0-0.2l-0.4-1.8l-0.1-0.2l-0.1-0.1l-0.2-0.1l-0.3,0l-0.5,0.1l-0.9,0.1l-1.7-0.2l0,0l-0.3,0.2l-0.1,0.1l-0.6,0.6l-0.2,0.2l-0.3,0.1
		l-0.4,0l-0.3-0.1l-0.2-0.4l-0.1-0.1l-0.2-0.1l-0.2,0l-0.4,0l-0.1,0l-0.1-0.1l-0.2-0.3l-0.3,0l-0.2,0.2l-0.2,0.6l-0.2,0.1l-0.3,0
		l-0.3,0l0,0.4l0.2,0.2l0.3,0.1l0.2,0.2l0.5,0.7l1.2,3.6l0.1,0.4l0,0.3l-0.2,0.7l0,0.7l0.1,0.8l0.2,0.7l0.4,0.6l0.7,0.6l0.3,0.4
		l0,0.4l-0.3,0.3l-0.4,0l-0.4-0.2l-0.3-0.2l-0.2-0.1l-0.4,0l-0.2-0.1l-0.3-0.2l-0.2-0.1l-0.6,0.1l-0.4-0.1l-1.1-0.4l-0.2-0.2
		l-0.2-0.3l-0.2-1.9l-0.2-0.7l-0.6-1.5l-0.2-0.7l-0.1-1.5l0.1-1.5l0,0l-0.1-0.7l0-0.7l-0.1-0.4l-0.1,0.2l-0.2,0.1l-0.2,0.1l-0.2,0.1
		l-0.4,0.4l-0.1,0.3l0,0.3l-0.1,0.3l-0.3,0.2l-0.3,0l-0.3-0.1l-0.3,0l-0.4,0.1l-0.3,0.2l-0.6,0.6l-0.3,0.2l-0.7,0.3l-0.2,0.1l0,0
		l0,0.3l0.1,0.3l0.4,0.7l0.1,0.4l0.1,0.4l0.1,2.2l0.1,0.7l0.3,0.5l0.4,0.1l0.3,0l0.1,0.1l0,0.5l-0.2,0.7l-0.1,0.3l-0.2,0.3l-0.5,0.4
		l-0.1,0.1l-0.1,0.2l0,0.4l0.6-0.2l0.1,0.3l-0.1,0.3l-0.4,0.6l-0.1,0.4l-0.1,0.8l-0.1,0.3l-1.7,1.6l-0.9,0.5l-0.8-0.1l-0.1-0.1
		l-0.1-0.5l-0.1-0.2l-0.1-0.1l-0.4-0.3l-1.2-1.1l-0.3-0.4l-0.2-0.4l-0.4-1.2l-0.2-0.2l-0.3,0l-0.8,0.1l-0.8-0.2l-0.6,0l-0.1-0.2
		l0-0.3l0.1-0.1l0.3-0.2l0.1-0.2l-0.1-0.8l-0.3-0.4v-0.5l-0.1-0.5l-0.1-0.2l-0.2-0.2l-0.1-0.1l0-0.1l0-0.1l-0.1-0.1l-0.3,0l-0.1-0.1
		l-0.1-0.4l-0.2-0.1l-0.5-0.2l-0.6-0.5l-0.4-0.2l-1-0.2l-1.2-0.6l-0.4,0.1l-0.1,0.3l0.4,1.8l0,0.9l-0.2,0.8l-0.4,0.6l0.1,0.7
		l-0.4,0.9l-4,5.1l-4.6,3.9l-0.8,0.4l-0.4,0.3l-0.2,0.3l-0.1,0.4l-0.2,0.4l-0.4,0.8l-0.9,1l-0.1,0.2l-0.1,0.1l-0.4,0.3l-0.1,0.2
		l0,0.4l0,0.2l-0.1,0.1l-0.3,0.5l-1.5,1.3l-0.6,1l-0.1,0.2l-0.2,0.1l-0.9,0.8l-0.5,0.3l-0.1,0.2l0.2,0.4l-0.4,0.7l-1,1.1l-0.6,0.3
		l-3.3,1l-0.2,0l-1.2,0.5l-2.9,0.6l-5.2,1.4l-5.4,1.4l-2.9,0.1l-3.6,0.7l-0.6,0.3l-2.1,1.3l-1.4,1l-0.2,0.2l-0.1,0.3l-0.1,0.7
		l-0.3,1.2l0,0.5l0.1,0.3l0.2,0.2l0.2,0.2l0.3,0.2l0.7,0.2l0.4,0.2l-0.1,0.1l0,0l0,0l-0.1,0l-0.4,0.3l-0.5,0l-0.5-0.1l-0.6,0
		l0.1,0.3l0.2,0.8l0.2,0.2l0.6,0.6l0.4,0.4l0.2,0.3l-0.4-0.2l-0.3-0.3l-0.1,0l-0.6,0.1l-0.2,0.1l-0.6,0.4l-0.2,0l-0.1-0.1l-0.1-0.1
		l-0.1-0.1l-0.2-0.1l-0.5-0.6l-0.2-0.2l-0.6-0.2l-0.2-0.2l-0.2-0.3l-0.5,0.4l-0.2,0.5l-0.2,1.3l-0.2,0.9l0,0.3l0.2,0.2l0.3,0.1
		l0.4,0.1l0.2,0.4L233,241l-0.4,0.2l-0.3,0.3l-0.1,0.3l0,0.4l0.1,0.2l0.3,0l1.4-0.2l0.4,0.1l0.5,0.3l0.2,0.1l0.2,0l0.2-0.5l0.2-0.2
		l0.2-0.1l0.2,0.2l-0.1,0.1l-0.4,0.5l-0.1,0.1l-0.3,0.2l-0.2,0l-0.7-0.1l-0.4-0.1l-0.3,0l-0.3,0.2l0,0.4l0.5,0.4l-0.5,0l-0.4-0.1
		l-0.2,0l-0.1,0.1l0,0.4l-0.5,1.7l-0.6,1.2l-0.4,0.6l-0.2,0.3l-0.1,0.4l0.1,0.2l0.3,0.2l0,0.1l-0.1,0.1l-0.4,0.1l-0.1,0.1l0,0.3
		l0.1,0.3l0.4,0.7l0.1,0.1l0.1,0l0.3,0.1l0.1,0.1l0,0.1l0.2,0.3l0,0.2l0.1,0l0.1,0l0.4,0.1l0.2,0l0.2,0l0.3,0.3l0.2,0.1l0.4,0.1
		l-0.4,0.1l-0.3-0.2l-0.3-0.2l-0.2,0l-0.4,0.2l-0.3-0.3l-0.2-0.4l-0.2-0.3l-0.4-0.1l-0.4,0l-1.1,0.2l-0.2,0.2l-0.2,0.7l-0.3,0.7
		l0,0.2l0,0.6l0.1,0.2l0.4,0.3l0.3,0.9l0.3,0.3l0.8,0.3l0.3,0.2l0.3,0.3l0.3,0.2l0.4,0.1l0.4,0l0.7-0.3l0.2-0.1l0.3,0l0.5,0.2l0.3,0
		l0.1,0.1l0.2,0.5l0.1,0.1l0.3,0l0.5,0.2l0.3,0l-0.8,0.4l-0.7-0.3l-0.7-0.6l-0.6-0.2l-0.4,0.1l-0.6,0.3l-0.5,0.1l-0.2-0.1l-1.1-0.6
		l-0.7-0.5l-1.4-1.4l-0.8-0.5l-1.6-0.7l-0.9-0.1l-0.5,0.4l0,0.3l0.1,0.3l0,0.4l-0.2,0.4l-0.4,0.3l-0.3,0.2l-0.4,0.1l-0.5,0v-0.1
		l0.7-0.5l0.3-0.3l0.1-0.5l-0.2-0.4l-0.5-0.3l-1.1-0.3l-0.8-0.4l-0.3-0.1l-0.2,0l-0.4,0.2l-0.2,0l-0.2-0.1l-0.1-0.2l-0.1-0.2
		l-0.2-0.2l-0.3-0.1l-0.3,0l-0.5,0.2l0.1-0.2l0.3-0.3l0.1-0.1l0-0.4l0.1-0.3l0.2-0.3l0.2-0.3l-0.2-0.3l-0.3,0l-0.3,0.2l-0.6,0.2
		l-0.2,0.4l-0.2,0.1l-0.4,0l-0.2,0l-0.1-0.1l-0.1-0.1l-0.1-0.1l-0.1-0.1l-0.1-0.1l0-0.1l0-0.3l0-0.1l-0.1-0.1l-0.2-0.2l-0.1-0.5
		l-0.3-0.1l-0.3,0.2l-0.2,0.4l0,0.2l0,0.6l0,0.1l0.1,0.2l0,0.1l0,0.1l-0.2,0.2l-0.1,0.3l-0.1,0l-0.5-0.5l-0.1-0.1l-0.1,0l-0.2,0.1
		l-0.1,0.1l-0.3,0.2l-0.1,0.1l-0.2-0.1l-0.4-0.3l-0.3-0.1l-2.4,0l-0.4,0l-0.3,0.1l-0.2,0l-0.9,0l-0.3-0.1l-0.2-0.3L208,250l-0.2-0.3
		l-0.3-0.2l-0.8-0.3l-0.7-0.4l-1.2-0.5l-0.4-0.3l-0.3-0.3l-0.6-0.8l-0.2-0.4l0-0.3l0.1-0.3l0.1-0.3l0-0.4l-0.2-0.8l0-0.4l-0.1-0.3
		l0,0l-0.4,1l-0.5,0.9l-0.3,0.4l-0.2,0.2l-0.7,0.6l-0.2,0.2l0,0.3l0.1,0.7l0,0.1l0,0.1l0.1,0.2l0.1,0.2l0.2,0.2l0.2,0.2l0.2,0.1
		l0.8,0l0.3,0.1l0.1,0.4l-0.1,1.5l0,0.9l0.1,0.4l0.2,0.4l0.4,0.5l1.7,1.4l0.1,0.2l0,0.5l0.1,0l0.4-0.2l0.1,0.1l0.3,0.8l0.3,0.3
		l0.4,0l0.4,0l0.4,0l0.3,0.2l0.2,0.3l0.4,1.1l0.2,0.4l0.2,0.2l0.7,0.3l0.4,0.3l0.4,0.7l0.4,0.3l0.4,0.1l1.1,0.1l0.3,0.2l0.3,0.4
		l0.4,0.8l0.9,1.4l0.1,0.5l0,0.4l0.2,0.1l0.3-0.1l0.3,0l1,0.2l0.2,0.1l0.3,0.3l0.8,1.1l0.7,0.6l0.9,0.4l0.9,0.1l0.8-0.4l0.2-0.2
		l0.1-0.1l0.1-0.1l0.2,0l0.1,0.1l0.1,0.1l0.2,0.1l0.3,0l0.2-0.1l0.4-0.3l0.2-0.1h0.1l0.2,0.1l0.1,0l0.4-0.1l0-0.1l0.2-0.1l0.1,0
		l0.2,0.2l0.1,0l0.1-0.1l0-0.2l0-0.3l0.2-0.3l1.1-0.9l0.5-0.3l0.6-0.1l1.2,0l4.2-1.1l0.4,0l2.5,1.1l0.4,0.1l0.4,0l0.4-0.1l0.7-0.2
		l0.3,0l0.2,0.2l0.1,0.3l0.1,0.3l0.2,0.4l0.2-0.1l0.4-0.6l1.6-0.6l0.3,0l0.3,0l0.5,0.1l1,0.4l0.5,0.2l1.1-0.3l1.6-2l1.2-0.4l1.5,0
		l0.5-0.1l0.3-0.1l0.1-0.2l1-2.8l0.6-1.2l0.1-0.2l0-0.2l-0.1-0.2l-0.4,0l-0.1-0.2l0.1-0.5l0.3-0.3l2.2-1l0.5-0.1l1.2-0.1l0.3-0.1
		l0.3-0.2l0.3-0.3l0.3-0.2l0.5-0.1l5.6,0.3l0.5,0.1l0.1,0l0.2-0.1l0.1-0.2l0.1-0.2l0.2-0.2l0.3-0.1l0.3,0l0.3,0.1l0.4,0.1l0.9,0
		l0.3,0l0.5,0.2l0.3,0.2l0.2,0.3l0,0.4l-0.1,0.4l-0.2,0.4l-0.3,0.3l-0.6,0.4l-0.1,0.2l0.1,0.1l0.3,0l0.7-0.2l0.7-0.1l0.7,0.1
		l0.7,0.3l0.6,0.5l0.3,0.1l0.8,0.1l1.1,0.2l0.9,0.3l1.4,1.1l0.9,0l0.7-0.3l0.4-0.1l0.4,0l0.4,0.2l1,1.1l0.5,0.3l0.5-0.1l3-2l1.1-1.4
		l0.4-0.4l0.3-0.1l2.7-0.4l0.8,0l0.7,0.2l0.2,0.2l0.2,0.2l0.2,0.2l0.2,0.1l0.2-0.1l0.4-0.3l0,0l2.8-1.2l0.4-0.1l0.4,0.1l0.4,0.2
		l1.5,1.1l0.4,0.1l0.4-0.1l0.3-0.3l0.1-0.4l0-0.4l-0.1-0.4v-0.5l0.2-0.3l0.7-0.5l0.3-0.3l0.5-0.8l0.4-1l0.2-1.3l0-0.6l-0.1-0.2
		l-0.1-0.1l0-0.1l0.1-0.2l0.1-0.2l0.2-0.2l0.2-0.1l0.2-0.1l1-0.1l1.1-0.4l0.2-0.2l0-0.4l-0.1-0.4v-0.3l0.1-0.3l0.2-0.4l0-0.2l0-0.3
		l-0.1-0.2l-0.2-0.1l-0.4,0.1l-0.3,0.1l-0.2,0l-0.2-0.4l0-0.2l0-0.6l0-0.2l-0.2-0.3l-0.1-0.2l0-0.4l0.2-1l0.3-0.7l0.6-0.3l1.5-0.2
		l0.5-0.2l0.1-0.2l-0.1-0.3l0-0.4l0.1-0.4l0.2-0.1l0.7,0.1l0.4-0.2l0.8-0.7l0.3-0.1l0.3-0.2l0.7-0.8l0.4-0.3l0.9-0.1l0.4-0.1
		l0.3-0.4l0-0.3l-0.2-0.4l-0.3-0.4l-0.3-0.3l-0.2-0.1l-0.2-0.1l-0.2-0.1l-0.2,0l-0.2,0.1l-0.4,0.2l-0.2,0l-0.3-0.3l0-0.4l0.2-0.4
		l0.1-0.4l-0.1-0.2l-0.2-0.4l0-0.2l0.1-0.2l0.2-0.1l0.2,0l0.2-0.1l0.2-0.5l-0.1-0.4l-0.5-0.6l-0.1-0.3l0-0.1l0.2-0.1l0.3-0.2
		l0.1-0.2l0.1-0.2l0-0.2l0.1-0.2l0.2-0.4l0.3-0.3l1.1-0.7l0.2-0.2l0.3-0.7l0.3-0.5l0.3,0.1l0.5,0.7l0.5,0.3l0.6-0.1l1.2-0.5l0.8-0.1
		l0.3-0.1l0.2-0.4l0.1-0.8l0.1-0.3l0.7-0.9l0-0.1l-0.3-0.1l-0.3-0.4l0-0.3l0.7-2.8l0.3-0.9l0.4-0.4l0.2,0l0.2,0.1l0.2,0l0.2-0.1
		l0.1-0.2l0-0.2l-0.2-0.4l-0.3-0.6l-0.1-0.2l0-0.2l0-0.4l0-0.2l-0.5-1.1l-0.1-0.4l0-0.7l0.1-0.7l0.7-2.2l0-0.6l-0.3-0.3l-0.4-0.2
		l-0.3-0.3l0-0.4l0.1-0.1l0.7-0.4l0.2-0.2l0.4-0.7l0.2-0.8l0.2-1.7l0.1-0.3l0,0l-0.1-0.2l-0.1-0.2l-0.1-0.3l0-0.4l0-0.3l0.1-0.2
		l0.6-0.7l0.1-0.2l0.1-0.4l0-0.2L317.1,201.5z"/>
	<path class="st25" d="M361.2,167.8l0.1,0l0.1-0.1l-0.1-0.1l-0.2,0.1l-0.1,0.1L361.2,167.8z M362.4,165.4L362.4,165.4L362.4,165.4
		L362.4,165.4L362.4,165.4z M362.1,166.6L362.1,166.6L362.1,166.6L362.1,166.6z M362,167L362,167L362,167L362,167z M361.5,167.5
		L361.5,167.5L361.5,167.5L361.5,167.5L361.5,167.5z M382.2,180.5l0.2-0.1l0.3-0.1l0.1-0.1l0,0l-0.3-0.1l-0.3,0l-0.3,0.2l0.2,0.2
		L382.2,180.5z M369.2,151.2l0.2,0.1l0.6,0.1l0.5,0.1l0.3,0l0.2-0.2l-0.2-0.5l0-0.2l0.3,0.1l0.1-0.1l-0.2-0.4l-0.1-0.2l-0.3-0.1
		l-0.2,0l-0.2,0.1l-0.2,0.1l-0.3-0.1l-0.3,0.1l-0.2,0.1l-0.1,0.2l0,0.2L369.2,151.2z M361.1,164.1L361.1,164.1L361.1,164.1
		L361.1,164.1L361.1,164.1L361.1,164.1z M364.3,173.3l0.2,0l0.1,0l0.1,0l0.3-0.1l0.1,0l0.2-0.1l0.1-0.2l-0.1-0.2l-0.3-0.1l-0.5,0
		l-0.2,0.1l-0.2,0.1l-0.1,0.2l0,0.1L364.3,173.3z M363,166.8L363,166.8L363,166.8L363,166.8L363,166.8L363,166.8L363,166.8
		L363,166.8L363,166.8z M362.5,164.4l-0.2,0l-0.1,0.2l0,0L362.5,164.4z M375.6,195.8l-0.2-0.1l-0.1,0l-0.1,0l-0.1,0l0,0l-0.1,0
		l-0.3,0.2l0,0.3l0.2-0.2l0.2-0.2l0.1-0.1l0.2,0.1l0.2,0.1l0.2,0l-0.1-0.1L375.6,195.8z M385.1,182.7l0-0.4l-0.1-0.3l-0.2-0.2
		l-0.4-0.4l-0.4-0.6l-0.3-0.3l-0.3-0.1l-0.5,0.1l-1.5,0.7l-0.6,0l-0.9-0.5l-0.5,0l-0.2,0.2l0,0.2l0.1,0.2l-0.1,0.3l-0.2,0.1l-0.3,0
		l-0.3-0.1l-0.2-0.2l0.3-0.2l-0.1-0.4l-0.3-0.4L378,180l-0.3-0.1l-0.9-0.7l0,0.2l0,0.1l-0.1,0.1l-0.1,0.1l-0.1-0.5l-0.2-0.4
		l-0.4-0.2l-0.5-0.1l-0.3-0.1l-0.4-0.3l-0.9-1.1l-0.4-0.3l-0.4,0l-0.5,0.3l-0.1,0.2l0,0.5l-0.1,0.2l-0.1,0.2l-0.1,0.2l-0.2,0.5h-0.1
		l-0.1-0.4l0.1-0.4l0.1-0.4l0.2-1.1l0.1-0.1l0.1-0.1l0.1-0.1l0.1-0.2l-0.1-0.2l-0.3-0.2l-0.3-0.2l-0.3-0.2l-0.7-0.5l-1.9-1.1
		l-0.4-0.1l-0.1-0.1l-0.2-0.1l-0.2-0.1l-0.2,0.1l-0.2,0.2l-0.1,0.1l-0.1,0l-1-0.5l-0.4-0.1l-0.8,0.3l-0.8,0.1l-0.3,0.2l0,0.2
		l0.1,0.3l-0.1,0.2l-0.1,0.1l-0.1,0.1l-0.1,0.3l0.1,0.2l0,0.2l-0.1,0.2l-0.2,0.1l-0.1-0.1l-0.2-0.3l-0.2-0.1l-0.2,0l-0.2,0.1l-0.1,0
		l-0.2-0.1l-0.1-0.2l-0.2,0l-0.3,0.1l-0.8,0.3l-0.3,0.1l-0.2,0l-0.1,0l-0.1,0l-0.2-0.1l-0.6-1.5l-0.1-0.1l-0.2-0.1l0-0.2l0.2-0.2
		l0.3-0.1l1.2,0.1l0.3-0.1l0.3,0.1l0.4,0l0.4-0.1l0.3-0.2l0.6-0.7l0-0.1l-0.1-0.1l-0.8-1.1l-0.1-0.4l0-0.4l0-0.2L362,170l0-0.2
		l0-0.2l0-0.2l-0.6-0.7l-0.3-0.1l-0.1,0.1l-0.1,0.1l-0.3,0.2l-0.6,0.8l-0.5,0.4l-0.3,0.2l-0.1,0.2l-0.2,0.1l-0.9,0.2l-0.3,0l-0.3,0
		l-0.2-0.1l-0.2,0l-0.2,0.1l0.2,0.5l-0.1,0.2l-0.3,0l-0.9-0.1l-1.3,0.2l-1.3,0l-0.5,0.1l-1.1,0.5l-0.3,0.1l0.5-0.5l2.4-0.8l0.7-0.4
		l0.3-0.3l0.1-0.3l-0.1-0.5l-0.3-0.1l-0.3-0.1l-0.1-0.3l0.1-0.2l0.1-0.1l0.2-0.1l0.2-0.2l0.1-0.2l0-0.2l0-0.1l0-0.2l-0.1-0.1
		l-0.3-0.1L354,167l-0.4-0.5l-0.1-0.3l0.2-0.3l0.5-0.5l0.3-0.2l0.4-0.1l0.6,0.1l0.3,0l0.1-0.3l0.2-1.2l-0.2-0.5l0.1-0.2l0.1-0.2
		l0.1-0.2l0-0.1l-0.2-0.3l-0.1-0.2l0-0.2l0-0.2l0-0.1l-0.1-0.1l-0.1-0.1l-0.1,0l-0.1,0.1l-0.1,0.2h-0.1l-0.2-0.4l-0.2-0.3l-0.5-0.5
		l-0.2-0.1l-0.2,0l-0.3,0.1l-0.2,0l-0.2-0.1l-0.3-0.3l-0.1,0l-0.2-0.1l-0.1,0l0-0.1l0-0.1l0-0.1l0.1,0l-0.4-0.4l-0.1,0l0-0.5
		l-0.1-0.3l-0.2,0l-0.3,0.4l-0.5,0.8l-0.2,0.2l-0.3,0.1l-0.3-0.1l-0.3-0.2l-0.5-0.4l-0.4-0.5l-0.3-0.2l-0.3-0.1l-0.8,0l-0.2-0.1
		l-0.2-0.4l-0.1-0.3l-0.1-1.2l-0.1-0.3l-0.7-0.9l-0.1-0.3l0-0.4l0.1-0.3l0.3-0.1l0.1-0.2l0.1-0.9l0-0.3l-0.1-0.1l-0.1-0.1l-1-0.6
		l-0.1-0.1l-0.2,0l-0.5-0.2L345,151l-0.1,0l-0.3,0.2l-0.2,0.1l-0.1,0l-0.2-0.1l-0.2-0.1l-0.2,0l-0.1,0.1l0,0.2l0,0.2l0.1,0.1
		l0.1,0.1l-0.1,0.1l-0.1,0.1l-0.2,0.1l-0.2,0l-0.2-0.1l-0.2,0l-0.2,0.2l0,0.4l0.4,0.8l0.1,0.4l-0.1,0.3l-0.7,0.7l-0.3,0.5l-0.1,0.1
		l-0.1,0l-0.1,0.1l-0.1,0.7l-0.1,0.2L341,157l-0.8,0.8l-0.3,0.1l-0.2,0.1l-0.2,0.3l-0.3,0.3l-0.4,0.2l-0.8-0.2l-0.1-0.7l0.3-0.8
		l0.3-0.7l0.6-0.9l0.2-0.5l0.1-0.7l-0.1-0.4l-0.3-0.2l-0.3-0.1l-0.2-0.2l0-0.1l0.1-0.6l0.1-0.1l0.2,0.1l0.4,0.2l-0.3-1.4l-0.1-0.2
		l-0.8-0.5l-0.2-0.4l-0.1-0.1l-0.2,0l-0.2,0.1l-0.2,0.2l-0.1,0.2l-0.2,0.3l-0.1,0.1l-0.1,0.1l0,0.2l0,0.4l-0.2,0.7l-0.2,0.3
		l-0.5,0.3l-0.1,0.3l0,0.7l-0.1,0.2l-0.2,0.3l-0.1,0.1l0,0.2l0,0.6l0,0.5l-0.1,0.3l-0.2,0.3l-0.3,0.3l-1.2,1.6l-0.3,0.3l-0.3,0.1
		l-0.1,0.3l-0.1,0.4l0,0.3l-0.1,0.4l-0.3,0.2l-0.4,0.2l-0.3,0.3l-0.3,0.3l-1.7,1.3l-0.2,0.2l-0.1,0.2l-0.1,0.1l-0.2,0.6l0,0.1l0,0.1
		l-0.2,0.1l-0.4,0l-0.1,0l-0.1,0.1l-0.3,0.3l-0.5,0.3v0.1l0.5-0.1l0.4-0.2l0.2,0.1l0.1,0.6l-0.1,0.2l-0.2,0l-0.3-0.1l-0.2-0.1
		l-0.3,0l-0.2,0.1l-0.4,0.4l-0.9,1.3l-0.3,0.2l-0.6,0.2l-0.2,0.4l0.1,0.2l0.4-0.1l0.3,0.6l-0.3,0.8l-1.2,1.9l-0.1,0.4l-0.1,0.9
		l-0.1,0.4l-0.3,0.3l-1.7,0.9l-0.3,0.2l-0.2,0.3l-0.1,0.4l-0.1,0.8l-0.2,0.8l-0.4,0.8l-0.5,0.7l-0.6,0.5l-0.5,0.2l-0.5,0l-1.7-0.1
		l-0.4-0.2l-0.6-0.6l-0.1,0.2l-0.1,0.5l-0.1,0.2l-0.4-0.5l0.7-1.2l-0.3-0.4l-0.4,0.4l-0.7,1.4l-1.3,1l-0.2,0.3l-0.2,0.4l-1,0.6
		l-0.2,0.2l-0.1,0.1l-0.1,0.2l-0.1,0.3l-0.1,0.6l-0.1,0.3l-0.1,0.3l0.1,0.2l0.4-0.3l0.1,0l0.2,0l0,0.1l0,0.2l0,0.2l1.7,1.5l0.6,0.3
		l0.7,0l0.7-0.3l0.1,0.3l-0.1,0.1l-0.2,0.1l-0.2,0.2l-0.2,0.4l0,0.2l0,0.7l-0.1,0.8l-0.1,0.3l-0.2,0.2l-0.3,0.2l-0.4,0.2l-0.4,0.1
		l-0.2,0.1l-0.6,0.8l-0.5,0.4l0,0l1.7,0.2l0.9-0.1l0.5-0.1l0.3,0l0.2,0.1l0.1,0.1l0.1,0.2l0.4,1.8l0,0.2l0,0.2l-0.3,0.9l-0.1,0.2
		l-0.1,0.2l-0.4,0.4l-0.1,0.2l-0.1,0.2l-0.1,0.4l-0.1,0.7l0,0.2l-0.1,0.2l-0.6,1.1l0,0.1l0,0.2l0.1,1.4l0.1,0.3l0.3,0.5l0.1,0.2
		l0,0.1l0,0.4l0,0.3l0.1,0.2l0.1,0.1l0.1,0.1l0.2,0l0.3,0.1l0.1,0l0.2,0.1l0.2,0.2l0.3,0.3l0.1,0.2l0,0.2l0,0.2l-0.1,0.4l-0.1,0.2
		l-0.6,0.7l-0.1,0.2l0,0.3l0,0.4l0.1,0.3l0.1,0.2l0.1,0.2l0,0l0.1-0.4l0.2-0.2l0.4-0.1l0.1-0.1l0.1-0.2l0.8-0.7l0.1,0.1l0.1,0.2
		l0.2,0.1l0.3-0.1l0.1-0.2l0.1-0.2l0.7-0.6l0.1-0.6l0-0.6l0.2-0.6l0.2-0.2l0.2,0l0.2,0.2l0.1,0.3l0.2,0.3l0.4,0.1l0.8,0.1l0.5,0.2
		l0.2,0.1l0.1,0.1l0.1,0.3l0.1,0.3l0.2,0.2l0.3,0.1l0.2-0.1l0.9-0.9l0.3-0.2l0.2-0.2l0.1-0.2l0.2-0.4l0.2,0.1l0.2,0l0.4,0l0.8,0.2
		l0.3,0l0.5-0.2l0.5-0.3l0.5-0.1l0.5,0.5l0.1,0l0.1,0l0.1,0l0.1,0.1l0.1,0.2l0.5,0.8l0.2,0.1l0.2,0l0.2-0.1l0.5-0.5l0.2,0l0.2,0.1
		l0.3-0.1l0.2-0.1l0-0.1l-0.1-0.1l0-0.2l0.1-0.3l0.4-0.4l0.1-0.2l0.2,0l0.8,1.2l0.3,0l0.5-0.2l0.5,0.2l0.4,0l0.4-0.1l0.6-0.5l0.3,0
		l0.7,0.5l0.7,0.2l1.5-0.3l0.8,0l1.1,0.3l3.5-0.1l0.2-0.1l0.3-0.3l0.2-0.1l0.3,0l0.1,0.1l0.1,0.2l0.2,0.2l0.7,0.5l1.5,0.8l1.1,1.1
		l0.4,0.3l0.5,0.1l0.6,0.1l0.3,0l0.5,0l0.3,0.1l0.2,0.2l0.8-0.3l0.2,0l0.2,0l-0.1-0.2l-0.3-0.3l-0.1-0.1l0.1-0.2l0.1-0.1l0.1-0.2
		l0.1-0.1l0.4-0.3l0.2-0.2l0.1-0.2l0-0.2l-0.3-0.3l-0.1-0.2V201l-0.1-0.2l-0.4-0.2l-0.1-0.2l0.2-0.2l0.4-0.3l0.4-0.3l0.3,0l0.3,0.4
		l0.2,0.4l0.2,0.3l0.4,0.3l0.2,0.1l0.5,0.1l0.6,0.2l0.3,0l0.1,0.1l0.1,0.4l0.1,0.1l0.2,0l0.2,0.1l0.3,0.2l0.7,0.7l0.2,0.1l0.3,0
		l1.2,0.3l0.4,0l2.5-1.3l0.4-0.1l1.5-0.1l1.7-0.5l0.1-0.1l0.2-0.3l0.3,0.2l0.4,0.1l0.8,0l0.4-0.1l0.6-0.2l0.3,0l0.7,0l0.3-0.1
		l0.3-0.2l0.2-0.2l0.2-0.2l0.1-0.3l-0.1-0.3l0.3,0.1l0.2,0.1l0.2,0l0.2-0.1l0.2-0.2l0-0.1l-0.7-0.8l-0.2-0.4l0.1-0.3l-0.2-0.1
		l-0.5-0.1l-0.2-0.1l-0.5,0.4l-0.3,0.2l-0.2-0.1l-0.1-0.2l-0.2-0.2l-0.2-0.2l0.1-0.2l0.2-0.2l0.1-0.2l0-0.2l-0.2-0.3l-0.3-0.2
		l-0.3-0.1l-0.3,0.1l0,0.3l-0.3-0.1l-0.1-0.1l-0.1-0.1l-0.1-0.1l-0.2-0.3l-0.1-0.1l-0.1-0.1l-0.4-0.1l-0.2,0l-0.2-0.1l-0.2-0.1
		l-0.2-0.2l-0.7-0.5l-0.6-0.5l-0.5-0.6l-0.5-0.7l-0.2-0.5l-0.1-0.2l-0.1-0.1l-0.5-0.3l-0.1,0l-0.1-0.1l0-0.2l0.1-0.2l0.1-0.2
		l0.3-0.2l1.1-1.2l0.7-0.4l0.7,0.2l0-0.2l0-0.2l0.1-0.1l0.2,0.1l0.6-0.5l0.4-0.3l0.2,0.1l0.2-0.1l0.4,0.1l0.6,0.3l0.6,0.8l0.3,0.6
		l0.1,0.1l0.2,0.2l0.2,0l0.4-0.2l0.6-0.4l0.2-0.1l0.2,0l0.4,0.1l0.5,0.1l0.6,0.3l0.3,0.1l0.4,0l0.5-0.1l0.4-0.2l0.7-0.4l3.5-1
		l3.5-1.2l0.7-0.4l0.9-1l0.4-0.4l0-0.5l-0.1-0.9l0-0.3L385.1,182.7z M366.9,189.2L366.9,189.2l-0.1,0.1l-0.1,0.1l-0.1,0.2l0.1,0.1
		l0.1,0l0.1,0l0.1,0l0.9-0.4l0.1-0.1l-0.1-0.1l-0.3,0l-0.1,0l0-0.1l0,0l-0.1,0l-0.1,0.1l0-0.1l0-0.1l0-0.1l-0.2,0l-0.2,0.1l-0.1,0.1
		l0,0.1l0,0.1l0.1,0.1l-0.2,0.1l0,0L366.9,189.2L366.9,189.2z M348.9,157.7l0.5,0.2l0.6,0.1l0.6,0l0.5-0.1l0.7-0.6l0.1-0.6l-0.3-0.6
		l-0.5-0.6l-0.3,0.2l-0.8,0.1l-0.2,0.2l0.1,0.3l0.7,0l0.2,0.2l-0.1,0.3l-0.2,0.2L350,157l-1,0l-0.2,0.1l-0.2,0.1l0,0.2l0.1,0.2
		L348.9,157.7z M360.4,173.9l0.1-0.1l-0.4,0H360l-0.1,0l-0.2,0h-0.2l0,0.1l0.3,0.1l0.3,0l0.1,0.3l0.2,0.3l0.6,0l0.1-0.2l0.2-0.1
		l0.1-0.3l0,0l-0.1,0l0,0l0-0.1l-0.1,0l-0.1,0l-0.1,0l0,0.1l0.1,0.1l-0.1,0l0,0l0-0.1l0-0.1l0,0l-0.1,0l-0.1,0.1l0,0.1l-0.1,0l0-0.1
		l0.1-0.1l-0.1-0.1l0,0.1l0-0.1L360.4,173.9L360.4,173.9L360.4,173.9L360.4,173.9L360.4,173.9z M354.8,170.8l0,0.2l0.2,0.1l0.1-0.3
		l0.2-0.1l0.2-0.2l0,0l0.1-0.2l0.1-0.1l0-0.1l-0.1-0.1l0,0l0,0l0,0l0-0.1l0-0.1l-0.1,0l-0.1,0.1l-0.2,0l0,0.1l0.1,0.1l0,0.1l0,0.1
		l0,0.1l0,0.3L354.8,170.8z M372.1,195.6l0.3,0v-0.1l-0.4-0.2l-0.5-0.2l-0.5,0l-0.3,0.3l-0.3-0.2l-0.2-0.3l-0.2-0.3l-0.4-0.1
		l-0.1,0.1l-0.1,0.1l-0.1,0.1l-0.2,0.1h-1.5v0.1l1.3,0.4l0.6,0.1l0.1,0.1l0.2,0.2l0.1,0l0.3,0l0.3,0.1l0.3,0.1l0.3,0.2l0.1,0.1
		l0.1-0.1l0.1-0.2l0.1-0.1l0.1,0.1l0.4,0.3l0-0.3l0.1-0.2L372.1,195.6z M374.7,198.3l-1-0.1l-0.3,0h0l-0.2,0l-0.1,0.1l0.1,0.2
		l0.1,0.1l0.2,0.2l0.1,0.1l0,0.4v0.1l0.1,0.1l0.1,0l0.3-0.3h0.7l0.4-0.1l0.1-0.3l-0.2-0.3L374.7,198.3z M343.5,149.1l0.2-0.2
		l0.1-0.2l0.1-0.2l0.1-0.2l0.2-0.1l0.5-0.2l0.1-0.1l0.2-0.1l1.1-0.2l0.4-0.1l0.3,0.2l0.3-0.4l0.2-0.6l0.2-1.5l0-0.4l-0.2-0.3
		l-0.4-0.1l-1.4,0.2l-0.3,0l-0.2,0.1l-0.4,0.3l-0.5,0.5l-0.2,0.1l-0.3,0.1l-0.1,0.1l-0.1,0.2l0,0.8l-0.1,0.1l-0.1,0.3l0.1,1.4
		L343.5,149.1z M339.8,147.4l0.3,0l0.2-0.1l0.1-0.2l-0.1-0.1l-0.2-0.1l-0.1-0.2l1.8-0.5l-0.2-0.3l0.1-0.4l0.3-0.1l0.3,0.3l0.2-0.3
		l0-0.5l-0.1-0.4l-0.3-0.2l-0.8,0.9l-0.3,0.1l-0.6,0.2l-0.3,0.1l-0.9,1.7l0.2,0.1L339.8,147.4z M359.1,204.4l-0.1-0.2l-0.9-0.3
		l-0.3,0l-0.2,0l-0.2-0.1l-0.2-0.2l-0.3-0.4l-0.2-0.2l-0.2-0.1l-0.3-0.1l-0.7-0.2l-0.4,0l-0.3,0.1l-0.4,0.2l-0.3,0.2l-0.1,0.2
		l0.1,0.2l1,0.9l0.1,0.1l0.7,0.1h2.2l1,0L359.1,204.4L359.1,204.4z M308.9,181.5l-0.3,0.1l-0.5,0.5l-0.2,0.2l-0.5,1.5l0,0.3l0.5-0.3
		l0.4-0.3l0.2,0l0.4,0.2l0.2,0l0.3-0.3l0-0.5l-0.2-0.9L308.9,181.5z"/>
	<polygon class="st25" points="53.8,227.5 53.7,227.3 53.5,227.2 53.5,226.9 53.3,226.9 53.2,227 53.1,227 52.9,227.1 52.7,227.1 
		52.7,227.2 52.7,227.4 52.8,227.5 52.8,227.5 52.8,227.6 52.7,227.7 52.8,228 52.8,228.1 52.8,228.2 52.7,228.3 52.7,228.3 
		52.6,228.5 52.6,228.6 52.7,228.8 52.8,228.8 52.9,228.9 53,228.8 53.3,228.6 53.4,228.5 53.4,228.3 53.8,227.8 	"/>
	<polygon class="st26" points="27.7,159.8 27.3,159.5 27.1,159.2 26.4,157 26.3,156.9 26.1,156.8 25.9,156.8 25.7,156.8 25.4,157 
		25.4,157 25.1,157 25,157 24.9,156.8 24.8,156.8 24.7,156.7 24.4,156.8 24.3,156.9 24.2,157.1 24.2,157.6 24.1,158.3 24.1,158.7 
		24.2,159.1 24.3,159.4 24.2,159.5 24,159.7 23.9,159.9 23.9,160 23.9,160.4 23.9,160.5 23.8,161 23.7,161.4 23.5,161.7 23.6,162.1 
		23.7,162.9 24,163.7 24.4,164.6 24.9,165.1 24.9,165.1 25,165 25.1,164.7 25.1,164.5 25.1,164.5 25.2,164.4 27.3,162.1 27.4,161.9 
		27.9,161.6 28,161.5 28,161.4 28.2,160.6 28.2,160.5 28.2,160.4 28.3,160.1 	"/>
	<path class="st25" d="M32,203.6l0-0.4l-0.1-0.2l-0.1-0.1l-0.1,0l-0.1-0.1l0-0.1l-0.1-0.1l-0.1,0l-0.1,0l0.1,0.2l0,0.1l0.1,0.2
		l-0.1,0.2l0,0.1l0.1,0.1l0.1,0l0.3,0.4L32,204l0.1-0.1L32,203.6L32,203.6z M54.2,179.6l0-0.1l-0.1-0.2l-0.1,0l-0.1,0l-0.1,0l-0.1,0
		l-0.1-0.1l-0.1,0l-0.1,0l-0.1,0l-0.1,0.1l-0.1,0l-0.1,0l-0.1,0l-0.2-0.1l-0.1,0l-0.1,0l-0.1,0l-0.1,0l-0.1,0l0-0.1l0-0.1l0.1-0.3
		l0.1-0.3l0.1-0.2l0-0.1l0-0.1l0-0.2l0-0.1l0-0.1l-0.1-0.1l0,0l0,0l0-0.1l0-0.1l0-0.2l0-0.2l0,0l0-0.1l0-0.1l0-0.1l0.1-0.2l0.1-0.1
		l0.2-0.1l0,0l0.1-0.3l0-1l0-0.1l0,0l-0.2,0.1l-0.4-0.1l-0.3-0.3l-0.4-0.9l0-0.2l0.1-0.2l0-0.2l-0.2-0.1l-0.2,0l-0.1-0.1l-0.1-0.1
		l-0.1-0.2l-0.3-0.4l-0.4-0.1l-0.4,0.1l-0.7,0.3l-2,0.8l-0.7,0.4l-0.7,0.3l-0.7,0.1l-0.6,0.3l-0.2,0.9l-0.1,0.4l-0.2,0.4l-0.2,0.3
		l-0.3,0.3l-0.9,0.5l-0.5,0.2l-0.3-0.1l-0.2-0.5l-0.3-0.5l-0.4-0.4l-0.4-0.3l-0.2,0l-0.4,0l-0.2-0.1l-0.1-0.1l-0.2-0.4l-0.1-0.2
		l-0.1,0l-0.1,0l-0.1,0l0,0l0,0.1l0.1,0.3l0,0.1l0.1,0.1l0.1,0.1l0,0l0.2,0.1l0,0l0,0l0,0l0,0.1l-0.3,1.1l0,0.1l-0.1,0.1l-0.2,0.2
		l-0.1,0.1l-0.1,0.2l-0.2,0.1l0,0.1l0,0.1l0,0.2l0,0.1l0.1,0.1l0.1,0l0.1,0l0.1,0l0,0l0,0.1l0,0.1v0.1l0,0.3v0.2l0,0.1l-0.1,0.2
		l-0.1,0.3l-0.1,0.2l-0.2,0.2l-0.1,0.1l-0.1,0l-0.1-0.1l-0.1,0l-0.1,0l-0.1,0.1l-0.1,0.2l-0.1,0.1l-0.1,0.3l-0.1,0.7l0,0.2l0,0.2
		l0,0.2l-0.1,0.5l0,0.1l-0.1,0.1l-0.1,0.1l-0.2,0.3l-0.1,0.1l-0.2,0.1l-0.5,0.1l-0.6,0.1l-0.1,0.1l-0.2,0.3l0,0.2l0,0.1l-0.1,0.1
		l-0.1,0.1l-0.5,0.3l-0.1,0.1l-0.1,0.1l-0.1,0.3l-0.1,0.3l0,0l0,0l-0.1,0.1l-1.3,1.2l-0.1,0.2l-0.1,0.3l0,0.1l0,0l-0.3,0.2l-0.3,0.3
		l0,0l-0.1,0l-0.1,0l-0.1,0l-0.1,0l-0.1-0.1l-0.2-0.1L31,187l-0.1,0l-0.1-0.2l-0.1-0.5l-0.2-0.1l-0.2,0l-1.4,0.3l0,0l0,0l-0.1,0.1
		l-0.2,0.2l-0.2,0.2l-0.1,0l-0.1,0l-0.1,0l0,0.2l0.1,0.4l0.2,0.3l0.3,0.6l0.1,0.4l0.5,0.5l0.1,0.3l0.1,0.3l0.1,0.2l0.2,0.3l0.1-0.1
		l0.2-0.1l0.2,0l0.2,0.1l0.2,0.2l0.1,0.1l0.1,0.1l0,0.3l-0.1,0l-0.2,0.1l-0.1,0.2l0.2,0.1l0.4,0l0.2,0l0.2-0.1l0.1,0.3l0.2,0.1
		l0.2,0l0.1,0.1v0.2l-0.1,0.3l0,0.3l0.1,0.3l0.1,0l0.1-0.1l0.2,0l0.4,0.1l0,0.1l-0.1,0.3l0.3,0.1l0.1,0v0.1l-0.5,0l-0.2,0.2l0.1,0.9
		l0.1,0.5l0.3,0l0.4-0.2l0.5,0.1l-0.2,0.1l-0.2,0.2l-0.1,0.2l-0.1,0.3l-0.3-0.2l-0.2,0.2l-0.2,0.3l-0.1,0.4l0.1,0.4l0.3,0.2l0.3,0.1
		l0.3-0.1l-0.2,0.5l-0.3,1.2l-0.1,0.5l-0.1,0.3l-0.4,0.3l-0.1,0.2l0,0.4l-0.1,0.3l-0.2,0.5l-0.1,0.4l0.1,0.1l0.2,0l0.2,0.2l0.1,0.3
		l0,0.3l0.1,0.2l0.3,0.1l-0.1,0.2l0.1,0.6l0.2,0.6l0.2,0.4l0.4-0.3l0.4,0.1l0.4,0.3l0.3,0.3l1,0.7l0.2,0.3l0,0.5l-0.1,0.4l0.1,0.3
		l0.5,0l0.2-0.1l0.5-0.2l0.4,0l0.2,0.4l-0.3-0.1l-0.4,0.1l-0.3,0.1l-0.3,0.4l-0.4,0.1l-1.2-0.1l-0.2,0.1l-0.1,0.3l0,0.9l0.1,0.3
		l0.1,0.3l0.2,0.3l0.3,0.2l0.5,0.2l0.5,0.1l0.2-0.1l0.1-0.1l0.2-0.1l0.4-0.1l0.2,0.1l-0.1,0.1l0,0l0,0l0.1,0l0.4-0.1l0.7-0.1
		l0.5-0.1l0.1,0l0.1,0l0.1,0l0.1,0.1v0.1l0,0.1l0,0.1l0,0.1l0,0.1l0,0.1l0,0l0.5,0.3l0.1,0.1l0,0.1l0,0.1l-0.1,0.1l-0.1,0.1l0,0.1
		l0,0.1l0,0.1l0,0.1l0,0l0.1,0l0.1,0l0.1,0l0.1,0l0,0l0-0.1l0-0.1l0-0.1l0,0l0,0l0,0l0.1,0l0,0l0,0l0.1-0.1l0.1,0l0.1,0l0.1,0
		l0.1,0.1l0,0.1l0.1,0.1l0.1,0l0.2,0l0.2,0l0.1,0l0.1,0l0,0.1l0,0.2l0,0.1l0,0.1l0,0.1l0,0.1l0,0l0.1,0l0.1-0.1l0,0l0.1-0.1l0,0l0,0
		l0,0l0,0l0,0l0,0l0,0.1l0,0.1l0,0.1l0,0l0.1,0.1l0,0l0,0.1l0,0l-0.1,0l-0.2,0l-0.1,0l0,0l0,0.1l0,0.1l0,0.1l0,0.1l0,0l0,0l0.1-0.1
		l0.1,0l0.1,0l0.1,0l0.1,0l0.2-0.1l0-0.1l0-0.1l0-0.1l0,0l0.1,0l0.2,0.1l0,0.1l0,0.1l0,0.1l0,0l0.1,0l0.1,0l0-0.1l0,0l0.1,0l0.1,0.1
		l0,0.1l0.1,0.2l0.1,0l0.1,0l0.1,0l0.1-0.1l0.1,0l0.1,0l0.1,0.1l0.1,0.1l0.1,0l0.1,0l0.3-0.1l0.1,0l0.2,0.1v0.2l0,0.1l0,0.1v0.1
		l0,0.1l0,0.1l0.1,0.1l0,0.1l0,0l0,0l0.1,0l0.1,0l0.3,0l0.5-0.1l0.2-0.1l0.4-0.2l0.2-0.3l0-0.3l-0.1-0.3l-0.1-0.3l0-0.1l-0.1-0.1
		l0,0l0-0.1l0-0.1l0-0.1l0-0.1l0-0.1l0-0.1l0,0l0,0l0.1,0l0.1,0l0.3,0l0.2,0l0.2,0.1l0.1,0.1l0,0.1l0,0.1l0,0.1l0,0.1l0,0l0,0l0,0
		l0,0l0.1,0.1l0.1,0l0.1,0l0.1,0.1l0.1,0l0.2,0l0.1,0l0,0l0,0l0.2,0.2l0,0l0.1,0.2l0,0l0,0l0,0l0.2,0l0.1,0l0,0l0,0l0,0l0,0l0.1,0
		l0.1,0.1l0,0l0,0l0.1,0.2l0,0l0,0l0.1,0l0.1,0l0.1,0l0.1,0l0.2-0.1l0.2-0.1l0.4-0.4l0.7-0.9l0.1-0.1l0.1-0.1l0,0l0.3-0.1l-0.2-0.3
		l-0.2-0.1l-0.1,0l-0.1,0l0-0.1l0-0.2l0.1-0.8l0-0.2l0-0.1l-0.1-0.2l-0.2-0.2l-0.1-0.1l-0.1-0.3l-0.1-1.4l0-0.2l-0.2-0.2l0,0l0-0.1
		l0.1-0.3l0.4-1.1l-0.5-0.6l-0.2-0.2l-0.1,0l-0.1-0.1l-0.1,0l-0.1,0l-0.2,0.1l-0.1,0l-0.1-0.1l-0.1-0.2l-0.1-0.5l0-0.2l0-0.1
		l0.1-0.1l0-0.1l0-0.1l-0.1-0.1l-0.2-0.1l-0.1,0l-0.3-0.1l-0.2-0.1l-0.1,0l0-0.1l0-0.1l0-0.2l0-0.1l0-0.1l0-0.1l0-0.1l-0.1-0.1
		l-0.1-0.1l-0.1-0.2l0-0.8l-0.1-0.2l-0.1-0.1l-0.1-0.1l-0.1-0.1l0-0.1l0-0.1l0-0.1l0.1-0.1l0.1-0.1l0-0.1l0.1-0.1l0-0.1l0-0.1l0-0.1
		l0-0.1l-0.1,0l-0.2,0l-0.9-0.3l-0.1,0l-0.1,0l-0.1-0.1l-0.2-0.3l-0.2-0.2l0.2-0.3l0.1-0.1l0.1,0l0-0.1l0-0.1l0.1-0.2l0.2-0.3
		l0.1-0.1l0.1,0l0,0l0-0.1l0-0.1l-0.1-0.2l-0.2-0.2l0-0.1l0-0.1l-0.1-0.4l0-0.1l0-0.3l0.3-0.7l-0.2-0.5l-0.1-0.3l-0.4-0.5l0.2-0.4
		l0.1,0l0.1,0l0.1,0l0.1,0l0.1,0l0.1,0l0.1,0l0.1,0l0.1,0l0-0.1l0-0.1l0-0.2l0-0.2l0-0.1l0-0.1l0-0.1l0-0.1l0.1-0.1l0.1,0l0.1,0
		l0.1-0.1l0.1-0.1l0.1-0.2l0.1-0.1l0-0.1l0,0l0-0.1l0-0.1l-0.1-0.2l-0.1-0.3l0-0.1l0-0.1l0.1-0.1l0.1-0.2l0,0l0.1,0l0.1,0l0.1,0
		l0.1,0l0.1-0.1l0.1-0.1l0.2-0.5l0-0.1l0-0.1l-0.1-0.8l-0.1-0.1l-0.2-0.2l-0.2-0.3l0.3-0.2l0.1-0.1l0.1-0.1l0-0.1l0-0.2l0-0.1l0-0.1
		l0.1-0.1l0-0.1l0-0.3l0-0.2l0-0.1l0-0.1l0.2-0.4l0-0.1l0-0.1l0-0.1l0-0.1l0-0.1l0.1-0.1l0-0.1l0-0.1v-0.1l0-0.2l0-0.1l0-0.1l0-0.2
		l0-0.2l0.1-0.3l0-0.1l0-0.1l0.3-0.4l0-0.1l0-0.1l0-0.3l0-0.1l0.1-0.2l0-0.1l0-0.2l0-0.1l0.1,0l0.1,0l0.1,0l0.1,0l0.1,0l0.1-0.1
		l0.1-0.2l0.1-0.1l0.3-0.2L51,183l0-0.1l0-0.1l0-0.1l0-0.1l0.1-0.1l0.1-0.1l0.2-0.2l0.1-0.1l0.1-0.1l0-0.1l0,0l0.1,0l0.1,0.1
		l0.2,0.2l0.1,0l0.1,0l0.2,0l0.1,0l0.1,0.1l0.2,0.1l0.1,0l0.1,0l0.1-0.1l0.1-0.1l0.2,0l0.1,0l0.1,0l0.1,0l0.1,0l0.1,0l0.1,0l0.1,0
		l0.1,0l0.2-0.2l0.1-0.1l0.1-0.1l0-0.1l-0.1-0.3l0-0.5l0-0.2l0-0.1l0-0.1l-0.1-0.2l0-0.1l0-0.2l0.1-0.2l0-0.1l0-0.1l0-0.1
		L54.2,179.6z"/>
	<path class="st25" d="M31.4,183.9l-0.3-3.9l0-1.1l0-0.2l0.1-0.2l-0.3-0.1l-0.3,0l-2.7-0.2l0,0l0,0.1l0.4,0.8l0.1,0.4l-0.1,1.6
		l0,0.4l0.1,0.3l0.4,0.5l0.5,0.9l0.1,0.2l0,0.2l-0.2,0.3l0,0.2l0,0.1l0.2,0.4l0,0.2l0,0.4l-0.3,0.6l-0.1,0.6l-0.1,0.1l0,0l0,0
		l1.4-0.3l0.2,0l0.2,0.1l0.6,0.1l0.2,0l0.1,0l0.1,0l0.1,0l0-0.1l0-0.1v-0.1L31.4,183.9z M27.1,180.7l-0.2-0.3l-0.3-0.2l-0.4-0.1
		l-0.4,0l-0.4,0.1l-0.1,0.1l-0.1,0.1l-0.1,0.1l-0.2,0.1l-0.2-0.1l-0.1-0.2l-0.1-0.1l-0.2,0.1l0.1,0.1l0,0.1l-0.1,0.1l0,0.2l0,0.1
		l0.1,0.1l0.1,0.1l0,0.2l0,0.9l0.1,1l-0.1,0.3l-0.3,0.1l0,0.1l0.1,0.1l0.1,0l0.1,0l0,0l0,0l0.8,0l1,0.2l0.1-0.3l0.5-0.9l0.1-0.3
		l0.1-0.7l0.3-0.6l-0.2-0.2L27.1,180.7z"/>
	<polygon class="st26" points="89.2,233.3 89.6,233.1 89.6,233.1 89.8,232.8 89.9,232.7 89.9,232.7 89.8,232.7 87.6,230.5 
		86.7,229.3 86.1,228 86,227.2 86.4,222.7 86.3,222.3 86.2,221.9 85.9,219.6 86,218.8 86.9,216.9 86.2,217 86.5,216.5 86.1,215.8 
		85.4,215.2 85.1,214.8 85,214.5 84.3,212.9 84.2,212.6 84.2,212.3 84.2,212 84.4,211.7 84.6,211.4 84.9,211.4 85,211.1 85,210.4 
		85,209.8 85.2,208.9 85.5,208.4 86,208.6 86,208.2 85.3,206.4 85.2,205.9 85.2,205.5 85.4,205.2 85.8,204.7 85.9,204.6 86.1,204.6 
		86.1,204.5 86.1,204.5 86.1,204.5 85.9,204.4 85.7,204.4 84.3,204.3 84.2,204.3 84.2,204.3 84.1,204.2 84.1,204.2 84,204.2 
		84,204.1 83.8,204.1 83.8,204.1 83.8,204.1 83.8,204.5 83.9,204.6 83.9,204.9 83.9,205 83.9,205.2 83.9,205.2 83.8,205.3 
		83.8,205.4 83.7,205.4 83.6,205.5 83.6,205.6 83.6,205.6 83.5,206.1 83.5,206.1 83.5,206.2 83.5,206.4 83.5,206.4 83.6,206.5 
		83.6,206.5 83.7,206.6 83.8,206.6 83.8,206.7 83.9,206.7 83.9,206.8 83.9,206.9 84,207 83.9,207.1 83.9,207.2 83.9,207.3 
		83.9,207.5 83.9,207.5 83.9,207.6 83.9,207.7 83.9,207.7 83.9,207.7 84.1,208 84.2,208.5 84.3,208.6 84.3,208.7 84.3,208.7 
		84.2,208.9 84.2,209.1 84.1,209.2 84,209.3 83.9,209.4 83.9,209.4 83.9,209.4 83.8,209.5 83.8,209.5 83.9,210 83.9,210 83.8,210.1 
		83.7,210 83.6,209.9 83.5,209.8 83.5,209.8 83.3,209.3 83.3,209.2 83,209 83,208.9 83,208.9 83,208.7 83,208.7 83,208.6 83,208.5 
		82.9,208.4 82.6,208.1 82.5,208 82.4,207.9 82.4,207.7 82.4,207.7 82.3,207.4 82.3,207.4 82.2,207.3 82.1,207.4 82,207.4 
		81.9,207.4 81.9,207.4 81.8,207.4 81.7,207.3 81.7,207.3 81.7,207.2 81.6,207 81.6,207 81.6,207 81.5,207 81.3,207.1 81.2,207.1 
		81.1,207 80.7,206.7 80.6,206.7 80.5,206.6 80.4,206.6 80.3,206.4 80.3,206.4 80.2,206.4 80.2,206.3 80.2,206.3 80.1,206.2 
		80.1,206.2 80.1,206.1 80,206.1 79.9,206 79.3,205.8 79.2,205.7 79.1,205.6 79,205.6 78.9,205.5 78.4,205.4 78.1,205.3 78.1,205.3 
		78,205.3 77.9,205.2 77.6,205.2 76.6,205.7 76.4,205.7 76.4,205.7 76.3,205.6 76.3,205.6 76.2,205.5 76.1,205.4 75.9,205.1 
		75.9,205.1 76,205 76.2,204.7 76.2,204.6 76.3,204.4 76.3,204.2 76.3,204 76.3,203.7 76.5,203 76.5,202.7 76.5,202.6 76.6,202.5 
		76.6,202.4 76.8,202.2 76.9,202.1 77,201.8 77,201.7 77.1,201.6 77.3,201.5 77.4,201.4 77.5,201.4 77.6,201.4 77.6,201.4 
		77.8,201.4 77.9,201.4 78,201.4 78,201.3 78.1,201.3 78,201 78,200.9 78,200.7 78.1,200.4 78.2,200.2 78.2,199.9 78.1,199.9 
		78.1,199.9 78,199.7 78,199.5 78,199.4 77.9,199.4 77.3,198.8 77.2,198.7 77.1,198.7 77.1,198.8 77,198.8 77,198.8 77,198.9 
		76.9,199 76.9,199.1 76.9,199.1 76.8,199.1 76.7,199.1 76.6,199 76.6,198.9 76.5,198.9 76.5,198.9 76.2,198.9 76.2,198.9 76,198.9 
		75.9,198.9 75.9,198.9 75.6,198.9 75.6,198.8 75.5,198.8 75.4,198.6 75.2,198.4 75.1,198.3 75,198.2 75,198.1 74.9,197.8 
		74.8,197.6 74.8,197.4 74.9,197.3 74.9,197.2 74.9,197.1 75,197.1 75.2,197 75.3,197 75.3,197 75.3,196.9 75.4,196.9 75.4,196.8 
		75.4,196.4 75.4,196.3 75.5,196.2 75.5,196.2 75.5,196.1 75.5,195.8 75.4,195.7 75.4,195.6 75.3,195.5 75.2,195.3 74.8,195 
		74.5,194.9 74,195 73.7,195 73.3,194.9 73.2,194.9 73.1,194.9 72.8,194.7 72.6,194.6 72.2,194.4 71.9,194.2 71.8,194 71.4,193.3 
		71,193.2 70.8,193.2 70.6,193 70.6,193 70.5,193 70.4,193 70.3,193.1 70.3,193.2 70.3,193.3 70.3,193.4 70.3,193.5 70.3,193.5 
		70.2,193.6 70.2,193.7 70.2,193.7 70.2,193.8 70.2,193.9 70.3,194 70.3,194 70.3,194.3 70.4,194.5 70.3,194.5 70.3,194.6 
		70.3,194.6 70.2,194.7 69.9,194.6 69.7,194.6 69.6,194.6 69.5,194.5 69.5,194.5 69.4,194.4 69.4,194.4 69.3,194.4 69.2,194.4 
		69.2,194.5 69.1,194.6 69.1,194.7 69,194.7 68.9,194.8 68.9,194.8 68.8,194.9 68.6,195 68.6,195 68.5,195 68.3,195 68.2,195 
		68.1,194.9 68,194.8 67.6,194.6 67.5,194.5 67.4,194.4 67.4,194.3 67.3,194.3 67.2,194.3 67,194.3 66.9,194.3 66.9,194.3 
		66.7,194.2 66.6,194.2 66.5,194.2 66.2,194.2 66.1,194.3 65.9,194.5 65.9,194.5 65.9,194.6 65.9,194.7 66,194.7 65.9,194.8 
		65.9,194.8 65.7,195.1 65.5,195.3 65.5,195.3 65.4,195.6 65.3,195.6 65.1,195.6 64.8,195.6 64.7,195.5 64.6,195.5 64.2,195.3 
		64.1,195.3 64,195.3 63.6,195.4 63.5,195.4 63.4,195.5 63.2,195.7 62.8,195.7 62.7,195.6 62.7,195.6 62.6,195.5 62.6,195.4 
		62.5,195.4 62.5,195.3 62.4,195.3 62.4,195.3 62.3,195.3 62.3,195.2 62.2,195.2 62.2,195.1 62.2,195 62.2,194.9 62.2,194.9 
		62.2,194.8 62,194.7 61.4,194.2 61.3,194.1 61.3,194.1 61.3,194 61.3,193.9 61.3,193.8 61.2,193.5 61.1,193.5 61.1,193.4 
		60.9,193.5 59.9,193.9 59.7,193.9 59.6,193.8 59.5,193.7 59.4,193.7 59.4,193.7 59.3,193.7 59.2,193.7 59.2,193.7 59,193.4 
		59,193.4 58.9,193.4 58.9,193.4 58.8,193.4 58.7,193.5 58.6,193.6 58.5,193.6 58.5,193.5 58.4,193.5 58.3,193.4 58.3,193.4 
		58.2,193.4 58.1,193.6 58,193.7 58,193.8 58,193.8 58,193.9 58,194 58,194.2 57.8,195 57.8,195.1 57.7,195.2 57.5,195.4 
		57.4,195.6 57.4,195.7 57.4,195.7 57.3,195.8 57.3,196 57.3,196.1 57.2,196.1 57.1,196 57,196 57,195.9 57,195.9 56.9,195.6 
		56.9,195.6 56.9,195.5 56.9,195.4 56.9,195.3 56.9,195.2 56.9,195.2 56.8,195.1 56.8,195 56.8,195 56.4,194.8 56.3,194.7 
		56.3,194.7 56.2,194.7 56.1,194.7 56.1,194.6 56,194.6 56,194.5 56,194.4 56,194.4 56,194.3 56,194.2 55.9,194.2 55.9,194.2 
		55.8,194.1 55.7,194.1 55.6,194.1 55.5,194.1 55.5,194 55.5,194 55.5,193.9 55.5,193.7 55.5,193.6 55.4,193.5 55.4,193.5 
		55.4,193.4 55.3,193.4 55.3,193.4 55.2,193.4 55,193.4 54.9,193.4 54.8,193.5 54.8,193.6 54.7,193.7 54.7,193.8 54.7,194.3 
		54.7,194.4 54.6,194.8 54.6,195.2 54.6,195.4 54.6,195.6 54.5,195.7 54.5,195.8 54.4,195.8 54.3,195.9 53.9,196 53.7,196 
		53.6,196.2 53.5,196.3 52.9,196.6 52.7,196.7 52.6,196.8 52.6,196.9 52.5,197 52.4,197.1 52.2,197.1 51.8,197.3 51.7,197.3 
		51.6,197.2 51.5,197.1 51.2,197.2 51,197 50.8,196.8 50.8,196.8 50.5,196.7 50.4,196.6 50.3,196.6 50.3,196.5 50.2,196.5 
		50.1,196.5 49.9,196.4 49.6,196.5 49.5,196.5 49.5,196.5 49.2,196.6 49.2,196.7 49.1,196.7 49.1,196.8 49.1,196.9 49.1,196.9 
		49.1,197 48.9,197 48.7,196.9 48.5,196.8 48.4,196.7 48.1,196.5 47.9,196.4 47.2,196.2 46.9,196.9 46.9,197.2 46.9,197.4 47,197.7 
		47,197.8 47,197.8 47.2,198 47.3,198.2 47.3,198.3 47.3,198.4 47.2,198.4 47.2,198.4 47.1,198.5 46.9,198.8 46.9,199 46.8,199.1 
		46.8,199.2 46.7,199.2 46.6,199.3 46.5,199.6 46.7,199.8 46.9,200.1 47,200.1 47.1,200.2 47.2,200.1 48.1,200.4 48.3,200.4 
		48.4,200.5 48.4,200.5 48.4,200.6 48.4,200.7 48.4,200.7 48.4,200.8 48.4,200.9 48.3,201 48.2,201.1 48.2,201.2 48.2,201.2 
		48.2,201.3 48.3,201.4 48.4,201.5 48.5,201.5 48.6,201.7 48.6,202.5 48.7,202.7 48.8,202.8 48.8,202.9 48.9,203 48.9,203 
		48.8,203.1 48.8,203.2 48.8,203.5 48.8,203.6 48.8,203.6 48.9,203.7 49.1,203.7 49.3,203.8 49.4,203.8 49.6,203.9 49.7,203.9 
		49.7,204 49.7,204 49.6,204.1 49.6,204.3 49.6,204.5 49.7,205 49.8,205.2 49.9,205.3 49.9,205.3 50.1,205.2 50.1,205.2 50.2,205.2 
		50.3,205.3 50.4,205.4 50.6,205.5 51.1,206.2 50.7,207.3 50.6,207.6 50.6,207.7 50.6,207.7 50.8,207.9 50.9,208.1 51,209.5 
		51.1,209.8 51.1,209.9 51.3,210.1 51.4,210.2 51.4,210.4 51.4,210.6 51.3,211.3 51.3,211.5 51.4,211.6 51.4,211.6 51.5,211.6 
		51.7,211.7 51.8,212 52.4,212.8 52.6,213.1 52.7,213.1 53.1,213.3 53.2,213.3 53.2,213.3 53.4,213.3 53.4,213.3 53.8,213.5 
		54.5,213.8 54.6,213.9 54.7,214.1 54.7,214.2 54.8,214.2 54.8,214.3 54.8,214.4 54.8,214.4 54.9,214.6 55.2,215 55.4,215.3 
		55.4,215.4 55.2,216 55.2,216.1 55.2,216.2 55.1,216.2 55.1,216.2 55,216.3 54.9,216.3 54.9,216.3 54.5,216.9 54.5,217.1 
		54.4,217.2 54.4,217.3 54.5,217.4 54.5,217.4 54.5,217.5 54.6,217.7 54.7,217.8 54.7,217.9 54.8,218.5 54.8,218.6 54.8,218.7 
		54.7,219 54.5,219.5 55.7,221.1 55.8,221.1 55.8,221.1 56,221.2 56.7,221.5 56.8,221.5 57.3,221.6 57.4,221.5 57.4,221.5 
		57.5,221.5 57.5,221.4 57.6,221.4 57.6,221.3 57.6,221.2 57.6,221.2 57.8,221.2 57.9,221.3 58.3,221.5 58.4,221.6 58.5,221.8 
		58.5,221.8 58.5,221.9 58.5,221.9 58.6,222 58.7,222 58.8,222.1 58.8,222.2 58.9,222.2 59,222.2 59.1,222.3 59.4,222.3 59.7,222.2 
		59.7,222.3 59.8,222.3 59.9,222.4 60,222.5 60,222.7 60.1,222.8 60.1,222.8 60.1,222.9 60.1,223.1 60.1,223.2 60.1,223.2 
		60.2,223.3 60.3,223.3 60.5,223.2 60.6,223.2 60.8,223.1 60.8,223 60.9,223 61.1,223 61.2,222.9 61.2,222.9 61.2,222.8 61.3,222.8 
		61.5,222.9 62.3,223.3 64.6,224 64.8,224.1 66.2,224.3 66.4,224.4 67.1,225.2 67.1,225.2 67.7,226 71.5,228.5 71.6,228.6 
		71.6,228.6 71.7,228.6 71.7,228.5 71.8,228.5 71.8,228.5 71.9,228.4 72,228.6 72.2,229.5 73,229.8 74,230.2 74.3,230.4 77,233.6 
		77.6,234.1 80.6,235.3 80.7,235.3 80.8,235.3 83.6,234.3 84.4,234.1 84.7,234.1 84.9,234.2 85.1,234.4 86.2,234.8 86.3,234.9 
		86.4,235.1 86.5,235.2 86.6,235.3 89.3,236.8 89.5,236.9 89.5,236.9 89.5,236.8 89.5,236.7 89.5,236.7 89.5,236.6 89.5,236.6 
		89.7,236.3 89.8,236.3 89.8,236.2 89.8,236.1 89.8,236 89.8,235.9 89.7,235.8 89.7,235.7 89.6,235.6 89.5,235.5 89.4,235.5 
		89.3,235.5 89.2,235.4 89.2,235.4 89.2,235.3 89.1,235.3 89.1,235.3 89.2,235.2 89.2,235.1 89.2,235 89.4,234.9 89.4,234.9 
		89.4,234.8 89.4,234.8 89.3,234.6 89.3,234.5 89.3,234.4 89.3,234.4 89.4,234.3 89.4,234.3 89.5,234.2 89.5,234.2 89.5,234 
		89.6,234 89.5,233.9 89.5,233.9 89.5,233.8 89.4,233.7 89.4,233.7 89.3,233.6 89.2,233.6 89.1,233.5 89.1,233.5 89.1,233.4 	"/>
	<polygon class="st25" points="72,228.6 71.9,228.4 71.8,228.5 71.8,228.5 71.7,228.5 71.7,228.6 71.6,228.6 71.6,228.6 71.5,228.5 
		67.7,226 67.1,225.2 67.1,225.2 66.4,224.4 66.2,224.3 64.8,224.1 64.6,224 62.3,223.3 61.5,222.9 61.3,222.8 61.2,222.8 
		61.2,222.9 61.2,222.9 61.1,223 60.9,223 60.8,223 60.8,223.1 60.6,223.2 60.5,223.2 60.3,223.3 60.2,223.3 60.1,223.2 60.1,223.2 
		60.1,223.1 60.1,222.9 60.1,222.8 60.1,222.8 60,222.7 60,222.5 59.9,222.4 59.8,222.3 59.7,222.3 59.7,222.2 59.4,222.3 
		59.1,222.3 59,222.2 58.9,222.2 58.8,222.2 58.8,222.1 58.7,222 58.6,222 58.5,221.9 58.5,221.9 58.5,221.8 58.5,221.8 58.4,221.6 
		58.3,221.5 57.9,221.3 57.8,221.2 57.6,221.2 57.6,221.2 57.6,221.3 57.6,221.4 57.5,221.4 57.5,221.5 57.4,221.5 57.4,221.5 
		57.3,221.6 57.4,221.6 57.5,221.7 57.6,221.7 57.6,221.8 57.7,222 57.8,222.2 57.9,222.3 57.9,222.4 57.9,222.5 57.8,223 
		57.8,223.1 57.9,223.1 57.9,223.3 58.1,223.5 58.1,223.6 58.1,223.6 58.2,223.8 58.2,223.8 58.2,224 58.1,224.6 58.1,224.8 
		58.1,225.1 58.1,225.4 58.2,225.7 58.2,225.8 58.2,225.9 58.2,225.9 58.1,226 57.9,226.1 57.8,226.1 57.8,226.2 57.7,226.3 
		57.7,226.5 57.6,226.8 57.6,226.9 57.6,227 57.6,227.1 57.5,227.2 57.5,227.3 57.1,227.5 57.1,227.6 57,227.6 57,227.7 56.9,228.1 
		56.8,228.5 56.8,228.7 56.7,228.8 56.6,228.9 56.4,229.1 56.3,229.2 56.2,229.2 56.1,229.2 55.4,229.1 54.8,229 54.6,229 
		54.4,229.1 54.3,229.1 54.3,229.2 54.4,229.5 54.6,230.7 54.6,231.4 54.1,232.4 54,232.7 53.9,232.8 53.9,233.1 53.9,233.2 
		53.8,233.4 53.7,233.6 53.6,234.1 53.6,234.1 54.4,234.2 54.6,234.3 54.8,234.5 55.2,235.6 55.4,235.9 55.6,236 55.8,236.1 
		56.1,236.3 56.2,236.8 56.2,237.4 56.3,237.9 56.6,237.6 57.2,237.6 57.5,237.3 58.1,237.7 58.4,237.8 58.7,237.9 58.7,237.9 
		58.7,237.9 59.3,237.6 59.4,237.4 59.8,237.1 59.8,237.2 59.9,237.2 59.9,237.3 60,237.3 60,237.3 60.1,237.1 60.2,237 60.2,237 
		60.2,237 60.3,236.9 60.3,236.7 60.3,236.7 60.3,236.6 60.4,236.6 60.4,236.6 60.8,236.7 60.9,236.7 61.7,236.5 61.8,236.5 
		61.9,236.4 62.2,236.1 62.3,236 62.3,236 62.4,236 62.7,236.2 63.2,236.4 63.9,236.6 64.1,236.6 65.4,236.1 65.6,236.1 66.1,236.1 
		67.2,236.6 67.5,236.7 70.2,237.4 70.3,236.9 70.3,236.7 70.6,236.4 70.6,236.3 70.6,236.2 70.6,236.2 70.6,236 70.5,235.8 
		70.5,235.7 70.6,235.5 70.7,235.4 70.6,235.2 70.6,235.1 70.6,235 70.6,234.9 70.6,234.7 70.6,234.6 70.7,234.3 70.8,234.2 
		70.9,234.1 71,234 71,233.9 71,233.8 71,233.7 70.9,233.6 70.9,233.5 70.9,233.4 71,232.9 72.1,230.1 72.2,229.5 	"/>
	<polygon class="st26" points="67.5,236.7 67.2,236.6 66.1,236.1 65.6,236.1 65.4,236.1 64.1,236.6 63.9,236.6 63.2,236.4 
		62.7,236.2 62.4,236 62.3,236 62.3,236 62.2,236.1 61.9,236.4 61.8,236.5 61.7,236.5 60.9,236.7 60.8,236.7 60.4,236.6 60.4,236.6 
		60.3,236.6 60.3,236.7 60.3,236.7 60.3,236.9 60.2,237 60.2,237 60.2,237 60.1,237.1 60,237.3 60,237.3 59.9,237.3 59.9,237.2 
		59.8,237.2 59.8,237.1 59.4,237.4 59.3,237.6 58.7,237.9 58.7,237.9 58.6,238.2 58.9,238.5 59.2,238.7 59.6,238.8 59.9,238.9 
		61.3,240.4 61.8,240.9 62.4,241.2 65.5,242.5 68.1,243.5 68.1,243.5 68.4,243 68.6,242.9 68.8,243 68.9,243 69,242.9 69,242.7 
		69,242.3 69,242.2 69,242.1 69,242 68.9,242 68.7,242 68.7,242 68.6,241.9 68.3,241.8 68.2,241.7 68.1,241.7 68.1,241.7 68,241.6 
		68,241.4 68,241.4 68,241.3 68.3,241 68.3,241 68.4,240.9 68.4,240.8 68.4,240.7 68.3,240.5 68.3,240.5 68.3,240.4 68.4,240.2 
		68.7,239.2 68.8,239.1 68.8,239 68.7,238.8 68.7,238.7 68.7,238.6 68.8,238.4 69.2,237.9 69.4,237.8 69.8,237.6 70.2,237.4 	"/>
	<polygon class="st26" points="71.5,192.8 71.3,192.4 71.2,192.4 71.2,192.3 71.1,192.1 71,192 71,191.7 71,191.6 70.9,191.6 
		70.8,191.5 70.7,191.5 69.8,190.8 69.3,190.6 69.2,190.6 69.2,190.6 69.1,190.6 69.1,190.7 69,190.7 69,190.7 68.9,190.7 
		68.7,190.7 68.6,190.6 68.5,190.5 68.6,190.1 68.6,190 68.6,189.7 68.4,189.1 68.3,189 68.3,188.9 68.3,188.9 68.3,188.9 
		68.3,188.9 68.3,188.8 68.4,188.8 68.4,188.7 68.4,188.7 68.5,188.7 68.6,188.6 68.6,188.6 68.6,188.5 68.4,187.6 68.4,187.5 
		68.4,187.4 68.5,187.4 68.6,187.3 68.7,187.3 68.7,187.3 68.7,187.2 68.7,187.1 68.8,187.1 68.8,187 68.9,186.9 68.8,186.9 
		68.7,186.7 68.5,186.5 68.4,186.5 68.4,186.5 68.3,186.4 68.2,186.4 68.1,186.3 67.9,186 67.8,186 67.7,185.9 67.6,185.8 
		67.5,185.8 67.5,185.8 67.4,185.8 67.3,185.8 67.3,185.7 67.2,185.7 67.1,185.6 66.9,185.6 66.7,185.5 66.7,185.4 66.7,185.4 
		66.8,185 66.8,184.9 66.8,184.8 66.8,184.8 66.8,184.5 66.8,183.4 66.9,183 66.9,182.9 67.1,182.4 67.2,181.9 67.2,181.8 
		67.1,181.7 66.7,181.3 66.4,181 66.3,180.8 66.3,180.8 66.4,180.8 66.4,180.6 66.4,180.3 66.3,179.2 66.3,179 66.5,178.9 
		66.5,178.8 66.5,178.8 66.5,177.7 66.6,177.4 66.5,177.3 66.5,177.1 66.4,177 66.2,176 66.3,175.7 66.9,175 68.4,173.7 69.1,172.8 
		69.1,172.8 68.7,172.5 68.3,172 66.1,167.5 65.3,166.7 64.9,166.5 62.7,165.7 62.3,165.6 62,165.9 62.3,165.8 62.5,166 62.4,166.2 
		62,166.3 61.8,166.2 60.8,165.5 60.3,165.2 60.1,166.2 60.2,167.7 60,168.3 59.5,168.8 58.1,169.8 57.7,170.4 57.4,171.2 57.4,172 
		57.2,172.7 56.6,173.2 56.4,173.4 56.3,173.5 56.3,173.7 56.1,173.9 55.6,174.2 55.5,174.3 55.3,174.7 55.1,175 54.8,175 
		54.4,174.8 54.2,174.6 54.1,174.3 54,174.2 53.7,174.1 53.5,174.1 53.2,174.4 53.2,174.6 53.2,175.5 53.1,175.8 53.1,175.8 
		52.9,176 52.7,176.1 52.6,176.3 52.6,176.4 52.6,176.5 52.6,176.6 52.6,176.7 52.6,176.9 52.6,177.1 52.6,177.3 52.6,177.3 
		52.7,177.4 52.7,177.4 52.9,177.5 52.9,177.6 52.9,177.7 53,177.9 53,178.1 53,178.2 52.9,178.3 52.8,178.6 52.7,178.9 52.6,179.1 
		52.7,179.1 52.7,179.2 52.8,179.2 52.9,179.2 53,179.2 53.1,179.2 53.2,179.3 53.3,179.3 53.3,179.3 53.4,179.3 53.5,179.2 
		53.6,179.2 53.6,179.2 53.7,179.2 53.8,179.3 53.9,179.3 53.9,179.3 54,179.3 54.1,179.3 54.2,179.5 54.2,179.6 54.2,179.8 
		54.2,179.8 54.2,179.9 54.2,180 54.1,180.1 54.1,180.3 54.1,180.4 54.2,180.7 54.2,180.8 54.2,180.9 54.1,181.1 54.1,181.6 
		54.2,181.9 54.2,181.9 54.1,182.1 54.1,182.1 53.8,182.3 53.8,182.3 53.7,182.3 53.6,182.4 53.5,182.4 53.5,182.3 53.4,182.3 
		53.3,182.3 53.2,182.3 53.1,182.4 53,182.5 52.8,182.6 52.8,182.6 52.7,182.6 52.5,182.5 52.4,182.4 52.3,182.4 52.1,182.4 
		52,182.4 52,182.3 51.8,182.2 51.7,182.1 51.7,182.1 51.6,182.1 51.6,182.2 51.5,182.3 51.4,182.4 51.1,182.5 51,182.6 51,182.7 
		51,182.8 51,182.9 51,182.9 51,183 50.9,183.1 50.6,183.4 50.5,183.4 50.5,183.6 50.4,183.7 50.4,183.7 50.3,183.7 50.2,183.7 
		50.1,183.7 50,183.8 50,183.8 50,184 49.9,184.1 49.8,184.3 49.8,184.4 49.8,184.7 49.8,184.8 49.7,184.9 49.5,185.2 49.4,185.3 
		49.4,185.4 49.3,185.7 49.3,185.8 49.3,186 49.3,186.1 49.3,186.2 49.3,186.4 49.3,186.4 49.3,186.5 49.3,186.6 49.2,186.7 
		49.2,186.8 49.2,186.9 49.2,187 49.2,187.1 49.1,187.2 48.9,187.6 48.9,187.7 48.8,187.9 48.8,188 48.8,188.3 48.8,188.4 
		48.7,188.5 48.7,188.6 48.7,188.7 48.6,188.8 48.6,189 48.6,189.1 48.5,189.1 48.2,189.4 48.4,189.7 48.6,189.9 48.6,190 
		48.8,190.8 48.7,190.9 48.7,191 48.5,191.5 48.5,191.6 48.4,191.7 48.3,191.7 48.2,191.7 48.1,191.7 48,191.8 47.9,191.8 47.8,192 
		47.8,192.1 47.7,192.2 47.7,192.2 47.9,192.5 47.9,192.7 47.9,192.8 47.9,192.9 47.9,192.9 47.8,193 47.8,193.1 47.7,193.3 
		47.6,193.4 47.6,193.4 47.5,193.4 47.4,193.5 47.3,193.5 47.3,193.6 47.3,193.7 47.3,193.7 47.3,193.8 47.3,194 47.4,194.2 
		47.3,194.4 47.3,194.4 47.2,194.4 47.1,194.4 47.1,194.4 47,194.4 47,194.4 46.9,194.5 46.9,194.5 46.8,194.5 46.7,194.5 
		46.5,194.9 46.9,195.4 47,195.7 47.2,196.2 47.9,196.4 48.1,196.5 48.4,196.7 48.5,196.8 48.7,196.9 48.9,197 49.1,197 49.1,196.9 
		49.1,196.9 49.1,196.8 49.1,196.7 49.2,196.7 49.2,196.6 49.5,196.5 49.5,196.5 49.6,196.5 49.9,196.4 50.1,196.5 50.2,196.5 
		50.3,196.5 50.3,196.6 50.4,196.6 50.5,196.7 50.8,196.8 50.8,196.8 51,197 51.2,197.2 51.5,197.1 51.6,197.2 51.7,197.3 
		51.8,197.3 52.2,197.1 52.4,197.1 52.5,197 52.6,196.9 52.6,196.8 52.7,196.7 52.9,196.6 53.5,196.3 53.6,196.2 53.7,196 53.9,196 
		54.3,195.9 54.4,195.8 54.5,195.8 54.5,195.7 54.6,195.6 54.6,195.4 54.6,195.2 54.6,194.8 54.7,194.4 54.7,194.3 54.7,193.8 
		54.7,193.7 54.8,193.6 54.8,193.5 54.9,193.4 55,193.4 55.2,193.4 55.3,193.4 55.3,193.4 55.4,193.4 55.4,193.5 55.4,193.5 
		55.5,193.6 55.5,193.7 55.5,193.9 55.5,194 55.5,194 55.5,194.1 55.6,194.1 55.7,194.1 55.8,194.1 55.9,194.2 55.9,194.2 56,194.2 
		56,194.3 56,194.4 56,194.4 56,194.5 56,194.6 56.1,194.6 56.1,194.7 56.2,194.7 56.3,194.7 56.3,194.7 56.4,194.8 56.8,195 
		56.8,195 56.8,195.1 56.9,195.2 56.9,195.2 56.9,195.3 56.9,195.4 56.9,195.5 56.9,195.6 56.9,195.6 57,195.9 57,195.9 57,196 
		57.1,196 57.2,196.1 57.3,196.1 57.3,196 57.3,195.8 57.4,195.7 57.4,195.7 57.4,195.6 57.5,195.4 57.7,195.2 57.8,195.1 57.8,195 
		58,194.2 58,194 58,193.9 58,193.8 58,193.8 58,193.7 58.1,193.6 58.2,193.4 58.3,193.4 58.3,193.4 58.4,193.5 58.5,193.5 
		58.5,193.6 58.6,193.6 58.7,193.5 58.8,193.4 58.9,193.4 58.9,193.4 59,193.4 59,193.4 59.2,193.7 59.2,193.7 59.3,193.7 
		59.4,193.7 59.4,193.7 59.5,193.7 59.6,193.8 59.7,193.9 59.9,193.9 60.9,193.5 61.1,193.4 61.1,193.5 61.2,193.5 61.3,193.8 
		61.3,193.9 61.3,194 61.3,194.1 61.3,194.1 61.4,194.2 62,194.7 62.2,194.8 62.2,194.9 62.2,194.9 62.2,195 62.2,195.1 62.2,195.2 
		62.3,195.2 62.3,195.3 62.4,195.3 62.4,195.3 62.5,195.3 62.5,195.4 62.6,195.4 62.6,195.5 62.7,195.6 62.7,195.6 62.8,195.7 
		63.2,195.7 63.4,195.5 63.5,195.4 63.6,195.4 64,195.3 64.1,195.3 64.2,195.3 64.6,195.5 64.7,195.5 64.8,195.6 65.1,195.6 
		65.3,195.6 65.4,195.6 65.5,195.3 65.5,195.3 65.7,195.1 65.9,194.8 65.9,194.8 66,194.7 65.9,194.7 65.9,194.6 65.9,194.5 
		65.9,194.5 66.1,194.3 66.2,194.2 66.5,194.2 66.6,194.2 66.7,194.2 66.9,194.3 66.9,194.3 67,194.3 67.2,194.3 67.3,194.3 
		67.4,194.3 67.4,194.4 67.5,194.5 67.6,194.6 68,194.8 68.1,194.9 68.2,195 68.3,195 68.5,195 68.6,195 68.6,195 68.8,194.9 
		68.9,194.8 68.9,194.8 69,194.7 69.1,194.7 69.1,194.6 69.2,194.5 69.2,194.4 69.3,194.4 69.4,194.4 69.4,194.4 69.5,194.5 
		69.5,194.5 69.6,194.6 69.7,194.6 69.9,194.6 70.2,194.7 70.3,194.6 70.3,194.6 70.3,194.5 70.4,194.5 70.3,194.3 70.3,194 
		70.3,194 70.2,193.9 70.2,193.8 70.2,193.7 70.2,193.7 70.2,193.6 70.3,193.5 70.3,193.5 70.3,193.4 70.3,193.3 70.3,193.2 
		70.3,193.1 70.4,193 70.5,193 70.6,193 70.6,193 70.8,193.2 71,193.2 71.4,193.3 71.5,193 	"/>
	<path class="st25" d="M19.6,163.1l0-0.4l-0.1-0.2l-0.2-0.1l-0.3-0.1l0.1-0.1l-0.4-0.2l-0.2-0.2l-0.1-0.3l-0.1-0.4l-0.1-0.2l0-0.1
		L18,161l0,0.1l0.1,0.2l0,0.2l-0.1,0.1l-0.5,0.2l0,0.1l0,0.1l0,0.1l-0.1,0.1l-0.1,0l-0.3,0l-0.8,0.2l-0.2-0.5l-0.5,0l-0.6,0.1
		l-0.5-0.2l0,0.7l0.1,0.3l0.2,0.3l0.3,0.2l0.6,0.2l0.3,0.2l0.1,0.2l0.1,0.6l0.1,0.3l0.2,0.2l0.1,0l0.2-0.1l0.3-0.1l0.3-0.1l0.3-0.6
		l0.3-0.1l0.3,0.1l0.4,0.2l0.3,0.1l0.1-0.3L19,164l0.2-0.1l0.2-0.1l0.1-0.1l0.1-0.1l0-0.1l0-0.1L19.6,163.1z M17.8,164.8l-0.3,0.2
		l-0.1,0.3L17,166l-0.1,0.4l0.4,0.2l0.1,0.1l0.1,0.1l0.2,0l0.1-0.1l0.1-0.2l0.1-0.2l0-0.1l0-0.2l-0.2-0.4l0-0.2l0-0.1l0.2-0.2
		l0.1-0.2l0.1-0.1l-0.1-0.1L17.8,164.8z M41.7,168.1l-0.4-0.3l-0.3-0.3l0-0.4l0.3-0.3l0.2-0.1l0.2-0.2l0-0.5l-0.1-0.4l-0.1-0.2
		l-0.2-0.1l-0.9,0.2l-0.3-0.1l-0.6-0.5l-0.4,0.1l-0.5,0.5l-0.4,0.1l-0.8-0.2l-0.3,0l-0.2,0.1l-0.1,0.1l-0.1,0l-0.2-0.3l0-0.2l0-0.5
		l0-0.2l0,0l0.1-0.2l0-0.2l0-0.2l-0.2-0.4l-0.1-0.2l0-0.2l-0.1-0.9l-0.2-0.4l-0.4-0.3l-0.2,0l-0.2,0l-0.2,0l-0.2-0.1l-0.1-0.2l0-0.4
		l0-0.1l-0.3,0l-1.2,0.9l-0.3,0l-0.3-0.1l-0.6-0.3l-1.2-0.3l-0.3-0.2l-0.6-0.4l-0.3-0.1l-0.5,0.1l-0.3,0l-0.4-0.1l-0.2-0.1l0,0.3
		v0.1l0,0.2l-0.2,0.8l-0.1,0.1l-0.1,0.1l-0.4,0.3l-0.2,0.2l-2.1,2.4l0,0.1l0,0.1l0,0.2L25,165l-0.1,0.2l0,0l0,0l0.6,0.4l0.3,0.3
		l0.2,0.8l0.7,1.2l0.3,0.8l0.2,0.4l0.3,0.4l0.2,0.3l0.5,3.8l-0.2,2.2l0.1,0.1l0.2,0.1l0.1,0.1l0,0.2l-0.2,0.1l-0.2,0l-0.2-0.1
		l-0.2-0.1l0.1,1.6l0.1,0.3l0,0l2.7,0.2l0.3,0l0.3,0.1l-0.1,0.2l0,0.2l0,1.1l0.3,3.9l0.3,2.2v0.1l0,0.1l0,0.1l-0.1,0l-0.1,0l-0.1,0
		l-0.2,0l-0.6-0.1l0.1,0.5l0.1,0.2l0.1,0l0.2,0.1l0.2,0.1l0.1,0.1l0.1,0l0.1,0l0.1,0l0.1,0l0,0l0.3-0.3l0.3-0.2l0,0l0-0.1l0.1-0.3
		l0.1-0.2l1.3-1.2l0.1-0.1l0,0l0,0l0.1-0.3l0.1-0.3l0.1-0.1l0.1-0.1l0.5-0.3l0.1-0.1l0.1-0.1l0-0.1l0-0.2l0.2-0.3l0.1-0.1l0.6-0.1
		l0.5-0.1l0.2-0.1l0.1-0.1l0.2-0.3l0.1-0.1l0.1-0.1l0-0.1l0.1-0.5l0-0.2l0-0.2l0-0.2l0.1-0.7l0.1-0.3l0.1-0.1l0.1-0.2l0.1-0.1l0.1,0
		l0.1,0l0.1,0.1l0.1,0l0.1-0.1l0.2-0.2l0.1-0.2l0.1-0.3l0.1-0.2l0-0.1v-0.2l0-0.3v-0.1l0-0.1l0-0.1l0,0l-0.1,0l-0.1,0l-0.1,0
		l-0.1-0.1l0-0.1l0-0.2l0-0.1l0-0.1l0.2-0.1l0.1-0.2l0.1-0.1l0.2-0.2l0.1-0.1l0-0.1l0.3-1.1l0-0.1l0,0l0,0l0,0l-0.2-0.1l0,0
		l-0.1-0.1l-0.1-0.1l0-0.1l-0.1-0.3l0-0.1l0,0l0.1,0l0.1,0l0.1,0l-0.1-0.2l0-0.2l0-0.2l0.1-0.2l0.8-1.6l0.3-0.2l0.4-0.1l0.3-0.1
		l0.1-0.3l0-0.4l0.1-0.6l0-1.1l0.1-0.7L41.7,168.1z"/>
	<polygon class="st25" points="52.8,225.8 52.9,225.8 53.4,225.8 53.5,225.8 53.6,225.8 53.6,225.8 53.7,225.9 53.7,226 53.8,226 
		53.8,225.9 53.9,225.9 53.9,225.8 53.9,225.7 54,225.7 54.1,225.7 54.1,225.6 54.2,225.6 54.2,225.5 54.2,225.4 54.1,224.7 
		54,224.3 54,224.1 54,224 54.1,223.9 54.1,223.9 54.2,223.8 54.2,223.5 54.2,223.5 54.4,223.3 54.4,223.3 54.4,223.2 54.4,223.1 
		54.4,223 54.3,222.8 54.2,222.6 54.1,222.5 54.1,222.5 54,222.4 53.9,222.4 53.8,222.5 53.7,222.6 53.5,222.6 53.4,222.6 
		52.9,222.4 52.7,222.2 52.6,222.1 52.6,222.1 52.5,222.2 52.5,222.2 52.4,222.3 52.1,222.4 52.1,222.5 52.1,222.5 52,222.6 
		51.8,223.1 51.7,223.1 51.8,223.8 51.8,223.9 51.9,224 51.9,224.1 52,224.1 52.1,224.2 52.3,224.3 52.4,224.4 52.4,224.4 
		52.4,224.5 52.4,224.6 52.4,224.7 52.4,224.7 52.5,224.7 52.5,224.7 52.5,224.8 52.6,224.9 52.6,225 52.6,225 52.6,225.1 
		52.4,225.2 52.4,225.3 52.4,225.3 52.4,225.4 52.5,225.6 52.5,225.7 52.5,225.7 52.6,225.8 52.7,225.8 	"/>
	<path class="st25" d="M99.1,231.1l0,0.2l0.1,0.2l0.4,0.4l0.3,0.1l0.4,0l0.4-0.1l0.2-0.2l0-0.2l0-0.9l-0.2-0.8l-0.1-0.2l-0.2-0.4
		l-0.1-0.1l0-0.2l0-0.1l-0.1-0.1l-0.2,0l-0.2,0.1l-0.1,0.2l0,0.2l0,0.3l0.1,0.3v0.3l-0.2,0.3l-0.1,0.1l-0.2,0.1l-0.1,0.1l0,0.2
		l0.1,0.3L99.1,231.1z M98.4,239.6l0.2,0.2l0.3,0.2l0.3,0.1l0.1-0.1l0.1-0.3l-0.2-0.2l-0.3-0.1l-0.1,0l-0.1,0l-0.1,0l-0.1,0.1
		L98.4,239.6L98.4,239.6z M95,232.5L95,232.5l0-0.1l0.1,0.1l0.1-0.1l0-0.2l-0.1-0.1l-0.2-0.1l-0.1,0.2L95,232.5L95,232.5z
		 M106.7,236.6l-0.1-0.2l-0.1-0.1l-0.3,0l-0.1,0.2l0,0.1l0,0.1l0.2,0.1l0.1,0.1l0.2,0.2l0.3-0.1l0.1-0.4L106.7,236.6z M103,234.2
		L103,234.2l-0.1-0.1l-0.2-0.1l-0.2,0v0.2l0.1,0.1l0.2,0.2l0.2,0.1l0.2-0.2l-0.1-0.1L103,234.2z M102,254.3l-0.4-1l-0.1-0.8
		l-0.1-0.3l0.1-0.2l-0.2-0.2l-0.2-0.3l-0.1-0.3l0-0.6l-0.1-0.3l-0.4-0.5l-0.2-0.9l-0.5-0.9h-0.1l-0.2,0.2l-0.3-0.2l-0.2-0.4
		l-0.1-0.4l0.1-0.8l0-0.4l-0.2-0.4l-0.1-0.2l-0.4-0.5l-0.1-0.2l-0.2-0.5l-0.3-0.5l-0.5-1.2l-0.9-1.1l-0.1-0.4l0-0.2l0.2-0.4l0-0.2
		l-0.1-0.2l-0.3-0.4l-0.1-0.2l0-0.2l0-0.4l-0.1-0.2l-0.1-0.1l-0.4-0.3l-0.2-0.2l-1.4-1.7l-0.1-0.3l0-0.4l0.2-0.4l-0.5-1.1l-0.2-0.3
		l-0.7-0.5l-0.1-0.2l0-0.2l0-0.1l-0.3-0.1l-0.5,0.2l-0.2,0l-0.2-0.1l-0.3-0.3l-0.1-0.1l-0.3,0l-0.3-0.1l-0.2-0.1l-0.1,0.1l-0.2,0.3
		l0,0l-0.4,0.2l-0.1,0.1l0,0.1l0,0.1l0,0l0.2,0.1l0,0l0,0l0,0.1l0,0.1l0,0.1l0,0l0,0.1l0,0.1l0,0.1l0,0.1l0,0l-0.1,0.1l0,0l0,0
		l0,0.1l0.1,0.2l0,0l0,0l0,0l-0.1,0.1l0,0.1l0,0.1l0,0l0,0l0,0l0,0.1l0,0l0.1,0l0.2,0l0.1,0l0.1,0l0.1,0.1l0.1,0.1l0,0.1l0,0.1
		l0,0.1l0,0.1l0,0.1l0,0.1l-0.2,0.3l0,0l0,0v0l0,0.1l0,0.1l-0.1,0l-0.2-0.1l-2.7-1.6l0,0l-0.1-0.1l-0.2-0.2l-0.1-0.1l-1.1-0.4
		l-0.2-0.2l-0.2-0.1l-0.3,0l-0.8,0.2l-2.8,1l-0.1,0l-0.1,0l-3-1.2l-0.7-0.5l-2.7-3.2l-0.3-0.2l-1-0.4l-0.8-0.3l-0.1,0.6l-1.1,2.8
		l-0.2,0.5l0,0.1l0,0.1l0.1,0.1l0.1,0.1v0.1l0,0.1l-0.1,0.1l-0.1,0.1l-0.1,0.1l-0.1,0.3l0,0.2l0,0.2l0,0.1l0,0.1l0,0.1l0,0.1l0,0.1
		l-0.1,0.2l0,0.1l0,0.2l0.1,0.2l0,0.1l0,0.1l0,0.1l-0.2,0.3l-0.1,0.2l-0.1,0.5l-0.4,0.3l-0.4,0.2l-0.2,0.1l-0.4,0.5l-0.1,0.2l0,0.1
		l0,0.1l0,0.2l0,0.1l0,0.1l-0.4,1l0,0.2l0,0.1l0,0.1l0,0.1l0,0.1l0,0.1l0,0.1l0,0.1l-0.3,0.3l0,0.1l0,0.1l0.1,0.1l0,0.1l0,0l0,0
		l0.1,0l0.3,0.1l0.1,0.1l0.1,0l0.1,0l0.1,0l0,0l0,0.1l0,0.2l0,0.4l-0.1,0.2l-0.1,0.1l-0.1,0l-0.2,0l-0.2,0.1l-0.3,0.5l0,0l0,0
		l0.7,0.4l0.3,0.2l0.2,0.2l0,0.1l0,0.1l0,0.1l-0.2,0l0.1,0.2l0.2,0.2l1.5,1.2l0.3,0.4l0.4,0.8l0.2,0.4l0.4,0.2l0.3,0l0.9-0.1
		l0.3-0.1l0.6,0.3l0.5,0.3l0.5,0.4l0.4,0.4l0.3,0.5l0.2,0.2l0.3,0.1l0.4,0l0.4,0.1l0.8,0.4l3.2,2l2.2,0.8l0.8,0.5l0.5,0.6l0.4,0.7
		l0.6,2l0.2,0.4l0.3,0.4l0.7,0.6l0.2,0.4l0.3-0.7l0.3-0.5l0-0.2l0-0.2l-0.1-0.3l0-0.2l0.1-0.1l0.1,0.1l0.1,0.2l0,0.1l0.7,0.1
		l0.6-0.4l1-1.2l0.3-0.2l0.3,0l0.8,0.1l0.4-0.1l0.8-0.4l0.5,0l1.6,0.8l0.9,0.2l0.7-0.5l0.1-0.3l0-0.3l-0.1-0.3l0-0.2l0.1-0.5l0-0.3
		l-0.7-1.1l-0.2-0.5l0.1-0.2l0.4,0.3l0.4,0.7l0.6,1.2l0.1,0.3l0.1,0.1l0.1-0.1l0.6-0.5l0.3-0.2l0.3-0.1l0.4,0.1l-0.5,0.5l-0.7,0.3
		l-0.5,0.3l0.1,0.7l0.2,0.2l0.3,0.2l0.2,0.2l0.1,0.3l0,0.4l0,0.2l0.1,0.1l0.8,0.3l0.4,0.1l0.9,0l0.1-0.1l0.2-0.3l0.1-0.1h0.7
		l0.1-0.3l-0.1-0.8l0.2-0.2l0.1-0.2l0-0.5L102,254.3z M85.6,258l0,0.4l0.1,0.1h0l0.2-0.1l0.1-0.2l-0.2-0.3L85.6,258z"/>
</g>
<rect x="52.6" y="200.8" class="st4" width="60.1" height="26.2"/>
<text transform="matrix(1 0 0 1 52.599 207.2867)"><tspan x="0" y="0" class="st42 st10 st43">Kuala</tspan><tspan x="0" y="10.8" class="st42 st10 st43">Lumpur</tspan></text>
<g>
	<circle cx="54.3" cy="222.7" r="4"/>
	<polygon class="st14" points="54.3,218.7 55.1,221.4 58.1,221.4 55.6,223 56.6,225.8 54.3,223.9 52,225.8 53.1,223 50.6,221.4 
		53.3,221.5 	"/>
</g>
<circle cx="92.8" cy="250.5" r="4"/>
<g>
	<line class="st40" x1="60.3" y1="447.5" x2="93.8" y2="447.5"/>
	<line class="st40" x1="59.9" y1="451.1" x2="114.6" y2="451.1"/>
	<line class="st41" x1="60.3" y1="443.8" x2="60.3" y2="448"/>
	<line class="st41" x1="93.8" y1="443.8" x2="93.8" y2="447.8"/>
	<rect x="58.2" y="436.5" class="st4" width="115" height="8.3"/>
	<text transform="matrix(1 0 0 1 58.2187 442.2141)" class="st10 st44">0          200 km</text>
	<rect x="58.2" y="456" class="st4" width="121" height="8.5"/>
	<text transform="matrix(1 0 0 1 58.2187 461.7526)" class="st10 st44">0                    200 mi</text>
	<line class="st41" x1="60.1" y1="450.7" x2="60.1" y2="454.9"/>
	<line class="st41" x1="114.5" y1="451.1" x2="114.5" y2="454.5"/>
	<line class="st41" x1="77" y1="443.9" x2="77" y2="447.9"/>
	<line class="st41" x1="87.6" y1="450.8" x2="87.6" y2="454.8"/>
</g>
<circle cx="48.3" cy="228.7" r="4"/>
<rect x="98.4" y="234" class="st4" width="26.7" height="24.1"/>
<text transform="matrix(1 0 0 1 98.4046 240.4535)"><tspan x="0" y="0" class="st42 st10 st43">Johor</tspan><tspan x="0" y="10.8" class="st42 st10 st43">Bahru</tspan></text>
<rect x="18.7" y="223.6" class="st4" width="26.7" height="9.8"/>
<text transform="matrix(1 0 0 1 18.7375 230.087)" class="st42 st10 st43">Klang</text>
<rect x="398.9" y="141.6" class="st4" width="273.9" height="188.8"/>
<text transform="matrix(1 0 0 1 398.8647 149.4818)"><tspan x="0" y="0" class="st45 st10 st11">Malaysia has a population of over 30 million, Malaysia </tspan><tspan x="0" y="13.2" class="st45 st10 st11">is the world&apos;s 44th most populous country. The </tspan><tspan x="0" y="26.4" class="st45 st10 st11">southernmost point of continental Eurasia, Tanjung Piai, </tspan><tspan x="0" y="39.6" class="st45 st10 st11">is in Malaysia. In the tropics, Malaysia is one of 17 </tspan><tspan x="0" y="52.8" class="st45 st10 st11">megadiverse countries, with large numbers of endemic </tspan><tspan x="0" y="66" class="st45 st10 st11">species</tspan><tspan x="37.3" y="66" class="st45 st46 st11">. Source: Wikipedia        </tspan></text>
</svg>
