<?xml version="1.0" encoding="utf-8"?>
<!-- Generator: Adobe Illustrator 23.0.1, SVG Export Plug-In . SVG Version: 6.00 Build 0)  -->
<svg version="1.1" id="Layer_1" xmlns="http://www.w3.org/2000/svg" xmlns:xlink="http://www.w3.org/1999/xlink" x="0px" y="0px"
	 viewBox="0 0 720 515.3" style="enable-background:new 0 0 720 515.3;" xml:space="preserve">
<style type="text/css">
	.st0{display:none;}
	.st1{fill:none;}
	.st2{fill:#A8A8A8;}
	.st3{fill:#89CCA3;stroke:#0FB753;stroke-width:0.25;stroke-miterlimit:10;}
	.st4{fill:#143C75;}
	.st5{font-family:'Bulo-Black';}
	.st6{font-size:14.5939px;}
	.st7{font-size:36px;}
	.st8{fill:#565556;}
	.st9{font-family:'ArialMT';}
	.st10{font-size:11px;}
	.st11{font-size:15px;}
	.st12{fill:#E5367A;}
	.st13{fill:#606060;}
	.st14{fill:#3D3D3D;}
	.st15{font-family:'Arial-BoldMT';}
	.st16{fill:#FFFFFF;}
	.st17{fill:#8D90C7;stroke:#FFFFFF;stroke-width:0.5;stroke-miterlimit:10;}
	.st18{fill-rule:evenodd;clip-rule:evenodd;fill:#8D90C7;stroke:#FFFFFF;stroke-width:0.5;stroke-miterlimit:10;}
	.st19{fill-rule:evenodd;clip-rule:evenodd;fill:#F8A25E;stroke:#FFFFFF;stroke-width:0.5;}
	.st20{fill-rule:evenodd;clip-rule:evenodd;fill:#3A9DB4;stroke:#FFFFFF;stroke-width:0.5;stroke-miterlimit:10;}
	.st21{fill:#3A9DB4;stroke:#FFFFFF;stroke-width:0.5;stroke-miterlimit:10;}
	.st22{fill-rule:evenodd;clip-rule:evenodd;fill:#F1E355;stroke:#FFFFFF;stroke-width:0.5;stroke-miterlimit:10;}
	.st23{fill:#F1E355;stroke:#FFFFFF;stroke-width:0.5;stroke-miterlimit:10;}
	.st24{fill-rule:evenodd;clip-rule:evenodd;fill:#D96CA9;stroke:#FFFFFF;stroke-width:0.5;stroke-miterlimit:10;}
	.st25{fill:#D96CA9;stroke:#FFFFFF;stroke-width:0.5;stroke-miterlimit:10;}
	.st26{fill:#D96CA9;}
	.st27{fill:#9ECF85;stroke:#FFFFFF;stroke-width:0.5;stroke-miterlimit:10;}
	.st28{fill-rule:evenodd;clip-rule:evenodd;fill:#9ECF85;stroke:#FFFFFF;stroke-width:0.5;stroke-miterlimit:10;}
	.st29{fill:#73AFDF;}
	.st30{fill-rule:evenodd;clip-rule:evenodd;fill:#F49294;stroke:#FFFFFF;stroke-width:0.5;}
	.st31{fill:#F49294;stroke:#FFFFFF;stroke-width:0.5;}
	.st32{fill:#77AE87;stroke:#FFFFFF;stroke-width:0.5;stroke-miterlimit:10;}
	.st33{fill-rule:evenodd;clip-rule:evenodd;fill:#77AE87;stroke:#FFFFFF;stroke-width:0.5;stroke-miterlimit:10;}
	.st34{fill-rule:evenodd;clip-rule:evenodd;fill:#D0B0CE;stroke:#FFFFFF;stroke-width:0.5;}
	.st35{fill:#D0B0CE;stroke:#FFFFFF;stroke-width:0.5;}
	.st36{fill:#BF84BE;}
	.st37{fill:#F37B58;stroke:#FFFFFF;stroke-width:0.5;stroke-miterlimit:10;}
	.st38{fill-rule:evenodd;clip-rule:evenodd;fill:#F37B58;stroke:#FFFFFF;stroke-width:0.5;stroke-miterlimit:10;}
	.st39{fill:#F37B58;}
	.st40{fill-rule:evenodd;clip-rule:evenodd;fill:#F6B3CD;stroke:#FFFFFF;stroke-width:0.5;stroke-miterlimit:10;}
	.st41{fill:#F6B3CD;stroke:#FFFFFF;stroke-width:0.5;stroke-miterlimit:10;}
	.st42{fill:none;stroke:#000000;stroke-width:0.75;stroke-miterlimit:10;}
	.st43{fill:none;stroke:#000000;stroke-width:0.5;stroke-miterlimit:10;}
	.st44{fill:#33353D;}
	.st45{font-size:9px;}
</style>
<g id="Panama_1_" class="st0">
	
		<image style="display:inline;overflow:visible;" width="635" height="324" id="Layer_0_7_" xlink:href="AA4D6B6D6644FC63.png"  transform="matrix(0.6188 0 0 0.6188 2.3787 113.4014)">
	</image>
</g>
<text transform="matrix(1 0 0 1 399.7652 433.6366)" class="st4 st5 st6">Life Expectancy</text>
<text transform="matrix(1 0 0 1 399.7652 297.4646)" class="st4 st5 st6">Cost of Living</text>
<text transform="matrix(1 0 0 1 399.7652 342.287)" class="st4 st5 st6">Healthcare</text>
<text transform="matrix(1 0 0 1 399.7652 388.0098)" class="st4 st5 st6">Crime</text>
<rect x="397.3" y="138.5" class="st1" width="286.7" height="136"/>
<text transform="matrix(1 0 0 1 397.3333 163.893)" class="st4 st5 st7">P</text>
<text transform="matrix(1 0 0 1 418.3333 163.893)" class="st8 st9 st10">anama dolor sit amet, consectetuer adipiscing elit, </text>
<text transform="matrix(1 0 0 1 397.3333 177.093)" class="st8 st9 st10">sed diam nonummy nibh euismod tincidunt ut laoreet </text>
<text transform="matrix(1 0 0 1 397.3333 190.293)" class="st8 st9 st10">dolore magna aliquam erat volutpat. Ut wisi enim ad minim </text>
<text transform="matrix(1 0 0 1 397.3333 203.4927)" class="st8 st9 st10">veniam, quis nostrud exerci tation ullamcorper suscipit </text>
<text transform="matrix(1 0 0 1 397.3333 216.6928)" class="st8 st9 st10">lobortis nisl ut aliquip ex ea commodo consequat. Duis </text>
<text transform="matrix(1 0 0 1 397.3333 229.8927)" class="st8 st9 st10">autem vel eum iriure dolor in hendrerit in vulputate velit </text>
<text transform="matrix(1 0 0 1 397.3333 243.0928)" class="st8 st9 st10">esse molestie uis autem vel eum iriure dolor in hendrerit in </text>
<text transform="matrix(1 0 0 1 397.3333 256.2928)" class="st8 st9 st10">vulputate velit esse molestie</text>
<text transform="matrix(1 0 0 1 399.3329 21.3338)" class="st4 st5 st11">Capital:</text>
<text transform="matrix(1 0 0 1 448.3329 21.3338)" class="st12 st5 st11"> </text>
<text transform="matrix(1 0 0 1 451.2329 21.3338)" class="st13 st9 st10">Panama City</text>
<text transform="matrix(1 0 0 1 399.3329 39.3338)" class="st4 st5 st11">Population:</text>
<text transform="matrix(1 0 0 1 473.8329 39.3338)" class="st12 st9 st10"> </text>
<text transform="matrix(1 0 0 1 476.9329 39.3338)" class="st13 st9 st10">3,800,644</text>
<text transform="matrix(1 0 0 1 399.3329 57.3338)" class="st4 st5 st11">Language:</text>
<text transform="matrix(1 0 0 1 465.1329 57.3338)" class="st14 st9 st10"> </text>
<text transform="matrix(1 0 0 1 468.1329 57.3338)" class="st13 st9 st10">English 62.9% (official), Spanish 56.6%, </text>
<text transform="matrix(1 0 0 1 399.3329 70.5338)" class="st13 st9 st10">Creole 44.6% </text>
<text transform="matrix(1 0 0 1 399.3329 88.5338)" class="st4 st5 st11">Climate:</text>
<text transform="matrix(1 0 0 1 452.733 88.5338)" class="st12 st15 st10"> </text>
<text transform="matrix(1 0 0 1 455.8329 88.5338)" class="st13 st9 st10">Spanish (official), indigenous languages </text>
<text transform="matrix(1 0 0 1 399.3329 101.7338)" class="st13 st9 st10">(including Ngabere (or Guaymi)</text>
<path class="st2" d="M635,309.7H399.3c-1.1,0-2-0.9-2-2l0,0c0-1.1,0.9-2,2-2H635c1.1,0,2,0.9,2,2l0,0
	C636.9,308.8,636,309.7,635,309.7z"/>
<path class="st3" d="M470.6,312.5h-69.3c-2.2,0-3.9-1.8-3.9-3.9v-1.8c0-2.2,1.8-3.9,3.9-3.9h69.3c2.2,0,3.9,1.8,3.9,3.9v1.8
	C474.5,310.7,472.7,312.5,470.6,312.5z"/>
<path class="st2" d="M635,354.9H399.3c-1.1,0-2-0.9-2-2l0,0c0-1.1,0.9-2,2-2H635c1.1,0,2,0.9,2,2l0,0C636.9,354,636,354.9,635,354.9
	z"/>
<path class="st3" d="M513.2,358H401.3c-2.2,0-3.9-1.8-3.9-3.9V352c0-2.2,1.8-3.9,3.9-3.9h111.9c2.2,0,3.9,1.8,3.9,3.9v2.1
	C517.1,356.2,515.4,358,513.2,358z"/>
<path class="st2" d="M635,400.2H399.3c-1.1,0-2-0.9-2-2l0,0c0-1.1,0.9-2,2-2H635c1.1,0,2,0.9,2,2l0,0
	C636.9,399.3,636,400.2,635,400.2z"/>
<path class="st3" d="M541.4,403.1H401.3c-2.2,0-3.9-1.8-3.9-3.9v-1.8c0-2.2,1.8-3.9,3.9-3.9h140.1c2.2,0,3.9,1.8,3.9,3.9v1.8
	C545.3,401.3,543.6,403.1,541.4,403.1z"/>
<path class="st2" d="M635,446.1H399.3c-1.1,0-2-0.9-2-2l0,0c0-1.1,0.9-2,2-2H635c1.1,0,2,0.9,2,2l0,0
	C636.9,445.2,636,446.1,635,446.1z"/>
<path class="st3" d="M596.5,449.1H401.3c-2.2,0-3.9-1.8-3.9-3.9v-1.8c0-2.2,1.8-3.9,3.9-3.9h195.2c2.2,0,3.9,1.8,3.9,3.9v1.8
	C600.4,447.4,598.6,449.1,596.5,449.1z"/>
<polygon class="st4" points="653.4,296.7 653.4,303.2 644.2,308 653.4,312.2 653.4,318.6 675.3,318.6 675.3,296.7 "/>
<polygon class="st4" points="653.4,341.9 653.4,348.4 644.2,353.2 653.4,357.3 653.4,363.8 675.3,363.8 675.3,341.9 "/>
<polygon class="st4" points="653.4,387.3 653.4,393.7 644.2,398.5 653.4,402.7 653.4,409.2 675.3,409.2 675.3,387.3 "/>
<polygon class="st4" points="653.4,433.2 653.4,439.7 644.2,444.4 653.4,448.6 653.4,455.1 675.3,455.1 675.3,433.2 "/>
<text transform="matrix(1 0 0 1 657.7631 311.5071)" class="st16 st15 st10">30</text>
<text transform="matrix(1 0 0 1 658.7634 356.9701)" class="st16 st15 st10">45</text>
<text transform="matrix(1 0 0 1 657.7629 402.0516)" class="st16 st15 st10">56</text>
<text transform="matrix(1 0 0 1 657.7633 448.093)" class="st16 st15 st10">83</text>
<g id="Panama">
	<path id="Veraguas" class="st32" d="M104.3,274.4l-1.9,0.2l-0.7-0.4h-0.4l-0.5,0.4l-0.4-0.2l-0.3-0.6l-0.1-0.7l-0.2-0.6l-1.1-1
		l-0.4-0.8l0.1-0.3l0.5-1.9l0.1-0.4l2-0.8l0.4-0.3l-0.1-1l-0.2-0.4l-0.4-0.2l-0.6-0.4l-0.2,0l-0.5,0.1l-0.2,0l0-0.2l0.1-0.5l0-0.2
		l-0.5-0.8l-0.1-0.1l-0.1-0.7l-1.4-4.1l-0.2,0.1l-0.2,0l-0.1,0.1l0,0.3h-0.4v-0.5h-0.5l0.2,0.5l0.1,0.8l0.2,0.5h-0.5l0-0.2l-0.6,0.3
		l-1.8,1.3l-1.2,0.2l-0.5,0.3l-0.3,0.6l-0.1,0.5l0,0.6l-0.2,0.7l-0.1,0.1l-0.8,1.4l0,0.2l-0.6,0.2l-1.3,0l-0.2,0l0.5,1.7l0.1,0.3
		l0.5,0.5l1.4,3l2.6,2.2l1.2,0.7l1.5,1.7l0.7,0.6l1.2,0.3l2.7,0.2l2.2,1.3l1.3,0l1.4-0.4l1.2-0.5l-1.8-3.3L104.3,274.4z M93.8,281
		l-0.5-0.1l-0.6,0.2l0-0.3l-0.1-0.1l-0.2,0l-0.2,0l-0.3,0.4l0,0.2l0.3,0.4l-0.1,0.6l1,2.9h0.5l-0.2-0.5l-0.2-0.3l0.5-0.8l0.8-1.6
		l0.8-0.6l-0.9,0L93.8,281z M168.3,282.2l-0.4-0.9l-0.6-0.7l-1.3-1l-0.6-0.3l-0.9-0.3l0-0.3l0.1-0.7l0-0.9l-0.4-1.5l-1.6-2.2l-1-3.1
		l-0.4-2.7l0.1-1.8l-1.6-1.7l-0.4-0.2l-1.3-0.3l-1.9-1.1l-4.9-7.3l-0.4-0.8l-0.4-1.8l-0.4-1l-0.5-0.6l-0.3-0.3l-0.6-0.3l-1.5,0.4
		l-0.3-1.4l0.2-7.2l0.4-0.6l0.3-0.3l1.6-0.4l1.3-1.4l1.8-1.6l0.5-0.7l0.7-1.2l0.1-1l-1-2.8l2.3-0.9l2.3-0.9l1-0.9l1.4-1.7l0.6-0.2
		l0.9,0l0.6,0.1l1.4-0.1l-3-2l-0.3-1.1l1.6-3l0.9-3.2l0.3-2l-1.5-2.5l-2.4-6.5l-1.5-2.6l-1.3-1.7l-1.4-1.2l0.7-0.7l2-0.3l1.7-2.1
		l0.8-1.8l1-2l-0.1-0.4l-0.1-0.4l-0.3-0.4l-0.3-0.5l-0.2-1.2l0.2-0.8l0.4-0.8l0.3-1l-0.3-0.9l-0.4-0.7l-1.3-1.5l-0.5-0.3l-0.7-0.3
		l-1.1-0.4l-1.1-0.5L154,184l-0.5-0.4l-0.7-0.8l-0.4-0.7l-0.2-0.6l-0.1-1.3l0-0.2l0-0.5l-1.2,0l-1.1,0.4l-4.8,2l-4.9,1.6l-0.5,0.6
		l-0.6,0.4l-0.6,0.1l-0.5-0.2l-2.7,0.4l-2.8,0.3l-2.4,0.3l-0.2,0l0,0.2l0,0.3l-0.4,1.6l0.7,4.7l-0.2,3.9l0.3,2.4l0.4,1.3l0.5,0.8
		l0.5,0.5l0.3,0.5l0.2,0.6l0.5,1l1,1l-1.7,0.4h-0.5l-0.7-0.2l-1.4-0.6l-2.5-0.7l-1.1-0.7l-2.9-2.3l-0.6-0.1l-1.6,0.3l-3-0.2
		l-0.3-0.6l-0.4-0.2l-0.7-0.3l-1.9-0.5l-1.6-0.8l-0.1,2.6l-0.6,2.5l-1.5,3.5l-0.2,1.1l-0.1,0.9l0.3,3.2l0.2,2.4l0.4,2l0.2,1.9
		l-0.2,1.9l-0.2,0.3l-0.1,0.1l-0.4,0.3l-3.2,4l-1.6,1.5l-0.3,0.4l-0.3,0.6l-1.6,6.4l-0.1,0.8l-0.3,0.7l-0.3,0.5l-1.3,0.3l-0.1,0
		l1.1,1.5l0.2,0.7l0.1,0.5l0.2,0.3l0.3,0.2l0.5,0.1l0.2-0.2l-0.1-0.5l-0.3-0.9l0-0.8l0.1-0.1l0.4,0.1l0.8-0.3l-0.2,0.8l0.1,0.9
		l-0.3,0.5l0.9,0.8l0.3,0.4l0.2,0.6l-1.1-0.4l-0.4,0.6l-0.1,1.1l-0.2,1l0.9,0l0.5,0.3l0,0.5l-0.6,0.5v0.5l0.5,0.4h0.4l0.4-0.3
		l0.4-0.1l0.5,0.1l0.4,0.3v0.4l-0.9,1.1l-0.3,0.7l-0.1,1l0.3,0.7l0.6,0.6l0.3,0.5l-0.4,0.6v0.4l0.7,0.3l1.5,1l0.1-1.1l0.7-0.2
		l2.5,0.7l-0.7,0.7l-1.2,0.6l-0.5,0.2l0.1,0.9l1.4,0.6l1.9,0.2l1.5-0.4l0.5,0.3l0.5,0.5l0.4,0.6l0.3,0.7l1.7-0.2l5.2,1.5l1.5,0
		l0.8,0.3l0.3,0.8l0.4,0.1l2,1.1l0.5,0.4h0.5l0.3-0.4l0.8-0.6l0.2-0.3l0.1-0.6l0-0.4l-0.1-0.7l0.3-2.8l-0.3-0.7l-0.9,0.4l-0.8,0.5
		h-0.4l-0.4-0.5l-0.5-0.8l0.5,0.3l0.4,0l0.9-0.3l-0.7-1.2l-0.4-0.4L128,252v-0.5l0.9-0.1l0.9,0.1v0.5l-0.2,0.3l-0.1,0.2l0,0.3
		l0.3,0.5l1.3-1l1.4-1.4l0.6-1.7l-1.2-2.2l0.1-0.4l0.2-0.5l0.1-0.6l-0.2-0.1l-1.1-0.6l-1.1-1l-0.2-0.5l0.8-0.3l-0.1-0.4l-0.2-0.2
		l-0.6-0.3l1.1,0.2l0.2,0.9l0.3,1l1.6,0.5l0.8,0.1l0.8,0.6l0.6,0.1h2.9v-0.4l-0.5-0.2l-0.4-0.4l-0.2-0.5l-0.1-0.7h0.4l0.7,1.2l1-0.9
		l1.4-2.5l-0.1,3.9l0.4,1.7l1.4-0.8h0.4l-0.1,0.8l-0.4,0.4l-0.6,0.1h-0.8l-0.7,0.1l-0.4,0.3l-0.3,0.3l-0.4,0.1l-0.5,0.4l0,1l0.6,0.9
		l1.5,0.3l0,0.3l-0.1,0.1l-0.2,0l-0.2,0l0.4,0.3l0.5,0.2l0.6,0.1l0.7,0l-1.2,1.9l0.1,0.3l0.6,0.2l0.8,0.4l0.7,0.6l0.3,0.5l-0.8-0.2
		l-0.6,0.1l-0.5,0.4l-0.3,0.6l-0.1,0.6l0.2,0.2l0.5,0.1l0.6,0.4l3,3v0.4h-0.5v0.4l0.6,0.4l0.8,0.8l0.6,0.9l-0.1,0.7l-0.2,0.5
		l-0.1,0.6l-0.1,0.5l-0.8,0.4l0.3,0.5l0.5,0.4l0.2,0.1l2.3,2.5l0.3,0.8l-0.7,2l0,1.2l1.6,1l0.3,1l0,1.2l-0.2,0.8l-0.2,0.3l-0.7,0.5
		l-0.3,0.4l0,0.5l0.1,1.4l-0.3,0.3l-0.3,0.2l-0.3,0.4l0,0.4l0.6,0.2l0.6,0.1l0.6,0.2l0.5,0.3l0.3,0.3l1,1.7l0.7,0.4l0.9-0.9h0.4
		l0.3,0.4l0.3,0.1l0.3-0.1l0.3-0.4h0.4l1.3,0.4l5.1-0.2l6.9-1.3L168.3,282.2z M138.8,262.8l-0.8-0.3l-1.9,0.4l-1.1,0.4l-0.9,0.4
		l-0.5,0.6l-0.4,0.7l-0.7,0.6l-2.3,0.3l-0.8,0.3l-0.6,0.5l-0.6,0.6l-0.6,0.8l0.4,0l1.7-0.6l0.1,0.1l0.5,0.2l0.6,0.1h0.5l0.4-0.2
		l0.9-1l1.8-0.9l0.3-0.4l0.2-0.4l0.3-0.3l0.6-0.1l0.6,0l0.4,0.1l0.4,0.2l0.4,0.3l0.5,0.2l0.5-0.1l0.7-0.3l0.7-0.3l0.5-0.6l0.8-1.4
		l-1.8,0L138.8,262.8z"/>
	<path id="Guna_Yala" class="st32" d="M371.6,193.4l-0.4-0.2l-0.3-0.3l-0.2-0.3l-1.2,0.7l-2,0.1l-2.1-0.4l-1.5-0.8l-2-1.4l-0.8-0.7
		l0.3-0.7l0.1-1l0.2-1l-0.5-1.1l-0.6-0.1l-0.4,1.1l-1.2-1l0.2-1.1l-1.9-1.5l-0.2-0.4l-0.7-0.8l-0.7-0.6l-0.3,0.3l0.2,0.6l0.4,0.4
		l0.4,0.4l0.3,0.5l-1.2-0.6l-1.4-1.6l-1.3-1.2l-1.2-0.7l-0.1-0.9l-0.3-0.1l-0.6,0.5l-0.7-0.7l-0.9-2l-1.2-1.4l0.6-1.1l-0.2-0.6
		l-0.7-0.6l-0.5-0.7l-0.2-0.7l-0.9-0.8l-0.8-0.5l-0.6-0.7l-0.2-1.4l-1.7-1.2l-0.5-0.7l-0.8-1.5l-1.1-0.5l0.1,1l0.7,1.5l0.3,0.8
		l0.3,0.9l-2.2-1.5l-0.9-1.4l-0.9-1.1l-1.1-1.7l-2.1-2.4l-1.1-0.5l-0.8-0.1l-1.4-1.5l-0.2-0.8l-0.8-0.6l-1.2-0.4l-2-0.3l-1.6-0.4
		l-0.6-0.8l-1.1-0.7l-0.8-0.1l-0.8-0.4l-0.6-0.2l-1,0.2l-1-0.2l-1.1-0.7l-1-0.6l-0.8-0.5l-0.8-0.2l-0.6-0.1l-0.6-0.3l-1-0.4
		l-0.9-0.7l-1.3-0.7l-1.6-0.3l-0.9-0.3l-0.7-0.4l-1.7-0.8l-0.7-0.6l-0.7-0.7l-0.9-0.3l-0.7,0.3l-1-0.7l-2.1,0l-0.9-0.4l-1.2-0.8
		l-0.9-0.2l-1.1,0.4l-0.7,0.6l-0.9,0.4l-1-0.2l-0.8-0.6l-1.4,0.1l-2.1-0.6l-0.8,0.1l-1-0.5l-0.7-0.8l-0.8,0.4l-0.7,0.3l-0.7,0.1
		l-1.1-0.2l-0.5,0.6l-1.8,0.4l-1.2-0.3l-0.7,0.1l-0.3,0.6l-0.8,0.1l-0.6-0.2l-0.5,0l-0.8,0.1l-0.5,0.1l-0.3-0.5l-0.5-0.4l-0.6-0.5
		l-0.7-0.2l-1.1-0.5l-0.9,0l-0.7-0.2l-0.7,0.1l-0.8,0.1l-0.8,0.1l-0.7-0.3l-1,0.2l-1.1-0.4l-0.3-2.1l-0.2-1.5l0.7-1.2l1-0.2l1.9-0.2
		l0.7-0.1l0.6-0.5l0.8,0.2l1.1-0.6l0-0.7l-0.8-0.5l-2.7,0.2l-2.2,0.4l-1.6,0.1l0,1.3l0,5.4l-0.2,0.4l-0.5,0.1l-0.5,0.1l-0.4,0.1
		l-0.7,0.4l-0.5,0.5l-0.7,1l-0.2,0.6l-0.1,1l-0.1,0.4l-0.2,0.4l-0.4,0.4l-0.6,0.3l-1.2,0.4l-1,0.5l-1.7,1.1l-1.2,1l-0.3,0l-0.2-0.6
		l-1.2,0.6l-0.4,0.5l-0.4,0.7l-0.1,0.7l0.1,0.4l0.5,0.4l2.1-0.4l4.3-1.4l0.9-0.1l0.8,0l0.9,0.1l0.8,0.2l1.4,0.6l0.5,0.5l0.4,0.5
		l0.4,0.3l0.9,0.1l2.9-0.1l0.6-0.2l0.3-0.2v-0.3l-0.2-0.4l-0.2-0.4l-0.1-0.4l0.2-0.4l0.4-0.3l1.5-0.7l0.5-0.1l0.5,0.1l0.7,0.2
		l0.4-0.2l0.1-0.4l0-0.4l0-0.3l0.3-0.1l0.4,0.1l0.7,0.3l1,0l0.6-0.2l0.8-0.7l0.4-0.2l0.9-0.1l1.1,0l2,0.3l0.8-0.1l0.5-0.3l0.4-0.3
		l0.2-0.2l0.5-0.1l0.3,0l0.4,0.2l1.1,1.1l0.9,0.4l0.5-0.2l0.3-0.4l0.1-1.1l0.3-0.2l0.7,0.2l1.4,0.9l2.2,1.7l0.9,0.6l1.1,0.2l1-0.1
		l3.3-0.8l0.3-0.2l0.6-0.8l0.4-0.2l0.6,0.1l0.8,0.7l0.3,0.6l0.3,1.1l0.3,0.2l0.4-0.2l0.5-0.4l0.4-0.2l0.5,0l0.6,0.5l0.2,0.5l0.2,0.4
		l0.3,0.2l0.5,0.2l0.4,0.3l0.3,0.5l0.2,0.6l0,0.5l-0.1,0.5l0.2,0.4l0.3,0.3l0.9,0.2l1.8-0.1l1.2,0.2l0.5,0l0.5-0.2l2.2-1.1l0.4,0.1
		l0.3,0.5l0.3,1.1l0.6,1.7l0.4,0.6l0.5,0.3l1.4-0.1l1.6,0l1.4,0.2l0.5,0l0.3-0.2l0.2-0.3l0.1-0.3l0.2-0.2l0.4,0.2l0.5,0.6l0.3,1.4
		l-0.3,0.7l-0.7,1l0.1,0.3l0.4,0.3l4.3,1l0.7,0.4l0.5,0.3l1.4,2.2h1.7l4.6,3.4l1.9,1.5l3.5,3.6l0.6,1.1l0.4,0.8l0.4,0.7l0.6,0.4
		l1.1,0.5l1.7,1.2l0.9,0.5l0.8,0.6l2.5,2.3l0.7,0.9l0.4,0.9l0.1,0.9l0.1,0.4l0.3,0.6l0.5,0.6l1.6,1.2l1.7,1.5l1,1.4l1.9,1.9l0.7,0.9
		l0.6,2.1l0.8,1l2.4,1l0.8,0.2l1.6,2l0,0l1.8-1.9l0.8-1.6l-0.1-1.1l-0.3-0.6l0.1-0.5l1-0.7l1-0.2l1-0.1l0.7-0.5l0.1-0.9L371.6,193.4
		z M280.6,136l0.3-0.3l-0.1-0.1l-0.5,0.2l0,0.1L280.6,136z"/>
	<polygon id="Panamá_Oeste" class="st32" points="233.4,174.1 233.6,173.7 233.2,173.1 232.6,172.6 232.1,172.1 231.9,172 
		231.9,171.8 231.9,171.6 231.2,171 230.6,170.8 229.5,169.9 228.7,168.6 227.7,168 227.1,166.6 226.1,165.2 225.7,165 226.2,164.8 
		225.1,165.2 221.9,165.2 220.5,164.9 219.8,164.1 218.6,162.1 217.9,161.5 217.2,161.1 215.5,160.8 213.5,159.8 212.4,160 
		211.5,161 208.9,166.9 209.2,168 209.7,169 210,169.7 210,170.7 209.6,171.7 209.3,172.4 207.4,173.6 205.1,174.3 203.4,174.2 
		200.7,173.2 197.9,175.4 198.1,177.1 196.7,179.3 196.3,180.3 196.2,181.5 196.2,183 197.9,187.8 199.4,194.9 199.8,196 200,198.2 
		199.9,198.8 199.9,200.8 200.5,202.4 200.7,205.9 201.1,206.9 201.4,207.5 203.9,210.6 208.4,207.6 209.7,206.5 209.9,206.2 
		210.2,205.9 210.8,204.7 211.1,204.5 211.7,204.3 212.2,204 213.1,203.1 213.4,203 214.1,202.9 214.4,202.7 214.6,202.5 214.7,202 
		214.6,201.3 215.1,200.7 217.5,200.1 219.5,199.5 220.7,199 223.3,196.7 225.4,195 225.6,194.6 225.6,194 225.3,194 225.1,194.3 
		224.3,194.7 222.4,195.7 220.4,196.5 218.3,196 217.5,195.2 218.5,194.7 219.6,194.4 219.7,194.2 219.6,193.9 219.7,193.7 
		220.5,193.5 221.3,193.1 221.5,192.9 221.9,192.5 222.2,192 222.5,191.4 222.6,190.9 222.8,190.6 222.9,190.3 223,189.9 
		222.9,189.7 222.6,189.5 222.3,189.3 222.1,189 221.9,185.2 222.1,183.9 222.7,183 223.5,182.1 224.5,181.6 225.6,181.8 
		225.5,181.4 225.4,181.1 225.2,180.9 225.2,180.5 225.6,180.5 225.8,180.6 225.8,180.7 226,180.9 226.6,180.6 227.1,180.8 
		227.5,181.1 228.2,181.3 228.2,180.9 227.9,180.1 228.8,179.7 231.6,179.2 233.1,179.7 234,179 234.3,177.7 233.8,176.1 
		234.2,176.1 234.2,175.7 234,175.4 233.9,175.1 233.8,174.8 233.9,174.8 233.8,174.6 	"/>
	<path id="Panamá" class="st32" d="M264,209.2l-0.1,0.6l-0.3,0.2l-0.6-0.8l-0.8-0.7l-0.7,1.5l1.1,0.9l1.2,0.9l0.5-0.3l0.3-0.5
		l0.1-0.5l-0.5-0.3l0.2-0.8L264,209.2z M261.4,174.8L261.4,174.8l-0.2,0.1l0,0.1l0,0.2l0.1,0.1l0,0.1l-0.2,0.2l0.1,0.1l0.3,0l0-0.3
		l0.2-0.2l-0.4-0.2L261.4,174.8z M264.7,219l-0.4-0.5l-0.3-1.4l-0.4-0.8l-0.1-0.2l-0.3-0.4l-0.3-0.1l-0.5,0.1l-0.8,0.9l-0.3,1
		l0.2,0.6l-0.3,0.9l0,0.5l-0.4,0l-0.2,0.8l1.1,2.3l0.8-0.1l0.1-0.9l0.2-0.3l0.4-0.1l0-0.5l-0.4-0.4l0-0.5l0.8-0.4l0.7,0.3l0.7-0.1
		l0.3-0.2l-0.3-0.2L264.7,219z M232.2,197.7l-0.2-0.2l-0.1-0.3l-0.3-0.2l-0.2,0l-0.1-0.1l0,0.4l-0.1,0.3l-0.2,0l0,0.6l0.1,0l0.2-0.3
		l0.2,0l0.4,0.2l0.2,0.2l0.1-0.1l-0.1-0.2L232.2,197.7z M236.8,184.4l-0.2,0.2l0,0.1l0,0.2l0.2,0l0.3,0l0.3-0.3l0-0.4l-0.1-0.3
		L236.8,184.4z M265.7,203.9l-0.5,0.5l0.1,0.9l0.4-0.2l0.4-0.2l0-0.6l-0.1-0.3L265.7,203.9z M235,185.6l-0.3-0.2l-0.2-0.4l0.1-0.2
		l0-0.2l-0.2,0.1l-0.4-0.1l-0.4,0.4l-0.1,0.6l0.2,0.4l0.4,0.1l0.5-0.1l0.3,0.2l0.2,0.3l0.3-0.1l0.1-0.4l0-0.3L235,185.6z
		 M279.2,211.6l0.5-0.4l0.1-0.7l-0.4-0.8l-0.8-0.1l0-0.5l-0.1-0.7l-0.2-0.7l-0.3-0.7l-0.4-0.5l-0.7-0.4l-0.6-0.4l-0.2,0.3l0.1,0.7
		l-0.2,0.4l-0.1-0.3l-0.2-0.3l-0.6-0.5l-2.5,1.1l-0.6-0.4l-0.8,0l-0.2,0.9l0.7,1.7l-0.1,0.6l0.3,1.1l0,0.4l-0.3,0.4l-0.3,0.5
		l0.2,0.5l0.6,0.6l0.2,0.4l-0.2,1.1l-0.5,0.5l-0.3,1l0.3,0.7l0.4,0.3l1.1,0.5l0.4,0.6l0.4,1.5l-0.1,0.9l0.7,0.5l0.9,0.5l0.4-0.3
		l0-0.3l-0.5,0l-0.4-0.3l-0.1-1.3l-0.6-0.7l0.2-0.5l0-0.5l0.5-0.7l0.5-0.6l0.2-0.4l0.1,0.4l0.2,0.3l0.5-0.1l0.4-0.1l0.5-0.1l0.3,0.3
		l0.8,0.1l0.4-0.5l0-0.6l0.6-0.5l0.5-1.4l-0.8-1.6L279.2,211.6z M280.8,211l-0.5-0.3l-0.4,0.7l0.1,0.4l0.5,0.4l0.8,0.1l0.3-0.3
		l-0.2-0.6L280.8,211z M328.4,165.3l-0.5-0.3l-0.7-0.4l-4.3-1l-0.4-0.3l-0.1-0.3l0.7-1l0.3-0.7l-0.3-1.4l-0.5-0.6l-0.4-0.2l-0.2,0.2
		l-0.1,0.3l-0.2,0.3l-0.3,0.2l-0.5,0l-1.4-0.2l-1.6,0l-1.4,0.1l-0.5-0.3l-0.4-0.6l-0.6-1.7l-0.3-1.1l-0.3-0.5l-0.4-0.1l-2.2,1.1
		l-0.5,0.2l-0.5,0l-1.2-0.2l-1.8,0.1l-0.9-0.2l-0.3-0.3l-0.2-0.4l0.1-0.5l0-0.5l-0.2-0.6l-0.3-0.5l-0.4-0.3l-0.5-0.2l-0.3-0.2
		l-0.2-0.4l-0.2-0.5l-0.6-0.5l-0.5,0l-0.4,0.2l-0.5,0.4l-0.4,0.2l-0.3-0.2l-0.3-1.1l-0.3-0.6l-0.8-0.7l-0.6-0.1l-0.4,0.2l-0.6,0.8
		l-0.3,0.2l-3.3,0.8l-1,0.1l-1.1-0.2l-0.9-0.6l-2.2-1.7l-1.4-0.9l-0.7-0.2l-0.3,0.2l-0.1,1.1l-0.3,0.4l-0.5,0.2l-0.9-0.4l-1.1-1.1
		l-0.4-0.2l-0.3,0l-0.5,0.1l-0.2,0.2l-0.4,0.3l-0.5,0.3l-0.8,0.1l-2-0.3l-1.1,0l-0.9,0.1l-0.4,0.2l-0.8,0.7l-0.6,0.2l-1,0l-0.7-0.3
		l-0.4-0.1l-0.3,0.1l0,0.3l0,0.4l-0.1,0.4l-0.4,0.2l-0.7-0.2l-0.5-0.1l-0.5,0.1l-1.5,0.7l-0.4,0.3l-0.2,0.4l0.1,0.4l0.2,0.4l0.2,0.4
		v0.3l-0.3,0.2l-0.6,0.2l-2.9,0.1l-0.9-0.1l-0.4-0.3l-0.4-0.5l-0.5-0.5l-1.4-0.6l-0.8-0.2l-0.9-0.1l-0.8,0l-0.9,0.1l-4.3,1.4
		l-2.1,0.4l-0.5-0.4l-0.1-0.4l0.1-0.7l0.4-0.7l0.4-0.5l1.2-0.6l0.5-0.6l0.1-0.3l0-0.4l-0.1-0.4l-0.2-0.4l-0.3-0.3l-0.6-0.2l-0.3-0.2
		l0-0.3l0.5-0.7l0.1-0.3l-0.3-0.4l-0.6-0.3l-1.5-0.5l-1.1,0l-0.7,0.2l-0.7,0.5l-0.4,0.1l-1.5,0l-0.6,0.1l-1,0.4l-0.4,0.1l-0.3-0.1
		l-0.2-0.5l0.1-0.4l0.2-0.3l0.3-0.2l0.8-0.3l0.3-0.2l0.1-0.2l-0.1-0.3l-0.6-0.8l-0.2-0.4l-0.4-0.5l-0.5-0.4l-1-0.4l-1.6-0.4
		l-2.8,0.6l-2.4,1l-1.6,5.6l-0.1,0.7l0,0.5l0.2,0.2l0,0.7l-0.3,1l-0.8,2.2l-0.3,1.3l-0.1,0.9l0.3,1.1l-0.1,0.5l-0.3,0.4l-0.9,0.4
		l-1.1,0.3l-1.1,0.5l-0.4,0.3l-0.4,0.2l-0.4,1.7l-1.8,2.2l-1.1,0.8l-0.5,0.2l0.4,0.2l1,1.4l0.6,1.4l1,0.7l0.9,1.3l1.1,0.8l0.6,0.2
		l0.7,0.7l-0.1,0.1l0,0.2l0.3,0.1l0.5,0.6l0.6,0.5l0.3,0.6l-0.1,0.5l0.4,0.5l0.1,0.2h0.3l0.3,1.1l0.9,1.2l1,1l0.8,0.6l-0.2-0.8
		l-1.1-1.9l0.7-0.2l0.1-0.4l-0.1-0.5l0.1-0.6l1.8-1.1l0.2-0.2l0.2-0.1l0-0.3l0.1-0.3l0.5-0.1l0.5-0.1l0.8-0.3l1.1-0.2l0.6-0.2l0.6,0
		l0.6,0.4l1.4-0.7l3.6,0.3l1.5-0.5v0.4h0.4l1.6-0.3l5.1,0.9l1.1-0.4l0.2-0.8l0.3,0.2l0.3,0.5l0.1,0.3l1.5,0.4l0.4,0.2l1,0.2l0.9-0.8
		l0.7-1.1l0.3-0.8l-0.2-1.3l-0.7-0.6l-0.8-0.2l-0.4-0.4l0.1-0.5l0.3-0.3l0.5-0.1l0.6,0l0.6-0.1l0.4-0.3l0.2-0.3l0.1-0.1l0.4-0.2
		l0.8-1.2l0.4-0.3l0.6,0l0.2,0.3l0.2,0.4l0.5,0.2l0.3-0.2l0.8-0.9l0.4-0.3l0.5-0.2l0.8-0.1l0.4-0.2l-0.3,0.6l-0.6,0.3l-1.3,0.5
		l-1,0.8l-0.6,0l-0.6-0.9h-0.4l-0.4,1.1l-0.7,0.9l-1,0.6l-1.4,0.1v0.5l1.2,0.1l0.5,0.7l0.1,1.1l0,1.3l-0.1,0.6l-0.2,0.4l-0.2,0.4
		l0.1,0.6l0.3,0.4l1.6,1.1l3.3,0.7l8.3,4.4l0.3,1l0.3,1.2l0.4,1l1.2,1.5l0.6,0.2l0.9-0.2l1-0.5l0.4-0.6l-0.1-0.8l-0.5-1.1l0.6,0.6
		l0.5,0.7l0.6,0.6l0.9,0.3v0.4h-0.5v0.4l1,0.9l1.3,2.7l1.2,0.8l1.7,0l1.9,2.5l1.1-1.2l0.9,0.2l0-0.9l-0.3-1.3l0.1-1h0.5l0.3,1.2
		l0.1,1.3l-0.3,1.2l-0.9,0.7l0.6,1.5l0.4,0.7l0.6,0.3l0.5-0.1l0.5-0.2l0.5,0l0.5,0.3l0.3-0.4l0.2-0.1l0.4,0.1l-0.1,0.3l-0.3,1
		l3.9,1.1l-0.1,2.2l0.3,0.7l1,0.8l-0.8,0.3l-0.6-0.1l-0.7-0.2l-0.9,0l0.7,0.8l1.8,2.5l0.4,1.1l-0.5,2.1l0,0.9l0.3,0.7l0.7,0.9
		l0.3,0.6l0.1-0.5l0.1-0.5l0.3-0.4l0.5-0.4l0.4,0.8l0.3,1.2l0,1.1l-0.3,0.8l0.7,0.4l1.5,1.8l0.4,0.2l0,0l-0.2-2.8l-1-3.7l-0.2-1.4
		l-0.8-2l-0.2-1.6l0.1-0.8l-0.2-0.5l-0.2-0.2l-0.2-0.2l0-0.5l0.4-1.9l0.3-2.6l0.2-0.9l0.2-0.7l0.4-0.7l0.2-0.7l0.2-1l0-0.8l-0.3-1.5
		l-0.2-0.6l-0.7-3.7l-0.2-0.9l0.3-0.4l0.5-0.3l2.9-1l0.9,0l1.1,0.2l1.5,0.6l0.4,0.4l0.6,1l0.8,0.3l0.6-0.2l0.6-0.4l0.3-0.5l0.1-0.5
		l0.2-0.6l0.6-0.6l1.8-0.9l1.3-0.3l1.1,0l1.2,0.1l0.7-0.2l0.5-0.4l0.8-1.4l1.1-0.9l1.1-0.5l1.6-0.4l0.7-0.4l0.3-0.6l-0.2-1l0-1.1
		l0.1-1.6l0.3-1.2l0.4-0.9l1.3-1.7l0.4-0.8L328.4,165.3z M265.7,195.6l-0.3-0.2l-0.3,1l0.3,0.4l0.1,0.4l0.2,0l0.3-0.6l0.2-0.4
		l-0.4-0.1L265.7,195.6z M267.8,197.9l-0.2,0.2l-0.3-0.1l-0.1,0.5l0.2,0.3l0.5-0.1l0.4-0.3l-0.3-0.2L267.8,197.9z M278.8,218.2
		l0.1,0.6l0.6-0.2l0.1-0.5l-0.2-0.4L278.8,218.2z M270.4,206.4l-0.3-0.3L270,206l0.2-0.3l0.4-0.2l0.3-0.3l0.3-0.4l-0.5,0l-0.3,0.3
		l-0.5,0.4l-0.4,0.1l-0.4,0.2l-0.3,0.1l-0.4,0.2l0.2,0.2l0.2,0.2l0.3,0.2l0.2-0.2l0.3,0.1l0.4,0.1l0.1,0.2l0.2,0.4l0.2,0.1l0.2,0.2
		l0.1-0.2l-0.1-0.4l0.2-0.2l0-0.2l-0.3,0.1L270.4,206.4z"/>
	<path id="Ngäbe-Buglé" class="st32" d="M107.4,166.1l0.1,0.4l0.3-0.1h0.3l0.6,0.1l0.5,0.1l0.3,0.2l0.3,0l0-0.2l-0.2-0.2l-0.1-0.2
		l-0.3-0.3l-0.3-0.2l-0.4-0.2l-0.3,0l-0.1,0.1l-0.4-0.1l-0.2-0.2l-0.4,0l-0.1,0.2l0.1,0.3L107.4,166.1z M132.7,203.4l-0.5-1
		l-0.2-0.6l-0.3-0.5l-0.5-0.5l-0.5-0.8l-0.4-1.3l-0.3-2.4l0.2-3.9l-0.7-4.7l0.4-1.6l0-0.3l0-0.2l-3.2,0.2l-2.4,0.5l-3.4-0.2l-1.5-1
		l-1.8,0l-0.8,0.2l-3.3-0.6l-1.1,0.4l-0.8,0l-1.1-0.4l-0.6-0.1l-0.6-0.3l-0.7-0.6l-0.7-0.7l-0.4-0.6l-1.2-0.8l-2.5-2.7l-3.8-5.4
		l-0.9-0.6l-0.3-0.3l-0.9-2.1l-1-0.3l-1.6-1.7l-0.9-0.1l-1.5-0.2l-0.8,0l-0.5-0.2l-0.3-0.9l-0.5-0.5l-0.5-0.6v-0.4l0.5,0.2l0.6,0.1
		l0.5-0.2l0.1-0.5l-0.3-0.3l-1.5-1.1l-1.5-1.8l-1.1-0.8l-1.3,0l-0.4,0.7l1,0.7l2,1l-0.7,0.8l-1.5-0.1l-1.6-0.4l-1,0l0.3,0.6l1,0.9
		l1.2,0.8l0.8,0.4l0.6,0.6l2.2,3.3l4.3,2.4l0.2,2.6l-0.3,1.1l-1.1,0.6l-3.7-1.7l-0.6,0.2l-0.3,0.4l-0.7-0.3l-0.6-0.5l-0.1-0.2
		l-0.9-0.3l-0.6,0l-0.7,0.3l0.2,0.7l-0.5,0.7l-0.9,0.6l-0.9,0.2l-1-0.2l-0.7-0.5l-0.8-0.3l-0.6,0.1l0,0l-0.1,0.3l-0.5,1.4l-1.2,0.7
		l-1.7,0.4h-2.6l-1.9,0.1l-1.2,0.6l-0.8,1.3l-0.4,1.4l-0.6,0.2l-0.5-0.7l-0.4-1.7l-0.2-0.6l-0.8-0.5l-0.1-1.2L68,177l0.2-1.1
		l-0.4-0.8l-1.5-1l-2.2-0.5l-0.7-0.6l-0.5-0.7l-1.3-0.2l-1.3-0.5l-0.1-1l0.4-1l0.9-0.7l0.8-1.1l0.6-0.8l-0.5-0.2l-1.3-0.5l-0.5-0.5
		l0.4-1l-0.2-0.7l-0.6-0.1l-0.9,1l-0.8,1.7l-0.1,1.6l-1.7,1.4l-0.8,0.8l-2.1,0.8l-0.8,0.8l0.7,0.7l1.3,0.5l2.4,0.8l1.4,1.2l0.8,1.6
		l0.2,1.3l-0.5,1l-0.6,2l-0.5,1.9l-0.5,1.2l0.1,0.1l2.7,1.1l1.1,0.6l1.1,0.3l1.9,0.3l1.7,0.2l0.3-0.1l0.9-0.1l0.5,0.1l2.6,0.6l0.1,0
		l0.9,3.8l-0.6,5.4l-0.5,1.9l0.2,1.3l0.6,0.7l-2,4.8l-0.3,1.6l1,0.6l2,0l2.1-0.6l1-0.4l0.6-0.2l0.6,0.4l0.7,0.9l1,1.8l1,1l0.2,2
		l1.3,2l3,0.8l5.8,0.1l1.7,0.5l1,2l1.8,1.5l3.3,0.1l1-1l0.7-1.1l0.9-0.1l0.6,1.2l1.5-0.3l1.4-1l0.6-1.1l0.9-2.2l1.1-1.5l2.8-0.9
		l1.6,0.4l-0.3-3.2l0.1-0.9l0.2-1.1l1.5-3.5l0.6-2.5l0.1-2.6l1.6,0.8l1.9,0.5l0.7,0.3l0.4,0.2l0.3,0.6l3,0.2l1.6-0.3l0.6,0.1
		l2.9,2.3l1.1,0.7l2.5,0.7l1.4,0.6l0.7,0.2h0.5l1.7-0.4L132.7,203.4z"/>
	<polygon id="Los_Santos" class="st33" points="168.5,284.4 168.3,282.2 167.9,281.3 167.2,280.6 165.9,279.6 165.4,279.2 
		164.4,278.9 164.4,278.6 164.5,278 164.5,277 164.1,275.5 162.5,273.3 161.5,270.3 161,267.6 161.2,265.8 164.7,262.4 167.8,257.3 
		168.2,257 169,256.9 169.5,256.7 170,256.3 170.8,255.5 171.4,254.4 171.7,253.6 171.7,252.8 171.6,252.3 171.4,251.8 170.6,250.8 
		170.4,250.3 170.3,249.7 170.3,249.3 170.3,248.3 170,247.9 170.1,247.6 170.4,247.2 171.2,246.7 172.1,246 172.8,245.1 
		174.8,241.5 175.6,240.8 177.6,240.2 179.6,240.3 180.4,240.1 181,239.6 181.8,238.6 182,237.5 182.5,236.9 182.9,236.1 
		182.9,236.1 184.5,236.6 185.9,238.9 186.8,241.5 187.6,243.3 193.6,248.1 197.5,251.6 203.2,259 206.2,264.3 206.9,266.2 
		206.9,267.4 205.9,269.9 205.4,270.4 204.6,270.6 202.9,270.7 202.4,270.8 198,272.5 194,272.5 193.2,272.9 192.5,272.5 
		190.8,272.1 190.2,271.6 189.8,271.6 189.2,271.9 187.2,272.5 187.2,272.9 188,272.8 188.7,272.6 189.2,272.4 189.8,272.1 
		190.2,272.5 185.7,273.9 184,275.2 183.7,276.8 184.8,278.6 184.6,279.2 183.1,279.4 182.6,279.6 182.1,279.9 181.7,280.2 
		181.6,280.5 181.4,281.2 181,281.5 180.4,281.6 179.8,282 179.5,282.6 179.6,283 179.5,283.4 179,283.8 178.5,283.8 177.3,283.4 
		176.6,283.3 168.9,284.3 168.5,284.4 	"/>
	<polygon id="Herrera" class="st33" points="171.9,229.1 172.3,229.1 173,228.5 173.4,228.5 174.1,228.9 175.6,229.8 176.4,230.1 
		176.4,230.1 176,230.6 177,231.1 177.5,232.3 177.8,233.6 178.4,234.1 179.3,234.3 181.7,235.4 182.4,235.9 182.9,236.1 
		182.9,236.1 182.5,236.9 182,237.5 181.8,238.6 181,239.6 180.4,240.1 179.6,240.3 177.6,240.2 175.6,240.8 174.8,241.5 
		172.8,245.1 172.1,246 171.2,246.7 170.4,247.2 170.1,247.6 170,247.9 170.3,248.3 170.3,249.3 170.3,249.7 170.4,250.3 
		170.6,250.8 171.4,251.8 171.6,252.3 171.7,252.8 171.7,253.6 171.4,254.4 170.8,255.5 170,256.3 169.5,256.7 169,256.9 168.2,257 
		167.8,257.3 164.7,262.4 161.2,265.8 159.5,264.1 159.2,263.9 157.9,263.6 156,262.5 151.1,255.3 150.8,254.4 150.4,252.6 
		150,251.6 149.5,250.9 149.2,250.7 148.6,250.4 147.1,250.8 146.9,249.3 147.1,242.1 147.4,241.5 147.8,241.3 149.4,240.9 
		150.7,239.4 152.5,237.8 153,237.1 153.7,235.9 153.7,234.9 152.8,232.1 155.1,231.2 157.3,230.3 158.3,229.4 159.8,227.6 
		160.4,227.4 161.2,227.4 161.8,227.6 163.2,227.4 164.8,228 165.8,227.9 168.1,227.1 169.3,227.1 170.2,227.4 171.3,228.7 	"/>
	<path id="Emberá-Wounaan" class="st32" d="M335.5,251.9l0.2-0.8l-0.3-1.1l-0.5-1l-0.6-0.2l-0.6-0.4l-0.3-2l-1.9-6.1l-1.2-1.2
		l-1.5,1.2l-1.5,0.9l-0.6-3.5l-0.6-0.4l-0.6-0.5l-0.4-1.9l-0.6-0.8l-0.6-0.7l-1.9-2.7l-1-0.7l-1,0.8l-1.6,0.7l-0.1,1.2l0.9,0.5
		l0.2,0.5l-0.1,0.6l0.4,0.7l0.2,0.7l-1.5,1.1l-2-0.7L315,237l-1.1,1.1l-1.1,0.1l-1,0.3l-0.3,0.9l0.3,0.6l-0.2,1.3l0.1,1.5l0.2,0.8
		l0.4,0.8l0.6,0.4l0.4,0.1l1.2,2.6l1,3l1.5,2.6l3,3.4l1.1,0.8l2.6-0.8l1.1,0.6l1,0.7l1,0.3l0.6,0.5l0.6,2.8l1.5,0.7l0.6-1.1l1.2-0.7
		l0.9,0.8l0.9,1l1.4-0.7l1.2-1.1l0.3-2.1l-0.7-5.6L335.5,251.9z M376.9,222.8l-1.4-2.9l-0.5-0.7l-0.8-0.3l-0.8,0l-0.8-0.3l-0.7-1.1
		l-0.5-2.3l-0.5-4.4l-0.9-2.2l-1-1.8l-0.7-0.6l-1.1-0.4l-1.9,0.2l-0.6-0.4l0-1.5l0.5-1.9l0.7-0.7l0,0l-1.6-2l-0.8-0.2l-2.4-1l-0.8-1
		l-0.6-2.1l-0.7-1l-1.9-1.9l-1-1.4l-1.7-1.5l-1.6-1.2l-0.5-0.6l-0.3-0.6l-0.1-0.4l-0.6,0l-1.3-0.3l-1.5,0.2l-1.4,0.7l-0.6,0.8
		l-0.7,0.6l-1,0.2l-1,0.3l-0.9,1.1l-0.7,1.4l-1.9,2.7L339,195l-0.7,1.3l0.2,1.3l0.4,1.1l0.8,1l0.9,0.8l0.2,1.2l-0.4,0.7l0,0.2v0.1
		l0.1,0.2l0.8,0.8l0.6,0.2l0.7,0.2l0.2,0.4l-0.2,0.3l0,0.3l1.6,1.7l0.3,0.6l0.1,0.7l-0.2,0.7l-0.2,0.4l-0.1,0.5l0,0.5l1.1,1.7
		l0.2,0.9l0.3,0.8l0.4,0.5l0.6,0.6l0.4,0.4l0.5,0.7l0.1,0.2l0,0.3l0.4,0.6l0.6,0.3l0.4,0.1l0.3,0.2l0,0.5l-0.1,0.5l0.3,0.9l0.7,0.5
		l1.8,0.5l1.8,0.9l2.4,2l1.1,2.7l-0.2,1l0.6,1l1.3,0.4l0.6,0.6l1.2,1.6l0.9,0.2l1.2-0.7l1.3-0.2l0.4,0.1l0.4,0.1l1.5-0.2l0.7-0.3
		l0.5-0.6l0.4-0.6l0.9-0.5l1.3-0.4l1.3-0.2l7.1-2l0,0L376.9,222.8z"/>
	<path id="Darién" class="st33" d="M384.7,238.7l-0.6-0.7l-0.7-0.5l-0.6-0.6l-0.4-0.9l-0.1-1.5l-1.4-5l-1.8-3.5l-0.6-0.9l0,0
		l-7.1,2l-1.3,0.2l-1.3,0.4l-0.9,0.5l-0.4,0.6l-0.5,0.6l-0.7,0.3l-1.5,0.2l-0.4-0.1l-0.4-0.1l-1.3,0.2l-1.2,0.7l-0.9-0.2l-1.2-1.6
		l-0.6-0.6l-1.3-0.4l-0.6-1l0.2-1l-1.1-2.7l-2.4-2l-1.8-0.9l-1.8-0.5l-0.7-0.5l-0.3-0.9l0.1-0.5l0-0.5l-0.3-0.2l-0.4-0.1l-0.6-0.3
		l-0.4-0.6l0-0.3l-0.1-0.2l-0.5-0.7l-0.4-0.4l-0.6-0.6l-0.4-0.5l-0.3-0.8l-0.2-0.9l-1.1-1.7l0-0.5l0.1-0.5l0.2-0.4l0.2-0.7l-0.1-0.7
		l-0.3-0.6l-1.6-1.7l0-0.3l0.2-0.3l-0.2-0.4l-0.7-0.2l-0.6-0.2l-0.8-0.8l-0.1-0.2v-0.1l0-0.2l0.4-0.7l-0.2-1.2l-0.9-0.8l-0.8-1
		l-0.4-1.1l-0.2-1.3l0.7-1.3l1.2-0.7l1.9-2.7l0.7-1.4l0.9-1.1l1-0.3l1-0.2l0.7-0.6l0.6-0.8l1.4-0.7l1.5-0.2l1.3,0.3l0.6,0l-0.1-0.9
		l-0.4-0.9l-0.7-0.9l-2.5-2.3l-0.8-0.6l-0.9-0.5l-1.7-1.2l-1.1-0.5l-0.6-0.4l-0.4-0.7l-0.4-0.8l-0.6-1.1l-3.5-3.6l-1.9-1.5l-4.6-3.4
		h-1.7l-0.4,0.8l-1.3,1.7l-0.4,0.9l-0.3,1.2l-0.1,1.6l0,1.1l0.2,1l-0.3,0.6l-0.7,0.4l-1.6,0.4l-1.1,0.5l-1.1,0.9L322,180l-0.5,0.4
		l-0.7,0.2l-1.2-0.1l-1.1,0l-1.3,0.3l-1.8,0.9l-0.6,0.6l-0.2,0.6l-0.1,0.5l-0.3,0.5l-0.6,0.4l-0.6,0.2l-0.8-0.3l-0.6-1l-0.4-0.4
		l-1.5-0.6l-1.1-0.2l-0.9,0l-2.9,1l-0.5,0.3l-0.3,0.4l0.2,0.9l0.7,3.7l0.2,0.6l0.3,1.5l0,0.8l-0.2,1l-0.2,0.7l-0.4,0.7l-0.2,0.7
		l-0.2,0.9l-0.3,2.6l-0.4,1.9l0,0.5l0.2,0.2l0.2,0.2l0.2,0.5l-0.1,0.8l0.2,1.6l0.8,2l0.2,1.4l1,3.7l0.2,2.8l0.1,0.1l0.5,0.2l0.5,0.3
		l0.3,0.5l1.7-3.7l-0.3-1.1l-1.2-1l-0.6-3l-1.1-3.2l0.2-1.6h0.4v1.3h0.5v-0.4h0.4l-0.2,0.4l-0.2,0.4l0.5,1.3l0.7,3.8l0.6,1.1
		l0.9-0.3l1.1-1.1l0.9-1.3l0.1-0.8l0.5-0.5l0.6,2.1l0.6,0.7l1-0.2l0.9-1.7l0.3-0.3l0.3-0.2l0.1-0.4l-0.3-0.8l1,0.3l0.1,0.6l-0.7,1.2
		l-0.2,0.3l-0.3,0l-0.1,0.1l0.2,0.6l0.2,0.3l0.4,0.2l0.4,0.3l0.3,0.5l0.5-0.2l0.2-0.1l0.2-0.1v-0.5l-0.5-0.7l0.3-0.8l0.5-0.9
		l0.1-1.1l-0.4-0.7l-0.6-0.5l-0.3-0.6l0.4-0.9h0.5l1,3.4l0.3,1.9l-0.1,2.1l-0.4-0.2l-0.2-0.1l-0.2-0.2l-1.8,0.9l-0.4,0.4l-0.1,0.5
		l0,0.6l0.2,0.5l0.5,0.2l1.1-0.2l1.2-0.5l0.9-0.8l0.4-1l0.2-1.3l0.6-1l0.8-0.5l1,0l0.6,0.5l0.8,1l1.2,2h0.4l0.3-0.6l-0.1-0.7
		l-0.9-2.1l-0.1-0.6l0-2.1l0-0.2l-0.3-0.1l-0.8-0.5l-0.3-0.6l-0.1-1.6l-0.3-0.6l0.7,0.4l0.2,0.5l0.1,0.6l0.3,0.7l0.7,0.6l0.6,0.1
		l0.4,0.2l0.1,0.8l-0.2,0.5l-0.4,0.4l-0.2,0.6l0.3,1l0.5,0.8l0.7,0.8l0.8,0.6l0.7,0.4l-1,1l0.4,1.7l1.4,2.8l0.3,1.4l0.7,1.2l1.1,0.9
		l1.4,0.5l5.6,1l0.9,0.5l0.6,0.5l3.2,4.1l1.1-0.2l2.3,2.8l1.8,0l-0.6,0.9l-1,0.3l-1-0.2l-0.4-0.7l-0.2-1.1l-0.5-0.9l-0.7-0.4
		l-0.7,0.4l-0.6-0.3l-0.4-0.5l-0.2-0.7l-0.1-0.9l-0.3-0.5l-1.5-0.8l-1.1-1.2l-1.7-0.6l-3.1-0.6l0.4,0.8l0.7,0.7l0.9,0.5l1,0.2v0.4
		H337l-0.5-0.1l-0.6-0.3l-0.4-0.3l-0.5-0.9l-0.7,0l-0.7,0.2l-0.3,0.1l-1-0.2l-0.8-0.6l-0.6-0.8l-1.1-3l-0.5-1l-0.7-0.4l-0.9-0.2
		l-1.1-0.5l-1-0.6l-0.6-0.5l-0.2-0.5l-0.3-2.3l-0.3-0.3l-0.6,0.1l-0.6,0.3l-0.3,0.3l0,1.3l-0.1,0.6l-0.3,0.6l-1.2,1.2l-0.2,0.1
		l-0.1,0.7l0.1,1.7l-0.2,0.2l-0.8,1.1l-0.1,0.3l-0.9,0.1l-0.5,0l-0.6-0.2l-0.4-0.3l-0.7-0.7l-0.5-0.4l-0.2,0.6l-0.1,0l-0.5,0.2
		l0.2,0.3l0.1,0.2l0.2,0.2l0.4,0.2v0.5l-0.8,0.5l-0.5,0.1l-1.7-0.2v0.5l0.7,0.5l1.8,2.2l0.7,0.6l0.5,0.6l0.3,0.8l0.1,1.3l-0.9,2.3
		l-2.2,2.3L312,232l-1.8-0.9l-0.7,0.6l-1,0.2l-0.9-0.4l-0.7-2.1l-0.7,0.4l-0.7,1.2l-0.3,1.2l0.2,0.8l1.1,2l0.1,0.6l-0.1,0.7l0,0.8
		l0.5,2l0.8,2l1.2,1.5l1.6,1.5l1.4,1.7l0.6,2l0.3,0.7l1.9,2.9l0.4,1.1l0,0.8l-0.3,0.9l-0.6,1.2l0.6,0.2l0.5,0.4l0.3,0.5l-0.1,0.7
		l1.2,0.2l0.9,0.7l1.3,1.7l0.8,0.7l0.3,0.4l0.2,0.7l0,0.7l-0.2,0.6l-0.1,0.6l0.3,0.8l0.1-1.1l0.6-0.5l0.7,0.3l0.3,1.1l0.1,2.2
		l0.1,0.6l0.3-1h0.4l0.4,1.3l0.3,0.6l0.4,0.3l0.6,0.3l0.3,0.6l0.2,0.6l0.2,0.3l0.7,0.4l1,0.9l1.5,1.7h0.4l0.6-0.5l0.4,0.2l0.8,1.2
		l-0.3,0l-0.1,0.3l0.1,0.4l0.5,0.2l0.2-0.1l0.1-0.3l0.2-0.1l0.4,0.3l0.3,0.6l-0.1,0.7l-0.3,0.7l-0.1,0.7l0.2,0.7l0.5,0.5l1,0.7
		l2.7,3.4l1.8,1.7l1.4,0.4l0,0l2.6-8.3l2.2-7.1l1.5,0.3l1.4-0.2l1.2-0.7l0.9-1.2l0.6-1.6l-0.2-1.4l-1.4-2.8l-0.6-2l-0.3-2.7l0.4-2.3
		l1.5-0.8l0.7,0.4l3.1,2.7l0.6,0.7l0,0.2l-0.3,0.6l0,0.2l0.2,0.2l0.5,0.1l0.2,0.1l1.7,2.4l0.5,0.8l0.8,3.2l0.7,0.7l1.4-0.1l1.6-1.3
		l2.9-2.9l8.8-5.5l1.8-1.7l-0.4-1.2l-1.3-1.2l-0.8-1.9l0.2-0.8l1.9-2.4l1.6-3.6l1.3-1.3l1.9-1l2.1-0.7l1.9-0.4l2.3,0l0.4-0.3
		L384.7,238.7z M335.7,260.1l-1.2,1.1l-1.4,0.7l-0.9-1l-0.9-0.8l-1.2,0.7l-0.6,1.1l-1.5-0.7l-0.6-2.8l-0.6-0.5l-1-0.3l-1-0.7
		l-1.1-0.6l-2.6,0.8l-1.1-0.8l-3-3.4l-1.5-2.6l-1-3l-1.2-2.6l-0.4-0.1l-0.6-0.4l-0.4-0.8l-0.2-0.8l-0.1-1.5l0.2-1.3l-0.3-0.6
		l0.3-0.9l1-0.3l1.1-0.1l1.1-1.1l1.3-0.8l2,0.7l1.5-1.1l-0.2-0.7l-0.4-0.7l0.1-0.6l-0.2-0.5l-0.9-0.5l0.1-1.2l1.6-0.7l1-0.8l1,0.7
		l1.9,2.7l0.6,0.7l0.6,0.8l0.4,1.9l0.6,0.5l0.6,0.4l0.6,3.5l1.5-0.9l1.5-1.2l1.2,1.2l1.9,6.1l0.3,2l0.6,0.4l0.6,0.2l0.5,1l0.3,1.1
		l-0.2,0.8l-0.2,0.6l0.7,5.6L335.7,260.1z"/>
	<polygon id="Colón" class="st33" points="264.8,136.3 264.8,137.6 264.8,143 264.5,143.4 264,143.5 263.5,143.6 263.1,143.7 
		262.4,144.1 261.9,144.6 261.2,145.7 261,146.3 260.9,147.3 260.7,147.7 260.6,148.1 260.2,148.4 259.6,148.8 258.4,149.2 
		257.4,149.7 255.6,150.8 254.4,151.7 254.2,151.7 254,151.1 254.4,150.5 254.5,150.2 254.5,149.9 254.4,149.4 254.2,149 
		253.9,148.6 253.3,148.4 253,148.2 253,147.9 253.5,147.2 253.6,146.9 253.3,146.5 252.7,146.2 251.2,145.7 250.1,145.7 
		249.5,145.9 248.8,146.4 248.4,146.5 246.9,146.5 246.3,146.6 245.3,147 244.9,147 244.6,146.9 244.4,146.5 244.5,146.1 
		244.7,145.8 245,145.5 245.8,145.2 246.1,145 246.2,144.9 246.1,144.6 245.5,143.8 245.3,143.4 244.9,142.9 244.3,142.4 243.3,142 
		241.7,141.6 238.9,142.2 236.6,143.2 235,148.8 234.8,149.5 234.9,150 235,150.2 235,150.9 234.7,151.9 233.9,154 233.6,155.4 
		233.5,156.3 233.8,157.5 233.7,157.9 233.4,158.3 232.5,158.7 231.4,159 230.3,159.5 229.9,159.8 229.5,160.1 229.1,161.8 
		227.3,164 226.2,164.8 225.1,165.2 221.9,165.2 220.5,164.9 219.8,164.1 218.6,162.1 217.9,161.5 217.2,161.1 215.5,160.8 
		213.5,159.8 212.4,160 211.5,161 208.9,166.9 209.2,168 209.7,169 210,169.7 210,170.7 209.6,171.7 209.3,172.4 207.4,173.6 
		205.1,174.3 203.4,174.2 200.7,173.2 197.9,175.4 197.1,175.1 196.6,174.8 196.2,174.4 195.8,173.7 195.3,171.5 195.3,170.8 
		194.4,169.2 193.8,170.4 193.4,172.3 193,173.1 192.5,173.6 191.9,173.9 191,174.5 186,179.3 185,180.1 184.1,180.4 183.5,180.2 
		182,179.9 180.6,179.5 179.8,179 174,176.9 173.5,177 173.1,177.5 172.4,179.8 172.3,180.4 172.4,180.7 172.6,181 172.8,181.6 
		173,183.6 172.8,184.6 172.3,185.5 171.6,186.1 170.7,186.6 169.6,186.9 168.7,186.9 168,186.8 166.8,186.6 166.2,186.7 165.5,187 
		164.5,188 163.8,188.9 163.3,190.4 162.7,191.7 162.7,192.9 162.7,193.7 162.9,194.4 162.7,195 162.1,195.8 161.4,196.8 
		159.9,196.7 160.9,194.7 160.8,194.3 160.7,194 160.3,193.6 160,193.1 159.8,191.9 160,191.1 160.4,190.4 160.6,189.4 160.3,188.5 
		159.9,187.8 158.5,186.2 158.1,186 157.4,185.6 156.3,185.3 155.2,184.8 154,184 153.6,183.6 152.9,182.9 152.5,182.1 152.3,181.5 
		152.2,180.2 152.2,180 152.2,179.5 153.3,179.6 154.7,179.2 155.3,178.4 155.9,177.8 157.2,176.1 157.9,175.2 158.5,174.8 
		158.7,174.6 158.9,174.1 159.2,173.7 159.8,173.5 160.7,172.4 162.2,171.7 164.5,170.3 165.4,169.9 166.4,168.9 170,167 
		174.6,165.1 180.8,163.1 188.1,162.5 189,162.2 191.1,161 191.7,160.8 193.9,160.5 196.3,159.9 198.3,159 200.2,158 202.4,155.4 
		204.9,153.3 206.5,151.7 206.6,151 207.8,149 209.4,148.4 209.8,148.4 210.1,149 209.9,151.4 210.1,152 210.4,152.5 211,152.8 
		211.6,152.8 212.2,152.5 212.7,151.3 212.8,150.1 213.2,149.4 214.4,150.3 214.3,149.8 214.1,148.7 214,148.1 214.1,148.2 
		214.4,148.5 214.8,148.1 214.1,147 214.6,146.4 215.4,146.7 216.5,146.6 217.9,147.2 219.1,149.2 219.6,149.9 219.3,148.5 
		219,147.5 218.9,146.6 219.6,145.5 220.5,144.6 222.4,143.9 223.4,143.3 223.6,143.1 223.7,142.6 223.9,142.4 224.1,142.2 
		224.5,141.6 225.1,141.2 226,140.5 226.4,138.9 226.8,137.4 228,136.9 228.5,136.5 228.2,136.1 227.5,136.4 226.9,136.5 
		226.5,136.2 226.9,135.9 227.3,135.6 227.7,135 228.6,134.6 229.3,134 229.8,133.3 230.9,133 232,133.2 233.2,132.8 234.8,132 
		235.9,132.3 236.3,133.1 236.6,133.7 236.6,134.2 235.9,134.6 235.9,135 236.6,135.2 236.6,135.4 236.8,135.9 237.1,135.6 
		237.3,135.5 237.5,135.3 237.7,135 238.1,135 238.5,135.3 239,135.5 240.3,135.9 240.3,135.3 240.8,134.1 241.1,134.7 241.5,134.9 
		242,134.9 242.4,134.6 244.8,135.1 248.3,135.5 252.3,136.6 254.4,137.4 257.3,137.7 258.5,137.1 259.7,136.8 261.1,136.9 
		262.2,137 263.3,136.7 264.5,136.3 	"/>
	<polygon id="Coclé" class="st33" points="197.9,175.4 198.1,177.1 196.7,179.3 196.3,180.3 196.2,181.5 196.2,183 197.9,187.8 
		199.4,194.9 199.8,196 200,198.2 199.9,198.8 199.9,200.8 200.5,202.4 200.7,205.9 201.1,206.9 201.4,207.5 203.9,210.6 
		203.9,210.6 201.4,212.2 198.6,213.7 194.2,216 192.3,216.7 189.3,217.1 188.8,217 188,216.8 187.6,216.7 187.1,216.9 186,217.4 
		185.5,217.6 183.7,217.1 182.9,216.6 182.5,216.1 182.8,215.8 182.2,216.1 182.2,216.3 182.3,216.7 182,217.1 180.9,217.9 
		176.9,221.8 176.4,223 176.6,229.1 176.5,229.8 176.4,230.1 175.6,229.8 174.1,228.9 173.4,228.5 173,228.5 172.3,229.1 
		171.9,229.1 171.3,228.7 170.2,227.4 169.3,227.1 168.1,227.1 165.8,227.9 164.8,228 163.2,227.4 160.3,225.5 160,224.4 
		161.7,221.4 162.6,218.2 162.8,216.2 161.3,213.7 158.9,207.2 157.4,204.6 156.1,202.9 154.7,201.7 155.5,201 157.5,200.7 
		159.2,198.6 159.9,196.7 161.4,196.8 162.1,195.8 162.7,195 162.9,194.4 162.7,193.7 162.7,192.9 162.7,191.7 163.3,190.4 
		163.8,188.9 164.5,188 165.5,187 166.2,186.7 166.8,186.6 168,186.8 168.7,186.9 169.6,186.9 170.7,186.6 171.6,186.1 172.3,185.5 
		172.8,184.6 173,183.6 172.8,181.6 172.6,181 172.4,180.7 172.3,180.4 172.4,179.8 173.1,177.5 173.5,177 174,176.9 179.8,179 
		180.6,179.5 182,179.9 183.5,180.2 184.1,180.4 185,180.1 186,179.3 191,174.5 191.9,173.9 192.5,173.6 193,173.1 193.4,172.3 
		193.8,170.4 194.4,169.2 195.3,170.8 195.3,171.5 195.8,173.7 196.2,174.4 196.6,174.8 197.1,175.1 	"/>
	<path id="Chiriquí" class="st32" d="M60.7,220.6l-1.8-1.3v-0.5l1,0.3l0.6-0.3l0-0.6l-0.8-0.7l-1.4-0.4l-3.3,2.3l-1.4-0.2h-0.4
		l0.4,0.9l0.8,1l0.9,0.8l0.7,0.3l1.1-0.3l2.2-1.2L60.7,220.6z M60.5,228l-0.1-0.4l-0.7,0l-0.7,0.4l-0.6,0.7l-0.4,0.8l-0.2,0.8
		l0.9-0.1l0.7-0.2l1.2-0.5l-0.1-0.8L60.5,228z M65.5,221.8l-1.3-0.4l-0.9-0.4l-2.1,0.6l-0.6,0.6l0.5,1l0.4,0.2l1.3,0.2l0.5,0.1
		L65,225l-0.4-1.1l0-0.3l0-0.6l0.4-0.3l0.9,0.1l1.3,0.4l-0.5-0.8L65.5,221.8z M111.2,216.1l-0.4-2l-0.2-2.4l-1.6-0.4l-2.8,0.9
		l-1.1,1.5l-0.9,2.2l-0.6,1.1l-1.4,1l-1.5,0.3l-0.6-1.2l-0.9,0.1l-0.7,1.1l-1,1l-3.3-0.1l-1.8-1.5l-1-2l-1.7-0.5l-5.8-0.1l-3-0.8
		l-1.3-2l-0.2-2l-1-1l-1-1.8l-0.7-0.9l-0.6-0.4l-0.6,0.2l-1,0.4l-2.1,0.6l-2,0l-1-0.6l0.3-1.6l2-4.8l-0.6-0.7l-0.2-1.3l0.5-1.9
		l0.6-5.4l-0.9-3.8l-0.1,0l-2.6-0.6l-0.5-0.1l-0.9,0.1l-0.3,0.1l-1.7-0.2l-1.9-0.3l-1.1-0.3l-1.1-0.6l-2.7-1.1l-0.1-0.1l-5.2-2.4
		l-2.9-0.9l-2.4-0.1l-0.7-1.4l-0.7-0.6l-1-0.4l-3.6-0.2l-4.3,0.5l-1.4-1.4l-0.4-0.3l-0.9,1.4l-1.9,1.1l-6.5,2.7l-0.7,0.5l-0.6,0.8
		l0.3,0.3l0.5,0.3l0,0.9l-0.6,0.7l-1.9,1.2l-0.5,0.6l-0.1,1l0.3,0.9l0.6,0.8l2,2.2l1.1,1.5l0.8,1.6l0.5,1.9l0.4,4.4l-0.2,2.2
		l-0.6,1.9l-1.4,1.7l-1.6,0.8l-1.8,0.5l-1.8,0.9l-2.8,2.7l-2.9,1.6l-0.6,0.5l-0.1,0.8l0.6,0.6l1.8,1l0.3,0.4l0.6,0.9l0.4,0.3l0.4,0
		l0.8-0.3l0.6,0.1l1.1,0.6l0.4,0.7l0.3,2l3.3,7.3l-0.3,2.8l-0.4,1.5l0,0l1.3,0.7l0.6-0.5l0.4-1.1l0.8-0.8v-0.4l-1.5-4.3l-0.4-2.7
		l0.2-2.6l0.9-2.2l1.5-1.6l1.9-1.1l4.5-1.4l2.5-0.3l2.5,0l2.3,0.5l4.4,1.8l2.6,0.7l1.6-0.3l0.5,0.2l0.4,0l1.2-0.3l-0.1-0.5l-0.2-0.5
		l-0.3-0.4l-0.3-0.4v-0.4l1.2-0.5l0.3-0.8l0.1-0.8l0.6-0.5l-0.1,0.6l0.1,0.5l0.3,0.4l0.5,0.2v0.4l-1.1,0.4l0.1,0.7l0.9,0.7l1.2,0.3
		l0.8-0.2l1.8-0.9l1-0.2l-0.1-0.4l-0.1-0.9l-0.1-0.4l1.1,0.4l1.1-0.1l1.1-0.3l1-0.4l-0.3,1.3l0.5,0.8l1,0.4l1.2,0.1l0.1-0.4l1-2.1
		l0.3-0.2l0.8-0.1l1.5,0l-1,0.2l-0.5,0.5l-0.1,0.7l0.3,0.8l-0.3,0l-0.1-0.1l0-0.2l-0.1-0.2l-0.3,0.3l-0.1,0.3l0.1,0.3l0.4,0.3v0.4
		l-0.4,0.6l0.1,0.9l0.7,2l-0.3,0.1l-0.3,0.2l-0.3,0.1v0.4l0.6,0.2l0.8,0.8l0.5,0.2l0.9-0.2l1.1-0.6l0.8-0.1v0.5l-0.4,0.1l-0.2,0.3
		l-0.1,0.4l-0.1,0.5l0.6-0.2l0,0.5l-0.6,1.5h0.4v-0.4l0.1,0l0.3,0.1l0.1,0.1l1.6-3.5l0.1-1.2h0.4l1,0.8l2.1,0.6l2,0.1l0.9-0.7
		l1.3,1.1l0.9,0.5l0.4-0.2l0.3-0.9l0.7-0.8l0.8-0.5l0.8-0.2l-1.1,1.7l-0.2,0.9l0.7,0.4l0.9,0.1l2.6,0.6l0.6,0.3l4.9,2l1.1,0.9h0.4
		l0.4-0.6l0.9-1l0.4-0.6l-0.7-0.2l-0.2-0.5l0.2-0.7l0.4-0.7h0.4l0.2,1.2l0.6,1l1.4,1.7l2.1,3.9l-0.5-0.2l-0.1-0.1l-0.2-0.2h-0.4
		l-0.3,0.4l-0.4,0.1l-0.5-0.1l-0.5-0.3v0.5l1,0.5l0.1,0.9l0,0.9l0.7,0.7l0-0.6l0.1-0.5l0.4-1l0.4,0.6l0.9,2.4l0.4,0.6l0,0l0.1,0
		l1.3-0.3l0.3-0.5l0.3-0.7l0.1-0.8l1.6-6.4l0.3-0.6l0.3-0.4l1.6-1.5l3.2-4l0.4-0.3l0.1-0.1l0.2-0.3l0.2-1.9L111.2,216.1z"/>
	<path id="Bocas_del_Toro" class="st32" d="M77.9,163.2l0.6,0.4l0.4,0.1l0.5-0.3l0.6-0.3l0.1-0.4l-0.5-0.2l-0.4-0.2l-0.1-0.4
		l-0.2-0.5l-0.4,0l-0.4-0.2l-0.3-0.4l-0.4-0.2l0,0.3l0.3,0.3l-0.5,0.7l0,0.5l0.3,0.5L77.9,163.2z M69.6,151.1l0.9,0.5l0.6,1.3
		l-0.9-0.4v0.4l0.6,0.4l0.2,0.6l0,1.5l-0.1,0.3l-0.1,0l0,0.1l0.7,0.7l0.3,0.1l0.5-1.5l1-1l1.3-0.5l1.2,0.2l-0.7-0.9l-0.8-0.5
		l-1.6-0.7l-1.5-1.4l-0.6-0.3l-0.6,0.3l-0.5,0.1l-0.5-0.1l-0.6-0.2l-0.3-0.3l-0.3-0.1l-0.3,0.1l-0.4,0.3v0.4l1.2,0.6L69.6,151.1z
		 M79.3,175.7l-3,0.9l-1.2-0.1l-0.7,0.1l-0.3-0.1l-0.2-0.2l-0.1-0.4l-0.1-0.2l-0.3-0.3l-0.9-1.4l0-0.5l-0.8-0.5l-2.3-0.7l-1.1,0.6
		l-1.5-0.2l-1.5-0.7l-1.1-1.1l0.2,0.2l0.2,0.1l0.2,0.1l0.3,0.1l0.4-4.2l-0.3-0.7l-1.5-0.8l-0.3-0.9l0.9,0.2l0.3,0.1v-0.4l-0.5-0.7
		l-0.2-1.2l0.2-1.1l0.7-0.5l1.6,0.1l1,0.4l1.9,1.2l0.4-0.8l-0.1-1.7l0.2-1h-0.4v0.4h-0.4l-0.3-0.3l-0.2-0.4l-0.2-0.5l-0.1-0.6
		l-0.3,0l-0.1,0.1l0,0.2l-0.1,0.2l-0.5-0.4l-0.3,0.2l-0.1,0.6l0,0.8l-0.2,0.2l-0.5-0.1l-0.4-0.4l-0.1-0.8H65l0.1,1l-0.2,0.7
		l-0.5,0.3l-0.7-0.2l-0.4-0.6l-0.2-0.8l-0.3-0.6l-0.8-0.2l0.7,1.2l-0.4,0.2l-0.8,0.1l-0.5,0.7h-0.4l-2.3-1.4l-0.3-0.6l-0.1-0.8
		l-0.4-0.9l-0.5-0.7l-0.6-0.4l-0.4,0.1l-0.3-0.1l-0.1-0.3l0.3-0.5l0.1-0.7l1.6,0.1l0.9-0.7l0.1-0.7l-0.5-0.5l-0.7-0.5l-0.5-0.6
		l-0.2-0.9l0.2-0.7l1.7-3l0.3-0.9l0.1-1.1l-1.7,1.1l-2.4-1.3l-3.7-3.7l-6.1-4.8l-0.7-0.5l0.7,2.4l-0.5,0l-1-0.5l-1-0.2l-0.4,0.7
		l-0.3,2.5l-0.4,0.8l-0.8,0.1l-1.2-0.2l-1.1-0.3l-0.6-0.3l-0.7-0.7l-0.8-1.5l-0.6-0.7l-0.5,0.2l-0.6-0.2l-2.6-2.2l-3.6-1.5l-1.2,0.1
		l-1.2,1l-0.7,1l-0.1,0.6l0.8,1.4l0.4,1.8l0.3,0.4l0.4,0.1l0.3,0.2l-0.1,0.5l-0.9,0.5l-3.4,0.5l-1.2,0.4l-0.5,0.9l-0.2,1.2l0.1,5.3
		l0.1,7.7l0.1,10.5l0,0.7l1.9-0.8l0.6,0l0.4,0.3l0.2,0.5l0.2,0.5l0.3,0.4l0.4,0.2l1.4,0.6l2.9,2.1l2.9,1l0.9,0.6l1.6,2.8l0.3,0.6
		l0,0.1l0.4,0.3l1.4,1.4l4.3-0.5l3.6,0.2l1,0.4l0.7,0.6l0.7,1.4l2.4,0.1l2.9,0.9l5.2,2.4l0.5-1.2l0.5-1.9l0.6-2l0.5-1l-0.2-1.3
		l-0.8-1.6l-1.4-1.2l-2.4-0.8l-1.3-0.5l-0.7-0.7l0.8-0.8l2.1-0.8l0.8-0.8l1.7-1.4l0.1-1.6l0.8-1.7l0.9-1l0.6,0.1l0.2,0.7l-0.4,1
		l0.5,0.5l1.3,0.5l0.5,0.2l-0.6,0.8l-0.8,1.1l-0.9,0.7l-0.4,1l0.1,1l1.3,0.5l1.3,0.2l0.5,0.7l0.7,0.6l2.2,0.5l1.5,1l0.4,0.8L68,177
		l-0.7,0.5l0.1,1.2l0.8,0.5l0.2,0.6l0.4,1.7l0.5,0.7l0.6-0.2l0.4-1.4l0.8-1.3l1.2-0.6l1.9-0.1h2.6l1.7-0.4l1.2-0.7l0.5-1.4l0.1-0.3
		l0,0L79.3,175.7z M64.2,149.7l0.9,1.5l0.3-0.5l0.1-0.2l-0.1-0.2l-0.3-0.3v-0.5l0.9-1.1l-0.4-1.6l-1.7-2.6l-1.2,0l-1,0.4l-1.7,1.3
		l3,2.4L64.2,149.7z"/>
</g>
<circle cx="241.4" cy="163.9" r="4"/>
<rect x="243.5" y="152.7" class="st1" width="60.1" height="12.6"/>
<text transform="matrix(1 0 0 1 243.5314 159.1895)" class="st44 st9 st45">San Miguelito</text>
<rect x="176.9" y="169.5" class="st1" width="60.1" height="12.6"/>
<text transform="matrix(1 0 0 1 176.8805 175.9639)" class="st44 st9 st45">Panama City</text>
<g>
	<circle cx="235.4" cy="172.6" r="4"/>
	<polygon class="st16" points="235.4,168.6 236.2,171.3 239.2,171.3 236.7,172.9 237.7,175.8 235.4,173.9 233.1,175.8 234.2,172.9 
		231.7,171.3 234.4,171.4 	"/>
</g>
<line class="st42" x1="48" y1="460.1" x2="93.7" y2="460.1"/>
<line class="st42" x1="47.6" y1="463.7" x2="121.7" y2="463.7"/>
<line class="st43" x1="48" y1="456.5" x2="48" y2="460.6"/>
<line class="st43" x1="70.7" y1="456.6" x2="70.7" y2="460.3"/>
<line class="st43" x1="93.7" y1="456.5" x2="93.7" y2="460.4"/>
<g>
	<path d="M46.3,452c0-0.7,0.1-1.2,0.2-1.6s0.3-0.7,0.6-1s0.6-0.3,1-0.3c0.3,0,0.6,0.1,0.8,0.2s0.4,0.3,0.6,0.5s0.3,0.5,0.4,0.9
		s0.1,0.8,0.1,1.4c0,0.7-0.1,1.2-0.2,1.6s-0.3,0.7-0.6,1s-0.6,0.3-1,0.3c-0.6,0-1-0.2-1.3-0.6C46.5,453.9,46.3,453.1,46.3,452z
		 M47,452c0,0.9,0.1,1.6,0.3,1.9s0.5,0.5,0.8,0.5s0.6-0.2,0.8-0.5s0.3-0.9,0.3-1.9c0-0.9-0.1-1.6-0.3-1.9s-0.5-0.5-0.8-0.5
		c-0.3,0-0.6,0.1-0.8,0.4C47.1,450.4,47,451.1,47,452z"/>
	<path d="M68.6,454.8v-1.4h-2.5v-0.6l2.6-3.7h0.6v3.7H70v0.6h-0.8v1.4H68.6z M68.6,452.8v-2.6l-1.8,2.6H68.6z"/>
	<path d="M70.8,452c0-0.7,0.1-1.2,0.2-1.6s0.3-0.7,0.6-1s0.6-0.3,1-0.3c0.3,0,0.6,0.1,0.8,0.2s0.4,0.3,0.6,0.5s0.3,0.5,0.4,0.9
		s0.1,0.8,0.1,1.4c0,0.7-0.1,1.2-0.2,1.6s-0.3,0.7-0.6,1s-0.6,0.3-1,0.3c-0.6,0-1-0.2-1.3-0.6C70.9,453.9,70.8,453.1,70.8,452z
		 M71.5,452c0,0.9,0.1,1.6,0.3,1.9s0.5,0.5,0.8,0.5s0.6-0.2,0.8-0.5s0.3-0.9,0.3-1.9c0-0.9-0.1-1.6-0.3-1.9s-0.5-0.5-0.8-0.5
		c-0.3,0-0.6,0.1-0.8,0.4C71.6,450.4,71.5,451.1,71.5,452z"/>
	<path d="M89.6,451.7c-0.3-0.1-0.5-0.3-0.6-0.5s-0.2-0.4-0.2-0.7c0-0.4,0.1-0.8,0.4-1.1s0.7-0.4,1.2-0.4c0.5,0,0.9,0.1,1.2,0.4
		s0.5,0.6,0.5,1.1c0,0.3-0.1,0.5-0.2,0.7s-0.4,0.3-0.6,0.5c0.4,0.1,0.6,0.3,0.8,0.6s0.3,0.6,0.3,0.9c0,0.5-0.2,0.9-0.5,1.2
		s-0.8,0.5-1.4,0.5s-1-0.2-1.4-0.5s-0.5-0.8-0.5-1.3c0-0.4,0.1-0.7,0.3-0.9S89.3,451.8,89.6,451.7z M89.3,453.2c0,0.2,0,0.4,0.1,0.6
		s0.2,0.3,0.4,0.4s0.4,0.2,0.6,0.2c0.3,0,0.6-0.1,0.8-0.3s0.3-0.5,0.3-0.8c0-0.3-0.1-0.6-0.3-0.8s-0.5-0.3-0.8-0.3
		c-0.3,0-0.6,0.1-0.8,0.3S89.3,452.8,89.3,453.2z M89.5,450.5c0,0.3,0.1,0.5,0.3,0.7s0.4,0.3,0.7,0.3c0.3,0,0.5-0.1,0.7-0.3
		s0.3-0.4,0.3-0.6c0-0.3-0.1-0.5-0.3-0.7s-0.4-0.3-0.7-0.3c-0.3,0-0.5,0.1-0.7,0.3S89.5,450.3,89.5,450.5z"/>
	<path d="M93,452c0-0.7,0.1-1.2,0.2-1.6s0.3-0.7,0.6-1s0.6-0.3,1-0.3c0.3,0,0.6,0.1,0.8,0.2s0.4,0.3,0.6,0.5s0.3,0.5,0.4,0.9
		s0.1,0.8,0.1,1.4c0,0.7-0.1,1.2-0.2,1.6s-0.3,0.7-0.6,1s-0.6,0.3-1,0.3c-0.6,0-1-0.2-1.3-0.6C93.2,453.9,93,453.1,93,452z
		 M93.7,452c0,0.9,0.1,1.6,0.3,1.9s0.5,0.5,0.8,0.5s0.6-0.2,0.8-0.5s0.3-0.9,0.3-1.9c0-0.9-0.1-1.6-0.3-1.9s-0.5-0.5-0.8-0.5
		c-0.3,0-0.6,0.1-0.8,0.4C93.8,450.4,93.7,451.1,93.7,452z"/>
	<path d="M99.9,454.8v-5.7h0.7v3.3l1.7-1.7h0.9l-1.6,1.5l1.7,2.6h-0.9l-1.4-2.1l-0.5,0.5v1.6H99.9z"/>
	<path d="M103.9,454.8v-4.1h0.6v0.6c0.1-0.2,0.3-0.4,0.5-0.5s0.5-0.2,0.7-0.2c0.3,0,0.6,0.1,0.8,0.2s0.3,0.3,0.4,0.5
		c0.3-0.5,0.8-0.7,1.3-0.7c0.4,0,0.7,0.1,0.9,0.3s0.3,0.6,0.3,1.1v2.8h-0.7v-2.6c0-0.3,0-0.5-0.1-0.6s-0.1-0.2-0.2-0.3
		s-0.3-0.1-0.4-0.1c-0.3,0-0.5,0.1-0.7,0.3s-0.3,0.5-0.3,0.9v2.4h-0.7v-2.7c0-0.3-0.1-0.5-0.2-0.7s-0.3-0.2-0.6-0.2
		c-0.2,0-0.4,0.1-0.5,0.2s-0.3,0.3-0.4,0.5s-0.1,0.5-0.1,0.9v2.2H103.9z"/>
</g>
<g>
	<path d="M46.3,471.5c0-0.7,0.1-1.2,0.2-1.6s0.3-0.7,0.6-1s0.6-0.3,1-0.3c0.3,0,0.6,0.1,0.8,0.2s0.4,0.3,0.6,0.5s0.3,0.5,0.4,0.9
		s0.1,0.8,0.1,1.4c0,0.7-0.1,1.2-0.2,1.6s-0.3,0.7-0.6,1s-0.6,0.3-1,0.3c-0.6,0-1-0.2-1.3-0.6C46.5,473.4,46.3,472.6,46.3,471.5z
		 M47,471.5c0,0.9,0.1,1.6,0.3,1.9s0.5,0.5,0.8,0.5s0.6-0.2,0.8-0.5s0.3-0.9,0.3-1.9c0-0.9-0.1-1.6-0.3-1.9s-0.5-0.5-0.8-0.5
		c-0.3,0-0.6,0.1-0.8,0.4C47.1,470,47,470.6,47,471.5z"/>
	<path d="M84.1,474.4V473h-2.5v-0.6l2.6-3.7h0.6v3.7h0.8v0.6h-0.8v1.4H84.1z M84.1,472.4v-2.6l-1.8,2.6H84.1z"/>
	<path d="M86.3,471.5c0-0.7,0.1-1.2,0.2-1.6s0.3-0.7,0.6-1s0.6-0.3,1-0.3c0.3,0,0.6,0.1,0.8,0.2s0.4,0.3,0.6,0.5s0.3,0.5,0.4,0.9
		s0.1,0.8,0.1,1.4c0,0.7-0.1,1.2-0.2,1.6s-0.3,0.7-0.6,1s-0.6,0.3-1,0.3c-0.6,0-1-0.2-1.3-0.6C86.5,473.4,86.3,472.6,86.3,471.5z
		 M87,471.5c0,0.9,0.1,1.6,0.3,1.9s0.5,0.5,0.8,0.5s0.6-0.2,0.8-0.5s0.3-0.9,0.3-1.9c0-0.9-0.1-1.6-0.3-1.9s-0.5-0.5-0.8-0.5
		c-0.3,0-0.6,0.1-0.8,0.4C87.2,470,87,470.6,87,471.5z"/>
	<path d="M118.5,471.3c-0.3-0.1-0.5-0.3-0.6-0.5s-0.2-0.4-0.2-0.7c0-0.4,0.1-0.8,0.4-1.1s0.7-0.4,1.2-0.4c0.5,0,0.9,0.1,1.2,0.4
		s0.5,0.6,0.5,1.1c0,0.3-0.1,0.5-0.2,0.7s-0.4,0.3-0.6,0.5c0.4,0.1,0.6,0.3,0.8,0.6s0.3,0.6,0.3,0.9c0,0.5-0.2,0.9-0.5,1.2
		s-0.8,0.5-1.4,0.5s-1-0.2-1.4-0.5s-0.5-0.8-0.5-1.3c0-0.4,0.1-0.7,0.3-0.9S118.2,471.4,118.5,471.3z M118.1,472.7
		c0,0.2,0,0.4,0.1,0.6s0.2,0.3,0.4,0.4s0.4,0.2,0.6,0.2c0.3,0,0.6-0.1,0.8-0.3s0.3-0.5,0.3-0.8c0-0.3-0.1-0.6-0.3-0.8
		s-0.5-0.3-0.8-0.3c-0.3,0-0.6,0.1-0.8,0.3S118.1,472.4,118.1,472.7z M118.4,470.1c0,0.3,0.1,0.5,0.3,0.7s0.4,0.3,0.7,0.3
		c0.3,0,0.5-0.1,0.7-0.3s0.3-0.4,0.3-0.6c0-0.3-0.1-0.5-0.3-0.7s-0.4-0.3-0.7-0.3c-0.3,0-0.5,0.1-0.7,0.3S118.4,469.8,118.4,470.1z"
		/>
	<path d="M121.9,471.5c0-0.7,0.1-1.2,0.2-1.6s0.3-0.7,0.6-1s0.6-0.3,1-0.3c0.3,0,0.6,0.1,0.8,0.2s0.4,0.3,0.6,0.5s0.3,0.5,0.4,0.9
		s0.1,0.8,0.1,1.4c0,0.7-0.1,1.2-0.2,1.6s-0.3,0.7-0.6,1s-0.6,0.3-1,0.3c-0.6,0-1-0.2-1.3-0.6C122.1,473.4,121.9,472.6,121.9,471.5z
		 M122.6,471.5c0,0.9,0.1,1.6,0.3,1.9s0.5,0.5,0.8,0.5s0.6-0.2,0.8-0.5s0.3-0.9,0.3-1.9c0-0.9-0.1-1.6-0.3-1.9s-0.5-0.5-0.8-0.5
		c-0.3,0-0.6,0.1-0.8,0.4C122.7,470,122.6,470.6,122.6,471.5z"/>
	<path d="M128.7,474.4v-4.1h0.6v0.6c0.1-0.2,0.3-0.4,0.5-0.5s0.5-0.2,0.7-0.2c0.3,0,0.6,0.1,0.8,0.2s0.3,0.3,0.4,0.5
		c0.3-0.5,0.8-0.7,1.3-0.7c0.4,0,0.7,0.1,0.9,0.3s0.3,0.6,0.3,1.1v2.8h-0.7v-2.6c0-0.3,0-0.5-0.1-0.6s-0.1-0.2-0.2-0.3
		s-0.3-0.1-0.4-0.1c-0.3,0-0.5,0.1-0.7,0.3s-0.3,0.5-0.3,0.9v2.4h-0.7v-2.7c0-0.3-0.1-0.5-0.2-0.7s-0.3-0.2-0.6-0.2
		c-0.2,0-0.4,0.1-0.5,0.2s-0.3,0.3-0.4,0.5s-0.1,0.5-0.1,0.9v2.2H128.7z"/>
	<path d="M135.4,469.4v-0.8h0.7v0.8H135.4z M135.4,474.4v-4.1h0.7v4.1H135.4z"/>
</g>
<line class="st43" x1="47.8" y1="463.4" x2="47.8" y2="467.5"/>
<line class="st43" x1="84.8" y1="463.4" x2="84.8" y2="467"/>
<line class="st43" x1="121.5" y1="463.7" x2="121.5" y2="467.1"/>
<circle cx="251.8" cy="167.5" r="4"/>
<rect x="249.9" y="173.2" class="st1" width="60.1" height="12.6"/>
<text transform="matrix(1 0 0 1 249.8775 179.619)" class="st44 st9 st45">Juan Diaz</text>
</svg>
