<?xml version="1.0" encoding="utf-8"?>
<!-- Generator: Adobe Illustrator 23.0.1, SVG Export Plug-In . SVG Version: 6.00 Build 0)  -->
<svg version="1.1" id="Layer_1" xmlns="http://www.w3.org/2000/svg" xmlns:xlink="http://www.w3.org/1999/xlink" x="0px" y="0px"
	 viewBox="0 0 720 515.3" style="enable-background:new 0 0 720 515.3;" xml:space="preserve">
<style type="text/css">
	.st0{display:none;}
	.st1{fill:#A8A8A8;}
	.st2{fill:#89CCA3;stroke:#0FB753;stroke-width:0.25;stroke-miterlimit:10;}
	.st3{fill:#143C75;}
	.st4{fill:none;}
	.st5{font-family:'Bulo-Black';}
	.st6{font-size:14.5939px;}
	.st7{font-size:15px;}
	.st8{fill:#E5367A;}
	.st9{fill:#606060;}
	.st10{font-family:'ArialMT';}
	.st11{font-size:11px;}
	.st12{fill:#3D3D3D;}
	.st13{font-family:'Arial-BoldMT';}
	.st14{fill:#FFFFFF;}
	.st15{fill:#8D90C7;stroke:#FFFFFF;stroke-width:0.5;stroke-miterlimit:10;}
	.st16{fill-rule:evenodd;clip-rule:evenodd;fill:#8D90C7;stroke:#FFFFFF;stroke-width:0.5;stroke-miterlimit:10;}
	.st17{fill-rule:evenodd;clip-rule:evenodd;fill:#F8A25E;stroke:#FFFFFF;stroke-width:0.5;}
	.st18{fill-rule:evenodd;clip-rule:evenodd;fill:#3A9DB4;stroke:#FFFFFF;stroke-width:0.5;stroke-miterlimit:10;}
	.st19{fill:#3A9DB4;stroke:#FFFFFF;stroke-width:0.5;stroke-miterlimit:10;}
	.st20{fill-rule:evenodd;clip-rule:evenodd;fill:#F1E355;stroke:#FFFFFF;stroke-width:0.5;stroke-miterlimit:10;}
	.st21{fill:#F1E355;stroke:#FFFFFF;stroke-width:0.5;stroke-miterlimit:10;}
	.st22{fill-rule:evenodd;clip-rule:evenodd;fill:#D96CA9;stroke:#FFFFFF;stroke-width:0.5;stroke-miterlimit:10;}
	.st23{fill:#D96CA9;stroke:#FFFFFF;stroke-width:0.5;stroke-miterlimit:10;}
	.st24{fill:#D96CA9;}
	.st25{fill:#9ECF85;stroke:#FFFFFF;stroke-width:0.5;stroke-miterlimit:10;}
	.st26{fill-rule:evenodd;clip-rule:evenodd;fill:#9ECF85;stroke:#FFFFFF;stroke-width:0.5;stroke-miterlimit:10;}
	.st27{fill:#73AFDF;}
	.st28{fill-rule:evenodd;clip-rule:evenodd;fill:#F49294;stroke:#FFFFFF;stroke-width:0.5;}
	.st29{fill:#F49294;stroke:#FFFFFF;stroke-width:0.5;}
	.st30{fill:#77AE87;stroke:#FFFFFF;stroke-width:0.5;stroke-miterlimit:10;}
	.st31{fill-rule:evenodd;clip-rule:evenodd;fill:#77AE87;stroke:#FFFFFF;stroke-width:0.5;stroke-miterlimit:10;}
	.st32{fill-rule:evenodd;clip-rule:evenodd;fill:#D0B0CE;stroke:#FFFFFF;stroke-width:0.5;}
	.st33{fill:#D0B0CE;stroke:#FFFFFF;stroke-width:0.5;}
	.st34{fill:#BF84BE;}
	.st35{fill:#F37B58;stroke:#FFFFFF;stroke-width:0.5;stroke-miterlimit:10;}
	.st36{fill-rule:evenodd;clip-rule:evenodd;fill:#F37B58;stroke:#FFFFFF;stroke-width:0.5;stroke-miterlimit:10;}
	.st37{fill:#F37B58;}
	.st38{fill-rule:evenodd;clip-rule:evenodd;fill:#F6B3CD;stroke:#FFFFFF;stroke-width:0.5;stroke-miterlimit:10;}
	.st39{fill:#F6B3CD;stroke:#FFFFFF;stroke-width:0.5;stroke-miterlimit:10;}
	.st40{fill:none;stroke:#000000;stroke-width:0.75;stroke-miterlimit:10;}
	.st41{fill:none;stroke:#000000;stroke-width:0.5;stroke-miterlimit:10;}
	.st42{fill:#33353D;}
	.st43{font-size:9px;}
	.st44{font-size:6px;}
	.st45{font-size:8px;}
	.st46{fill:#565556;}
	.st47{font-family:'Arial-ItalicMT';}
</style>
<g id="Portugal_1_" class="st0">
	
		<image style="display:inline;overflow:visible;" width="325" height="713" id="Layer_0_8_" xlink:href="7EEE0AADECE159D7.png"  transform="matrix(0.6916 0 0 0.6916 166 -17.3187)">
	</image>
</g>
<text transform="matrix(1 0 0 1 399.765 433.6366)" class="st3 st5 st6">Life Expectancy</text>
<text transform="matrix(1 0 0 1 399.765 297.4646)" class="st3 st5 st6">Cost of Living</text>
<text transform="matrix(1 0 0 1 399.765 342.287)" class="st3 st5 st6">Healthcare</text>
<text transform="matrix(1 0 0 1 399.765 388.0098)" class="st3 st5 st6">Crime</text>
<text transform="matrix(1 0 0 1 399.3328 21.3339)" class="st3 st5 st7">Capital:</text>
<text transform="matrix(1 0 0 1 448.3328 21.3339)" class="st8 st5 st7"> </text>
<text transform="matrix(1 0 0 1 451.2328 21.3339)" class="st9 st10 st11">Lisbon</text>
<text transform="matrix(1 0 0 1 399.3328 39.3339)" class="st3 st5 st7">Population:</text>
<text transform="matrix(1 0 0 1 473.8328 39.3339)" class="st8 st10 st11"> </text>
<text transform="matrix(1 0 0 1 476.9327 39.3339)" class="st9 st10 st11">10,355,493</text>
<text transform="matrix(1 0 0 1 399.3328 57.3338)" class="st3 st5 st7">Language:</text>
<text transform="matrix(1 0 0 1 465.1328 57.3338)" class="st12 st10 st11"> </text>
<text transform="matrix(1 0 0 1 468.1328 57.3338)" class="st9 st10 st11">Portuguese (official), Mirandese (official, </text>
<text transform="matrix(1 0 0 1 399.3328 70.5337)" class="st9 st10 st11">but locally used)</text>
<text transform="matrix(1 0 0 1 399.3328 88.5338)" class="st3 st5 st7">Climate:</text>
<text transform="matrix(1 0 0 1 452.7328 88.5338)" class="st8 st13 st11"> </text>
<text transform="matrix(1 0 0 1 455.8328 88.5338)" class="st9 st10 st11">maritime temperate; cool and rainy </text>
<text transform="matrix(1 0 0 1 399.3328 101.7338)" class="st9 st10 st11">in north, warmer and drier in south</text>
<path class="st1" d="M635,309.7H399.3c-1.1,0-2-0.9-2-2l0,0c0-1.1,0.9-2,2-2H635c1.1,0,2,0.9,2,2l0,0
	C636.9,308.8,636,309.7,635,309.7z"/>
<path class="st2" d="M482.3,312.5h-80.4c-2.6,0-4.5-1.8-4.5-3.9v-1.8c0-2.2,2.1-3.9,4.5-3.9h80.4c2.6,0,4.5,1.8,4.5,3.9v1.8
	C486.8,310.7,484.8,312.5,482.3,312.5z"/>
<path class="st1" d="M635,354.9H399.3c-1.1,0-2-0.9-2-2l0,0c0-1.1,0.9-2,2-2H635c1.1,0,2,0.9,2,2l0,0C636.9,354,636,354.9,635,354.9
	z"/>
<path class="st1" d="M635,400.2H399.3c-1.1,0-2-0.9-2-2l0,0c0-1.1,0.9-2,2-2H635c1.1,0,2,0.9,2,2l0,0
	C636.9,399.3,636,400.2,635,400.2z"/>
<path class="st2" d="M481.5,403.1h-81.8c-1.3,0-2.3-1.8-2.3-3.9v-1.8c0-2.2,1.1-3.9,2.3-3.9h81.8c1.3,0,2.3,1.8,2.3,3.9v1.8
	C483.8,401.3,482.8,403.1,481.5,403.1z"/>
<path class="st1" d="M635,446.1H399.3c-1.1,0-2-0.9-2-2l0,0c0-1.1,0.9-2,2-2H635c1.1,0,2,0.9,2,2l0,0
	C636.9,445.2,636,446.1,635,446.1z"/>
<path class="st2" d="M599.6,449.1H401.4c-2.2,0-4-1.8-4-3.9v-1.8c0-2.2,1.8-3.9,4-3.9h198.2c2.2,0,4,1.8,4,3.9v1.8
	C603.5,447.4,601.7,449.1,599.6,449.1z"/>
<polygon class="st3" points="653.4,296.7 653.4,303.2 644.2,308 653.4,312.2 653.4,318.6 675.3,318.6 675.3,296.7 "/>
<polygon class="st3" points="653.4,341.9 653.4,348.4 644.2,353.2 653.4,357.3 653.4,363.8 675.3,363.8 675.3,341.9 "/>
<polygon class="st3" points="653.4,387.3 653.4,393.7 644.2,398.5 653.4,402.7 653.4,409.2 675.3,409.2 675.3,387.3 "/>
<polygon class="st3" points="653.4,433.2 653.4,439.7 644.2,444.4 653.4,448.6 653.4,455.1 675.3,455.1 675.3,433.2 "/>
<text transform="matrix(1 0 0 1 657.7627 311.5071)" class="st14 st13 st11">36</text>
<text transform="matrix(1 0 0 1 658.7631 356.9701)" class="st14 st13 st11">71</text>
<text transform="matrix(1 0 0 1 657.7626 402.0516)" class="st14 st13 st11">32</text>
<text transform="matrix(1 0 0 1 657.7629 448.093)" class="st14 st13 st11">84</text>
<g id="Portugal">
	<polygon id="Viseu" class="st32" points="315,98.3 316.6,98.2 315,103.6 314.5,106 314.3,107.6 314.6,109.8 313.8,110.4 
		312.3,110.3 312.1,110.7 312.1,111.1 312.6,112.1 313.1,112.6 313.7,112.9 314.2,113.2 314.5,113.7 314.7,114.3 314.6,115.2 
		314.1,116.6 312.1,118.5 309.7,117.9 308.9,118.3 309.2,120 309.5,120.5 309.7,121.3 309.6,122.2 308.2,125.6 307.5,126.5 
		306.5,126.4 306.1,125.8 305.7,125.5 303.6,123.2 302.7,122.5 302,122.3 300.5,122.1 299.8,122.5 299.3,123 299,123.4 298.3,125.6 
		297.6,126.9 296.9,127.9 296.7,128.5 296.8,129.1 297.3,129.7 298.9,131 299.2,131.5 299.4,132 299.4,132.6 299.2,133.1 298.5,134 
		299.2,135.2 300.5,136.1 301.6,137.6 301.3,139.6 300.5,140.7 299,145.2 299.2,146.9 295.1,147.6 292.4,148.6 290.4,150.1 
		288.6,150.8 286.9,151.9 286.3,152.2 284.4,152.4 283.8,153.1 282.5,153.4 281.8,153.9 281.1,154.7 279,156.3 277.5,158.7 
		276.4,159.3 273.6,161.2 270.2,162.6 265.5,166.2 261.8,165.6 259.1,166.1 258.9,166.4 258.7,166.7 258.7,167.1 258.5,167.5 
		258.4,167.7 258,167.7 257.5,167.2 256.5,166.7 255.5,165.8 254,164.8 252.1,164.2 251.5,163.7 250.8,163.4 250.5,160.9 
		252.3,158.1 252.6,157.4 252.6,156.3 252,155.2 251.9,154.7 252,154.2 253.4,153.1 256.9,151.7 256.1,150.4 255.7,149.9 
		255.3,149.5 254.9,149 254.5,147.5 253.8,145.7 253.8,145.1 254.2,144.5 254.6,144.1 257.1,143.1 256.1,142.2 255,141.7 
		254.7,141.5 254.2,140.4 254.2,138.1 254,137.5 253.6,136.8 252.7,135.9 252.4,135.4 252.3,134.8 252.3,134.5 252.4,134.1 
		252.9,133 254.4,131.9 255.9,130.2 257.1,127.5 257.7,126.5 257.8,126 257.1,123.5 259,123.3 259.5,123.5 260.2,123.6 261,123.5 
		262.1,122.9 262.8,122.9 263.4,123.2 263.9,123.5 264.4,123.7 265,123.8 265.5,123.6 265.8,123.1 265.9,122.1 265.3,120.6 
		265,118.5 264.7,117.4 264.7,116.8 264.8,115.8 265.2,114.9 267.1,112 267.3,111.6 267.3,111.5 267.3,111.3 267.2,110.9 267,110.6 
		266.6,110.6 265.8,111.3 265.6,111.5 265.4,111.8 265,112.8 264.1,113 263.4,113 258.7,110.7 258.7,108.9 258.8,108.3 258.5,107.5 
		258.3,107 254.5,104.5 258.7,102.9 260.8,102.4 267.1,102.8 268.9,102.7 276.5,100 279.3,98.2 282.6,96.1 283.8,95.9 284.7,96.3 
		286.1,97.8 286.9,98.4 288,98.7 289.2,98.8 290.4,98.6 291.4,98.2 293.2,97 294.2,96.5 295.3,96.4 295.4,96.4 298.1,96.7 301,96.3 
		308.4,93.5 309.3,93.5 310.3,94.2 312.1,96.9 312.9,97.6 	"/>
	<polygon id="Viana_do_Castelo_x0A__x0A_" class="st32" points="260.7,22.4 261.7,22.2 262.8,21.6 264.1,21.5 265.3,22 266.3,23 
		266.8,24.2 266.6,25.7 266,26.8 265,27.6 263.1,28.8 261.3,30.6 258.9,34.2 258.3,35.7 258.2,37.3 258.9,38.8 261.2,39.7 
		261.6,40.3 261.7,41.5 261.5,43.5 261.5,43.5 261.2,43.6 260.4,43.6 254.5,46.8 253,47.4 247.5,47.7 246.5,47.9 245.7,48.2 
		245.2,48.6 244.1,49.5 243,49.9 242.5,49.9 242,49.8 241.5,49.9 241.2,50.1 240.7,50.7 240.5,51.3 240.4,51.9 240.2,53.2 
		240.1,53.8 239.9,54.4 239.4,55 239.1,55.5 238.9,56 239.2,57 238.1,58.9 237.7,58.9 237.1,58.7 236.4,58.3 235.2,58.1 233.3,57.4 
		232.8,57.1 232.5,57.3 232.3,57.7 231.8,58.1 231.2,58.2 228,58.3 223.4,60 222.8,60.1 221.6,59.9 221.3,59.9 221.3,58.8 
		220.7,57.3 220.6,55.3 220.8,54.4 222.2,53.9 226.1,53.2 227.2,52.7 228.2,52 229.1,51.1 222.1,53.2 220.7,53.4 219.8,53.3 
		218.7,52.6 217.5,49.9 217.5,47.4 218,43.6 217.6,41.3 217.8,40.4 218.3,39.6 222.8,35.8 224.9,33.4 225.6,30.3 226.3,29.8 
		227.7,29 229.4,28.6 230.6,27.7 231.1,26.8 231.8,25 232.3,24.2 233.4,23.4 234.5,23.1 236.8,23.1 238,22.6 240.1,21.1 241.3,20.7 
		251,19.1 252,18.5 253.7,17 254.2,16.7 254.7,16.6 255.8,16.5 256.9,16 258.8,14.7 259.4,15.5 259.9,16.8 259.7,20.4 259.9,21.8 	
		"/>
	<polygon id="Vila_Real" class="st32" points="281.2,39.7 281.7,39.2 281.9,38.6 282.2,38.2 282.8,37.9 284.5,38 288.4,37.1 
		290.2,36.2 291.2,36.4 292.9,37.7 294,38.2 297.4,38.4 296.4,41 296.5,41.8 297.5,42.4 298.6,42.5 299.9,42.3 301.2,41.8 
		302.1,41.2 302.5,40.5 302.5,40 302.7,39.5 303.1,39.1 303.6,39.1 304.6,39.7 305.2,39.8 306,40.1 306.9,41.2 307.5,42.7 307.7,44 
		308.5,43.3 310.1,41.6 310.9,41 311.9,40.8 314.1,40.9 315.3,40.7 319.7,39.2 321.8,37.9 322.4,37 322.5,37.5 322.9,39.1 322.7,40 
		322.6,41.7 322.7,43.2 322.9,44 323.4,45.5 324.6,47.1 324.7,47.8 324.7,49 324.5,49.4 324.2,49.9 323.8,50.1 323.3,50.7 321.7,54 
		319.7,61 319.4,63.2 319.5,64.3 319.7,65 320,65.6 320.3,66.1 320.6,66.7 320.7,67.2 320.5,67.6 320,67.9 319.5,68 318.9,68.1 
		318.3,68.3 317.7,69 316.9,70.5 316.5,71.8 315.9,72.5 315.4,72.8 314.8,73 312.8,74.6 312.8,78.7 313.1,80.4 313.6,81.6 
		314.1,82.2 315.6,83.1 313.4,83.8 312.3,85 312.2,85.9 312.3,86.4 312.2,86.7 311.6,87.4 311,88.2 310.7,89.3 310.7,90 310.7,90.5 
		310.8,90.9 310.6,91.1 309.7,91.2 309.1,91.5 308.9,92 308.8,92.4 308.4,93.5 301,96.3 298.1,96.7 295.4,96.4 295.3,96.4 
		294.2,96.5 293.2,97 291.4,98.2 290.4,98.6 289.2,98.8 288,98.7 286.9,98.4 286.1,97.8 284.7,96.3 283.8,95.9 282.6,96.1 
		279.3,98.2 279.6,96.3 279.7,94.2 280.6,90.9 280.3,90.8 279.5,90.2 278.4,88.2 278.2,87 278.4,85.9 276.7,84.6 275.8,84.1 
		275.4,83.4 275.3,82.7 275.3,81.9 274.3,80.6 274.8,79.1 274.8,78.7 274.7,78.1 274.8,77.8 275,77.7 275.3,77.5 275.5,76.9 
		276.4,75.4 276.6,74.8 276.7,74.4 276.4,73.8 277,71.8 277.5,70.9 277.9,70.7 278.2,70.7 278.7,70.8 279.3,70.2 279.6,69.2 
		279.9,69 281,68.4 281.8,67.6 284.3,63.8 284.4,62.8 283.4,60.9 283.1,60.5 282.4,60.2 281.1,61.7 279.3,62.2 278.5,62.2 276,61.7 
		275.4,61.4 274.8,61.1 274.1,61 272.8,60.4 273.1,56.7 273.2,55.8 273.5,54.8 273.3,54.3 273,54 271.4,53 271,52.8 270.5,52.7 
		269.3,53.3 268.9,53.4 268.3,53.3 267.9,53.3 267.4,53.3 267,53.5 266.2,53.6 265.3,53.6 266.8,51.9 267.1,51.4 267.4,50.6 
		268,48.8 268.6,47.8 269,45.4 269.3,44.8 269.6,44.3 269.8,43.8 269.7,43.4 269.6,43.2 269.7,43.2 271.8,41 272.4,40 273.1,39.2 
		274,38.8 275,38.9 276.2,38.9 276.8,37.8 277.1,36.4 277.4,35.4 278.6,34.9 278.8,37.2 279.2,39.7 	"/>
	<path id="Setúbal" class="st33" d="M264.6,335.5l-0.5-2l-1.5-3.3l-2.4-1.8l-1.2-0.4l-0.6,0l-0.6-0.1l-0.6-0.2l-1.3-0.8l-0.9-0.7
		l-1.4-0.5l-0.4-0.2v-0.6l1-1.8l0.2-1.4l-0.3-0.6l-0.5-0.4l-0.9-0.4l-0.3-0.5l0-0.4l0.3-0.3l0-0.5l-0.8-2.2l-0.1-0.5l0-0.2l0-0.1
		l0-0.1l-0.3-0.4l-0.8-0.9l-1.2-1.5l-0.5-0.3l-1.2,0.3l-1.4,0.9l-0.9,0.3l-1.8,0.1l-0.8-0.3l-0.6-0.4l-0.4-0.4l-0.2-0.4l-0.4-0.3
		l-0.6-0.1l-0.2,0.3l0.1,0.4l0.1,0.5l-0.1,0.4l-0.4,0.2l-1.5-0.5l-1.8-0.3l-2.4-1.5l-1.9-0.3l-0.4-1.9l-0.2-0.6l-0.3-0.5l-0.1-0.8
		l0-0.6l2.3-2.9l5.3-3.7l1-1.2l0.5-0.8l0.1-1l-0.1-0.5l0.7-1.3l-0.1-0.8l-0.4-0.2l-2.6-0.5l-1.6-0.3l-0.6,0l-0.7-0.2l-0.7-0.9
		l-0.1-0.7l0-0.7l0.1-0.6l0-0.6l0.1-0.6l0-0.4l-0.3-0.2l-1.1,0.5l-1.2,0.7l-1.7-0.6l-0.7-0.5l-0.4-0.3l-0.5-0.2l-0.4,0.2l-1.8,3.6
		l-0.8,2.2l-0.2,0.6l-0.9,1.3l-1.1,0.3l-0.4,0l-1.8-0.6l-0.6-0.8l-0.5-0.2l-0.7-0.1l-1.1,0.3l-0.7,0.4l-1.3,0.5l-0.7,0.1l-0.6-0.2
		l-0.5-0.6l-0.3-1.2l0.1-1l-0.5,0l-0.7,0.2l-0.3,0.1l-0.4,0.3l-0.2,0.2l-2.3,2l-1.8,1.4l-1,1l-0.9,1.1v0.5l-0.9,0.1l-2,0.5l-0.9,0.5
		l0.4,1.6h-0.4l-0.6-1l-1.3-0.8l-2.7,0.2l-2.9,0.4l-1.1,0.6l0.9,2.4l1.9,3.1l1.5,3.7l0,3.8l-0.4,2.5l-1.9,1.9l-0.5,0.7l-0.2,0.2
		l-0.2,0.5l0,0.6l0.2,0.4l0.3,0l1.6,0.5l1.1-0.3l1-0.8l1.3-0.5l6.1-0.7l3.6-1.5l-0.5-0.4l2.8-3.3l3.1-0.6l2.4,0.8l2.2,1.2l1.3,0.3
		l1.5,0.1l0.5-0.6l0-1.3l-0.7-1.2l-1.4-0.2v-0.5l1.2-0.4l1.2-2.5l1,0.2l-0.4,0.9l0.2,1.1l0.6,0.9l0.9,0.3v0.6l-0.5,0.4l-0.3,0.8
		l-0.1,1l0.1,1.1l0.4,1.1l0.6,0.7l4.6,2.2l1.6,0.3l1.9,0.1l-3.1,1l-6.3-1.7l-2.6,0.1l-0.1-1l-1.4-0.8l-2.9-1l-2.3-2l-1.4-0.6l-1,1
		l1.8,0.7l2.3,1.9l2,2.3l1.6,1.7l1.6,3.2l0.6,4.4l0.5,5.1l0.2,4.3l-1.4,4.3l-1.2,5.7l-3.3,7l-0.5,0.5l-0.5,0.2l-0.4,0.3l-0.3,0.7
		l2.6,1.6l2.1,0.4l1,2l0.4,1.9l0.1,2.6l-0.3,1.4l0.6,0.6l0.4,0.5l0.3,0.2l0.5,0l0.4-0.3l0.5-0.3l0.4-0.2l1.1,0.4l0.5,0.6l0.2,0.4
		l1.6,2l0.6,1.1l0.3,0.4l0.4,0l0.3-0.4l0.2-0.4l0.4-0.2l0.5,0.1l0.5,0.3l0.5,0.4l1.1,0.5l0.7,0.1l1.1-0.4l0.4-0.5l0.1-0.6l0.1-0.6
		l0.6-1.8l0.3-0.6l1.1-1.1l0.3-0.6l0.2-0.6l0.6-0.6l1.1-0.5l5.6-1.1l2.8,0.5l1.7,0l0.3,0.1l1.9,1l0.9-2.2l0.3-0.6l0.7-2.2l0.4-3.5
		l0-2.3l-0.6-1.7l-0.4-0.8l-0.8-0.7l-0.8-0.1l-0.7-0.2l-0.8-0.4l-0.9-1.1l-1.2-0.9l-0.3-0.8l-0.1-0.4l0-0.4l0.2-0.5l0.1-0.5l0.2-0.5
		l0.2-0.6l0.3-0.7l0.4,0l0.3,0.2l0.4,0.1l0.3,0l0.2-0.4l0.1-0.3l0.3-0.7l0.1-0.4l0-0.4l0-0.3l0.1-0.3l0.4-0.2l0.4-0.4l0.4-0.1
		l0.6,0.3l0.5,0.4l0.5,0.2l0.4-0.2l0.4-1.4l0.1-0.7l0.2-0.5l0.5-0.3l2.2,0.1l0.4-0.6l0.3-0.9l0.5-0.3l2.2-0.6l1.1-0.5l2.2-0.6
		l0.3-0.9l0-0.5L264.6,335.5z M220,316.6l-0.4,0.1l-0.1,0.3l0,0.3l0.5,0.5l0.3-0.7L220,316.6z"/>
	<polygon id="Santarém" class="st32" points="244.9,215.1 246.1,214.7 248.7,213.7 249.5,213.5 250.9,212.9 252.1,213.1 
		252.4,212.9 252.2,211.3 252.1,210.8 252.1,210.4 252.6,210.5 255.2,210.8 255.6,212.1 256.2,212.5 257.1,212.7 257.8,213 
		258.2,213.5 258.4,213.9 258.5,214.3 258.5,214.7 258.4,215.1 258.5,216.6 258.1,217.4 258.1,218.9 258.4,221.8 258.9,222.9 
		262.4,224.3 264,225.4 265.3,225.4 267.5,225.2 268.9,224.7 268.9,224.3 268.8,223.7 268.3,222.5 268.3,221.6 268.6,220.5 
		269.1,219.7 269.8,215.6 270.1,214.9 271.4,214.7 273.4,215.4 274.9,215.5 275.3,215.8 275.5,216.3 275.6,216.9 275.6,217.5 
		275.7,218.1 275.8,219.3 275.7,220.6 275.9,221.3 276.3,221.5 277,221.7 277.7,221.8 279,222.3 279.9,223 281.1,223.8 282.4,225.3 
		283.7,227.4 284,227.9 284.4,229.4 285,230.2 283.7,231 283.2,231.3 282,232.8 281.8,233 281.4,233.2 281.3,233 280.5,232.2 
		277.9,230.8 276.7,230.5 275.9,230.8 274.8,231.8 273.4,233.8 272.1,237.4 274.6,240 275.6,240.7 275.9,241.2 275.9,241.7 
		274.7,243.7 271.7,245.8 271.2,246.2 271,247.3 270.7,247.9 269.9,249.3 268.4,251.1 268.1,251.5 267.8,251.9 267.4,252.3 
		266.5,252.5 265.3,252.3 264.6,252.4 263.8,253.2 263.2,254.9 261.7,256.1 258,259.6 254.5,262.1 253.6,263 251.8,265.9 
		251.8,267.2 253.3,267.9 253.9,268.3 254.5,268.9 254.7,269.7 254.9,270.3 255.3,271 256,271.6 256.4,272.4 256.6,273 256.8,273.6 
		257.6,274.4 260.4,275.3 259.8,276.3 259.4,276.6 258.6,276.6 258.3,276.7 258,277.2 257.8,278 257.8,279.3 257.6,280.1 
		257.4,280.8 257,281.3 256.6,281.8 256.4,282.3 256.6,282.9 257.1,283.4 257.5,283.7 260.7,285.1 261.5,285.3 261.8,285.5 
		262.1,286.1 261.7,287.5 261.7,288.1 262.1,288.8 263.1,289.9 263.6,290 264.2,290.2 264.5,290.7 264.7,291.4 264.3,292.5 
		263.2,293.5 262.2,293 262,292.6 261.6,291.6 261.3,291.4 261,291.5 260.6,291.4 260.4,291.1 260.3,290.6 260.1,290.1 259.7,289.7 
		259,289.5 257.1,289 256.5,288.6 254.8,286.8 254.4,286.5 254,286.5 253.7,286.9 253.6,287.3 253.2,287.5 252.9,287.4 252.3,287.4 
		251.5,287.7 250.7,287.6 249.6,287.2 249.2,287.2 249.1,287.6 248.9,288.1 248.7,288.5 248.4,288.8 248,289 247.5,289.1 
		246.8,289.1 246.2,289.2 244.9,290.6 244.2,291 241.5,291.6 238.4,294.1 236.8,293.9 236.2,293.9 235.5,293.7 234.8,292.8 
		234.7,292.1 234.7,291.4 234.8,290.8 234.8,290.2 235,289.6 234.9,289.2 234.6,289 233.5,289.5 232.3,290.2 230.6,289.6 
		229.9,289.1 229.5,288.8 229,288.5 228.6,288.7 226.8,292.3 226,294.6 225.9,295.2 224.9,296.5 223.9,296.8 223.4,296.8 
		221.7,296.1 221.1,295.3 220.6,295.1 219.9,295 218.8,295.3 218.2,295.7 216.9,296.2 216.2,296.3 215.6,296.1 215,295.5 
		214.7,294.3 214.8,293.3 214.3,291.4 214.1,290.9 213.9,290.5 212.7,289.2 212.8,288.2 213.7,287.2 214.1,286.6 215.1,284.8 
		217.2,278.9 217.9,277.5 218.5,276.7 218.8,275.9 220,274 219.3,273.5 219.1,272.8 221.5,272.1 222.7,270.6 223.1,270.4 
		223.3,270.1 223.1,269.6 223.1,269.6 224.1,268.6 224.7,267.4 223.1,268.7 223.1,268.7 222.5,267.6 222.3,267.2 222,266.9 
		221.6,266.5 220.3,266 219.9,265.7 218.1,264 217.8,263.5 217.3,262.5 216.9,262.2 216.4,261.9 216.1,261.5 216.1,261 217,260.3 
		217.8,260.1 219.6,260.2 220.6,259.9 221.5,259.1 218.4,256 217.9,254.8 215.3,255.5 211,254.3 211.1,253.1 210.4,251.1 
		210.2,248.5 209.8,247.1 210.1,246.1 211.4,243.7 212.7,243.4 213.2,243.1 213.8,242.3 215.8,238.1 216.6,237.2 218.5,236.5 
		222.6,236.2 225.6,236.5 226.5,235.8 226.6,235.2 226.7,235 226.7,234.8 226.6,234.6 226.2,233.7 226.1,233.1 226.2,232.5 
		226.4,232.2 226.9,232.2 227.4,232.4 228,232.4 228.5,232.3 230.2,230.2 230.6,229.5 229.8,227.4 229.7,225.8 229.2,223.3 
		230.5,222.2 231.1,221.9 231.6,221.5 232.1,221 232.3,220.3 232.1,218.9 231.6,218.3 231.1,217.9 230.6,217.5 230.4,216.8 
		230.5,215.9 230.3,214.4 230.3,213.8 230.6,213.1 231,212.5 233.8,211.3 235,211.6 235.7,211.4 236.9,210.8 240,208.6 240.8,208.3 
		241.4,208.3 242.2,207.6 243.2,207.3 244.1,210.7 244.2,211.6 244.6,213.6 244.7,214.2 244.9,214.7 	"/>
	<polygon id="Porto" class="st32" points="234.8,82.3 235.1,82.3 235.7,82.2 239.2,82.2 239.7,82 240.2,81.9 240.6,81.5 241.1,81.1 
		242.3,80.4 243.4,80.1 244.2,80.1 244.6,80.4 245.1,80.7 246.7,80.9 248.6,80.5 251.2,80.1 251.7,80.3 252.5,80.9 252.9,80.9 
		254.4,80.3 254.9,80.2 256.8,79.2 258,78.3 259,76.9 262.1,78 263.4,79.4 263.6,79.9 263.5,80.6 265.7,82.3 267.7,83.2 268.4,83 
		269.8,83.8 270.5,84.4 271.1,84.4 271.6,84.1 272.1,83.8 272.4,83.4 272.6,83.1 273.1,82.7 273.4,82.5 273.7,82.2 273.9,81.8 
		274.1,81.5 274.3,80.6 275.3,81.9 275.3,82.7 275.4,83.4 275.8,84.1 276.7,84.6 278.4,85.9 278.2,87 278.4,88.2 279.5,90.2 
		280.3,90.8 280.6,90.9 279.7,94.2 279.6,96.3 279.3,98.2 276.5,100 268.9,102.7 267.1,102.8 260.8,102.4 258.7,102.9 254.5,104.5 
		254.3,105.4 254.1,105.7 251,107.8 249.8,107.4 248.1,108.2 248.1,108.6 248.1,109.1 248.4,109.6 248.5,110.1 248.3,110.5 
		247.8,110.5 246.7,109.6 246.2,108.7 245.9,108.2 244.6,106.9 243.5,108.1 243.2,108.6 242.8,109.7 242.4,110 241.7,110.1 
		240.8,109.6 240.3,109.1 239.7,108.8 239,108.8 238,109.5 236,110.2 235,109.5 232.2,109.9 231.6,110.1 231.6,110.1 231.6,108.9 
		230.9,103.4 230.9,100.4 232.1,99.3 232.1,98.8 229.7,98.2 228.5,95.9 227.7,93 226.5,90.7 226.8,89.6 226.6,88.6 226.3,87.7 
		226,86.7 226,84.1 225.7,83.3 225.3,83.1 225,82.2 224.8,81.3 223.9,79.8 223.6,78.6 223.6,77.6 223.4,75.2 224.1,72.5 225.6,72.5 
		227.1,73.4 228.7,74.1 230.3,74.2 230.9,74.4 231.4,74.9 231.8,75.4 232.9,76.5 233.8,77 234.5,77.2 235.1,77.8 235.3,78.3 
		235.1,78.7 234.8,78.9 234.1,79.1 233.7,79.7 233.8,80.4 234,81.5 234.4,82.1 	"/>
	<polygon id="Portalegre" class="st32" points="300.6,220.4 301.1,221.5 303.1,227.2 304.3,228.2 306.1,230.7 307.2,231.7 
		309.3,232.9 309.8,233.6 310.4,235.3 311.4,236.1 312.7,236.8 315.4,237.5 315.8,238.3 315.8,240 315.5,241.9 315,243 314.7,244.2 
		314.7,246 315,247.7 315.5,248.7 316.6,249.6 319.8,253.4 318.9,254.9 318.8,256.6 319.3,258.3 320.2,259.5 321.7,260.4 
		323.5,260.9 325,261.5 325.7,263.1 325.6,263.9 324.9,265.5 325,266.2 325.6,266.8 326.6,267.3 327.5,267.5 328.3,267.2 
		329.8,266.3 331.4,266.1 333.1,266.5 334.5,267.5 335.5,268.5 336.4,269.9 336.8,271.5 336.4,272.9 337.1,273.5 337.2,274.2 
		336.8,275 336.2,275.8 334.1,280 332.7,281.9 331.4,283 332.2,284.6 331.9,285.9 332,287 331.5,287.4 330.7,288 329.9,288.8 
		328.9,289.3 326,289.9 325.4,290.4 325.1,291.2 324.2,292.2 323.2,293.1 322.2,293.5 321.3,294.2 321.3,294.2 320.9,293.6 
		320.9,292.9 321,292.5 322,291 322.1,290.5 322,289.4 321.8,288.8 321,288.3 320.3,288 319.1,288 317.3,288.7 315.9,289.8 
		314.7,291.2 313.7,291.5 313.4,291.3 312.3,291.4 311.4,290.8 310.8,290.3 310,288.7 309.6,288.1 309.9,286.9 309,285.6 
		308.9,284.5 308.4,282.9 307,281.7 307,280.8 306.8,280.3 306.7,278.9 306.3,278.1 305.3,277.1 302.8,276.1 302.4,275.3 
		302.4,275.3 302.2,275.3 301.9,275.3 301,275.9 301.5,276.6 301.7,277 301.7,277.5 301.5,278.1 300.8,278.5 299.9,278.9 
		298.6,279.2 297.7,279.5 296.8,280.2 296.4,280.8 296.1,281.4 295.8,281.7 295.5,281.9 295,282 293.6,281.4 292.9,281.3 
		292.3,281.3 291.7,281.6 291.2,281.5 290.3,280.9 289.7,280.9 288.7,282.1 288.1,282.8 286.1,283.5 284.8,283.4 284.2,283.5 
		283.5,283.5 282.9,283.4 281.1,282.2 278.3,278.3 277.6,277.7 276.2,278 275.2,278.7 274.8,279.2 274.4,279.6 273.9,279.8 
		273.3,280 271.8,279.7 271.6,279.6 271.6,278.7 271.6,277.5 271.4,276.8 270,275.3 270,275.2 269.7,275 269.1,274.9 268.1,275 
		267.4,275.3 267.3,275.3 267.3,275.4 267.2,275.6 267.1,276 267.1,276.5 267,277 266.6,277.1 266.2,276.7 265.9,275.6 266.1,274.5 
		266.3,274 266.3,273.6 265.3,273.2 263.6,273.3 263.1,273.4 262.7,273.7 261.6,274.1 260.4,275.3 257.6,274.4 256.8,273.6 
		256.6,273 256.4,272.4 256,271.6 255.3,271 254.9,270.3 254.7,269.7 254.5,268.9 253.9,268.3 253.3,267.9 251.8,267.2 251.8,265.9 
		253.6,263 254.5,262.1 258,259.6 261.7,256.1 263.2,254.9 263.8,253.2 264.6,252.4 265.3,252.3 266.5,252.5 267.4,252.3 
		267.8,251.9 268.1,251.5 268.4,251.1 269.9,249.3 270.7,247.9 271,247.3 271.2,246.2 271.7,245.8 274.7,243.7 275.9,241.7 
		275.9,241.2 275.6,240.7 274.6,240 272.1,237.4 273.4,233.8 274.8,231.8 275.9,230.8 276.7,230.5 277.9,230.8 280.5,232.2 
		281.3,233 281.4,233.2 281.8,233 282,232.8 283.2,231.3 283.7,231 285,230.2 285.9,229.2 286.8,227.9 287.8,226.8 289.1,226.3 
		289.5,225.8 290,224.5 290.8,223.2 291.9,222.4 293.3,222.5 294.4,223.1 295.4,223.2 296.8,222.1 297.7,221.3 298.7,220.6 
		300,220.1 300.6,220.4 	"/>
	<path id="Lisbon" class="st33" d="M209.1,282.3l-0.3-0.5l-0.5,1.2l-0.1,1.3l0.4-0.4L209.1,282.3z M207.4,286l-0.2,0.1l-0.4,0.3
		l-0.7,0.8l-0.6,1.2l-0.5,1.4l0.4,0.2l1.2-1.2l0.8-1.3l0.4-1.2l0-0.5L207.4,286z M204.4,288l1.9-2.2l3.5-7l3-4.4l1.2-2.3l0.8-0.7
		l5.4-0.6l2.8-2.1l-0.5-1.1l-0.3-0.4l-0.3-0.3l-0.4-0.3l-1.3-0.5l-0.4-0.3l-1.8-1.7l-0.3-0.5l-0.5-1l-0.4-0.3l-0.5-0.3l-0.3-0.4
		l0-0.5l0.9-0.6l0.7-0.2l1.9,0.1l1-0.3l0.9-0.8l-3.1-3.1l-0.5-1.2l-2.5,0.8l-4.3-1.3l0.1-1.2l-0.8-1.9l-1.8-0.4l-1.2-0.5l-0.9-0.2
		l-0.7,0.1l-0.4,0.2l-0.6,0.4l-1.3,1.6l-1.5,2.5l-1.2,1.5l-1.3,1.1l-1-1l-1.4-4.9l-0.5-0.9l-0.5-0.7l-0.4-0.3l-0.3,0.1l-0.8-0.1
		l-0.5,0.4l-2.6,1.6h-2.4l-0.6,0.1l0.4,2.1l-0.4,2.6l-0.3,3.1l-1.3,2.9l-0.8,2.2l-2.4,4.5l-0.3,2.2l-0.6,1.8l0.7,3.1l0.2,4.9
		l-2.1,6.5l-1.5,1.6l-0.8,0.9l-0.3,0.8v1.7l0.8,3.5l-0.4,1.4l0,1.6l1.3,0.4l2.7-0.4l1.5,0.3l2.8,1.2l2.4,1.5l1.1-1.4l1.1-0.9
		l4.1,0.4l3.6-0.6l3.2-1l0.9-1.9l-0.3-1.9l-0.1-2.7l-0.1-1.5l0.4-1.3L204.4,288z M223.1,269.6L223.1,269.6L223.1,269.6l-2.3,1.7
		l-1.2,0.5l-2.7,0.2l-1.3,0.3l-2.2,1.7l-1.6,2.5l-2.7,5.7l0.6,1.9l0.4,2l0.7,1.3l1.5-0.1l-0.4,1.2l0.4,1.7l0.7,1.6l0.6,1.1v0.5
		l0.7-0.2l0.5,0l-0.5-1.8l-0.3-0.5l-0.2-0.3l-1.1-1.4l0-1l0.9-1l0.4-0.6l0.9-1.8l2.2-5.9l0.6-1.4l0.6-0.8l0.3-0.8l1.2-1.8l-0.7-0.5
		l-0.2-0.7l2.3-0.7l1.3-1.5l0.4-0.2l0.1-0.3L223.1,269.6z M209.2,284.8l-0.5,0.3l-0.4,1.1l0.6,0.6l0.9-0.3l0.1-0.7l-0.3-0.6
		L209.2,284.8z"/>
	<path id="Leiria" class="st33" d="M177.9,242l0.6-0.7l-0.4-0.1L177.9,242z M265.3,197.4l0.7-0.6l-2.6-4.2l-0.2-1.4l0.4-2.3
		l-0.2-0.5l-0.4-0.6l-0.4-0.3l-0.8-0.5l-1.9,2.6l-1.9-0.7l-2.7,2.4l-1,1.5l0,0.5l0.1,0.6l0.2,0.3l0.8,0.7l0.3,0.5l-0.1,0.7l-0.4,0.4
		l-0.5,0.1l-1-0.5L253,196l-2.2,2.5l-2.6,1l-0.5,0l-0.4-0.1l0.3-0.3l0.5-0.3l0.3-0.5l0.1-0.7l-0.3-1.1l-0.6-1.6l-0.8-1.7l-0.4-0.4
		l-0.6-0.1l-0.1,0.4l-1.3-0.1l-2.1,1.8l-1.7,1l-1.2,1.4l-0.4,0.4l-0.3-0.3l-0.2-0.4l-0.1-0.6V195l-0.1-0.8l-0.4-1.8l-0.4-0.5
		l-0.4-0.2l-0.4,0l-0.5,0l-0.5,0.2l-0.4,0.3l-1,1.6l-0.2,0.2l-0.3,0.2l-0.7,0l-0.4-0.2l-0.2-0.1l-0.6-0.9l-1.1-1l-0.8-0.5l-1.3-0.3
		l-1.2-0.1l-3.2-0.3l-1.6,0.7l-0.7,0.6l-0.6,0.1l-2-0.4l-0.9-0.4l-0.6-0.4l-1.6-0.7l-0.4-0.2l0,0l-5.7,16.7l-4.9,13.3l-0.4,3.1
		l-0.8,2.2l0.1,1.5l-0.1,1.4l-1.3,2.3l-0.6,1.3l-0.9,1.5l-1.8,1.2l-1.2,0.8l-0.5,0.9l-1.4,1.7l-1,1.6l1,1l0.5,1.1l-0.7,0.8l-0.6-0.2
		l-0.8-0.9l-1.3,0.1l-1.2,1l-4.6,3.1l-2.8-0.8l-0.7,0.2l0.5,0.8l2.3,2.4l0.7,1.6l0.4,1.9l0.6-0.1h2.4l2.6-1.6l0.5-0.4l0.8,0.1
		l0.3-0.1l0.4,0.3l0.5,0.7l0.5,0.9l1.4,4.9l1,1l1.3-1.1l1.2-1.5l1.5-2.5l1.3-1.6l0.6-0.4l0.4-0.2l0.7-0.1l0.9,0.2l1.2,0.5l1.8,0.4
		l-0.2-2.6l-0.4-1.5l0.3-1l1.4-2.3l1.2-0.3l0.5-0.4l0.6-0.8l2-4.2l0.9-0.9l1.8-0.7l4.1-0.3l3,0.3l0.9-0.6l0.1-0.6l0.1-0.3v-0.1
		l-0.1-0.2l-0.4-0.9l-0.1-0.6l0-0.6l0.3-0.4l0.5,0l0.5,0.2l0.6,0l0.5-0.1l1.6-2.1l0.4-0.6l-0.7-2.2l-0.1-1.5l-0.6-2.6l1.4-1.1
		l0.6-0.3l0.5-0.4l0.5-0.5l0.2-0.7l-0.2-1.3l-0.5-0.6l-0.5-0.4l-0.4-0.4l-0.2-0.6l0-1l-0.2-1.5l0-0.6l0.3-0.7l0.3-0.5l2.9-1.3
		l1.1,0.3l0.8-0.2l1.1-0.6l3.1-2.2l0.9-0.3l0.6,0l0.8-0.7l1-0.3l0.9,3.4l0.1,0.9l0.4,1.9l0.1,0.7l0.2,0.5l0.1,0.4l1.1-0.4l2.6-1
		l0.8-0.2l1.4-0.6l1.2,0.2l0.3-0.2l-0.2-1.6l-0.1-0.6l0.1-0.4l0.5,0.2l2.6,0.2l-0.3-0.9l0-0.4l0.5-0.7l0.4-0.3l0-0.5l0-0.4l0.4-0.5
		l0.3-0.4l2.8-0.9l0.6,0.1l0.4-0.3l0.5-0.7l0.6-0.6l0.6-0.3l0.5-0.1l0.6-0.4l0.6-0.6l1.2-2.4l0.2-1l-0.1-0.1l-0.1-0.3l-0.2-0.4
		l0.3-0.8L265.3,197.4z"/>
	<polygon id="Guarda" class="st32" points="340.1,107.5 340,107.5 339.8,109 339.1,110.1 339.2,111.2 339.9,112.1 341.8,114.2 
		342.7,115.7 344.1,119.1 344.6,120.8 345.1,121.5 346,121.8 346.7,122.3 347,123.4 346.8,124.4 345.8,124.7 345.7,126.8 
		345.7,127.4 346,128.3 345.9,128.7 345.7,129.2 345.6,130 345.6,131.6 345.7,132.8 346.5,135.5 347,138.3 347.2,139.7 347.2,140.7 
		346.7,142.1 345.3,144.8 344.9,146.1 345,147.5 345.6,148.4 346.3,149.1 346.9,150.3 347.3,151.7 347.1,152.7 345.6,154.8 
		344.5,157.7 344.8,160.4 346.3,162.7 348.4,164.7 347.3,166.7 346.8,167.3 344,169.3 343.7,169.7 343.4,170.4 343.4,171.1 
		343.3,171.7 343.2,172.2 342,173 340.8,173.1 339.6,173 339.1,173.1 339.1,173.1 338.9,172.8 338.2,172 337.2,171.4 335.7,170.6 
		335.3,170.5 334.7,170.4 333.6,170.7 332.2,170.8 330.8,170.5 330.2,170 329.6,168.9 329.4,168.3 329,167.9 328.6,167.8 
		327.9,168.4 327.5,169 327.2,169.7 327.1,170.3 326.7,170.7 325.9,171 322.9,171 320,172.1 318.4,171.7 317.1,171.4 316.5,171.2 
		316.1,171.1 315.6,170.8 315.4,170.6 315.3,170.1 315.5,169.5 316.1,168.6 316.7,168 317.2,167.4 317.9,165.2 318.5,160.3 
		317.8,160 317.3,160 316.2,160.1 315.6,160.3 315,160.3 313.7,161.9 311.7,162.5 311,162.6 309.5,162.1 307,160 303.9,163.1 
		303,164.6 302.9,165.1 302.4,166.3 302,166.8 301.4,167.4 299.3,167.8 297.7,167.2 296.5,169 295.1,170.5 293.5,171.5 291.8,172.2 
		289.4,174 288.7,174.3 287.6,174.4 286.4,175 285.5,173.5 283.8,172.5 284.5,170.9 284.8,169.6 285.2,168.8 285.8,168.1 
		287.2,167.1 287.4,166.6 287.1,166.1 286.2,165.3 285.8,164.7 285.3,161.7 285.4,161 285,160.6 283.9,160.4 283.4,160 282.9,159.2 
		283.1,158.6 283.6,158.2 284.1,158 284.6,157.7 285,157.2 285.2,156.4 285.2,155.9 284.8,155.3 284.4,154.9 283.8,153.1 
		284.4,152.4 286.3,152.2 286.9,151.9 288.6,150.8 290.4,150.1 292.4,148.6 295.1,147.6 299.2,146.9 299,145.2 300.5,140.7 
		301.3,139.6 301.6,137.6 300.5,136.1 299.2,135.2 298.5,134 299.2,133.1 299.4,132.6 299.4,132 299.2,131.5 298.9,131 297.3,129.7 
		296.8,129.1 296.7,128.5 296.9,127.9 297.6,126.9 298.3,125.6 299,123.4 299.3,123 299.8,122.5 300.5,122.1 302,122.3 302.7,122.5 
		303.6,123.2 305.7,125.5 306.1,125.8 306.5,126.4 307.5,126.5 308.2,125.6 309.6,122.2 309.7,121.3 309.5,120.5 309.2,120 
		308.9,118.3 309.7,117.9 312.1,118.5 314.1,116.6 314.6,115.2 314.7,114.3 314.5,113.7 314.2,113.2 313.7,112.9 313.1,112.6 
		312.6,112.1 312.1,111.1 312.1,110.7 312.3,110.3 313.8,110.4 314.6,109.8 314.3,107.6 314.5,106 315,103.6 316.6,98.2 321.5,97.8 
		323.6,98.4 324.8,98.4 325.4,97.5 327.8,95.8 328.4,95.5 327.9,97.2 327.6,97.8 327.9,98.1 328.2,98.5 328.6,98.7 329.1,98.8 
		329.7,99.1 329.6,99.7 329.4,100.4 329.3,101.2 329.6,102.2 330.1,103.4 330.8,104.3 336.3,107.1 339,107.2 340,107.5 	"/>
	<path id="Faro" class="st33" d="M310,420.4l-0.2-0.3l-0.1-0.3l-0.2-0.4l-0.9-3.5l-0.3-1.8l0.4-1.2l-0.6-2.6l-0.5-6.3l-1.1-2.5
		l0.1-0.9l-0.2-1.7l-0.4-1.9l-0.4-1.5l-0.3-0.5l-1.1-0.9l-0.5-0.5l-0.5-0.8l0,0l-1.6,0.3l-1.8,0l-1.3,0.7l-1.2,1.2l-0.7,0.5
		l-0.6,0.1l-0.4-0.2l-0.9-0.2l-0.4-0.2l-3.3,0l-4.9,2.1l-1.1,0.8l-0.4,0.3l-0.4,0.3l-0.4,0l-1.1,0.6l-0.5,0.1l-0.4,0.2l-0.1,0.5
		l-0.9,0.1l-1.1,0.7l-0.1,0.5l-0.3,0.5l-0.8,0.5l-1.7,0.3l-0.8,0l-2.1,0.3l-0.8,0.6l-0.3,0.5l-0.1,0.5l0.2,0.3l0.5,0.7v0.3l-0.5,0.2
		l-2.2,1.2l-1.4,1.1l-1,0.4l-0.7,0l-2.4-0.3l-1.2,0l-2-0.6l-4.4-3.3l-1-0.5l-0.8-0.9l-0.2-0.5l-0.2-1.1l-0.4-0.9l-1.6-0.4l-1.1,0.2
		l-0.6,0.3l-0.6-0.1l-0.7,0l-1.3,0.3l-2.4,0.8l-0.2,0.2l-0.4,0.6l-0.1,0.6l-0.3,0.7l-1.1,0.5l-1.1,0.5l-2.7-0.4l-0.9-0.4l-2.4-1.4
		l-0.7-0.1l-2.4,0.4l-0.5,0.2l-0.3,0.4l-0.3,0.4l-0.3,0.3l-0.6-0.1l-0.4-0.3l-1.7-0.8l-2.6-0.1l-0.5-0.3l-0.6-0.5l-0.5-0.6l-1-0.8
		l-1-0.3l-1.2-0.8l-0.7-0.5l-0.5,2.5l-1.1,2.6l-0.3,1.9l-1.8,2l-1,2l0.5,1.2l0.5,1.4l-0.9,3.5l-1.5,1.5l-1.1,1.1l0.6,2.3l-0.8,1.9
		l-0.9,2.2l-2.4,3.9l-0.3,0.5l-0.3,1.1l-0.4,2.2l0.9-0.4l0.7,0.4l0.7,0.7l1,0.4l0.7-0.2l1.3-1.1l0.7-0.2l0.5-0.4l1.1-1.1l1.2,0.5
		l1.4-1.2l1.5-0.4l0.9-0.1l0.8-0.4l1.6-1l0.8-0.2h3.9l2-2.2l0.8-0.6l0.9-0.3l2.9-0.2l2.7,0.5l3.3,1.9l0.1-0.1l2.7,1l2.7-0.3l1.9-0.9
		l2.4,0.8l2.1,0.8l5-0.7l2.1-0.1l2,0.9l2.6,0.6l4.5,2.5l2.3,1.9l1.4,2.1l-0.1-0.7l-0.2-0.5l-0.6-1l0.6,0.3l0.8,0.5l0.7,0.1l0.5-0.9
		l1.1,0.4l3.9,0.1l1.3,0.3l1,0.4l0.9,0l2.1-1.9l9.5-6.5l0.5-0.7l3.7-2.4l1.1-0.4l2.5-1.8l1.4-0.5l1.3-0.1l1.4,0.1l1.3,0.4l1,0.8
		l0.5-0.6v-0.5L310,420.4z M280.1,434.8l0.1-0.2l-0.4,0l-0.6,0.1h-0.5l-0.1,0.3l0.3,0.1l0.4,0.4l1-0.3l-0.3-0.1l-0.3-0.1l0.1-0.2
		L280.1,434.8z M281.7,434.8l-0.1-0.2l-1.5,1.5l-1.3,0.5l-3.2-0.4v0.6l1.5,0.5l1.7,0l1.6-0.4l1.2-0.8l0.1-0.2l0.4-0.3l-0.2-0.6
		L281.7,434.8z M278.4,436.4l0.3,0l0-0.4l0.1-0.3l-0.3-0.3L278.4,436.4z"/>
	<polygon id="Évora" class="st32" points="266.6,277.1 267,277 267.1,276.5 267.1,276 267.2,275.6 267.3,275.4 267.3,275.3 
		267.4,275.3 268.1,275 269.1,274.9 269.7,275 270,275.2 270,275.3 271.4,276.8 271.6,277.5 271.6,278.7 271.6,279.6 271.8,279.7 
		273.3,280 273.9,279.8 274.4,279.6 274.8,279.2 275.2,278.7 276.2,278 277.6,277.7 278.3,278.3 281.1,282.2 282.9,283.4 
		283.5,283.5 284.2,283.5 284.8,283.4 286.1,283.5 288.1,282.8 288.7,282.1 289.7,280.9 290.3,280.9 291.2,281.5 291.7,281.6 
		292.3,281.3 292.9,281.3 293.6,281.4 295,282 295.5,281.9 295.8,281.7 296.1,281.4 296.4,280.8 296.8,280.2 297.7,279.5 
		298.6,279.2 299.9,278.9 300.8,278.5 301.5,278.1 301.7,277.5 301.7,277 301.5,276.6 301,275.9 301.9,275.3 302.2,275.3 
		302.4,275.3 302.4,275.3 302.8,276.1 305.3,277.1 306.3,278.1 306.7,278.9 306.8,280.3 307,280.8 307,281.7 308.4,282.9 
		308.9,284.5 309,285.6 309.9,286.9 309.6,288.1 310,288.7 310.8,290.3 311.4,290.8 312.3,291.4 313.4,291.3 313.7,291.5 
		314.7,291.2 315.9,289.8 317.3,288.7 319.1,288 320.3,288 321,288.3 321.8,288.8 322,289.4 322.1,290.5 322,291 321,292.5 
		320.9,292.9 320.9,293.6 321.3,294.2 321.3,294.2 318.5,296.5 318.4,296.8 317.9,297.9 317.7,298.5 317.2,301.2 317.1,303 
		317.1,303.9 317.2,304.5 317.6,305 318,305.2 318.3,305.5 318.5,306.1 318.2,307.2 315.6,311.1 314.4,315.1 313.8,316 314.5,317.1 
		314.5,318 313.9,318.9 313,319.9 313.8,320.3 315.6,321.6 322.2,330.2 322.5,330.7 322.9,331.7 323.2,332.2 323.6,332.7 
		324.7,333.5 325,333.8 327.5,340.3 328.2,340.9 327.9,341 327.5,341.3 326.9,341.5 326,341.5 325.2,340.9 324.6,340.4 324.1,339.2 
		323.9,338.6 323.2,337 323.1,336.4 322.9,335.9 322.6,335.5 320.9,334.7 319.7,333.4 319.4,332.9 319.3,332.3 319.1,331.7 
		318.9,331.1 318.5,330.7 318.3,330.4 318.2,330.1 318.1,329.7 318,329.5 317.9,329.1 317.4,329 316.9,329.1 315.3,329.8 
		314.9,329.8 314.4,329.9 312.4,331.1 310.4,331.6 310.3,332.1 310.2,332.7 309.9,333.4 309.5,334.2 308.9,334.7 308.6,335 
		307.6,335.5 307.5,335.8 305.7,336.7 304.7,337.8 303.8,339.2 303.7,339.7 303.1,339.9 300.2,339.8 298.8,339.3 297.6,339.1 
		293.5,339 292.6,338.7 288.6,336.5 287,335.8 283.8,335.5 278.5,333.1 277.1,331.4 275.2,330.7 274.7,330.5 274,330.4 272.6,331.2 
		272.1,331.2 271.5,331 270.8,330.5 270.1,329.7 269.8,329.5 268.9,329.4 267.5,329.6 262.8,329.5 262.6,330.2 260.2,328.4 
		259,327.9 258.5,327.9 257.9,327.8 257.3,327.6 256,326.9 255.1,326.2 253.8,325.6 253.4,325.4 253.4,324.8 254.4,323 254.6,321.6 
		254.3,321 253.9,320.6 253,320.2 252.7,319.8 252.7,319.3 252.9,319.1 252.9,318.6 252.1,316.4 252,315.9 252,315.7 252,315.6 
		252,315.5 251.7,315.1 250.8,314.2 249.6,312.7 249.1,312.4 247.9,312.7 246.5,313.6 245.6,314 243.8,314 243,313.7 242.4,313.3 
		242.1,313 241.8,312.5 241.4,312.2 240.8,312.2 240.6,312.5 240.7,312.9 240.8,313.4 240.7,313.8 240.3,314 238.8,313.5 237,313.3 
		234.6,311.8 232.7,311.5 232.3,309.6 232.2,309 231.9,308.4 231.8,307.7 231.9,307.1 234.1,304.2 239.4,300.5 240.4,299.2 
		240.9,298.5 241,297.5 240.9,297 241.6,295.7 241.5,294.9 241.1,294.6 238.4,294.1 241.5,291.6 244.2,291 244.9,290.6 246.2,289.2 
		246.8,289.1 247.5,289.1 248,289 248.4,288.8 248.7,288.5 248.9,288.1 249.1,287.6 249.2,287.2 249.6,287.2 250.7,287.6 
		251.5,287.7 252.3,287.4 252.9,287.4 253.2,287.5 253.6,287.3 253.7,286.9 254,286.5 254.4,286.5 254.8,286.8 256.5,288.6 
		257.1,289 259,289.5 259.7,289.7 260.1,290.1 260.3,290.6 260.4,291.1 260.6,291.4 261,291.5 261.3,291.4 261.6,291.6 262,292.6 
		262.2,293 263.2,293.5 264.3,292.5 264.7,291.4 264.5,290.7 264.2,290.2 263.6,290 263.1,289.9 262.1,288.8 261.7,288.1 
		261.7,287.5 262.1,286.1 261.8,285.5 261.5,285.3 260.7,285.1 257.5,283.7 257.1,283.4 256.6,282.9 256.4,282.3 256.6,281.8 
		257,281.3 257.4,280.8 257.6,280.1 257.8,279.3 257.8,278 258,277.2 258.3,276.7 258.6,276.6 259.4,276.6 259.8,276.3 260.4,275.3 
		261.6,274.1 262.7,273.7 263.1,273.4 263.6,273.3 265.3,273.2 266.3,273.6 266.3,274 266.1,274.5 265.9,275.6 266.2,276.7 	"/>
	<path id="Coimbra" class="st33" d="M289.3,184.9l-0.1-0.6l-0.3-0.8l-1.7-1.2l-1.1-1.3l-0.7-0.6l-0.3-0.6l-0.3-1l0.2-0.6l1.4-3.2
		l-1-1.4l-1.7-1l0.7-1.6l0.3-1.3l0.4-0.9l0.5-0.7l1.4-1l0.2-0.6l-0.2-0.4l-0.9-0.8l-0.4-0.6l-0.5-3l0.1-0.7l-0.4-0.4l-1.1-0.2
		l-0.5-0.4l-0.4-0.8l0.2-0.5l0.4-0.4l0.5-0.2l0.5-0.3l0.4-0.5l0.3-0.8l-0.1-0.6l-0.4-0.6l-0.4-0.3l-0.6-1.9l-1.3,0.3l-0.7,0.4
		l-0.7,0.8l-2.1,1.6l-1.5,2.4l-1.1,0.6l-2.8,2l-3.4,1.4l-4.8,3.5l-3.7-0.6l-2.7,0.5l-0.3,0.2l-0.2,0.3l0,0.4l-0.2,0.4l-0.2,0.2
		l-0.4,0l-0.5-0.5l-1-0.5l-1-0.9l-1.5-1l-1.9-0.5l-0.6-0.5l-0.7-0.3l-0.6,0.6l0.1,0.7l-0.8,1l-1.4-0.1l-0.4,0.1l-0.5,0.6l-0.4,0.7
		l-1.4,1.8l-0.3,0.8l-0.6,0.6l-0.5,0.3l-3.7-0.4l-0.4-0.5l-0.1-0.5l0-0.8l0.2-0.9l0.5-1.2l0.3-0.5l0.3-0.3l0.2-0.1l0.3-0.2l0.1-0.2
		l0.3-1.2l0.1-0.5l-0.1-0.6l-0.7-1.4l-0.3-1.6l-0.7,0.1l-1,0.4l-1,0.7l-0.6,0.2l-0.5-0.1l-0.4-0.6l-0.2-1.5l-0.1-0.8l0.4-2l-2.4-1.7
		l-1.4,2.1l-0.2,1.3l-0.5,0.9l-2.1-0.2l-6.9-7.1l-0.1-0.2l-0.7,4l-4.2,16.4l-1.9,3.8l-0.8,2.3l0.1,1.7l0.6,1.2l1.1,0.7l2.9,0.4
		l1.1,0.4l0.9,0.7l1,1v0.6l-2.5-0.1l-1-0.5l-0.7-1.1l-0.9,1.2l-2.2,6.4l0,0l0.4,0.2l1.6,0.7l0.6,0.4l0.9,0.4l2,0.4l0.6-0.1l0.7-0.6
		l1.6-0.7l3.2,0.3l1.2,0.1l1.3,0.3l0.8,0.5l1.1,1l0.6,0.9l0.2,0.1l0.4,0.2l0.7,0l0.3-0.2l0.2-0.2l1-1.6l0.4-0.3l0.5-0.2l0.5,0l0.4,0
		l0.4,0.2l0.4,0.5l0.4,1.8l0.1,0.8v1.3l0.1,0.6l0.2,0.4l0.3,0.3l0.4-0.4l1.2-1.4l1.7-1l2.1-1.8l1.3,0.1l0.1-0.4l0.6,0.1l0.4,0.4
		l0.8,1.7l0.6,1.6l0.3,1.1l-0.1,0.7l-0.3,0.5l-0.5,0.3l-0.3,0.3l0.4,0.1l0.5,0l2.6-1l2.2-2.5l0.7-0.1l1,0.5l0.5-0.1l0.4-0.4l0.1-0.7
		l-0.3-0.5l-0.8-0.7l-0.2-0.3l-0.1-0.6l0-0.5l1-1.5l2.7-2.4l1.9,0.7l1.9-2.6l0.8,0.5l0.4,0.3l0.4,0.6l0.2,0.5l-0.4,2.3l0.2,1.4
		l2.6,4.2l-0.7,0.6l-0.3,0.3l-0.3,0.8l0.2,0.4l0.1,0.3l0.1,0.1l-0.2,1l1-1l0.2-0.5l0.4-0.3l0.3-0.1l0.8-0.1l0.7-0.8l1.4-0.4l1,0
		l0.2-0.3l0.1-0.4l0.1-0.5l0.3-0.1l0.9-0.1l0.3-0.4l0.3-0.2l0.5-0.1l0.4,0l0.4,0.1l0.3,0.2l0.3-0.2l0.8-1.2l0.5-0.3l0.5-0.1l1.2,0
		l0.6-0.4l0.1-0.4l-0.3-1.1l0.2-0.7l0.8-0.8l1.5-0.8l0.9-0.1l0.8,0l0.6,0.2l0.6,0.2l1.2,1l0.2-1.6l-0.1-1.4l0.3-0.5l0.3-0.2l0.3,0.1
		l0.1,0.3l0.2,0.3l0.4,0.1l0.6-0.1l1.2-0.8l0.5-0.5l0.2-0.4l0-0.5L289.3,184.9z M220.8,183.9l0.7,0l1.3-0.6l-2-1.1l-0.7-0.3
		l-0.3,0.2l-0.2-0.2l0.3,0.6l0.2,0.5L220.8,183.9z"/>
	<polygon id="Castelo_Branco" class="st32" points="320,172.1 322.9,171 325.9,171 326.7,170.7 327.1,170.3 327.2,169.7 327.5,169 
		327.9,168.4 328.6,167.8 329,167.9 329.4,168.3 329.6,168.9 330.2,170 330.8,170.5 332.2,170.8 333.6,170.7 334.7,170.4 
		335.3,170.5 335.7,170.6 337.2,171.4 338.2,172 338.9,172.8 339.1,173.1 339.1,173.1 338.3,173.2 335.6,175 334.5,175.5 334,176.3 
		333.3,178.2 332.8,179.1 333.3,180.3 333.8,183.1 334.5,184.2 335.3,184.5 336.9,184.7 337.6,185 338.3,185.6 339.1,186.9 
		340.5,188.7 343.1,193.3 342,195.1 341.7,195.9 341.8,196.8 341.5,197.6 341.2,199.6 341,199.9 340.4,200.4 340.2,200.7 
		340.2,201.2 340.4,202 340.4,202.4 340.3,203.2 340.3,204.5 340,205.3 338.5,207.7 337.9,208 336.4,208.6 335.9,209.1 335.5,210.2 
		335.6,211 335.8,211.8 335.9,212.5 335.7,213.3 335,214.6 334.7,215.4 334.6,216.1 334.8,216.7 334.9,217.3 334.2,219 333.3,219.4 
		324,220.6 322.1,220.5 320.7,219.6 319.6,220 317.1,219.9 316,220.1 314.9,220.6 314.1,220.8 300.5,220.2 300.6,220.4 300.6,220.4 
		300,220.1 298.7,220.6 297.7,221.3 296.8,222.1 295.4,223.2 294.4,223.1 293.3,222.5 291.9,222.4 290.8,223.2 290,224.5 
		289.5,225.8 289.1,226.3 287.8,226.8 286.8,227.9 285.9,229.2 285,230.2 284.4,229.4 284,227.9 283.7,227.4 282.4,225.3 
		281.1,223.8 279.9,223 279,222.3 277.7,221.8 277,221.7 276.3,221.5 275.9,221.3 275.7,220.6 275.8,219.3 275.7,218.1 275.6,217.5 
		275.6,216.9 275.5,216.3 275.3,215.8 274.9,215.5 273.4,215.4 271.4,214.7 270.1,214.9 269.8,215.6 269.1,219.7 268.6,220.5 
		268.3,221.6 268.3,222.5 268.8,223.7 268.9,224.3 268.9,224.7 267.5,225.2 265.3,225.4 264,225.4 262.4,224.3 258.9,222.9 
		258.4,221.8 258.1,218.9 258.1,217.4 258.5,216.6 258.4,215.1 258.5,214.7 258.5,214.3 258.4,213.9 258.2,213.5 257.8,213 
		257.1,212.7 256.2,212.5 255.6,212.1 255.2,210.8 254.9,209.9 254.9,209.5 255.4,208.8 255.8,208.4 255.8,207.9 255.8,207.5 
		256.1,207.1 256.5,206.7 259.2,205.8 259.8,205.9 260.2,205.6 260.7,204.9 261.3,204.3 261.9,204 262.4,203.9 263,203.5 
		263.6,202.9 264.8,200.5 265.8,199.4 266,199 266.4,198.6 266.7,198.5 267.6,198.4 268.3,197.6 269.7,197.2 270.7,197.2 
		270.9,196.9 271,196.5 271.1,196 271.5,195.9 272.4,195.8 272.7,195.5 273,195.3 273.6,195.2 274,195.2 274.4,195.4 274.7,195.5 
		275,195.3 275.8,194.1 276.2,193.8 276.7,193.7 277.9,193.6 278.5,193.2 278.6,192.8 278.4,191.7 278.6,191 279.3,190.2 
		280.8,189.4 281.7,189.3 282.5,189.2 283.1,189.4 283.6,189.6 284.8,190.7 285,189 284.9,187.7 285.2,187.2 285.5,187 285.8,187 
		286,187.3 286.2,187.6 286.6,187.8 287.3,187.7 288.5,186.8 289.1,186.3 289.3,185.8 289.3,185.4 289.3,184.9 289.2,184.3 
		288.9,183.5 287.2,182.3 286.2,181 285.5,180.4 285.2,179.8 284.9,178.8 285.1,178.2 286.4,175 287.6,174.4 288.7,174.3 289.4,174 
		291.8,172.2 293.5,171.5 295.1,170.5 296.5,169 297.7,167.2 299.3,167.8 301.4,167.4 302,166.8 302.4,166.3 302.9,165.1 303,164.6 
		303.9,163.1 307,160 309.5,162.1 311,162.6 311.7,162.5 313.7,161.9 315,160.3 315.6,160.3 316.2,160.1 317.3,160 317.8,160 
		318.5,160.3 317.9,165.2 317.2,167.4 316.7,168 316.1,168.6 315.5,169.5 315.3,170.1 315.4,170.6 315.6,170.8 316.1,171.1 
		316.5,171.2 317.1,171.4 318.4,171.7 	"/>
	<polygon id="Bragança" class="st32" points="332.3,32.6 334.5,31.6 336,30.5 336.5,30.8 337.4,31.2 338.9,32.5 340.7,32.8 
		344.6,32.5 346.1,31.6 346.5,29 348.4,29.4 350.7,32.9 352.6,33.5 357,33.3 359.2,32.7 360,30.9 361.5,31.5 362.4,32.5 362.6,33.9 
		362.1,37.6 362.6,38.1 363.7,38.3 365.4,38.9 364.6,40.4 363.1,47.3 362.8,48.1 362.4,48.8 362,49.6 362.2,50.3 362.6,51.1 
		362.9,51.9 363.1,53.4 363.4,55.1 364.3,56.4 366,57.1 366.7,56.9 367.6,56.4 368.5,55.8 368.9,55.3 369.3,54.9 370.2,54.9 
		375.3,56 378.4,57.1 381.2,59 383.8,61.8 384.7,63 385.3,63.8 382.3,68.3 380.7,70 380.3,70.8 380.4,71.5 380.5,72.1 380.5,72.6 
		378.1,76.5 378.1,77.2 376.2,77.3 375.3,77.7 374.5,78.3 374.7,78.4 374.7,78.9 374.6,79.5 374.5,80 374.2,80.1 373.4,79.9 
		373.2,80 371.2,83.2 369.2,85.3 368,86.2 367.1,86.9 363.5,88.5 362.9,88.9 358.8,89 357.7,89.2 357,90 354.7,93.4 354.3,94.6 
		353.9,95.3 351.7,97.2 350.9,98.2 350.6,98.8 350.8,100.9 350.3,102.4 347.8,106.1 346.9,107 345.2,107.2 341.4,106.8 340.1,107.5 
		340,107.5 339,107.2 336.3,107.1 330.8,104.3 330.1,103.4 329.6,102.2 329.3,101.2 329.4,100.4 329.6,99.7 329.7,99.1 329.1,98.8 
		328.6,98.7 328.2,98.5 327.9,98.1 327.6,97.8 327.9,97.2 328.4,95.5 327.8,95.8 325.4,97.5 324.8,98.4 323.6,98.4 321.5,97.8 
		316.6,98.2 315,98.3 312.9,97.6 312.1,96.9 310.3,94.2 309.3,93.5 308.4,93.5 308.8,92.4 308.9,92 309.1,91.5 309.7,91.2 
		310.6,91.1 310.8,90.9 310.7,90.5 310.7,90 310.7,89.3 311,88.2 311.6,87.4 312.2,86.7 312.3,86.4 312.2,85.9 312.3,85 313.4,83.8 
		315.6,83.1 314.1,82.2 313.6,81.6 313.1,80.4 312.8,78.7 312.8,74.6 314.8,73 315.4,72.8 315.9,72.5 316.5,71.8 316.9,70.5 
		317.7,69 318.3,68.3 318.9,68.1 319.5,68 320,67.9 320.5,67.6 320.7,67.2 320.6,66.7 320.3,66.1 320,65.6 319.7,65 319.5,64.3 
		319.4,63.2 319.7,61 321.7,54 323.3,50.7 323.8,50.1 324.2,49.9 324.5,49.4 324.7,49 324.7,47.8 324.6,47.1 323.4,45.5 322.9,44 
		322.7,43.2 322.6,41.7 322.7,40 322.9,39.1 322.5,37.5 322.4,37 323.1,36 323.2,34.6 322.8,31.9 323,30.7 323.4,30.2 324.4,29.5 
		325.5,28.9 326.4,28.7 328.4,30 330.3,31.7 	"/>
	<polygon id="Braga" class="st32" points="266.2,53.6 267,53.5 267.4,53.3 267.9,53.3 268.3,53.3 268.9,53.4 269.3,53.3 270.5,52.7 
		271,52.8 271.4,53 273,54 273.3,54.3 273.5,54.8 273.2,55.8 273.1,56.7 272.8,60.4 274.1,61 274.8,61.1 275.4,61.4 276,61.7 
		278.5,62.2 279.3,62.2 281.1,61.7 282.4,60.2 283.1,60.5 283.4,60.9 284.4,62.8 284.3,63.8 281.8,67.6 281,68.4 279.9,69 
		279.6,69.2 279.3,70.2 278.7,70.8 278.2,70.7 277.9,70.7 277.5,70.9 277,71.8 276.4,73.8 276.7,74.4 276.6,74.8 276.4,75.4 
		275.5,76.9 275.3,77.5 275,77.7 274.8,77.8 274.7,78.1 274.8,78.7 274.8,79.1 274.3,80.6 274.1,81.5 273.9,81.8 273.7,82.2 
		273.4,82.5 273.1,82.7 272.6,83.1 272.4,83.4 272.1,83.8 271.6,84.1 271.1,84.4 270.5,84.4 269.8,83.8 268.4,83 267.7,83.2 
		265.7,82.3 263.5,80.6 263.6,79.9 263.4,79.4 262.1,78 259,76.9 258,78.3 256.8,79.2 254.9,80.2 254.4,80.3 252.9,80.9 252.5,80.9 
		251.7,80.3 251.2,80.1 248.6,80.5 246.7,80.9 245.1,80.7 244.6,80.4 244.2,80.1 243.4,80.1 242.3,80.4 241.1,81.1 240.6,81.5 
		240.2,81.9 239.7,82 239.2,82.2 235.7,82.2 235.1,82.3 234.8,82.3 234.4,82.1 234,81.5 233.8,80.4 233.7,79.7 234.1,79.1 
		234.8,78.9 235.1,78.7 235.3,78.3 235.1,77.8 234.5,77.2 233.8,77 232.9,76.5 231.8,75.4 231.4,74.9 230.9,74.4 230.3,74.2 
		228.7,74.1 227.1,73.4 225.6,72.5 224.1,72.5 224.1,72.4 223.4,70.5 223.3,68.7 223,67.6 222.8,66.2 222,63.6 221.7,61.7 
		221.3,60.4 221.3,59.9 221.6,59.9 222.8,60.1 223.4,60 228,58.3 231.2,58.2 231.8,58.1 232.3,57.7 232.5,57.3 232.8,57.1 
		233.3,57.4 235.2,58.1 236.4,58.3 237.1,58.7 237.7,58.9 238.1,58.9 239.2,57 238.9,56 239.1,55.5 239.4,55 239.9,54.4 240.1,53.8 
		240.2,53.2 240.4,51.9 240.5,51.3 240.7,50.7 241.2,50.1 241.5,49.9 242,49.8 242.5,49.9 243,49.9 244.1,49.5 245.2,48.6 
		245.7,48.2 246.5,47.9 247.5,47.7 253,47.4 254.5,46.8 260.4,43.6 261.2,43.6 261.5,43.5 261.5,43.5 261.5,43.6 266.9,44 
		269.6,43.2 269.7,43.4 269.8,43.8 269.6,44.3 269.3,44.8 269,45.4 268.6,47.8 268,48.8 267.4,50.6 267.1,51.4 266.8,51.9 
		265.3,53.6 	"/>
	<polygon id="Beja" class="st32" points="326.9,341.5 327.5,341.3 327.9,341 328.2,340.9 329,341.7 330,341.7 331.5,341.4 
		333.1,340.7 333.8,339.6 334.2,339.7 334.4,339.7 336,339.2 337.8,339.1 338.6,339.7 338.8,339.9 338.2,342.1 337.7,343.3 
		336.8,346 335.7,348.4 335.1,350.8 334.5,351.8 334,353.7 332.4,353.9 328.9,352.5 327.8,352.4 327.2,353 326.6,354.6 326,355.5 
		325.5,355.8 324.7,356 323.9,356.4 323.1,356.3 322.3,356.1 321.5,356 320.8,356.5 318.8,356.9 318.4,357.4 318.4,358 318.6,358.8 
		318.6,359.6 318.3,361 316.9,364.7 316.2,367.4 314.5,370.5 308.7,375.4 307.6,377 306.8,379.4 306.2,383.2 305.9,384.4 305.5,385 
		303.8,386.8 303.2,387.2 303.4,387.7 303.3,388.1 303.2,388.4 303.1,388.8 302.5,389.6 302.3,389.9 302.3,390.7 302.4,390.8 
		302.6,390.8 303,391.9 303,392.4 303.2,392.9 303.2,393 303.2,393 301.6,393.3 299.8,393.3 298.5,394 297.3,395.2 296.6,395.7 
		296.1,395.8 295.7,395.6 294.8,395.4 294.4,395.2 291.1,395.2 286.2,397.3 285.1,398.1 284.7,398.3 284.3,398.6 283.9,398.6 
		282.8,399.2 282.3,399.3 281.9,399.6 281.8,400.1 280.8,400.2 279.8,400.9 279.6,401.4 279.3,401.9 278.5,402.4 276.8,402.7 
		275.9,402.7 273.9,403 273,403.6 272.8,404.1 272.7,404.7 272.8,405 273.3,405.6 273.3,406 272.9,406.2 270.7,407.4 269.3,408.5 
		268.3,408.9 267.6,408.9 265.3,408.7 264,408.7 262,408.1 257.6,404.8 256.7,404.3 255.9,403.4 255.7,402.9 255.6,401.8 
		255.1,400.9 253.6,400.5 252.5,400.6 251.9,401 251.2,400.8 250.5,400.9 249.2,401.2 246.8,402 246.5,402.3 246.1,402.8 246,403.4 
		245.7,404.1 244.6,404.6 243.5,405.1 240.8,404.6 239.9,404.2 237.5,402.8 236.7,402.7 234.3,403.1 233.8,403.3 233.5,403.7 
		233.1,404.1 232.8,404.4 232.2,404.3 231.8,404 230.2,403.2 227.6,403.1 227.1,402.8 226.5,402.3 226,401.6 225,400.8 224,400.5 
		222.8,399.8 222.1,399.2 222.3,398.2 222.7,396 222.8,392.4 222.5,390.5 221.8,389.3 221,388.3 220.9,387.3 221.7,383.8 222,381.6 
		222.6,379.6 223.4,379.2 225.2,378.8 225.5,376.9 225.5,376.6 224.9,377.2 223.5,377.5 222,377.6 221.5,376.2 221.9,372.1 
		222.5,369.3 223.1,369.9 223.4,370.4 223.7,370.6 224.2,370.7 224.6,370.4 225.2,370.1 225.6,370 226.7,370.4 227.1,370.9 
		227.3,371.4 229,373.4 229.5,374.4 229.8,374.8 230.2,374.8 230.5,374.4 230.7,374 231.1,373.8 231.6,373.9 232.1,374.2 
		232.5,374.5 233.6,375 234.3,375.1 235.4,374.7 235.7,374.2 235.8,373.5 235.9,372.9 236.5,371.2 236.8,370.6 237.9,369.5 
		238.1,368.9 238.3,368.3 238.9,367.8 240,367.2 245.6,366.2 248.4,366.7 250,366.7 250.3,366.7 252.1,367.7 253,365.5 253.3,365 
		254,362.8 254.4,359.3 254.3,357 253.7,355.3 253.3,354.5 252.5,353.8 251.7,353.8 251,353.6 250.2,353.2 249.2,352.1 248,351.1 
		247.7,350.3 247.6,349.9 247.6,349.5 247.8,349 247.9,348.5 248,348 248.2,347.4 248.5,346.7 249,346.7 249.3,346.9 249.7,347 
		250,347 250.2,346.6 250.3,346.4 250.6,345.6 250.7,345.2 250.7,344.8 250.8,344.5 250.9,344.1 251.4,343.9 251.7,343.6 
		252.2,343.5 252.8,343.7 253.2,344.1 253.8,344.3 254.2,344 254.6,342.6 254.7,342 254.9,341.5 255.3,341.1 257.6,341.2 258,340.6 
		258.3,339.7 258.8,339.5 261,338.9 262.1,338.4 264.3,337.7 264.6,336.8 264.5,336.3 264.6,335.5 264.1,333.5 262.6,330.2 
		262.8,329.5 267.5,329.6 268.9,329.4 269.8,329.5 270.1,329.7 270.8,330.5 271.5,331 272.1,331.2 272.6,331.2 274,330.4 
		274.7,330.5 275.2,330.7 277.1,331.4 278.5,333.1 283.8,335.5 287,335.8 288.6,336.5 292.6,338.7 293.5,339 297.6,339.1 
		298.8,339.3 300.2,339.8 303.1,339.9 303.7,339.7 303.8,339.2 304.7,337.8 305.7,336.7 307.5,335.8 307.6,335.5 308.6,335 
		308.9,334.7 309.5,334.2 309.9,333.4 310.2,332.7 310.3,332.1 310.4,331.6 312.4,331.1 314.4,329.9 314.9,329.8 315.3,329.8 
		316.9,329.1 317.4,329 317.9,329.1 318,329.5 318.1,329.7 318.2,330.1 318.3,330.4 318.5,330.7 318.9,331.1 319.1,331.7 
		319.3,332.3 319.4,332.9 319.7,333.4 320.9,334.7 322.6,335.5 322.9,335.9 323.1,336.4 323.2,337 323.9,338.6 324.1,339.2 
		324.6,340.4 325.2,340.9 326,341.5 	"/>
	<polygon id="Aveiro" class="st32" points="264.1,113 265,112.8 265.4,111.8 265.6,111.5 265.8,111.3 266.6,110.6 267,110.6 
		267.2,110.9 267.3,111.3 267.3,111.5 267.3,111.6 267.1,112 265.2,114.9 264.8,115.8 264.7,116.8 264.7,117.4 265,118.5 
		265.3,120.6 265.9,122.1 265.8,123.1 265.5,123.6 265,123.8 264.4,123.7 263.9,123.5 263.4,123.2 262.8,122.9 262.1,122.9 
		261,123.5 260.2,123.6 259.5,123.5 259,123.3 257.1,123.5 257.8,126 257.7,126.5 257.1,127.5 255.9,130.2 254.4,131.9 252.9,133 
		252.4,134.1 252.3,134.5 252.3,134.8 252.4,135.4 252.7,135.9 253.6,136.8 254,137.5 254.2,138.1 254.2,140.4 254.7,141.5 
		255,141.7 256.1,142.2 257.1,143.1 254.6,144.1 254.2,144.5 253.8,145.1 253.8,145.7 254.5,147.5 254.9,149 255.3,149.5 
		255.7,149.9 256.1,150.4 256.9,151.7 253.4,153.1 252,154.2 251.9,154.7 252,155.2 252.6,156.3 252.6,157.4 252.3,158.1 
		250.5,160.9 250.8,163.4 250.2,164 250.3,164.7 249.5,165.7 248.1,165.6 247.7,165.8 247.2,166.4 246.8,167.1 245.4,168.9 
		245.1,169.6 244.5,170.2 244.1,170.6 240.4,170.2 240,169.6 239.9,169.1 239.9,168.4 240.1,167.5 240.6,166.3 240.9,165.8 
		241.2,165.4 241.4,165.3 241.7,165 241.8,164.8 242.1,163.6 242.2,163.1 242.1,162.5 241.4,161.1 241.1,159.5 240.3,159.6 
		239.4,160 238.3,160.7 237.8,160.9 237.3,160.8 236.8,160.2 236.6,158.7 236.6,157.9 236.9,155.9 234.5,154.2 233.2,156.3 
		232.9,157.7 232.5,158.5 230.4,158.3 223.4,151.2 223.3,151 223.5,149.9 224.7,146.1 225.5,141.3 225.7,141 226,140.8 226.1,142.5 
		226,143.1 227.3,141 228.2,140.2 229.1,140.8 229.4,140.8 229.4,140.2 229.3,140 229,139.6 228.9,139 229.1,138.5 229.7,138.2 
		230,138.4 230.3,138.9 230.6,139.1 231.2,138.9 231.7,138.3 232.5,136.8 231.5,136.2 230.9,135.3 231.1,134.4 232.3,134 
		233.7,133.8 234.8,133.4 235.8,132.7 236.8,131.8 235.8,131.8 234.2,132.6 232.8,132.9 232.6,133 232.2,133.1 230.8,132.4 
		230.3,131.8 229.8,129.5 232.2,126.1 231.6,124.4 231.5,125.7 231.1,126.8 230.7,127.2 230.3,126.1 229.5,127.7 228.8,129.9 
		228.4,132.2 228.2,134.3 227.9,135.6 227.2,137.5 226.4,139.3 225.6,140.2 231.6,112 231.6,110.1 231.6,110.1 232.2,109.9 
		235,109.5 236,110.2 238,109.5 239,108.8 239.7,108.8 240.3,109.1 240.8,109.6 241.7,110.1 242.4,110 242.8,109.7 243.2,108.6 
		243.5,108.1 244.6,106.9 245.9,108.2 246.2,108.7 246.7,109.6 247.8,110.5 248.3,110.5 248.5,110.1 248.4,109.6 248.1,109.1 
		248.1,108.6 248.1,108.2 249.8,107.4 251,107.8 254.1,105.7 254.3,105.4 254.5,104.5 258.3,107 258.5,107.5 258.8,108.3 
		258.7,108.9 258.7,110.7 263.4,113 	"/>
</g>
<path id="Azurs" class="st34" d="M202.1,190l-0.2-0.1l-0.2,0.2l0,0v0l0,0l0.1,0l0.1,0l0.1,0l0.1-0.1L202.1,190z M198.8,192.6
	L198.8,192.6L198.8,192.6L198.8,192.6L198.8,192.6z M189.5,136l-0.4-0.5l-0.3-0.3l0,0.3l0.1,0.2l0.1,0.2l0.2,0.2l0.7,1.1l-0.1-0.6
	L189.5,136z M193.7,123.8l0-0.7l-0.1,0.2l-0.4-0.2l-0.5,0.1l-0.4,0.4l-0.2,0.7l-0.1,0.2l-0.2,0.1l-0.2,0v0.2l0.4,0.2l0.3-0.1
	l0.2-0.2l0.2-0.3l0.3-0.2l0.3,0l0.7,0.1l-0.2-0.2L193.7,123.8z M185.9,130.9l-0.2,0l-0.2,0.1l-0.3-0.2l-0.3-0.1l-0.7,0l-0.2-0.1
	l-0.2-0.1l-1-0.8l-0.2-0.1l-0.6-0.4l-0.3-0.1l-0.7,0.1l-0.4,0.1l-0.3,0.1l-0.4,0.2l-0.5,0.1l-0.5,0l-0.5-0.3l-0.4-0.1l-0.1,0
	l-0.2-0.1l-0.5-0.5l-0.2-0.2l-0.2-0.1l-0.1,0l-0.1,0l-0.2,0.1l-0.5,0.7l-0.1,0.1l-0.3,0.1l-0.1,0.3l0,0.4l0.2,0.4l0.5,0.6l0.7,0.6
	l0.7,0.5l3.2,1.3l1.6,0.1l0.9-0.1l0.8-0.3l0.3-0.7l0.1-0.2l0.6-0.8l0.2-0.2l0.2-0.1l0.7-0.3l0.3-0.1l-0.2-0.1L185.9,130.9z"/>
<path class="st34" d="M42.4,39.3l-0.2,0l-0.2,0.2l-0.2,0.2L41.7,40l0.1,0.1l0.3,0.8l0,0.2l0.6-0.1l0.4-0.7l0-0.7L42.4,39.3z
	 M41.9,45.5L41.6,45l-0.3,0.2l-0.3,0L40.8,45l-0.2-0.2l0.1-0.3l-0.4,0L40,44.6l-0.3,0.3l-0.1,0.4l-0.1,0.5l-0.2,0.4l-0.1,0.4
	l0.1,0.4l-0.2,0.3l0,0.5l0.1,0.5l0.2,0.3l0.3,0.2l0.4,0.1l0.4-0.1l0.4-0.2l0.3,0.2l0.4-0.4l0.3-0.7l0.1-0.6l0-1.1L41.9,45.5z
	 M90.4,67l-1.7-0.8l-0.2,0.2l-0.3,0.5L88,67l-0.2,0.1l-0.3,0l-0.6,0l-0.6,0.1l0,0.2l0.9,0.5l0.4,0.4l0.5,0.8l0.4,0.2l0.2,0l0.6-0.1
	l0.2,0l0.5,0.2l0.2,0l0.2-0.2l-0.2,0l-0.1-0.1l0-0.1l-0.1-0.1l0.2-0.1l0.6-0.3l0.1,0l-0.3-1.1L90.4,67z M101.7,56.8l0.4,0.2l0.4,0.1
	l0.4,0l0.3-0.1l0.4-0.2l0.2-0.3l-0.1-0.4l-0.3-0.3l-0.6-0.5l-0.3-0.4l-0.1,0.2l-0.2-0.1l-0.2,0l-0.2,0l-0.2,0.1l-0.3,0.8l0,0.4
	l0.2,0.4L101.7,56.8z M160.2,107l-0.2-0.5l-0.3-0.4l-0.4-0.3l-0.5-0.1l-0.8,0l-0.7,0.2l-0.4,0.4l-0.2,0.2l0.1,0.3l0.2,0.3l0.1,0.3
	l0.1,0.2l0.3,0l0.6-0.2l1.1,0.4l0.7,0.1l0.3-0.4L160.2,107z M121.3,64.7l-0.2-0.1l0.1-0.2l-0.1-0.5l-0.6-0.6l-0.8-0.5l-0.6-0.2
	l-3-0.2l-0.6,0.1l-0.7,0.4l-0.4,0.6l0.2,0.8l0.2,0.5l0.4,0.6l0.5,0.4l0.4,0.2l0.5,0L117,66l0.5,0.3l0.2,0L118,66l0.4,0.3l1.3,0
	l0.5,0.2l0.6-0.3l0.1-0.1l0-0.2l-0.1-0.4l0-0.2l0.1-0.1l0.4-0.2l0.1-0.1l-0.1-0.2L121.3,64.7z M157.5,88l0.5-0.8l-0.1-0.9l-0.5-0.7
	l-0.7-0.3l-2.7,0.1l-2,0.6l-0.3,0.2l-0.2-0.1l-0.4-0.3l-0.2-0.1l-0.3,0.1l-0.5,0.4l-0.3,0.1l-2.5-0.3l-0.2-0.1l-0.1-0.2l-0.1-0.2
	l0-0.3l-0.1-0.2l-0.7-0.6l-0.5-0.1l-1.5,0.1l-0.3,1.3l0.7,0.9l2.3,1.7l1.7,0.1l1.1,0.3l0.5,0.2l0.5,0.3l0.3-0.2l0.4,0l0.9,0l0.9-0.1
	l0.9-0.2l2.6-0.3L157.5,88z M101.4,71.2l-0.9-0.1l-1.3-0.4l-0.4-0.1l-0.2-0.1l-0.4-0.3L98,70.1l0-0.1l-0.7-0.3l-1.9-1.2l-0.8-0.1
	l-1.4,0l-0.6,0.2L92,69.1v1.1l0.5,0.8l1.3,1.2l0.4-0.2l2.8,0.1l0.4,0.1l0.2,0.3l0.2,0.3l0.2,0.1l0.7-0.6l0.4-0.1l0.4,0l1.5,0.2
	l0.6,0l0.3-0.3l-0.1-0.6L101.4,71.2z M106.1,67.7l-1.4-0.5l-2.8-1.5l-3.8-1.5l-0.3-0.1l-0.3-0.1l-0.6-0.4l-0.3-0.1l0,0.3l0.1,0.2
	l0.9,0.8l0.2,0.1l0.2,0l0,0.1l0,0.1l0,0.1l0.2,0.1l0.1,0l0.1,0l0.2,0l0.1,0.1l0.4,0.7l0.3,0.3l2,0.7l0.2,0.1l0.3,0.4l0.2,0.1
	l0.3-0.2l0.3,0.2l0.5-0.1l0.3,0.2l0.3,0.2l0.3,0.2l0.3,0.1l0.6,0.1l0.6,0.3l0.3,0.1l0.8,0l0.4-0.1l0.3-0.1l-0.4-0.4L106.1,67.7z"/>
<circle cx="189.9" cy="284.3" r="4"/>
<rect x="191.3" y="269.5" class="st4" width="60.1" height="12.6"/>
<text transform="matrix(1 0 0 1 191.2498 275.9366)" class="st42 st10 st43">Amadora</text>
<g>
	<circle cx="198.8" cy="294.2" r="4"/>
	<polygon class="st14" points="198.8,290.2 199.6,292.9 202.6,292.9 200.1,294.5 201.1,297.3 198.8,295.4 196.5,297.3 197.6,294.5 
		195.1,292.9 197.8,293 	"/>
</g>
<rect x="80.4" y="143" class="st4" width="68.9" height="19.6"/>
<text transform="matrix(1 0 0 1 91.8862 149.3983)" class="st42 st10 st43">The Azores</text>
<rect x="32.3" y="35.6" class="st40" width="165.2" height="102.4"/>
<line class="st40" x1="46.1" y1="116.5" x2="52.5" y2="116.5"/>
<line class="st40" x1="45.6" y1="118.1" x2="56.3" y2="118.1"/>
<line class="st41" x1="46.1" y1="112.8" x2="46.1" y2="116.8"/>
<line class="st41" x1="52.5" y1="112.8" x2="52.5" y2="116.8"/>
<rect x="44" y="105.5" class="st4" width="27.4" height="8.3"/>
<text transform="matrix(1 0 0 1 43.9974 109.7626)" class="st10 st44">0  40 km</text>
<rect x="44" y="123" class="st4" width="33.3" height="8.5"/>
<text transform="matrix(1 0 0 1 43.9979 127.3021)" class="st10 st44">0   40 mi</text>
<line class="st41" x1="45.9" y1="117.7" x2="45.9" y2="121.9"/>
<line class="st41" x1="56.3" y1="117.7" x2="56.3" y2="121.9"/>
<line class="st40" x1="38.6" y1="452.4" x2="67.5" y2="452.4"/>
<line class="st40" x1="38.1" y1="456" x2="85.6" y2="456"/>
<line class="st41" x1="38.6" y1="448.7" x2="38.6" y2="452.9"/>
<line class="st41" x1="67.5" y1="448.7" x2="67.5" y2="452.7"/>
<rect x="36.5" y="441.4" class="st4" width="62.8" height="7.7"/>
<text transform="matrix(1 0 0 1 36.506 447.103)" class="st10 st45">0   20   40 km</text>
<rect x="36.5" y="460.9" class="st4" width="81.8" height="8.5"/>
<text transform="matrix(1 0 0 1 36.506 466.6415)" class="st10 st45">0        20      40 mi</text>
<line class="st41" x1="38.4" y1="455.6" x2="38.4" y2="459.8"/>
<line class="st41" x1="85.4" y1="456" x2="85.4" y2="459.4"/>
<line class="st41" x1="52.9" y1="448.8" x2="52.9" y2="452.8"/>
<line class="st41" x1="61.9" y1="455.7" x2="61.9" y2="459.7"/>
<circle cx="235.8" cy="97.7" r="4"/>
<rect x="239.8" y="100.5" class="st4" width="60.1" height="12.6"/>
<text transform="matrix(1 0 0 1 239.8145 106.9141)" class="st42 st10 st43">Porto</text>
<rect x="205.8" y="283.9" class="st4" width="60.1" height="12.6"/>
<text transform="matrix(1 0 0 1 205.7676 290.3407)" class="st42 st10 st43">Lisbon</text>
<path class="st2" d="M570,358H402.9c-3.3,0-5.8-1.8-5.8-3.9V352c0-2.2,2.7-3.9,5.8-3.9H570c3.3,0,5.8,1.8,5.8,3.9v2.1
	C575.8,356.2,573.3,358,570,358z"/>
<rect x="400.2" y="140.2" class="st4" width="273.9" height="188.8"/>
<text transform="matrix(1 0 0 1 400.2465 148.0839)"><tspan x="0" y="0" class="st46 st10 st11">“Portugal is a country located mostly on the Iberian </tspan><tspan x="0" y="13.2" class="st46 st10 st11">Peninsula in southwestern Europe. It is the western</tspan><tspan x="250.1" y="13.2" class="st46 st10 st11">-</tspan><tspan x="0" y="26.4" class="st46 st10 st11">most sovereign state of mainland Europe, being </tspan><tspan x="0" y="39.6" class="st46 st10 st11">bordered to the west and south by the Atlantic Ocean </tspan><tspan x="0" y="52.8" class="st46 st10 st11">and to the north and east by Spain. Its territory also </tspan><tspan x="0" y="66" class="st46 st10 st11">includes the Atlantic archipelagos of the Azores and </tspan><tspan x="0" y="79.2" class="st46 st10 st11">Madeira, both autonomous regions with their own </tspan><tspan x="0" y="92.4" class="st46 st10 st11">regional governments.</tspan><tspan x="108.8" y="92.4" class="st46 st47 st11">” Source: Wikipedia        </tspan></text>
</svg>
