<?xml version="1.0" encoding="utf-8"?>
<!-- Generator: Adobe Illustrator 23.0.1, SVG Export Plug-In . SVG Version: 6.00 Build 0)  -->
<svg version="1.0" xmlns="http://www.w3.org/2000/svg" xmlns:xlink="http://www.w3.org/1999/xlink" x="0px" y="0px"
	 viewBox="60 27 720 515.3" enable-background="new 60 27 720 515.3" xml:space="preserve">
<g id="Background">
</g>
<g id="Belize_1_">
	<g>
		<path id="Minor_Islands" fill="#8BD8BD" stroke="#00A860" stroke-width="0.5" stroke-miterlimit="10" d="M295.9,358.7l0.2,0.7
			l0.1,0.8l0.5,0.5l-0.2-2.4L295.9,358.7z M309.9,321.3l0.2,0.9l0.8-2.2l0-2.3l-1.2,1.4L309.9,321.3z M299.2,207.6l-1.1,0.1l0.3,1.6
			l0.7,1l1.1,1.1l0.5-2.4l-0.3-0.5L299.2,207.6z M295.7,198.9l-0.8,0.9l-1.1,2.1l0.1,1.4l1-0.8l0.8-1.5l0.4-0.7L295.7,198.9z
			 M306.6,332l0.6,0.9l0.2,0.5l0.4,0l-0.5-2.5L306.6,332z M309.4,323.2l0.3,1.1l0.8-1.7l-1,0.5L309.4,323.2z M308.8,322.3l0.4,0.7
			l0.2,0.1l-0.9-3.1L308.8,322.3z M293.8,203.4h-0.4l0.2,1l0.2,1.3l0.1,0.9l0.2-0.3l0.4-0.1l0.7-0.7l0.1-0.9l-0.6-1.1L293.8,203.4z
			 M270.1,450.4l0-0.1l-0.3,0.2l0.2,0.3l0,0l0.1,0.1l0.2-0.1L270.1,450.4L270.1,450.4z M207.4,443.3l0-0.6l-1.2,1.5l-0.1,0.9
			l-0.8,0.4l0.5,0.7l0.7,0.7l0.6-0.8l0.3-0.6l0.9-0.8l-1.2-0.9L207.4,443.3z M320,116.7l-0.4,3.1l1.4-2.8L320,116.7z M281.4,459.5
			l0.4,0.5l0-0.1l0-0.6L281.4,459.5z M292.9,439.8l0.1-0.2l-0.2-0.5L292.9,439.8z M276.5,386.2l-0.8,1.4l0.4,0.1l0.6-0.3l1.8-0.2
			l-0.5-0.9L276.5,386.2z M407.4,268.9l0.7,0.2l0.3-0.3l-0.8-0.5L407.4,268.9z M359.2,349.7l1.4-0.5l1-1.7l-1.6,1L359.2,349.7z
			 M321.5,160.1l-0.8,0.1l-0.9,1.6l-0.2,2.1l-0.3,1.7l0.8,0.8l0.1,1.2l-0.7,1l-0.8-0.3l-0.7,1.7l0.3,1l2.6-2.9l-0.5-3.1l0.3-3.2
			L321.5,160.1z M319.2,299.4l0.4,1l0.4,0.1l-0.4-1.9L319.2,299.4z M396,269.5l-0.2,2.8l0.7-2l1.8-2.2l0.1-1.1l-1.3-0.8L396,269.5z
			 M320,285.5l-0.3-0.8l-2.9,0.3l-1,2.7l1.2-0.8l1.8-0.1l0.7,0.1L320,285.5z M411.7,220.4l-1.8-0.3l-1.4,1.2l0,1l2.5,1.1l0.9-0.5
			l0.6-1.2L411.7,220.4z M314.5,230.5l-1.3,0.9l0.2,1.2l1.2,1.8l1.3-1.4L314.5,230.5z M318.2,177v-3.2l-0.9,2.9l-0.1,2.9L318.2,177z
			 M316.1,149.6l1.4-0.6l-1.8-0.3l-2.6-0.2l1.1,1.5L316.1,149.6z M310.9,247.9l-0.5,1.8l-0.1,3.4l0.4,1.4l0.2-0.2l1-1.7l0.4-3.1
			l-0.9-1.9L310.9,247.9z M317.9,401.2l0.6-0.1l-0.3-0.6L317.9,401.2z M315.1,304.8l0.3,0.3l2.1-0.9l-1.4-0.2L315.1,304.8z
			 M309.1,267v1.5l0.4-0.1l0-0.4l0.9-0.7l0.6-1.2l-1.1-0.7L309.1,267z"/>
		
			<polygon id="Toledo" fill-rule="evenodd" clip-rule="evenodd" fill="#8BD8BD" stroke="#00A860" stroke-width="0.5" stroke-miterlimit="10" points="
			238.4,387.7 239.4,387.7 239.9,387.6 246.6,388 247.3,387.9 249.1,388 250,388.2 250.8,388.2 254.3,387.7 256,387.8 256.7,387.9 
			257.1,389.3 259.1,390.1 259.1,390.1 259.7,391.4 256.5,393.8 253.1,400.8 249.9,402.3 249.5,403.3 249.2,407.5 249.3,408.4 
			248.3,409 247.4,409 246.9,408.7 246.9,408.4 245.8,409.1 245.4,409.5 245.2,409.9 244.6,410.8 242.4,416.1 241.7,417 
			240.4,417.7 236,423.6 235.5,424.6 234.7,426.9 234.3,427.8 234.2,428.3 234.4,429.8 234.3,430.3 233.8,430.4 232.4,430.2 
			232,430.3 231.2,430.7 229.2,431.2 228.4,431.6 228,432.3 227.2,435.1 227.2,427.8 226.1,427.8 224.9,431.6 222.5,432.2 
			220.2,430.7 219.2,428.4 218.5,427.4 217.1,427.3 215.7,427.6 215,427.8 214.8,428.4 214.9,431.5 214.4,432.7 213.2,433.1 
			207.5,433.9 206.5,434.6 205.7,435.4 204.5,436.2 202.2,436.5 199.8,437.6 199.1,440.4 199.5,447.2 198.9,450.9 197.3,453.6 
			194.9,455.3 191.9,455.8 191.1,456.3 190.1,457.4 189.3,458.8 188.5,461.9 187.5,462.8 186,463.3 184.4,464.3 182.5,465.9 
			181.7,466.8 180.9,467.9 180.5,469.9 180.6,471.9 180.2,473.4 175.8,474.7 172.8,476.5 170,478.8 168.1,481.2 167.5,485.6 
			171,493 170.4,497.2 164,499.7 149,495.8 143.6,495.8 138.8,496.7 125.8,496 122.7,497.3 121.2,497.4 119.2,498.1 117.6,498.9 
			117.2,499.5 115.8,497.2 115.9,494.9 116.2,486.4 120.6,445.4 123.2,408.8 125,405.9 126,404.7 126.8,403.8 128,402.3 
			128.5,401.6 128.7,400.9 128.9,400 129,399.6 129.5,398.8 130.2,397.9 131,397.4 137,394.9 139.2,394.7 139.8,394.6 141.1,394.2 
			143.9,393.8 145,393.3 146.3,392.3 149.8,388.9 150.9,387.7 151.3,387.4 152.1,387.7 152.6,388.1 153.2,388.5 154.3,389.8 
			154.9,390.1 155.6,390.1 156.6,389.9 163.2,387.3 163.9,386.8 163.7,385.3 163.7,384.7 164.5,383.6 165.2,382.9 166.2,382.2 
			168.1,381.4 169.1,381.1 169.9,381.3 170.9,381 172.4,380.1 177,376.5 178.2,375.9 179.5,375.5 180.3,375.2 183,373.1 
			186.4,369.5 186.9,367.7 186.8,366.7 186.1,363.8 186.2,363 186.6,362.2 188.4,359.8 189.4,358.8 189.9,358.4 191.2,357.7 
			194.1,357.5 199,355.9 211.7,355.6 215.5,356.1 218,356.7 223.9,360 224.7,360.8 225.2,361.6 225.7,363.1 226.2,363.8 
			226.2,364.6 226.1,365.3 225.5,366.9 225.6,367.8 226.3,368.8 228.4,371.1 228.9,372 229.5,372.7 229.8,373.4 230.3,374.1 
			230.6,374.9 231.1,375.6 231.8,376.9 232.1,377.8 232.1,378.4 232.1,379.1 231.8,380.2 231.6,383.1 231.5,383.7 231.5,384.4 
			231.1,385.1 230.8,385.6 230.5,386.3 231.5,386.8 		"/>
		
			<polygon id="Stann_Creek" fill-rule="evenodd" clip-rule="evenodd" fill="#8BD8BD" stroke="#00A860" stroke-width="0.5" stroke-miterlimit="10" points="
			259.1,390.1 257.1,389.3 256.7,387.9 256,387.8 254.3,387.7 250.8,388.2 250,388.2 249.1,388 247.3,387.9 246.6,388 239.9,387.6 
			239.4,387.7 238.4,387.7 231.5,386.8 230.5,386.3 230.8,385.6 231.1,385.1 231.5,384.4 231.5,383.7 231.6,383.1 231.8,380.2 
			232.1,379.1 232.1,378.4 232.1,377.8 231.8,376.9 231.1,375.6 230.6,374.9 230.3,374.1 229.8,373.4 229.5,372.7 228.9,372 
			228.4,371.1 226.3,368.8 225.6,367.8 225.5,366.9 226.1,365.3 226.2,364.6 226.2,363.8 225.7,363.1 225.2,361.6 224.7,360.8 
			223.9,360 218,356.7 215.5,356.1 211.7,355.6 199,355.9 194.1,357.5 193.5,355.3 193.5,354.5 194.5,351 196.3,347.7 197.2,345 
			201.9,337.7 202.7,336.9 203.7,336.3 206.9,335.2 209.9,334.7 210.6,334.5 211.1,334 211.2,333.4 210.6,332.7 208.3,331.1 
			208.2,330.4 208.5,329.9 209.5,328.9 211.1,328.2 211.6,327.7 212.1,327.1 212.4,326.4 212.5,325.5 212.3,323.2 212.3,322.3 
			212.7,319.9 212.7,318.9 212.6,318.1 212.6,317.3 212.9,316.5 218,310.8 219.1,308.8 220,308 221.9,306.5 222.9,305 224,303 
			225,300.2 226.8,296.5 227.3,295.7 228.3,295.1 229.1,294.3 229.1,292.8 228,291.5 225.6,289.5 223.2,285.4 222.6,283.9 
			223.1,282.2 268,281.3 269.5,280.8 270.4,280.3 273.9,279 276.1,276.6 276.2,278.2 277.1,282.3 277.8,284.5 279.4,285.4 
			283,286.7 285.1,289.4 286.5,292.8 287.3,296.7 287.7,302.3 288.7,306.7 288.3,308.7 287.2,309.2 285.7,309.1 284.1,309.8 
			282.2,311.5 279.9,314.2 278,317.3 277.1,320.1 277.9,323.4 281.2,328.7 281.8,331.7 282.1,331.7 282.7,332.2 283.2,333 283,334 
			282.4,334.2 280.2,333.9 279.4,334 277.3,335.8 276.4,336.9 276.1,338.5 275.7,339.3 274.9,340.2 274,341.4 273.7,343.3 
			273.8,345.4 274.6,348.2 274.8,349.9 273.3,362.5 272.2,364.5 270.7,366 269,368.3 267.1,375.5 266.2,377.7 265.6,380.9 
			266.7,385.3 266,387 264.8,388.5 263.7,388.7 263.2,385.9 268.5,365.7 271.3,362.7 272.4,360.9 267.9,363.2 263.4,374.8 
			259.7,379.2 260.8,379.4 263.2,380.5 262,381.1 261.1,381.3 260.1,381.2 258.5,380.5 258.9,382.1 259.3,382.8 260.2,383 
			262,382.9 262,384 260.2,385.2 258.9,387 258.6,389.2 		"/>
		
			<polygon id="Orange_Walk" fill-rule="evenodd" clip-rule="evenodd" fill="#8BD8BD" stroke="#00A860" stroke-width="0.5" stroke-miterlimit="10" points="
			277,127.2 239.4,137 230.5,142.2 229.4,145.3 229,146.8 228.9,148.6 229,149.9 229.6,152.3 229.7,153.4 229.7,155.7 228.6,160.5 
			228.5,161.2 228.6,162.2 229.1,166.2 229.1,167.3 228.6,171.5 228.7,172.8 229.5,175.1 229.7,176 229.7,177.2 228.9,178 
			227.5,178.6 225.8,179.1 220.8,181.5 218.9,184.5 216.7,190.8 216.6,194 218.7,219.9 216.3,219.1 215,219.4 211.5,221.1 
			209.6,221.5 206.7,222.5 201.7,225.9 198.7,227 194.8,227.5 190.3,227.3 187.8,227.6 186.1,227.4 182.1,227.6 179.1,227.4 
			176.6,227 175.4,227.4 174.2,228.8 173.2,230.2 171.4,231.5 169.1,232.2 149.4,234.5 148.1,234.2 146.7,233.6 144.9,233.7 
			142.5,234.6 135.5,239.3 130.4,243.6 129.4,194.1 128.7,155.5 128.5,139.9 129.8,132.8 131.1,131 133.4,127.6 147.5,122.4 
			151.1,123.7 153.9,126.2 156.4,129.1 159.3,131.3 161.3,131.5 163.2,131.1 164.8,131.5 167.1,136.5 169.3,138.2 176.1,142.2 
			177.6,141.8 178.6,140.3 179.4,136.4 180.2,135.1 188.8,128.5 190.4,126.6 192.8,119.6 193.6,118 196.1,115.9 198.4,114.5 
			200.5,113 202.1,110.3 202.6,108.4 203.2,104.3 203.6,102.6 207.8,95.4 208.4,93.4 207.8,90.9 207.2,90.4 212,86.7 217,84.4 
			219,82.8 220.7,80.1 221.2,78 222.9,78.4 233.7,83.2 241.4,88.9 253.7,105.9 		"/>
		
			<polygon id="Corozal" fill-rule="evenodd" clip-rule="evenodd" fill="#8BD8BD" stroke="#00A860" stroke-width="0.5" stroke-miterlimit="10" points="
			259,37 259.9,36.8 260.9,36.3 262.2,35.9 272.7,35.8 273.7,36 273.7,36 273.7,36.6 276.6,39.3 273.3,43.7 260.2,53.3 258.9,55.8 
			260.9,58.7 263.2,58.8 271.4,55.1 270.4,57.7 268.8,60.5 265,65.4 264,67 264.5,67.8 265.8,67.8 267.3,66.7 270.2,63.4 
			275.8,59.3 278.4,58.1 281.2,57.5 285,58.1 289.9,60.5 292.1,61.2 295.7,60.7 300.9,57.1 306.7,55.2 308.7,55 309.6,55.6 
			309.3,58.2 308.3,59.8 305,62.4 301.1,64.1 300.3,64.9 300.3,66.8 301.5,67.3 303,66.6 304.3,64.5 305.6,63.5 307.4,62.7 
			309,62.4 309.6,63.4 310.9,84.6 309.6,101.1 309,103.9 306.7,108.1 306.1,110.9 299.8,127.4 296.9,129.4 296.8,129.4 296.8,129.4 
			277,127.2 253.7,105.9 241.4,88.9 233.7,83.2 222.9,78.4 221.2,78 221.3,77.4 221.6,74.5 222.2,71.5 223.9,68.6 229.1,62.5 
			231.2,59.1 231.8,57.1 232.4,52.5 234,48.2 234.9,42.8 235.8,40.8 237.1,39.5 242.3,35.4 244,35.6 245.6,36.5 247.3,37 
			248.8,36.8 252.2,35.5 254,34.6 255.2,34.3 256,34.6 257.7,36.2 		"/>
		
			<polygon id="Cayo" fill-rule="evenodd" clip-rule="evenodd" fill="#8BD8BD" stroke="#00A860" stroke-width="0.5" stroke-miterlimit="10" points="
			223.1,282.2 222.6,283.9 223.2,285.4 225.6,289.5 228,291.5 229.1,292.8 229.1,294.3 228.3,295.1 227.3,295.7 226.8,296.5 
			225,300.2 224,303 222.9,305 221.9,306.5 220,308 219.1,308.8 218,310.8 212.9,316.5 212.6,317.3 212.6,318.1 212.7,318.9 
			212.7,319.9 212.3,322.3 212.3,323.2 212.5,325.5 212.4,326.4 212.1,327.1 211.6,327.7 211.1,328.2 209.5,328.9 208.5,329.9 
			208.2,330.4 208.3,331.1 210.6,332.7 211.2,333.4 211.1,334 210.6,334.5 209.9,334.7 206.9,335.2 203.7,336.3 202.7,336.9 
			201.9,337.7 197.2,345 196.3,347.7 194.5,351 193.5,354.5 193.5,355.3 194.1,357.5 191.2,357.7 189.9,358.4 189.4,358.8 
			188.4,359.8 186.6,362.2 186.2,363 186.1,363.8 186.8,366.7 186.9,367.7 186.4,369.5 183,373.1 180.3,375.2 179.5,375.5 
			178.2,375.9 177,376.5 172.4,380.1 170.9,381 169.9,381.3 169.1,381.1 168.1,381.4 166.2,382.2 165.2,382.9 164.5,383.6 
			163.7,384.7 163.7,385.3 163.9,386.8 163.2,387.3 156.6,389.9 155.6,390.1 154.9,390.1 154.3,389.8 153.2,388.5 152.6,388.1 
			152.1,387.7 151.3,387.4 150.9,387.7 149.8,388.9 146.3,392.3 145,393.3 143.9,393.8 141.1,394.2 139.8,394.6 139.2,394.7 
			137,394.9 131,397.4 130.2,397.9 129.5,398.8 129,399.6 128.9,400 128.7,400.9 128.5,401.6 128,402.3 126.8,403.8 126,404.7 
			125,405.9 123.2,408.8 124.7,390.4 127.8,340.5 130.6,294.3 130.4,243.6 135.5,239.3 142.5,234.6 144.9,233.7 146.7,233.6 
			148.1,234.2 149.4,234.5 169.1,232.2 171.4,231.5 173.2,230.2 174.2,228.8 175.4,227.4 176.6,227 179.1,227.4 182.1,227.6 
			186.1,227.4 187.8,227.6 190.3,227.3 194.8,227.5 198.7,227 201.7,225.9 206.7,222.5 209.6,221.5 211.5,221.1 215,219.4 
			216.3,219.1 218.7,219.9 222.6,218.2 223.7,216.4 224.7,214.2 226.1,213.4 226.7,214.5 227.1,217 228.8,252.5 228.6,259.1 
			228.8,260 230.7,262.8 232.2,266.2 232.3,268.2 232.3,269.8 231.4,271.9 231.2,273.2 230.6,275.1 230.2,276 229.9,276.4 
			229.5,276.6 229.2,277.1 228.9,277.8 228.8,278.6 228.2,279.7 227.9,280.1 227.5,280.5 226.9,280.8 		"/>
		<path id="Belize" fill="#8BD8BD" stroke="#00A860" stroke-width="0.5" stroke-miterlimit="10" d="M288.1,206.8l-1.6-1.5l-1.3-2.7
			l-6-3.1l-2-2.2l-0.7-4.3l0.8-3.8l1.8-3.3l4.4-5.3l1.3-3l4.1-14.8l2-14.9l-1-4.6l7-14l-19.9-2.2l-37.6,9.8l-9,5.2l-1.1,3.1
			l-0.4,1.5l-0.2,1.8l0.1,1.3l0.6,2.4l0.1,1.1l-0.1,2.3l-1,4.7l-0.1,0.8l0,1l0.5,4l0,1l-0.5,4.2l0.1,1.3l0.8,2.3l0.2,0.9l-0.1,1.2
			l-0.8,0.8l-1.4,0.6l-1.7,0.5l-5,2.4l-1.9,3l-2.2,6.3l-0.1,3.2l2.1,25.9l4-1.7l1-1.8l1-2.3l1.4-0.7l0.6,1.1l0.4,2.4l1.7,35.5
			l-0.2,6.6l0.2,0.9l1.9,2.8l1.4,3.4l0.1,2l0,1.6l-0.8,2.1l-0.2,1.3l-0.6,1.9l-0.4,0.9l-0.3,0.4l-0.4,0.2l-0.3,0.5l-0.3,0.6
			l-0.2,0.9l-0.6,1.1l-0.3,0.4l-0.4,0.4l-0.5,0.3l-3.8,1.4l44.8-0.8l1.6-0.5l0.9-0.5l3.5-1.3l2.2-2.3l0,0l0-0.4l-0.7-3.4l-1.2-3.8
			l0.6-7l0.2-3.7l1.6-18.1l7-23.6l0.4-2.8l2-1.6l4.3,0.7l4.4,0l2-3.5l-1.6-1.5L288.1,206.8z M330.1,109.2l1.4-1.2l0.4-1.9l-0.5-0.5
			l-1,0.4l-0.5,0l-0.9,0.6l-1.2,1.8l0.5,1.1L330.1,109.2z M332.9,106.5l0.6,0.1l1.4-1.1l1-1.9l-0.1-1.9l-0.4-0.7l-0.3,0.3l-0.3,0.7
			l-0.3,1l-0.9,0.8l-0.9,0.5l-0.3,0.6l0.3,0.7L332.9,106.5z M345.7,88.7l0.6-1.8l0.1-0.9l-0.1-0.7l-0.6-0.3l-0.4,0l-0.6-0.1
			l-0.1,0.3l0.3,0.8l-0.1,0.4l-0.5-0.4l-0.7,1.1l-0.5,3.1l1,0.9L345.7,88.7z M311.5,175.6l1.6-5.8l-2,0.9l-9.6,6.6l-3.5,1.7
			l-0.9,1.1l-0.2,0.5l0,0.8l5.5-0.5l5.3-1.8L311.5,175.6z M360.8,205.9l-2.1-1.8l-2.4-0.6l-2-0.1l-1.7,4.9l-0.1,1.1l1.3,0.2l1.6-0.9
			l1.9-1.7l1.4,2.3l-0.3,3.7l-1.3,3.5l-1.6,1.6l-2.1-0.3l-2.5-1.1l-1.7,0.2l-3.5,3.7l-2.9,2.2l-2.2,2l-1.3,2.8l-0.8,8.6l-1.6,6.3
			l-0.4,3.8l-0.2,0.6l-0.1,0.6l-0.2,0.6l-0.6,0.6l2.4,2.4l0.2-2.5l0.8-2.2l0.9-1.8l0.4-1.3l1.1-8l1.2-4.3l1.9-2.2l2.1-1.7l1.7-2.9
			l3.4,2.7l2.5-1.6l1.7-3l2.2-3.1l3.5-7l0.7-2.7L360.8,205.9z M354.6,229.6l-2.1,1.9l1.9,1.9l0.6,4.5l-0.1,10.8l0.4-0.9l0.4-0.7
			l0.6-0.5l1-0.3l0.1,0.6l-0.1,1.8h1.2l0-4.2l0.3-1.8l0.8-1.3l-2.9-8.6L354.6,229.6z M339.4,125.4l1.3-7.7h-1.1l-0.2,1.6l-0.4,1.1
			l-1.6,2.4l-1.3-2.6v-1.2l1.4-0.7l1-1l0.6-1.3l0.4-1.9l1.1,0.5l1.2,0.8l1.6-3.2l3.5-9.6l1.3-2l2.2-2.1l0.3-4l-1.7-2.4l-3.7,2.5
			l-2.7-1.1l-1.7,1.6l-2.5,9.4l-0.1,1.7l-0.4,1.4l-0.8,0.8l-0.8,0.6l-0.4,0.8l-3.1,11.2l-0.7,5.6l2.7-0.1l-0.9,4.6L332,134l-6.2,4.5
			l-0.6,0.1l-1.8-0.1v1.2l7.3-2l5.3-5.2L339.4,125.4z M314.3,188.3l-2.3-2l2.2,9.9l1.5,4.2l0.9,1.7h1.1l-1.7-9.5L314.3,188.3z
			 M308.9,208.5l-2.5-1l-1.1,0.8l0,1.1l0.5,0.5l0.6,0.9l1,1.2l1.5,0.7l1.4-0.2l0.2,0.8l0.2,3.7l0.3,1.5l1.2,0.1l0.7-1.6l0-1.1
			l0.5-0.8l0.4-1.8L312,211L308.9,208.5z"/>
	</g>
	<text transform="matrix(1 0 0 1 459.7653 460.6367)" fill="#143C75" font-family="'Bulo-Black'" font-size="14.5939px">Life Expectancy</text>
	<text transform="matrix(1 0 0 1 459.7653 324.4648)" fill="#143C75" font-family="'Bulo-Black'" font-size="14.5939px">Cost of Living</text>
	<text transform="matrix(1 0 0 1 459.7653 369.2871)" fill="#143C75" font-family="'Bulo-Black'" font-size="14.5939px">Healthcare</text>
	<text transform="matrix(1 0 0 1 459.7653 415.0098)" fill="#143C75" font-family="'Bulo-Black'" font-size="14.5939px">Crime</text>
	<rect x="457.3" y="165.5" fill="none" width="286.7" height="136"/>
	<text transform="matrix(1 0 0 1 457.3333 190.8929)"><tspan x="0" y="0" fill="#143C75" font-family="'Bulo-Black'" font-size="36px">L</tspan><tspan x="17.7" y="0" fill="#3D3D3D" font-family="'ArialMT'" font-size="11px"> </tspan><tspan x="20.8" y="0" fill="#565556" font-family="'ArialMT'" font-size="11px">orem ipsum dolor sit amet, consectetuer adipiscing </tspan><tspan x="0" y="13.2" fill="#565556" font-family="'ArialMT'" font-size="11px">elit, sed diam nonummy nibh euismod tincidunt ut laoreet </tspan><tspan x="0" y="26.4" fill="#565556" font-family="'ArialMT'" font-size="11px">dolore magna aliquam erat volutpat. Ut wisi enim ad minim </tspan><tspan x="0" y="39.6" fill="#565556" font-family="'ArialMT'" font-size="11px">veniam, quis nostrud exerci tation ullamcorper suscipit </tspan><tspan x="0" y="52.8" fill="#565556" font-family="'ArialMT'" font-size="11px">lobortis nisl ut aliquip ex ea commodo consequat. Duis </tspan><tspan x="0" y="66" fill="#565556" font-family="'ArialMT'" font-size="11px">autem vel eum iriure dolor in hendrerit in vulputate velit </tspan><tspan x="0" y="79.2" fill="#565556" font-family="'ArialMT'" font-size="11px">esse molestie uis autem vel eum iriure dolor in hendrerit in </tspan><tspan x="0" y="92.4" fill="#565556" font-family="'ArialMT'" font-size="11px">vulputate velit esse molestie</tspan></text>
	<text transform="matrix(1 0 0 1 459.333 48.3338)"><tspan x="0" y="0" fill="#143C75" font-family="'Bulo-Black'" font-size="15px">Capital:</tspan><tspan x="49" y="0" fill="#E5367A" font-family="'Bulo-Black'" font-size="15px"> </tspan><tspan x="51.9" y="0" fill="#606060" font-family="'ArialMT'" font-size="11px">Belmopan</tspan><tspan x="0" y="18" fill="#143C75" font-family="'Bulo-Black'" font-size="15px">Population:</tspan><tspan x="74.5" y="18" fill="#E5367A" font-family="'ArialMT'" font-size="11px"> </tspan><tspan x="77.6" y="18" fill="#606060" font-family="'ArialMT'" font-size="11px">385,854</tspan><tspan x="0" y="36" fill="#143C75" font-family="'Bulo-Black'" font-size="15px">Language:</tspan><tspan x="65.8" y="36" fill="#3D3D3D" font-family="'ArialMT'" font-size="11px"> </tspan><tspan x="68.8" y="36" fill="#606060" font-family="'ArialMT'" font-size="11px">English 62.9% (official), Spanish 56.6%, </tspan><tspan x="0" y="49.2" fill="#606060" font-family="'ArialMT'" font-size="11px">Creole 44.6% </tspan><tspan x="0" y="67.2" fill="#143C75" font-family="'Bulo-Black'" font-size="15px">Climate:</tspan><tspan x="53.4" y="67.2" fill="#E5367A" font-family="'Arial-BoldMT'" font-size="11px"> </tspan><tspan x="56.5" y="67.2" fill="#606060" font-family="'ArialMT'" font-size="11px">tropical; very hot and humid; rainy</tspan><tspan x="0" y="80.4" fill="#606060" font-family="'ArialMT'" font-size="11px">season (May to November); dry season </tspan><tspan x="0" y="93.6" fill="#606060" font-family="'ArialMT'" font-size="11px">(February to May)</tspan></text>
	<path fill="#A8A8A8" d="M695,336.7H459.3c-1.1,0-2-0.9-2-2l0,0c0-1.1,0.9-2,2-2H695c1.1,0,2,0.9,2,2l0,0
		C696.9,335.8,696,336.7,695,336.7z"/>
	<path fill="#B581BE" stroke="#68137A" stroke-width="0.25" stroke-miterlimit="10" d="M530.6,339.5h-69.3c-2.2,0-3.9-1.8-3.9-3.9
		v-1.8c0-2.2,1.8-3.9,3.9-3.9h69.3c2.2,0,3.9,1.8,3.9,3.9v1.8C534.5,337.7,532.7,339.5,530.6,339.5z"/>
	<path fill="#A8A8A8" d="M695,381.9H459.3c-1.1,0-2-0.9-2-2l0,0c0-1.1,0.9-2,2-2H695c1.1,0,2,0.9,2,2l0,0
		C696.9,381,696,381.9,695,381.9z"/>
	<path fill="#B581BE" stroke="#68137A" stroke-width="0.25" stroke-miterlimit="10" d="M573.2,385H461.3c-2.2,0-3.9-1.8-3.9-3.9
		v-2.1c0-2.2,1.8-3.9,3.9-3.9h111.9c2.2,0,3.9,1.8,3.9,3.9v2.1C577.1,383.2,575.4,385,573.2,385z"/>
	<path fill="#A8A8A8" d="M695,427.2H459.3c-1.1,0-2-0.9-2-2l0,0c0-1.1,0.9-2,2-2H695c1.1,0,2,0.9,2,2l0,0
		C696.9,426.3,696,427.2,695,427.2z"/>
	<path fill="#B581BE" stroke="#68137A" stroke-width="0.25" stroke-miterlimit="10" d="M601.4,430.1H461.3c-2.2,0-3.9-1.8-3.9-3.9
		v-1.8c0-2.2,1.8-3.9,3.9-3.9h140.1c2.2,0,3.9,1.8,3.9,3.9v1.8C605.3,428.3,603.6,430.1,601.4,430.1z"/>
	<path fill="#A8A8A8" d="M695,473.1H459.3c-1.1,0-2-0.9-2-2l0,0c0-1.1,0.9-2,2-2H695c1.1,0,2,0.9,2,2l0,0
		C696.9,472.2,696,473.1,695,473.1z"/>
	<path fill="#B581BE" stroke="#68137A" stroke-width="0.25" stroke-miterlimit="10" d="M656.5,476.1H461.3c-2.2,0-3.9-1.8-3.9-3.9
		v-1.8c0-2.2,1.8-3.9,3.9-3.9h195.2c2.2,0,3.9,1.8,3.9,3.9v1.8C660.4,474.4,658.6,476.1,656.5,476.1z"/>
	<polygon fill="#143C75" points="713.4,323.7 713.4,330.2 704.2,335 713.4,339.2 713.4,345.6 735.3,345.6 735.3,323.7 	"/>
	<polygon fill="#143C75" points="713.4,368.9 713.4,375.4 704.2,380.2 713.4,384.3 713.4,390.8 735.3,390.8 735.3,368.9 	"/>
	<polygon fill="#143C75" points="713.4,414.3 713.4,420.7 704.2,425.5 713.4,429.7 713.4,436.2 735.3,436.2 735.3,414.3 	"/>
	<polygon fill="#143C75" points="713.4,460.2 713.4,466.7 704.2,471.4 713.4,475.6 713.4,482.1 735.3,482.1 735.3,460.2 	"/>
	<text transform="matrix(1 0 0 1 717.7631 338.5072)" fill="#FFFFFF" font-family="'Arial-BoldMT'" font-size="11px">30</text>
	<text transform="matrix(1 0 0 1 718.7635 383.9702)" fill="#FFFFFF" font-family="'Arial-BoldMT'" font-size="11px">45</text>
	<text transform="matrix(1 0 0 1 717.763 429.0517)" fill="#FFFFFF" font-family="'Arial-BoldMT'" font-size="11px">56</text>
	<text transform="matrix(1 0 0 1 717.7633 475.0931)" fill="#FFFFFF" font-family="'Arial-BoldMT'" font-size="11px">83</text>
</g>
<g id="copyright">
</g>
</svg>
