<?xml version="1.0" encoding="utf-8"?>
<!-- Generator: Adobe Illustrator 23.0.1, SVG Export Plug-In . SVG Version: 6.00 Build 0)  -->
<svg version="1.1" id="Layer_1" xmlns="http://www.w3.org/2000/svg" xmlns:xlink="http://www.w3.org/1999/xlink" x="0px" y="0px"
	 viewBox="0 0 720 515.3" style="enable-background:new 0 0 720 515.3;" xml:space="preserve">
<style type="text/css">
	.st0{fill:none;}
	.st1{fill:#A8A8A8;}
	.st2{fill:#89CCA3;stroke:#0FB753;stroke-width:0.25;stroke-miterlimit:10;}
	.st3{fill:#143C75;}
	.st4{font-family:'Bulo-Black';}
	.st5{font-size:14.5939px;}
	.st6{font-size:36px;}
	.st7{fill:#565556;}
	.st8{font-family:'ArialMT';}
	.st9{font-size:11px;}
	.st10{font-size:15px;}
	.st11{fill:#E5367A;}
	.st12{fill:#606060;}
	.st13{fill:#3D3D3D;}
	.st14{font-family:'Arial-BoldMT';}
	.st15{fill:#FFFFFF;}
	.st16{fill:#8D90C7;stroke:#FFFFFF;stroke-width:0.5;stroke-miterlimit:10;}
	.st17{fill-rule:evenodd;clip-rule:evenodd;fill:#8D90C7;stroke:#FFFFFF;stroke-width:0.5;stroke-miterlimit:10;}
	.st18{fill-rule:evenodd;clip-rule:evenodd;fill:#F8A25E;stroke:#FFFFFF;stroke-width:0.5;}
	
		.st19{fill-rule:evenodd;clip-rule:evenodd;fill:#3A9DB4;stroke:#F7F8F9;stroke-width:0.5;stroke-linecap:round;stroke-linejoin:round;}
	.st20{fill:#3A9DB4;stroke:#F7F8F9;stroke-width:0.5;stroke-linecap:round;stroke-linejoin:round;}
	
		.st21{fill-rule:evenodd;clip-rule:evenodd;fill:#F1E355;stroke:#F7F8F9;stroke-width:0.5;stroke-linecap:round;stroke-linejoin:round;}
	.st22{fill:#F1E355;stroke:#F7F8F9;stroke-width:0.5;stroke-linecap:round;stroke-linejoin:round;}
	
		.st23{fill-rule:evenodd;clip-rule:evenodd;fill:#D96CA9;stroke:#F7F8F9;stroke-width:0.5;stroke-linecap:round;stroke-linejoin:round;}
	.st24{fill:#D96CA9;stroke:#F7F8F9;stroke-width:0.5;stroke-linecap:round;stroke-linejoin:round;}
	.st25{fill:#9ECF85;stroke:#F7F8F9;stroke-width:0.5;stroke-linecap:round;stroke-linejoin:round;}
	
		.st26{fill-rule:evenodd;clip-rule:evenodd;fill:#9ECF85;stroke:#F7F8F9;stroke-width:0.5;stroke-linecap:round;stroke-linejoin:round;}
	.st27{fill:#73AFDF;}
	.st28{fill-rule:evenodd;clip-rule:evenodd;fill:#F49294;stroke:#FFFFFF;stroke-width:0.5;}
	.st29{fill:#F49294;stroke:#FFFFFF;stroke-width:0.5;}
	.st30{fill:#77AE87;stroke:#F7F8F9;stroke-width:0.5;stroke-linecap:round;stroke-linejoin:round;}
	
		.st31{fill-rule:evenodd;clip-rule:evenodd;fill:#77AE87;stroke:#F7F8F9;stroke-width:0.5;stroke-linecap:round;stroke-linejoin:round;}
	.st32{fill-rule:evenodd;clip-rule:evenodd;fill:#D0B0CE;stroke:#FFFFFF;stroke-width:0.5;}
	.st33{fill:#D0B0CE;stroke:#FFFFFF;stroke-width:0.5;}
	.st34{fill:#D0B0CE;}
	.st35{fill:#F37B58;stroke:#F7F8F9;stroke-width:0.5;stroke-linecap:round;stroke-linejoin:round;}
	
		.st36{fill-rule:evenodd;clip-rule:evenodd;fill:#F37B58;stroke:#F7F8F9;stroke-width:0.5;stroke-linecap:round;stroke-linejoin:round;}
	.st37{fill:#F37B58;}
	
		.st38{fill-rule:evenodd;clip-rule:evenodd;fill:#F6B3CD;stroke:#F7F8F9;stroke-width:0.5;stroke-linecap:round;stroke-linejoin:round;}
	.st39{fill:#F6B3CD;stroke:#F7F8F9;stroke-width:0.5;stroke-linecap:round;stroke-linejoin:round;}
</style>
<text transform="matrix(1 0 0 1 399.7657 433.6366)" class="st3 st4 st5">Life Expectancy</text>
<text transform="matrix(1 0 0 1 399.7657 297.4646)" class="st3 st4 st5">Cost of Living</text>
<text transform="matrix(1 0 0 1 399.7657 342.287)" class="st3 st4 st5">Healthcare</text>
<text transform="matrix(1 0 0 1 399.7657 388.0098)" class="st3 st4 st5">Crime</text>
<rect x="397.3" y="138.5" class="st0" width="286.7" height="136"/>
<text transform="matrix(1 0 0 1 397.3338 163.8929)" class="st3 st4 st6">B</text>
<text transform="matrix(1 0 0 1 418.3338 163.8929)" class="st7 st8 st9">elize ipsum dolor sit amet, consectetuer adipiscing elit, </text>
<text transform="matrix(1 0 0 1 397.3338 177.093)" class="st7 st8 st9">sed diam nonummy nibh euismod tincidunt ut laoreet </text>
<text transform="matrix(1 0 0 1 397.3338 190.293)" class="st7 st8 st9">dolore magna aliquam erat volutpat. Ut wisi enim ad minim </text>
<text transform="matrix(1 0 0 1 397.3338 203.4927)" class="st7 st8 st9">veniam, quis nostrud exerci tation ullamcorper suscipit </text>
<text transform="matrix(1 0 0 1 397.3338 216.6927)" class="st7 st8 st9">lobortis nisl ut aliquip ex ea commodo consequat. Duis </text>
<text transform="matrix(1 0 0 1 397.3338 229.8928)" class="st7 st8 st9">autem vel eum iriure dolor in hendrerit in vulputate velit </text>
<text transform="matrix(1 0 0 1 397.3338 243.0928)" class="st7 st8 st9">esse molestie uis autem vel eum iriure dolor in hendrerit in </text>
<text transform="matrix(1 0 0 1 397.3338 256.2928)" class="st7 st8 st9">vulputate velit esse molestie</text>
<text transform="matrix(1 0 0 1 399.3335 21.3339)" class="st3 st4 st10">Capital:</text>
<text transform="matrix(1 0 0 1 448.3335 21.3339)" class="st11 st4 st10"> </text>
<text transform="matrix(1 0 0 1 451.2334 21.3339)" class="st12 st8 st9">Belmopan</text>
<text transform="matrix(1 0 0 1 399.3335 39.3339)" class="st3 st4 st10">Population:</text>
<text transform="matrix(1 0 0 1 473.8335 39.3339)" class="st11 st8 st9"> </text>
<text transform="matrix(1 0 0 1 476.9336 39.3339)" class="st12 st8 st9">385,854</text>
<text transform="matrix(1 0 0 1 399.3335 57.3337)" class="st3 st4 st10">Language:</text>
<text transform="matrix(1 0 0 1 465.1336 57.3337)" class="st13 st8 st9"> </text>
<text transform="matrix(1 0 0 1 468.1336 57.3337)" class="st12 st8 st9">English 62.9% (official), Spanish 56.6%, </text>
<text transform="matrix(1 0 0 1 399.3335 70.5337)" class="st12 st8 st9">Creole 44.6% </text>
<text transform="matrix(1 0 0 1 399.3335 88.5338)" class="st3 st4 st10">Climate:</text>
<text transform="matrix(1 0 0 1 452.7334 88.5338)" class="st11 st14 st9"> </text>
<text transform="matrix(1 0 0 1 455.8335 88.5338)" class="st12 st8 st9">tropical; very hot and humid; rainy</text>
<text transform="matrix(1 0 0 1 399.3335 101.7338)" class="st12 st8 st9">season (May to November); dry season </text>
<text transform="matrix(1 0 0 1 399.3335 114.9338)" class="st12 st8 st9">(February to May)</text>
<path class="st1" d="M635,309.7H399.3c-1.1,0-2-0.9-2-2l0,0c0-1.1,0.9-2,2-2H635c1.1,0,2,0.9,2,2l0,0
	C636.9,308.8,636,309.7,635,309.7z"/>
<path class="st2" d="M470.6,312.5h-69.3c-2.2,0-3.9-1.8-3.9-3.9v-1.8c0-2.2,1.8-3.9,3.9-3.9h69.3c2.2,0,3.9,1.8,3.9,3.9v1.8
	C474.5,310.7,472.7,312.5,470.6,312.5z"/>
<path class="st1" d="M635,354.9H399.3c-1.1,0-2-0.9-2-2l0,0c0-1.1,0.9-2,2-2H635c1.1,0,2,0.9,2,2l0,0C636.9,354,636,354.9,635,354.9
	z"/>
<path class="st2" d="M513.2,358H401.3c-2.2,0-3.9-1.8-3.9-3.9V352c0-2.2,1.8-3.9,3.9-3.9h111.9c2.2,0,3.9,1.8,3.9,3.9v2.1
	C517.1,356.2,515.4,358,513.2,358z"/>
<path class="st1" d="M635,400.2H399.3c-1.1,0-2-0.9-2-2l0,0c0-1.1,0.9-2,2-2H635c1.1,0,2,0.9,2,2l0,0
	C636.9,399.3,636,400.2,635,400.2z"/>
<path class="st2" d="M541.4,403.1H401.3c-2.2,0-3.9-1.8-3.9-3.9v-1.8c0-2.2,1.8-3.9,3.9-3.9h140.1c2.2,0,3.9,1.8,3.9,3.9v1.8
	C545.3,401.3,543.6,403.1,541.4,403.1z"/>
<path class="st1" d="M635,446.1H399.3c-1.1,0-2-0.9-2-2l0,0c0-1.1,0.9-2,2-2H635c1.1,0,2,0.9,2,2l0,0
	C636.9,445.2,636,446.1,635,446.1z"/>
<path class="st2" d="M596.5,449.1H401.3c-2.2,0-3.9-1.8-3.9-3.9v-1.8c0-2.2,1.8-3.9,3.9-3.9h195.2c2.2,0,3.9,1.8,3.9,3.9v1.8
	C600.4,447.4,598.6,449.1,596.5,449.1z"/>
<polygon class="st3" points="653.4,296.7 653.4,303.2 644.2,308 653.4,312.2 653.4,318.6 675.3,318.6 675.3,296.7 "/>
<polygon class="st3" points="653.4,341.9 653.4,348.4 644.2,353.2 653.4,357.3 653.4,363.8 675.3,363.8 675.3,341.9 "/>
<polygon class="st3" points="653.4,387.3 653.4,393.7 644.2,398.5 653.4,402.7 653.4,409.2 675.3,409.2 675.3,387.3 "/>
<polygon class="st3" points="653.4,433.2 653.4,439.7 644.2,444.4 653.4,448.6 653.4,455.1 675.3,455.1 675.3,433.2 "/>
<text transform="matrix(1 0 0 1 657.7637 311.5071)" class="st15 st14 st9">30</text>
<text transform="matrix(1 0 0 1 658.7642 356.9701)" class="st15 st14 st9">45</text>
<text transform="matrix(1 0 0 1 657.7637 402.0516)" class="st15 st14 st9">56</text>
<text transform="matrix(1 0 0 1 657.764 448.093)" class="st15 st14 st9">83</text>
<path id="Malta" class="st27" d="M152,99.2l1.1-1.3v-0.9l-0.3-0.5l-2.3,0l-1.1,1.4v0.9l0.4,0.5L152,99.2z M25.6,73.9l-0.4-0.4h-0.7
	l-0.4,0.5v1.9l0.4,0.4l1.1-1.4L25.6,73.9z M154.2,104.7l-2.2,0l-0.7,1.9l-1.5-1.9l-2.9,1l-0.8-0.9h-1.5l-1.1,1.3l0.7,0.9v0.9
	l0.8,0.9l0,3.7l1.1,2.3l4.1,0.5l-1.1,2.3h-0.7l-1.5,2.7l-1.1,0.5l0.4,1.3l2.2,0l0.7-0.9l0.7,0.9l3.8,0l2.2-1.8l1.5,0.9l3,0.1
	l0.8-0.9l5.2,0l4.1-4.1l-1.1-2.3h-0.7l-3-3.6l-2.2-1.9h-1.5l-2.2-3.7h-1.5l-1.5,1.8l-1.4-0.9L154.2,104.7z M136.4,98.3h5.9l1.5-1.8
	h3.8l4.4-2.8l2.9,0l1.1-1.3l-0.7-6.4l-4.1-4.1h-0.7l-0.3-1.5l-4.8-5.9l-5.2-4.6l-0.7,1l-1.5-0.1l-2.6-3.2l-1.2-6l-3.6-0.9l-2.2,1.8
	l-4.4,0l-2.2-3.7l-3-0.9l-2.2-3.6h-3l-1.8,1.3l-0.4,1.4l-2.9,0.9l-2.7-2.2l-1.1-2.3H103l-0.8,0.9l-1.4-0.9l-3.8-5.4L93.4,45
	l-2.9-0.9l-3,1.9l-0.4-2.3l-1.8-2.3l-3.7,0l0.1-3.7l-3,0.9l-1.5-1.8l-1.5,0l-0.7,0.9h-2.2l-2.2-1.9l-3.8,0l-0.7,0.9l-0.7-0.9l-3,0
	l-0.7,0.9l-2.9-0.9l-1.5,0.9l-1.5-0.9l-2.9,1.8l-0.8-0.9h-1.5l-0.8,0.9l-2.9,0l-2.9,1.8h-6L34,43.2l-1.4,0l-0.8-0.9l-0.7,0.9l-1.5,0
	l-2.2,1.9l-6-0.9l-1.9,3.1l0,2.8l2.6,6l3,0.9l0.3,3.2L27,62l0,1.9l-2.9,2.8v0.9l3.7,7.3l-3,2.8l0,2.7l-3.7,5.5l1.1,2.3l3,0l2.2,1.8
	l2.3,0.1l0.7,0.9L34,90l0.7-0.9l2.3,0l2.2,1.9l3.7,0l0.8,1.9l2.2,0l1.9,1.4l-1.9,0.5L45.6,96l1.8,2.2l3,1.9l1.5,3.6h3l0.7,0.9H57
	l3-1.8l2.9,1.8h5.2l0.8,0.9l5.9,0.9l0.7,0.9l1.5-0.9l2.2,0l3.4,3.2l1.1,2.3h2.9l3,2.7l2.2-0.9l0.7-1.8l2.2-1.8l3.7-0.9l0.7-3.7
	l2.2,2.8l1.5,0.9l2.9,0l1.5-1.8l3.7,0.1l0.8-1l1.4-0.9l3,0.9l2.9-1.8l1.9-2.3l0-1.8l2.6-2.3l2.2-1.9l3,1.9l1.4,0l2.2-1.8l0.8,0.9
	l2.2,0L136.4,98.3z M252.7,178.1l0.4-0.4v-0.9l-0.4-0.5H252l-0.4,0.5v0.9l0.4,0.5H252.7z M214.2,166.2l1.1-1.4v-1.8l-0.4-0.4h-0.7
	l-0.7,0.9h-0.7l-0.4,0.5v1.9l0.4,0.4H214.2z M220.1,163.4l0.4-1.4l-1.9-1.4l-0.7,0.9h-0.7l-0.4,1.4l0.3,0.5L220.1,163.4z
	 M368.4,275.1h-2.2l-0.7-0.9l-3.8,0l-0.7,0.9L358,276l-0.4-1.4l1.1-1.4h2.2l0.7-0.9l5.9,0l0.4-1.4l-1.4-1.8l-1.5-4.6l-2.6-3.2
	l-3.7-0.9l-1.5-2.8l-0.7,0l-1.5-1.8l-2.2-0.1l-2.2-1.8l-3.7-5.5l-2.2-0.9l-2.3-2.7l-4.5-2.7l-1.4-1.8l-2.9,0.9l-0.8-0.9l-3-0.9
	l-1.5-1.9l-6-0.9l-0.4,2.3l3,3.7l-1.1,0.4l-1.5-0.9l-1.1,1.3l3,3.7l-1.1,0.5l-0.7-0.9h-0.8l-2.9-3.6l-2.6,0.5v1.8l3.7,5.5v1.8
	l-1.1,0.5l-1.8-5l-1.9-2.3l-1.9,0.5l3,7.4l-0.4,2.3l-1.8-2.3l0-2.8l-1.1-1.4l-2.2,0.9l-0.8,0.9l-2.2,0l-1.5,0.9l-1.9,2.3l0,2.8
	l-1.1,1.3l-4-1.4l2.9-0.9l0-3.7l3.4-3.2l2.2,0.1l0.4-2.3l1.1-1.3h0.7l4.5-5.5h2.2l2.6-2.3l-0.7-0.9l0.7-1.8l-0.4-4.1l-0.7,0.9l-6,0
	l-2.2,2.8l-2.2,1l-1.5,1.8h-1.5l-5.2,5.5l-0.4-2.3l-5.2,0l0.4-1.3h3.7l0.8-0.9l3.3-0.4l0-1.9l-2.6-2.3h-1.5l-1.1-3.2l3.3-3.2
	l4.5-0.9l3,1.8l2.2,0l1.5,1.9l2.2,0l1.9-2.3l-1.1-2.3l-2.2-0.9l-1.5-1.8h-2.2l-0.4-1.4l0.8-2.8l-3.4-1.4l-3.7-2.7h-1.5l-1.5,2.7
	l-2.2,0l-0.7,0.9l-1.8-3.2l1.9-0.5l1.1-1.4l0-2.8l-0.7-0.9l2.2-3.7l-1.9-0.5l-0.7,0.9l-3.7,0l-0.7,0.9l0-1.8h2.2l1.1-1.4v-0.9
	l-2.6-2.3l-3,0l-4.1-4.1l-1.1-2.3l-3.7-0.9l-0.7-0.9h-1.5l-1.4,1.8l-3.8-0.1l-0.7,1l-3.7-0.9l-3-1.8l-1.5-2.8l-0.7,0.9l-1.9-0.5
	l0-4.6l-1.1-2.3l-1.8,0.5l-1.9,4.1l-1.9-2.3l-0.7-3.7l-1.9-3.2l-1.5-0.9l-2.2,0l-3-1.8l-0.7-0.9l-2.9-0.1l-2.2,4.6l-2.3,0.9
	l-1.5,1.8l-1.1-1.4l0.8-6.4l1.9-3.2l1.5,0.1l1.9-2.4l-1.1-1.3h-1.4l-0.7,0.9l-2.2-0.1l-1.5,1l-2.9,2.8l-2.2-0.9l-1.5,5.5l-2.9,0.9
	l-0.7-0.9l-1.5-0.1l-2.9,3.7l-4.4,0l-0.8-0.9l-2.2,0l-0.7,0.9l-1.5,0.9l-0.7-0.9l-0.7,0.9h-1.5l-2.2,2.8h-3l-0.7,0.9l-1.1-0.4l0-1.8
	l3.7-3.7l0.7-2.8l1.5-1.8V173l-1.1-0.4v-0.9h2.9l1.5,0.9l1.9-2.3l0.7-4.6l-1.5-0.9l1.5-1.8l0-1.9l-2.6-1.3l-0.7,0.9h-2.3l-0.7-0.9
	h-2.9l-0.8-0.9l-1.5,0l-0.8,0.9l-2.9-0.1l-1.5-2.7h-2.2l-2.9,1.9l-6.7,0.9l-0.7,0.9l-4.4,0l-0.7,0.9l-4.4,0l-0.7,0.9l-1.1-1.4l0-1.8
	l-2.3-2.7l0-0.9l1.9-2.3l3,0l1.4-0.9l0.7-1.9l1.5,0l3-3.6h0.8l1.5-3.7l5.1,0l0.8-0.9h1.5l2.6-3.2l-1.5-2.7l-0.7-3.7l-1.1-0.4
	l-0.4-1.4l-3.3-3.3l-1.5,1h-3.7l-0.4,4.1l1.5,0.9l-0.4,0.5h-1.5l-2.2,1.8l-5.1-0.9l-1.1,1.3v1.9l-1.1,1.3l-1.5-1.8H166l-1.5,1.8
	l-1.5,0l-0.8-0.9h-2.9l-0.7,0.9h-2.2l-0.8-0.9l-5.2,0l-0.8-0.9l-2.2,0.9v1.8l1.5,0.1l2.2,1.8l1.5,0l0.4,1.4l-1.1,1.3l-2.2,0
	l-1.5,2.8l-1.5,0.9l-1.5-0.9l-1.1,1.3l0,1.9l-2.2,3.6l-0.7,3.7l1.9,1.4h2.2l0.8,0.9l2.9,0l0.7-0.9l5.2,0l1.8,4.1l0,2.7l-0.7,0.9
	l0.4,2.3l4,0.5l-2.9,0.9l0.7,5.6l0.4,0.4l0.7-0.9l0.4,1.3l-2.2,1.8l0,2.8l-1.1,0.5l-2.2,3.7h-2.9l-1.1,1.3l-0.7,4.6l1.5,0.9l1.1,2.3
	l3.7-0.9l3,3.7h2.9l1.1,1.4l-0.7,2.7l1.5,1.9l-5.2,0l0.4,2.3l3.3,1.4l-0.7,2.8l0.8,0.9l-1.1,1.4l-2.2-2.7l-3,0l-0.8-0.9l-1.1,1.3
	l-0.8,3.7l-1.4,0.9l0,2.8l3.3,2.2l0.4,0.5l-0.7,0.9l3,2.7l1.5,2.7l-4.1,2.3l-5.2-1.8l-0.3,2.3l1.4,1.8l-2.2,8.3l2.6,0.4l3.3,3.2
	l0.8,1.8l1.5,3.6l0,5.5l-0.8,2.8l1.8,2.3h0.8l1.9,2.3l0,1.9l1.1,1.3l1.5,0l0.8,1.8l1.4,0.9h2.2l0.7,0.9l3,0l-0.4,2.3l1.1,1.4
	l1.5,0.9h2.2l2.5,3.2l0,2.8l1.9,0.5l0.8,0.9l1.4,0l4.5,5.5l1.4,0.9h3l2.2,3.6l1.5,0.9h3.7l4.5,3.7l5.5,3.2l0.8,2.8l-0.7,0.9l0.3,1.4
	l3.8,0l1.5,1.9l1.5,0.9l3,0.1l0.7,0.9l4.4,0l1.5,0.9l0.4,3.2l1.8,3.2l1.5,0.9l2.2,0l0.8,0.9l5.2,0l0.7-0.9l3,1.8l3,0.1l0.3,1.3
	l2.6,2.3l0.8-0.9l1.5,0l2.3,1.9l3.7,0.9l3.7,2.7h2.2l2.2-3.7l2.3,1.8l2.2-0.9l0.8,0.9l2.2,0l5.1,5.5l6,0.9l0.7-1h2.9l2.2,1.9h2.2
	l0.7-0.9l3.7,0l1.5,1.8l4.4,0l2.2,1.9l3,0l1.5,1.8l4.4,2.7l2.9,0l1.4,0.9l0.7-0.9l4.5,0l0.7-0.9l0.7,0.9l5.2-0.9l0.7,0.9l5.2-1
	l5.9-3.6l0.4-1.5l-0.7-0.9l-1.2-4.1l-1.5-0.9l-1.4,0.9l-1.5-2.7l-4.1-1.4l-1.5-5.5l2.6-0.5l1.1-1.4V314l-2.2-1.9l1.1-1.3l3.7,0
	l0.8-0.9l1.5,0.1l2.2,3.6h1.5l0.7,0.9l1.9-0.5l0.7-2.8l-0.7-5.5l-1.5-0.9l0.4-3.2l1.5,1.9h1.4l3,3.6l3.7,1.8l1.1,2.3l-1.5,8.2
	l1.5,1.8l0.7,3.6l1.1,0.5l2.6-1.3l0.7-1.8l-0.8-2.7l2.2-5.5l-1.5-2.8l0.7-3.6l-1.8-0.5l-1.8-3.2l2.6-0.5l2.2,1.9l0.4-2.3l-2.2-2.7
	l1.9-1.3l2.2,0.9l1.5,1.8l3.3-0.5l0-1.9l-1.1-2.3h-2.2l-1.1-1.4l1.9-3.2h3l0-2.7l-6.6,0l-1.9-3.2l1.9-1.3l2.2,1.8l1.1-1.4l0-1.8
	l2.2-1.8l0.4-1.4l1.4-0.9h2.2l0.4-2.3L368.4,275.1z M219.4,360.1l-0.7-0.8l-1.4-0.1l-0.4,1.4l1.1,1.4l4.9-0.5l-0.4-1.3L219.4,360.1z
	 M133.8,99.7l1.1,1.3l1.5,0l1.1-1.4l-3.3-1.4L133.8,99.7z M305.4,229.4l-5.2,0l-1.1,2.3l1.9,2.3l2.9,0l0.7,0.9h1.5l2.6-4.1l-2.6-0.5
	L305.4,229.4z M215.7,362l-0.4,0.4v0.9l0.3,0.5l0.8,0l0.4-0.4v-0.9l-0.3-0.4H215.7z M212.7,362l-0.4,0.5v0.9l0.4,0.4h1.5l0.4-0.5
	v-0.9l-0.4-0.4H212.7z M144.2,111.6l-2.6-2.3l-2.2,0l-0.4,2.3l1.1,1.4l4.1-0.5V111.6z"/>
</svg>
