<?xml version="1.0" encoding="utf-8"?>
<!-- Generator: Adobe Illustrator 23.0.1, SVG Export Plug-In . SVG Version: 6.00 Build 0)  -->
<svg version="1.1" id="Layer_1" xmlns="http://www.w3.org/2000/svg" xmlns:xlink="http://www.w3.org/1999/xlink" x="0px" y="0px"
	 viewBox="0 0 720 515.3" style="enable-background:new 0 0 720 515.3;" xml:space="preserve">
<style type="text/css">
	.st0{fill:none;}
	.st1{fill:#A8A8A8;}
	.st2{fill:#89CCA3;stroke:#0FB753;stroke-width:0.25;stroke-miterlimit:10;}
	.st3{fill:#143C75;}
	.st4{font-family:'Bulo-Black';}
	.st5{font-size:14.5939px;}
	.st6{font-size:36px;}
	.st7{fill:#565556;}
	.st8{font-family:'ArialMT';}
	.st9{font-size:11px;}
	.st10{font-size:15px;}
	.st11{fill:#E5367A;}
	.st12{fill:#606060;}
	.st13{fill:#3D3D3D;}
	.st14{font-family:'Arial-BoldMT';}
	.st15{fill:#FFFFFF;}
	.st16{fill:#8D90C7;stroke:#FFFFFF;stroke-width:0.5;stroke-miterlimit:10;}
	.st17{fill-rule:evenodd;clip-rule:evenodd;fill:#8D90C7;stroke:#FFFFFF;stroke-width:0.5;stroke-miterlimit:10;}
	.st18{fill-rule:evenodd;clip-rule:evenodd;fill:#F8A25E;stroke:#FFFFFF;stroke-width:0.5;}
	
		.st19{fill-rule:evenodd;clip-rule:evenodd;fill:#3A9DB4;stroke:#F7F8F9;stroke-width:0.5;stroke-linecap:round;stroke-linejoin:round;}
	.st20{fill:#3A9DB4;stroke:#F7F8F9;stroke-width:0.5;stroke-linecap:round;stroke-linejoin:round;}
	
		.st21{fill-rule:evenodd;clip-rule:evenodd;fill:#F1E355;stroke:#F7F8F9;stroke-width:0.5;stroke-linecap:round;stroke-linejoin:round;}
	.st22{fill:#F1E355;stroke:#F7F8F9;stroke-width:0.5;stroke-linecap:round;stroke-linejoin:round;}
	
		.st23{fill-rule:evenodd;clip-rule:evenodd;fill:#D96CA9;stroke:#F7F8F9;stroke-width:0.5;stroke-linecap:round;stroke-linejoin:round;}
	.st24{fill:#D96CA9;stroke:#F7F8F9;stroke-width:0.5;stroke-linecap:round;stroke-linejoin:round;}
	.st25{fill:#9ECF85;stroke:#F7F8F9;stroke-width:0.5;stroke-linecap:round;stroke-linejoin:round;}
	
		.st26{fill-rule:evenodd;clip-rule:evenodd;fill:#9ECF85;stroke:#F7F8F9;stroke-width:0.5;stroke-linecap:round;stroke-linejoin:round;}
	.st27{fill:#73AFDF;}
	.st28{fill-rule:evenodd;clip-rule:evenodd;fill:#F49294;stroke:#FFFFFF;stroke-width:0.5;}
	.st29{fill:#F49294;stroke:#FFFFFF;stroke-width:0.5;}
	.st30{fill:#77AE87;stroke:#F7F8F9;stroke-width:0.5;stroke-linecap:round;stroke-linejoin:round;}
	
		.st31{fill-rule:evenodd;clip-rule:evenodd;fill:#77AE87;stroke:#F7F8F9;stroke-width:0.5;stroke-linecap:round;stroke-linejoin:round;}
	.st32{fill-rule:evenodd;clip-rule:evenodd;fill:#D0B0CE;stroke:#FFFFFF;stroke-width:0.5;}
	.st33{fill:#D0B0CE;stroke:#FFFFFF;stroke-width:0.5;}
	.st34{fill:#D0B0CE;}
	.st35{fill:#F37B58;stroke:#F7F8F9;stroke-width:0.5;stroke-linecap:round;stroke-linejoin:round;}
	
		.st36{fill-rule:evenodd;clip-rule:evenodd;fill:#F37B58;stroke:#F7F8F9;stroke-width:0.5;stroke-linecap:round;stroke-linejoin:round;}
	.st37{fill:#F37B58;}
	
		.st38{fill-rule:evenodd;clip-rule:evenodd;fill:#F6B3CD;stroke:#F7F8F9;stroke-width:0.5;stroke-linecap:round;stroke-linejoin:round;}
	.st39{fill:#F6B3CD;stroke:#F7F8F9;stroke-width:0.5;stroke-linecap:round;stroke-linejoin:round;}
</style>
<text transform="matrix(1 0 0 1 399.7657 433.6366)" class="st3 st4 st5">Life Expectancy</text>
<text transform="matrix(1 0 0 1 399.7657 297.4647)" class="st3 st4 st5">Cost of Living</text>
<text transform="matrix(1 0 0 1 399.7657 342.287)" class="st3 st4 st5">Healthcare</text>
<text transform="matrix(1 0 0 1 399.7657 388.0097)" class="st3 st4 st5">Crime</text>
<rect x="397.3" y="138.5" class="st0" width="286.7" height="136"/>
<text transform="matrix(1 0 0 1 397.3338 163.8929)" class="st3 st4 st6">B</text>
<text transform="matrix(1 0 0 1 418.3338 163.8929)" class="st7 st8 st9">elize ipsum dolor sit amet, consectetuer adipiscing elit, </text>
<text transform="matrix(1 0 0 1 397.3338 177.093)" class="st7 st8 st9">sed diam nonummy nibh euismod tincidunt ut laoreet </text>
<text transform="matrix(1 0 0 1 397.3338 190.293)" class="st7 st8 st9">dolore magna aliquam erat volutpat. Ut wisi enim ad minim </text>
<text transform="matrix(1 0 0 1 397.3338 203.4929)" class="st7 st8 st9">veniam, quis nostrud exerci tation ullamcorper suscipit </text>
<text transform="matrix(1 0 0 1 397.3338 216.6928)" class="st7 st8 st9">lobortis nisl ut aliquip ex ea commodo consequat. Duis </text>
<text transform="matrix(1 0 0 1 397.3338 229.8928)" class="st7 st8 st9">autem vel eum iriure dolor in hendrerit in vulputate velit </text>
<text transform="matrix(1 0 0 1 397.3338 243.0928)" class="st7 st8 st9">esse molestie uis autem vel eum iriure dolor in hendrerit in </text>
<text transform="matrix(1 0 0 1 397.3338 256.2928)" class="st7 st8 st9">vulputate velit esse molestie</text>
<text transform="matrix(1 0 0 1 399.3336 21.334)" class="st3 st4 st10">Capital:</text>
<text transform="matrix(1 0 0 1 448.3336 21.334)" class="st11 st4 st10"> </text>
<text transform="matrix(1 0 0 1 451.2335 21.334)" class="st12 st8 st9">Belmopan</text>
<text transform="matrix(1 0 0 1 399.3336 39.334)" class="st3 st4 st10">Population:</text>
<text transform="matrix(1 0 0 1 473.8336 39.334)" class="st11 st8 st9"> </text>
<text transform="matrix(1 0 0 1 476.9337 39.334)" class="st12 st8 st9">385,854</text>
<text transform="matrix(1 0 0 1 399.3336 57.3339)" class="st3 st4 st10">Language:</text>
<text transform="matrix(1 0 0 1 465.1336 57.3339)" class="st13 st8 st9"> </text>
<text transform="matrix(1 0 0 1 468.1336 57.3339)" class="st12 st8 st9">English 62.9% (official), Spanish 56.6%, </text>
<text transform="matrix(1 0 0 1 399.3336 70.5338)" class="st12 st8 st9">Creole 44.6% </text>
<text transform="matrix(1 0 0 1 399.3336 88.5339)" class="st3 st4 st10">Climate:</text>
<text transform="matrix(1 0 0 1 452.7335 88.5339)" class="st11 st14 st9"> </text>
<text transform="matrix(1 0 0 1 455.8336 88.5339)" class="st12 st8 st9">tropical; very hot and humid; rainy</text>
<text transform="matrix(1 0 0 1 399.3336 101.7339)" class="st12 st8 st9">season (May to November); dry season </text>
<text transform="matrix(1 0 0 1 399.3336 114.9339)" class="st12 st8 st9">(February to May)</text>
<path class="st1" d="M635,309.7H399.3c-1.1,0-2-0.9-2-2l0,0c0-1.1,0.9-2,2-2H635c1.1,0,2,0.9,2,2l0,0
	C636.9,308.8,636,309.7,635,309.7z"/>
<path class="st2" d="M470.6,312.5h-69.3c-2.2,0-3.9-1.8-3.9-3.9v-1.8c0-2.2,1.8-3.9,3.9-3.9h69.3c2.2,0,3.9,1.8,3.9,3.9v1.8
	C474.5,310.7,472.7,312.5,470.6,312.5z"/>
<path class="st1" d="M635,354.9H399.3c-1.1,0-2-0.9-2-2l0,0c0-1.1,0.9-2,2-2H635c1.1,0,2,0.9,2,2l0,0C636.9,354,636,354.9,635,354.9
	z"/>
<path class="st2" d="M513.2,358H401.3c-2.2,0-3.9-1.8-3.9-3.9V352c0-2.2,1.8-3.9,3.9-3.9h111.9c2.2,0,3.9,1.8,3.9,3.9v2.1
	C517.1,356.2,515.4,358,513.2,358z"/>
<path class="st1" d="M635,400.2H399.3c-1.1,0-2-0.9-2-2l0,0c0-1.1,0.9-2,2-2H635c1.1,0,2,0.9,2,2l0,0
	C636.9,399.3,636,400.2,635,400.2z"/>
<path class="st2" d="M541.4,403.1H401.3c-2.2,0-3.9-1.8-3.9-3.9v-1.8c0-2.2,1.8-3.9,3.9-3.9h140.1c2.2,0,3.9,1.8,3.9,3.9v1.8
	C545.3,401.3,543.6,403.1,541.4,403.1z"/>
<path class="st1" d="M635,446.1H399.3c-1.1,0-2-0.9-2-2l0,0c0-1.1,0.9-2,2-2H635c1.1,0,2,0.9,2,2l0,0
	C636.9,445.2,636,446.1,635,446.1z"/>
<path class="st2" d="M596.5,449.1H401.3c-2.2,0-3.9-1.8-3.9-3.9v-1.8c0-2.2,1.8-3.9,3.9-3.9h195.2c2.2,0,3.9,1.8,3.9,3.9v1.8
	C600.4,447.4,598.6,449.1,596.5,449.1z"/>
<polygon class="st3" points="653.4,296.7 653.4,303.2 644.2,308 653.4,312.2 653.4,318.6 675.3,318.6 675.3,296.7 "/>
<polygon class="st3" points="653.4,341.9 653.4,348.4 644.2,353.2 653.4,357.3 653.4,363.8 675.3,363.8 675.3,341.9 "/>
<polygon class="st3" points="653.4,387.3 653.4,393.7 644.2,398.5 653.4,402.7 653.4,409.2 675.3,409.2 675.3,387.3 "/>
<polygon class="st3" points="653.4,433.2 653.4,439.7 644.2,444.4 653.4,448.6 653.4,455.1 675.3,455.1 675.3,433.2 "/>
<text transform="matrix(1 0 0 1 657.7637 311.5071)" class="st15 st14 st9">30</text>
<text transform="matrix(1 0 0 1 658.7642 356.9701)" class="st15 st14 st9">45</text>
<text transform="matrix(1 0 0 1 657.7637 402.0516)" class="st15 st14 st9">56</text>
<text transform="matrix(1 0 0 1 657.764 448.093)" class="st15 st14 st9">83</text>
<g id="Dominican_Republic">
	<polygon id="Valverde" class="st21" points="129.9,117.7 129.3,121.2 127.8,124.5 125.2,124.8 122.7,123.1 122.9,125.2 
		123.7,127.1 125.2,127.8 126.7,128.7 126.6,131.7 125.9,134.7 128.2,136.5 127.8,138.4 123.4,138.4 119.2,136.6 118.3,137.7 
		117.4,139.1 115.9,139.3 114.4,139 111.5,137.7 108.7,136.2 101.3,134.8 97.8,128.9 98.9,125.2 98.3,121.3 98.9,119.1 101.4,119.3 
		101.1,115.8 100.8,112.3 101.7,109.1 102.8,105.9 106.3,107.2 109.5,108.8 111.7,110.5 114.5,111.2 118.5,112.5 121.9,115.2 
		125.7,117.1 	"/>
	<polygon id="Santo_Domingo" class="st21" points="215.8,221.8 220.1,219.8 220.3,218.8 220.8,217.9 222,217.5 223.3,217.4 
		225.6,217.5 227.9,217.6 230.6,219.8 232.9,222.4 234.3,224.2 234.9,226.3 237,228.4 237.8,231.4 242.4,226.5 248.2,224.3 
		250.4,223.9 252.3,222.6 255.7,221.9 259.3,223.3 258.1,224.7 257.5,226.3 258.1,226.3 258.6,226.1 259.1,228.7 258.9,231.4 
		256.8,234.1 255.2,236.9 259.2,241.1 265.1,242.3 264.4,245.7 264.1,248.5 264.1,248.5 258.9,244.9 256.6,243.7 255.2,243.5 
		254.5,244.5 254.6,245.7 254.8,246.9 254.5,247.8 253.6,248.1 252.2,248.1 250.9,247.9 250.3,247.5 248.6,244.6 247.8,243.8 
		247.1,243.6 231.6,241.9 228.8,242 229,238.9 226.2,238.4 224.3,239 222.4,238.8 221.1,236.8 219.9,235.1 217.2,236.6 217,239.6 
		219.2,242.9 218.6,246.8 218.6,246.8 217.3,247.2 216.3,247.7 215.9,247 215.8,244.8 214.6,242.9 212.3,242.8 210,242.9 
		208.9,241.6 208.6,239.8 206.7,237.5 204.3,235.7 202.4,232.3 201.3,228.5 201.8,225.9 202.7,223.6 200,219.2 199.9,214.4 
		202.7,215.4 204.6,218.8 207.8,220 211.1,220.9 	"/>
	<polygon id="Santiago_Rodríguez" class="st21" points="80.9,128.8 84.2,128.5 86.1,127.5 88.3,127.2 91.4,129 94.6,129.3 
		96,128.3 97.8,128.9 101.3,134.8 108.7,136.2 107.4,138 107.2,140.1 108.5,141 109.4,142.1 105.5,143.4 101.9,145.1 100,145.2 
		98.1,145 96.6,146.1 95.3,147.5 93.5,149 92.1,151 91.8,154.2 91.5,157.5 91.8,159.7 93.5,161.3 93.6,164.5 93.1,167.9 87.8,167.8 
		83.4,165.7 79,163.3 74.5,161 71.4,156.9 67.3,154.2 65.6,152.3 64.6,150 69.5,147.8 70.7,141.1 71.5,138.8 71.2,136.4 72.5,131.9 
		74.8,128 76.1,126.3 77.9,127.6 	"/>
	<polygon id="Santiago" class="st21" points="161.7,130.9 161.3,133 159.8,134.7 158.4,137 157.8,139.7 158.1,142.1 158.1,144.4 
		156.5,145.6 155,146.7 149.8,148.5 144.7,151.1 142.2,151.8 141.5,154 143.9,155.9 147,156.7 148.6,159.5 147.9,163.1 148.2,166.2 
		145.5,165.7 143.4,165.8 142.1,168.7 136.9,172.7 130.6,175.7 127.3,177.1 124.4,178.6 125.1,180.8 124.7,183.2 122.1,182.4 
		119.5,181.6 117,182.1 114.7,183.2 110.2,181.8 105.7,178.9 103.8,177.2 103.5,174.6 102.7,173 101,172.1 96.9,170.1 93.1,167.9 
		93.6,164.5 93.5,161.3 91.8,159.7 91.5,157.5 91.8,154.2 92.1,151 93.5,149 95.3,147.5 96.6,146.1 98.1,145 100,145.2 101.9,145.1 
		105.5,143.4 109.4,142.1 108.5,141 107.2,140.1 107.4,138 108.7,136.2 111.5,137.7 114.4,139 115.9,139.3 117.4,139.1 118.3,137.7 
		119.2,136.6 123.4,138.4 127.8,138.4 128.2,136.5 125.9,134.7 126.6,131.7 126.7,128.7 125.2,127.8 123.7,127.1 122.9,125.2 
		122.7,123.1 125.2,124.8 127.8,124.5 129.3,121.2 129.9,117.7 133.1,118.4 135.8,119.2 138.1,121.1 140.3,123.1 144.8,122.9 
		145.2,116.7 150.5,119.1 152.6,124.1 155.6,128.9 	"/>
	<polygon id="Sánchez_Ramírez" class="st21" points="194,170.3 196.1,170 200.5,169.9 204.9,170.4 207.7,170.6 210.4,171.8 
		212.6,172.9 215,173.6 218.1,173.7 221.3,173.9 223.8,174.7 226,176 225.6,178.9 224.7,181.8 223.2,188.6 221.5,195.5 218.6,197.7 
		215.4,196.1 213.4,195.7 212.1,197.6 210.3,197.3 208.2,196.9 205.6,197.5 203.7,199.2 199.4,200.3 194.2,201.4 191.6,196.8 
		187.3,193.7 185.2,192.2 183.6,190.1 183.3,188.5 182.4,187.4 179.8,186.1 179.4,183.3 178.4,180.8 177.3,178.3 180.1,175 
		184.1,173.1 186.6,171.8 188.8,171 188.6,170.7 188.4,170.4 188.4,169.9 188.1,170 189.9,169.4 191.9,170 	"/>
	<polygon id="San_Pedro_de_Macorís" class="st21" points="281.6,236.6 284.4,233.3 286.6,230.5 288.2,226.5 291.6,224.1 293,225.1 
		294.3,225.9 296,225.8 297.7,226.2 300.1,228.9 302.9,231 306.1,230.6 309.1,230.9 308.5,233.3 307.8,236.1 306.2,238.7 
		304.9,241.6 305.6,243 306.8,244 308,247 308.6,250 308.5,250 306.6,249.7 302.2,248.2 300.2,247.8 298.5,247.3 295.6,244.8 
		293.4,244.2 291.4,244.6 289.5,245.3 287.5,245.4 285.5,244.2 283.4,246.2 270.3,247.2 266.4,248.6 264.4,248.7 264.1,248.5 
		264.1,248.5 264.4,245.7 265.1,242.3 259.2,241.1 255.2,236.9 256.8,234.1 258.9,231.4 259.1,228.7 258.6,226.1 258.1,226.3 
		257.5,226.3 258.1,224.7 259.3,223.3 265.1,213.2 271,206.9 271,210.6 272.8,213.9 273.4,218.3 274.1,222.7 276.4,226.1 
		278.7,229.6 280.1,233.2 	"/>
	<polygon id="San_Juan" class="st21" points="93.1,167.9 96.9,170.1 101,172.1 102.7,173 103.5,174.6 103.8,177.2 105.7,178.9 
		110.2,181.8 114.7,183.2 117,182.1 119.5,181.6 122.1,182.4 124.7,183.2 126.4,184.9 127.2,187.2 126.4,189.5 124.3,190.5 
		123.9,192.6 122.4,193.9 120,195.6 118.8,198.3 118.1,203.6 118,209 117.3,210.8 115.9,212.2 114.4,211.5 113.6,209.7 110.3,210.7 
		110.9,214.7 110.8,216.1 109.8,217.5 110.4,218.7 110.7,220 108.8,220.9 107.1,221.6 104.5,225.5 100.1,226.7 96.4,224.6 
		91.7,226.1 88.9,226.5 86.1,226.2 83.8,227 81.7,228.4 76.8,228 72.3,225.8 67.3,224.8 62.6,223 64,219.6 62.8,216.6 60.1,216 
		58.3,214 58.3,211.4 57.5,208.9 55.5,207.2 53.2,205.7 54.4,200.5 52.7,198.3 53.5,192.6 56,187.3 58.2,185.2 61.1,185 64.2,184 
		65.8,180.7 66.9,176.1 69,172.3 72.4,172.9 75.5,174.8 79.4,174.6 82.5,172.1 82.7,168.9 83.4,165.7 87.8,167.8 	"/>
	<polygon id="San_José_de_Ocoa" class="st21" points="171.4,213.9 173.9,213.6 176.3,212.8 179,213.8 181.5,215.6 179.7,220 
		179.3,224.5 179.8,228.3 178.7,232 179.4,235.4 180.9,238.6 178.7,240.9 176.2,242.7 171.3,244.1 168.6,248.2 166.4,243.8 
		164.3,240.2 161.1,238.5 157.7,236.3 155.4,235.5 153.6,233.8 152.9,232.2 151.4,231.3 149.3,225.9 146.4,220.2 151,220.1 
		155.4,220.2 156.9,218.5 159,216.5 161.7,213.2 163.1,208.5 167.3,210.9 	"/>
	<polygon id="San_Cristóbal" class="st21" points="199.9,214.4 200,219.2 202.7,223.6 201.8,225.9 201.3,228.5 202.4,232.3 
		204.3,235.7 206.7,237.5 208.6,239.8 208.9,241.6 210,242.9 212.3,242.8 214.6,242.9 215.8,244.8 215.9,247 216.3,247.7 
		216.3,247.7 215,248.4 212.8,250.4 211.1,253 210.4,256.2 209.9,257.1 207.6,258.3 207.1,259.1 206.6,260.2 203.3,263.4 
		200.8,266.2 199.4,267.4 198.8,267.1 198.6,267.1 198.6,267.1 198,265.1 197.5,262.7 196.2,261.6 194.9,260.3 194.2,259 
		193.5,257.6 191.5,255.2 189.6,252.9 190.1,250.1 192.7,248.6 192.9,246.1 189.7,244.6 185.7,240.7 180.9,238.6 179.4,235.4 
		178.7,232 179.8,228.3 179.3,224.5 179.7,220 181.5,215.6 185.3,215.7 186.6,211.7 188,208.7 191.5,207 193.1,209.1 194.9,211.2 
		197.5,212.6 	"/>
	<polygon id="Samaná" class="st21" points="254.8,175.1 254.7,175.9 255,178.7 254.4,182 253.1,185 250.1,182.8 247,181 
		244.1,178.9 241.2,176.7 243.2,174.8 243.5,171.4 244.9,169.7 246.5,168.7 249.1,166.9 249.1,164 243.1,162.6 238.2,164.9 
		237.5,162.4 238.1,159.8 239.1,157.1 239.4,154.3 239.6,153.7 239.6,153.7 240,154.1 243.5,155.5 245.5,155.2 249.4,153.7 
		251.4,153.3 255.9,153.1 257.9,152.7 260,151.9 262.9,149.9 264.1,149.6 265.1,149.8 267.3,150.9 268.6,151.1 271,150.5 
		272.1,150.4 272.6,150.4 273.2,150.6 273.6,150.9 273.7,151.5 274.1,152 274.8,151.8 275.9,151.1 281.7,153.5 283.4,154.8 
		284.5,152.5 286.4,150.8 290.9,148.2 293.9,147.3 294.6,148.6 293.8,151.1 292.3,154.1 294.3,154.8 296.6,154.8 298.8,154.3 
		300.6,153.3 301.2,155.7 299.9,157.5 298.1,159.1 297.2,161 296.7,162.9 295.6,164.6 293.8,165.9 291.6,166.5 283.8,165 
		275.1,165.7 273.1,165.1 269.4,163.2 256.6,161.6 255.1,162 254.6,163.4 254.2,168.5 253.5,172.8 253.8,174.4 	"/>
	<polygon id="Puerto_Plata" class="st21" points="179.3,109.9 178.2,113 176.7,115.8 175,116.3 173.2,116.3 171.4,116.8 169.6,117 
		168.4,116.7 167.1,116.7 165.5,118.1 164.7,120.3 163.9,125.9 161.7,130.9 155.6,128.9 152.6,124.1 150.5,119.1 145.2,116.7 
		144.8,122.9 140.3,123.1 138.1,121.1 135.8,119.2 133.1,118.4 129.9,117.7 125.7,117.1 121.9,115.2 118.5,112.5 114.5,111.2 
		111.7,110.5 109.5,108.8 106.3,107.2 102.8,105.9 99.8,104.7 96.7,103.8 94.7,100.7 94,97.1 94,97.1 95,96.8 95.3,96 95.3,94.9 
		95.8,93.8 97,93.4 97.9,94.3 99,97.2 99.8,96.7 100.4,96.1 100.8,95.5 101,94.8 100.2,94.6 100,94.4 100,94.2 99.7,93.4 
		101.2,94.1 102.6,94 103.9,93.7 105.5,93.4 106.6,92.7 108.4,89.1 109.6,88.3 111.2,88 114.4,86.3 116.2,86.1 117.8,86.5 
		119.4,87.4 120.2,88.8 119.7,90.5 121.6,91.3 122.4,91.3 121.9,89.6 121.6,89 126.5,89.8 127.9,89.7 130.9,89 132,89 133.3,89.8 
		137.7,95.2 138,96.2 137.5,97.2 141.3,97.2 142.7,97.9 146.6,101.1 150.2,103 154.1,104.4 158.5,105 164.6,105.1 165.1,104.8 
		165.6,104.1 166.8,103.2 168.2,102.5 169.2,102.2 173.1,103.4 	"/>
	<polygon id="Peravia" class="st21" points="198.6,267.1 196.4,267.2 194.5,267.5 193.3,268.2 191.5,267.1 189.6,266.7 176.8,266.7 
		174.6,267.4 170.5,269.8 168.1,270.3 161.2,270.3 159.6,269.6 159.4,268.7 160.2,268 161.1,267.4 161.6,266.7 161.3,265.6 
		160.6,265 159.9,264.6 159.1,263.5 158.5,263.1 158.5,263.1 164.1,262 167.8,257.9 167.5,254.9 168.3,252 169.3,250.1 168.6,248.2 
		171.3,244.1 176.2,242.7 178.7,240.9 180.9,238.6 185.7,240.7 189.7,244.6 192.9,246.1 192.7,248.6 190.1,250.1 189.6,252.9 
		191.5,255.2 193.5,257.6 194.2,259 194.9,260.3 196.2,261.6 197.5,262.7 198,265.1 198.6,267.1 	"/>
	<path id="Pedernales" class="st22" d="M87.8,308l0.2-0.8l0.1,0.1l0,0l-0.1-0.3l0-4.1l-1.6-3.7l-3-0.1l-2.5,0.6l-5-4.1l-2.2-5.4
		l0.7-0.9l1-0.4l1-0.4l0.6-1.1l0.2-1.9l-0.1-1.9l-0.1-4.3l-3.1-1.8l-3-2.5l-2.9-2.7l-3.5-1.4l-3.7-0.9l-8.6-4.2L44,261l-0.2-0.1
		l-4.5,7.7l-0.8,2l-0.3,2.1l0.2,1l1.1,3l0.2,1.2l-0.1,1.8l0.2,3.1l-0.4,1.8l-1.2,3.2l5.6,2.1l3.7,3.1l1.8,2l0.7,1.8l-0.7,4l0.1,1.3
		l0.2,0.6l1.1,1.7l1.5,3l0.4,1.6l0.1,2.3l-0.7,1.3l-3.2,3.3l-1,0.8l3.4,0.8l8-1.1l3.4,1.3l1.7,1.8l6.9,11.4l1,0.8l0,0.4l0.9,0.8
		l1,0.5l4.2-5.8l1-1.9l3.4-9.9l1.2-1.8l0.4-0.8l0.7-2.1l0.4-0.4l0.8-0.2l0.6-0.4l0.5-0.7l0.4-0.9h-0.7l0.4-0.3L87.8,308z
		 M65.4,332.6l-1.4-0.8l-1.1,2.1l-0.9,2.6l0,2.3l1.7,1l1.7-0.6l2.5-2.6l1.5-0.5l-2.6-2.5L65.4,332.6z"/>
	<polygon id="Monte_Plata" class="st21" points="241.2,176.7 244.1,178.9 247,181 250.1,182.8 253.1,185 257.7,189.2 263.4,192.1 
		268.5,194.6 273.4,197.3 277,197.8 278.9,199.6 276.9,201 274.9,202.2 272.8,204.4 271,206.9 265.1,213.2 259.3,223.3 255.7,221.9 
		252.3,222.6 250.4,223.9 248.2,224.3 242.4,226.5 237.8,231.4 237,228.4 234.9,226.3 234.3,224.2 232.9,222.4 230.6,219.8 
		227.9,217.6 225.6,217.5 223.3,217.4 222,217.5 220.8,217.9 220.3,218.8 220.1,219.8 215.8,221.8 211.1,220.9 207.8,220 
		204.6,218.8 202.7,215.4 199.9,214.4 197.5,212.6 194.9,211.2 193.1,209.1 191.5,207 192.1,203.7 194.2,201.4 199.4,200.3 
		203.7,199.2 205.6,197.5 208.2,196.9 210.3,197.3 212.1,197.6 213.4,195.7 215.4,196.1 218.6,197.7 221.5,195.5 223.2,188.6 
		224.7,181.8 227.4,181.9 228.9,179.9 229,178.2 229.2,177 234.6,176.4 	"/>
	<polygon id="Monte_Cristi" class="st21" points="94,97.1 94,97.1 94.7,100.7 96.7,103.8 99.8,104.7 102.8,105.9 101.7,109.1 
		100.8,112.3 101.1,115.8 101.4,119.3 98.9,119.1 98.3,121.3 98.9,125.2 97.8,128.9 96,128.3 94.6,129.3 91.4,129 88.3,127.2 
		86.1,127.5 84.2,128.5 80.9,128.8 77.9,127.6 76.1,126.3 74.8,128 70.7,126.1 66.8,123.5 65.3,120.8 62.8,120 52.2,121.3 
		42.5,117.2 41.4,116.9 41.5,115.2 41.1,113.3 40.2,110.4 42.2,110.8 44,111.7 43.6,109.6 41.8,105.5 41.9,104.5 41.9,103.7 
		39.2,103.5 38.9,102.4 39.9,100.7 41.5,99 42,98.6 42.5,98.5 43.6,98.6 44.3,98.3 45.4,96.9 46,96.4 47.2,95.9 48.1,95.7 49,95.2 
		50.1,94.2 49.4,92.8 49.3,91.6 49.9,90.8 51.2,90.5 51.9,90.6 53.1,91.1 53.9,91.3 54.2,91 54.9,90 55.3,89.8 65.6,89 68.2,89.4 
		70.8,90.3 80.4,95.3 83.2,95.9 85.9,94.8 87.9,96.3 89.4,97 93.8,97.2 	"/>
	<polygon id="Monseñor_Noue" class="st21" points="177.3,178.3 178.4,180.8 179.4,183.3 179.8,186.1 182.4,187.4 183.3,188.5 
		183.6,190.1 185.2,192.2 187.3,193.7 191.6,196.8 194.2,201.4 192.1,203.7 191.5,207 188,208.7 186.6,211.7 185.3,215.7 
		181.5,215.6 179,213.8 176.3,212.8 173.9,213.6 171.4,213.9 167.3,210.9 163.1,208.5 157.2,201.5 158.1,194.2 164.1,189.2 
		164.2,182 166.3,178.1 171.1,176.8 172.2,174.8 174.1,174.1 176.5,175.5 	"/>
	<polygon id="María_Trinidad_Sánchez" class="st21" points="239.6,153.7 239.4,154.3 239.1,157.1 238.1,159.8 237.5,162.4 
		238.2,164.9 231.2,163.6 224.5,160.4 217.6,158.6 212.7,154.5 211.3,152 208.3,151.6 204.8,149.1 203.5,144.6 203.2,140.9 
		202.1,137.5 198.7,135.2 195.1,133.1 195.4,130 196,127.3 198.1,127.1 200.5,127.3 205.4,124.4 207.3,118.8 207.2,118.2 
		207.2,118.2 210.6,114.6 212.5,113.8 218,113.8 220.8,113.6 222,113.7 223.5,114.6 226.9,118.3 228,120.8 228,123.5 226.3,129.3 
		228.3,130.2 229.1,132.1 229.1,136.9 229.3,139 229.9,140.7 236.6,150.8 	"/>
	<polygon id="La_Vega" class="st21" points="160.6,148.9 162.9,148 164.9,147.5 166.9,152.6 169.8,152.1 171.3,155.7 173.3,159 
		176.1,161.8 180.2,162.1 183.4,167.1 188.4,170.4 188.6,170.7 188.8,171 186.6,171.8 184.1,173.1 180.1,175 177.3,178.3 
		176.5,175.5 174.1,174.1 172.2,174.8 171.1,176.8 166.3,178.1 164.2,182 164.1,189.2 158.1,194.2 157.2,201.5 163.1,208.5 
		161.7,213.2 159,216.5 156.9,218.5 155.4,220.2 151,220.1 146.4,220.2 147.8,214.2 144,209.5 137.9,206.4 133.6,200.6 132.5,190.8 
		127.2,187.2 126.4,184.9 124.7,183.2 125.1,180.8 124.4,178.6 127.3,177.1 130.6,175.7 136.9,172.7 142.1,168.7 143.4,165.8 
		145.5,165.7 148.2,166.2 147.9,163.1 148.6,159.5 147,156.7 143.9,155.9 141.5,154 142.2,151.8 144.7,151.1 149.8,148.5 155,146.7 
		157.4,148.5 	"/>
	<polygon id="La_Romana" class="st21" points="327,249.2 324.9,248.3 320.7,247.7 315.8,249.7 308.6,250 308,247 306.8,244 
		305.6,243 304.9,241.6 306.2,238.7 307.8,236.1 312.8,232.9 316.7,228 319.2,223.1 323.6,221.4 325.3,225.2 327.2,228.8 
		329.7,231.1 331.9,233.7 332,237 330.6,240.1 328.8,244.9 327,249.2 	"/>
	<path id="La_Altagracia" class="st22" d="M358.4,275.6l-1-1.4l-1.4-0.5l-5.2,0.2l-4.7-0.6l-1.2-0.4l-1.5-1.1l-1.7-0.9l-1.8-0.3
		l-1.5,0.4l0.9,2.6l1.6,2.8l2.5,2.3l3.5,0.9l1.7-0.2l3.1-1l1.8-0.2l1.7,0.3l3.2,1.5l1.5,0.3l0.2-0.8l-0.7-1.9L358.4,275.6z
		 M381.7,222.4l-5.7-3.5l-4.5-4.4l-0.6-0.4l-1.2-0.6l-4.3-3l-6.1-4.6l-4.3-5.2l-11.7-10.9l-1-0.4l-1.8-0.1l-0.9-0.5l-0.8-0.6
		l-1.9,2.4l-2.9,2.2l0.1,1.4l-0.6,1.2l-0.8,4.5l2.7,5.2l-2.1,6l-5.1,4.1l-2.7,0.4l-2.2,1.3l-0.4,2.3l0.8,2.2l1.7,3.8l1.9,3.5
		l2.5,2.3l2.1,2.6l0.1,3.3l-1.4,3.1l-1.8,4.8l-1.8,4.3l0,0l2,0.9l3.2,2.2l3,3.4l3.3,5l2.4,5.1l0.2,3.9l1.7,0.6l8.5-0.7l1.1-0.4
		l0.6-1.1l1.5-6.2l0.8-1.9l1.2-1.7l0.9-2.1l-0.5-2l-0.3-1.7l1.7-1.1l1.4,0.4l4,2.6l1.8,0.6h2.4l2.1-0.2l1.7-0.8l1.1-1.8l0.2-1.1
		l-0.2-3.7l0.3-1l0.7-0.7l0.7-0.6l9.4-14.4l0.5-4.2L381.7,222.4z"/>
	<polygon id="Independencia" class="st21" points="62.6,223 59.3,223.9 56.1,224.9 55.6,226.1 55.8,227.4 55.1,229.8 54,232.1 
		56.8,241.3 67.1,245.4 70.9,247.1 74.6,249.3 78.5,250.3 82.3,248.8 87.1,249.1 89.7,254 92.5,256.3 96.1,256.1 92.8,260.5 
		87.5,262 82.4,260.2 78,261.2 79.5,267.2 81,273 78.7,273.4 76.2,272.7 74.4,274.6 73.9,277.5 70.9,275 68,272.2 64.6,270.8 
		60.9,269.9 52.3,265.7 44,261 43.8,260.9 43.9,260.8 45.1,258.7 44.8,258.4 43.9,257.6 42.5,256.7 37.1,254.6 33.3,252.1 
		32.5,251.1 31,248.9 30.1,248.1 26.2,247.1 24.7,246.3 24.1,244.3 24.5,243.2 25.2,242.8 25.8,242.2 25.5,240.6 24.9,239.6 
		15.8,230.2 14.9,228.5 16.6,227.2 20.3,226.4 27.9,227.8 31.8,226.5 33.1,225.1 35.2,221.5 36.5,220 36.8,219.8 37.5,219.4 
		43,220.1 49.8,221.1 56.3,221.6 	"/>
	<polygon id="Hermanas_Mirabal" class="st21" points="192.9,132.9 192.3,135.6 191.5,139 188.7,141.4 184.5,143.5 182.5,148 
		181.7,153 180.3,157.5 180.2,162.1 176.1,161.8 173.3,159 171.3,155.7 169.8,152.1 171.9,145.8 172.3,139.8 172.3,132.7 
		175.6,128.6 177.4,129.3 179.1,130.1 180.3,132.9 182.7,131.3 184.7,128.3 187.7,126.5 190.6,129.1 	"/>
	<polygon id="Hato_Mayor" class="st21" points="295.8,183.7 295.8,184.1 295.8,184.1 295.3,190 298.1,195 289.8,193 284.1,194 
		287.7,201.4 293.5,207.4 295,211.7 294.6,216.2 292.8,220.2 291.6,224.1 288.2,226.5 286.6,230.5 284.4,233.3 281.6,236.6 
		280.1,233.2 278.7,229.6 276.4,226.1 274.1,222.7 273.4,218.3 272.8,213.9 271,210.6 271,206.9 272.8,204.4 274.9,202.2 276.9,201 
		278.9,199.6 277,197.8 273.4,197.3 268.5,194.6 263.4,192.1 257.7,189.2 253.1,185 254.4,182 255,178.7 254.7,175.9 254.8,175.1 
		254.8,175.1 256,176 261.5,175.2 263.5,175.9 265.8,175.1 270.6,177 273.1,176.7 272.4,176.1 271.6,175.7 270.7,175.3 269.6,175.2 
		269.6,174.4 274.9,174.1 276.5,174.4 278.3,175.7 279.7,179 281.3,180.3 283.1,180.8 286.5,181.2 	"/>
	<polygon id="Espaillat" class="st21" points="207.2,118.2 207.2,118.2 207.3,118.8 205.4,124.4 200.5,127.3 198.1,127.1 196,127.3 
		195.4,130 195.1,133.1 194,132.8 192.9,132.9 190.6,129.1 187.7,126.5 184.7,128.3 182.7,131.3 180.3,132.9 179.1,130.1 
		177.4,129.3 175.6,128.6 172.3,132.7 172.3,139.8 171.9,145.8 169.8,152.1 166.9,152.6 164.9,147.5 162.9,148 160.6,148.9 
		157.4,148.5 155,146.7 156.5,145.6 158.1,144.4 158.1,142.1 157.8,139.7 158.4,137 159.8,134.7 161.3,133 161.7,130.9 163.9,125.9 
		164.7,120.3 165.5,118.1 167.1,116.7 168.4,116.7 169.6,117 171.4,116.8 173.2,116.3 175,116.3 176.7,115.8 178.2,113 179.3,109.9 
		179.3,109.9 182.9,113.8 184.6,115 186.4,116 188.5,116.6 193.1,117.1 196.8,118.4 203.5,119.8 205,119.7 206,119.4 206.9,118.6 	
		"/>
	<polygon id="Elías_Piña" class="st21" points="83.4,165.7 82.7,168.9 82.5,172.1 79.4,174.6 75.5,174.8 72.4,172.9 69,172.3 
		66.9,176.1 65.8,180.7 64.2,184 61.1,185 58.2,185.2 56,187.3 53.5,192.6 52.7,198.3 54.4,200.5 53.2,205.7 55.5,207.2 57.5,208.9 
		58.3,211.4 58.3,214 60.1,216 62.8,216.6 64,219.6 62.6,223 56.3,221.6 49.8,221.1 43,220.1 37.5,219.4 40.2,217.7 41.6,216.6 
		42.8,214.6 43.5,212.8 44,210.8 44.1,208.9 43.3,204.7 43.2,200.4 42.6,198.4 41.9,197.5 39.6,195.4 38.7,194.3 37.2,191.3 
		36.3,190.5 34,190.4 31.5,191.3 29.7,191.6 29.4,189.7 31.1,188.6 36.3,187.2 37.6,186.3 41.9,181.5 44.9,177.3 46.5,175.9 
		49.9,173.5 51.1,171.6 51.7,169.8 52.1,163.4 50.8,162.8 52.5,161.2 54.5,160 56.7,159.2 57.4,157.2 58.6,155.8 61.1,156.4 
		63.5,157.2 65.5,156 67.3,154.2 71.4,156.9 74.5,161 79,163.3 	"/>
	<polygon id="El_Seibo" class="st21" points="338.7,188.1 336.8,190.5 333.9,192.8 334,194.2 333.4,195.4 332.6,199.8 335.4,205.1 
		333.3,211.1 328.2,215.2 325.5,215.6 323.2,216.9 322.8,219.2 323.6,221.4 319.2,223.1 316.7,228 312.8,232.9 307.8,236.1 
		308.5,233.3 309.1,230.9 306.1,230.6 302.9,231 300.1,228.9 297.7,226.2 296,225.8 294.3,225.9 293,225.1 291.6,224.1 292.8,220.2 
		294.6,216.2 295,211.7 293.5,207.4 287.7,201.4 284.1,194 289.8,193 298.1,195 295.3,190 295.8,184.1 295.8,184.1 295.8,183.7 
		295.8,183.7 299.7,184.8 301.3,184.7 303.2,183.6 302.6,182.8 301.3,182.1 301.3,181 303.1,180.5 304.7,181.9 306.8,185.4 
		308.1,186.2 309.7,186.6 311,187.2 311.6,188.3 312.8,187.4 315.3,186.2 316.4,185.4 315.7,184.5 316,184.3 316.9,184.3 317.8,184 
		318.9,182.9 319.2,182.5 319.6,182.4 323.2,182.6 325.3,183.1 327.2,183.7 328.8,184.7 329,185 329,185.3 329.1,185.7 329.5,186.1 
		331.6,186.8 331.8,186.8 335.4,187.6 337.6,187.6 338.5,188 338.7,188.1 	"/>
	<polygon id="Duarte" class="st21" points="195.1,133.1 198.7,135.2 202.1,137.5 203.2,140.9 203.5,144.6 204.8,149.1 208.3,151.6 
		211.3,152 212.7,154.5 217.6,158.6 224.5,160.4 231.2,163.6 238.2,164.9 243.1,162.6 249.1,164 249.1,166.9 246.5,168.7 
		244.9,169.7 243.5,171.4 243.2,174.8 241.2,176.7 234.6,176.4 229.2,177 229,178.2 228.9,179.9 227.4,181.9 224.7,181.8 
		225.6,178.9 226,176 223.8,174.7 221.3,173.9 218.1,173.7 215,173.6 212.6,172.9 210.4,171.8 207.7,170.6 204.9,170.4 200.5,169.9 
		196.1,170 194,170.3 191.9,170 189.9,169.4 188.1,170 188.4,169.9 188.4,170.4 183.4,167.1 180.2,162.1 180.3,157.5 181.7,153 
		182.5,148 184.5,143.5 188.7,141.4 191.5,139 192.3,135.6 192.9,132.9 194,132.8 	"/>
	<polygon id="Distrito_Nacional" class="st21" points="224.3,239 226.2,238.4 229,238.9 228.8,242 228.8,242 228.4,242 226.8,242.5 
		223.6,244.1 221,245.8 220,246.3 218.6,246.8 218.6,246.8 219.2,242.9 217,239.6 217.2,236.6 219.9,235.1 221.1,236.8 222.4,238.8 
			"/>
	<polygon id="Dajabón" class="st21" points="52.2,121.3 62.8,120 65.3,120.8 66.8,123.5 70.7,126.1 74.8,128 72.5,131.9 
		71.2,136.4 71.5,138.8 70.7,141.1 69.5,147.8 64.6,150 65.6,152.3 67.3,154.2 65.5,156 63.5,157.2 61.1,156.4 58.6,155.8 
		57.4,157.2 56.7,159.2 54.5,160 52.5,161.2 50.8,162.8 44.3,159.6 41,156.2 40.6,155.8 38.8,153.3 38.3,151.1 39,150.5 41.7,148.9 
		42.6,148.2 43.9,144.9 44.5,144.3 45.6,141.9 45.7,137.1 44.5,128.8 41.7,122.1 41.2,119.7 41.4,116.9 42.5,117.2 	"/>
	<polygon id="Barahona" class="st21" points="114.8,238.8 115.8,240.5 116.1,243.9 114.1,246.5 111,249.2 111.5,250.4 112,251.6 
		112.9,252.3 114.2,252.8 117.4,253.7 120.4,254.4 120.1,256 120.5,258.2 121.2,261.6 119.7,264.1 119.7,264.1 119.7,264.1 
		119.1,263.3 118.6,262.2 117.9,261.3 116.9,260.5 115.8,260 111.4,259.1 109.4,259 107.8,259.7 107.2,261.3 107,262.2 106.1,263.7 
		105.9,264.9 106.1,266.3 106.6,267 107.3,267.7 108,268.8 109.6,274.6 110.1,275.6 110.1,276.8 108.2,279.8 106.5,284.1 97,298 
		96.2,300.4 95.8,301.2 94.8,301.9 92.8,302.9 91.6,304 90.7,305 90,306.3 89.4,308 88.6,307.8 88.4,307.6 88.1,307.3 88.1,307.3 
		88,307.1 88,303 86.4,299.3 83.4,299.1 80.8,299.7 75.9,295.7 73.7,290.3 74.4,289.3 75.5,288.9 76.5,288.5 77,287.4 77.2,285.5 
		77.1,283.6 77,279.3 73.9,277.5 74.4,274.6 76.2,272.7 78.7,273.4 81,273 79.5,267.2 78,261.2 82.4,260.2 87.5,262 92.8,260.5 
		96.1,256.1 96.4,252.7 98.2,249.9 99.9,248.8 101.5,247.7 102.6,245.9 104.2,244.6 107.3,243.5 109.9,241.6 111.5,239 112.8,236.2 
			"/>
	<polygon id="Baoruco" class="st21" points="81.7,228.4 83.8,227 86.1,226.2 88.9,226.5 91.7,226.1 96.4,224.6 100.1,226.7 
		104.9,231.5 111.1,233.7 114.3,234.3 117,236.1 116.9,238 114.8,238.8 112.8,236.2 111.5,239 109.9,241.6 107.3,243.5 104.2,244.6 
		102.6,245.9 101.5,247.7 99.9,248.8 98.2,249.9 96.4,252.7 96.1,256.1 92.5,256.3 89.7,254 87.1,249.1 82.3,248.8 78.5,250.3 
		74.6,249.3 70.9,247.1 67.1,245.4 56.8,241.3 54,232.1 55.1,229.8 55.8,227.4 55.6,226.1 56.1,224.9 59.3,223.9 62.6,223 
		67.3,224.8 72.3,225.8 76.8,228 	"/>
	<polygon id="Azua" class="st21" points="146.4,220.2 149.3,225.9 151.4,231.3 152.9,232.2 153.6,233.8 155.4,235.5 157.7,236.3 
		161.1,238.5 164.3,240.2 166.4,243.8 168.6,248.2 169.3,250.1 168.3,252 167.5,254.9 167.8,257.9 164.1,262 158.5,263.1 
		158.5,263.1 157.2,262.3 156.8,261.3 157,260.2 157.6,259.8 158.3,259.4 158.8,258.7 159.3,256.5 159.3,254.3 159.1,252.3 
		158.5,251.1 156.3,248.3 155,247.4 152.6,246.4 150.7,246 148.2,245.8 146,246.4 145.1,248.2 145.5,250.4 145.2,251.3 142.2,254.3 
		141.4,254.8 140.3,255.1 139.1,255.1 137.1,254.4 136.1,254.3 135.4,254.6 134,255.6 133,255.8 131.7,255.7 131.3,256 130.3,256.9 
		130,257.3 129.4,258.6 129.3,259.1 129,259.5 127.7,259.9 127.2,260.2 124.5,263.4 123.1,264.2 120.7,264.5 119.7,264.1 
		119.7,264.1 121.2,261.6 120.5,258.2 120.1,256 120.4,254.4 117.4,253.7 114.2,252.8 112.9,252.3 112,251.6 111.5,250.4 111,249.2 
		114.1,246.5 116.1,243.9 115.8,240.5 114.8,238.8 116.9,238 117,236.1 114.3,234.3 111.1,233.7 104.9,231.5 100.1,226.7 
		104.5,225.5 107.1,221.6 108.8,220.9 110.7,220 110.4,218.7 109.8,217.5 110.8,216.1 110.9,214.7 110.3,210.7 113.6,209.7 
		114.4,211.5 115.9,212.2 117.3,210.8 118,209 118.1,203.6 118.8,198.3 120,195.6 122.4,193.9 123.9,192.6 124.3,190.5 126.4,189.5 
		127.2,187.2 132.5,190.8 133.6,200.6 137.9,206.4 144,209.5 147.8,214.2 	"/>
</g>
</svg>
