<?xml version="1.0" encoding="utf-8"?>
<!-- Generator: Adobe Illustrator 23.0.1, SVG Export Plug-In . SVG Version: 6.00 Build 0)  -->
<svg version="1.1" id="Layer_1" xmlns="http://www.w3.org/2000/svg" xmlns:xlink="http://www.w3.org/1999/xlink" x="0px" y="0px"
	 viewBox="0 0 720 515.3" style="enable-background:new 0 0 720 515.3;" xml:space="preserve">
<style type="text/css">
	.st0{fill:none;}
	.st1{fill:#A8A8A8;}
	.st2{fill:#89CCA3;stroke:#0FB753;stroke-width:0.25;stroke-miterlimit:10;}
	.st3{fill:#143C75;}
	.st4{font-family:'Bulo-Black';}
	.st5{font-size:14.5939px;}
	.st6{font-size:36px;}
	.st7{fill:#565556;}
	.st8{font-family:'ArialMT';}
	.st9{font-size:11px;}
	.st10{font-size:15px;}
	.st11{fill:#E5367A;}
	.st12{fill:#606060;}
	.st13{fill:#3D3D3D;}
	.st14{font-family:'Arial-BoldMT';}
	.st15{fill:#FFFFFF;}
	.st16{fill:#8D90C7;stroke:#FFFFFF;stroke-width:0.5;stroke-miterlimit:10;}
	.st17{fill-rule:evenodd;clip-rule:evenodd;fill:#8D90C7;stroke:#FFFFFF;stroke-width:0.5;stroke-miterlimit:10;}
	.st18{fill-rule:evenodd;clip-rule:evenodd;fill:#F8A25E;stroke:#FFFFFF;stroke-width:0.5;}
	
		.st19{fill-rule:evenodd;clip-rule:evenodd;fill:#3A9DB4;stroke:#F7F8F9;stroke-width:0.5;stroke-linecap:round;stroke-linejoin:round;}
	.st20{fill:#3A9DB4;stroke:#F7F8F9;stroke-width:0.5;stroke-linecap:round;stroke-linejoin:round;}
	
		.st21{fill-rule:evenodd;clip-rule:evenodd;fill:#F1E355;stroke:#F7F8F9;stroke-width:0.5;stroke-linecap:round;stroke-linejoin:round;}
	.st22{fill:#F1E355;stroke:#F7F8F9;stroke-width:0.5;stroke-linecap:round;stroke-linejoin:round;}
	
		.st23{fill-rule:evenodd;clip-rule:evenodd;fill:#D96CA9;stroke:#F7F8F9;stroke-width:0.5;stroke-linecap:round;stroke-linejoin:round;}
	.st24{fill:#D96CA9;stroke:#F7F8F9;stroke-width:0.5;stroke-linecap:round;stroke-linejoin:round;}
	.st25{fill:#9ECF85;stroke:#F7F8F9;stroke-width:0.5;stroke-linecap:round;stroke-linejoin:round;}
	
		.st26{fill-rule:evenodd;clip-rule:evenodd;fill:#9ECF85;stroke:#F7F8F9;stroke-width:0.5;stroke-linecap:round;stroke-linejoin:round;}
	.st27{fill:#73AFDF;}
	.st28{fill-rule:evenodd;clip-rule:evenodd;fill:#F49294;stroke:#FFFFFF;stroke-width:0.5;}
	.st29{fill:#F49294;stroke:#FFFFFF;stroke-width:0.5;}
	.st30{fill:#77AE87;stroke:#F7F8F9;stroke-width:0.5;stroke-linecap:round;stroke-linejoin:round;}
	
		.st31{fill-rule:evenodd;clip-rule:evenodd;fill:#77AE87;stroke:#F7F8F9;stroke-width:0.5;stroke-linecap:round;stroke-linejoin:round;}
	.st32{fill-rule:evenodd;clip-rule:evenodd;fill:#D0B0CE;stroke:#FFFFFF;stroke-width:0.5;}
	.st33{fill:#D0B0CE;stroke:#FFFFFF;stroke-width:0.5;}
	.st34{fill:#D0B0CE;}
	.st35{fill:#F37B58;stroke:#F7F8F9;stroke-width:0.5;stroke-linecap:round;stroke-linejoin:round;}
	
		.st36{fill-rule:evenodd;clip-rule:evenodd;fill:#F37B58;stroke:#F7F8F9;stroke-width:0.5;stroke-linecap:round;stroke-linejoin:round;}
	.st37{fill:#F37B58;}
	
		.st38{fill-rule:evenodd;clip-rule:evenodd;fill:#F6B3CD;stroke:#F7F8F9;stroke-width:0.5;stroke-linecap:round;stroke-linejoin:round;}
	.st39{fill:#F6B3CD;stroke:#F7F8F9;stroke-width:0.5;stroke-linecap:round;stroke-linejoin:round;}
</style>
<text transform="matrix(1 0 0 1 399.7652 433.6366)" class="st3 st4 st5">Life Expectancy</text>
<text transform="matrix(1 0 0 1 399.7652 297.4646)" class="st3 st4 st5">Cost of Living</text>
<text transform="matrix(1 0 0 1 399.7652 342.287)" class="st3 st4 st5">Healthcare</text>
<text transform="matrix(1 0 0 1 399.7652 388.0098)" class="st3 st4 st5">Crime</text>
<rect x="397.3" y="138.5" class="st0" width="286.7" height="136"/>
<text transform="matrix(1 0 0 1 397.3333 163.8929)" class="st3 st4 st6">B</text>
<text transform="matrix(1 0 0 1 418.3333 163.8929)" class="st7 st8 st9">elize ipsum dolor sit amet, consectetuer adipiscing elit, </text>
<text transform="matrix(1 0 0 1 397.3333 177.093)" class="st7 st8 st9">sed diam nonummy nibh euismod tincidunt ut laoreet </text>
<text transform="matrix(1 0 0 1 397.3333 190.293)" class="st7 st8 st9">dolore magna aliquam erat volutpat. Ut wisi enim ad minim </text>
<text transform="matrix(1 0 0 1 397.3333 203.4927)" class="st7 st8 st9">veniam, quis nostrud exerci tation ullamcorper suscipit </text>
<text transform="matrix(1 0 0 1 397.3333 216.6927)" class="st7 st8 st9">lobortis nisl ut aliquip ex ea commodo consequat. Duis </text>
<text transform="matrix(1 0 0 1 397.3333 229.8927)" class="st7 st8 st9">autem vel eum iriure dolor in hendrerit in vulputate velit </text>
<text transform="matrix(1 0 0 1 397.3333 243.0928)" class="st7 st8 st9">esse molestie uis autem vel eum iriure dolor in hendrerit in </text>
<text transform="matrix(1 0 0 1 397.3333 256.2928)" class="st7 st8 st9">vulputate velit esse molestie</text>
<text transform="matrix(1 0 0 1 399.3329 21.3338)" class="st3 st4 st10">Capital:</text>
<text transform="matrix(1 0 0 1 448.3329 21.3338)" class="st11 st4 st10"> </text>
<text transform="matrix(1 0 0 1 451.2329 21.3338)" class="st12 st8 st9">Belmopan</text>
<text transform="matrix(1 0 0 1 399.3329 39.3338)" class="st3 st4 st10">Population:</text>
<text transform="matrix(1 0 0 1 473.8329 39.3338)" class="st11 st8 st9"> </text>
<text transform="matrix(1 0 0 1 476.9329 39.3338)" class="st12 st8 st9">385,854</text>
<text transform="matrix(1 0 0 1 399.3329 57.3337)" class="st3 st4 st10">Language:</text>
<text transform="matrix(1 0 0 1 465.1329 57.3337)" class="st13 st8 st9"> </text>
<text transform="matrix(1 0 0 1 468.1329 57.3337)" class="st12 st8 st9">English 62.9% (official), Spanish 56.6%, </text>
<text transform="matrix(1 0 0 1 399.3329 70.5338)" class="st12 st8 st9">Creole 44.6% </text>
<text transform="matrix(1 0 0 1 399.3329 88.5338)" class="st3 st4 st10">Climate:</text>
<text transform="matrix(1 0 0 1 452.733 88.5338)" class="st11 st14 st9"> </text>
<text transform="matrix(1 0 0 1 455.8329 88.5338)" class="st12 st8 st9">tropical; very hot and humid; rainy</text>
<text transform="matrix(1 0 0 1 399.3329 101.7338)" class="st12 st8 st9">season (May to November); dry season </text>
<text transform="matrix(1 0 0 1 399.3329 114.9338)" class="st12 st8 st9">(February to May)</text>
<path class="st1" d="M635,309.7H399.3c-1.1,0-2-0.9-2-2l0,0c0-1.1,0.9-2,2-2H635c1.1,0,2,0.9,2,2l0,0
	C636.9,308.8,636,309.7,635,309.7z"/>
<path class="st2" d="M470.6,312.5h-69.3c-2.2,0-3.9-1.8-3.9-3.9v-1.8c0-2.2,1.8-3.9,3.9-3.9h69.3c2.2,0,3.9,1.8,3.9,3.9v1.8
	C474.5,310.7,472.7,312.5,470.6,312.5z"/>
<path class="st1" d="M635,354.9H399.3c-1.1,0-2-0.9-2-2l0,0c0-1.1,0.9-2,2-2H635c1.1,0,2,0.9,2,2l0,0C636.9,354,636,354.9,635,354.9
	z"/>
<path class="st2" d="M513.2,358H401.3c-2.2,0-3.9-1.8-3.9-3.9V352c0-2.2,1.8-3.9,3.9-3.9h111.9c2.2,0,3.9,1.8,3.9,3.9v2.1
	C517.1,356.2,515.4,358,513.2,358z"/>
<path class="st1" d="M635,400.2H399.3c-1.1,0-2-0.9-2-2l0,0c0-1.1,0.9-2,2-2H635c1.1,0,2,0.9,2,2l0,0
	C636.9,399.3,636,400.2,635,400.2z"/>
<path class="st2" d="M541.4,403.1H401.3c-2.2,0-3.9-1.8-3.9-3.9v-1.8c0-2.2,1.8-3.9,3.9-3.9h140.1c2.2,0,3.9,1.8,3.9,3.9v1.8
	C545.3,401.3,543.6,403.1,541.4,403.1z"/>
<path class="st1" d="M635,446.1H399.3c-1.1,0-2-0.9-2-2l0,0c0-1.1,0.9-2,2-2H635c1.1,0,2,0.9,2,2l0,0
	C636.9,445.2,636,446.1,635,446.1z"/>
<path class="st2" d="M596.5,449.1H401.3c-2.2,0-3.9-1.8-3.9-3.9v-1.8c0-2.2,1.8-3.9,3.9-3.9h195.2c2.2,0,3.9,1.8,3.9,3.9v1.8
	C600.4,447.4,598.6,449.1,596.5,449.1z"/>
<polygon class="st3" points="653.4,296.7 653.4,303.2 644.2,308 653.4,312.2 653.4,318.6 675.3,318.6 675.3,296.7 "/>
<polygon class="st3" points="653.4,341.9 653.4,348.4 644.2,353.2 653.4,357.3 653.4,363.8 675.3,363.8 675.3,341.9 "/>
<polygon class="st3" points="653.4,387.3 653.4,393.7 644.2,398.5 653.4,402.7 653.4,409.2 675.3,409.2 675.3,387.3 "/>
<polygon class="st3" points="653.4,433.2 653.4,439.7 644.2,444.4 653.4,448.6 653.4,455.1 675.3,455.1 675.3,433.2 "/>
<text transform="matrix(1 0 0 1 657.7631 311.5071)" class="st15 st14 st9">30</text>
<text transform="matrix(1 0 0 1 658.7634 356.9701)" class="st15 st14 st9">45</text>
<text transform="matrix(1 0 0 1 657.7629 402.0516)" class="st15 st14 st9">56</text>
<text transform="matrix(1 0 0 1 657.7633 448.093)" class="st15 st14 st9">83</text>
<g id="Ecuador">
	<polygon id="Zamora-Chinchipe" class="st23" points="300.8,267.2 300.9,267.1 301,267 301.2,266.6 301.3,266.5 301.4,266.4 
		301.6,266.4 301.9,266.3 302.7,266.4 303.2,266.4 304.8,266.1 307.5,266.1 307.5,266.1 307.5,266.2 307.1,267.1 306.9,267.6 
		306.9,268 306.9,268.8 307,269.2 307,269.5 306.8,269.6 306.5,269.6 306.4,269.7 306.4,269.8 306.4,270.1 306.7,271.5 306.6,271.9 
		306,272.4 305.8,272.5 305.6,272.7 305.4,272.8 305.2,273.2 305.1,273.6 304.8,275.2 304.8,275.4 304.8,275.5 304.4,275.6 
		304.2,275.7 303.9,275.7 303.7,275.8 303.4,276 303.3,276.4 303.3,277.7 303.1,278.7 301.8,281.5 301.6,282.4 301.4,282.9 
		301,283.2 300.8,283.7 300.8,284.5 301,285.3 301.3,285.7 301.8,286 301.7,286.4 301.4,286.8 301.1,287.3 301,287.7 301,288.2 
		301,288.6 300.8,288.9 300.2,289.3 300,289.5 298,290.3 297.1,290.8 296.1,291.7 295.6,292.3 295.4,292.9 295.4,293.5 295.9,294.5 
		296,295 295.8,295.5 295.3,295.6 294.7,295.6 294.3,295.7 294,296.1 293.8,297.1 293.6,297.6 293.1,298.2 292.4,298.7 292,298.3 
		291.8,298.1 291.6,298 291.3,298 291,298.1 290.7,298.1 290.4,298 289.6,297.8 289.2,297.7 288.7,297.7 287.7,297.7 287.2,297.6 
		286.9,297.2 286.6,296.8 286.4,296.4 286.2,296.2 285.7,296.1 285.5,295.9 285.4,295.7 285.3,295.3 285.2,295.1 284.8,294.8 
		284.3,294.6 284,294.3 283.8,293.8 283.7,293.4 283.9,293.3 284.9,292.3 285.6,291.1 285.9,290.8 286.6,289.9 286.7,289.6 
		286.8,289.3 286.8,289 286.8,288.7 286.7,288.4 286.9,287.8 287.2,287.5 287.3,287.3 287.4,287.1 287.6,287 287.8,286.9 288,287 
		288.3,287.1 288.5,287.1 288.7,287.2 289,287.4 289.1,287.5 289.3,287.5 289.5,287.4 289.6,287.2 289.7,287.1 289.9,287 290.1,287 
		290.3,286.9 290.4,286.8 290.6,286.5 290.9,286 291.2,285.8 291.3,285.6 291.3,285.4 291.5,284.7 291.5,284.3 291.5,283.7 
		291.5,283.5 291.6,282.2 291.6,281.7 291.6,281.4 291.6,281 291.6,280.8 291.5,280.7 291.3,280.4 291.2,280.3 291.1,280.2 
		291,280.1 290.8,280 290.7,279.9 290.6,279.9 290.6,279.8 290.5,279.7 290.4,279.5 290.5,279.2 290.5,278.7 290.8,277.5 
		290.9,277.2 290.7,276.5 290.7,276 290.8,275.3 290.9,274.8 291.1,274.4 291.2,274.1 291.2,273.9 291.2,273.6 291.1,273.3 
		290.8,272.9 290.4,272.4 290.2,272.1 289.9,271.3 289.7,271 289.6,270.8 289.6,270.6 289.6,270.4 289.7,270.3 289.8,270.3 
		289.9,270.2 290,270.3 290.3,270.2 290.4,270.2 290.5,270.1 290.6,270 290.6,269.8 290.6,269.5 290.7,269.4 291,269.1 291.2,269 
		291.6,268.5 292,268.4 292.1,268.4 292.3,268.3 292.4,268.1 292.5,267.9 292.7,266.6 292.6,265.9 292.6,265.6 292.7,265.4 
		292.8,264.9 292.8,264.8 292.7,264.6 292.6,264.5 292.5,264.2 292.5,264 292.5,263.8 292.6,263.6 292.8,263.3 293.1,263 
		293.5,262.7 294.7,262 295.2,261.6 297,262.9 297.1,263.1 297.2,263.2 297.2,263.4 297.1,263.5 297,263.6 296.8,263.8 296.7,264 
		296.6,264.1 296.6,264.2 296.6,264.4 296.7,264.7 296.7,265.1 296.8,265.3 296.8,265.4 296.9,265.6 297,265.7 297.2,265.9 
		297.3,266 297.3,266.1 297.4,266.3 297.5,266.4 297.7,266.5 298.3,266.6 299.2,266.9 300,267 300.2,267 300.6,267.2 	"/>
	<polygon id="Tungurahua" class="st23" points="308.3,214.3 309.1,213.8 309.4,213.7 309.7,213.7 310.1,213.8 310.3,213.9 
		310.7,213.8 310.9,213.7 311,213.8 311.1,213.9 311.1,214.1 311.2,214.2 311.5,214.1 311.6,214.2 311.7,214.3 311.9,214.7 
		312.2,214.8 313,214.9 313.1,215.1 313.2,215.2 313.2,215.8 313.2,218.2 313.2,218.5 313.1,218.8 312.5,220 312,220.5 311.5,220.9 
		311.3,221.1 311,221.2 310.6,221.3 310.1,221.3 309.3,221.2 309,221.3 308.6,221.5 308.4,221.7 308,222.2 307.8,222 307.8,221.6 
		307.7,221.5 307.5,221.4 307.2,221.3 307,221.1 306.7,221 306.3,220.9 306,220.8 305.5,220.5 305.2,220.3 305,220.4 304.8,220.6 
		304.7,220.9 304.5,221.2 304.2,221.3 303.8,221.2 303.5,221.1 303.1,221.2 302.7,221.3 302.2,221.4 301.6,221.4 300.4,221.1 
		299.9,220.9 299.5,220.7 298.8,220.2 298.5,220.1 298.2,220 297.9,220 297.6,220.1 296.9,220.6 296.4,220.7 296.3,220.4 296,220.1 
		295.5,219.4 295.4,219.1 295.7,218 295.8,217.6 296.1,216.9 296.2,216.6 296.2,215.7 296.3,215.4 296.8,214.6 297.4,214.3 
		298,213.8 298.5,213.6 298.9,213.6 299.3,213.5 300.4,213.8 300.9,213.8 301.3,213.7 301.6,213.5 302.1,213.1 302.4,213 302.9,213 
		303.1,212.9 303.3,212.8 303.4,212.6 303.4,212.3 303.4,212.2 303.6,212 303.8,211.9 304.1,212 304.2,212 304.4,212.1 304.5,212.2 
		304.7,212.4 305,212.5 305.5,212.4 305.8,212.3 306,212.1 306.2,211.6 306.2,211.2 306.2,211 306.3,210.8 306.5,210.6 306.5,210.4 
		307.2,209.9 307.6,210.6 308.2,211.3 308.4,211.7 308.5,212 308.5,213 308.4,213.3 308.4,213.5 308.2,213.9 308.1,214.2 
		308.2,214.3 	"/>
	<polygon id="Sucumbíos" class="st23" points="333.1,181.4 333.6,181.4 334.7,181 335.1,180.9 335.4,181 335.9,181.1 336.7,182 
		337.3,182.3 338.2,182.3 338.5,182.3 338.9,182.5 339.1,182.6 339.6,183.1 339.9,183.4 340.2,183.5 340.6,183.5 342.1,183.3 
		342.4,183.3 343.2,183.6 343.5,183.6 343.4,182.8 343.7,182.7 344.5,182.9 345.5,183 345.8,183.1 346.2,183.3 346.8,183.9 
		347.2,184 347.5,184 348.1,183.7 350.3,183.4 350.6,183.2 350.4,181.7 350.5,180.1 350.5,179.9 350.7,180 351.1,179.9 351.4,179.9 
		351.6,179.8 352.1,179.2 352.2,179.1 352.4,179 352.8,178.7 353,178.6 353.2,178.7 353.8,179.4 354.2,179.6 354.7,179.8 
		355.2,179.9 355.7,180 356.2,180 356.4,180 356.6,180.1 356.7,180.3 356.9,180.9 357,181 357.4,181 357.9,180.8 358.4,180.8 
		358.6,181.1 358.7,181.4 360.2,183.2 360.3,183.5 360.4,183.9 360.6,184.3 361.2,184.8 362.5,185.6 362.7,185.9 363.6,186.6 
		364.2,186.9 364.6,187 365,187.1 365.5,187.2 366,187.1 366.9,186.9 367.3,186.9 367.8,187 368.1,187.3 368.4,187.6 368.6,187.8 
		369,187.9 370,188.8 371.3,189.6 371.8,189.8 372.3,190.1 373.5,190.3 374.9,190.9 375.3,191.1 375,191.4 374.5,191.8 374.3,191.9 
		374,192 373.6,192 372.9,191.9 372.7,191.9 372.1,192.3 371.5,192.3 370,191.4 369.7,191.4 369.4,191.4 369,191.4 368.6,191.3 
		368.2,191.2 367.8,191.1 367.5,191.2 367.4,191.6 367.5,192.1 367.7,192.5 367.9,192.7 368.1,192.8 368.6,192.7 368.8,192.7 
		369.1,192.9 369.5,193.3 369.8,193.5 370.3,193.6 370.6,193.9 370.9,194.2 371.6,196.7 372,197.6 372.6,198.4 373,198.8 373.3,199 
		373.5,199 373.8,199 373.9,199.1 374,199.2 374.8,199.9 374.9,200 375,200.2 375.1,200.3 375.2,200.3 375.4,200.2 375.5,200.3 
		375.8,200.7 375.9,201.1 375.8,201.9 375.8,202.1 375.9,202.3 375.9,202.4 375.9,202.6 375.7,202.8 375.6,202.8 375.3,202.9 
		375.3,202.8 375.2,202.7 375.3,202.4 375.2,202.4 375.2,202.3 375,202.4 374.9,202.4 374.6,202.4 373.8,202.2 373.5,202 373.3,202 
		373.1,201.9 373,201.8 372.9,201.6 372.9,201.4 372.8,201.2 372.7,201.1 372.3,201.1 372.1,201.1 371.9,200.9 371.6,200.8 
		370.7,200.8 370.5,200.8 370.3,200.8 369.6,200.6 369.4,200.4 369.2,200.3 369.1,200.1 369.1,200 369,199.8 369,199.7 368.9,199.6 
		368.7,199.7 368.6,199.7 368.5,199.6 368.5,199.4 368.4,199.3 368.1,199.2 367.6,199 367.4,198.8 367.2,198.7 366.9,198.7 
		366.7,198.8 366.4,198.9 366.2,198.9 365.9,198.8 365.8,198.6 365.6,198.3 365.5,198.2 365.3,198 365.1,198 364.9,198.1 
		364.7,198.1 364.4,198.2 363.9,198.2 363.7,198.2 363.5,198.3 363.3,198.3 363,198.3 362.8,198.1 362.5,197.9 362.1,197.8 
		361.4,197.8 361,197.9 360.7,198 360.7,198.2 360.7,198.6 360.9,200.4 361,200.7 361.1,200.8 361.1,200.9 361.1,201 361,201.1 
		360.7,201 360.2,201 359.7,200.9 359.2,200.6 358.3,199.9 357.9,199.7 357.8,199.6 357.7,199.1 357.6,198.8 357.4,198.5 
		357.3,198.4 355.3,198.3 353.6,198.5 353.4,198.5 352.9,198.7 352.2,199 352,199 351.1,199.7 350.6,199.9 350.4,199.7 350.2,199.4 
		349.9,199.3 349,199.3 348.6,199.1 347.4,198.3 347,197.6 346.4,197.8 346,198.1 345.7,197.7 345.6,197.6 345.4,197.3 344.2,196.5 
		343.9,196.2 343.8,196.1 343.7,196 343.5,195.6 343.3,195.4 342.9,194.8 342.9,194.7 342.9,194.5 342.8,194.4 342.8,194.3 
		342.1,193.7 339.8,191 339.6,190.7 339.5,190.5 339.2,190.3 338.9,190.2 338.3,190.3 337.9,190.4 337.6,190.6 337.4,190.7 
		337.1,190.9 336.6,191 336.1,191 334.8,190.6 334.4,190.6 334.1,190.6 333.9,190.7 333.6,190.8 333.3,190.7 332.7,190.3 332.1,190 
		331.7,189.9 331.4,189.8 331.1,190 330.5,190.7 330.4,191 330.1,191.4 330,191.6 329.9,191.8 329.7,191.8 329.5,191.8 329.1,191.8 
		328.1,191.6 327.9,191.5 327.8,191.4 327.8,191.2 327.9,191.1 327.9,190.9 327.9,190.8 327.9,190.7 327.8,190.5 327.8,190.4 
		327.8,190.3 327.9,190.2 327.9,190.1 327.9,190 327.9,189.9 327.8,189.7 327.7,189.5 327.6,189.3 327.5,189.3 327.2,189.4 
		326.9,189.6 326.8,189.6 326.7,189.7 326.7,189.8 326.6,189.9 326.4,190 326.2,190 325.9,190.1 325.6,190.3 325.1,190.7 
		324.9,190.9 324.8,190.9 324.5,190.8 324.2,190.7 323.6,190.5 321.4,190.5 321,190.4 320.7,190.2 320.6,189.8 320.5,189 
		320.5,188.8 320.5,188.7 320.5,188.7 320.5,188.7 320.6,188.6 320.6,188.6 320.6,188.5 320.6,188.5 320.6,188.4 320.6,188.4 
		320.4,188.3 319.4,188 319.1,188 319,187.9 319,187.8 319,187.8 319,187.5 318.9,187.3 318.8,187.2 318.7,187.1 318.4,186.9 
		318.3,186.9 318.2,186.9 318.1,186.9 317.8,186.7 317.2,186.4 317.2,186.4 317.1,186.5 317.1,186.5 317,186.5 316.8,186.4 
		316.5,186.3 316.4,186.3 316.4,186.2 316.4,186.2 316.4,186.2 316.4,186.1 316.9,185.2 317.7,184.4 318,184.2 318.1,184.2 
		318.2,184.1 318.3,184.1 318.4,184 318.5,183.9 318.9,183.3 319.2,183 319.3,182.9 319.4,182.8 319.4,182.8 319.3,182.7 
		319.3,182.6 319.2,182.6 319.2,182.6 319.1,182.6 319.1,182.6 319,182.6 319,182.5 319,182.5 319,182.3 319.1,182.1 319.8,181.2 
		320.3,180.6 320.4,180.3 320.3,180.1 320.3,179.9 320.4,179.5 320.5,179.2 320.7,178.9 322.2,177 322.4,176.8 323.2,176.2 
		323.3,176.1 323.4,175.9 323.4,175.8 323.4,175.7 323.3,175.6 323.2,175.5 323,175.3 322.9,175.2 322.9,175.1 322.9,174.9 
		323,174.7 323.1,174.7 323.2,174.7 323.3,174.7 323.5,174.7 323.8,174.8 324,174.9 324.6,174.9 324.7,174.9 325.2,175.1 325.5,175 
		326.3,174.4 326.4,174.3 326.5,174.3 327.4,174.5 327.7,175.5 327.8,177.8 328,178.6 328.1,179.2 328.4,179.8 329,180.3 
		329.7,180.5 332.1,181 332.5,181.2 332.8,181.3 	"/>
	<polygon id="Santa_Elena" class="st23" points="260.6,229.1 260.8,230.1 261.4,231.1 262.6,231.8 264.3,232.2 265.6,233 
		266.4,233.7 267.2,235 267.2,236.9 266.8,239.2 265.9,240.7 264.8,241.3 262.9,241.7 261.6,242.7 260,244.2 259.3,243.4 
		257.5,241.7 256.8,241.5 256.2,241.2 255.5,241.2 254.3,240.8 253.9,240.6 253,239.8 252.5,239.6 252.2,239.6 251.9,239.6 
		251.7,239.4 251.6,238.6 251.4,238.3 251.1,237.8 250.8,237.5 250,236.8 249.9,236.7 249.8,236.5 249.7,236.2 249.8,236.2 
		250,236.2 250.1,236.3 250.1,236.4 250.2,236.5 250.7,236.6 251,236.6 251.1,236.7 251.2,237 251.5,237.4 252.1,237.3 252.8,237 
		254,236.1 254.8,235.7 255.6,234.8 255.8,233.5 255.4,232.9 255.3,232.2 255.2,232 255.3,231.8 255.5,231.7 255.8,231.6 255.9,231 
		255.9,230.5 255.2,228.1 254.9,227.2 254.8,226.8 254.6,226.5 254.4,226.2 254.1,225.8 254,225.5 254,225.5 254.6,225.4 255,225.4 
		255.2,225.4 255.5,225.3 257,225.4 257.5,225.3 258.2,225 258.6,225 259.3,225.1 259.6,225.3 259.7,225.5 259.7,225.7 259.6,225.8 
		259.7,226 260,226.2 260.1,226.4 260.1,226.6 260,227.3 260,227.4 259.7,227.8 259.6,228 259.6,228.2 259.6,228.4 259.6,228.6 
		259.8,228.8 260.1,229 	"/>
	<polygon id="Santo_Domingo_de_los_Tsáchilas" class="st23" points="291.6,190.5 295.5,190.4 296.2,191.1 298.3,192.2 299.4,193.5 
		299,195 296.2,195.3 295.6,196.3 295.4,196.4 295.4,196.4 295.3,196.5 295.2,196.6 295,196.6 294.9,196.7 294.8,196.8 294.7,196.9 
		294.6,197.1 294.6,197.3 294.5,197.4 294.4,197.5 294.3,197.6 294,197.8 293.9,197.8 293.8,197.9 293.7,198 293.4,198.7 
		293.2,199.1 293.1,199.2 293.1,199.3 293.2,199.4 293.3,199.5 293.6,199.6 293.8,199.8 293.9,199.9 294,200.1 294,200.3 294,200.4 
		294,200.5 293.8,200.5 293.6,200.6 293.4,200.7 293.3,200.8 293.2,201.1 293.1,201.3 293,201.5 292.8,201.6 292.6,201.6 
		292.5,201.5 292.3,201.4 292.3,201.4 291.9,200.8 291.5,200.7 291.3,200.7 291,200.9 289.3,202.5 289.1,202.7 288.5,203 
		288.2,203.2 287.9,203.5 287.7,203.8 287.5,203.9 287.2,204 286.9,204 286.6,204 286.4,203.8 286.1,203.7 286,203.5 286,203.3 
		285.9,203.1 286,202.9 286.1,202.6 286.2,202.4 286.2,202.1 286.1,201.7 286,201.4 286.1,201.2 286.2,201 286.3,200.9 286.1,200.8 
		285.6,200.7 284.4,200.8 284,200.7 283.3,200.7 283.7,200.2 283.9,199.6 284,199.4 284,198.9 284.7,197.8 284.8,197.5 284.9,197.1 
		284.8,193.2 284.8,192.9 284.7,192.7 284.5,192.6 284.4,192.6 284,192.6 283.9,192.6 283.1,192.4 282.9,192.3 282.4,191.8 
		281.8,191.1 281.7,190.9 281.4,190.7 281.2,190.6 281.1,190.5 280.9,190.5 280.7,190.3 280.6,190.1 280.5,189.6 280.6,189.4 
		280.6,189.2 280.8,189 281.2,189 281.7,189.1 283,189.3 283.7,189.5 283.9,189.6 284.1,189.7 284.3,189.8 284.3,189.8 284.4,189.8 
		284.5,189.7 284.6,189.6 284.6,189.5 284.6,189.4 284.5,189.4 284.4,189.4 284.3,189.4 284.3,189.4 284.2,189.3 284,189 
		283.9,188.9 284,188.8 284.4,188.6 284.6,188.5 285.2,188.4 285.4,188.3 285.7,188 285.9,187.7 287.1,188.6 291.5,188.7 	"/>
	<polygon id="Pichincha" class="st23" points="290.1,181.8 290.7,181.8 293,182.3 293.1,182.4 293.2,182.5 293.6,182.9 294,183.7 
		294.2,183.9 294.5,184 294.9,184.1 295.2,184.1 295.5,184 295.9,184 296.8,183.7 298.7,183.5 299.2,183.6 301.5,184 301.9,184 
		302.2,184 302.4,183.9 303.6,183.8 304.1,183.6 304.4,183.7 305.5,183.4 306.7,183.4 307.3,183.4 307.6,183.6 307.8,183.8 
		307.8,184 307.9,184.2 307.9,184.4 307.7,184.8 307.7,185 307.7,185.1 307.9,185.1 308.3,184.7 308.5,184.6 308.7,184.6 309,184.8 
		309.4,185.2 309.8,185.4 310.2,185.6 310.8,185.8 311.3,185.8 311.9,185.7 312.9,185.2 313.3,185 313.8,184.6 314,184.4 
		314.4,184.4 316.9,185.2 316.4,186.1 316.4,186.2 316.4,186.2 316.4,186.2 316.4,186.3 316.5,186.3 316.8,186.4 317,186.5 
		317.1,186.5 317.1,186.5 317.2,186.4 317.2,186.4 317.8,186.7 318.1,186.9 318.2,186.9 318.3,186.9 318.4,186.9 318.7,187.1 
		318.8,187.2 318.9,187.3 319,187.5 319,187.8 319,187.8 319,187.9 319.1,188 319.4,188 319.1,188.5 318.9,188.7 317.3,189.5 
		316.5,189.8 316.4,189.9 316.3,190.1 316.2,190.7 316.2,190.9 316.1,191.1 315.9,191.1 315.8,191.2 315.6,191.6 315.5,191.7 
		315.3,191.7 314.8,191.6 314.6,191.6 314.5,191.7 314.4,191.8 314.4,192 314.1,192.5 313.9,192.7 313.7,192.8 313.5,192.8 
		313.4,192.7 313.1,192.5 313,192.5 312.8,192.5 312.3,192.6 312.1,192.6 311.9,192.7 311.7,192.9 311.7,193 311.7,193.3 
		311.6,195.2 311.5,195.8 311.2,196.3 310.6,197.1 310.4,197.5 310.3,197.8 310.6,198.4 310.5,198.7 310.4,199 310.2,199.4 
		310.1,199.6 310,199.9 310,200.1 310,200.4 309.8,200.8 309.5,201.2 309.1,201.6 308.9,201.9 308.8,202.2 308.7,202.7 308.6,203.1 
		308.5,203.2 308.3,203.3 307.8,203.4 307.5,203.5 307.1,203.7 305.6,202.2 305,202 304.7,202 304.2,201.9 303.9,201.9 303.6,202 
		303.1,202.3 302.8,202.4 302.7,202.3 302.6,202.2 302.4,202 302.2,202 301.9,202.2 301.7,202.4 301.6,202.4 301.4,202.5 
		301.2,202.6 301,202.7 300.5,203.1 300.2,203.1 300.1,203 300,202.9 299.9,202.6 299.8,202.3 299.6,201.8 299.3,201.3 297.9,200.3 
		297.6,200 297.5,199.8 297.3,199.3 297.3,199.1 297,198.7 296.7,198.1 295.9,197 295.8,196.9 295.8,196.6 295.7,196.5 295.6,196.3 
		296.2,195.3 299,195 299.4,193.5 298.3,192.2 296.2,191.1 295.5,190.4 291.6,190.5 291.5,188.7 287.1,188.6 285.9,187.7 
		286.3,186.6 286.6,186.1 286.8,185.5 287.1,185.1 287.2,184.9 287.2,184.8 287.1,184.7 287,184.5 286.8,184.3 286.2,183.9 
		286.1,183.8 286.1,183.7 286.2,183.5 286.4,183.4 286.9,183.2 287.2,183 287.6,182.6 287.8,182.5 288.1,182.4 288.3,182.2 
		289,181.8 289.2,181.8 289.6,181.8 	"/>
	<polygon id="Pastaza" class="st23" points="340.6,214.1 341,214.1 341.1,213.9 341.2,213.7 341.2,213.4 341.3,213.2 341.4,213 
		341.8,212.6 341.9,212.6 342.2,212.6 342.4,212.8 342.7,212.8 342.9,212.8 343.2,212.6 343.4,212.6 343.9,212.6 344.4,212.5 
		344.8,212.4 345,212.4 345.2,212.3 345.3,212.2 345.5,212 345.6,211.9 346,211.8 346.6,211.7 346.9,211.6 347.3,211.7 347.6,211.8 
		347.9,211.9 348.2,212.2 348.3,212.5 348.3,212.8 348.2,213.1 348.2,214 348.3,214.5 348.4,214.8 348.6,215 348.7,215.2 
		348.8,215.3 349,215.5 349.1,215.6 349.1,215.7 349.1,215.8 349.2,215.9 349.3,216.1 349.4,216.2 349.6,216.1 349.7,216.1 
		349.8,216.1 349.8,216.1 349.7,216.2 349.8,216.3 349.8,216.4 350.1,216.3 350.3,216.4 350.5,216.3 350.7,216.2 350.8,216.2 
		351,216.2 351.1,216.3 351.2,216.4 351.4,216.4 351.5,216.4 351.6,216.4 351.7,216.5 351.8,216.6 351.8,216.7 351.8,216.8 
		351.7,216.9 351.8,216.9 352.2,217 352.7,217.1 353,217.2 353.2,217.2 353.3,217.3 353.3,217.5 353.4,217.5 353.4,217.4 
		353.5,217.3 353.6,217.3 353.7,217.2 353.8,217.1 353.8,217.1 353.9,217.1 354,217.1 354.1,217 354.1,216.9 354.2,216.8 
		354.3,216.9 354.3,216.9 354.4,217 354.5,217.1 354.6,217 354.7,216.9 354.8,216.9 354.9,216.9 355.1,217 355.5,216.9 355.6,216.9 
		355.7,217 355.8,217.1 355.9,217.1 356,217.1 356.2,217.1 356.2,217.1 356.3,217 356.4,216.9 356.6,216.7 356.7,216.7 356.7,216.6 
		356.8,216.7 356.8,216.7 356.9,216.8 356.9,216.7 356.9,216.7 357,216.7 357.3,216.6 357.7,216.8 357.9,216.9 358,216.8 
		358.1,216.7 358.1,216.7 358.2,216.7 358.3,216.8 358.3,217 358.3,217.1 358.3,217.2 358.3,217.3 358.4,217.2 358.5,217.2 
		358.6,217.2 358.7,217.2 359,217.3 359.2,217.4 359.5,217.5 359.6,217.6 359.7,217.8 359.9,217.9 360.1,217.8 360.2,217.9 
		360.4,218.1 360.7,218.2 361,218.3 361.4,218.3 361.6,218.3 361.8,218.3 361.9,218.2 361.9,218.1 361.9,218 361.9,217.9 
		361.9,217.9 362.1,217.9 362.2,217.8 362.2,217.9 362.2,218 362.2,218.1 362.2,218.2 362.3,218.3 362.8,218.4 363,218.5 
		363.2,218.8 363.2,219 363.2,219 363.2,219.1 363.4,219 363.5,219 363.7,219.1 363.8,219.1 363.9,219.2 364,219.3 364.1,219.4 
		364.4,219.4 364.7,219.5 365,219.5 365.1,219.5 365.2,219.7 365.2,219.8 365.4,220.1 365.6,220.4 365.7,220.6 365.8,220.7 
		365.9,220.6 366,220.5 366.1,220.4 366.1,220.5 366.2,220.6 366.2,220.7 366.3,220.7 366.5,220.8 367.2,221 367.3,221.2 
		367.5,221.2 367.6,221.2 367.7,221.4 368,221.4 368.1,221.5 368.3,221.5 368.4,221.7 368.5,222.2 368.8,222.6 368.8,222.6 
		368.4,223.1 367.2,224.2 366.3,225.2 365.2,226.5 364.2,227.8 363.1,229 362,230.3 360.9,231.6 359.8,232.9 358.7,234.1 
		357.6,235.4 356.3,236.4 355,237.4 353.7,238.4 352.4,239.4 351,240.4 349.7,241.4 348.4,242.4 347.1,243.4 345.9,244.4 344.9,245 
		344.9,245 344.6,244.9 344.1,245.1 343.7,245.2 342.8,244.8 342,244.6 341.7,244.5 341.4,244.2 341.1,244.2 340.4,244.4 
		339.5,244.4 338.6,244.2 337.8,243.7 337.3,243.1 337,242.3 337,242.2 336.9,242 336.8,241.9 336.6,241.8 336.4,241.4 335.6,240.5 
		335.2,239.8 335,239.5 334.7,239.3 334.3,239.2 329.2,236 323.2,233.4 322.5,233.2 322.1,233.1 321.8,232.8 321.7,232.5 
		321.6,232.1 321.4,231.8 321.2,231.5 320.8,231.4 319.9,231.1 319.5,230.9 319.3,230.7 319.2,230.4 319.2,229.7 319,229.4 
		318.7,228.9 318.7,228.6 318.6,228.1 318.6,227.9 318.2,227.2 317.9,225.8 317.6,225.3 317.3,225.1 316.9,225 315.9,225.2 
		315.6,225.3 315.3,225 315.1,224.5 314.9,223.8 314.2,222.1 314,221.8 313.8,221.4 313.4,221.1 312.9,220.7 312,220.5 312.5,220 
		313.1,218.8 313.2,218.5 313.2,218.2 313.2,215.8 314.3,215.9 314.9,215.8 316.5,215.6 317,215.6 317.4,215.6 317.6,215.7 
		317.8,215.8 318,215.9 318.1,215.7 318.3,215.4 318.3,215.4 318.5,215.3 318.7,215.4 318.9,215.5 319.1,215.6 319.5,215.5 
		320,215.3 320.8,214.7 321.1,214.6 321.5,214.4 321.8,214.3 322.2,214.1 322.4,214 322.7,214 323,213.9 323.3,213.8 323.6,213.9 
		323.8,213.9 324.1,213.9 324.3,213.8 324.6,213.7 325.7,213.6 327.6,212.7 327.9,212.6 328.1,212.5 328.9,212.5 329.5,212.4 
		331.6,211.8 332.1,211.5 332.3,211.3 332.5,211.2 332.9,211.1 336.5,210.9 336.1,211.4 336,211.5 336.1,211.7 336.1,211.9 
		336.3,212.5 336.4,212.7 336.7,212.8 338.4,213.2 	"/>
	<polygon id="Orellana" class="st23" points="333.6,190.8 333.9,190.7 334.1,190.6 334.4,190.6 334.8,190.6 336.1,191 336.6,191 
		337.1,190.9 337.4,190.7 337.6,190.6 337.9,190.4 338.3,190.3 338.9,190.2 339.2,190.3 339.5,190.5 339.6,190.7 339.8,191 
		342.1,193.7 342.8,194.3 342.8,194.4 342.9,194.5 342.9,194.7 342.9,194.8 343.3,195.4 343.5,195.6 343.7,196 343.8,196.1 
		343.9,196.2 344.2,196.5 345.4,197.3 345.6,197.6 345.7,197.7 346,198.1 346.4,197.8 347,197.6 347.4,198.3 348.6,199.1 349,199.3 
		349.9,199.3 350.2,199.4 350.4,199.7 350.6,199.9 351.1,199.7 352,199 352.2,199 352.9,198.7 353.4,198.5 353.6,198.5 355.3,198.3 
		357.3,198.4 357.4,198.5 357.6,198.8 357.7,199.1 357.8,199.6 357.9,199.7 358.3,199.9 359.2,200.6 359.7,200.9 360.2,201 
		360.7,201 361,201.1 361.1,201 361.1,200.9 361.1,200.8 361,200.7 360.9,200.4 360.7,198.6 360.7,198.2 360.7,198 361,197.9 
		361.4,197.8 362.1,197.8 362.5,197.9 362.8,198.1 363,198.3 363.3,198.3 363.5,198.3 363.7,198.2 363.9,198.2 364.4,198.2 
		364.7,198.1 364.9,198.1 365.1,198 365.3,198 365.5,198.2 365.6,198.3 365.8,198.6 365.9,198.8 366.2,198.9 366.4,198.9 
		366.7,198.8 366.9,198.7 367.2,198.7 367.4,198.8 367.6,199 368.1,199.2 368.4,199.3 368.5,199.4 368.5,199.6 368.6,199.7 
		368.7,199.7 368.9,199.6 369,199.7 369,199.8 369.1,200 369.1,200.1 369.2,200.3 369.4,200.4 369.6,200.6 370.3,200.8 370.5,200.8 
		370.7,200.8 371.6,200.8 371.9,200.9 372.1,201.1 372.3,201.1 372.7,201.1 372.8,201.2 372.9,201.4 372.9,201.6 373,201.8 
		373.1,201.9 373.3,202 373.5,202 373.8,202.2 374.6,202.4 374.9,202.4 375,202.4 375.2,202.3 375.2,202.4 375.3,202.4 375.2,202.7 
		375.3,202.8 375.3,202.9 375.6,202.8 375.7,202.8 375.7,202.8 375.4,203 375.2,203.1 375.1,203.4 375.1,203.6 375.2,204 
		375.2,204.2 375.1,204.4 375,204.8 375,205.1 376,208.4 376,208.6 375.9,209 376,209.2 376.1,209.5 376.4,209.6 376.5,209.9 
		376.5,210 376.3,210 375.3,210 374.4,210.1 373.9,210.1 373.6,209.9 373.5,209.7 373.2,209.4 372.6,208.8 372.5,209 372.2,210.1 
		371.5,212.7 370.9,215.2 370.2,217.8 369.5,220.4 369.2,221.7 368.9,222.4 368.8,222.6 368.8,222.6 368.5,222.2 368.4,221.7 
		368.3,221.5 368.1,221.5 368,221.4 367.7,221.4 367.6,221.2 367.5,221.2 367.3,221.2 367.2,221 366.5,220.8 366.3,220.7 
		366.2,220.7 366.2,220.6 366.1,220.5 366.1,220.4 366,220.5 365.9,220.6 365.8,220.7 365.7,220.6 365.6,220.4 365.4,220.1 
		365.2,219.8 365.2,219.7 365.1,219.5 365,219.5 364.7,219.5 364.4,219.4 364.1,219.4 364,219.3 363.9,219.2 363.8,219.1 
		363.7,219.1 363.5,219 363.4,219 363.2,219.1 363.2,219 363.2,219 363.2,218.8 363,218.5 362.8,218.4 362.3,218.3 362.2,218.2 
		362.2,218.1 362.2,218 362.2,217.9 362.2,217.8 362.1,217.9 361.9,217.9 361.9,217.9 361.9,218 361.9,218.1 361.9,218.2 
		361.8,218.3 361.6,218.3 361.4,218.3 361,218.3 360.7,218.2 360.4,218.1 360.2,217.9 360.1,217.8 359.9,217.9 359.7,217.8 
		359.6,217.6 359.5,217.5 359.2,217.4 359,217.3 358.7,217.2 358.6,217.2 358.5,217.2 358.4,217.2 358.3,217.3 358.3,217.2 
		358.3,217.1 358.3,217 358.3,216.8 358.2,216.7 358.1,216.7 358.1,216.7 358,216.8 357.9,216.9 357.7,216.8 357.3,216.6 357,216.7 
		356.9,216.7 356.9,216.7 356.9,216.8 356.8,216.7 356.8,216.7 356.7,216.6 356.7,216.7 356.6,216.7 356.4,216.9 356.3,217 
		356.2,217.1 356.2,217.1 356,217.1 355.9,217.1 355.8,217.1 355.7,217 355.6,216.9 355.5,216.9 355.1,217 354.9,216.9 354.8,216.9 
		354.7,216.9 354.6,217 354.5,217.1 354.4,217 354.3,216.9 354.3,216.9 354.2,216.8 354.1,216.9 354.1,217 354,217.1 353.9,217.1 
		353.8,217.1 353.8,217.1 353.7,217.2 353.6,217.3 353.5,217.3 353.4,217.4 353.4,217.5 353.3,217.5 353.3,217.3 353.2,217.2 
		353,217.2 352.7,217.1 352.2,217 351.8,216.9 351.7,216.9 351.8,216.8 351.8,216.7 351.8,216.6 351.7,216.5 351.6,216.4 
		351.5,216.4 351.4,216.4 351.2,216.4 351.1,216.3 351,216.2 350.8,216.2 350.7,216.2 350.5,216.3 350.3,216.4 350.1,216.3 
		349.8,216.4 349.8,216.3 349.7,216.2 349.8,216.1 349.8,216.1 349.7,216.1 349.6,216.1 349.4,216.2 349.3,216.1 349.2,215.9 
		349.1,215.8 349.1,215.7 349.1,215.6 349,215.5 348.8,215.3 348.7,215.2 348.6,215 348.4,214.8 348.3,214.5 348.2,214 348.2,213.1 
		348.3,212.8 348.3,212.5 348.2,212.2 347.9,211.9 347.6,211.8 347.3,211.7 346.9,211.6 346.6,211.7 346,211.8 345.6,211.9 
		345.5,212 345.3,212.2 345.2,212.3 345,212.4 344.8,212.4 344.4,212.5 343.9,212.6 343.4,212.6 343.2,212.6 342.9,212.8 
		342.7,212.8 342.4,212.8 342.2,212.6 341.9,212.6 341.8,212.6 341.4,213 341.3,213.2 341.2,213.4 341.2,213.7 341.1,213.9 
		341,214.1 340.6,214.1 338.4,213.2 336.7,212.8 336.4,212.7 336.3,212.5 336.1,211.9 336.1,211.7 336,211.5 336.1,211.4 
		336.5,210.9 336.7,210.4 336.5,210.2 336.4,210 336.3,209.9 336.4,209.7 336.7,209.4 336.9,209.2 336.9,209 336.8,208.9 
		336.5,208.8 335.5,208.7 335.2,208.6 334.2,207.9 334,207.8 333.8,207.7 333.6,207.6 333.4,207.4 333.4,207.1 333.4,206.7 
		333.6,206.4 333.8,206 334.9,205 335.1,204.8 335.2,204.5 335.1,204.4 334.9,204.3 334.6,204.3 334.4,204.4 334.1,204.6 
		333.1,205.5 332.5,206.6 332.3,206.9 332.1,207 331.3,207.3 327.8,209 327.6,209.1 327.2,209.3 327.1,209.3 326.7,209.5 
		326.3,209.6 325.8,209.6 325.3,209.5 325,209.3 325,209.2 325.2,209 325.4,208.7 325.6,208.4 326.1,207.2 326.1,206.9 326,206.2 
		326,205.9 326.1,205.5 326.3,205.1 326.4,204.8 326.7,204.4 326.8,204.2 326.8,203.9 326.6,203.3 326.5,203.1 326.3,203 326,202.8 
		325.9,202.6 325.7,202.2 325.1,201.4 324.8,201.2 324.6,201.1 324.4,201 324.1,200.9 324,200.7 324.1,200.5 324.2,200.3 
		324.4,200.2 325.1,199.8 325.3,199.6 325.3,199.4 325.3,199.2 325.3,199 325.4,198.8 325.6,198.8 325.9,198.9 326.8,199.5 
		327.3,199.7 327.8,199.9 328.3,199.9 328.6,199.9 328.8,199.8 329,199.6 329.5,198.8 329.8,198.2 329.9,198.1 330,198 330.1,198 
		330.4,198.1 330.5,198 330.5,197.9 330.5,197.6 330.5,197.4 330.6,197.2 331.2,196.9 331.5,196.8 331.7,196.6 331.8,196.4 
		331.7,196.1 331.8,196 331.9,195.8 332,195.7 332.1,195.5 332.1,195.2 331.9,194.8 331.9,194.7 332,194.6 332,194.5 332,194.3 
		332,194.1 331.7,193.8 331.4,193.4 331.3,193.2 331.1,192.9 331.1,192.7 331.2,192.4 331.3,191.8 331.3,191.6 331.1,190 
		331.4,189.8 331.7,189.9 332.1,190 332.7,190.3 333.3,190.7 	"/>
	<polygon id="Napo" class="st23" points="324.8,190.9 324.9,190.9 325.1,190.7 325.6,190.3 325.9,190.1 326.2,190 326.4,190 
		326.6,189.9 326.7,189.8 326.7,189.7 326.8,189.6 326.9,189.6 327.2,189.4 327.5,189.3 327.6,189.3 327.7,189.5 327.8,189.7 
		327.9,189.9 327.9,190 327.9,190.1 327.9,190.2 327.8,190.3 327.8,190.4 327.8,190.5 327.9,190.7 327.9,190.8 327.9,190.9 
		327.9,191.1 327.8,191.2 327.8,191.4 327.9,191.5 328.1,191.6 329.1,191.8 329.5,191.8 329.7,191.8 329.9,191.8 330,191.6 
		330.1,191.4 330.4,191 330.5,190.7 331.1,190 331.3,191.6 331.3,191.8 331.2,192.4 331.1,192.7 331.1,192.9 331.3,193.2 
		331.4,193.4 331.7,193.8 332,194.1 332,194.3 332,194.5 332,194.6 331.9,194.7 331.9,194.8 332.1,195.2 332.1,195.5 332,195.7 
		331.9,195.8 331.8,196 331.7,196.1 331.8,196.4 331.7,196.6 331.5,196.8 331.2,196.9 330.6,197.2 330.5,197.4 330.5,197.6 
		330.5,197.9 330.5,198 330.4,198.1 330.1,198 330,198 329.9,198.1 329.8,198.2 329.5,198.8 329,199.6 328.8,199.8 328.6,199.9 
		328.3,199.9 327.8,199.9 327.3,199.7 326.8,199.5 325.9,198.9 325.6,198.8 325.4,198.8 325.3,199 325.3,199.2 325.3,199.4 
		325.3,199.6 325.1,199.8 324.4,200.2 324.2,200.3 324.1,200.5 324,200.7 324.1,200.9 324.4,201 324.6,201.1 324.8,201.2 
		325.1,201.4 325.7,202.2 325.9,202.6 326,202.8 326.3,203 326.5,203.1 326.6,203.3 326.8,203.9 326.8,204.2 326.7,204.4 
		326.4,204.8 326.3,205.1 326.1,205.5 326,205.9 326,206.2 326.1,206.9 326.1,207.2 325.6,208.4 325.4,208.7 325.2,209 325,209.2 
		325,209.3 325.3,209.5 325.8,209.6 326.3,209.6 326.7,209.5 327.1,209.3 327.2,209.3 327.6,209.1 327.8,209 331.3,207.3 332.1,207 
		332.3,206.9 332.5,206.6 333.1,205.5 334.1,204.6 334.4,204.4 334.6,204.3 334.9,204.3 335.1,204.4 335.2,204.5 335.1,204.8 
		334.9,205 333.8,206 333.6,206.4 333.4,206.7 333.4,207.1 333.4,207.4 333.6,207.6 333.8,207.7 334,207.8 334.2,207.9 335.2,208.6 
		335.5,208.7 336.5,208.8 336.8,208.9 336.9,209 336.9,209.2 336.7,209.4 336.4,209.7 336.3,209.9 336.4,210 336.5,210.2 
		336.7,210.4 336.5,210.9 332.9,211.1 332.5,211.2 332.3,211.3 332.1,211.5 331.6,211.8 329.5,212.4 328.9,212.5 328.1,212.5 
		327.9,212.6 327.6,212.7 325.7,213.6 324.6,213.7 324.3,213.8 324.1,213.9 323.8,213.9 323.6,213.9 323.3,213.8 323,213.9 
		322.7,214 322.4,214 322.2,214.1 321.8,214.3 321.5,214.4 321.1,214.6 320.8,214.7 320,215.3 319.5,215.5 319.1,215.6 318.9,215.5 
		318.7,215.4 318.5,215.3 318.3,215.4 318.3,215.4 318.1,215.7 318,215.9 317.8,215.8 317.6,215.7 317.4,215.6 317,215.6 
		316.5,215.6 314.9,215.8 314.3,215.9 313.2,215.8 313.2,215.2 313.1,215.1 313,214.9 312.2,214.8 311.9,214.7 311.7,214.3 
		311.6,214.2 311.5,214.1 311.2,214.2 311.1,214.1 311.1,213.9 311,213.8 310.9,213.7 310.7,213.8 310.3,213.9 310.1,213.8 
		309.7,213.7 309.4,213.7 309.1,213.8 308.3,214.3 308.2,214.3 308.1,214.2 308.2,213.9 308.4,213.5 308.4,213.3 308.5,213 
		308.5,212 308.4,211.7 308.2,211.3 307.6,210.6 307.2,209.9 306.8,209.7 306.3,209.6 306.2,209.5 306.1,209.3 306.1,209.2 
		306.2,209.1 306.4,209 306.5,208.8 306.6,208.6 306.6,208.3 306.6,208.1 306.7,207.8 306.9,207.4 307.2,207 307.3,206.6 
		307.2,206.1 307.1,205.3 306.9,204.5 306.9,204.3 307.1,203.7 307.5,203.5 307.8,203.4 308.3,203.3 308.5,203.2 308.6,203.1 
		308.7,202.7 308.8,202.2 308.9,201.9 309.1,201.6 309.5,201.2 309.8,200.8 310,200.4 310,200.1 310,199.9 310.1,199.6 310.2,199.4 
		310.4,199 310.5,198.7 310.6,198.4 310.3,197.8 310.4,197.5 310.6,197.1 311.2,196.3 311.5,195.8 311.6,195.2 311.7,193.3 
		311.7,193 311.7,192.9 311.9,192.7 312.1,192.6 312.3,192.6 312.8,192.5 313,192.5 313.1,192.5 313.4,192.7 313.5,192.8 
		313.7,192.8 313.9,192.7 314.1,192.5 314.4,192 314.4,191.8 314.5,191.7 314.6,191.6 314.8,191.6 315.3,191.7 315.5,191.7 
		315.6,191.6 315.8,191.2 315.9,191.1 316.1,191.1 316.2,190.9 316.2,190.7 316.3,190.1 316.4,189.9 316.5,189.8 317.3,189.5 
		318.9,188.7 319.1,188.5 319.4,188 320.4,188.3 320.6,188.4 320.6,188.4 320.6,188.5 320.6,188.5 320.6,188.6 320.6,188.6 
		320.5,188.7 320.5,188.7 320.5,188.7 320.5,188.8 320.5,189 320.6,189.8 320.7,190.2 321,190.4 321.4,190.5 323.6,190.5 
		324.2,190.7 324.5,190.8 	"/>
	<polygon id="Morona-Santiago" class="st23" points="315.6,225.3 315.9,225.2 316.9,225 317.3,225.1 317.6,225.3 317.9,225.8 
		318.2,227.2 318.6,227.9 318.6,228.1 318.7,228.6 318.7,228.9 319,229.4 319.2,229.7 319.2,230.4 319.3,230.7 319.5,230.9 
		319.9,231.1 320.8,231.4 321.2,231.5 321.4,231.8 321.6,232.1 321.7,232.5 321.8,232.8 322.1,233.1 322.5,233.2 323.2,233.4 
		329.2,236 334.3,239.2 334.7,239.3 335,239.5 335.2,239.8 335.6,240.5 336.4,241.4 336.6,241.8 336.8,241.9 336.9,242 337,242.2 
		337,242.3 337.3,243.1 337.8,243.7 338.6,244.2 339.5,244.4 340.4,244.4 341.1,244.2 341.4,244.2 341.7,244.5 342,244.6 
		342.8,244.8 343.7,245.2 344.1,245.1 344.6,244.9 344.9,245 344.9,245 344.6,245.2 342.6,245.9 339.8,246.8 337,247.8 334.3,248.8 
		331.5,249.7 328.8,250.7 326,251.7 323.3,252.6 320.5,253.6 319.9,253.8 319.1,254.1 318.6,254.3 317,255.7 314.8,258.7 
		313.8,259.6 313.5,259.9 312.8,261.2 312.5,261.6 311.7,262.2 311.4,262.5 311.4,263 311.7,263.4 312,263.6 312.3,263.9 
		312.4,264.6 312.2,265 311.8,265.1 311.4,265.2 311.1,265.5 310.8,265.7 310.6,265.3 310.3,263.8 310.1,263.5 309.8,263.3 
		308.9,263 308.4,263 308.1,263.1 307.8,263.5 307.8,263.6 308,264.1 308,264.3 307.8,265.3 307.5,266.1 307.5,266.1 304.8,266.1 
		303.2,266.4 302.7,266.4 301.9,266.3 301.6,266.4 301.4,266.4 301.3,266.5 301.2,266.6 301,267 300.9,267.1 300.8,267.2 
		300.6,267.2 300.2,267 300,267 299.2,266.9 298.3,266.6 297.7,266.5 297.5,266.4 297.4,266.3 297.3,266.1 297.3,266 297.2,265.9 
		297,265.7 296.9,265.6 296.8,265.4 296.8,265.3 296.7,265.1 296.7,264.7 296.6,264.4 296.6,264.2 296.6,264.1 296.7,264 
		296.8,263.8 297,263.6 297.1,263.5 297.2,263.4 297.2,263.2 297.1,263.1 297,262.9 295.2,261.6 295.1,261.2 295.1,261.1 
		295.2,260.8 297.9,258.7 298.3,258.3 299.2,258 299.9,257.6 300.5,257.1 301,256.5 301.2,256.1 301.3,255.7 301.3,255.4 
		301.3,255.1 301.4,254.7 301.9,253.6 302,253.4 302.1,253 303.1,251.3 303.3,251 303.3,250.8 303.2,250.6 303,250.4 302.8,250.2 
		302.7,250 302.6,249.8 302.7,249.7 303.3,248.4 303.5,248.2 303.7,248 306.2,246.7 306.4,246.5 306.5,246.3 306.5,246.2 306.5,246 
		306.4,245.8 306.2,245.6 305.5,245.1 305.4,245.1 305.2,245 305,245.1 304.8,245.2 304.6,245.4 304.4,245.7 304.4,245.9 
		304.3,246.1 304.2,246.2 304.1,246.3 303.9,246.2 303.7,246 303.6,245.8 303.6,245.6 303.7,244.9 303.9,245 303.9,245 304,245 
		304.1,245 304.2,244.9 304.4,244.6 304.9,243.8 305,243.7 305,243.5 305,243.2 305.1,243 305.1,242.6 305.1,241.4 305.2,241.1 
		305.2,240.9 305.1,240.7 304.7,240.4 303.4,239.8 303.1,239.7 303,239.4 303.8,238.9 303.9,238.7 304,238.4 304,238.2 304.1,237.9 
		304.3,237.7 304.7,237.4 304.8,237.2 304.8,237.1 304.8,237 304.7,236.8 304.6,236 304.8,235.4 305,235 305.3,234.8 305.6,234.6 
		305.9,234.4 306,234.2 305.8,233.8 305.7,233.5 305.7,233 305.6,232.7 305.4,232.5 305.3,232.4 305.1,232.3 305,232.1 305,231.8 
		305.1,231.6 305.7,230.6 306.6,229.7 306.6,229.4 306.5,228.7 306.4,228.2 306.3,228 306.2,227.9 306.1,227.8 306,227.6 
		305.9,227.2 305.9,226.9 305.9,226.4 305.9,226.1 306,225.9 306.2,225.8 306.3,225.7 306.5,225.5 306.6,225.3 306.8,225.1 
		307,224.9 307.5,224.6 307.7,224.5 307.9,224.3 308,224.1 308,223.9 308,223.6 307.7,223 307.7,222.7 307.8,222.5 308,222.2 
		308.4,221.7 308.6,221.5 309,221.3 309.3,221.2 310.1,221.3 310.6,221.3 311,221.2 311.3,221.1 311.5,220.9 312,220.5 312.9,220.7 
		313.4,221.1 313.8,221.4 314,221.8 314.2,222.1 314.9,223.8 315.1,224.5 315.3,225 	"/>
	<polygon id="Manabí" class="st23" points="279,185 279.1,185 279.1,185 279.2,184.9 279.3,184.9 279.4,184.9 279.4,184.9 
		279.5,185 279.5,185.4 279.6,185.5 279.6,185.6 279.6,185.6 279.7,185.6 279.8,185.5 279.9,185.4 280.1,185.4 280.2,185.4 
		280.3,185.4 280.4,185.6 280.8,186 281,186.1 281.1,186.1 281.3,186.1 281.3,186.2 281.4,186.2 281.4,186.2 281.4,186.3 
		280.8,186.9 280.7,187 280.7,187.1 280.7,187.2 280.7,187.3 280.7,187.4 280.6,187.4 280.6,187.4 280.6,187.5 280.5,187.5 
		280.4,187.5 280.4,187.5 280.4,187.6 280.3,187.7 280.3,187.8 280.3,187.8 280.3,187.9 280.4,188.1 280.4,188.2 280.4,188.4 
		280.4,188.5 280.8,189 280.6,189.2 280.6,189.4 280.5,189.6 280.6,190.1 280.7,190.3 280.9,190.5 281.1,190.5 281.2,190.6 
		281.4,190.7 281.7,190.9 281.8,191.1 282.4,191.8 282.9,192.3 283.1,192.4 283.9,192.6 284,192.6 284.4,192.6 284.5,192.6 
		284.7,192.7 284.8,192.9 284.8,193.2 284.9,197.1 284.8,197.5 284.7,197.8 284,198.9 284,199.4 283.9,199.6 283.7,200.2 
		283.3,200.7 283,201.7 282.8,202.1 282.3,203.1 282.1,203.9 282,204 281.8,204.2 281.6,204.2 281.4,204.3 281.2,204.6 281,205 
		280.7,206.5 280.3,207.4 278.8,207.6 278.5,207.7 278.2,207.9 278,208.1 277.2,209.2 277.1,209.5 277,209.8 276.9,210 276.5,210.2 
		276.4,210.3 276.4,210.5 276.4,210.6 276.4,210.8 276.3,211 276.2,211.2 276,211.4 275.8,211.7 275.4,212.3 275.1,212.6 274,213.5 
		273.7,213.7 273.3,213.8 273.1,213.7 272.9,213.7 272.6,213.7 272.5,213.7 272.4,213.6 272.5,213.4 272.5,213.2 272.4,213.2 
		272.3,213.3 272.1,213.5 271.9,213.8 271.8,214.3 271.6,214.8 271.4,215.4 271,216.6 270.8,216.9 269.9,217.6 269.4,217.8 
		269.2,218 269,218.3 269,218.7 269.1,219.2 269,219.4 268.9,219.5 268.4,219.6 268.1,219.8 267.9,219.9 267.8,219.9 267.7,220.1 
		267.6,220.4 267.5,220.9 267.5,221.2 267.6,221.5 267.6,221.7 267.9,222.1 267.9,222.2 267.8,222.4 267.1,222.9 265.7,223.1 
		265.7,223.3 265.8,223.4 266,223.7 266.3,223.9 266.5,224.1 266.8,224.1 266.9,224.2 267,224.2 266.9,224.3 266.9,224.5 267,224.7 
		267.2,225.4 267.1,225.6 266.8,225.7 265.9,225.6 265.6,225.8 265.5,225.9 265.3,226 265.2,225.9 265,225.7 264.9,225.7 
		264.7,225.7 264.5,225.9 264.3,226.3 264.2,226.4 263.9,226.5 263.7,226.6 263.4,226.8 263.2,227 263.1,227.3 262.9,227.5 
		262.8,227.7 262.6,228 262.5,228.2 262.5,228.4 262.5,228.6 262.5,228.7 262.4,228.9 262.3,229 262.2,229.1 261.5,229.1 
		260.6,229.1 260.1,229 259.8,228.8 259.6,228.6 259.6,228.4 259.6,228.2 259.6,228 259.7,227.8 260,227.4 260,227.3 260.1,226.6 
		260.1,226.4 260,226.2 259.7,226 259.6,225.8 259.7,225.7 259.7,225.5 259.6,225.3 259.3,225.1 258.6,225 258.2,225 257.5,225.3 
		257,225.4 255.5,225.3 255.2,225.4 255,225.4 254.6,225.4 254,225.5 254,225.5 253.6,224.6 253.3,224.2 253.2,223.9 253.2,223.6 
		253.3,223.3 254,222.8 253.9,222.3 253.9,221.6 254.1,221.4 254.4,221.2 254.7,221.1 255,221.1 255.1,220.9 255.1,220.5 
		255.2,220.1 255.3,219.7 255.2,219.2 255.3,218.9 255.6,218.7 255.6,218.2 255,217.3 253.6,215.7 252.6,213.9 252.1,212.7 
		251.8,212.1 252,211.6 252.2,211.4 252.6,211.1 252.8,210.8 253,210.6 253.2,210.4 253.5,210.1 253.7,209.8 253.8,209.6 254,209.5 
		254.3,209.6 254.6,209.6 255,209.4 255.2,209.3 255.6,209.3 255.8,209.2 256.1,209.2 256,209.3 256.4,209.5 256.8,209.6 257,209.3 
		257.2,209.3 257.4,209 257.6,209 257.8,209.3 258,209.3 258.4,209.4 259,209.2 259.4,208.7 259.9,208.2 260.2,206.9 260.3,206.4 
		260.6,205 261,203.9 261.5,202.9 261.8,202.3 261.9,202.2 262.1,202 262.4,202 262.7,201.9 262.7,202.5 263,202.9 263.6,203.2 
		264.2,203.2 265.4,203.3 265.4,203 264.8,202.8 264.1,202.7 263.6,202.7 263.3,202.5 263.1,201.8 262.8,201.3 262.5,201.2 
		262.3,201 262.3,200.4 262.1,199.8 262,199.2 261.7,198.5 261.3,198 261,197.1 261.3,196.8 261.7,196.8 262.4,196.2 263.1,195.1 
		263.3,194.8 263.4,194.5 263.6,194 263.8,193.6 264.3,193.5 264.5,193 264.8,192.5 265.2,192.9 265.7,192.7 266.2,192.3 
		266.8,191.8 268.1,190.4 269.2,189 269.6,188.6 269.7,188.2 269.8,187.9 269.9,187.8 270,187.7 270.5,187.6 270.8,186.8 271,186 
		271.1,184.9 271.1,184.4 270.9,183.4 270.9,181.8 271.1,181.2 271.1,181 271.1,180.9 271.4,181 271.5,181.1 271.5,181.3 
		271.6,181.6 271.8,181.6 271.8,181.4 271.9,181.2 271.9,181.2 272.5,182.5 272.8,182.9 272.9,183 273.1,183 273.2,183.1 
		273.4,183.1 273.5,183 273.5,183 273.7,182.9 273.8,182.8 273.9,182.7 273.9,182.7 274,182.6 274.1,182.4 274.2,182.1 274.2,181.9 
		274.3,181.8 274.3,181.8 274.3,181.8 274.4,181.7 274.5,181.7 275.2,181.8 275.6,181.7 276,181.7 276.3,181.6 276.4,181.5 
		276.6,181.3 277.1,180.8 277.2,180.7 277.3,180.7 277.6,180.5 277.8,180.5 277.9,180.5 278,180.6 278.1,180.6 278.3,180.8 
		278.5,181 278.5,181 278.6,181.1 278.6,181.1 278.6,181.2 278.6,181.2 278.6,181.3 278.3,181.5 278.2,181.6 278.2,181.7 
		278.2,181.8 278.2,181.8 278.2,181.9 278.2,182 278.2,182.1 278.3,182.2 278.4,182.2 279.4,182.9 279.5,183 279.5,183 279.5,183.1 
		279.5,183.1 279.5,183.2 279.5,183.2 279.3,183.4 279.2,183.5 279.1,183.6 279,183.7 278.9,183.9 278.4,184.5 278.4,184.6 
		278.4,184.6 278.5,184.7 278.8,184.9 278.9,185 	"/>
	<polygon id="Los_Ríos" class="st23" points="284.4,200.8 285.6,200.7 286.1,200.8 286.3,200.9 286.2,201 286.1,201.2 286,201.4 
		286.1,201.7 286.2,202.1 286.2,202.4 286.1,202.6 286,202.9 285.9,203.1 286,203.3 286,203.5 286.1,203.7 286.4,203.8 286.6,204 
		286.9,204 287.2,204 287.5,203.9 287.7,203.8 287.9,203.5 288.2,203.2 288.5,203 289.1,202.7 289.3,202.5 291,200.9 291.3,200.7 
		291.5,200.7 291.9,200.8 291.7,201.8 290.2,205.4 289.9,206 289.7,206.1 289.5,206.3 289.4,206.4 289.1,206.5 289,206.7 
		288.4,207.8 288.1,208 287.9,208.2 287.7,208.5 287.5,208.8 287.2,209.5 287.1,209.9 287.1,210.3 287.2,210.7 286.8,212.3 
		286.8,212.8 286.8,213.3 287,213.6 287.5,214.4 287.7,215.1 286.6,215.6 286.2,216.1 285.7,217 285.4,217.4 285.3,217.6 
		285.4,217.8 285.6,217.8 285.7,217.7 285.9,217.6 286.2,217.2 286.3,217 286.4,217 286.6,217.1 286.8,217.5 287.4,218 287.5,218.1 
		287.4,218.2 287.3,218.3 287.2,218.4 287,218.4 286.9,218.4 286.8,218.5 286.8,218.8 286.8,220.5 286.9,220.9 287,221.3 
		287.3,221.6 288,222.1 288.2,222.2 288.4,222.5 288.3,222.8 288.2,223.1 288.1,223.3 288,223.5 287.9,223.6 287.8,223.6 
		287.7,223.5 287.6,223.5 287.4,223.5 286.8,224.2 286.7,224.3 286.5,224.4 286.4,224.5 286.3,224.7 286.4,224.8 286.5,224.8 
		286.7,224.8 286.8,224.9 286.9,225 287,225.1 287.1,225.1 287.3,225.1 287.4,225.3 287.7,225.8 288.3,226.8 288.4,227 288.3,227.4 
		288.3,227.7 288.4,227.9 288.6,228.2 288.7,228.5 288.8,228.7 288.7,229 288.5,229.4 288.2,230.9 288.1,231 287.8,231.2 
		287.7,231.4 287.7,231.6 288.4,232.5 289.2,233.7 289.3,234 289.3,234.2 289.2,234.6 289,235.3 288.7,236 287.6,234.9 285.9,232.2 
		285.7,231.9 285,231.4 284.7,231.3 284.3,231 283.3,230.3 282.8,230.1 282.4,230.1 282,230.1 280.8,230.5 280.1,230.6 279.6,230.5 
		279.4,230.4 279.3,229.9 278.8,229 278.5,228.2 278.4,227.9 277.8,227.2 277.6,226.9 277.4,226.4 277.2,225.9 276.9,225.6 
		275.1,224.7 275,224.6 274.9,224.3 274.9,224 274.9,223.8 275.1,223.4 275.1,223.2 274.8,222.3 274.8,222 274.9,220.7 274.9,220.4 
		275.3,219.4 275.4,219.2 275.6,218.8 276,218.4 276.2,218.1 277.4,215.8 277.5,215.6 277.6,215.4 277.6,215 277.6,214.8 
		277.7,214.7 277.7,214.6 277.8,214.6 278.1,214.6 278.2,214.5 278.3,214.4 278.3,214.2 278.3,214.1 278.4,214 278.5,214 
		278.7,213.9 278.8,213.9 278.9,213.7 278.9,213.6 279,213.3 279.1,213.2 279.2,213.1 279.6,213.1 279.7,212.9 279.9,212.6 
		280.1,212.4 280.2,212.2 280.4,212.1 280.6,212 280.8,212 281,211.9 281.1,211.8 281.2,211.5 281.4,210.8 281.4,210.6 281.5,210.4 
		281.7,210.2 281.8,210.1 282,210 282.2,209.8 282.1,209.6 282,209.5 282,209.3 282.4,208.3 282.5,207.6 282.4,207.3 282.1,207.1 
		281.7,207.1 281,207.2 280.3,207.4 280.7,206.5 281,205 281.2,204.6 281.4,204.3 281.6,204.2 281.8,204.2 282,204 282.1,203.9 
		282.3,203.1 282.8,202.1 283,201.7 283.3,200.7 284,200.7 	"/>
	<polygon id="Loja" class="st23" points="285.7,262 286.3,262 286.6,262 286.9,262.1 287.1,262.4 287.2,262.7 287.3,262.9 
		287.2,263.4 287.3,263.8 287.4,264.1 287.7,264.4 288.2,264.6 288.7,264.6 289,264.6 289.6,264.3 289.8,264.2 289.9,264.4 
		290.1,264.8 290.3,265.3 291,266.3 291.1,266.8 291.1,267.3 291.2,267.9 291.6,268.5 291.2,269 291,269.1 290.7,269.4 290.6,269.5 
		290.6,269.8 290.6,270 290.5,270.1 290.4,270.2 290.3,270.2 290,270.3 289.9,270.2 289.8,270.3 289.7,270.3 289.6,270.4 
		289.6,270.6 289.6,270.8 289.7,271 289.9,271.3 290.2,272.1 290.4,272.4 290.8,272.9 291.1,273.3 291.2,273.6 291.2,273.9 
		291.2,274.1 291.1,274.4 290.9,274.8 290.8,275.3 290.7,276 290.7,276.5 290.9,277.2 290.8,277.5 290.5,278.7 290.5,279.2 
		290.4,279.5 290.5,279.7 290.6,279.8 290.6,279.9 290.7,279.9 290.8,280 291,280.1 291.1,280.2 291.2,280.3 291.3,280.4 
		291.5,280.7 291.6,280.8 291.6,281 291.6,281.4 291.6,281.7 291.6,282.2 291.5,283.5 291.5,283.7 291.5,284.3 291.5,284.7 
		291.3,285.4 291.3,285.6 291.2,285.8 290.9,286 290.6,286.5 290.4,286.8 290.3,286.9 290.1,287 289.9,287 289.7,287.1 289.6,287.2 
		289.5,287.4 289.3,287.5 289.1,287.5 289,287.4 288.7,287.2 288.5,287.1 288.3,287.1 288,287 287.8,286.9 287.6,287 287.4,287.1 
		287.3,287.3 287.2,287.5 286.9,287.8 286.7,288.4 286.8,288.7 286.8,289 286.8,289.3 286.7,289.6 286.6,289.9 285.9,290.8 
		285.6,291.1 284.9,292.3 283.9,293.3 283.7,293.4 283.7,293.4 283.2,292.3 282.9,291 282.3,290.1 282.3,289.6 282.8,288.7 
		282.8,288.4 282.7,288.2 282.3,287.9 281.7,287.9 281.6,287.8 281.3,287.6 281.1,287.5 280,286.4 279.4,286.1 278.6,286.2 
		277.9,286.7 276.4,287.1 275.6,287 275,286.4 274.6,285.8 274,285.2 273.4,285.1 272.9,285.1 272.3,285 271.7,284.7 271.3,284.4 
		270.6,283.6 270.2,283.3 269.8,283.1 269.3,283.1 269,282.9 268.8,282.7 268.8,282.7 267.9,282.8 267.6,282.9 267.4,283 
		267.2,283.2 267.1,283.5 266.8,284.3 266.7,284.6 266.3,285 264.6,286.3 263.7,286.8 263.5,286.9 263.4,287 263,287 262.6,286.8 
		261.6,286.3 261.3,286 261.1,285.6 261.2,285.2 264.1,281.3 264.4,280.8 263.3,281 262.4,281.3 261.6,281.2 261.2,280.2 261.2,280 
		261.2,279.6 261.2,279.4 261.1,279.1 260.8,278.6 260.7,278.3 260.7,277.9 260.7,277.9 260.9,277.3 261.1,276.8 261.4,276.5 
		261.7,276.2 262.1,276.1 262.5,276.1 263,276.1 263.4,276.2 264.4,276.7 264.8,276.8 265.2,276.6 265.6,276.1 265.9,275.6 
		266.2,275.2 267.9,274.5 268.3,274.1 268.3,273.9 268.6,273.8 270.2,273.8 271.6,273.5 272.9,272.8 273.3,272.7 274.6,272.6 
		275,272.6 275.3,272.7 275.8,272.9 276.2,272.9 277.6,272.8 278,272.7 278.4,272.5 278.9,271.9 279.2,271.7 279.8,271.3 
		280.1,271.2 280.4,271.1 280.5,271 280.7,271.1 280.8,271.4 281,271.5 281.3,271.9 281.6,272 281.9,272 282.7,271.9 283,272 
		283.4,272.1 283.6,272.2 284.1,272.2 284.4,272.1 284.7,271.9 284.9,271.8 285.1,271.5 285.1,271.3 285.2,271.1 285,270.5 
		285,270.4 285.1,270.2 285.5,269.9 285.6,269.8 285.7,269.5 285.8,269.2 285.8,268.9 285.8,268.6 285.7,268.3 285.5,268.1 
		285.4,268 285.1,267.9 284.8,267.6 284.7,267.5 284.5,267.5 284.3,267.5 284.1,267.7 283.9,268 283.6,268.3 283.4,268.4 
		283.3,268.5 283.2,268.3 283.1,268.1 283.2,267.8 283.5,266.8 283.5,266.5 283.5,266 283.6,265.8 283.7,265.5 284.5,264.6 
		284.5,264.5 284.6,264.4 284.6,264.3 284.5,264.1 284.4,264 284.2,264 284,263.9 283.9,263.8 283.8,263.7 283.7,263.3 283.7,262.9 
		283.8,261.7 284.4,261.9 284.9,262 	"/>
	<polygon id="Imbabura" class="st23" points="319.8,181.2 319.1,182.1 319,182.3 319,182.5 319,182.5 319,182.6 319.1,182.6 
		319.1,182.6 319.2,182.6 319.2,182.6 319.3,182.6 319.3,182.7 319.4,182.8 319.4,182.8 319.3,182.9 319.2,183 318.9,183.3 
		318.5,183.9 318.4,184 318.3,184.1 318.2,184.1 318.1,184.2 318,184.2 317.7,184.4 316.9,185.2 314.4,184.4 314,184.4 313.8,184.6 
		313.3,185 312.9,185.2 311.9,185.7 311.3,185.8 310.8,185.8 310.2,185.6 309.8,185.4 309.4,185.2 309,184.8 308.7,184.6 
		308.5,184.6 308.3,184.7 307.9,185.1 307.7,185.1 307.7,185 307.7,184.8 307.9,184.4 307.9,184.2 307.8,184 307.8,183.8 
		307.6,183.6 307.3,183.4 306.7,183.4 305.5,183.4 304.4,183.7 304.1,183.6 303.6,183.8 302.4,183.9 302.2,184 301.9,184 301.5,184 
		299.2,183.6 298.7,183.5 296.8,183.7 295.9,184 295.5,184 295.2,184.1 294.9,184.1 294.5,184 294.2,183.9 294,183.7 293.6,182.9 
		294,182.9 294.1,182.9 294.2,182.8 294.3,182.7 295,181.5 295.5,181 295.8,180.9 295.8,180.8 295.8,180.7 295.8,180.6 295.8,180.4 
		296,180.3 296.2,180 296.5,179.7 296.9,179.5 297.2,179.4 297.4,179.4 298.1,179.6 298.8,179.7 299.1,179.8 299.6,179.9 
		299.8,179.9 300,179.9 300.2,180 300.3,180.1 300.6,180.4 300.8,180.5 300.9,180.6 301.1,180.6 301.3,180.5 301.6,180.2 302,179.8 
		302.7,178.9 303.5,178.1 303.8,177.6 303.9,177.5 304.6,177 304.8,176.9 305,176.9 305.4,176.9 305.6,176.9 305.9,176.9 
		306.1,176.8 306.3,176.7 306.4,176.5 306.5,176.2 306.5,175.9 306.3,175.5 305.7,174.8 305.6,174.6 305.5,174.4 305.3,173.7 
		305.2,173.5 304.5,172.3 304.5,172.1 304.5,172 304.7,171.8 305,171.8 305.4,171.8 305.5,171.7 305.7,171.6 305.9,171.5 306,171.2 
		306.1,170.9 306,170.5 306.1,169.6 306.4,169.8 306.8,169.9 307.6,170 307.9,170.1 308,170.2 308.4,170.5 309.4,171.2 310.1,171.8 
		310.6,172.4 311.2,173.4 312.1,174.5 312.5,175.7 312.5,175.9 312.5,176.6 312.5,177 312.6,177.3 312.9,177.7 313.7,177.8 
		313.9,178 314.1,178.1 314.6,178.3 315,178.3 315.7,178.5 316.7,179 317.6,179.7 318.7,180.2 318.9,180.4 319.3,180.9 	"/>
	<path id="Guayas" class="st24" d="M271.6,247.2l-1,0l-0.5,0.2l-1.2,0.6l-1.3,0.4l-0.3,0.2l-0.3,0.9l-0.7,1.4l-0.1,0.3l-0.1,2.6
		l-0.1,0.8l0.1,0.5l0.3,0.2l0.5,0.1l0.5,0l0.4-0.1l0.4-0.3l0.8,0.1l0.3-0.5l0.1-0.3l0.3-0.3l0-0.5l0.3-0.3l0.4-0.1l0.1-0.4l0.3-0.5
		l0.3-0.5l0.2-0.4l0,0l0.2-0.2l0.2-0.3l0.1-0.3l0.1-0.1l0.3-0.3l0.1-0.2l1.1-0.5l0.2-0.2l0.1-0.1l0.1-0.1l0.1-0.2l0-0.2l-0.9-0.2
		L271.6,247.2z M275,246.9l0.5-0.3l0.1-1l0.8-0.4l0.5-0.7l-0.3-0.5l-0.5-0.2l-0.2-0.6l-0.6,1.1l-0.5,1.2l-0.3,0.8l0.1,0.5L275,246.9
		z M290.9,236l-0.2-0.2l-0.2,0l-0.2,0.1l-0.1,0.1l-0.1,0.1l-0.3,0l-0.3,0l-0.9-0.2l-1.1-1l-1.6-2.7l-0.3-0.3l-0.6-0.5l-0.3-0.2
		l-0.5-0.2l-1-0.7l-0.4-0.2l-0.5-0.1l-0.4,0l-1.1,0.4l-0.8,0.1l-0.5-0.1l-0.2-0.2l-0.1-0.5l-0.5-0.9l-0.3-0.7l-0.1-0.3l-0.5-0.7
		l-0.2-0.3l-0.2-0.5l-0.2-0.4l-0.3-0.3l-1.8-0.9l-0.1-0.2l-0.1-0.2l0-0.3l0-0.3l0.1-0.4l0-0.1l-0.3-1l0-0.2l0.1-1.4l0-0.3l0.4-1
		l0.1-0.2l0.3-0.4l0.4-0.4l0.2-0.2l1.2-2.3l0.1-0.2l0-0.2l0-0.4l0-0.1l0.1-0.1l0.1-0.1l0.1,0l0.2-0.1l0.1,0l0.1-0.1l0-0.3l0-0.1
		l0.1-0.1l0.1,0l0.1,0l0.1-0.1l0.1-0.1l0.1-0.2l0-0.3l0.1-0.1l0.1-0.1l0.3,0l0.1-0.1l0.2-0.3l0.2-0.3l0.1-0.1l0.1-0.1l0.2-0.1l0.2,0
		l0.2-0.1l0.1-0.2l0.1-0.2l0.1-0.8l0.1-0.2l0.1-0.2l0.1-0.2l0.2-0.1l0.2-0.1l0.1-0.2l0-0.1l-0.1-0.2l0-0.2l0.3-1l0.1-0.7l-0.1-0.3
		l-0.3-0.2l-0.3,0l-0.8,0.1l-0.7,0.2l-1.4,0.2l-0.4,0.1l-0.3,0.1l-0.2,0.2l-0.8,1.2l-0.1,0.2l-0.1,0.3l-0.1,0.2l-0.3,0.2l-0.1,0.1
		l0,0.2l0,0.2l0,0.2l-0.1,0.2l-0.1,0.2l-0.2,0.2l-0.3,0.3l-0.4,0.6l-0.3,0.3l-1.1,0.9l-0.3,0.2l-0.4,0.1l-0.2-0.1l-0.2,0l-0.3,0
		l-0.1,0l0-0.1l0-0.2l0-0.2l-0.1,0l-0.1,0.1l-0.2,0.2l-0.1,0.3l-0.1,0.5l-0.2,0.4l-0.2,0.7l-0.4,1.2l-0.2,0.3l-0.9,0.7l-0.5,0.2
		l-0.2,0.2l-0.1,0.3l0,0.4l0.1,0.5l0,0.1l-0.1,0.1l-0.5,0.1l-0.3,0.2l-0.1,0l-0.1,0.1l-0.1,0.2l-0.1,0.2l-0.1,0.6l0,0.3l0.1,0.3
		l0.1,0.2l0.2,0.4l0,0.2l-0.1,0.2l-0.7,0.5l-1.3,0.2l0,0.1l0.1,0.2l0.2,0.3l0.3,0.2l0.2,0.1l0.2,0l0.1,0l0.1,0.1l0,0.1l0,0.2l0,0.2
		l0.2,0.6l-0.1,0.2l-0.3,0.1l-0.9-0.1l-0.3,0.2l-0.1,0.1l-0.1,0l-0.1-0.1l-0.2-0.1l-0.2-0.1l-0.2,0.1l-0.2,0.2l-0.2,0.4l-0.1,0.1
		l-0.3,0.1l-0.2,0.1l-0.3,0.2l-0.2,0.2l-0.1,0.3l-0.2,0.2l-0.2,0.2l-0.2,0.2l0,0.2l0,0.2l0,0.2l-0.1,0.1l0,0.2l-0.1,0.1l-0.2,0.1
		l-0.6,0.1l-0.9,0l0.2,1l0.6,1l1.1,0.7l1.7,0.4l1.3,0.8l0.8,0.7l0.9,1.3l-0.1,1.9l-0.4,2.2l-1,1.5l-1.1,0.6l-1.9,0.5l-1.3,1
		l-1.6,1.5l1.6,1.9l0.8,0.5l0.2,0.1l0.4,0.1l0.1,0l0.1,0.1l0.3,0.3l0.3,0.2l0.9,0.8l0.9,0.4l0.5,0.1l0.2-0.2l0-0.5l0-0.2l-0.1-0.2
		l-0.6-0.6l-0.1-0.1l-0.1-0.4l0.1-0.4l0.2-0.2l0.3,0.1l0.1,0.1l0.1,0.1l0.1,0.1l0.2,0l0.2-0.1l0.2-0.2l0.2-0.3l0.7-0.3l0.7-0.7
		l1.5-2.1l0.9-2.4l0.2-0.3l0.2-0.2l0.2,0l0.4,0l0.2-0.1l0.2-0.2l0.1-0.1l0.2-0.1l-0.4,0.7l-0.2,0.2l-0.2,0.1l-0.2,0l-0.2,0.1
		l-0.1,0.3l-0.1,0.5l-0.4,0.9l-0.1,0.5l0.1,0.3l0.3-0.1l0.4-0.2l0.5-0.1l0.5,0.5l0.3,0.1l0.1-0.5l0.1,0.2l0,0.2l-0.1,0.2l-0.2,0.1
		l-0.2,0l-0.2-0.2l-0.1-0.2l-0.1-0.1l-0.6,0.1l-0.2,0.2l-0.1,0.3l-0.2,0.5l-0.7,0.4l-0.3,0.3l0.1,0.4l0.3,0.2l0.2,0.1l0.5-0.1
		l0.2,0.1l0.1,0.3l0.2,0.1l0.3-0.1l0.8-0.4l0.4-0.1l0.2-0.1l0.6-0.7l0.2-0.2l0.2-0.9l0.3-4.3l0-0.7l-0.7-1.2l-0.1-0.6l0-0.6l0.2-0.9
		l0.2-0.5l0-0.2l0.2-0.2l0.7,0l0.2-0.1l0-0.4l0.1-0.2l0.1-0.1l1.3-0.7l-0.2,0.5l-0.4,0.2l-0.4,0.2l-0.2,0.2l-0.1,0.5l-0.3,0.2
		l-0.3,0.1l-0.3,0.4l0.2,0.3l-0.1,0.2l-0.1,0.2l-0.1,0.2l0,0.3l0.1,0.1l0.1,0.1l0,0.2l0.1,0.1l0.3,0.4l0,0.1l0.1,0.1l0,0.3l-0.1,0.5
		l0,0.3l0.1,1l0,1.3l0,0.3l0.1,0.3l0.3,0.4l0.4,1.2l0.3,0.4l0.2,0.1l0.2,0l0.5,0l0.1,0.1l0.3,0.8l0.1,1l0,0.5l-0.2,0.4l-0.7,0.7
		l-0.3,0.4l-0.5,1.3l-0.1,0.5l-0.2,0.5l0,0.1l-0.5,0.8l-0.7,2.2l0,0.4l-0.3,0.9l-0.1,0.5l0.2,0.4l-0.2,0.4l-0.3,0.4l0,0l0.2,0
		l1.7,0.1l0.2,0l0.9,0.3l0-0.4l0.1-0.2l0.2-0.3l1.2-1.5l0-0.2l0-0.6l-0.1-0.6l0-0.4l0.1-0.6l0.2-0.5l4.8-5l0.1-0.1l0.1-0.1l0.1-0.1
		l0.2-0.2l0.5-0.5l0.1-0.2l0-0.2l-0.2-0.3l-0.3-0.6l-0.6,0.2l-0.5,0.3l-0.3,0l-0.2-0.2l0-0.3l1.2-1.1l0.7-0.5l0-0.1l-0.1-0.2
		l-0.1-0.2l0-0.2l0.1-0.2l0-0.5l0.2-0.3l0.2-0.2l0.6-0.5l0.3-0.2l0.3-0.1l2.6-0.5l0.4-0.1l0.5-0.2l0.5-0.3l0.3-0.2l0.2-0.2l0.1-0.2
		l0.2-0.5l0.1-0.9L290.9,236z"/>
	<path id="Galápagos" class="st24" d="M69,203.7l-0.3,0.1l-0.3,0.1l-0.3,0l-0.3-0.2l-0.3-0.1l-0.7,0.2l-0.3,0l-0.2,0.2l-0.8,0.3
		l-0.2,0.1l-0.1,0.2l-0.6,0.5l-0.2,0.3l-0.3,0.7l-0.3,0.2l-0.9,0.2l-0.2,0l-0.2,0.7l-0.3,0.2l-0.9,0.4l-0.2,0.2l-0.3,0.3l-0.1,0.2
		l0,0.2l0.2,0.1l0.8,0.1l0.2,0.1l0.5,0.3l0.2,0.1l0.3-0.1l0.5-0.3l0.2-0.1l0.7,0l0.3,0l0.3-0.1l0.3-0.2l0.3-0.3l0.4-0.7l0.3-0.6
		l0-0.2l0.1-0.1l0.8-0.2l0.6-0.5l0.6-0.8l0.4-0.9L69,203.7z M8.7,152.4l0.1,0.2l0.1,0v-0.2l-0.1-0.1L8.7,152.4z M12.9,158.4
		l-0.1,0.1l0,0.1l0.1,0.1l0.1,0.1l0.1-0.1l0-0.1l-0.1-0.2L12.9,158.4z M36.1,176.6l0.4-0.7l-0.3-1l-0.9-0.5l-0.2,0.4l0.1,0.9
		l-0.2,0.5L36.1,176.6z M41.1,182.3l0.2,0.2l0.2,0.1l0.3,0.1l0.3,0.3l0.3,0.1l0.5-0.1l0.5-0.3l0.4-0.4l0.1-0.3l-0.2-0.4l-0.4-0.3
		l-0.5-0.3l-0.5-0.2l-0.5,0.1l-0.5,0.2l-0.3,0.4l0,0.5l0.1,0.1L41.1,182.3z M20.3,199.4l1.5-0.6l0.2-0.1v-1.9l0.1-0.8l-0.1-0.5
		l-0.3-0.2l-0.2-0.1l-0.8-0.8l-0.3-0.2l-0.1,0l-0.5,0.2l-1,0.2l-0.8,0.4l-1.9-0.1l-0.1,0.3l0.3,0.8l0.1,1l0.2,0.5L17,198l0.4,0.4
		l0.1,0.1l0,0.1l0,0.1l0.1,0.1l0.1,0l0.2,0l0.1,0l0.7,0.3l0.4,0.1l0.5,0.3l0.2,0.1l0.2,0L20.3,199.4z M12.9,158.2L12.9,158.2
		L12.9,158.2L12.9,158.2z M60.8,218.3l-0.6-0.2l-0.3,0.1l-1,0l-0.3-0.1l-0.4,0.4l1.8,0.8l0.7,0.1l0.7-0.2l0-0.5L60.8,218.3z
		 M48.3,200.5l-0.4-0.1l-0.2,0l-0.2-0.1l0-0.2l0-0.3l0-0.2l-0.1-0.1l-0.1-0.1l-0.1-0.1l-0.1,0l-0.5,0.2l-2.1,0.2l-0.1,0.1L44,200
		l-0.2,0.1l-0.2,0l-0.5-0.1l-0.2,0l-0.3,0.1l-0.6,0.3l-0.2,0.1l-0.3,0.4l-0.3,0.5l-0.2,0.5l-0.1,0.6l0,1.1l0,0.3l0.2,0.2l0.4,0.2
		l0.4,0.1l0.3,0l0.2,0.2l0.5,0.7l0.2,0.1l0.1,0l0.1,0.1l0.1,0.1l0.5,0.1l0.7,0.3l0.4,0l0.4-0.1l0.3-0.2l0.1-0.4l0.1-0.1l1.1,0l0.1,0
		l0.2-0.1l0.3-0.3l0.2-0.4l0.3-0.3l0.4-0.1l0-0.1l0.2-0.5l0.1-0.1l0-0.2l-0.1-0.3l0-0.3l0.3-0.9l0.1-0.5l-0.3-0.2L48.3,200.5z
		 M44.6,216.4l-0.1-0.1l0-0.1l-0.2-0.3l-0.5-0.2l-0.6-0.1l-0.4,0.1l-0.2-0.3l-0.3,0.1l-0.2,0.3l-0.1,0.7l-0.1,0.3l-0.2,0.3l-0.2,0.2
		l0.5,0.3l0.3,0.3l0.3,0.2l0.8,0.1l0.1,0l0.7-0.4l0.1-0.1l0-0.1l0-0.3l0-0.1l0.1-0.1l0.3-0.1l0.1-0.1l0-0.1l0.1-0.1l0.1-0.1l0-0.1
		l-0.1-0.2L44.6,216.4z M35.3,204.9h-0.1l-0.2-0.1l-0.8-0.8l-0.3-0.1l0.1-0.3l-0.1-0.3l-0.2-0.2l-0.3-0.1l-0.3,0l0-0.5l-0.5-0.2
		l-0.9-0.2l-0.1-0.3l0-0.4l-0.1-0.2l-0.5,0.3l0.2-0.3l0.6-0.5l0.1-0.4l-0.1-0.9l-0.2-0.8l0-0.1l0.1-0.1l0.1-0.1l0-0.1l-0.3-0.1
		l-0.1-0.1l-0.3-0.3l-0.1-0.2l-0.1-0.2l-0.2-0.2l-2.2-1.4l-0.1-0.1l-0.2,0l-0.2-0.1l-0.1-0.2l0-0.3l0-0.1l-0.1-0.1l-0.9-0.8
		l-0.2-0.4l-0.4-2.4l0.1-1l0-0.5l-0.2-0.4l-0.1-0.1l-0.2,0l-0.5,0l-0.2-0.1l-0.3-0.4l-0.1-0.1l-0.2-0.2l-0.3-0.9l-0.3-0.2l-0.1-0.2
		l-0.1-0.5l-0.2-0.5l-0.4-0.3l-0.2,0.1l-0.4,0l-0.3,0.1l-0.2,0.2l-0.1,0.2l-0.1,0.2l-0.7,0.2l-0.4,0.2l-0.4,0.1l-0.5-0.2l-0.2,0.9
		l-0.4,0.4l-1.5,0.8l-0.2,0.1l-0.1,0.1l0,0.2l0.1,0.2l0.4,0.6l0.4,0.2l0.4-0.1l0.8-0.5l0.8-0.3l0.7,0l0.5,0.4l0.2,0.7l0,0.2l0.1,0.4
		l0,0.2v0.8l0.1,0.4l0.2,0.3l0.4,0.6L22,193l0,0.4l0.3,0.5l0.4,0.3l0,0.7l0.5,0.6l1.3,0.7l0.2,0.4l0.1,0.1l0.1,0.1l0.3,0l0.2,0.1
		l0.3,0.2l0.1,0.2l0,0.6l0.2,0.7l0.4,0.8l0.5,0.7l0.5,0.5l0.3,0.1l0.6,0.2l0.3,0.1l0.3,0.2l0.2,0.3l0,0.3l-0.3,0.4l-0.3-0.1
		l-0.3,0.3l-0.2,0.5l0,0.2l-0.1,0.1l-0.2,0.3l-0.1,0.1l-0.2,0.1l-0.2,0l-0.4-0.1l-0.1-0.1l-0.1-0.1l-0.1-0.1l-0.2-0.1l-0.3,0
		l-0.8,0.2l-0.6,0.2l-0.3,0l-0.1,0.1v0.1l-0.1,0.2l-2.6,1.7l-0.7,0.6l-0.6,0.9l-0.2,1l0.5,0.9l0.2,0.1l0.3,0l0.2,0.1l0.1,0.2l0,0.5
		l0,0.2l0.1,0.2l0.3,0.3l0.5,0.1l2.5,0l2,0.3l0.3-0.1l0.5,0.1l2.5-0.8l0.7-0.5l0.4-0.1l0.7-0.1l0.4,0l0.4,0.2l0.2-0.4l0.6-0.6
		l0.3-0.4l0.5,0.1l0-0.4l-0.1-0.5l0.7-2.1l0.2-0.1l0.5-0.2l0.1-0.1L35.3,204.9L35.3,204.9z M40.5,194.9L40.5,194.9l0.2-0.1l-0.6-0.4
		l-1.1-1.3l-0.7-0.3l-0.5-0.1l-1.5-0.5l-0.4-0.3l-0.1,0.1l-0.1,0l-0.2-0.1l-0.4,0.1l-0.4,0.3l-0.2,0.4l0.1,0.4l-0.1,0.3l-0.9,1.3
		l0.6,0.1l0.2,0.5l0.1,0.6l0.3,0.4l0.5-0.2l0.4,0.1l0.4,0.2l0.4,0.1h1.5l0.9,0.3l0.5,0.1l0.4-0.1l0.2-0.5l0.5-0.7l0.1-0.4l-0.3-0.2
		L40.5,194.9z"/>
	<path id="Esmeraldas" class="st24" d="M294.3,161.3l0.4,0.3l0.2-0.2l0.2-0.2l0.5,0.3l0.3-0.6l0.1-0.9l0-0.7L296,159l0-0.1l0-0.2
		l-1.7,1.4l-0.3,0.5l0.1,0.4L294.3,161.3z M306.5,175.9l-0.2-0.4l-0.6-0.7l-0.1-0.2l-0.1-0.2l-0.2-0.7l-0.1-0.2l-0.7-1.2l0-0.2
		l0-0.1l0.2-0.1l0.2,0l0.4,0l0.2-0.1l0.2-0.1l0.2-0.2l0.1-0.3l0.1-0.3l0-0.4l0-0.8l-0.1-0.1l-0.4-0.3l-0.4-0.4l-0.3-0.2l-0.2,0
		l-0.3-0.3l-0.1-0.1l-0.2-0.4l-0.1-0.4l0.1-1.3l0.1-0.4l0.5-0.8l0.1-0.5l0-0.7l-0.1-0.4l0-0.3l0-0.2l0.4-0.3l0,0l-0.2-0.1l-1.2-0.3
		l-0.3,0l-0.3,0.2l-0.1-0.4l-0.5-0.5l-0.1-0.2l0-0.4l-0.2-0.1l-0.3,0.1l-0.3,0.1l-0.5-0.2l-0.4-0.3l-0.3-0.4l-0.2-0.5l-0.2-0.4
		l-0.6-0.5l-0.5-0.6l-1.3-0.9l0,0l0,0.2l0.1,0.3l0,0.3l-0.1,0.3l-0.8,0.8l-0.2,0.3l-0.1,0.3l0.2,0.3l0.4,0.1l0.5,0l0.4,0.1l0.2,0.3
		l-0.9-0.3l-0.4,0.1l-0.4,0.4l-0.1,0.2l0,0.2l0,0.2l-0.2,0.2l-0.2,0.1l-0.2,0l-0.1-0.1l-0.1-0.2l-0.2,0.3L295,162l-0.1,0.3l-0.1,1
		l-0.1,0.4l-0.2,0.3l-0.4,0.2l0-0.6l-0.1-0.5l-0.3-0.4l-0.4-0.4l-0.5-0.2l-0.3,0.2l-1.7,2.2l-0.4,0.2l-0.6,0.1L289,165l-0.6,0.1
		l-0.5-0.3l-0.2,0.1l-0.3,0l-0.6,0l-0.2,0l-0.5,0.2l-0.2,0l-1.5-0.1l-0.5,0.1l-1.5,1.4l-1,0.6l-0.9-0.3l-0.4,0.2l-0.2,0.3l0,0.4
		l0,0.5l0,0.1l-0.1,0.2l0,0.1l0.1,0.1l0.3,0.2l0.4,1l-0.2-0.2l-0.3-0.6l-0.2-0.2l-0.2-0.2l-0.2-0.2l-0.1-0.3l0.4-1.4l0-0.2l-0.1-0.2
		l-0.6,0.4l-1.3,0.4l-0.5,0.2l-0.2,0.2l-0.3,0.4l-0.2,0.2l-0.7,0.5l-0.2,0.1l-0.3,0.1l-0.4,0.3l-0.7,0.1l-0.5,0.2l-0.3,0l-0.3,0.1
		l-0.4,0.4l-0.3,0.1l-0.7,0.1l-0.3,0l-0.4-0.2l-0.6,0.5l-0.5,0.8l-0.2,0.9l0,0.9l0.1,0.3l0.1,0.3l0.2,0.3l0.3,0.1l0.4,0.1l0.3,0.2
		l0.2,0.3l0.1,0.6l0.2,0.4l0.1,0.4l0,0.5l-0.2,0.3l-0.2,0.2l-0.2,0.3l-0.1,0.5l0.1,0.4l0.2,0.4l0.5,0.9l0.3,0.3l0.1,0.2l0.1,0.3
		l-0.1,0.2l-0.1,0.3l0,0l0.6,1.3l0.3,0.4l0.2,0.1l0.2,0l0.2,0l0.1,0l0.1,0l0.1,0l0.1-0.1l0.1-0.1l0.1-0.1l0.1-0.1l0.1-0.1l0.1-0.2
		l0.1-0.3l0-0.2l0-0.1l0,0l0,0l0.1,0l0.1,0l0.7,0l0.4,0l0.4-0.1l0.3-0.1l0.1-0.1l0.2-0.2l0.5-0.5l0.1-0.1l0.1-0.1l0.3-0.1l0.2,0
		l0.1,0l0.1,0l0.1,0l0.2,0.2l0.2,0.2l0,0.1l0,0.1l0,0l0,0l0,0l0,0l-0.2,0.2l-0.1,0.1l0,0.1l0,0.1l0,0.1l0,0.1l0,0.1l0,0.1l0.1,0.1
		l0.1,0.1l1,0.6l0.1,0.1l0,0.1l0,0.1l0,0l0,0.1l0,0.1l-0.1,0.1l-0.2,0.1l-0.1,0.1l-0.1,0.2l-0.1,0.2l-0.4,0.6l0,0.1l0,0.1l0.1,0.1
		l0.2,0.2l0.1,0.1l0.1,0l0.1,0l0.1,0l0.1,0l0.1,0l0.1,0l0.1,0l0,0.1l0,0.4l0,0.1l0,0l0.1,0l0.1,0l0.1,0l0.2-0.1l0.1-0.1l0.1,0
		l0.1,0.1l0.1,0.2l0.4,0.4l0.2,0.1l0.1,0l0.1,0l0.1,0l0,0l0,0l0,0l-0.6,0.6l-0.1,0.1l0,0.1l0,0.1l0,0.1l0,0l0,0l0,0l0,0l-0.1,0l0,0
		l0,0l0,0.1l0,0.1l0,0.1l0,0.1l0,0.1l0.1,0.2l0,0.1l0,0.2l0.1,0.1l0.4,0.6l0.4,0l0.5,0.1l1.3,0.2l0.6,0.2l0.2,0.1l0.2,0.1l0.2,0.2
		l0.1,0l0.1-0.1l0.1-0.1l0.1-0.1l0-0.1l0-0.1l-0.1,0l-0.1,0l-0.1,0l-0.1,0l-0.1-0.1L284,189l0-0.1l0-0.1l0.4-0.1l0.2-0.1l0.6-0.1
		l0.3-0.1l0.3-0.3l0.1-0.2l0.4-1.1l0.3-0.5l0.3-0.7l0.3-0.4l0.1-0.1l0-0.1l-0.1-0.1l-0.2-0.2l-0.2-0.2l-0.6-0.4l-0.1-0.1l0-0.1
		l0.1-0.2l0.2-0.1l0.4-0.2l0.3-0.2l0.5-0.4l0.2-0.1l0.3-0.1l0.2-0.1l0.6-0.4l0.3-0.1l0.3,0l0.5,0l0.6,0l2.3,0.5l0.2,0.1l0.1,0.1
		l0.4,0.4l0.4,0l0.1,0l0.1-0.1l0.1-0.2l0.7-1.1l0.4-0.5l0.3-0.1l0-0.1l0-0.1l0-0.1l0.1-0.1l0.1-0.2l0.3-0.3l0.2-0.2l0.4-0.3l0.3-0.1
		l0.3,0l0.6,0.2l0.8,0.1l0.3,0.1l0.4,0.1l0.2,0l0.2,0l0.2,0.1l0.1,0.1l0.3,0.3l0.2,0.1l0.1,0.1l0.2,0l0.1-0.1l0.4-0.3l0.4-0.4l0.7-1
		l0.7-0.8l0.3-0.4l0.2-0.2l0.7-0.5l0.2-0.1l0.2,0l0.3,0.1l0.2,0l0.3-0.1l0.2-0.1l0.2-0.1l0.1-0.2l0.1-0.3L306.5,175.9z"/>
	<polygon id="El_Oro" class="st23" points="277.2,255.9 279.8,257.4 280.7,258.1 280.8,258.4 280.8,258.7 280.8,259 280.7,259.3 
		280.2,260.2 280.1,260.7 280,260.9 279.7,261.1 279.3,261.3 279.2,261.4 279.2,261.5 279.3,261.7 279.6,261.7 280.4,261.8 
		281.6,261.5 282.4,261.4 282.7,261.4 283.1,261.5 283.8,261.7 283.7,262.9 283.7,263.3 283.8,263.7 283.9,263.8 284,263.9 
		284.2,264 284.4,264 284.5,264.1 284.6,264.3 284.6,264.4 284.5,264.5 284.5,264.6 283.7,265.5 283.6,265.8 283.5,266 283.5,266.5 
		283.5,266.8 283.2,267.8 283.1,268.1 283.2,268.3 283.3,268.5 283.4,268.4 283.6,268.3 283.9,268 284.1,267.7 284.3,267.5 
		284.5,267.5 284.7,267.5 284.8,267.6 285.1,267.9 285.4,268 285.5,268.1 285.7,268.3 285.8,268.6 285.8,268.9 285.8,269.2 
		285.7,269.5 285.6,269.8 285.5,269.9 285.1,270.2 285,270.4 285,270.5 285.2,271.1 285.1,271.3 285.1,271.5 284.9,271.8 
		284.7,271.9 284.4,272.1 284.1,272.2 283.6,272.2 283.4,272.1 283,272 282.7,271.9 281.9,272 281.6,272 281.3,271.9 281,271.5 
		280.8,271.4 280.7,271.1 280.5,271 280.4,271.1 280.1,271.2 279.8,271.3 279.2,271.7 278.9,271.9 278.4,272.5 278,272.7 
		277.6,272.8 276.2,272.9 275.8,272.9 275.3,272.7 275,272.6 274.6,272.6 273.3,272.7 272.9,272.8 271.6,273.5 270.2,273.8 
		268.6,273.8 268.3,273.9 268.3,273.8 268.2,273.7 268,273.6 267.8,273.4 267.7,273.2 267.7,272.8 267.7,272.6 267.5,272.1 
		267.1,271.4 267,271 267,270.8 267.1,270.7 267.2,270.5 267.1,270.3 267,269.9 267,269.7 267,269.5 267,269.3 267.2,268.8 
		267.2,268.6 267.2,268.4 267,268 267,267.7 267,267.5 266.8,267.4 266.6,267.4 266.4,267.2 266.4,267 266.6,266.4 266.7,266 
		266.7,265.8 266.6,265.6 266.5,265.5 266.1,265.3 266,265.2 265.9,264.7 266,264.3 266.1,263.9 265.8,263.6 265,263.4 264.6,263.2 
		264.5,263.2 264.5,263.2 264.4,263 264.4,262.8 264.4,262.6 264.7,262.4 264.9,262.2 265,261.9 265.2,261.6 265,262.2 264.9,262.3 
		265,262.8 265.3,262.6 265.4,261.9 265.6,261.6 266.2,262.2 266.5,262 268.1,261.7 268.4,261.7 268.6,261.8 268.7,261.8 
		268.9,261.7 269.4,261.1 269.5,261 270.4,259.3 270.6,259 271.1,259.1 271.2,259.6 271,260.7 271.3,260.5 271.4,260.3 271.5,260.1 
		271.7,259.8 271.9,259.7 272.6,259.2 272.9,258.9 273.2,258.4 273.3,257.9 273.4,257.1 273.7,256.3 274.2,255.5 274.2,255.5 
		274.4,255.5 276.1,255.6 276.3,255.7 	"/>
	<polygon id="Cotopaxi" class="st23" points="300.2,203.1 300.5,203.1 301,202.7 301.2,202.6 301.4,202.5 301.6,202.4 301.7,202.4 
		301.9,202.2 302.2,202 302.4,202 302.6,202.2 302.7,202.3 302.8,202.4 303.1,202.3 303.6,202 303.9,201.9 304.2,201.9 304.7,202 
		305,202 305.6,202.2 307.1,203.7 306.9,204.3 306.9,204.5 307.1,205.3 307.2,206.1 307.3,206.6 307.2,207 306.9,207.4 306.7,207.8 
		306.6,208.1 306.6,208.3 306.6,208.6 306.5,208.8 306.4,209 306.2,209.1 306.1,209.2 306.1,209.3 306.2,209.5 306.3,209.6 
		306.8,209.7 307.2,209.9 306.5,210.4 306.5,210.6 306.3,210.8 306.2,211 306.2,211.2 306.2,211.6 306,212.1 305.8,212.3 
		305.5,212.4 305,212.5 304.7,212.4 304.5,212.2 304.4,212.1 304.2,212 304.1,212 303.8,211.9 303.6,212 303.4,212.2 303.4,212.3 
		303.4,212.6 303.3,212.8 303.1,212.9 302.9,213 302.4,213 302.1,213.1 301.6,213.5 301.3,213.7 300.9,213.8 300.4,213.8 
		299.3,213.5 298.9,213.6 298.5,213.6 298,213.8 297.4,214.3 296.8,214.6 296.1,214.4 295.9,214.4 295.5,214.6 294.9,215.1 
		294.5,215.2 294,215.3 293.5,215.1 293.1,214.9 292.4,214.5 292.3,214.3 292.2,214.2 292,214.1 291.7,214 291.4,214 290.8,214.1 
		290.3,214.2 288.7,215 287.7,215.1 287.5,214.4 287,213.6 286.8,213.3 286.8,212.8 286.8,212.3 287.2,210.7 287.1,210.3 
		287.1,209.9 287.2,209.5 287.5,208.8 287.7,208.5 287.9,208.2 288.1,208 288.4,207.8 289,206.7 289.1,206.5 289.4,206.4 
		289.5,206.3 289.7,206.1 289.9,206 290.2,205.4 291.7,201.8 291.9,200.8 292.3,201.4 292.3,201.4 292.5,201.5 292.6,201.6 
		292.8,201.6 293,201.5 293.1,201.3 293.2,201.1 293.3,200.8 293.4,200.7 293.6,200.6 293.8,200.5 294,200.5 294,200.4 294,200.3 
		294,200.1 293.9,199.9 293.8,199.8 293.6,199.6 293.3,199.5 293.2,199.4 293.1,199.3 293.1,199.2 293.2,199.1 293.4,198.7 
		293.7,198 293.8,197.9 293.9,197.8 294,197.8 294.3,197.6 294.4,197.5 294.5,197.4 294.6,197.3 294.6,197.1 294.7,196.9 
		294.8,196.8 294.9,196.7 295,196.6 295.2,196.6 295.3,196.5 295.4,196.4 295.4,196.4 295.6,196.3 295.7,196.5 295.8,196.6 
		295.8,196.9 295.9,197 296.7,198.1 297,198.7 297.3,199.1 297.3,199.3 297.5,199.8 297.6,200 297.9,200.3 299.3,201.3 299.6,201.8 
		299.8,202.3 299.9,202.6 300,202.9 300.1,203 	"/>
	<polygon id="Chimborazo" class="st23" points="302.2,221.4 302.7,221.3 303.1,221.2 303.5,221.1 303.8,221.2 304.2,221.3 
		304.5,221.2 304.7,220.9 304.8,220.6 305,220.4 305.2,220.3 305.5,220.5 306,220.8 306.3,220.9 306.7,221 307,221.1 307.2,221.3 
		307.5,221.4 307.7,221.5 307.8,221.6 307.8,222 308,222.2 307.8,222.5 307.7,222.7 307.7,223 308,223.6 308,223.9 308,224.1 
		307.9,224.3 307.7,224.5 307.5,224.6 307,224.9 306.8,225.1 306.6,225.3 306.5,225.5 306.3,225.7 306.2,225.8 306,225.9 
		305.9,226.1 305.9,226.4 305.9,226.9 305.9,227.2 306,227.6 306.1,227.8 306.2,227.9 306.3,228 306.4,228.2 306.5,228.7 
		306.6,229.4 306.6,229.7 305.7,230.6 305.1,231.6 305,231.8 305,232.1 305.1,232.3 305.3,232.4 305.4,232.5 305.6,232.7 305.7,233 
		305.7,233.5 305.8,233.8 306,234.2 305.9,234.4 305.6,234.6 305.3,234.8 305,235 304.8,235.4 304.6,236 304.7,236.8 304.8,237 
		304.8,237.1 304.8,237.2 304.7,237.4 304.3,237.7 304.1,237.9 304,238.2 304,238.4 303.9,238.7 303.8,238.9 303,239.4 302.6,239.2 
		299.9,239.5 299,239.7 298.5,239.9 298,240.4 297.6,240.7 296.8,241.1 296.2,241.3 295.5,241.4 295,241.3 294.8,241.2 294.3,240.9 
		293.9,240.7 293.5,240.5 293.2,240.2 292.5,239.2 292.3,239 292.1,238.9 292,238.8 291.9,238.6 291.7,238.3 291.6,238.2 
		291.5,238.1 291.4,238.1 291.3,238 291.1,237.8 291.1,237.6 291,237.1 292.2,236.4 292.9,235.6 293.4,235 293.5,234.8 293.5,234.5 
		293.5,234.3 293.4,234.1 293.3,233.9 293.3,233.6 293.8,230.8 293.8,230.6 293.7,230.1 293.6,229.4 293.7,228.4 293.7,228 
		293.8,227.8 293.9,227.6 294.1,227.5 294.4,227.3 295.2,227.2 295.5,227.2 296.2,226.5 296.7,225.8 296.9,225.2 297,224.6 
		296.9,223.9 297,223.4 297.1,222.9 297.1,222.5 297,222.2 296.6,221.7 296.5,221.4 296.4,221.2 296.4,220.7 296.9,220.6 
		297.6,220.1 297.9,220 298.2,220 298.5,220.1 298.8,220.2 299.5,220.7 299.9,220.9 300.4,221.1 301.6,221.4 	"/>
	<polygon id="Carchi" class="st23" points="317.3,169.6 317.4,169.6 317.5,169.6 317.8,169.8 317.8,170 317.8,170.3 317.9,170.5 
		318.1,170.7 318.6,170.9 319.1,171 319.5,171 320,170.9 321.7,170.3 322.3,170.3 322.9,170.8 323.1,172.4 323.5,173 325,174 
		325.8,174.4 326.4,174.3 326.3,174.4 325.5,175 325.2,175.1 324.7,174.9 324.6,174.9 324,174.9 323.8,174.8 323.5,174.7 
		323.3,174.7 323.2,174.7 323.1,174.7 323,174.7 322.9,174.9 322.9,175.1 322.9,175.2 323,175.3 323.2,175.5 323.3,175.6 
		323.4,175.7 323.4,175.8 323.4,175.9 323.3,176.1 323.2,176.2 322.4,176.8 322.2,177 320.7,178.9 320.5,179.2 320.4,179.5 
		320.3,179.9 320.3,180.1 320.4,180.3 320.3,180.6 319.8,181.2 319.3,180.9 318.9,180.4 318.7,180.2 317.6,179.7 316.7,179 
		315.7,178.5 315,178.3 314.6,178.3 314.1,178.1 313.9,178 313.7,177.8 312.9,177.7 312.6,177.3 312.5,177 312.5,176.6 312.5,175.9 
		312.5,175.7 312.1,174.5 311.2,173.4 310.6,172.4 310.1,171.8 309.4,171.2 308.4,170.5 308,170.2 307.9,170.1 307.6,170 
		306.8,169.9 306.4,169.8 306.1,169.6 306,169.6 305.6,169.3 305.2,168.9 304.8,168.7 304.6,168.7 304.4,168.5 304.3,168.4 
		304.1,168 304,167.6 304.1,166.4 304.3,165.9 304.8,165.1 304.9,164.6 304.9,163.9 304.9,163.5 304.9,163.2 304.9,163.1 
		305.3,162.7 305.3,162.7 305.5,162.9 307.6,165.2 308.1,165.6 308.5,165.8 309.8,166.2 310.3,166.4 313.1,168.6 314,169 
		315.6,169.1 317.1,169.6 	"/>
	<polygon id="Cañar" class="st23" points="295.5,241.4 296.2,241.3 296.8,241.1 297.6,240.7 298,240.4 298.5,239.9 299,239.7 
		299.9,239.5 302.6,239.2 303,239.4 303.1,239.7 303.4,239.8 304.7,240.4 305.1,240.7 305.2,240.9 305.2,241.1 305.1,241.4 
		305.1,242.6 305.1,243 305,243.2 305,243.5 305,243.7 304.9,243.8 304.4,244.6 304.2,244.9 304.1,245 304,245 303.9,245 303.9,245 
		303.7,244.9 303.4,244.9 302.6,245.5 302.4,245.7 302.3,245.9 302.2,246.2 302.1,246.5 301.8,246.7 301.5,246.8 301,246.9 
		300.8,247.1 300.4,247.4 300.1,247.6 299.8,247.7 299.7,247.8 299.2,247.7 299,247.7 298.7,247.8 298.6,247.9 298.4,248.2 
		298.4,248.4 298.4,248.6 298.5,248.8 298.5,249 298.5,249.1 298.4,249.3 298,249.8 297.9,250 297.8,250.1 297.9,250.5 297.9,250.6 
		297.8,250.7 297.6,250.6 297.4,250.6 297.3,250.6 297.1,250.7 296.8,250.7 296.5,250.7 295.7,250.6 295.4,250.5 295.2,250.3 
		295.1,249.7 295,249.5 294.9,249.3 294.4,248.8 294,248.5 293.4,247.7 293.1,247.4 292.8,247.1 292.5,246.9 292.3,246.8 
		292.1,246.9 292,247 291.9,247.1 291.9,247.3 291.7,247.4 291.6,247.6 291.1,247.7 290.9,247.9 290.8,248 290.8,248.2 290.8,248.4 
		290.7,248.6 290.5,248.7 290.2,248.6 289.9,248.4 288,246.4 287.8,246.2 287.7,245.9 287.6,245.7 287.4,245.5 287,245.2 
		286.5,245.2 286.2,245.1 286,244.9 285.6,244 285.3,243.7 285,243.5 284.2,243.5 283.6,243.7 283.1,243.9 282.8,243.9 282.6,243.7 
		282.6,243.4 283.8,242.3 284.5,241.8 284.5,241.7 284.5,241.6 284.4,241.4 284.4,241.2 284.5,241 284.5,240.5 284.7,240.2 
		284.9,240 285.5,239.5 285.8,239.4 286.1,239.2 288.7,238.8 289.1,238.6 289.6,238.4 290.1,238.2 290.4,237.9 290.7,237.7 
		290.8,237.5 291,237.1 291.1,237.6 291.1,237.8 291.3,238 291.4,238.1 291.5,238.1 291.6,238.2 291.7,238.3 291.9,238.6 292,238.8 
		292.1,238.9 292.3,239 292.5,239.2 293.2,240.2 293.5,240.5 293.9,240.7 294.3,240.9 294.8,241.2 295,241.3 	"/>
	<polygon id="Bolivar" class="st23" points="294,215.3 294.5,215.2 294.9,215.1 295.5,214.6 295.9,214.4 296.1,214.4 296.8,214.6 
		296.3,215.4 296.2,215.7 296.2,216.6 296.1,216.9 295.8,217.6 295.7,218 295.4,219.1 295.5,219.4 296,220.1 296.3,220.4 
		296.4,220.7 296.4,221.2 296.5,221.4 296.6,221.7 297,222.2 297.1,222.5 297.1,222.9 297,223.4 296.9,223.9 297,224.6 296.9,225.2 
		296.7,225.8 296.2,226.5 295.5,227.2 295.2,227.2 294.4,227.3 294.1,227.5 293.9,227.6 293.8,227.8 293.7,228 293.7,228.4 
		293.6,229.4 293.7,230.1 293.8,230.6 293.8,230.8 293.3,233.6 293.3,233.9 293.4,234.1 293.5,234.3 293.5,234.5 293.5,234.8 
		293.4,235 292.9,235.6 292.2,236.4 291,237.1 291,236.2 290.9,236 290.8,235.8 290.6,235.8 290.4,235.9 290.2,236.1 290.1,236.1 
		289.8,236.2 289.6,236.1 288.7,236 289,235.3 289.2,234.6 289.3,234.2 289.3,234 289.2,233.7 288.4,232.5 287.7,231.6 287.7,231.4 
		287.8,231.2 288.1,231 288.2,230.9 288.5,229.4 288.7,229 288.8,228.7 288.7,228.5 288.6,228.2 288.4,227.9 288.3,227.7 
		288.3,227.4 288.4,227 288.3,226.8 287.7,225.8 287.4,225.3 287.3,225.1 287.1,225.1 287,225.1 286.9,225 286.8,224.9 286.7,224.8 
		286.5,224.8 286.4,224.8 286.3,224.7 286.4,224.5 286.5,224.4 286.7,224.3 286.8,224.2 287.4,223.5 287.6,223.5 287.7,223.5 
		287.8,223.6 287.9,223.6 288,223.5 288.1,223.3 288.2,223.1 288.3,222.8 288.4,222.5 288.2,222.2 288,222.1 287.3,221.6 287,221.3 
		286.9,220.9 286.8,220.5 286.8,218.8 286.8,218.5 286.9,218.4 287,218.4 287.2,218.4 287.3,218.3 287.4,218.2 287.5,218.1 
		287.4,218 286.8,217.5 286.6,217.1 286.4,217 286.3,217 286.2,217.2 285.9,217.6 285.7,217.7 285.6,217.8 285.4,217.8 285.3,217.6 
		285.4,217.4 285.7,217 286.2,216.1 286.6,215.6 287.7,215.1 288.7,215 290.3,214.2 290.8,214.1 291.4,214 291.7,214 292,214.1 
		292.2,214.2 292.3,214.3 292.4,214.5 293.1,214.9 293.5,215.1 	"/>
	<polygon id="Azuay" class="st23" points="290.5,248.7 290.7,248.6 290.8,248.4 290.8,248.2 290.8,248 290.9,247.9 291.1,247.7 
		291.6,247.6 291.7,247.4 291.9,247.3 291.9,247.1 292,247 292.1,246.9 292.3,246.8 292.5,246.9 292.8,247.1 293.1,247.4 
		293.4,247.7 294,248.5 294.4,248.8 294.9,249.3 295,249.5 295.1,249.7 295.2,250.3 295.4,250.5 295.7,250.6 296.5,250.7 
		296.8,250.7 297.1,250.7 297.3,250.6 297.4,250.6 297.6,250.6 297.8,250.7 297.9,250.6 297.9,250.5 297.8,250.1 297.9,250 
		298,249.8 298.4,249.3 298.5,249.1 298.5,249 298.5,248.8 298.4,248.6 298.4,248.4 298.4,248.2 298.6,247.9 298.7,247.8 299,247.7 
		299.2,247.7 299.7,247.8 299.8,247.7 300.1,247.6 300.4,247.4 300.8,247.1 301,246.9 301.5,246.8 301.8,246.7 302.1,246.5 
		302.2,246.2 302.3,245.9 302.4,245.7 302.6,245.5 303.4,244.9 303.7,244.9 303.6,245.6 303.6,245.8 303.7,246 303.9,246.2 
		304.1,246.3 304.2,246.2 304.3,246.1 304.4,245.9 304.4,245.7 304.6,245.4 304.8,245.2 305,245.1 305.2,245 305.4,245.1 
		305.5,245.1 306.2,245.6 306.4,245.8 306.5,246 306.5,246.2 306.5,246.3 306.4,246.5 306.2,246.7 303.7,248 303.5,248.2 
		303.3,248.4 302.7,249.7 302.6,249.8 302.7,250 302.8,250.2 303,250.4 303.2,250.6 303.3,250.8 303.3,251 303.1,251.3 302.1,253 
		302,253.4 301.9,253.6 301.4,254.7 301.3,255.1 301.3,255.4 301.3,255.7 301.2,256.1 301,256.5 300.5,257.1 299.9,257.6 299.2,258 
		298.3,258.3 297.9,258.7 295.2,260.8 295.1,261.1 295.1,261.2 295.2,261.6 294.7,262 293.5,262.7 293.1,263 292.8,263.3 
		292.6,263.6 292.5,263.8 292.5,264 292.5,264.2 292.6,264.5 292.7,264.6 292.8,264.8 292.8,264.9 292.7,265.4 292.6,265.6 
		292.6,265.9 292.7,266.6 292.5,267.9 292.4,268.1 292.3,268.3 292.1,268.4 292,268.4 291.6,268.5 291.2,267.9 291.1,267.3 
		291.1,266.8 291,266.3 290.3,265.3 290.1,264.8 289.9,264.4 289.8,264.2 289.6,264.3 289,264.6 288.7,264.6 288.2,264.6 
		287.7,264.4 287.4,264.1 287.3,263.8 287.2,263.4 287.3,262.9 287.2,262.7 287.1,262.4 286.9,262.1 286.6,262 286.3,262 285.7,262 
		284.9,262 284.4,261.9 283.8,261.7 283.1,261.5 282.7,261.4 282.4,261.4 281.6,261.5 280.4,261.8 279.6,261.7 279.3,261.7 
		279.2,261.5 279.2,261.4 279.3,261.3 279.7,261.1 280,260.9 280.1,260.7 280.2,260.2 280.7,259.3 280.8,259 280.8,258.7 
		280.8,258.4 280.7,258.1 279.8,257.4 277.2,255.9 277.2,255.5 277.3,255.3 277.4,255 278.6,253.6 278.6,253.4 278.6,252.8 
		278.4,252.2 278.4,251.8 278.5,251.2 278.7,250.7 283.5,245.7 283.6,245.6 283.7,245.5 283.9,245.4 284,245.3 284.5,244.8 
		284.6,244.6 284.7,244.3 284.5,244 284.2,243.5 285,243.5 285.3,243.7 285.6,244 286,244.9 286.2,245.1 286.5,245.2 287,245.2 
		287.4,245.5 287.6,245.7 287.7,245.9 287.8,246.2 288,246.4 289.9,248.4 290.2,248.6 	"/>
</g>
</svg>
