<?xml version="1.0" encoding="utf-8"?>
<!-- Generator: Adobe Illustrator 23.0.1, SVG Export Plug-In . SVG Version: 6.00 Build 0)  -->
<svg version="1.1" id="Layer_1" xmlns="http://www.w3.org/2000/svg" xmlns:xlink="http://www.w3.org/1999/xlink" x="0px" y="0px"
	 viewBox="0 0 720 515.3" style="enable-background:new 0 0 720 515.3;" xml:space="preserve">
<style type="text/css">
	.st0{display:none;}
	.st1{fill:#A8A8A8;}
	.st2{fill:#89CCA3;stroke:#0FB753;stroke-width:0.25;stroke-miterlimit:10;}
	.st3{fill:#143C75;}
	.st4{fill:none;}
	.st5{fill:#8D90C7;stroke:#FFFFFF;stroke-width:0.5;stroke-miterlimit:10;}
	.st6{fill-rule:evenodd;clip-rule:evenodd;fill:#8D90C7;stroke:#FFFFFF;stroke-width:0.5;stroke-miterlimit:10;}
	.st7{font-family:'Bulo-Black';}
	.st8{font-size:14.5939px;}
	.st9{fill:#565556;}
	.st10{font-family:'ArialMT';}
	.st11{font-size:11px;}
	.st12{font-family:'Arial-ItalicMT';}
	.st13{font-size:15px;}
	.st14{fill:#E5367A;}
	.st15{fill:#606060;}
	.st16{fill:#3D3D3D;}
	.st17{font-family:'Arial-BoldMT';}
	.st18{fill:#FFFFFF;}
	.st19{fill-rule:evenodd;clip-rule:evenodd;fill:#F8A25E;stroke:#FFFFFF;stroke-width:0.5;}
	.st20{fill-rule:evenodd;clip-rule:evenodd;fill:#3A9DB4;stroke:#FFFFFF;stroke-width:0.5;stroke-miterlimit:10;}
	.st21{fill:#3A9DB4;stroke:#FFFFFF;stroke-width:0.5;stroke-miterlimit:10;}
	.st22{fill-rule:evenodd;clip-rule:evenodd;fill:#F1E355;stroke:#FFFFFF;stroke-width:0.5;stroke-miterlimit:10;}
	.st23{fill:#F1E355;stroke:#FFFFFF;stroke-width:0.5;stroke-miterlimit:10;}
	.st24{fill-rule:evenodd;clip-rule:evenodd;fill:#D96CA9;stroke:#FFFFFF;stroke-width:0.5;stroke-miterlimit:10;}
	.st25{fill:#D96CA9;stroke:#FFFFFF;stroke-width:0.5;stroke-miterlimit:10;}
	.st26{fill:#D96CA9;}
	.st27{fill:#9ECF85;stroke:#FFFFFF;stroke-width:0.5;stroke-miterlimit:10;}
	.st28{fill-rule:evenodd;clip-rule:evenodd;fill:#9ECF85;stroke:#FFFFFF;stroke-width:0.5;stroke-miterlimit:10;}
	.st29{fill:#73AFDF;}
	.st30{fill-rule:evenodd;clip-rule:evenodd;fill:#F49294;stroke:#FFFFFF;stroke-width:0.5;}
	.st31{fill:#F49294;stroke:#FFFFFF;stroke-width:0.5;}
	.st32{fill:#77AE87;stroke:#FFFFFF;stroke-width:0.5;stroke-miterlimit:10;}
	.st33{fill-rule:evenodd;clip-rule:evenodd;fill:#77AE87;stroke:#FFFFFF;stroke-width:0.5;stroke-miterlimit:10;}
	.st34{fill-rule:evenodd;clip-rule:evenodd;fill:#D0B0CE;stroke:#FFFFFF;stroke-width:0.5;}
	.st35{fill:#D0B0CE;stroke:#FFFFFF;stroke-width:0.5;}
	.st36{fill:#BF84BE;}
	.st37{fill:#F37B58;stroke:#FFFFFF;stroke-width:0.5;stroke-miterlimit:10;}
	.st38{fill-rule:evenodd;clip-rule:evenodd;fill:#F37B58;stroke:#FFFFFF;stroke-width:0.5;stroke-miterlimit:10;}
	.st39{fill:#F37B58;}
	.st40{fill-rule:evenodd;clip-rule:evenodd;fill:#F6B3CD;stroke:#FFFFFF;stroke-width:0.5;stroke-miterlimit:10;}
	.st41{fill:#F6B3CD;stroke:#FFFFFF;stroke-width:0.5;stroke-miterlimit:10;}
	.st42{fill:none;stroke:#000000;stroke-width:0.75;stroke-miterlimit:10;}
	.st43{fill:none;stroke:#000000;stroke-width:0.5;stroke-miterlimit:10;}
	.st44{font-size:8px;}
	.st45{fill:#33353D;}
	.st46{font-size:9px;}
</style>
<g id="Belize" class="st0">
	
		<image style="display:inline;overflow:visible;" width="1200" height="1860" id="DXtVxN_2_" xlink:href="5E47125778B062EA.jpg"  transform="matrix(0.325 0 0 0.325 17.1941 -68.2326)">
	</image>
</g>
<g>
	<path id="Minor_Islands_4_" class="st5" d="M235.9,331.7l0.2,0.7l0.1,0.8l0.5,0.5l-0.2-2.4L235.9,331.7z M249.9,294.3l0.2,0.9
		l0.8-2.2v-2.3l-1.2,1.4L249.9,294.3z M239.2,180.6l-1.1,0.1l0.3,1.6l0.7,1l1.1,1.1l0.5-2.4l-0.3-0.5L239.2,180.6z M235.7,171.9
		l-0.8,0.9l-1.1,2.1l0.1,1.4l1-0.8l0.8-1.5l0.4-0.7L235.7,171.9z M246.6,305l0.6,0.9l0.2,0.5h0.4l-0.5-2.5L246.6,305z M249.4,296.2
		l0.3,1.1l0.8-1.7l-1,0.5L249.4,296.2z M248.8,295.3l0.4,0.7l0.2,0.1l-0.9-3.1L248.8,295.3z M233.8,176.4h-0.4l0.2,1l0.2,1.3
		l0.1,0.9l0.2-0.3l0.4-0.1l0.7-0.7l0.1-0.9l-0.6-1.1L233.8,176.4z M210.1,423.4v-0.1l-0.3,0.2l0.2,0.3l0,0l0.1,0.1l0.2-0.1
		L210.1,423.4L210.1,423.4z M147.4,416.3v-0.6l-1.2,1.5l-0.1,0.9l-0.8,0.4l0.5,0.7l0.7,0.7l0.6-0.8l0.3-0.6l0.9-0.8l-1.2-0.9
		L147.4,416.3z M260,89.7l-0.4,3.1L261,90L260,89.7z M221.4,432.5l0.4,0.5v-0.1v-0.6L221.4,432.5z M232.9,412.8l0.1-0.2l-0.2-0.5
		L232.9,412.8z M216.5,359.2l-0.8,1.4l0.4,0.1l0.6-0.3l1.8-0.2l-0.5-0.9L216.5,359.2z M347.4,241.9l0.7,0.2l0.3-0.3l-0.8-0.5
		L347.4,241.9z M299.2,322.7l1.4-0.5l1-1.7l-1.6,1L299.2,322.7z M261.5,133.1l-0.8,0.1l-0.9,1.6l-0.2,2.1l-0.3,1.7l0.8,0.8l0.1,1.2
		l-0.7,1l-0.8-0.3L258,143l0.3,1l2.6-2.9l-0.5-3.1l0.3-3.2L261.5,133.1z M259.2,272.4l0.4,1l0.4,0.1l-0.4-1.9L259.2,272.4z
		 M336,242.5l-0.2,2.8l0.7-2l1.8-2.2l0.1-1.1l-1.3-0.8L336,242.5z M260,258.5l-0.3-0.8l-2.9,0.3l-1,2.7l1.2-0.8l1.8-0.1l0.7,0.1
		L260,258.5z M351.7,193.4l-1.8-0.3l-1.4,1.2v1l2.5,1.1l0.9-0.5l0.6-1.2L351.7,193.4z M254.5,203.5l-1.3,0.9l0.2,1.2l1.2,1.8
		l1.3-1.4L254.5,203.5z M258.2,150v-3.2l-0.9,2.9l-0.1,2.9L258.2,150z M256.1,122.6l1.4-0.6l-1.8-0.3l-2.6-0.2l1.1,1.5L256.1,122.6z
		 M250.9,220.9l-0.5,1.8l-0.1,3.4l0.4,1.4l0.2-0.2l1-1.7l0.4-3.1l-0.9-1.9L250.9,220.9z M257.9,374.2l0.6-0.1l-0.3-0.6L257.9,374.2z
		 M255.1,277.8l0.3,0.3l2.1-0.9l-1.4-0.2L255.1,277.8z M249.1,240v1.5l0.4-0.1V241l0.9-0.7l0.6-1.2l-1.1-0.7L249.1,240z"/>
	<polygon id="Toledo_4_" class="st6" points="178.4,360.7 179.4,360.7 179.9,360.6 186.6,361 187.3,360.9 189.1,361 190,361.2 
		190.8,361.2 194.3,360.7 196,360.8 196.7,360.9 197.1,362.3 199.1,363.1 199.1,363.1 199.7,364.4 196.5,366.8 193.1,373.8 
		189.9,375.3 189.5,376.3 189.2,380.5 189.3,381.4 188.3,382 187.4,382 186.9,381.7 186.9,381.4 185.8,382.1 185.4,382.5 
		185.2,382.9 184.6,383.8 182.4,389.1 181.7,390 180.4,390.7 176,396.6 175.5,397.6 174.7,399.9 174.3,400.8 174.2,401.3 
		174.4,402.8 174.3,403.3 173.8,403.4 172.4,403.2 172,403.3 171.2,403.7 169.2,404.2 168.4,404.6 168,405.3 167.2,408.1 
		167.2,400.8 166.1,400.8 164.9,404.6 162.5,405.2 160.2,403.7 159.2,401.4 158.5,400.4 157.1,400.3 155.7,400.6 155,400.8 
		154.8,401.4 154.9,404.5 154.4,405.7 153.2,406.1 147.5,406.9 146.5,407.6 145.7,408.4 144.5,409.2 142.2,409.5 139.8,410.6 
		139.1,413.4 139.5,420.2 138.9,423.9 137.3,426.6 134.9,428.3 131.9,428.8 131.1,429.3 130.1,430.4 129.3,431.8 128.5,434.9 
		127.5,435.8 126,436.3 124.4,437.3 122.5,438.9 121.7,439.8 120.9,440.9 120.5,442.9 120.6,444.9 120.2,446.4 115.8,447.7 
		112.8,449.5 110,451.8 108.1,454.2 107.5,458.6 111,466 110.4,470.2 104,472.7 89,468.8 83.6,468.8 78.8,469.7 65.8,469 
		62.7,470.3 61.2,470.4 59.2,471.1 57.6,471.9 57.2,472.5 55.8,470.2 55.9,467.9 56.2,459.4 60.6,418.4 63.2,381.8 65,378.9 
		66,377.7 66.8,376.8 68,375.3 68.5,374.6 68.7,373.9 68.9,373 69,372.6 69.5,371.8 70.2,370.9 71,370.4 77,367.9 79.2,367.7 
		79.8,367.6 81.1,367.2 83.9,366.8 85,366.3 86.3,365.3 89.8,361.9 90.9,360.7 91.3,360.4 92.1,360.7 92.6,361.1 93.2,361.5 
		94.3,362.8 94.9,363.1 95.6,363.1 96.6,362.9 103.2,360.3 103.9,359.8 103.7,358.3 103.7,357.7 104.5,356.6 105.2,355.9 
		106.2,355.2 108.1,354.4 109.1,354.1 109.9,354.3 110.9,354 112.4,353.1 117,349.5 118.2,348.9 119.5,348.5 120.3,348.2 123,346.1 
		126.4,342.5 126.9,340.7 126.8,339.7 126.1,336.8 126.2,336 126.6,335.2 128.4,332.8 129.4,331.8 129.9,331.4 131.2,330.7 
		134.1,330.5 139,328.9 151.7,328.6 155.5,329.1 158,329.7 163.9,333 164.7,333.8 165.2,334.6 165.7,336.1 166.2,336.8 166.2,337.6 
		166.1,338.3 165.5,339.9 165.6,340.8 166.3,341.8 168.4,344.1 168.9,345 169.5,345.7 169.8,346.4 170.3,347.1 170.6,347.9 
		171.1,348.6 171.8,349.9 172.1,350.8 172.1,351.4 172.1,352.1 171.8,353.2 171.6,356.1 171.5,356.7 171.5,357.4 171.1,358.1 
		170.8,358.6 170.5,359.3 171.5,359.8 	"/>
	<polygon id="Stann_Creek_4_" class="st6" points="199.1,363.1 197.1,362.3 196.7,360.9 196,360.8 194.3,360.7 190.8,361.2 
		190,361.2 189.1,361 187.3,360.9 186.6,361 179.9,360.6 179.4,360.7 178.4,360.7 171.5,359.8 170.5,359.3 170.8,358.6 171.1,358.1 
		171.5,357.4 171.5,356.7 171.6,356.1 171.8,353.2 172.1,352.1 172.1,351.4 172.1,350.8 171.8,349.9 171.1,348.6 170.6,347.9 
		170.3,347.1 169.8,346.4 169.5,345.7 168.9,345 168.4,344.1 166.3,341.8 165.6,340.8 165.5,339.9 166.1,338.3 166.2,337.6 
		166.2,336.8 165.7,336.1 165.2,334.6 164.7,333.8 163.9,333 158,329.7 155.5,329.1 151.7,328.6 139,328.9 134.1,330.5 133.5,328.3 
		133.5,327.5 134.5,324 136.3,320.7 137.2,318 141.9,310.7 142.7,309.9 143.7,309.3 146.9,308.2 149.9,307.7 150.6,307.5 151.1,307 
		151.2,306.4 150.6,305.7 148.3,304.1 148.2,303.4 148.5,302.9 149.5,301.9 151.1,301.2 151.6,300.7 152.1,300.1 152.4,299.4 
		152.5,298.5 152.3,296.2 152.3,295.3 152.7,292.9 152.7,291.9 152.6,291.1 152.6,290.3 152.9,289.5 158,283.8 159.1,281.8 160,281 
		161.9,279.5 162.9,278 164,276 165,273.2 166.8,269.5 167.3,268.7 168.3,268.1 169.1,267.3 169.1,265.8 168,264.5 165.6,262.5 
		163.2,258.4 162.6,256.9 163.1,255.2 208,254.3 209.5,253.8 210.4,253.3 213.9,252 216.1,249.6 216.2,251.2 217.1,255.3 
		217.8,257.5 219.4,258.4 223,259.7 225.1,262.4 226.5,265.8 227.3,269.7 227.7,275.3 228.7,279.7 228.3,281.7 227.2,282.2 
		225.7,282.1 224.1,282.8 222.2,284.5 219.9,287.2 218,290.3 217.1,293.1 217.9,296.4 221.2,301.7 221.8,304.7 222.1,304.7 
		222.7,305.2 223.2,306 223,307 222.4,307.2 220.2,306.9 219.4,307 217.3,308.8 216.4,309.9 216.1,311.5 215.7,312.3 214.9,313.2 
		214,314.4 213.7,316.3 213.8,318.4 214.6,321.2 214.8,322.9 213.3,335.5 212.2,337.5 210.7,339 209,341.3 207.1,348.5 206.2,350.7 
		205.6,353.9 206.7,358.3 206,360 204.8,361.5 203.7,361.7 203.2,358.9 208.5,338.7 211.3,335.7 212.4,333.9 207.9,336.2 
		203.4,347.8 199.7,352.2 200.8,352.4 203.2,353.5 202,354.1 201.1,354.3 200.1,354.2 198.5,353.5 198.9,355.1 199.3,355.8 
		200.2,356 202,355.9 202,357 200.2,358.2 198.9,360 198.6,362.2 	"/>
	<polygon id="Orange_Walk_4_" class="st6" points="217,100.2 179.4,110 170.5,115.2 169.4,118.3 169,119.8 168.9,121.6 169,122.9 
		169.6,125.3 169.7,126.4 169.7,128.7 168.6,133.5 168.5,134.2 168.6,135.2 169.1,139.2 169.1,140.3 168.6,144.5 168.7,145.8 
		169.5,148.1 169.7,149 169.7,150.2 168.9,151 167.5,151.6 165.8,152.1 160.8,154.5 158.9,157.5 156.7,163.8 156.6,167 158.7,192.9 
		156.3,192.1 155,192.4 151.5,194.1 149.6,194.5 146.7,195.5 141.7,198.9 138.7,200 134.8,200.5 130.3,200.3 127.8,200.6 
		126.1,200.4 122.1,200.6 119.1,200.4 116.6,200 115.4,200.4 114.2,201.8 113.2,203.2 111.4,204.5 109.1,205.2 89.4,207.5 
		88.1,207.2 86.7,206.6 84.9,206.7 82.5,207.6 75.5,212.3 70.4,216.6 69.4,167.1 68.7,128.5 68.5,112.9 69.8,105.8 71.1,104 
		73.4,100.6 87.5,95.4 91.1,96.7 93.9,99.2 96.4,102.1 99.3,104.3 101.3,104.5 103.2,104.1 104.8,104.5 107.1,109.5 109.3,111.2 
		116.1,115.2 117.6,114.8 118.6,113.3 119.4,109.4 120.2,108.1 128.8,101.5 130.4,99.6 132.8,92.6 133.6,91 136.1,88.9 138.4,87.5 
		140.5,86 142.1,83.3 142.6,81.4 143.2,77.3 143.6,75.6 147.8,68.4 148.4,66.4 147.8,63.9 147.2,63.4 152,59.7 157,57.4 159,55.8 
		160.7,53.1 161.2,51 162.9,51.4 173.7,56.2 181.4,61.9 193.7,78.9 	"/>
	<polygon id="Corozal_4_" class="st6" points="199,10 199.9,9.8 200.9,9.3 202.2,8.9 212.7,8.8 213.7,9 213.7,9 213.7,9.6 
		216.6,12.3 213.3,16.7 200.2,26.3 198.9,28.8 200.9,31.7 203.2,31.8 211.4,28.1 210.4,30.7 208.8,33.5 205,38.4 204,40 204.5,40.8 
		205.8,40.8 207.3,39.7 210.2,36.4 215.8,32.3 218.4,31.1 221.2,30.5 225,31.1 229.9,33.5 232.1,34.2 235.7,33.7 240.9,30.1 
		246.7,28.2 248.7,28 249.6,28.6 249.3,31.2 248.3,32.8 245,35.4 241.1,37.1 240.3,37.9 240.3,39.8 241.5,40.3 243,39.6 244.3,37.5 
		245.6,36.5 247.4,35.7 249,35.4 249.6,36.4 250.9,57.6 249.6,74.1 249,76.9 246.7,81.1 246.1,83.9 239.8,100.4 236.9,102.4 
		236.8,102.4 236.8,102.4 217,100.2 193.7,78.9 181.4,61.9 173.7,56.2 162.9,51.4 161.2,51 161.3,50.4 161.6,47.5 162.2,44.5 
		163.9,41.6 169.1,35.5 171.2,32.1 171.8,30.1 172.4,25.5 174,21.2 174.9,15.8 175.8,13.8 177.1,12.5 182.3,8.4 184,8.6 185.6,9.5 
		187.3,10 188.8,9.8 192.2,8.5 194,7.6 195.2,7.3 196,7.6 197.7,9.2 	"/>
	<polygon id="Cayo_4_" class="st6" points="163.1,255.2 162.6,256.9 163.2,258.4 165.6,262.5 168,264.5 169.1,265.8 169.1,267.3 
		168.3,268.1 167.3,268.7 166.8,269.5 165,273.2 164,276 162.9,278 161.9,279.5 160,281 159.1,281.8 158,283.8 152.9,289.5 
		152.6,290.3 152.6,291.1 152.7,291.9 152.7,292.9 152.3,295.3 152.3,296.2 152.5,298.5 152.4,299.4 152.1,300.1 151.6,300.7 
		151.1,301.2 149.5,301.9 148.5,302.9 148.2,303.4 148.3,304.1 150.6,305.7 151.2,306.4 151.1,307 150.6,307.5 149.9,307.7 
		146.9,308.2 143.7,309.3 142.7,309.9 141.9,310.7 137.2,318 136.3,320.7 134.5,324 133.5,327.5 133.5,328.3 134.1,330.5 
		131.2,330.7 129.9,331.4 129.4,331.8 128.4,332.8 126.6,335.2 126.2,336 126.1,336.8 126.8,339.7 126.9,340.7 126.4,342.5 
		123,346.1 120.3,348.2 119.5,348.5 118.2,348.9 117,349.5 112.4,353.1 110.9,354 109.9,354.3 109.1,354.1 108.1,354.4 106.2,355.2 
		105.2,355.9 104.5,356.6 103.7,357.7 103.7,358.3 103.9,359.8 103.2,360.3 96.6,362.9 95.6,363.1 94.9,363.1 94.3,362.8 
		93.2,361.5 92.6,361.1 92.1,360.7 91.3,360.4 90.9,360.7 89.8,361.9 86.3,365.3 85,366.3 83.9,366.8 81.1,367.2 79.8,367.6 
		79.2,367.7 77,367.9 71,370.4 70.2,370.9 69.5,371.8 69,372.6 68.9,373 68.7,373.9 68.5,374.6 68,375.3 66.8,376.8 66,377.7 
		65,378.9 63.2,381.8 64.7,363.4 67.8,313.5 70.6,267.3 70.4,216.6 75.5,212.3 82.5,207.6 84.9,206.7 86.7,206.6 88.1,207.2 
		89.4,207.5 109.1,205.2 111.4,204.5 113.2,203.2 114.2,201.8 115.4,200.4 116.6,200 119.1,200.4 122.1,200.6 126.1,200.4 
		127.8,200.6 130.3,200.3 134.8,200.5 138.7,200 141.7,198.9 146.7,195.5 149.6,194.5 151.5,194.1 155,192.4 156.3,192.1 
		158.7,192.9 162.6,191.2 163.7,189.4 164.7,187.2 166.1,186.4 166.7,187.5 167.1,190 168.8,225.5 168.6,232.1 168.8,233 
		170.7,235.8 172.2,239.2 172.3,241.2 172.3,242.8 171.4,244.9 171.2,246.2 170.6,248.1 170.2,249 169.9,249.4 169.5,249.6 
		169.2,250.1 168.9,250.8 168.8,251.6 168.2,252.7 167.9,253.1 167.5,253.5 166.9,253.8 	"/>
	<path id="Belize_4_" class="st5" d="M228.1,179.8l-1.6-1.5l-1.3-2.7l-6-3.1l-2-2.2l-0.7-4.3l0.8-3.8l1.8-3.3l4.4-5.3l1.3-3
		l4.1-14.8l2-14.9l-1-4.6l7-14l-19.9-2.2l-37.6,9.8l-9,5.2l-1.1,3.1l-0.4,1.5l-0.2,1.8l0.1,1.3l0.6,2.4l0.1,1.1l-0.1,2.3l-1,4.7
		l-0.1,0.8v1l0.5,4v1l-0.5,4.2l0.1,1.3l0.8,2.3l0.2,0.9l-0.1,1.2l-0.8,0.8l-1.4,0.6l-1.7,0.5l-5,2.4l-1.9,3l-2.2,6.3l-0.1,3.2
		l2.1,25.9l4-1.7l1-1.8l1-2.3l1.4-0.7l0.6,1.1l0.4,2.4l1.7,35.5l-0.2,6.6l0.2,0.9l1.9,2.8l1.4,3.4l0.1,2v1.6l-0.8,2.1l-0.2,1.3
		l-0.6,1.9l-0.4,0.9l-0.3,0.4l-0.4,0.2l-0.3,0.5l-0.3,0.6l-0.2,0.9l-0.6,1.1l-0.3,0.4l-0.4,0.4l-0.5,0.3l-3.8,1.4l44.8-0.8l1.6-0.5
		l0.9-0.5l3.5-1.3l2.2-2.3l0,0v-0.4l-0.7-3.4l-1.2-3.8l0.6-7l0.2-3.7l1.6-18.1l7-23.6l0.4-2.8l2-1.6l4.3,0.7h4.4l2-3.5l-1.6-1.5
		L228.1,179.8z M270.1,82.2l1.4-1.2l0.4-1.9l-0.5-0.5l-1,0.4h-0.5l-0.9,0.6l-1.2,1.8l0.5,1.1L270.1,82.2z M272.9,79.5l0.6,0.1
		l1.4-1.1l1-1.9l-0.1-1.9l-0.4-0.7l-0.3,0.3l-0.3,0.7l-0.3,1l-0.9,0.8l-0.9,0.5l-0.3,0.6l0.3,0.7L272.9,79.5z M285.7,61.7l0.6-1.8
		l0.1-0.9l-0.1-0.7l-0.6-0.3h-0.4l-0.6-0.1l-0.1,0.3l0.3,0.8l-0.1,0.4l-0.5-0.4l-0.7,1.1l-0.5,3.1l1,0.9L285.7,61.7z M251.5,148.6
		l1.6-5.8l-2,0.9l-9.6,6.6L238,152l-0.9,1.1l-0.2,0.5v0.8l5.5-0.5l5.3-1.8L251.5,148.6z M300.8,178.9l-2.1-1.8l-2.4-0.6l-2-0.1
		l-1.7,4.9l-0.1,1.1l1.3,0.2l1.6-0.9l1.9-1.7l1.4,2.3l-0.3,3.7l-1.3,3.5l-1.6,1.6l-2.1-0.3l-2.5-1.1l-1.7,0.2l-3.5,3.7l-2.9,2.2
		l-2.2,2l-1.3,2.8l-0.8,8.6l-1.6,6.3l-0.4,3.8l-0.2,0.6l-0.1,0.6l-0.2,0.6l-0.6,0.6l2.4,2.4l0.2-2.5l0.8-2.2l0.9-1.8l0.4-1.3l1.1-8
		l1.2-4.3l1.9-2.2l2.1-1.7l1.7-2.9l3.4,2.7l2.5-1.6l1.7-3l2.2-3.1l3.5-7l0.7-2.7L300.8,178.9z M294.6,202.6l-2.1,1.9l1.9,1.9
		l0.6,4.5l-0.1,10.8l0.4-0.9l0.4-0.7l0.6-0.5l1-0.3l0.1,0.6l-0.1,1.8h1.2v-4.2l0.3-1.8l0.8-1.3l-2.9-8.6L294.6,202.6z M279.4,98.4
		l1.3-7.7h-1.1l-0.2,1.6l-0.4,1.1l-1.6,2.4l-1.3-2.6V92l1.4-0.7l1-1l0.6-1.3l0.4-1.9l1.1,0.5l1.2,0.8l1.6-3.2l3.5-9.6l1.3-2l2.2-2.1
		l0.3-4l-1.7-2.4l-3.7,2.5l-2.7-1.1l-1.7,1.6l-2.5,9.4l-0.1,1.7l-0.4,1.4l-0.8,0.8l-0.8,0.6l-0.4,0.8L272.8,94l-0.7,5.6l2.7-0.1
		l-0.9,4.6L272,107l-6.2,4.5l-0.6,0.1l-1.8-0.1v1.2l7.3-2l5.3-5.2L279.4,98.4z M254.3,161.3l-2.3-2l2.2,9.9l1.5,4.2l0.9,1.7h1.1
		l-1.7-9.5L254.3,161.3z M248.9,181.5l-2.5-1l-1.1,0.8v1.1l0.5,0.5l0.6,0.9l1,1.2l1.5,0.7l1.4-0.2l0.2,0.8l0.2,3.7l0.3,1.5l1.2,0.1
		l0.7-1.6v-1.1l0.5-0.8l0.4-1.8L252,184L248.9,181.5z"/>
</g>
<text transform="matrix(1 0 0 1 399.7652 433.6366)" class="st3 st7 st8">Life Expectancy</text>
<text transform="matrix(1 0 0 1 399.7652 297.4647)" class="st3 st7 st8">Cost of Living</text>
<text transform="matrix(1 0 0 1 399.7652 342.287)" class="st3 st7 st8">Healthcare</text>
<text transform="matrix(1 0 0 1 399.7652 388.0097)" class="st3 st7 st8">Crime</text>
<rect x="397.3" y="138.5" class="st4" width="286.7" height="136"/>
<rect x="400.7" y="137.9" class="st4" width="273.9" height="188.8"/>
<text transform="matrix(1 0 0 1 400.7215 145.7805)"><tspan x="0" y="0" class="st9 st10 st11">“Belize is an independent and sovereign country located </tspan><tspan x="0" y="13.2" class="st9 st10 st11">on the north eastern coast of Central America. Belize is </tspan><tspan x="0" y="26.4" class="st9 st10 st11">bordered on the northwest by Mexico, on the east by </tspan><tspan x="0" y="39.6" class="st9 st10 st11">the Caribbean Sea, and on the south and west by </tspan><tspan x="0" y="52.8" class="st9 st10 st11">Guatemala. It has an area of 22,970 square kilometres </tspan><tspan x="0" y="66" class="st9 st10 st11">(8,867 sq mi) and a population of 387,879 (2017).[5] Its </tspan><tspan x="0" y="79.2" class="st9 st10 st11">mainland is about 180 mi (290 km) long and 68 mi (110 </tspan><tspan x="0" y="92.4" class="st9 st10 st11">km) wide. It has the lowest population and population </tspan><tspan x="0" y="105.6" class="st9 st10 st11">density in Central America”.</tspan><tspan x="135.1" y="105.6" class="st9 st12 st11"> Source: Wikipedia</tspan></text>
<text transform="matrix(1 0 0 1 399.3329 21.3339)" class="st3 st7 st13">Capital:</text>
<text transform="matrix(1 0 0 1 448.3329 21.3339)" class="st14 st7 st13"> </text>
<text transform="matrix(1 0 0 1 451.2329 21.3339)" class="st15 st10 st11">Belmopan</text>
<text transform="matrix(1 0 0 1 399.3329 39.3339)" class="st3 st7 st13">Population:</text>
<text transform="matrix(1 0 0 1 473.8329 39.3339)" class="st14 st10 st11"> </text>
<text transform="matrix(1 0 0 1 476.9329 39.3339)" class="st15 st10 st11">385,854</text>
<text transform="matrix(1 0 0 1 399.3329 57.3338)" class="st3 st7 st13">Language:</text>
<text transform="matrix(1 0 0 1 465.1329 57.3338)" class="st16 st10 st11"> </text>
<text transform="matrix(1 0 0 1 468.1329 57.3338)" class="st15 st10 st11">English 62.9% (official), Spanish 56.6%, </text>
<text transform="matrix(1 0 0 1 399.3329 70.5338)" class="st15 st10 st11">Creole 44.6% </text>
<text transform="matrix(1 0 0 1 399.3329 88.5339)" class="st3 st7 st13">Climate:</text>
<text transform="matrix(1 0 0 1 452.733 88.5339)" class="st14 st17 st11"> </text>
<text transform="matrix(1 0 0 1 455.8329 88.5339)" class="st15 st10 st11">tropical; very hot and humid; rainy</text>
<text transform="matrix(1 0 0 1 399.3329 101.7339)" class="st15 st10 st11">season (May to November); dry season </text>
<text transform="matrix(1 0 0 1 399.3329 114.9339)" class="st15 st10 st11">(February to May)</text>
<path class="st1" d="M635,309.7H399.3c-1.1,0-2-0.9-2-2l0,0c0-1.1,0.9-2,2-2H635c1.1,0,2,0.9,2,2l0,0
	C636.9,308.8,636,309.7,635,309.7z"/>
<path class="st2" d="M470.6,312.5h-69.3c-2.2,0-3.9-1.8-3.9-3.9v-1.8c0-2.2,1.8-3.9,3.9-3.9h69.3c2.2,0,3.9,1.8,3.9,3.9v1.8
	C474.5,310.7,472.7,312.5,470.6,312.5z"/>
<path class="st1" d="M635,354.9H399.3c-1.1,0-2-0.9-2-2l0,0c0-1.1,0.9-2,2-2H635c1.1,0,2,0.9,2,2l0,0C636.9,354,636,354.9,635,354.9
	z"/>
<path class="st2" d="M513.2,358H401.3c-2.2,0-3.9-1.8-3.9-3.9V352c0-2.2,1.8-3.9,3.9-3.9h111.9c2.2,0,3.9,1.8,3.9,3.9v2.1
	C517.1,356.2,515.4,358,513.2,358z"/>
<path class="st1" d="M635,400.2H399.3c-1.1,0-2-0.9-2-2l0,0c0-1.1,0.9-2,2-2H635c1.1,0,2,0.9,2,2l0,0
	C636.9,399.3,636,400.2,635,400.2z"/>
<path class="st2" d="M531.3,403.1H401c-2,0-3.6-1.8-3.6-3.9v-1.8c0-2.2,1.7-3.9,3.6-3.9h130.3c2,0,3.6,1.8,3.6,3.9v1.8
	C535,401.3,533.4,403.1,531.3,403.1z"/>
<path class="st1" d="M635,446.1H399.3c-1.1,0-2-0.9-2-2l0,0c0-1.1,0.9-2,2-2H635c1.1,0,2,0.9,2,2l0,0
	C636.9,445.2,636,446.1,635,446.1z"/>
<path class="st2" d="M596.5,449.1H401.3c-2.2,0-3.9-1.8-3.9-3.9v-1.8c0-2.2,1.8-3.9,3.9-3.9h195.2c2.2,0,3.9,1.8,3.9,3.9v1.8
	C600.4,447.4,598.6,449.1,596.5,449.1z"/>
<polygon class="st3" points="653.4,296.7 653.4,303.2 644.2,308 653.4,312.2 653.4,318.6 675.3,318.6 675.3,296.7 "/>
<polygon class="st3" points="653.4,341.9 653.4,348.4 644.2,353.2 653.4,357.3 653.4,363.8 675.3,363.8 675.3,341.9 "/>
<polygon class="st3" points="653.4,387.3 653.4,393.7 644.2,398.5 653.4,402.7 653.4,409.2 675.3,409.2 675.3,387.3 "/>
<polygon class="st3" points="653.4,433.2 653.4,439.7 644.2,444.4 653.4,448.6 653.4,455.1 675.3,455.1 675.3,433.2 "/>
<text transform="matrix(1 0 0 1 657.7631 311.5071)" class="st18 st17 st11">30</text>
<text transform="matrix(1 0 0 1 658.7634 356.9701)" class="st18 st17 st11">45</text>
<text transform="matrix(1 0 0 1 657.7629 402.0516)" class="st18 st17 st11">56</text>
<text transform="matrix(1 0 0 1 657.7633 448.093)" class="st18 st17 st11">81</text>
<line class="st42" x1="218.9" y1="452.9" x2="313.1" y2="452.9"/>
<line class="st42" x1="218.5" y1="456.4" x2="320.2" y2="456.4"/>
<line class="st43" x1="218.9" y1="449.2" x2="218.9" y2="453.4"/>
<line class="st43" x1="249.9" y1="449.2" x2="249.9" y2="452.9"/>
<line class="st43" x1="281.6" y1="449.2" x2="281.6" y2="452.9"/>
<line class="st43" x1="313.1" y1="449.2" x2="313.1" y2="453.4"/>
<rect x="216.8" y="441.8" class="st4" width="115" height="8.3"/>
<text transform="matrix(1 0 0 1 216.8344 447.5337)" class="st10 st44">0          20           40          60 km</text>
<rect x="216.8" y="461.3" class="st4" width="121" height="8.5"/>
<text transform="matrix(1 0 0 1 216.8344 467.0722)" class="st10 st44">0                   20                   40 mi</text>
<line class="st43" x1="218.7" y1="456.1" x2="218.7" y2="460.2"/>
<line class="st43" x1="269.3" y1="456.1" x2="269.3" y2="459.8"/>
<line class="st43" x1="319.9" y1="456.1" x2="319.9" y2="460.2"/>
<circle cx="82.7" cy="245.3" r="4"/>
<circle cx="169.9" cy="82" r="4"/>
<rect x="121" y="212.5" class="st4" width="60.1" height="12.6"/>
<text transform="matrix(1 0 0 1 121.0059 218.9081)" class="st45 st10 st46">Belmopan</text>
<rect x="73.6" y="228.5" class="st4" width="74.7" height="19.4"/>
<text transform="matrix(1 0 0 1 73.5746 234.9098)" class="st45 st10 st46">San Ignacio</text>
<rect x="159.3" y="66.2" class="st4" width="74.5" height="8.7"/>
<text transform="matrix(1 0 0 1 159.3069 72.6321)" class="st45 st10 st46">Orange  Walk</text>
<g>
	<circle cx="135.2" cy="227.5" r="4"/>
	<polygon class="st18" points="135.2,223.5 136,226.2 139,226.2 136.5,227.8 137.5,230.6 135.2,228.7 132.9,230.6 133.9,227.8 
		131.5,226.2 134.2,226.3 	"/>
</g>
</svg>
