<?xml version="1.0" encoding="utf-8"?>
<!-- Generator: Adobe Illustrator 23.0.1, SVG Export Plug-In . SVG Version: 6.00 Build 0)  -->
<svg version="1.1" id="Layer_1" xmlns="http://www.w3.org/2000/svg" xmlns:xlink="http://www.w3.org/1999/xlink" x="0px" y="0px"
	 viewBox="0 0 720 515.3" style="enable-background:new 0 0 720 515.3;" xml:space="preserve">
<style type="text/css">
	.st0{display:none;}
	.st1{fill:none;}
	.st2{fill:#A8A8A8;}
	.st3{fill:#89CCA3;stroke:#0FB753;stroke-width:0.25;stroke-miterlimit:10;}
	.st4{fill:#143C75;}
	.st5{font-family:'Bulo-Black';}
	.st6{font-size:14.5939px;}
	.st7{font-size:36px;}
	.st8{fill:#565556;}
	.st9{font-family:'ArialMT';}
	.st10{font-size:11px;}
	.st11{font-size:15px;}
	.st12{fill:#E5367A;}
	.st13{fill:#606060;}
	.st14{fill:#3D3D3D;}
	.st15{font-family:'Arial-BoldMT';}
	.st16{fill:#FFFFFF;}
	.st17{fill:#8D90C7;stroke:#FFFFFF;stroke-width:0.5;stroke-miterlimit:10;}
	.st18{fill-rule:evenodd;clip-rule:evenodd;fill:#8D90C7;stroke:#FFFFFF;stroke-width:0.5;stroke-miterlimit:10;}
	.st19{fill-rule:evenodd;clip-rule:evenodd;fill:#F8A25E;stroke:#FFFFFF;stroke-width:0.5;}
	.st20{fill-rule:evenodd;clip-rule:evenodd;fill:#3A9DB4;stroke:#FFFFFF;stroke-width:0.5;stroke-miterlimit:10;}
	.st21{fill:#3A9DB4;stroke:#FFFFFF;stroke-width:0.5;stroke-miterlimit:10;}
	.st22{fill-rule:evenodd;clip-rule:evenodd;fill:#F1E355;stroke:#FFFFFF;stroke-width:0.5;stroke-miterlimit:10;}
	.st23{fill:#F1E355;stroke:#FFFFFF;stroke-width:0.5;stroke-miterlimit:10;}
	.st24{fill-rule:evenodd;clip-rule:evenodd;fill:#D96CA9;stroke:#FFFFFF;stroke-width:0.5;stroke-miterlimit:10;}
	.st25{fill:#D96CA9;stroke:#FFFFFF;stroke-width:0.5;stroke-miterlimit:10;}
	.st26{fill:#D96CA9;}
	.st27{fill:#9ECF85;stroke:#FFFFFF;stroke-width:0.5;stroke-miterlimit:10;}
	.st28{fill-rule:evenodd;clip-rule:evenodd;fill:#9ECF85;stroke:#FFFFFF;stroke-width:0.5;stroke-miterlimit:10;}
	.st29{fill:#73AFDF;}
	.st30{fill-rule:evenodd;clip-rule:evenodd;fill:#F49294;stroke:#FFFFFF;stroke-width:0.5;}
	.st31{fill:#F49294;stroke:#FFFFFF;stroke-width:0.5;}
	.st32{fill:#77AE87;stroke:#FFFFFF;stroke-width:0.5;stroke-miterlimit:10;}
	.st33{fill-rule:evenodd;clip-rule:evenodd;fill:#77AE87;stroke:#FFFFFF;stroke-width:0.5;stroke-miterlimit:10;}
	.st34{fill-rule:evenodd;clip-rule:evenodd;fill:#D0B0CE;stroke:#FFFFFF;stroke-width:0.5;}
	.st35{fill:#D0B0CE;stroke:#FFFFFF;stroke-width:0.5;}
	.st36{fill:#BF84BE;}
	.st37{fill:#F37B58;stroke:#FFFFFF;stroke-width:0.5;stroke-miterlimit:10;}
	.st38{fill-rule:evenodd;clip-rule:evenodd;fill:#F37B58;stroke:#FFFFFF;stroke-width:0.5;stroke-miterlimit:10;}
	.st39{fill:#F37B58;}
	.st40{fill-rule:evenodd;clip-rule:evenodd;fill:#F6B3CD;stroke:#FFFFFF;stroke-width:0.5;stroke-miterlimit:10;}
	.st41{fill:#F6B3CD;stroke:#FFFFFF;stroke-width:0.5;stroke-miterlimit:10;}
	.st42{fill:none;stroke:#000000;stroke-width:0.75;stroke-miterlimit:10;}
	.st43{fill:none;stroke:#000000;stroke-width:0.5;stroke-miterlimit:10;}
	.st44{fill:#33353D;}
	.st45{font-size:9px;}
</style>
<g id="Costa_Rica_1_" class="st0">
	
		<image style="display:inline;overflow:visible;" width="1200" height="1018" id="Layer_0_1_" xlink:href="4F027279392F1852.png"  transform="matrix(0.4215 0 0 0.4215 -108.5329 30.4495)">
	</image>
</g>
<text transform="matrix(1 0 0 1 399.7656 433.6366)" class="st4 st5 st6">Life Expectancy</text>
<text transform="matrix(1 0 0 1 399.7656 297.4647)" class="st4 st5 st6">Cost of Living</text>
<text transform="matrix(1 0 0 1 399.7656 342.287)" class="st4 st5 st6">Healthcare</text>
<text transform="matrix(1 0 0 1 399.7656 388.0097)" class="st4 st5 st6">Crime</text>
<rect x="397.3" y="138.5" class="st1" width="286.7" height="136"/>
<text transform="matrix(1 0 0 1 397.3337 163.8929)" class="st4 st5 st7">C</text>
<text transform="matrix(1 0 0 1 418.3337 163.8929)" class="st8 st9 st10">osta Rica ipsum dolor sit amet, consectetuer adipiscing elit, </text>
<text transform="matrix(1 0 0 1 397.3337 177.093)" class="st8 st9 st10">sed diam nonummy nibh euismod tincidunt ut laoreet </text>
<text transform="matrix(1 0 0 1 397.3337 190.293)" class="st8 st9 st10">dolore magna aliquam erat volutpat. Ut wisi enim ad minim </text>
<text transform="matrix(1 0 0 1 397.3337 203.4929)" class="st8 st9 st10">veniam, quis nostrud exerci tation ullamcorper suscipit </text>
<text transform="matrix(1 0 0 1 397.3337 216.6928)" class="st8 st9 st10">lobortis nisl ut aliquip ex ea commodo consequat. Duis </text>
<text transform="matrix(1 0 0 1 397.3337 229.8928)" class="st8 st9 st10">autem vel eum iriure dolor in hendrerit in vulputate velit </text>
<text transform="matrix(1 0 0 1 397.3337 243.0928)" class="st8 st9 st10">esse molestie uis autem vel eum iriure dolor in hendrerit in </text>
<text transform="matrix(1 0 0 1 397.3337 256.2928)" class="st8 st9 st10">vulputate velit esse molestie</text>
<text transform="matrix(1 0 0 1 399.3335 21.334)" class="st4 st5 st11">Capital:</text>
<text transform="matrix(1 0 0 1 448.3335 21.334)" class="st12 st5 st11"> </text>
<text transform="matrix(1 0 0 1 451.2334 21.334)" class="st13 st9 st10">San Jose</text>
<text transform="matrix(1 0 0 1 399.3335 39.334)" class="st4 st5 st11">Population:</text>
<text transform="matrix(1 0 0 1 473.8335 39.334)" class="st12 st9 st10"> </text>
<text transform="matrix(1 0 0 1 476.9336 39.334)" class="st13 st9 st10">4,987,142</text>
<text transform="matrix(1 0 0 1 399.3335 57.3339)" class="st4 st5 st11">Language:</text>
<text transform="matrix(1 0 0 1 465.1335 57.3339)" class="st14 st9 st10"> </text>
<text transform="matrix(1 0 0 1 468.1335 57.3339)" class="st13 st9 st10">Spanish (official), English</text>
<text transform="matrix(1 0 0 1 399.3335 75.8114)" class="st4 st5 st11">Climate:</text>
<text transform="matrix(1 0 0 1 452.7334 88.5339)" class="st12 st15 st10"> </text>
<text transform="matrix(1 0 0 1 455.8335 75.8114)" class="st13 st9 st10">tropical and subtropical; dry season</text>
<text transform="matrix(1 0 0 1 399.3335 89.0113)" class="st13 st9 st10">(December to April); rainy season (May to November);</text>
<text transform="matrix(1 0 0 1 399.3335 102.2113)" class="st13 st9 st10">cooler in highlands</text>
<path class="st2" d="M635,309.7H399.3c-1.1,0-2-0.9-2-2l0,0c0-1.1,0.9-2,2-2H635c1.1,0,2,0.9,2,2l0,0
	C636.9,308.8,636,309.7,635,309.7z"/>
<path class="st3" d="M470.6,312.5h-69.3c-2.2,0-3.9-1.8-3.9-3.9v-1.8c0-2.2,1.8-3.9,3.9-3.9h69.3c2.2,0,3.9,1.8,3.9,3.9v1.8
	C474.5,310.7,472.7,312.5,470.6,312.5z"/>
<path class="st2" d="M635,354.9H399.3c-1.1,0-2-0.9-2-2l0,0c0-1.1,0.9-2,2-2H635c1.1,0,2,0.9,2,2l0,0C636.9,354,636,354.9,635,354.9
	z"/>
<path class="st3" d="M513.2,358H401.3c-2.2,0-3.9-1.8-3.9-3.9V352c0-2.2,1.8-3.9,3.9-3.9h111.9c2.2,0,3.9,1.8,3.9,3.9v2.1
	C517.1,356.2,515.4,358,513.2,358z"/>
<path class="st2" d="M635,400.2H399.3c-1.1,0-2-0.9-2-2l0,0c0-1.1,0.9-2,2-2H635c1.1,0,2,0.9,2,2l0,0
	C636.9,399.3,636,400.2,635,400.2z"/>
<path class="st3" d="M541.4,403.1H401.3c-2.2,0-3.9-1.8-3.9-3.9v-1.8c0-2.2,1.8-3.9,3.9-3.9h140.1c2.2,0,3.9,1.8,3.9,3.9v1.8
	C545.3,401.3,543.6,403.1,541.4,403.1z"/>
<path class="st2" d="M635,446.1H399.3c-1.1,0-2-0.9-2-2l0,0c0-1.1,0.9-2,2-2H635c1.1,0,2,0.9,2,2l0,0
	C636.9,445.2,636,446.1,635,446.1z"/>
<path class="st3" d="M596.5,449.1H401.3c-2.2,0-3.9-1.8-3.9-3.9v-1.8c0-2.2,1.8-3.9,3.9-3.9h195.2c2.2,0,3.9,1.8,3.9,3.9v1.8
	C600.4,447.4,598.6,449.1,596.5,449.1z"/>
<polygon class="st4" points="653.4,296.7 653.4,303.2 644.2,308 653.4,312.2 653.4,318.6 675.3,318.6 675.3,296.7 "/>
<polygon class="st4" points="653.4,341.9 653.4,348.4 644.2,353.2 653.4,357.3 653.4,363.8 675.3,363.8 675.3,341.9 "/>
<polygon class="st4" points="653.4,387.3 653.4,393.7 644.2,398.5 653.4,402.7 653.4,409.2 675.3,409.2 675.3,387.3 "/>
<polygon class="st4" points="653.4,433.2 653.4,439.7 644.2,444.4 653.4,448.6 653.4,455.1 675.3,455.1 675.3,433.2 "/>
<text transform="matrix(1 0 0 1 657.7637 311.5071)" class="st16 st15 st10">30</text>
<text transform="matrix(1 0 0 1 658.7642 356.9701)" class="st16 st15 st10">45</text>
<text transform="matrix(1 0 0 1 657.7637 402.0516)" class="st16 st15 st10">56</text>
<text transform="matrix(1 0 0 1 657.7639 448.093)" class="st16 st15 st10">83</text>
<g id="Costa_Rica">
	<polygon id="San_Jose" class="st20" points="224.4,173.6 225.9,178.7 226.1,179.2 226.5,179.7 227.5,180.5 228.4,181.1 
		228.8,181.4 229.1,181.6 231.2,184 231.6,184.6 231.9,185.6 232.1,188.4 232.6,190.8 232.4,191.7 232,192.1 231.6,192.5 231,192.7 
		229.7,192.9 228.4,194.3 228,194.4 227.6,194.5 227.3,194.4 227.1,194.3 226.1,194.2 223.3,194.2 223.1,194.2 218.2,196 
		215.4,200.7 215.2,201.6 215.4,201.7 215.8,202 217.9,202.9 214.8,207.9 214,208.8 212.7,209.7 210.8,211.4 210.1,212.6 
		209.8,213.3 209.7,213.8 209.7,214.1 209.8,214.4 209.9,214.7 210,214.9 210.3,215 210.6,215 210.9,215 212.2,214.5 213.1,214.3 
		213.4,214.2 214,214.3 214.6,214.5 218.6,213.6 219.5,213.7 219.7,214.8 219.9,215.3 220.1,215.8 220.8,217.2 222.9,217.8 
		223.5,218.4 223.6,218.6 223.6,218.8 224.5,220.4 226.9,223.5 227.5,224.1 227.8,224.1 229.1,224.6 231.3,225.7 231.9,225.8 
		232.1,225.7 232.4,225.6 232.7,225.4 233.1,225.4 234,225.5 234.4,225.6 234.7,225.8 234.9,226 235.7,227.4 236.4,228.9 
		236.5,229.2 236.7,229.7 237.2,230.6 237.7,231.4 238.1,231.8 238.4,232.1 238.7,232.2 241,232.7 241.6,232.7 243.6,232.4 
		244.8,234.1 245.1,234.4 245.6,234.7 247.3,235.2 247.7,235.5 248,235.8 248.2,236.1 248.5,237.2 248.7,238.7 248.9,238.8 
		249.1,238.9 250.6,238.1 251.1,237.9 251.5,237.9 252.7,238 253.1,238 253.4,237.9 253.7,237.9 254,237.8 254.2,237.6 254.4,237.5 
		254.6,237.3 254.8,237.1 255.3,236.1 255.7,235.6 257,235.3 259.7,238.1 260.7,238.9 261.7,239.4 262,239.5 273.3,246.4 
		276.9,256.2 277.8,257.5 278.1,257.8 279.5,258.8 277.1,261.3 276.8,261.7 276.5,262.2 275.8,264.9 275.5,265.5 275.3,265.9 
		272.3,269.2 272,269.8 271.9,270.1 270.8,275.5 270.9,275.8 271,276 271.2,276.2 272.2,276.4 272.4,276.5 272.6,276.7 272.8,276.9 
		273,277 273.2,277.1 273.5,277.1 273.8,277.1 274.1,277.1 274.3,277.2 274.4,277.4 274.5,277.7 274.6,278 274.8,278.4 274.9,279 
		275,280.3 274.7,281 273.9,282.5 273.8,283 273.7,283.5 274,286 273.9,286.6 273.8,287 273.6,287.1 273.3,287.3 273.1,287.4 
		272.8,287.6 272.4,288 271.2,289.6 271,289.8 270.8,290 270.6,290 270.3,290.1 270,290 269.7,289.9 269.2,289.6 269,289.5 
		268.6,288.9 268.1,288.5 267.8,288.4 267.5,288.4 267.2,288.4 266.3,288.5 265.1,288.6 264.9,288.5 255.1,282.2 254.4,281.3 
		254.1,280.9 254,280.6 253.2,277.9 253.1,277.6 253.1,277.3 252.7,276.6 250.3,273.6 248.8,272.2 247.7,271.7 247.4,271.6 
		247.1,271.5 246.8,271.5 246.5,271.6 246.2,271.7 245.9,271.8 245.6,271.9 245.5,272.1 244.5,273.4 244.3,273.6 244.1,273.7 
		243.9,273.8 243.6,273.9 242.8,273.7 237.4,271.2 236.7,270.6 236.3,270.1 236,269.7 235.5,268.6 234.8,266.4 234.6,265.2 
		234.6,264.6 234.7,263.5 234.4,262.8 233.6,261.9 230.2,258.3 230.1,258.1 229.6,256 229.4,255.5 228.7,254.2 228.3,253.8 
		228,253.5 227.7,253.5 227.4,253.5 227.1,253.5 226.8,253.6 226.5,253.7 226.3,253.9 226.1,254 225.9,254.2 225.8,254.5 
		224.1,253.9 217.1,249.2 214.7,246.8 212.9,243.5 210.6,242.4 210.2,241.7 210.4,241.2 210.7,240.7 210.8,240.2 210.8,239.6 
		210.5,238.2 210.3,237.6 210.1,237.2 209.8,237.1 209.3,236.9 208.3,236.7 206.9,236.7 205.9,236.9 205.4,236.8 204.6,236.5 
		203.8,235.8 203.4,235.3 203.2,234.9 203.2,234.6 203.3,233.9 203.5,233 203.5,232.5 203.5,232 203.2,231.2 203,230.7 202.6,230.4 
		202.3,230.3 201.4,230.2 196.6,230.6 195,230.5 193.6,229.9 189.7,230 188.6,229.8 188.4,229.6 187.7,228.7 187.3,228.4 
		186.7,227.9 185.1,227.8 180.5,228 177.7,228.5 176.5,228.5 175.9,228.6 175.6,228.8 175.6,229.1 176,231.2 175.9,231.9 
		175.8,232.2 175.6,232.5 175.2,232.9 174,233.9 173.7,234.1 173.5,234.4 172.9,235.7 172.6,235.9 172.3,236.1 172,236.1 
		171.6,236.1 171.4,236 171.1,235.9 170.9,235.7 170.4,235.1 170.2,235 169.9,234.8 169.6,234.8 169.3,234.8 167.6,235.3 
		167.2,235.3 166.9,235.2 166.2,234.9 162.8,235.5 161.7,235.3 161.4,235.1 160.6,234.4 160,233.5 159.5,232.4 159.2,231.6 
		158.5,228 158.4,227.8 156,223.6 155.8,222.9 155.7,222.6 155.8,220.5 155.6,219.2 154.7,216.4 154.7,216.1 154.7,215.8 
		154.8,215.6 154.9,215.4 155.2,215.2 155.4,215 155.7,215 156.3,214.9 158.4,215 158.7,215 159,214.9 159.3,214.8 159.5,214.6 
		159.7,214.3 159.9,213.9 160.1,213 160,212.4 159.9,212 159.4,211 158.8,210.1 158.6,209.9 158.2,209.5 157.7,209.2 157,208.8 
		156,208.3 156.9,207.5 157.7,207.5 157.9,207.3 158,206.5 158.2,206.1 160.2,203.6 160.2,203.2 160.2,203 160.5,202.6 161.2,202 
		163.1,201.1 164.3,199.8 164.4,199.6 164.5,199.4 165.4,198.9 168.7,197.4 173.5,197 176.1,196.5 178.2,197.1 180.3,197.5 
		180.7,197.6 181.2,197.7 182.5,197.9 183.1,198 185,197.8 192.2,195.8 195.2,194.8 196.7,193.1 198.6,192.7 200.7,193.8 202,194.3 
		205.9,192.5 206.4,192.5 209.2,192.7 210.3,192.5 213.1,191.6 215.2,190.4 216.5,186.8 217.2,184.6 217.1,183.8 216.7,183.4 
		216.2,183 215.3,182 215.2,179.4 214.9,178.5 213.5,177 211,173.3 210.6,172.4 210.5,171.9 211.1,171.7 215.8,171.3 217.9,170.9 
		220.3,170.7 220.8,170.5 221.4,169.8 223.5,167.1 227.5,166.7 226.5,167.7 225.8,168.7 	"/>
	<path id="Puntarenas" class="st21" d="M92,179.3l1.9,0.8l1.8,0.2l1.8-0.2l1.6-0.4l1.3-0.5v-0.7l-1.1,0l-0.9-0.2l-0.6-0.5l-1-0.3
		l-0.5,0l-1-0.5H99v-0.7l-3.2-1l-3.4-0.6l-0.9,0.1l-2,0.7l1.5,2.8L92,179.3z M119.7,206.9l-1.6-0.7l1.3-1.3l0.8-0.6l0.9-0.3
		l-1.4-1.4l-1.3-1.8l-0.1-1.6l2.1-0.5V198l-1.2-1.1l-2.7-1.7l-1.3-1l-1.9,0.8l-2.1-0.1l-1.9-0.6l-4.1-2.4l-1.7-0.7l-0.8,0.3
		l-0.8-0.5l-6.5-2.7l-2.5-2.2l0,0l-1.1,3.5l-0.6,0.9l-2.4,0.6l-0.5,0.2l-2.8,1.6l-0.5,0.1l-0.2-0.1l-0.2-0.2l-0.2-0.2l-0.2-0.2
		l-0.7,0.1l-1.1,0.4l-2.6,1.3l-1,0.9l-0.4,0.8l0.2,0.6l0.4,0.5l0.4,0.4l0.5,0.2l0.5,0.1l1-0.1l0.3,0l0.3,0l1,0.2l0.3,0.1l0.5,0.3
		l0.3,0.1l0.3,0.1l1,0l0.6,0.1l0.7,0.4l0.8,0.3l0.3,0.1l0.2,0.2l0.5,0.6l0.6,0.5l0.3,0.5l0.1,0.3l0.1,0.2l0.2,0.5l0.1,0.6l0.2,0.6
		l0.1,0.2l0.2,0.2l0.3,0.1l1.6,0.4l0.2,0.2l0,0.3l-0.3,0.7l-0.4,1.1l-1.1,4.2l0,0.7l0.1,0.5l0.3,0.3l0,0.2l-0.1,0.2l-0.6,0.5
		l-0.2,0.3l-0.2,0.5l-0.3,0.9l-0.2,0.5l-0.3,0.3l-0.3,0.2l-0.3,0.3l-0.7,1.4l-0.3,0.2l-0.2,0l-0.6,0.3l-0.3,0.3l0,0l0,0l8.9,12.2
		l3,6.2H99l1.3-1.7l1-1.9l2.3-7.5l0.5-0.9l2.5-1.3l0.4-0.6l0.6-0.1l3.5-1.7l0.3-0.4l-1.7-2.1l-0.5-0.9l0.8-1.4l1.8,0.1l3.4,1.7
		l0.4-0.8l0.6-2l0.5-0.8l2.5-1.4l0.4-0.4l0.7-1.9l1.7-1.1l1.9-0.8l1.5-1V207l-3.9,0.1L119.7,206.9z M229.3,329.1l0.6,0.6l1.3,0.3
		l0.8-0.3l0.1-1.3l-1.5,0.1L229.3,329.1z M355.2,304.7l-2.8-4.7l-1.5-1l-4.9-1.7l-4.9-3.7l-2.4-1.1l-0.6-0.4l-0.5-0.7l-0.3-0.9
		L337,290l-0.7-0.6l-1,0l-3.2,1.4l0-1.2l-0.1-0.1l-1-0.8l-0.3-0.2l-1.7-0.6l-1.8-1.8l-0.5-0.8l-0.7-1.9l-0.6-0.9l-0.4-0.3l-0.7-0.3
		l-3.7-1l-0.3-0.2l-0.3-0.3l-0.3-0.6l-0.1-0.4l-1.2-5.8l-0.4-1.1l-0.2-0.5l-0.2-0.2l-0.2-0.2l-0.2-0.2l-3.8-2.2l-0.4-0.3l-0.8-0.7
		l-4.2-5.4l-0.5-0.1l-0.7-0.1l-2.3,0.2l-1.5,0.3h-0.4l-0.6-0.1l-0.8-0.2l-1.7-0.9l-1-0.7l-0.5-0.3l-2-0.7l-0.5-0.2l-0.2-0.2
		l-0.2-0.1l-2-1.7l-0.5-0.3l-0.5-0.3l-0.4,0l-0.5,0.1l-0.8,0.4l-0.4,0.3l-0.3,0.3l-1.3,1.8l-0.2,0.2l-0.5,0.2l-2,0.2l-0.6,0.1
		l-0.4,0.2l-0.4,0.4l-0.2,0.2l-0.2,0.1l-0.2,0l-0.2-0.1l-0.3-0.8l-0.1-0.4l-0.1-0.3l-0.4-0.3l-0.3-0.2l-2.8-0.8l-2.3,2.5l-0.3,0.4
		l-0.3,0.6l-0.7,2.6l-0.3,0.6l-0.2,0.4l-2.9,3.3l-0.3,0.5l-0.1,0.3l-1.1,5.5l0,0.3l0.1,0.2l0.2,0.1l0.9,0.2l0.2,0.1l0.2,0.2l0.2,0.2
		l0.2,0.2l0.2,0.1h0.3l0.3-0.1l0.3,0l0.2,0.1l0.1,0.2l0.1,0.3l0.1,0.2l0.2,0.4l0.1,0.6l0.1,1.3l-0.2,0.7l-0.8,1.5l-0.2,0.6l-0.1,0.5
		l0.3,2.5l-0.1,0.6l-0.1,0.4l-0.2,0.2l-0.2,0.1l-0.2,0.1l-0.3,0.2l-0.4,0.4l-1.2,1.6l-0.2,0.2l-0.2,0.1l-0.3,0.1l-0.3,0L270,290
		l-0.3-0.1l-0.5-0.3l-0.2-0.2l-0.5-0.6l-0.5-0.3l-0.3-0.1l-0.4,0l-0.3,0l-0.9,0.1l-1.2,0.1l-0.2-0.1l-9.7-6.3l-0.7-0.9l-0.3-0.4
		l-0.1-0.2l-0.8-2.8l-0.1-0.3l0-0.3l-0.4-0.7l-2.4-3l-1.5-1.4l-1-0.5l-0.3-0.1l-0.3-0.1h-0.3l-0.3,0.1l-0.3,0.1l-0.3,0.1l-0.2,0.1
		l-0.2,0.2l-0.9,1.3l-0.2,0.2l-0.2,0.2l-0.3,0.1l-0.3,0l-0.8-0.2l-5.3-2.4l-0.7-0.7l-0.4-0.5l-0.3-0.4l-0.5-1.1l-0.7-2.2l-0.2-1.2
		l0-0.7l0.1-1.1l-0.4-0.7l-0.7-0.9l-3.5-3.5l-0.1-0.3l-0.4-2.1l-0.2-0.4l-0.8-1.4l-0.4-0.4l-0.3-0.2l-0.3-0.1h-0.3l-0.3,0l-0.3,0.1
		l-0.2,0.1l-0.2,0.1l-0.2,0.2l-0.2,0.2l-0.1,0.2l-1.7-0.5l-7-4.7l-2.4-2.4l-1.8-3.4l-2.3-1.1l-0.4-0.7l0.2-0.5l0.3-0.5l0.1-0.5
		l0-0.7l-0.2-1.4l-0.2-0.6l-0.2-0.4l-0.3-0.2l-0.6-0.2l-1-0.1l-1.4,0l-1,0.2l-0.5-0.1l-0.8-0.3l-0.8-0.7l-0.4-0.5l-0.2-0.4l0-0.3
		l0.1-0.7l0.2-0.9l0-0.4l0-0.5l-0.2-0.9l-0.3-0.5l-0.4-0.3l-0.3-0.1l-1-0.1l-4.8,0.4l-1.6-0.1l-1.4-0.6l-3.8,0.1l-1.1-0.2l-0.2-0.2
		l-0.7-0.9l-0.4-0.3l-0.6-0.5l-1.6-0.1l-4.6,0.2l-2.8,0.5l-1.3,0l-0.6,0.1l-0.3,0.2l0,0.3l0.4,2.2l-0.1,0.6l-0.1,0.3l-0.2,0.3
		l-0.4,0.4l-1.2,1l-0.3,0.3l-0.2,0.2l-0.7,1.3l-0.3,0.3l-0.3,0.1l-0.3,0l-0.3,0l-0.3-0.1l-0.2-0.1l-0.2-0.2l-0.5-0.6l-0.2-0.2
		l-0.3-0.1l-0.3,0l-0.3,0l-1.7,0.4l-0.4,0l-0.3,0l-0.8-0.3l-3.3,0.5l-1.1-0.1l-0.3-0.2l-0.8-0.7l-0.7-0.9l-0.5-1l-0.3-0.8l-0.7-3.6
		l-0.1-0.2l-2.4-4.2l-0.3-0.6l0-0.3l0.1-2.1l-0.3-1.3l-0.8-2.7l0-0.3l0-0.3l0.1-0.3l0.1-0.2l0.2-0.2l0.3-0.1l0.3-0.1l0.6-0.1
		l2.1,0.1l0.3,0l0.3-0.1l0.3-0.1l0.2-0.1l0.2-0.3l0.2-0.4l0.2-0.9l-0.1-0.6l-0.1-0.4l-0.5-1l-0.6-0.9l-0.2-0.2l-0.4-0.4l-0.4-0.3
		l-0.8-0.4l-1-0.5l1-0.8l-2.3-3.1l-1-0.8l-1.3-0.3l-1.4-0.1l-1.8-0.5l-2.2-0.9l-0.7-0.5l-0.4-0.4l0.2-0.6l0-0.6l0.1-0.3l0.2-0.2
		l0.2-0.2l0.8-0.3l2-3.1l0.8-0.8l1.2-0.4l5.3-3.5l1.7-0.7l0.5-0.3l0.4-0.3l0.1-0.2l0.1-0.8l-1.4-2.2L157,186l-0.3,0.1l-0.8,0.7
		l-0.8,0.2l-0.4,0l-0.2-0.1l-0.1-0.2l-0.1-0.3l-0.1-0.3l-0.7-1l-1.8-2.1l-0.9-1.4l-1.8-2.2l-0.6-1l-1.2-2.5l-0.5-1.7l0.4-2.7l0-0.4
		l-0.1-0.6l-0.6-1.1l-0.1-0.4v-0.4l0.6-2.4l0.3-0.8l1.1-2.1l0.1-0.6l0-0.4l-0.2-0.2l-0.6-0.5l-0.4-0.6l-0.6-1.7l-1.9-1.3l-0.8-0.1
		l-0.3,0.1l-0.2,0.1l-0.7,0.4l-1.5,0.4l-2,0.4l-0.9,0l-0.6,0l-0.7-0.5l-0.2-0.2l-0.7-0.8l-2.4-3.8l-1.7-1.4l-0.5-0.2l-0.6-0.2
		l-0.5,0l-0.8,0l-0.5,0.1l-0.4,0.1l-0.6,0.4l-0.9,1l-0.4,0.3l-1,0.5l-0.6,0.4l-0.5,0.5l-0.3,0.4l-0.2,0.4l-0.1,0.3v0.3l0.1,0.3
		l0.1,0.2l0.2,0.2l0.8,0.7l0.1,0.2l0.1,0.3l0,0.3l-0.1,0.3l-0.5,1.4l-0.2,2.1l-0.1,0.3l-0.7,1.4l-0.1,0.4l0,0.3l0.1,0.3l0.1,0.2
		l0.1,0.2l0.3,0.4l0.1,0.3l0.1,0.4l-0.1,0.8l-0.2,0.4l-0.2,0.3l-2.1,0.9l-0.5,0.3l-1.9,1.7l-0.5,0.6l-0.3,0.5l-0.1,0.7l0,0.3
		l0.1,0.6l0.4,1.2l0.1,0.4l-0.2,0.2l-0.3,0l-0.3-0.1l-0.3-0.1l-1-0.5l-0.8-0.6l-0.4-0.4l-1.3-1.7l-0.8-0.7l-0.2-0.2l-1-0.5l-0.5-0.2
		l-0.3-0.1l-0.3,0l-0.4,0.1l-0.5,0.2l-0.2,0l-0.3,0l-0.3-0.1l-0.2-0.1l-0.2-0.2l-0.4-0.3l-0.2-0.1l-0.3-0.1l-0.3,0l-0.6,0.1
		l-0.7,0.1l-0.3,0l-0.3-0.1l-0.9,0l-2.1,0.6l0,0l0,0l-0.2,0.7l-0.6,1.2l0.9,0.7l0.6-0.1l0.5-0.4l0.5-0.2l0.7,0.2l1.1,1l2.3,1.2
		l4.4,4.1l1.8,0.9l-0.5,0.5l1,1l1.4,0.9l0.7,0.2l0.5,0.6l3.2,2.7l2.6,1.4l2.8,0.9l3.1,0.5l3.4,0.2v0.7l-3.7,0l-1.7,0.2l-1.3,0.5v0.8
		l9.5-0.9l3.1,0.9l-0.6,1.6l0.5,1.1l2.6,2.2l-1.5,2.5l-0.2,1.6l1.7,0.7l1.2,1l4.3,6.5l1.7,1.7l0.8,1.1l0.4,1.3l-0.3,1.6l-0.8,1.2
		l-0.8,0.9l-0.7,1.8l-1.8,1.8l-0.6,1.2l0,1l0.3,1.1l0.1,1.2l-0.4,1.2l1.7-0.1l0.3,0.7l-0.2,1.1l0.4,1.1l1.2,0.7l1.2,0.5l0.9,0.7
		l0.4,1.5l0.8,1.6l4,2.6l1.8,1.4l-0.2-0.8l-0.2-0.3l-0.3-0.4l1.5,0.3l0.5,1l0.4,1.3l1.3,1.1l1.4,0.2l1.4-0.3l1.4-0.4l1.3-0.2
		l2.7,0.2l14.4,4l2.7,0.2l2.8,0.6l4.4,2.6l2.8,0.5l-1.4-1l-0.6-0.3l-0.9-0.2v-0.7l2.7,0.9l2.8,2.5l1.5,2.8l-1.2,2l1.8,0.3l1,1
		l0.9,0.7l1.5-0.6l0.4,0.8l0.5,0.5l0.6,0l0.7-0.5h0.7l10.3,4.1l1.3,1l8.3,3.9l8.4,8.1l2.4,0.6l3.2,1.7l2.4,2.4l-0.2,2.8l4.3,0.8
		l2.8,2.9l2.2,3.7l2.4,3.1l0.7-0.7l1.8,1.9l0.5,1l2.8,7.5l-1.1,0.9l-0.8,0.8l-0.6,0.9l-0.5,1.2l0.4,0.4l0.7,0.4l0.2,0.6l-1.3,0.8
		l1.3,0.1l0.6,0.3l0.4,0.5l0.7,0.5l1.5,0.8l0.8,0.6l0.6,0.8l-1.3,0l-1-0.3l-2.1-1.1l0.3,1.9l1.3,1l1.4,0.8l0.7,1.1l-0.5,1.2
		l-1.2,0.8l-2.7,1.3l-1.5,1.8l-0.5,1.8l0.4,1l1.3-0.6l1.2-1.3l0.8-0.6l1.2-0.1l2.3,0.3v0.7l-2.6,0.7l-2.9,1.6l-1.6,1.9l1.3,1.7
		l-0.7,0.8l-2.6,4l-0.7,0.8l-0.3-0.6l-0.5-0.3l-1.2,0.4l-1.7,1l-0.8,0.9l-3.3,5.1l0.3,3.4l0.7,0.4l2.2,0.9l0.5,0.1l0.6,1l9.3,8.7
		l2.6,3.4l1.4,1.5l1.6,0.7l1.8,0l6.6-0.8l2.2,0.3l6.2,2.7v-1.5l0.9,0.8l0.8,0.6l2.1,0.9l-1.5-0.2l-0.4-0.2l-0.5-0.4h-0.7l1.8,1.5
		l3.7,1.8l3.9,1.3l2.4-0.1l1.2-2.7l0.3-3.9l-0.7-3.8l-1.6-2.2v-0.7l0.7-0.7l0.2-1.1l-0.1-2.7l-1.3,0.8l-1.4-1.2l-1.4-1.7l-1.5-0.9
		l-1.6-0.2l-4-1.2l-1.4-0.7l-0.9-1l-2.2-3.5l-0.5-1.7l-3.8-5.7h-0.7l0,0l-0.8,0.6l0.5-2.2l1.4-0.5l3.6,0.5l1.4-0.3l0.4-0.7l0.1-0.8
		l0.5-0.6l1.1,0l0.7,0.5l0.6,0.1l0.6-1.3l1.8,0.6l2.3,0.5l1.5,0.9l-0.4,1.8l0.7-0.1l0.7,0.1l-0.7,2.3l1,1.6l3.4,2l1.5-0.8l1.5,0.8
		l1.3,1.5l0.8,1.5l1.7-0.3l2.2,0.3l2-0.1l0.8-1.3h0.7l0.8,1.3l1.3,1.4l1.6,1.2l1.5,0.6v0.8l-3.2,1.3l-0.5-0.2l-0.1-1.5l-0.3-0.9
		l-1-1.8h-0.7l-0.2,0.6l-0.2,0.4l-0.4,0.6l2.1,4.2l0.8,0.9l1.5,0.6l3.1-0.2l1.3,0.4l-1.7,1.1l-1.3,0.4l-0.8,0.6l0.1,1.6l0.6,1.2
		l3.5,4.4l0.7,1.7l-0.7,1.7l-1.2,1.4l-0.6,1.1l-0.6,0.3l-3.2,3.9l3.7,3.6l13.3,9.7l2.6,2.7l7.3,12.6l0.3,1.3l-0.5,1.7l-0.8,1.8
		l-0.2,1.7l1.5,1.1l0.7-2.5l0.5-4.8l-5.7-12.4l-0.5-3.4l-0.7-1.1l-1.9-1l-1-0.1l-1.3,0.5l-0.7,0l-0.6-0.5l-1-1.5l-0.6-0.6l-3-1.8
		l-1-1.1l0.1-1.4l0.9-0.8l4.9-2.8l4.8-4.5l3.1-1.6l3-0.9l2.8-1.4l2.4-2.9l1-3.2l0.3-3.8l-0.6-7.6l-0.9-3.3l-1.3-2.8l-1.8-2.5
		l-3.4-3.8l-1-1.4l-0.5-1.5l0.1-1.6l0.9-0.9l3.2-2l1-1.2l0-1.5l-0.9-0.5l-0.5-0.5l1-1.4l1.3-0.9l11.1-4.5l3.2-2l1.5-2.4l0.1-0.1
		L355.2,304.7z"/>
	<polygon id="Limón" class="st20" points="254.9,87.3 255.6,87.3 256.4,87.3 258.5,89.9 261.3,94.9 263.2,100.3 263,103.8 
		261.4,101.8 258.6,94.8 260.4,103.5 260.2,107.1 257.1,109.7 258.8,109.4 259.9,108.7 260.9,107.7 262.3,106.8 261.8,107.4 
		261.7,108 261.9,108.8 262.3,109.7 262.7,108.4 263.2,105.9 263.8,104.6 269,119 275.5,134.5 283.2,147.4 303.7,174.3 305.3,175.6 
		312.2,184 316.4,188.2 318.9,186.7 319.9,187.4 322.7,187.9 323.3,188.7 323.4,190.7 323.8,192.4 324.5,193.9 325.9,195.4 
		330.9,202.8 332.5,204 338.7,212.4 343.4,216.8 346.1,215.9 346.7,217.7 347.3,222 348.3,224.1 350,225.3 357.2,227.8 359.7,228.1 
		362.3,228 364.6,228.2 366.7,229.3 369.4,233.4 371.2,234.5 371.3,234.6 371.3,234.6 372.5,238.7 371.6,238.7 370,237.8 
		368.4,237.6 367.6,238.7 367.1,242.9 366.5,244.3 365,244.5 363,244.2 361.2,243.6 360.1,243.1 359,241.8 357.6,239.2 356.5,238 
		355.6,238.4 354.6,238 350.1,234.2 343.9,231.7 341.9,231.9 339.9,233.6 338.7,235.3 338.5,236.3 339.8,238.7 340.5,241.6 
		341,242.3 341.7,242.5 342.2,242.8 342,243.7 340.4,244.6 334.7,245.4 332.7,246.1 331.8,247.6 331.5,249.7 331.6,258.7 
		331.8,271.8 332,289.6 332,289.5 331,288.7 330.6,288.4 328.9,287.9 327.1,286.1 326.5,285.3 325.8,283.4 325.3,282.5 324.8,282.2 
		324.2,281.9 320.5,280.9 320.1,280.7 319.8,280.4 319.5,279.8 319.4,279.4 318.2,273.6 317.8,272.5 317.6,272 317.4,271.8 
		317.2,271.6 317,271.5 313.2,269.3 312.7,269 312,268.2 307.8,262.8 307.3,262.7 306.6,262.6 304.3,262.7 302.8,263 302.4,263 
		301.9,262.9 301.1,262.7 299.4,261.8 298.4,261.1 297.9,260.9 295.9,260.2 295.4,260 295.1,259.8 294.9,259.7 292.9,258 
		292.4,257.6 291.9,257.4 291.5,257.4 291.1,257.4 290.3,257.9 289.9,258.1 289.6,258.4 288.4,260.2 288.2,260.3 287.7,260.5 
		285.7,260.7 285.1,260.8 284.7,261 284.3,261.4 284.1,261.6 283.9,261.7 283.7,261.7 283.4,261.6 283.1,260.8 283.1,260.4 
		283,260.2 282.6,259.8 282.3,259.6 279.5,258.8 278.1,257.8 277.8,257.5 276.9,256.2 273.3,246.4 272.9,245.2 272.2,243.8 
		272,243.5 271.6,243.1 271.4,242.8 270.8,241.3 270.6,240 270.3,239 270.7,235.6 272.2,232.6 278.4,225.1 280.8,218.9 281.7,217.6 
		284.9,213.6 289.5,207.9 290.2,206 289.9,204 288.7,200.2 288.5,197.8 288.9,195.9 289.7,194.1 291.1,192.1 291.3,191.7 
		289.2,191.3 277.8,191 262.3,190.9 259.5,189.9 249,184.9 242.5,181.9 237.8,179.6 224.4,173.6 225.8,168.7 226.5,167.7 
		227.5,166.7 232.5,161.3 232.9,160.8 234.2,158 234.5,157.2 234.6,156.6 234.6,156.3 234.6,154.9 235,153.4 235.1,152.6 
		235.1,152.1 234.9,151.8 234.6,151.4 234.3,151 234.1,150.4 233.8,149.2 232.4,146.6 232.2,146.1 232,144.6 232,143.9 232.1,143.4 
		232.5,142.7 232.8,142.2 233.7,140.5 233.9,140.3 234.1,140.2 234.4,140.1 234.7,140.1 235,139.9 235.2,139.8 235.6,139.3 
		236.6,137.8 237.2,135.5 237.2,135 237.1,134.7 236.7,133.6 236.6,133.3 236.6,132.9 236.7,132 236.7,131.7 236.7,131.4 
		236.5,131.1 236.4,130.9 236.1,130.5 235.9,130.2 235.8,130 235.8,129.3 236.4,124.7 236.3,123.6 236.5,120.3 236.6,119.3 
		236.8,118.7 236.9,118.5 237.4,118.1 238.3,117.5 239.3,117 239.7,116.7 240.8,115.5 242.6,114.3 243.7,113.9 244.4,113.8 
		247.5,113.5 248.6,113.2 249,113.2 249.4,113.3 249.9,113.4 250,113.3 250,113.1 249.8,112.8 249.5,112.5 249.1,112.1 248.2,111.6 
		247.8,111.2 247.4,110.9 247.1,110.4 247,110.1 246.9,109.5 247.3,107.3 247.2,106.9 247.2,106.6 246.9,106.1 246.5,105.6 
		245.9,105 245.7,104.9 245.4,104.7 245.1,104.6 243.9,104.2 243.6,104 250.6,102.3 254.4,100.3 254.7,97.4 253.7,93.5 253.6,88.8 
		253.7,88.3 253.5,87.7 254.3,87.1 	"/>
	<polygon id="Heredia" class="st20" points="227.1,110.6 228.1,110.4 229.6,109.3 230.4,109.1 233.3,109.7 233.7,109.4 235.9,106.8 
		243,104.1 243.6,104 243.9,104.2 245.1,104.6 245.4,104.7 245.7,104.9 245.9,105 246.5,105.6 246.9,106.1 247.2,106.6 247.2,106.9 
		247.3,107.3 246.9,109.5 247,110.1 247.1,110.4 247.4,110.9 247.8,111.2 248.2,111.6 249.1,112.1 249.5,112.5 249.8,112.8 
		250,113.1 250,113.3 249.9,113.4 249.4,113.3 249,113.2 248.6,113.2 247.5,113.5 244.4,113.8 243.7,113.9 242.6,114.3 240.8,115.5 
		239.7,116.7 239.3,117 238.3,117.5 237.4,118.1 236.9,118.5 236.8,118.7 236.6,119.3 236.5,120.3 236.3,123.6 236.4,124.7 
		235.8,129.3 235.8,130 235.9,130.2 236.1,130.5 236.4,130.9 236.5,131.1 236.7,131.4 236.7,131.7 236.7,132 236.6,132.9 
		236.6,133.3 236.7,133.6 237.1,134.7 237.2,135 237.2,135.5 236.6,137.8 235.6,139.3 235.2,139.8 235,139.9 234.7,140.1 
		234.4,140.1 234.1,140.2 233.9,140.3 233.7,140.5 232.8,142.2 232.5,142.7 232.1,143.4 232,143.9 232,144.6 232.2,146.1 
		232.4,146.6 233.8,149.2 234.1,150.4 234.3,151 234.6,151.4 234.9,151.8 235.1,152.1 235.1,152.6 235,153.4 234.6,154.9 
		234.6,156.3 234.6,156.6 234.5,157.2 234.2,158 232.9,160.8 232.5,161.3 227.5,166.7 223.5,167.1 221.4,169.8 220.8,170.5 
		220.3,170.7 217.9,170.9 215.8,171.3 211.1,171.7 210.5,171.9 210.6,172.4 211,173.3 213.5,177 214.9,178.5 215.2,179.4 215.3,182 
		216.2,183 216.7,183.4 217.1,183.8 217.2,184.6 216.5,186.8 215.2,190.4 213.1,191.6 210.3,192.5 209.2,192.7 206.4,192.5 
		205.9,192.5 202,194.3 200.7,193.8 198.6,192.7 196.7,193.1 196.6,192.1 196.5,191.5 196.6,191.2 196.6,190.9 197.2,190 
		199.1,187.9 199.2,187.7 200.4,171.1 200.6,156.2 200.7,143.7 201,126.1 201.3,102.8 201.3,102.4 202.2,102.5 203.5,102.3 
		205.5,104.2 206.7,104.7 208,103.8 208.7,103.8 210,105.1 212.7,103.3 214.5,103.8 215.8,102.5 217.2,102.3 218.4,103.1 
		218.9,104.9 225.4,110.1 226.1,110.4 	"/>
	<polygon id="Guanacaste" class="st20" points="85.5,73.4 85.2,73.7 84.4,73.8 83.8,74.1 83.4,74.1 83.1,74.2 82.7,74.5 77.5,80.3 
		69.1,86.1 68.9,86.6 68.6,87.1 67.6,87.5 64,87.8 63.6,88.2 63.5,88.5 63.5,88.8 63.8,89.2 63.9,89.4 68.8,95.1 70,96 72.6,97.6 
		73.3,97.8 75.7,98.1 76,98.2 76.2,98.3 76.5,98.5 76.9,98.8 77.9,100.3 80.5,105.5 83.7,105.6 86.5,105.4 88.9,104.8 90.2,104.6 
		90.9,104.6 91.6,104.7 92.2,104.9 93,105.3 96.2,107.5 97,108.3 97.7,108.8 99.4,109.3 105.1,110.7 106.3,111.1 107.7,111.7 
		108.4,112.1 109.1,112.8 110.6,115.3 111.8,117.5 112.3,120.4 112.6,121.2 113.2,122.1 113.6,122.5 116.5,125.1 117.6,126.4 
		119.1,127 125,128.5 126.9,129.5 133.1,134.2 133.9,135.5 136.2,140.2 134.6,146.2 135,148.2 135.3,149 135.4,149.2 135.7,149.7 
		135.5,150.7 133.8,154 132.1,152.7 131.6,152.4 131,152.2 130.5,152.2 129.7,152.2 129.2,152.3 128.8,152.5 128.2,152.9 
		127.3,153.9 126.9,154.2 125.9,154.7 125.3,155.2 124.8,155.7 124.5,156.1 124.3,156.5 124.2,156.8 124.2,157.1 124.3,157.4 
		124.4,157.6 124.6,157.9 125.4,158.6 125.5,158.8 125.6,159.1 125.6,159.4 125.6,159.7 125.1,161.1 124.8,163.2 124.7,163.5 
		124.1,164.9 124,165.3 124,165.6 124.1,165.8 124.2,166.1 124.3,166.3 124.6,166.7 124.8,167 124.9,167.4 124.8,168.2 124.6,168.6 
		124.4,168.9 122.4,169.8 121.9,170.1 120,171.8 119.4,172.4 119.2,172.9 119.1,173.6 119.1,173.9 119.2,174.5 119.6,175.7 
		119.6,176.1 119.5,176.3 119.2,176.3 118.9,176.2 118.6,176.1 117.6,175.6 116.8,175 116.4,174.6 115.1,172.9 114.3,172.2 
		114.1,172.1 113.1,171.5 112.6,171.3 112.2,171.2 111.9,171.2 111.5,171.3 110.9,171.5 110.8,171.5 110.5,171.5 110.2,171.4 
		110,171.3 109.7,171.2 109.3,170.8 109.1,170.7 108.8,170.7 108.5,170.7 107.9,170.8 107.2,170.9 106.9,170.8 106.6,170.8 
		105.7,170.8 103.5,171.4 103.5,171.4 103.1,171.1 102.6,170.9 101.2,169.6 99.3,170.2 92,170.4 90.1,169.9 88.4,168.7 85.7,165.8 
		85.7,165.1 86.3,163.2 84.4,160.9 79.8,157.6 80.5,159.8 83.6,162.1 84.3,164.8 84.6,169.8 85.2,172.8 86.5,174.8 85.1,175.7 
		85.3,177.2 86.6,178.7 89.8,179.8 91,181.1 92.4,183.8 93.1,183.8 94,183.5 94.3,183.8 94.5,184.5 93.6,184.6 92.6,184.4 
		91.7,184.2 90.9,183.8 90.9,184.5 92.9,186.3 91.8,189.8 91.2,190.7 88.8,191.3 88.3,191.5 85.5,193.1 85,193.3 84.8,193.1 
		84.6,193 84.4,192.8 84.2,192.6 83.5,192.7 82.4,193 79.8,194.3 78.8,195.2 78.3,196.1 78.5,196.7 78.9,197.2 79.3,197.6 
		79.7,197.8 80.2,197.9 81.2,197.7 81.5,197.7 81.9,197.7 82.8,197.9 83.1,198 83.5,198.3 83.8,198.4 84.1,198.5 85.1,198.5 
		85.7,198.6 86.4,199 87.3,199.3 87.5,199.4 87.7,199.6 88.2,200.2 88.8,200.8 89.1,201.2 89.2,201.5 89.3,201.7 89.5,202.2 
		89.6,202.9 89.8,203.5 89.9,203.7 90.2,203.9 90.4,204 92,204.3 92.2,204.6 92.3,204.8 91.9,205.5 91.5,206.6 90.4,210.8 
		90.4,211.5 90.6,211.9 90.9,212.3 90.9,212.5 90.8,212.7 90.2,213.2 90,213.5 89.7,214 89.4,215 89.2,215.4 88.9,215.7 88.7,215.9 
		88.4,216.1 87.7,217.6 87.4,217.8 87.2,217.8 86.5,218.1 86.3,218.4 86.3,218.4 85.7,217 85.3,216.5 84.3,215.9 81.6,214.8 
		81.3,213.9 81.4,212.9 81.3,212.2 78.7,209.3 75.2,207.3 63.6,203.2 62.6,203.4 61.1,204.5 60.4,204.7 59.3,204.5 57.9,203.4 
		56.7,203.2 56,203.1 55.8,202.9 55.6,202.6 55.3,202.1 54.5,201.8 53.9,201.9 53.5,202.3 53.4,202.5 47.3,200.5 44.4,200.1 
		43.7,199.7 43.2,199.1 42.3,198.7 41.1,198.8 40.3,199.2 39.6,199.3 38.7,198 39.4,196 38.3,193.3 27.3,179.7 26.6,178.5 
		25.8,175.6 24.5,173.5 20.3,163.2 19.9,160.1 19.4,158.3 18.8,156.9 20.3,155.4 20.9,154.4 20.7,153.5 18.4,150.6 17,149.7 
		17.7,148.6 19.6,147.1 20.9,145.3 21.7,143.5 23.6,144.2 24.6,143 25.4,141.4 27.6,139.6 26.7,137.7 25.1,135.6 24,134.5 24.7,134 
		25,133.8 25.5,133.7 25.5,133 24,133 24,132.2 25.2,132 26,131.2 26.9,129.2 27.7,129.2 29.2,130.4 31.3,129.5 33.4,128.3 
		35.1,128.5 35.7,128.5 35.6,127.1 36,126.4 36.6,126 37.1,125.5 38.1,123.8 38.5,123.9 39.8,124 43.1,120.6 42.8,119.7 42.2,119 
		40.9,118.1 36.5,122.5 36.4,122.2 36.4,121.9 36.3,121.7 35.7,121.7 35.7,121 37,119.7 37.7,119.1 38.7,118.8 37.9,118.1 
		37.8,118.2 37.7,118.4 37.5,118.6 37.1,118.8 37.4,117.9 37.5,117.6 38.7,117.3 38.7,116.6 37.9,116.6 37.9,115.8 39.7,114.3 
		40.1,110.6 39.5,103.4 37.9,101.5 34.3,99.9 30.7,99.3 29.1,100.4 28.5,100.4 25.5,98 24.7,97 25.2,97.2 25.8,96.9 26.1,96.3 
		25.5,95.5 24.7,95.4 22.6,95.6 21.7,95.5 18.6,94.4 16.1,92.9 13.3,91.7 9.3,91.1 9.3,90.3 11.7,89.7 16.3,87.6 18.8,87.3 
		18.4,86.7 18.1,86.3 17.6,86 16.6,85.8 16.6,85.1 21.9,84.8 23.3,85.1 23.8,85.9 23.7,86.9 23.4,87.7 23.6,88.1 24.1,88.3 
		25.5,89.6 26.1,89.6 26.9,88.8 26.9,88.1 25.7,86.9 26.9,86.1 29.2,85.7 31.3,85.8 32.1,86.2 33,87.1 33.9,87.3 34.6,87.1 
		34.9,86.5 34.8,85.7 34.3,85.1 34.3,84.3 35.9,83.7 36.3,82.5 35.9,81.1 35.1,79.8 34.3,79.2 32.5,78.5 31.7,77.9 30.8,77 
		30.8,76.7 31.3,76.6 32.1,76.1 33.7,74.5 34.7,75.1 35.8,76.1 37.9,76.1 39.2,74.9 38.9,73.3 37.8,71.8 36.5,70.8 35.6,70.4 
		35.5,70.4 38.1,66.2 40.1,61.9 43.1,57.8 46.7,56.3 49.8,57.9 52.8,60.6 56.3,62.6 67.1,66.6 81.6,72 	"/>
	<polygon id="Cartago" class="st20" points="273.3,246.4 262,239.5 261.7,239.4 260.7,238.9 259.7,238.1 257,235.3 255.7,235.6 
		255.3,236.1 254.8,237.1 254.6,237.3 254.4,237.5 254.2,237.6 254,237.8 253.7,237.9 253.4,237.9 253.1,238 252.7,238 251.5,237.9 
		251.1,237.9 250.6,238.1 249.1,238.9 248.9,238.8 248.7,238.7 248.5,237.2 248.2,236.1 248,235.8 247.7,235.5 247.3,235.2 
		245.6,234.7 245.1,234.4 244.8,234.1 243.6,232.4 241.6,232.7 241,232.7 238.7,232.2 238.4,232.1 238.1,231.8 237.7,231.4 
		237.2,230.6 236.7,229.7 236.5,229.2 236.4,228.9 235.7,227.4 234.9,226 234.7,225.8 234.4,225.6 234,225.5 233.1,225.4 
		232.7,225.4 232.4,225.6 232.1,225.7 231.9,225.8 231.3,225.7 229.1,224.6 227.8,224.1 227.5,224.1 226.9,223.5 224.5,220.4 
		223.6,218.8 223.6,218.6 223.5,218.4 222.9,217.8 220.8,217.2 220.1,215.8 219.9,215.3 219.7,214.8 219.5,213.7 218.6,213.6 
		214.6,214.5 214,214.3 213.4,214.2 213.1,214.3 212.2,214.5 210.9,215 210.6,215 210.3,215 210,214.9 209.9,214.7 209.8,214.4 
		209.7,214.1 209.7,213.8 209.8,213.3 210.1,212.6 210.8,211.4 212.7,209.7 214,208.8 214.8,207.9 217.9,202.9 215.8,202 
		215.4,201.7 215.2,201.6 215.4,200.7 218.2,196 223.1,194.2 223.3,194.2 226.1,194.2 227.1,194.3 227.3,194.4 227.6,194.5 
		228,194.4 228.4,194.3 229.7,192.9 231,192.7 231.6,192.5 232,192.1 232.4,191.7 232.6,190.8 232.1,188.4 231.9,185.6 231.6,184.6 
		231.2,184 229.1,181.6 228.8,181.4 228.4,181.1 227.5,180.5 226.5,179.7 226.1,179.2 225.9,178.7 224.4,173.6 237.8,179.6 
		242.5,181.9 249,184.9 259.5,189.9 262.3,190.9 277.8,191 289.2,191.3 291.3,191.7 291.1,192.1 289.7,194.1 288.9,195.9 
		288.5,197.8 288.7,200.2 289.9,204 290.2,206 289.5,207.9 284.9,213.6 281.7,217.6 280.8,218.9 278.4,225.1 272.2,232.6 
		270.7,235.6 270.3,239 270.6,240 270.8,241.3 271.4,242.8 271.6,243.1 272,243.5 272.2,243.8 272.9,245.2 	"/>
	<polygon id="Alajuela" class="st20" points="153.5,75.6 155.8,75.5 158.2,76.3 163.6,78.6 164.2,78.8 164.7,79 165.3,79.3 
		165.7,79.6 168.1,82.7 169.1,83.5 170,84 171.2,84.5 172.3,84.6 173.4,84.2 179.1,80.4 180.1,79.8 181.1,80.3 181.3,81.2 
		181.3,82.3 181.5,83.6 182,84.4 183.4,86.2 183.7,87 184.9,88.1 189.8,90 191,90.8 191.9,91.8 194,92.9 195.8,94.4 196.2,97.1 
		194.8,97.8 194.3,98.1 193.8,99 194,99.6 194.5,100.1 194.7,100.5 197.1,102.4 197.6,103.1 198.8,102.2 200.5,102.3 201.3,102.4 
		201.3,102.8 201,126.1 200.7,143.7 200.6,156.2 200.4,171.1 199.2,187.7 199.1,187.9 197.2,190 196.6,190.9 196.6,191.2 
		196.5,191.5 196.6,192.1 196.7,193.1 195.2,194.8 192.2,195.8 185,197.8 183.1,198 182.5,197.9 181.2,197.7 180.7,197.6 
		180.3,197.5 178.2,197.1 176.1,196.5 173.5,197 168.7,197.4 165.4,198.9 164.5,199.4 164.4,199.6 164.3,199.8 163.1,201.1 
		161.2,202 160.5,202.6 160.2,203 160.2,203.2 160.2,203.6 158.2,206.1 158,206.5 157.9,207.3 157.7,207.5 156.9,207.5 154.6,204.4 
		153.6,203.7 152.3,203.4 150.9,203.3 149.2,202.8 146.9,201.9 146.2,201.4 145.8,201 146,200.4 146,199.8 146,199.5 146.2,199.3 
		146.4,199.1 147.1,198.8 149.1,195.6 149.9,194.8 151.1,194.4 156.4,191 158.1,190.3 158.6,190 159,189.7 159.1,189.5 159.2,188.7 
		157.8,186.4 157,186 156.8,186.2 155.9,186.8 155.1,187 154.7,187 154.5,187 154.4,186.8 154.3,186.5 154.2,186.2 153.5,185.2 
		151.8,183 150.9,181.6 149.1,179.4 148.5,178.5 147.3,176 146.8,174.3 147.2,171.5 147.2,171.1 147.1,170.5 146.5,169.4 146.4,169 
		146.4,168.6 147,166.1 147.3,165.3 148.5,163.2 148.6,162.7 148.6,162.3 148.4,162.1 147.7,161.6 147.3,161 146.7,159.3 144.8,158 
		144,157.9 143.7,158 143.5,158.1 142.8,158.5 141.3,159 139.2,159.3 138.4,159.4 137.8,159.3 137.1,158.9 136.9,158.7 136.2,157.9 
		133.8,154 135.5,150.7 135.7,149.7 135.4,149.2 135.3,149 135,148.2 134.6,146.2 136.2,140.2 133.9,135.5 133.1,134.2 126.9,129.5 
		125,128.5 119.1,127 117.6,126.4 116.5,125.1 113.6,122.5 113.2,122.1 112.6,121.2 112.3,120.4 111.8,117.5 110.6,115.3 
		109.1,112.8 108.4,112.1 107.7,111.7 106.3,111.1 105.1,110.7 99.4,109.3 97.7,108.8 97,108.3 96.2,107.5 93,105.3 92.2,104.9 
		91.6,104.7 90.9,104.6 90.2,104.6 88.9,104.8 86.5,105.4 83.7,105.6 80.5,105.5 77.9,100.3 76.9,98.8 76.5,98.5 76.2,98.3 76,98.2 
		75.7,98.1 73.3,97.8 72.6,97.6 70,96 68.8,95.1 63.9,89.4 63.8,89.2 63.5,88.8 63.5,88.5 63.6,88.2 64,87.8 67.6,87.5 68.6,87.1 
		68.9,86.6 69.1,86.1 77.5,80.3 82.7,74.5 83.1,74.2 83.4,74.1 83.8,74.1 84.4,73.8 85.2,73.7 85.5,73.4 100.9,79.2 118.2,85.6 
		120.7,85.9 123.2,85 134.3,77.6 142.2,72.3 145.6,71.5 147.5,72.4 151.6,75.3 	"/>
</g>
<line class="st42" x1="41.4" y1="453.1" x2="141.1" y2="453.1"/>
<line class="st42" x1="41" y1="456.7" x2="138" y2="456.7"/>
<line class="st43" x1="41.4" y1="449.4" x2="41.4" y2="453.6"/>
<line class="st43" x1="61.6" y1="449.4" x2="61.6" y2="453.1"/>
<line class="st43" x1="81.4" y1="449.4" x2="81.4" y2="453.1"/>
<line class="st43" x1="101.4" y1="449.4" x2="101.4" y2="453.1"/>
<line class="st43" x1="121.5" y1="449.4" x2="121.5" y2="453.1"/>
<line class="st43" x1="141.1" y1="449.4" x2="141.1" y2="453.6"/>
<g>
	<path d="M39.7,445c0-0.7,0.1-1.2,0.2-1.6s0.3-0.7,0.6-1s0.6-0.3,1-0.3c0.3,0,0.6,0.1,0.8,0.2s0.4,0.3,0.6,0.5s0.3,0.5,0.4,0.9
		s0.1,0.8,0.1,1.4c0,0.7-0.1,1.2-0.2,1.6s-0.3,0.7-0.6,1s-0.6,0.3-1,0.3c-0.6,0-1-0.2-1.3-0.6C39.9,446.8,39.7,446,39.7,445z
		 M40.4,445c0,0.9,0.1,1.6,0.3,1.9s0.5,0.5,0.8,0.5s0.6-0.2,0.8-0.5s0.3-0.9,0.3-1.9c0-0.9-0.1-1.6-0.3-1.9s-0.5-0.5-0.8-0.5
		c-0.3,0-0.6,0.1-0.8,0.4C40.5,443.4,40.4,444,40.4,445z"/>
	<path d="M61.2,447.1v0.7h-3.8c0-0.2,0-0.3,0.1-0.5c0.1-0.3,0.2-0.5,0.5-0.8s0.5-0.5,0.9-0.9c0.6-0.5,1-0.9,1.3-1.2s0.3-0.6,0.3-0.8
		c0-0.3-0.1-0.5-0.3-0.7s-0.5-0.3-0.8-0.3c-0.3,0-0.6,0.1-0.8,0.3s-0.3,0.5-0.3,0.8l-0.7-0.1c0-0.5,0.2-1,0.6-1.2s0.8-0.4,1.3-0.4
		c0.5,0,1,0.2,1.3,0.5s0.5,0.7,0.5,1.1c0,0.2,0,0.5-0.1,0.7s-0.2,0.5-0.5,0.7s-0.6,0.6-1.1,1c-0.4,0.4-0.7,0.6-0.8,0.7
		s-0.2,0.3-0.3,0.4H61.2z"/>
	<path d="M61.9,445c0-0.7,0.1-1.2,0.2-1.6s0.3-0.7,0.6-1s0.6-0.3,1-0.3c0.3,0,0.6,0.1,0.8,0.2s0.4,0.3,0.6,0.5s0.3,0.5,0.4,0.9
		s0.1,0.8,0.1,1.4c0,0.7-0.1,1.2-0.2,1.6s-0.3,0.7-0.6,1s-0.6,0.3-1,0.3c-0.6,0-1-0.2-1.3-0.6C62.1,446.8,61.9,446,61.9,445z
		 M62.6,445c0,0.9,0.1,1.6,0.3,1.9s0.5,0.5,0.8,0.5s0.6-0.2,0.8-0.5s0.3-0.9,0.3-1.9c0-0.9-0.1-1.6-0.3-1.9s-0.5-0.5-0.8-0.5
		c-0.3,0-0.6,0.1-0.8,0.4C62.8,443.4,62.6,444,62.6,445z"/>
	<path d="M79.7,447.8v-1.4h-2.5v-0.6l2.6-3.7h0.6v3.7h0.8v0.6h-0.8v1.4H79.7z M79.7,445.8v-2.6l-1.8,2.6H79.7z"/>
	<path d="M81.9,445c0-0.7,0.1-1.2,0.2-1.6s0.3-0.7,0.6-1s0.6-0.3,1-0.3c0.3,0,0.6,0.1,0.8,0.2s0.4,0.3,0.6,0.5s0.3,0.5,0.4,0.9
		s0.1,0.8,0.1,1.4c0,0.7-0.1,1.2-0.2,1.6s-0.3,0.7-0.6,1s-0.6,0.3-1,0.3c-0.6,0-1-0.2-1.3-0.6C82.1,446.8,81.9,446,81.9,445z
		 M82.6,445c0,0.9,0.1,1.6,0.3,1.9s0.5,0.5,0.8,0.5s0.6-0.2,0.8-0.5s0.3-0.9,0.3-1.9c0-0.9-0.1-1.6-0.3-1.9s-0.5-0.5-0.8-0.5
		c-0.3,0-0.6,0.1-0.8,0.4C82.8,443.4,82.6,444,82.6,445z"/>
	<path d="M101.1,443.5l-0.7,0.1c-0.1-0.3-0.2-0.5-0.3-0.6c-0.2-0.2-0.4-0.3-0.7-0.3c-0.2,0-0.4,0.1-0.6,0.2
		c-0.2,0.2-0.4,0.4-0.5,0.7s-0.2,0.8-0.2,1.3c0.2-0.3,0.4-0.4,0.6-0.6s0.5-0.2,0.8-0.2c0.5,0,0.9,0.2,1.2,0.5s0.5,0.8,0.5,1.3
		c0,0.4-0.1,0.7-0.2,1s-0.4,0.5-0.6,0.7s-0.6,0.2-0.9,0.2c-0.6,0-1.1-0.2-1.4-0.6s-0.6-1.1-0.6-2.1c0-1.1,0.2-1.9,0.6-2.4
		c0.4-0.4,0.8-0.7,1.4-0.7c0.5,0,0.8,0.1,1.1,0.4S101.1,443,101.1,443.5z M98.3,445.9c0,0.2,0.1,0.5,0.2,0.7s0.2,0.4,0.4,0.5
		s0.4,0.2,0.6,0.2c0.3,0,0.6-0.1,0.8-0.4s0.3-0.6,0.3-1c0-0.4-0.1-0.7-0.3-0.9s-0.5-0.3-0.8-0.3c-0.3,0-0.6,0.1-0.8,0.3
		S98.3,445.6,98.3,445.9z"/>
	<path d="M101.9,445c0-0.7,0.1-1.2,0.2-1.6s0.3-0.7,0.6-1s0.6-0.3,1-0.3c0.3,0,0.6,0.1,0.8,0.2s0.4,0.3,0.6,0.5s0.3,0.5,0.4,0.9
		s0.1,0.8,0.1,1.4c0,0.7-0.1,1.2-0.2,1.6s-0.3,0.7-0.6,1s-0.6,0.3-1,0.3c-0.6,0-1-0.2-1.3-0.6C102.1,446.8,101.9,446,101.9,445z
		 M102.7,445c0,0.9,0.1,1.6,0.3,1.9s0.5,0.5,0.8,0.5s0.6-0.2,0.8-0.5s0.3-0.9,0.3-1.9c0-0.9-0.1-1.6-0.3-1.9s-0.5-0.5-0.8-0.5
		c-0.3,0-0.6,0.1-0.8,0.4C102.8,443.4,102.7,444,102.7,445z"/>
	<path d="M118.6,444.7c-0.3-0.1-0.5-0.3-0.6-0.5s-0.2-0.4-0.2-0.7c0-0.4,0.2-0.8,0.4-1.1s0.7-0.4,1.2-0.4c0.5,0,0.9,0.1,1.2,0.4
		s0.5,0.6,0.5,1.1c0,0.3-0.1,0.5-0.2,0.7c-0.1,0.2-0.4,0.3-0.6,0.5c0.4,0.1,0.6,0.3,0.8,0.6s0.3,0.6,0.3,0.9c0,0.5-0.2,0.9-0.5,1.2
		c-0.3,0.3-0.8,0.5-1.4,0.5s-1-0.2-1.4-0.5s-0.5-0.8-0.5-1.3c0-0.4,0.1-0.7,0.3-0.9S118.2,444.8,118.6,444.7z M118.2,446.1
		c0,0.2,0,0.4,0.1,0.6s0.2,0.3,0.4,0.4s0.4,0.2,0.6,0.2c0.3,0,0.6-0.1,0.8-0.3s0.3-0.5,0.3-0.8c0-0.3-0.1-0.6-0.3-0.8
		s-0.5-0.3-0.8-0.3c-0.3,0-0.6,0.1-0.8,0.3S118.2,445.8,118.2,446.1z M118.4,443.5c0,0.3,0.1,0.5,0.3,0.7s0.4,0.3,0.7,0.3
		c0.3,0,0.5-0.1,0.7-0.3c0.2-0.2,0.3-0.4,0.3-0.6c0-0.3-0.1-0.5-0.3-0.7s-0.4-0.3-0.7-0.3c-0.3,0-0.5,0.1-0.7,0.3
		S118.4,443.2,118.4,443.5z"/>
	<path d="M121.9,445c0-0.7,0.1-1.2,0.2-1.6c0.1-0.4,0.3-0.7,0.6-1c0.3-0.2,0.6-0.3,1-0.3c0.3,0,0.6,0.1,0.8,0.2
		c0.2,0.1,0.4,0.3,0.6,0.5c0.2,0.2,0.3,0.5,0.4,0.9s0.1,0.8,0.1,1.4c0,0.7-0.1,1.2-0.2,1.6c-0.1,0.4-0.3,0.7-0.6,1
		c-0.3,0.2-0.6,0.3-1,0.3c-0.6,0-1-0.2-1.3-0.6C122.1,446.8,121.9,446,121.9,445z M122.7,445c0,0.9,0.1,1.6,0.3,1.9
		c0.2,0.3,0.5,0.5,0.8,0.5c0.3,0,0.6-0.2,0.8-0.5c0.2-0.3,0.3-0.9,0.3-1.9c0-0.9-0.1-1.6-0.3-1.9c-0.2-0.3-0.5-0.5-0.8-0.5
		c-0.3,0-0.6,0.1-0.8,0.4C122.8,443.4,122.7,444,122.7,445z"/>
	<path d="M137.9,447.8h-0.7v-4.5c-0.2,0.2-0.4,0.3-0.7,0.5c-0.3,0.2-0.5,0.3-0.7,0.4v-0.7c0.4-0.2,0.7-0.4,1-0.7
		c0.3-0.3,0.5-0.5,0.6-0.8h0.5V447.8z"/>
	<path d="M139.7,445c0-0.7,0.1-1.2,0.2-1.6c0.1-0.4,0.3-0.7,0.6-1c0.3-0.2,0.6-0.3,1-0.3c0.3,0,0.6,0.1,0.8,0.2
		c0.2,0.1,0.4,0.3,0.6,0.5c0.2,0.2,0.3,0.5,0.4,0.9s0.1,0.8,0.1,1.4c0,0.7-0.1,1.2-0.2,1.6c-0.1,0.4-0.3,0.7-0.6,1
		c-0.3,0.2-0.6,0.3-1,0.3c-0.6,0-1-0.2-1.3-0.6C139.9,446.8,139.7,446,139.7,445z M140.5,445c0,0.9,0.1,1.6,0.3,1.9
		c0.2,0.3,0.5,0.5,0.8,0.5c0.3,0,0.6-0.2,0.8-0.5c0.2-0.3,0.3-0.9,0.3-1.9c0-0.9-0.1-1.6-0.3-1.9c-0.2-0.3-0.5-0.5-0.8-0.5
		c-0.3,0-0.6,0.1-0.8,0.4C140.6,443.4,140.5,444,140.5,445z"/>
	<path d="M144.2,445c0-0.7,0.1-1.2,0.2-1.6c0.1-0.4,0.3-0.7,0.6-1c0.3-0.2,0.6-0.3,1-0.3c0.3,0,0.6,0.1,0.8,0.2
		c0.2,0.1,0.4,0.3,0.6,0.5c0.2,0.2,0.3,0.5,0.4,0.9s0.1,0.8,0.1,1.4c0,0.7-0.1,1.2-0.2,1.6c-0.1,0.4-0.3,0.7-0.6,1
		c-0.3,0.2-0.6,0.3-1,0.3c-0.6,0-1-0.2-1.3-0.6C144.4,446.8,144.2,446,144.2,445z M144.9,445c0,0.9,0.1,1.6,0.3,1.9
		c0.2,0.3,0.5,0.5,0.8,0.5c0.3,0,0.6-0.2,0.8-0.5c0.2-0.3,0.3-0.9,0.3-1.9c0-0.9-0.1-1.6-0.3-1.9c-0.2-0.3-0.5-0.5-0.8-0.5
		c-0.3,0-0.6,0.1-0.8,0.4C145,443.4,144.9,444,144.9,445z"/>
	<path d="M151.1,447.8v-5.7h0.7v3.3l1.7-1.7h0.9l-1.6,1.5l1.7,2.6h-0.9l-1.4-2.1l-0.5,0.5v1.6H151.1z"/>
	<path d="M155,447.8v-4.1h0.6v0.6c0.1-0.2,0.3-0.4,0.5-0.5c0.2-0.1,0.5-0.2,0.7-0.2c0.3,0,0.6,0.1,0.8,0.2c0.2,0.1,0.3,0.3,0.4,0.5
		c0.3-0.5,0.8-0.7,1.3-0.7c0.4,0,0.7,0.1,0.9,0.3c0.2,0.2,0.3,0.6,0.3,1.1v2.8H160v-2.6c0-0.3,0-0.5-0.1-0.6c0-0.1-0.1-0.2-0.2-0.3
		c-0.1-0.1-0.3-0.1-0.4-0.1c-0.3,0-0.5,0.1-0.7,0.3c-0.2,0.2-0.3,0.5-0.3,0.9v2.4h-0.7v-2.7c0-0.3-0.1-0.5-0.2-0.7
		c-0.1-0.2-0.3-0.2-0.6-0.2c-0.2,0-0.4,0.1-0.5,0.2s-0.3,0.3-0.4,0.5c-0.1,0.2-0.1,0.5-0.1,0.9v2.2H155z"/>
</g>
<g>
	<path d="M39.7,464.5c0-0.7,0.1-1.2,0.2-1.6s0.3-0.7,0.6-1s0.6-0.3,1-0.3c0.3,0,0.6,0.1,0.8,0.2s0.4,0.3,0.6,0.5s0.3,0.5,0.4,0.9
		s0.1,0.8,0.1,1.4c0,0.7-0.1,1.2-0.2,1.6s-0.3,0.7-0.6,1s-0.6,0.3-1,0.3c-0.6,0-1-0.2-1.3-0.6C39.9,466.3,39.7,465.6,39.7,464.5z
		 M40.4,464.5c0,0.9,0.1,1.6,0.3,1.9s0.5,0.5,0.8,0.5s0.6-0.2,0.8-0.5s0.3-0.9,0.3-1.9c0-0.9-0.1-1.6-0.3-1.9s-0.5-0.5-0.8-0.5
		c-0.3,0-0.6,0.1-0.8,0.4C40.5,462.9,40.4,463.6,40.4,464.5z"/>
	<path d="M74.5,466.6v0.7h-3.8c0-0.2,0-0.3,0.1-0.5c0.1-0.3,0.2-0.5,0.5-0.8s0.5-0.5,0.9-0.9c0.6-0.5,1-0.9,1.3-1.2s0.3-0.6,0.3-0.8
		c0-0.3-0.1-0.5-0.3-0.7s-0.5-0.3-0.8-0.3c-0.3,0-0.6,0.1-0.8,0.3s-0.3,0.5-0.3,0.8l-0.7-0.1c0-0.5,0.2-1,0.6-1.2s0.8-0.4,1.3-0.4
		c0.5,0,1,0.2,1.3,0.5s0.5,0.7,0.5,1.1c0,0.2,0,0.5-0.1,0.7s-0.2,0.5-0.5,0.7s-0.6,0.6-1.1,1c-0.4,0.4-0.7,0.6-0.8,0.7
		s-0.2,0.3-0.3,0.4H74.5z"/>
	<path d="M75.2,464.5c0-0.7,0.1-1.2,0.2-1.6s0.3-0.7,0.6-1s0.6-0.3,1-0.3c0.3,0,0.6,0.1,0.8,0.2s0.4,0.3,0.6,0.5s0.3,0.5,0.4,0.9
		s0.1,0.8,0.1,1.4c0,0.7-0.1,1.2-0.2,1.6s-0.3,0.7-0.6,1s-0.6,0.3-1,0.3c-0.6,0-1-0.2-1.3-0.6C75.4,466.3,75.2,465.6,75.2,464.5z
		 M76,464.5c0,0.9,0.1,1.6,0.3,1.9s0.5,0.5,0.8,0.5s0.6-0.2,0.8-0.5s0.3-0.9,0.3-1.9c0-0.9-0.1-1.6-0.3-1.9s-0.5-0.5-0.8-0.5
		c-0.3,0-0.6,0.1-0.8,0.4C76.1,462.9,76,463.6,76,464.5z"/>
	<path d="M102,467.3v-1.4h-2.5v-0.6l2.6-3.7h0.6v3.7h0.8v0.6h-0.8v1.4H102z M102,465.3v-2.6l-1.8,2.6H102z"/>
	<path d="M104.1,464.5c0-0.7,0.1-1.2,0.2-1.6s0.3-0.7,0.6-1s0.6-0.3,1-0.3c0.3,0,0.6,0.1,0.8,0.2s0.4,0.3,0.6,0.5s0.3,0.5,0.4,0.9
		s0.1,0.8,0.1,1.4c0,0.7-0.1,1.2-0.2,1.6s-0.3,0.7-0.6,1s-0.6,0.3-1,0.3c-0.6,0-1-0.2-1.3-0.6C104.3,466.3,104.1,465.6,104.1,464.5z
		 M104.9,464.5c0,0.9,0.1,1.6,0.3,1.9s0.5,0.5,0.8,0.5s0.6-0.2,0.8-0.5s0.3-0.9,0.3-1.9c0-0.9-0.1-1.6-0.3-1.9s-0.5-0.5-0.8-0.5
		c-0.3,0-0.6,0.1-0.8,0.4C105,462.9,104.9,463.6,104.9,464.5z"/>
	<path d="M136.7,463L136,463c-0.1-0.3-0.2-0.5-0.3-0.6c-0.2-0.2-0.4-0.3-0.7-0.3c-0.2,0-0.4,0.1-0.6,0.2c-0.2,0.2-0.4,0.4-0.5,0.7
		c-0.1,0.3-0.2,0.8-0.2,1.3c0.2-0.3,0.4-0.4,0.6-0.6c0.2-0.1,0.5-0.2,0.8-0.2c0.5,0,0.9,0.2,1.2,0.5c0.3,0.3,0.5,0.8,0.5,1.3
		c0,0.4-0.1,0.7-0.2,1c-0.2,0.3-0.4,0.5-0.6,0.7c-0.3,0.2-0.6,0.2-0.9,0.2c-0.6,0-1.1-0.2-1.4-0.6c-0.4-0.4-0.6-1.1-0.6-2.1
		c0-1.1,0.2-1.9,0.6-2.4c0.4-0.4,0.8-0.7,1.4-0.7c0.5,0,0.8,0.1,1.1,0.4C136.5,462.2,136.6,462.5,136.7,463z M133.8,465.5
		c0,0.2,0.1,0.5,0.2,0.7c0.1,0.2,0.2,0.4,0.4,0.5c0.2,0.1,0.4,0.2,0.6,0.2c0.3,0,0.6-0.1,0.8-0.4c0.2-0.2,0.3-0.6,0.3-1
		c0-0.4-0.1-0.7-0.3-0.9s-0.5-0.3-0.8-0.3c-0.3,0-0.6,0.1-0.8,0.3C133.9,464.8,133.8,465.1,133.8,465.5z"/>
	<path d="M137.5,464.5c0-0.7,0.1-1.2,0.2-1.6c0.1-0.4,0.3-0.7,0.6-1c0.3-0.2,0.6-0.3,1-0.3c0.3,0,0.6,0.1,0.8,0.2
		c0.2,0.1,0.4,0.3,0.6,0.5c0.2,0.2,0.3,0.5,0.4,0.9s0.1,0.8,0.1,1.4c0,0.7-0.1,1.2-0.2,1.6c-0.1,0.4-0.3,0.7-0.6,1
		c-0.3,0.2-0.6,0.3-1,0.3c-0.6,0-1-0.2-1.3-0.6C137.7,466.3,137.5,465.6,137.5,464.5z M138.2,464.5c0,0.9,0.1,1.6,0.3,1.9
		c0.2,0.3,0.5,0.5,0.8,0.5c0.3,0,0.6-0.2,0.8-0.5c0.2-0.3,0.3-0.9,0.3-1.9c0-0.9-0.1-1.6-0.3-1.9c-0.2-0.3-0.5-0.5-0.8-0.5
		c-0.3,0-0.6,0.1-0.8,0.4C138.3,462.9,138.2,463.6,138.2,464.5z"/>
	<path d="M144.4,467.3v-4.1h0.6v0.6c0.1-0.2,0.3-0.4,0.5-0.5c0.2-0.1,0.5-0.2,0.7-0.2c0.3,0,0.6,0.1,0.8,0.2
		c0.2,0.1,0.3,0.3,0.4,0.5c0.3-0.5,0.8-0.7,1.3-0.7c0.4,0,0.7,0.1,0.9,0.3c0.2,0.2,0.3,0.6,0.3,1.1v2.8h-0.7v-2.6
		c0-0.3,0-0.5-0.1-0.6c0-0.1-0.1-0.2-0.2-0.3c-0.1-0.1-0.3-0.1-0.4-0.1c-0.3,0-0.5,0.1-0.7,0.3c-0.2,0.2-0.3,0.5-0.3,0.9v2.4h-0.7
		v-2.7c0-0.3-0.1-0.5-0.2-0.7c-0.1-0.2-0.3-0.2-0.6-0.2c-0.2,0-0.4,0.1-0.5,0.2s-0.3,0.3-0.4,0.5c-0.1,0.2-0.1,0.5-0.1,0.9v2.2
		H144.4z"/>
	<path d="M151,462.4v-0.8h0.7v0.8H151z M151,467.3v-4.1h0.7v4.1H151z"/>
</g>
<line class="st43" x1="41.2" y1="456.3" x2="41.2" y2="460.5"/>
<line class="st43" x1="73.8" y1="456.3" x2="73.8" y2="460"/>
<line class="st43" x1="105.8" y1="456.3" x2="105.8" y2="460"/>
<line class="st43" x1="137.7" y1="456.3" x2="137.7" y2="460.5"/>
<rect x="172.1" y="183" class="st1" width="48.9" height="8.7"/>
<text transform="matrix(1 0 0 1 172.0795 189.4041)" class="st44 st9 st45">San Jose</text>
<rect x="316" y="178.6" class="st1" width="48.9" height="8.7"/>
<text transform="matrix(1 0 0 1 315.9965 185.0585)" class="st44 st9 st45">Limon</text>
<rect x="13.6" y="207.4" class="st1" width="59.1" height="8.7"/>
<text transform="matrix(1 0 0 1 13.6245 213.8443)" class="st44 st9 st45">San Francisco</text>
<g>
	<circle cx="208.5" cy="195.3" r="4"/>
	<polygon class="st16" points="208.5,191.2 209.3,193.9 212.3,193.9 209.8,195.5 210.8,198.3 208.5,196.4 206.2,198.3 207.2,195.5 
		204.8,193.9 207.5,194 	"/>
</g>
<circle cx="81" cy="210" r="4"/>
<circle cx="319.2" cy="191.3" r="4"/>
</svg>
