<?xml version="1.0" encoding="utf-8"?>
<!-- Generator: Adobe Illustrator 23.0.1, SVG Export Plug-In . SVG Version: 6.00 Build 0)  -->
<svg version="1.1" id="Layer_1" xmlns="http://www.w3.org/2000/svg" xmlns:xlink="http://www.w3.org/1999/xlink" x="0px" y="0px"
	 viewBox="0 0 720 540" style="enable-background:new 0 0 720 540;" xml:space="preserve">
<style type="text/css">
	.st0{fill:#4E54A5;stroke:#FF99D6;stroke-width:0.75;stroke-miterlimit:10;}
	.st1{fill-rule:evenodd;clip-rule:evenodd;fill:#4E54A5;stroke:#FF99D6;stroke-width:0.75;stroke-miterlimit:10;}
	.st2{fill:#E5367A;}
	.st3{font-family:'Bulo-Black';}
	.st4{font-size:16px;}
	.st5{fill:none;}
	.st6{fill:#3D3D3D;}
	.st7{font-size:36px;}
	.st8{font-size:6px;}
	.st9{font-family:'ArialMT';}
	.st10{font-size:12px;}
	.st11{font-size:15px;}
	.st12{font-size:13px;}
	.st13{font-family:'Arial-BoldMT';}
	.st14{fill:#A8A8A8;}
	.st15{fill:#4E54A5;}
	.st16{fill:#8BD8BD;}
	.st17{fill:#080A52;}
	.st18{fill:#37D196;}
	.st19{fill:#FF88C4;}
</style>
<g>
	<path id="Minor_Islands_8_" class="st0" d="M229.2,364.1l0.2,0.7l0.1,0.8l0.5,0.5l-0.2-2.5L229.2,364.1z M243.7,325.5l0.2,0.9
		l0.8-2.3v-2.4l-1.2,1.4L243.7,325.5z M232.6,207.7l-1.1,0.1l0.3,1.7l0.7,1l1.1,1.1l0.5-2.5l-0.3-0.5L232.6,207.7z M229,198.8
		l-0.8,0.9l-1.1,2.2l0.1,1.4l1-0.8l0.8-1.6l0.4-0.7L229,198.8z M240.3,336.5l0.6,0.9l0.2,0.5h0.4l-0.5-2.6L240.3,336.5z
		 M243.2,327.4l0.3,1.1l0.8-1.8l-1,0.5L243.2,327.4z M242.5,326.5l0.4,0.7l0.2,0.1l-0.9-3.2L242.5,326.5z M227,203.4h-0.4l0.2,1
		l0.2,1.3l0.1,0.9l0.2-0.3l0.4-0.1l0.7-0.7l0.1-0.9l-0.6-1.1L227,203.4z M202.5,459v-0.1l-0.3,0.2l0.2,0.3l0,0l0.1,0.1l0.2-0.1
		L202.5,459L202.5,459z M137.6,451.7V451l-1.2,1.6l-0.1,0.9l-0.8,0.4l0.5,0.7l0.7,0.7l0.6-0.8l0.3-0.6l0.9-0.8l-1.2-0.9L137.6,451.7
		z M254.2,113.7l-0.4,3.2l1.4-2.9L254.2,113.7z M214.1,468.4l0.4,0.5v-0.1v-0.6L214.1,468.4z M226,448l0.1-0.2l-0.2-0.5L226,448z
		 M209.2,392.6l-0.8,1.4l0.4,0.1l0.6-0.3l1.9-0.2l-0.5-0.9L209.2,392.6z M344.6,271.2l0.7,0.2l0.3-0.3l-0.8-0.5L344.6,271.2z
		 M294.6,354.7l1.4-0.5l1-1.8l-1.7,1L294.6,354.7z M255.6,158.7l-0.8,0.1l-0.9,1.7l-0.2,2.2l-0.3,1.8l0.8,0.8l0.1,1.2l-0.7,1
		l-0.8-0.3l-0.7,1.8l0.3,1l2.7-3l-0.5-3.2l0.3-3.3L255.6,158.7z M253.3,302.8l0.4,1l0.4,0.1l-0.4-2L253.3,302.8z M332.7,271.9
		l-0.2,2.9l0.7-2.1l1.9-2.3l0.1-1.1l-1.3-0.8L332.7,271.9z M254.1,288.4l-0.3-0.8l-3,0.3l-1,2.8l1.2-0.8l1.9-0.1l0.7,0.1
		L254.1,288.4z M348.9,221.1l-1.9-0.3l-1.4,1.2v1l2.6,1.1l0.9-0.5l0.6-1.2L348.9,221.1z M248.4,231.5l-1.3,0.9l0.2,1.2l1.2,1.9
		l1.3-1.4L248.4,231.5z M252.2,176.2v-3.4l-0.9,3l-0.1,3L252.2,176.2z M250,147.8l1.4-0.6l-1.9-0.3l-2.7-0.2l1.1,1.6L250,147.8z
		 M244.7,249.5l-0.5,1.9l-0.1,3.5l0.4,1.4l0.2-0.2l1-1.8l0.4-3.2l-0.9-2L244.7,249.5z M251.9,408.1l0.6-0.1l-0.3-0.6L251.9,408.1z
		 M249,308.4l0.3,0.3l2.2-0.9l-1.4-0.2L249,308.4z M242.8,269.2v1.6l0.4-0.1v-0.4l0.9-0.7l0.6-1.2l-1.1-0.7L242.8,269.2z"/>
	<polygon id="Toledo_8_" class="st1" points="169.7,394.1 170.8,394.1 171.3,393.9 178.3,394.5 179,394.4 180.7,394.4 181.7,394.6 
		182.5,394.7 186.1,394 187.9,394.1 188.6,394.4 189.1,395.8 191.1,396.6 191.1,396.6 191.7,398 188.5,400.5 184.9,407.7 
		181.6,409.2 181.3,410.3 180.9,414.6 180.9,415.6 180,416.2 179.1,416.2 178.5,415.9 178.5,415.6 177.3,416.3 177,416.6 
		176.8,417.1 176.1,418 173.8,423.5 173.2,424.4 171.8,425.2 167.2,431.3 166.7,432.2 165.9,434.7 165.4,435.5 165.3,436 
		165.5,437.7 165.4,438.2 165,438.3 163.6,438.1 163,438.2 162.3,438.6 160.1,439.1 159.3,439.6 159,440.3 158.2,443.2 158.2,435.5 
		156.9,435.5 155.8,439.6 153.3,440.2 150.9,438.6 149.8,436.2 149.1,435.2 147.6,435.1 146.2,435.3 145.6,435.5 145.4,436.2 
		145.5,439.5 144.9,440.7 143.7,441.1 137.7,441.9 136.8,442.7 135.9,443.5 134.6,444.2 132.3,444.5 129.8,445.8 129.1,448.6 
		129.5,455.7 128.8,459.5 127.1,462.3 124.7,464.1 121.7,464.6 120.7,465.1 119.7,466.3 118.9,467.7 118.1,470.8 117,471.7 
		115.6,472.4 113.8,473.4 111.9,475 111,476 110.3,477.1 109.9,479.2 110,481.1 109.5,482.7 104.9,484 101.9,485.9 99,488.4 
		96.9,490.9 96.4,495.4 100,503.1 99.4,507.3 92.7,510 77.3,506 71.7,506 66.6,506.8 53.3,506.2 50.1,507.5 48.4,507.6 46.5,508.4 
		44.8,509.2 44.4,509.8 42.9,507.3 43,505 43.3,496.1 47.8,453.8 50.5,415.9 52.5,412.9 53.4,411.6 54.3,410.7 55.5,409.2 56,408.4 
		56.3,407.7 56.4,406.8 56.5,406.5 57.1,405.5 57.8,404.7 58.7,404.1 64.8,401.6 67,401.4 67.8,401.3 69,400.8 72,400.5 73.1,399.9 
		74.5,398.9 78,395.4 79.1,394 79.7,393.8 80.4,394.1 81,394.5 81.5,395 82.8,396.3 83.3,396.6 84.1,396.6 85,396.4 92,393.7 
		92.7,393.2 92.4,391.7 92.5,391 93.2,389.9 94,389.2 95,388.5 96.9,387.5 98,387.3 98.8,387.4 99.9,387.2 101.5,386.2 106.1,382.6 
		107.4,381.9 108.8,381.5 109.6,381.2 112.5,378.9 116,375.3 116.4,373.5 116.3,372.4 115.6,369.3 115.7,368.6 116.2,367.7 
		118,365.3 119.1,364.2 119.5,363.8 120.9,363.1 123.8,362.9 128.9,361.2 142,360.9 146,361.5 148.6,362 154.7,365.4 155.6,366.2 
		156.1,367 156.6,368.6 157,369.4 157.1,370.1 157,371 156.3,372.6 156.4,373.6 157.1,374.6 159.3,377 159.9,377.9 160.5,378.6 
		160.8,379.2 161.3,380.1 161.7,380.9 162.1,381.5 162.8,383 163.1,383.9 163.3,384.5 163.1,385.1 162.9,386.3 162.6,389.4 
		162.5,390 162.5,390.7 162.2,391.5 161.8,391.9 161.6,392.7 162.6,393.1 	"/>
	<polygon id="Stann_Creek_8_" class="st1" points="191.1,396.6 189.1,395.8 188.6,394.4 187.9,394.1 186.1,394 182.5,394.7 
		181.7,394.6 180.7,394.4 179,394.4 178.3,394.5 171.3,393.9 170.8,394.1 169.7,394.1 162.6,393.1 161.6,392.7 161.8,391.9 
		162.2,391.5 162.5,390.7 162.5,390 162.6,389.4 162.9,386.3 163.1,385.1 163.3,384.5 163.1,383.9 162.8,383 162.1,381.5 
		161.7,380.9 161.3,380.1 160.8,379.2 160.5,378.6 159.9,377.9 159.3,377 157.1,374.6 156.4,373.6 156.3,372.6 157,371 157.1,370.1 
		157,369.4 156.6,368.6 156.1,367 155.6,366.2 154.7,365.4 148.6,362 146,361.5 142,360.9 128.9,361.2 123.8,362.9 123.2,360.5 
		123.2,359.8 124.2,356.2 126.1,352.7 127.1,350 132,342.4 132.8,341.6 133.8,341 137.1,339.7 140.3,339.2 141,339 141.5,338.6 
		141.6,338 140.9,337.2 138.6,335.6 138.4,334.9 138.7,334.2 139.8,333.3 141.4,332.6 142,332.1 142.5,331.5 142.8,330.6 143,329.7 
		142.7,327.4 142.7,326.5 143.2,324 143.2,322.9 143,322.1 143,321.3 143.3,320.4 148.6,314.6 149.8,312.4 150.6,311.7 152.6,310.1 
		153.7,308.6 154.9,306.5 155.9,303.5 157.7,299.8 158.3,299 159.2,298.3 160,297.5 160.1,295.9 158.9,294.6 156.5,292.4 
		153.9,288.3 153.3,286.8 153.9,285 200.3,284.1 201.9,283.6 202.9,283 206.4,281.6 208.8,279.2 208.9,280.9 209.8,285.1 
		210.4,287.4 212.1,288.3 215.9,289.6 218,292.3 219.4,296 220.3,299.9 220.8,305.8 221.7,310.2 221.3,312.4 220.3,312.8 
		218.7,312.8 216.9,313.5 215.1,315.3 212.7,318.1 210.6,321.2 209.8,324.2 210.5,327.6 213.9,333 214.7,336.2 215,336.2 
		215.6,336.7 216,337.6 215.9,338.6 215.2,338.8 212.9,338.5 212.2,338.6 209.9,340.5 209.1,341.5 208.7,343.1 208.4,344.1 
		207.4,345 206.6,346.2 206.2,348.1 206.4,350.4 207.2,353.3 207.4,355 205.8,368.1 204.7,370 203.2,371.7 201.4,374 199.5,381.5 
		198.4,383.8 197.9,387 199,391.7 198.3,393.4 197.1,395 195.8,395.1 195.3,392.3 200.8,371.4 203.8,368.2 204.9,366.3 200.3,368.8 
		195.5,380.8 191.7,385.2 192.9,385.5 195.3,386.7 194.2,387.3 193.3,387.5 192.1,387.3 190.6,386.7 190.9,388.2 191.4,389.1 
		192.3,389.3 194.1,389.2 194.1,390.3 192.2,391.6 191,393.4 190.7,395.6 	"/>
	<polygon id="Orange_Walk_8_" class="st1" points="209.6,124.6 170.8,134.8 161.5,140.2 160.5,143.4 160,144.9 159.8,146.8 
		159.9,148.1 160.6,150.6 160.8,151.8 160.7,154.1 159.6,159 159.5,159.8 159.5,160.9 160,165 160.1,166 159.6,170.5 159.6,171.7 
		160.6,174.2 160.8,175.1 160.7,176.4 159.8,177.2 158.4,177.8 156.6,178.3 151.5,180.8 149.5,183.9 147.2,190.4 147.1,193.8 
		149.3,220.4 146.8,219.7 145.5,220 141.9,221.8 139.9,222.1 136.9,223.2 131.8,226.8 128.6,227.9 124.7,228.4 119.9,228.2 
		117.4,228.4 115.6,228.3 111.5,228.5 108.3,228.3 105.7,227.8 104.6,228.2 103.2,229.7 102.2,231.2 100.5,232.4 98,233.3 
		77.7,235.7 76.2,235.2 74.9,234.7 72.9,234.8 70.5,235.8 63.2,240.6 57.9,245.1 57,193.9 56.2,153.9 56.1,137.8 57.4,130.4 
		58.7,128.5 61.1,125.1 75.6,119.7 79.5,121 82.3,123.6 84.9,126.6 87.8,128.9 89.9,129.1 92,128.7 93.6,129.1 96,134.3 98.3,136 
		105.3,140.2 106.9,139.8 107.9,138.2 108.7,134.2 109.5,132.8 118.4,126 120,124 122.6,116.8 123.4,115.1 126,113 128.4,111.5 
		130.5,109.9 132.2,107.2 132.7,105.2 133.2,101 133.8,99.1 138.1,91.7 138.6,89.7 138.1,87.1 137.4,86.5 142.5,82.7 147.5,80.3 
		149.6,78.7 151.4,75.9 151.9,73.7 153.6,74.1 164.8,79.1 172.9,85 185.6,102.6 	"/>
	<polygon id="Corozal_8_" class="st1" points="191,31.3 192,31.1 193,30.5 194.4,30.2 205.3,30.1 206.2,30.2 206.2,30.2 206.2,30.9 
		209.2,33.7 205.8,38.3 192.2,48.1 191,50.8 192.9,53.7 195.4,53.9 203.8,50.1 202.9,52.7 201.2,55.5 197.2,60.7 196.3,62.4 
		196.7,63.2 198.1,63.1 199.7,62 202.6,58.6 208.4,54.4 211.1,53.1 214,52.5 218,53.2 223,55.6 225.3,56.4 229,55.7 234.3,52 
		240.4,50.2 242.5,49.9 243.3,50.6 243,53.2 242.1,54.9 238.6,57.6 234.5,59.4 233.8,60.2 233.7,62.2 235,62.6 236.5,62 237.8,59.8 
		239.3,58.7 241,57.9 242.8,57.6 243.3,58.6 244.8,80.6 243.3,97.5 242.8,100.4 240.3,104.9 239.8,107.8 233.2,124.9 230.2,126.9 
		230.2,126.9 230.2,126.9 209.6,124.6 185.6,102.6 172.9,85 164.8,79.1 153.6,74.1 151.9,73.7 152.1,73 152.3,70.1 153,67 154.7,64 
		160,57.7 162.2,54.2 162.8,52.1 163.6,47.4 165.1,42.9 166,37.3 167,35.3 168.3,33.9 173.7,29.7 175.5,29.9 177.1,30.7 178.9,31.2 
		180.4,31 183.9,29.8 185.9,28.9 187,28.4 188,28.9 189.6,30.5 	"/>
	<polygon id="Cayo_8_" class="st1" points="153.9,285 153.3,286.8 153.9,288.3 156.5,292.4 158.9,294.6 160.1,295.9 160,297.5 
		159.2,298.3 158.3,299 157.7,299.8 155.9,303.5 154.9,306.5 153.7,308.6 152.6,310.1 150.6,311.7 149.8,312.4 148.6,314.6 
		143.3,320.4 143,321.3 143,322.1 143.2,322.9 143.2,324 142.7,326.5 142.7,327.4 143,329.7 142.8,330.6 142.5,331.5 142,332.1 
		141.4,332.6 139.8,333.3 138.7,334.2 138.4,334.9 138.6,335.6 140.9,337.2 141.6,338 141.5,338.6 141,339 140.3,339.2 137.1,339.7 
		133.8,341 132.8,341.6 132,342.4 127.1,350 126.1,352.7 124.2,356.2 123.2,359.8 123.2,360.5 123.8,362.9 120.9,363.1 119.5,363.8 
		119.1,364.2 118,365.3 116.2,367.7 115.7,368.6 115.6,369.3 116.3,372.4 116.4,373.5 116,375.3 112.5,378.9 109.6,381.2 
		108.8,381.5 107.4,381.9 106.1,382.6 101.5,386.2 99.9,387.2 98.8,387.4 98,387.3 96.9,387.5 95,388.5 94,389.2 93.2,389.9 
		92.5,391 92.4,391.7 92.7,393.2 92,393.7 85,396.4 84.1,396.6 83.3,396.6 82.8,396.3 81.5,395 81,394.5 80.4,394.1 79.7,393.8 
		79.1,394 78,395.4 74.5,398.9 73.1,399.9 72,400.5 69,400.8 67.8,401.3 67,401.4 64.8,401.6 58.7,404.1 57.8,404.7 57.1,405.5 
		56.5,406.5 56.4,406.8 56.3,407.7 56,408.4 55.5,409.2 54.3,410.7 53.4,411.6 52.5,412.9 50.5,415.9 52,396.9 55.2,345.2 
		58.2,297.5 57.9,245.1 63.2,240.6 70.5,235.8 72.9,234.8 74.9,234.7 76.2,235.2 77.7,235.7 98,233.3 100.5,232.4 102.2,231.2 
		103.2,229.7 104.6,228.2 105.7,227.8 108.3,228.3 111.5,228.5 115.6,228.3 117.4,228.4 119.9,228.2 124.7,228.4 128.6,227.9 
		131.8,226.8 136.9,223.2 139.9,222.1 141.9,221.8 145.5,220 146.8,219.7 149.3,220.4 153.4,218.7 154.5,216.9 155.5,214.5 
		156.9,213.8 157.7,215 158.1,217.4 159.8,254.3 159.6,261 159.8,262 161.8,264.8 163.3,268.4 163.4,270.4 163.4,272.2 162.5,274.3 
		162.3,275.6 161.7,277.7 161.3,278.6 161,279 160.6,279.2 160.3,279.7 159.9,280.3 159.7,281.3 159.1,282.4 158.8,282.8 
		158.4,283.2 157.9,283.6 	"/>
	<path id="Belize_9_" class="st0" d="M221.1,207l-1.7-1.6l-1.3-2.8l-6.2-3.2l-2.1-2.3l-0.7-4.4l0.8-3.9l1.9-3.4l4.6-5.5l1.3-3.1
		l4.2-15.3l2.1-15.4l-1-4.8l7.2-14.5l-20.6-2.3l-38.9,10.1l-9.3,5.4l-1.1,3.2l-0.4,1.6l-0.2,1.9l0.1,1.3l0.6,2.5l0.1,1.1l-0.1,2.4
		l-1,4.9l-0.1,0.8v1l0.5,4.1v1l-0.5,4.3l0.1,1.3l0.8,2.4l0.2,0.9l-0.1,1.2l-0.8,0.8l-1.4,0.6l-1.8,0.5l-5.2,2.5l-2,3.1l-2.3,6.5
		l-0.1,3.3l2.2,26.8l4.1-1.8l1-1.9l1-2.4l1.4-0.7l0.6,1.1l0.4,2.5l1.8,36.7l-0.2,6.8l0.2,0.9l2,2.9l1.4,3.5l0.1,2.1v1.7L162,274
		l-0.2,1.3l-0.6,2l-0.4,0.9l-0.3,0.4l-0.4,0.2l-0.3,0.5l0.2,0.9l-0.2,0.9l-0.6,1.1l-0.3,0.4l-0.4,0.4l-0.5,0.3l-3.9,1.4l46.3-0.8
		l1.7-0.5l0.9-0.5l3.6-1.3l2.3-2.4l0,0V279l-0.7-3.5l-1.2-3.9l0.6-7.2l0.2-3.8l1.7-18.7l7.2-24.4l0.4-2.9l2.1-1.7l4.4,0.7h4.6
		l2.1-3.6l-1.7-1.6L221.1,207z M264.5,105.9l1.4-1.2l0.4-2l-0.5-0.5l-1,0.4h-0.5l-0.9,0.6l-1.2,1.9l0.5,1.1L264.5,105.9z
		 M267.4,103.1l0.6,0.1l1.4-1.1l1-2l-0.1-2l-0.4-0.7l-0.3,0.3l-0.3,0.7l-0.3,1l-0.9,0.8l-0.9,0.5l-0.3,0.6l0.3,0.7L267.4,103.1z
		 M280.7,84.8l0.6-1.9l0.1-0.9l-0.1-0.7l-0.6-0.3h-0.4l-0.6-0.1l-0.1,0.3l0.3,0.8l-0.1,0.4l-0.5-0.4l-0.7,1.1l-0.5,3.2l1,0.9
		L280.7,84.8z M245.3,174.7l1.7-6l-2.1,0.9l-9.9,6.8l-3.6,1.8l-0.9,1.1l-0.2,0.5v0.8l5.7-0.5l5.5-1.9L245.3,174.7z M296.3,206.1
		l-2.2-1.9l-2.5-0.6l-2.1-0.1l-1.8,5.1l-0.1,1.1l1.3,0.2l1.7-0.9l2-1.8l1.4,2.4l-0.3,3.8l-1.3,3.6l-1.7,1.7l-2.2-0.3l-2.6-1.1
		l-1.8,0.2l-3.6,3.8l-3,2.3l-2.3,2.1l-1.3,2.9l-0.8,8.9l-1.7,6.5l-0.4,3.9l-0.2,0.6l-0.1,0.6l-0.2,0.6l-0.6,0.6l2.5,2.5l0.2-2.6
		l0.8-2.3l0.9-1.9l0.4-1.3l1.1-8.3l1.2-4.4l2-2.3l2.2-1.8l1.8-3l3.5,2.8l2.6-1.7l1.8-3.1l2.3-3.2l3.6-7.2l0.7-2.8L296.3,206.1z
		 M289.9,230.6l-2.2,2l2,2l0.6,4.7l-0.1,11.2l0.4-0.9l0.4-0.7l0.6-0.5l1-0.3l0.1,0.6l-0.1,1.9h1.2V246l0.3-1.9l0.8-1.3l-3-8.9
		L289.9,230.6z M274.3,122.7l1.3-8h-1.1l-0.2,1.7l-0.4,1.1l-1.7,2.5l-1.3-2.7v-1.2l1.4-0.7l1-1l0.6-1.3l0.4-2l1.1,0.5l1.2,0.8
		l1.7-3.3l3.6-9.9l1.3-2.1l2.3-2.2l0.3-4.1l-1.8-2.5l-3.8,2.6l-2.8-1.1l-1.8,1.7l-2.6,9.7l-0.1,1.8l-0.4,1.4l-0.8,0.8l-0.8,0.6
		l-0.4,0.8l-3.2,11.6l-0.7,5.8l2.8-0.1l-0.9,4.8l-2.3,3.2l-6.4,4.7l-0.6,0.1l-1.9-0.1v1.2l7.6-2.1l5.5-5.4L274.3,122.7z
		 M248.3,187.9l-2.4-2.1l2.3,10.2l1.6,4.3l0.9,1.8h1.1l-1.8-9.8L248.3,187.9z M242.6,208.8l-2.6-1l-1.1,0.8v1.1l0.5,0.5l0.6,0.9
		l1,1.2l1.6,0.7l1.4-0.2l0.2,0.8l0.2,3.8l0.3,1.6l1.2,0.1l0.7-1.7v-1.1l0.5-0.8l0.4-1.9l-1.7-2.5L242.6,208.8z"/>
</g>
<text transform="matrix(1 0 0 1 380.5074 490.8031)" class="st2 st3 st4">Life Expectancy</text>
<text transform="matrix(1 0 0 1 380.5074 336.4156)" class="st2 st3 st4">Cost of Living</text>
<text transform="matrix(1 0 0 1 380.5074 388.749)" class="st2 st3 st4">Healthcare</text>
<text transform="matrix(1 0 0 1 380.5074 438.6843)" class="st2 st3 st4">Crime</text>
<rect x="378.5" y="143.5" class="st5" width="286.7" height="136"/>
<text transform="matrix(1 0 0 1 378.5077 189.8607)" class="st6 st3 st7">L</text>
<text transform="matrix(1 0 0 1 396.2077 189.8607)" class="st6 st3 st8"> </text>
<text transform="matrix(1 0 0 1 397.4077 189.8607)" class="st6 st9 st10">orem ipsum dolor sit amet, consectetuer </text>
<text transform="matrix(1 0 0 1 378.5077 204.2607)" class="st6 st9 st10">adipiscing elit, sed diam nonummy nibh euismod </text>
<text transform="matrix(1 0 0 1 378.5077 218.6607)" class="st6 st9 st10">tincidunt ut laoreet dolore magna aliquam erat </text>
<text transform="matrix(1 0 0 1 378.5077 233.0607)" class="st6 st9 st10">volutpat. Ut wisi enim ad minim veniam, quis nostrud </text>
<text transform="matrix(1 0 0 1 378.5077 247.4607)" class="st6 st9 st10">exerci tation ullamcorper suscipit lobortis nisl ut </text>
<text transform="matrix(1 0 0 1 378.5077 261.8607)" class="st6 st9 st10">aliquip ex ea commodo consequat. Duis autem vel </text>
<text transform="matrix(1 0 0 1 378.5077 276.2607)" class="st6 st9 st10">eum iriure dolor in hendrerit in vulputate velit esse </text>
<text transform="matrix(1 0 0 1 378.5077 290.6607)" class="st6 st9 st10">molestie uis autem vel eum iriure dolor in hendrerit in </text>
<text transform="matrix(1 0 0 1 380.5074 48.3015)" class="st2 st3 st11">Capital: </text>
<text transform="matrix(1 0 0 1 425.5074 48.3015)" class="st6 st9 st12">  Belmopan</text>
<text transform="matrix(1 0 0 1 380.5074 65.9015)" class="st2 st3 st11">Population:</text>
<text transform="matrix(1 0 0 1 445.1073 61.9015)" class="st2 st9 st12"> </text>
<text transform="matrix(1 0 0 1 448.7074 65.9015)" class="st6 st9 st12">   385,854</text>
<text transform="matrix(1 0 0 1 380.5074 81.5015)" class="st2 st3 st11">Language:</text>
<text transform="matrix(1 0 0 1 437.5074 81.5015)" class="st6 st9 st12">    English 62.9% (official), Spanish 56.6%, </text>
<text transform="matrix(1 0 0 1 380.5074 97.1015)" class="st6 st9 st12">Creole 44.6%,</text>
<text transform="matrix(1 0 0 1 462.9074 93.1015)" class="st9 st12"> </text>
<text transform="matrix(1 0 0 1 380.5074 112.7015)" class="st2 st3 st11">Climate:</text>
<text transform="matrix(1 0 0 1 426.8073 108.7015)" class="st2 st13 st12"> </text>
<text transform="matrix(1 0 0 1 430.4074 112.7015)" class="st6 st9 st12">  tropical; very hot and humid; rainy</text>
<text transform="matrix(1 0 0 1 380.5074 128.3015)" class="st6 st9 st12">season (May to November); dry season </text>
<text transform="matrix(1 0 0 1 380.5074 143.9015)" class="st6 st9 st12">(February to May)</text>
<path class="st14" d="M638.4,349.9H380c-1.2,0-2.1-1-2.1-2.1l0,0c0-1.2,1-2.1,2.1-2.1h258.4c1.2,0,2.1,1,2.1,2.1l0,0
	C640.5,348.9,639.6,349.9,638.4,349.9z"/>
<path class="st15" d="M584,352.9H381.8c-2.2,0-3.9-1.8-3.9-3.9v-2.7c0-2.2,1.8-3.9,3.9-3.9H584c2.2,0,3.9,1.8,3.9,3.9v2.7
	C588,351.2,586.2,352.9,584,352.9z"/>
<path class="st14" d="M638.4,402.6H380c-1.2,0-2.1-1-2.1-2.1l0,0c0-1.2,1-2.1,2.1-2.1h258.4c1.2,0,2.1,1,2.1,2.1l0,0
	C640.5,401.7,639.6,402.6,638.4,402.6z"/>
<path class="st15" d="M543.1,406H381.8c-2.2,0-3.9-1.8-3.9-3.9V399c0-2.2,1.8-3.9,3.9-3.9h161.3c2.2,0,3.9,1.8,3.9,3.9v3.1
	C547.1,404.2,545.3,406,543.1,406z"/>
<path class="st14" d="M638.4,452.1H380c-1.2,0-2.1-1-2.1-2.1l0,0c0-1.2,1-2.1,2.1-2.1h258.4c1.2,0,2.1,1,2.1,2.1l0,0
	C640.5,451.1,639.6,452.1,638.4,452.1z"/>
<path class="st15" d="M519.9,455.2H381.8c-2.2,0-3.9-1.8-3.9-3.9v-2.7c0-2.2,1.8-3.9,3.9-3.9h138.1c2.2,0,3.9,1.8,3.9,3.9v2.7
	C523.9,453.4,522.1,455.2,519.9,455.2z"/>
<path class="st14" d="M638.4,504.5H380c-1.2,0-2.1-1-2.1-2.1l0,0c0-1.2,1-2.1,2.1-2.1h258.4c1.2,0,2.1,1,2.1,2.1l0,0
	C640.5,503.5,639.6,504.5,638.4,504.5z"/>
<path class="st15" d="M615.4,507.8H381.8c-2.2,0-3.9-1.8-3.9-3.9v-2.7c0-2.2,1.8-3.9,3.9-3.9h233.6c2.2,0,3.9,1.8,3.9,3.9v2.7
	C619.3,506.1,617.6,507.8,615.4,507.8z"/>
<rect x="-401" y="-35" class="st16" width="160" height="53"/>
<rect x="-401" y="16.1" class="st17" width="160" height="50.8"/>
<rect x="-401" y="66.9" class="st2" width="160" height="47.8"/>
<rect x="-205" y="-35" class="st18" width="160" height="53"/>
<rect x="-205" y="18" class="st15" width="160" height="50.8"/>
<rect x="-205" y="66.3" class="st19" width="160" height="47.8"/>
</svg>
