<?xml version="1.0" encoding="utf-8"?>
<!-- Generator: Adobe Illustrator 23.0.1, SVG Export Plug-In . SVG Version: 6.00 Build 0)  -->
<svg version="1.1" id="Layer_1" xmlns="http://www.w3.org/2000/svg" xmlns:xlink="http://www.w3.org/1999/xlink" x="0px" y="0px"
	 viewBox="0 0 720 515.3" style="enable-background:new 0 0 720 515.3;" xml:space="preserve">
<style type="text/css">
	.st0{display:none;}
	.st1{fill:none;}
	.st2{fill:#A8A8A8;}
	.st3{fill:#89CCA3;stroke:#0FB753;stroke-width:0.25;stroke-miterlimit:10;}
	.st4{fill:#143C75;}
	.st5{font-family:'Bulo-Black';}
	.st6{font-size:14.5939px;}
	.st7{font-size:36px;}
	.st8{fill:#565556;}
	.st9{font-family:'ArialMT';}
	.st10{font-size:11px;}
	.st11{font-size:15px;}
	.st12{fill:#E5367A;}
	.st13{fill:#606060;}
	.st14{fill:#3D3D3D;}
	.st15{font-family:'Arial-BoldMT';}
	.st16{fill:#FFFFFF;}
	.st17{fill:#8D90C7;stroke:#FFFFFF;stroke-width:0.5;stroke-miterlimit:10;}
	.st18{fill-rule:evenodd;clip-rule:evenodd;fill:#8D90C7;stroke:#FFFFFF;stroke-width:0.5;stroke-miterlimit:10;}
	.st19{fill-rule:evenodd;clip-rule:evenodd;fill:#F8A25E;stroke:#FFFFFF;stroke-width:0.5;}
	.st20{fill-rule:evenodd;clip-rule:evenodd;fill:#3A9DB4;stroke:#FFFFFF;stroke-width:0.5;stroke-miterlimit:10;}
	.st21{fill:#3A9DB4;stroke:#FFFFFF;stroke-width:0.5;stroke-miterlimit:10;}
	.st22{fill-rule:evenodd;clip-rule:evenodd;fill:#F1E355;stroke:#FFFFFF;stroke-width:0.5;stroke-miterlimit:10;}
	.st23{fill:#F1E355;stroke:#FFFFFF;stroke-width:0.5;stroke-miterlimit:10;}
	.st24{fill-rule:evenodd;clip-rule:evenodd;fill:#D96CA9;stroke:#FFFFFF;stroke-width:0.5;stroke-miterlimit:10;}
	.st25{fill:#D96CA9;stroke:#FFFFFF;stroke-width:0.5;stroke-miterlimit:10;}
	.st26{fill:#D96CA9;}
	.st27{fill:#9ECF85;stroke:#FFFFFF;stroke-width:0.5;stroke-miterlimit:10;}
	.st28{fill-rule:evenodd;clip-rule:evenodd;fill:#9ECF85;stroke:#FFFFFF;stroke-width:0.5;stroke-miterlimit:10;}
	.st29{fill:#73AFDF;}
	.st30{fill-rule:evenodd;clip-rule:evenodd;fill:#F49294;stroke:#FFFFFF;stroke-width:0.5;}
	.st31{fill:#F49294;stroke:#FFFFFF;stroke-width:0.5;}
	.st32{fill:#77AE87;stroke:#FFFFFF;stroke-width:0.5;stroke-miterlimit:10;}
	.st33{fill-rule:evenodd;clip-rule:evenodd;fill:#77AE87;stroke:#FFFFFF;stroke-width:0.5;stroke-miterlimit:10;}
	.st34{fill-rule:evenodd;clip-rule:evenodd;fill:#D0B0CE;stroke:#FFFFFF;stroke-width:0.5;}
	.st35{fill:#D0B0CE;stroke:#FFFFFF;stroke-width:0.5;}
	.st36{fill:#BF84BE;}
	.st37{fill:#F37B58;stroke:#FFFFFF;stroke-width:0.5;stroke-miterlimit:10;}
	.st38{fill-rule:evenodd;clip-rule:evenodd;fill:#F37B58;stroke:#FFFFFF;stroke-width:0.5;stroke-miterlimit:10;}
	.st39{fill:#F37B58;}
	.st40{fill-rule:evenodd;clip-rule:evenodd;fill:#F6B3CD;stroke:#FFFFFF;stroke-width:0.5;stroke-miterlimit:10;}
	.st41{fill:#F6B3CD;stroke:#FFFFFF;stroke-width:0.5;stroke-miterlimit:10;}
	.st42{fill:none;stroke:#000000;stroke-width:0.75;stroke-miterlimit:10;}
	.st43{fill:none;stroke:#000000;stroke-width:0.5;stroke-miterlimit:10;}
	.st44{fill:#33353D;}
	.st45{font-size:9px;}
	.st46{letter-spacing:3;}
	.st47{letter-spacing:31;}
</style>
<g id="Malta_1_" class="st0">
	
		<image style="display:inline;overflow:visible;" width="328" height="353" id="Layer_0_5_" xlink:href="BDBD7598E7F54032.png"  transform="matrix(1.2508 0 0 1.2508 -16.3549 -32.3496)">
	</image>
</g>
<text transform="matrix(1 0 0 1 399.7657 433.6366)" class="st4 st5 st6">Life Expectancy</text>
<text transform="matrix(1 0 0 1 399.7657 297.4646)" class="st4 st5 st6">Cost of Living</text>
<text transform="matrix(1 0 0 1 399.7657 342.287)" class="st4 st5 st6">Healthcare</text>
<text transform="matrix(1 0 0 1 399.7657 388.0098)" class="st4 st5 st6">Crime</text>
<rect x="397.3" y="138.5" class="st1" width="286.7" height="136"/>
<text transform="matrix(1 0 0 1 397.3338 163.8929)" class="st4 st5 st7">M</text>
<text transform="matrix(1 0 0 1 418.3338 163.8929)" class="st8 st9 st10">   alta ipsum dolor sit amet, consectetuer adipiscing elit, </text>
<text transform="matrix(1 0 0 1 397.3338 177.093)" class="st8 st9 st10">sed diam nonummy nibh euismod tincidunt ut laoreet </text>
<text transform="matrix(1 0 0 1 397.3338 190.293)" class="st8 st9 st10">dolore magna aliquam erat volutpat. Ut wisi enim ad minim </text>
<text transform="matrix(1 0 0 1 397.3338 203.4927)" class="st8 st9 st10">veniam, quis nostrud exerci tation ullamcorper suscipit </text>
<text transform="matrix(1 0 0 1 397.3338 216.6927)" class="st8 st9 st10">lobortis nisl ut aliquip ex ea commodo consequat. Duis </text>
<text transform="matrix(1 0 0 1 397.3338 229.8928)" class="st8 st9 st10">autem vel eum iriure dolor in hendrerit in vulputate velit </text>
<text transform="matrix(1 0 0 1 397.3338 243.0928)" class="st8 st9 st10">esse molestie uis autem vel eum iriure dolor in hendrerit in </text>
<text transform="matrix(1 0 0 1 397.3338 256.2928)" class="st8 st9 st10">vulputate velit esse molestie</text>
<text transform="matrix(1 0 0 1 399.3335 21.3339)" class="st4 st5 st11">Capital:</text>
<text transform="matrix(1 0 0 1 448.3335 21.3339)" class="st12 st5 st11"> </text>
<text transform="matrix(1 0 0 1 451.2334 21.3339)" class="st13 st9 st10">Valletta</text>
<text transform="matrix(1 0 0 1 399.3335 39.3339)" class="st4 st5 st11">Population:</text>
<text transform="matrix(1 0 0 1 473.8335 39.3339)" class="st12 st9 st10"> </text>
<text transform="matrix(1 0 0 1 476.9336 39.3339)" class="st13 st9 st10">449,043</text>
<text transform="matrix(1 0 0 1 399.3335 57.3337)" class="st4 st5 st11">Language:</text>
<text transform="matrix(1 0 0 1 465.1336 57.3337)" class="st14 st9 st10"> </text>
<text transform="matrix(1 0 0 1 468.1336 57.3337)" class="st13 st9 st10">Maltese (official) 90.1%, English (official) 6%, </text>
<text transform="matrix(1 0 0 1 399.3335 70.5337)" class="st13 st9 st10">multilingual 3%, other 0.9%</text>
<text transform="matrix(1 0 0 1 399.3335 88.5338)" class="st4 st5 st11">Climate:</text>
<text transform="matrix(1 0 0 1 452.7334 88.5338)" class="st12 st15 st10"> </text>
<text transform="matrix(1 0 0 1 455.8335 88.5338)" class="st13 st9 st10">Mediterranean; mild, rainy winters; hot, </text>
<text transform="matrix(1 0 0 1 399.3335 101.7338)" class="st13 st9 st10">dry summers</text>
<path class="st2" d="M635,309.7H399.3c-1.1,0-2-0.9-2-2l0,0c0-1.1,0.9-2,2-2H635c1.1,0,2,0.9,2,2l0,0
	C636.9,308.8,636,309.7,635,309.7z"/>
<path class="st3" d="M470.6,312.5h-69.3c-2.2,0-3.9-1.8-3.9-3.9v-1.8c0-2.2,1.8-3.9,3.9-3.9h69.3c2.2,0,3.9,1.8,3.9,3.9v1.8
	C474.5,310.7,472.7,312.5,470.6,312.5z"/>
<path class="st2" d="M635,354.9H399.3c-1.1,0-2-0.9-2-2l0,0c0-1.1,0.9-2,2-2H635c1.1,0,2,0.9,2,2l0,0C636.9,354,636,354.9,635,354.9
	z"/>
<path class="st3" d="M513.2,358H401.3c-2.2,0-3.9-1.8-3.9-3.9V352c0-2.2,1.8-3.9,3.9-3.9h111.9c2.2,0,3.9,1.8,3.9,3.9v2.1
	C517.1,356.2,515.4,358,513.2,358z"/>
<path class="st2" d="M635,400.2H399.3c-1.1,0-2-0.9-2-2l0,0c0-1.1,0.9-2,2-2H635c1.1,0,2,0.9,2,2l0,0
	C636.9,399.3,636,400.2,635,400.2z"/>
<path class="st3" d="M541.4,403.1H401.3c-2.2,0-3.9-1.8-3.9-3.9v-1.8c0-2.2,1.8-3.9,3.9-3.9h140.1c2.2,0,3.9,1.8,3.9,3.9v1.8
	C545.3,401.3,543.6,403.1,541.4,403.1z"/>
<path class="st2" d="M635,446.1H399.3c-1.1,0-2-0.9-2-2l0,0c0-1.1,0.9-2,2-2H635c1.1,0,2,0.9,2,2l0,0
	C636.9,445.2,636,446.1,635,446.1z"/>
<path class="st3" d="M596.5,449.1H401.3c-2.2,0-3.9-1.8-3.9-3.9v-1.8c0-2.2,1.8-3.9,3.9-3.9h195.2c2.2,0,3.9,1.8,3.9,3.9v1.8
	C600.4,447.4,598.6,449.1,596.5,449.1z"/>
<polygon class="st4" points="653.4,296.7 653.4,303.2 644.2,308 653.4,312.2 653.4,318.6 675.3,318.6 675.3,296.7 "/>
<polygon class="st4" points="653.4,341.9 653.4,348.4 644.2,353.2 653.4,357.3 653.4,363.8 675.3,363.8 675.3,341.9 "/>
<polygon class="st4" points="653.4,387.3 653.4,393.7 644.2,398.5 653.4,402.7 653.4,409.2 675.3,409.2 675.3,387.3 "/>
<polygon class="st4" points="653.4,433.2 653.4,439.7 644.2,444.4 653.4,448.6 653.4,455.1 675.3,455.1 675.3,433.2 "/>
<text transform="matrix(1 0 0 1 657.7637 311.5071)" class="st16 st15 st10">30</text>
<text transform="matrix(1 0 0 1 658.7642 356.9701)" class="st16 st15 st10">45</text>
<text transform="matrix(1 0 0 1 657.7637 402.0516)" class="st16 st15 st10">56</text>
<text transform="matrix(1 0 0 1 657.764 448.093)" class="st16 st15 st10">83</text>
<path id="Malta" class="st29" d="M152,99.2l1.1-1.3v-0.9l-0.3-0.5l-2.3,0l-1.1,1.4v0.9l0.4,0.5L152,99.2z M25.6,73.9l-0.4-0.4h-0.7
	l-0.4,0.5v1.9l0.4,0.4l1.1-1.4L25.6,73.9z M154.2,104.7l-2.2,0l-0.7,1.9l-1.5-1.9l-2.9,1l-0.8-0.9h-1.5l-1.1,1.3l0.7,0.9v0.9
	l0.8,0.9l0,3.7l1.1,2.3l4.1,0.5l-1.1,2.3h-0.7l-1.5,2.7l-1.1,0.5l0.4,1.3l2.2,0l0.7-0.9l0.7,0.9l3.8,0l2.2-1.8l1.5,0.9l3,0.1
	l0.8-0.9l5.2,0l4.1-4.1l-1.1-2.3h-0.7l-3-3.6l-2.2-1.9h-1.5l-2.2-3.7h-1.5l-1.5,1.8l-1.4-0.9L154.2,104.7z M136.4,98.3h5.9l1.5-1.8
	h3.8l4.4-2.8l2.9,0l1.1-1.3l-0.7-6.4l-4.1-4.1h-0.7l-0.3-1.5l-4.8-5.9l-5.2-4.6l-0.7,1l-1.5-0.1l-2.6-3.2l-1.2-6l-3.6-0.9l-2.2,1.8
	l-4.4,0l-2.2-3.7l-3-0.9l-2.2-3.6h-3l-1.8,1.3l-0.4,1.4l-2.9,0.9l-2.7-2.2l-1.1-2.3H103l-0.8,0.9l-1.4-0.9l-3.8-5.4L93.4,45
	l-2.9-0.9l-3,1.9l-0.4-2.3l-1.8-2.3l-3.7,0l0.1-3.7l-3,0.9l-1.5-1.8l-1.5,0l-0.7,0.9h-2.2l-2.2-1.9l-3.8,0l-0.7,0.9l-0.7-0.9l-3,0
	l-0.7,0.9l-2.9-0.9l-1.5,0.9l-1.5-0.9l-2.9,1.8l-0.8-0.9h-1.5l-0.8,0.9l-2.9,0l-2.9,1.8h-6L34,43.2l-1.4,0l-0.8-0.9l-0.7,0.9l-1.5,0
	l-2.2,1.9l-6-0.9l-1.9,3.1l0,2.8l2.6,6l3,0.9l0.3,3.2L27,62l0,1.9l-2.9,2.8v0.9l3.7,7.3l-3,2.8l0,2.7l-3.7,5.5l1.1,2.3l3,0l2.2,1.8
	l2.3,0.1l0.7,0.9L34,90l0.7-0.9l2.3,0l2.2,1.9l3.7,0l0.8,1.9l2.2,0l1.9,1.4l-1.9,0.5L45.6,96l1.8,2.2l3,1.9l1.5,3.6h3l0.7,0.9H57
	l3-1.8l2.9,1.8h5.2l0.8,0.9l5.9,0.9l0.7,0.9l1.5-0.9l2.2,0l3.4,3.2l1.1,2.3h2.9l3,2.7l2.2-0.9l0.7-1.8l2.2-1.8l3.7-0.9l0.7-3.7
	l2.2,2.8l1.5,0.9l2.9,0l1.5-1.8l3.7,0.1l0.8-1l1.4-0.9l3,0.9l2.9-1.8l1.9-2.3l0-1.8l2.6-2.3l2.2-1.9l3,1.9l1.4,0l2.2-1.8l0.8,0.9
	l2.2,0L136.4,98.3z M252.7,178.1l0.4-0.4v-0.9l-0.4-0.5H252l-0.4,0.5v0.9l0.4,0.5H252.7z M214.2,166.2l1.1-1.4v-1.8l-0.4-0.4h-0.7
	l-0.7,0.9h-0.7l-0.4,0.5v1.9l0.4,0.4H214.2z M220.1,163.4l0.4-1.4l-1.9-1.4l-0.7,0.9h-0.7l-0.4,1.4l0.3,0.5L220.1,163.4z
	 M368.4,275.1h-2.2l-0.7-0.9l-3.8,0l-0.7,0.9L358,276l-0.4-1.4l1.1-1.4h2.2l0.7-0.9l5.9,0l0.4-1.4l-1.4-1.8l-1.5-4.6l-2.6-3.2
	l-3.7-0.9l-1.5-2.8l-0.7,0l-1.5-1.8l-2.2-0.1l-2.2-1.8l-3.7-5.5l-2.2-0.9l-2.3-2.7l-4.5-2.7l-1.4-1.8l-2.9,0.9l-0.8-0.9l-3-0.9
	l-1.5-1.9l-6-0.9l-0.4,2.3l3,3.7l-1.1,0.4l-1.5-0.9l-1.1,1.3l3,3.7l-1.1,0.5l-0.7-0.9h-0.8l-2.9-3.6l-2.6,0.5v1.8l3.7,5.5v1.8
	l-1.1,0.5l-1.8-5l-1.9-2.3l-1.9,0.5l3,7.4l-0.4,2.3l-1.8-2.3l0-2.8l-1.1-1.4l-2.2,0.9l-0.8,0.9l-2.2,0l-1.5,0.9l-1.9,2.3l0,2.8
	l-1.1,1.3l-4-1.4l2.9-0.9l0-3.7l3.4-3.2l2.2,0.1l0.4-2.3l1.1-1.3h0.7l4.5-5.5h2.2l2.6-2.3l-0.7-0.9l0.7-1.8l-0.4-4.1l-0.7,0.9l-6,0
	l-2.2,2.8l-2.2,1l-1.5,1.8h-1.5l-5.2,5.5l-0.4-2.3l-5.2,0l0.4-1.3h3.7l0.8-0.9l3.3-0.4l0-1.9l-2.6-2.3h-1.5l-1.1-3.2l3.3-3.2
	l4.5-0.9l3,1.8l2.2,0l1.5,1.9l2.2,0l1.9-2.3l-1.1-2.3l-2.2-0.9l-1.5-1.8h-2.2l-0.4-1.4l0.8-2.8l-3.4-1.4l-3.7-2.7h-1.5l-1.5,2.7
	l-2.2,0l-0.7,0.9l-1.8-3.2l1.9-0.5l1.1-1.4l0-2.8l-0.7-0.9l2.2-3.7l-1.9-0.5l-0.7,0.9l-3.7,0l-0.7,0.9l0-1.8h2.2l1.1-1.4v-0.9
	l-2.6-2.3l-3,0l-4.1-4.1l-1.1-2.3l-3.7-0.9l-0.7-0.9h-1.5l-1.4,1.8l-3.8-0.1l-0.7,1l-3.7-0.9l-3-1.8l-1.5-2.8l-0.7,0.9l-1.9-0.5
	l0-4.6l-1.1-2.3l-1.8,0.5l-1.9,4.1l-1.9-2.3l-0.7-3.7l-1.9-3.2l-1.5-0.9l-2.2,0l-3-1.8l-0.7-0.9l-2.9-0.1l-2.2,4.6l-2.3,0.9
	l-1.5,1.8l-1.1-1.4l0.8-6.4l1.9-3.2l1.5,0.1l1.9-2.4l-1.1-1.3h-1.4l-0.7,0.9l-2.2-0.1l-1.5,1l-2.9,2.8l-2.2-0.9l-1.5,5.5l-2.9,0.9
	l-0.7-0.9l-1.5-0.1l-2.9,3.7l-4.4,0l-0.8-0.9l-2.2,0l-0.7,0.9l-1.5,0.9l-0.7-0.9l-0.7,0.9h-1.5l-2.2,2.8h-3l-0.7,0.9l-1.1-0.4l0-1.8
	l3.7-3.7l0.7-2.8l1.5-1.8V173l-1.1-0.4v-0.9h2.9l1.5,0.9l1.9-2.3l0.7-4.6l-1.5-0.9l1.5-1.8l0-1.9l-2.6-1.3l-0.7,0.9h-2.3l-0.7-0.9
	h-2.9l-0.8-0.9l-1.5,0l-0.8,0.9l-2.9-0.1l-1.5-2.7h-2.2l-2.9,1.9l-6.7,0.9l-0.7,0.9l-4.4,0l-0.7,0.9l-4.4,0l-0.7,0.9l-1.1-1.4l0-1.8
	l-2.3-2.7l0-0.9l1.9-2.3l3,0l1.4-0.9l0.7-1.9l1.5,0l3-3.6h0.8l1.5-3.7l5.1,0l0.8-0.9h1.5l2.6-3.2l-1.5-2.7l-0.7-3.7l-1.1-0.4
	l-0.4-1.4l-3.3-3.3l-1.5,1h-3.7l-0.4,4.1l1.5,0.9l-0.4,0.5h-1.5l-2.2,1.8l-5.1-0.9l-1.1,1.3v1.9l-1.1,1.3l-1.5-1.8H166l-1.5,1.8
	l-1.5,0l-0.8-0.9h-2.9l-0.7,0.9h-2.2l-0.8-0.9l-5.2,0l-0.8-0.9l-2.2,0.9v1.8l1.5,0.1l2.2,1.8l1.5,0l0.4,1.4l-1.1,1.3l-2.2,0
	l-1.5,2.8l-1.5,0.9l-1.5-0.9l-1.1,1.3l0,1.9l-2.2,3.6l-0.7,3.7l1.9,1.4h2.2l0.8,0.9l2.9,0l0.7-0.9l5.2,0l1.8,4.1l0,2.7l-0.7,0.9
	l0.4,2.3l4,0.5l-2.9,0.9l0.7,5.6l0.4,0.4l0.7-0.9l0.4,1.3l-2.2,1.8l0,2.8l-1.1,0.5l-2.2,3.7h-2.9l-1.1,1.3l-0.7,4.6l1.5,0.9l1.1,2.3
	l3.7-0.9l3,3.7h2.9l1.1,1.4l-0.7,2.7l1.5,1.9l-5.2,0l0.4,2.3l3.3,1.4l-0.7,2.8l0.8,0.9l-1.1,1.4l-2.2-2.7l-3,0l-0.8-0.9l-1.1,1.3
	l-0.8,3.7l-1.4,0.9l0,2.8l3.3,2.2l0.4,0.5l-0.7,0.9l3,2.7l1.5,2.7l-4.1,2.3l-5.2-1.8l-0.3,2.3l1.4,1.8l-2.2,8.3l2.6,0.4l3.3,3.2
	l0.8,1.8l1.5,3.6l0,5.5l-0.8,2.8l1.8,2.3h0.8l1.9,2.3l0,1.9l1.1,1.3l1.5,0l0.8,1.8l1.4,0.9h2.2l0.7,0.9l3,0l-0.4,2.3l1.1,1.4
	l1.5,0.9h2.2l2.5,3.2l0,2.8l1.9,0.5l0.8,0.9l1.4,0l4.5,5.5l1.4,0.9h3l2.2,3.6l1.5,0.9h3.7l4.5,3.7l5.5,3.2l0.8,2.8l-0.7,0.9l0.3,1.4
	l3.8,0l1.5,1.9l1.5,0.9l3,0.1l0.7,0.9l4.4,0l1.5,0.9l0.4,3.2l1.8,3.2l1.5,0.9l2.2,0l0.8,0.9l5.2,0l0.7-0.9l3,1.8l3,0.1l0.3,1.3
	l2.6,2.3l0.8-0.9l1.5,0l2.3,1.9l3.7,0.9l3.7,2.7h2.2l2.2-3.7l2.3,1.8l2.2-0.9l0.8,0.9l2.2,0l5.1,5.5l6,0.9l0.7-1h2.9l2.2,1.9h2.2
	l0.7-0.9l3.7,0l1.5,1.8l4.4,0l2.2,1.9l3,0l1.5,1.8l4.4,2.7l2.9,0l1.4,0.9l0.7-0.9l4.5,0l0.7-0.9l0.7,0.9l5.2-0.9l0.7,0.9l5.2-1
	l5.9-3.6l0.4-1.5l-0.7-0.9l-1.2-4.1l-1.5-0.9l-1.4,0.9l-1.5-2.7l-4.1-1.4l-1.5-5.5l2.6-0.5l1.1-1.4V314l-2.2-1.9l1.1-1.3l3.7,0
	l0.8-0.9l1.5,0.1l2.2,3.6h1.5l0.7,0.9l1.9-0.5l0.7-2.8l-0.7-5.5l-1.5-0.9l0.4-3.2l1.5,1.9h1.4l3,3.6l3.7,1.8l1.1,2.3l-1.5,8.2
	l1.5,1.8l0.7,3.6l1.1,0.5l2.6-1.3l0.7-1.8l-0.8-2.7l2.2-5.5l-1.5-2.8l0.7-3.6l-1.8-0.5l-1.8-3.2l2.6-0.5l2.2,1.9l0.4-2.3l-2.2-2.7
	l1.9-1.3l2.2,0.9l1.5,1.8l3.3-0.5l0-1.9l-1.1-2.3h-2.2l-1.1-1.4l1.9-3.2h3l0-2.7l-6.6,0l-1.9-3.2l1.9-1.3l2.2,1.8l1.1-1.4l0-1.8
	l2.2-1.8l0.4-1.4l1.4-0.9h2.2l0.4-2.3L368.4,275.1z M219.4,360.1l-0.7-0.8l-1.4-0.1l-0.4,1.4l1.1,1.4l4.9-0.5l-0.4-1.3L219.4,360.1z
	 M133.8,99.7l1.1,1.3l1.5,0l1.1-1.4l-3.3-1.4L133.8,99.7z M305.4,229.4l-5.2,0l-1.1,2.3l1.9,2.3l2.9,0l0.7,0.9h1.5l2.6-4.1l-2.6-0.5
	L305.4,229.4z M215.7,362l-0.4,0.4v0.9l0.3,0.5l0.8,0l0.4-0.4v-0.9l-0.3-0.4H215.7z M212.7,362l-0.4,0.5v0.9l0.4,0.4h1.5l0.4-0.5
	v-0.9l-0.4-0.4H212.7z M144.2,111.6l-2.6-2.3l-2.2,0l-0.4,2.3l1.1,1.4l4.1-0.5V111.6z"/>
<line class="st42" x1="58.4" y1="448.1" x2="137.6" y2="448.1"/>
<line class="st42" x1="58" y1="451.7" x2="186.7" y2="451.7"/>
<line class="st43" x1="58.4" y1="444.4" x2="58.4" y2="448.6"/>
<line class="st43" x1="137.6" y1="444.4" x2="137.6" y2="448.4"/>
<g>
	<path d="M56.7,440c0-0.7,0.1-1.2,0.2-1.6c0.1-0.4,0.3-0.7,0.6-1c0.3-0.2,0.6-0.3,1-0.3c0.3,0,0.6,0.1,0.8,0.2
		c0.2,0.1,0.4,0.3,0.6,0.5c0.2,0.2,0.3,0.5,0.4,0.9s0.1,0.8,0.1,1.4c0,0.7-0.1,1.2-0.2,1.6c-0.1,0.4-0.3,0.7-0.6,1
		c-0.3,0.2-0.6,0.3-1,0.3c-0.6,0-1-0.2-1.3-0.6C56.8,441.8,56.7,441.1,56.7,440z M57.4,440c0,0.9,0.1,1.6,0.3,1.9
		c0.2,0.3,0.5,0.5,0.8,0.5c0.3,0,0.6-0.2,0.8-0.5c0.2-0.3,0.3-0.9,0.3-1.9c0-0.9-0.1-1.6-0.3-1.9c-0.2-0.3-0.5-0.5-0.8-0.5
		c-0.3,0-0.6,0.1-0.8,0.4C57.5,438.4,57.4,439,57.4,440z"/>
	<path d="M98.9,442.8v-1.4h-2.5v-0.6l2.6-3.7h0.6v3.7h0.8v0.6h-0.8v1.4H98.9z M98.9,440.8v-2.6l-1.8,2.6H98.9z"/>
	<path d="M137.8,439.7c-0.3-0.1-0.5-0.3-0.6-0.5s-0.2-0.4-0.2-0.7c0-0.4,0.1-0.8,0.4-1.1s0.7-0.4,1.2-0.4c0.5,0,0.9,0.1,1.2,0.4
		s0.5,0.6,0.5,1.1c0,0.3-0.1,0.5-0.2,0.7s-0.4,0.3-0.6,0.5c0.4,0.1,0.6,0.3,0.8,0.6s0.3,0.6,0.3,0.9c0,0.5-0.2,0.9-0.5,1.2
		s-0.8,0.5-1.4,0.5s-1-0.2-1.4-0.5s-0.5-0.8-0.5-1.3c0-0.4,0.1-0.7,0.3-0.9S137.4,439.8,137.8,439.7z M137.4,441.2
		c0,0.2,0,0.4,0.1,0.6s0.2,0.3,0.4,0.4s0.4,0.2,0.6,0.2c0.3,0,0.6-0.1,0.8-0.3s0.3-0.5,0.3-0.8c0-0.3-0.1-0.6-0.3-0.8
		s-0.5-0.3-0.8-0.3c-0.3,0-0.6,0.1-0.8,0.3S137.4,440.8,137.4,441.2z M137.6,438.5c0,0.3,0.1,0.5,0.3,0.7s0.4,0.3,0.7,0.3
		c0.3,0,0.5-0.1,0.7-0.3s0.3-0.4,0.3-0.6c0-0.3-0.1-0.5-0.3-0.7s-0.4-0.3-0.7-0.3c-0.3,0-0.5,0.1-0.7,0.3S137.6,438.3,137.6,438.5z"
		/>
	<path d="M143.5,442.8v-5.7h0.7v3.3l1.7-1.7h0.9l-1.6,1.5l1.7,2.6h-0.9l-1.4-2.1l-0.5,0.5v1.6H143.5z"/>
	<path d="M147.5,442.8v-4.1h0.6v0.6c0.1-0.2,0.3-0.4,0.5-0.5s0.5-0.2,0.7-0.2c0.3,0,0.6,0.1,0.8,0.2s0.3,0.3,0.4,0.5
		c0.3-0.5,0.8-0.7,1.3-0.7c0.4,0,0.7,0.1,0.9,0.3s0.3,0.6,0.3,1.1v2.8h-0.7v-2.6c0-0.3,0-0.5-0.1-0.6s-0.1-0.2-0.2-0.3
		s-0.3-0.1-0.4-0.1c-0.3,0-0.5,0.1-0.7,0.3s-0.3,0.5-0.3,0.9v2.4H150v-2.7c0-0.3-0.1-0.5-0.2-0.7s-0.3-0.2-0.6-0.2
		c-0.2,0-0.4,0.1-0.5,0.2s-0.3,0.3-0.4,0.5s-0.1,0.5-0.1,0.9v2.2H147.5z"/>
</g>
<g>
	<path d="M56.7,459.5c0-0.7,0.1-1.2,0.2-1.6c0.1-0.4,0.3-0.7,0.6-1c0.3-0.2,0.6-0.3,1-0.3c0.3,0,0.6,0.1,0.8,0.2
		c0.2,0.1,0.4,0.3,0.6,0.5c0.2,0.2,0.3,0.5,0.4,0.9s0.1,0.8,0.1,1.4c0,0.7-0.1,1.2-0.2,1.6c-0.1,0.4-0.3,0.7-0.6,1
		c-0.3,0.2-0.6,0.3-1,0.3c-0.6,0-1-0.2-1.3-0.6C56.8,461.4,56.7,460.6,56.7,459.5z M57.4,459.5c0,0.9,0.1,1.6,0.3,1.9
		c0.2,0.3,0.5,0.5,0.8,0.5c0.3,0,0.6-0.2,0.8-0.5c0.2-0.3,0.3-0.9,0.3-1.9c0-0.9-0.1-1.6-0.3-1.9c-0.2-0.3-0.5-0.5-0.8-0.5
		c-0.3,0-0.6,0.1-0.8,0.4C57.5,457.9,57.4,458.6,57.4,459.5z"/>
	<path d="M123.4,462.3V461h-2.5v-0.6l2.6-3.7h0.6v3.7h0.8v0.6h-0.8v1.4H123.4z M123.4,460.3v-2.6l-1.8,2.6H123.4z"/>
	<path d="M184.4,459.2c-0.3-0.1-0.5-0.3-0.6-0.5s-0.2-0.4-0.2-0.7c0-0.4,0.1-0.8,0.4-1.1s0.7-0.4,1.2-0.4c0.5,0,0.9,0.1,1.2,0.4
		s0.5,0.6,0.5,1.1c0,0.3-0.1,0.5-0.2,0.7s-0.4,0.3-0.6,0.5c0.4,0.1,0.6,0.3,0.8,0.6s0.3,0.6,0.3,0.9c0,0.5-0.2,0.9-0.5,1.2
		s-0.8,0.5-1.4,0.5s-1-0.2-1.4-0.5s-0.5-0.8-0.5-1.3c0-0.4,0.1-0.7,0.3-0.9S184.1,459.3,184.4,459.2z M184.1,460.7
		c0,0.2,0,0.4,0.1,0.6s0.2,0.3,0.4,0.4s0.4,0.2,0.6,0.2c0.3,0,0.6-0.1,0.8-0.3s0.3-0.5,0.3-0.8c0-0.3-0.1-0.6-0.3-0.8
		s-0.5-0.3-0.8-0.3c-0.3,0-0.6,0.1-0.8,0.3S184.1,460.4,184.1,460.7z M184.3,458c0,0.3,0.1,0.5,0.3,0.7s0.4,0.3,0.7,0.3
		c0.3,0,0.5-0.1,0.7-0.3s0.3-0.4,0.3-0.6c0-0.3-0.1-0.5-0.3-0.7s-0.4-0.3-0.7-0.3c-0.3,0-0.5,0.1-0.7,0.3S184.3,457.8,184.3,458z"/>
	<path d="M190.2,462.3v-4.1h0.6v0.6c0.1-0.2,0.3-0.4,0.5-0.5s0.5-0.2,0.7-0.2c0.3,0,0.6,0.1,0.8,0.2s0.3,0.3,0.4,0.5
		c0.3-0.5,0.8-0.7,1.3-0.7c0.4,0,0.7,0.1,0.9,0.3s0.3,0.6,0.3,1.1v2.8h-0.7v-2.6c0-0.3,0-0.5-0.1-0.6s-0.1-0.2-0.2-0.3
		s-0.3-0.1-0.4-0.1c-0.3,0-0.5,0.1-0.7,0.3s-0.3,0.5-0.3,0.9v2.4h-0.7v-2.7c0-0.3-0.1-0.5-0.2-0.7s-0.3-0.2-0.6-0.2
		c-0.2,0-0.4,0.1-0.5,0.2s-0.3,0.3-0.4,0.5s-0.1,0.5-0.1,0.9v2.2H190.2z"/>
	<path d="M196.9,457.4v-0.8h0.7v0.8H196.9z M196.9,462.3v-4.1h0.7v4.1H196.9z"/>
</g>
<line class="st43" x1="58.2" y1="451.3" x2="58.2" y2="455.5"/>
<line class="st43" x1="186.3" y1="451.7" x2="186.3" y2="455.1"/>
<line class="st43" x1="98.5" y1="444.5" x2="98.5" y2="448.5"/>
<line class="st43" x1="122.9" y1="451.4" x2="122.9" y2="455.4"/>
<rect x="317.9" y="226.8" class="st1" width="48.9" height="8.7"/>
<text transform="matrix(1 0 0 1 317.8753 233.2479)"><tspan x="0" y="0" class="st44 st9 st45">Valletta</tspan><tspan x="30" y="0" class="st44 st9 st45 st46">	</tspan></text>
<g>
	<circle cx="313.9" cy="239" r="4"/>
	<polygon class="st16" points="313.9,234.9 314.6,237.6 317.6,237.6 315.2,239.2 316.2,242 313.9,240.1 311.6,242 312.6,239.2 
		310.1,237.6 312.9,237.7 	"/>
</g>
<circle cx="252.3" cy="239" r="4"/>
<circle cx="286.8" cy="264.5" r="4"/>
<rect x="262.4" y="251.9" class="st1" width="48.9" height="8.7"/>
<text transform="matrix(1 0 0 1 262.3637 258.3911)" class="st44 st9 st45">Qormi</text>
<rect x="231.2" y="225.9" class="st1" width="48.9" height="8.7"/>
<text transform="matrix(1 0 0 1 231.2301 232.3077)"><tspan x="0" y="0" class="st44 st9 st45">Birkirkara</tspan><tspan x="38" y="0" class="st44 st9 st45 st47">	</tspan></text>
</svg>
