<?xml version="1.0" encoding="utf-8"?>
<!-- Generator: Adobe Illustrator 23.0.1, SVG Export Plug-In . SVG Version: 6.00 Build 0)  -->
<svg version="1.0" id="Layer_1" xmlns="http://www.w3.org/2000/svg" xmlns:xlink="http://www.w3.org/1999/xlink" x="0px" y="0px"
	 viewBox="0 0 80 110" enable-background="new 0 0 80 110" xml:space="preserve">
<g>
	
		<polygon id="San_Jose" fill-rule="evenodd" clip-rule="evenodd" fill="#3A9EB5" stroke="#F9F9FA" stroke-width="0.25" stroke-linecap="round" stroke-linejoin="round" points="
		47,41.6 47.4,42.7 47.4,42.8 47.5,42.9 47.7,43 47.9,43.2 48,43.2 48,43.3 48.5,43.8 48.6,43.9 48.6,44.1 48.7,44.7 48.8,45.2 
		48.7,45.4 48.6,45.5 48.6,45.5 48.4,45.6 48.2,45.6 47.9,45.9 47.8,45.9 47.7,46 47.7,45.9 47.6,45.9 47.4,45.9 46.8,45.9 
		46.8,45.9 45.8,46.3 45.2,47.2 45.1,47.4 45.2,47.5 45.3,47.5 45.7,47.7 45.1,48.8 44.9,48.9 44.6,49.1 44.2,49.5 44.1,49.7 
		44,49.9 44,50 44,50 44,50.1 44,50.2 44.1,50.2 44.1,50.2 44.2,50.2 44.2,50.2 44.5,50.1 44.7,50.1 44.8,50.1 44.9,50.1 45,50.1 
		45.9,49.9 46,50 46.1,50.2 46.1,50.3 46.2,50.4 46.3,50.7 46.7,50.8 46.9,50.9 46.9,51 46.9,51 47.1,51.3 47.6,52 47.7,52.1 
		47.8,52.1 48,52.2 48.5,52.4 48.6,52.5 48.7,52.5 48.7,52.4 48.8,52.4 48.9,52.4 49,52.4 49.1,52.4 49.2,52.5 49.2,52.5 49.4,52.8 
		49.6,53.1 49.6,53.2 49.6,53.3 49.7,53.5 49.8,53.6 49.9,53.7 50,53.8 50,53.8 50.5,53.9 50.6,53.9 51.1,53.8 51.3,54.2 51.4,54.2 
		51.5,54.3 51.8,54.4 51.9,54.5 52,54.5 52,54.6 52.1,54.8 52.1,55.1 52.2,55.2 52.2,55.2 52.5,55 52.6,55 52.7,55 52.9,55 53,55 
		53.1,55 53.1,55 53.2,54.9 53.3,54.9 53.3,54.9 53.3,54.9 53.4,54.8 53.5,54.6 53.6,54.5 53.8,54.4 54.4,55 54.6,55.2 54.8,55.3 
		54.9,55.3 57.2,56.7 58,58.8 58.2,59 58.2,59.1 58.5,59.3 58,59.8 58,59.9 57.9,60 57.7,60.6 57.7,60.7 57.6,60.8 57,61.5 57,61.6 
		56.9,61.7 56.7,62.8 56.7,62.9 56.7,62.9 56.8,62.9 57,63 57,63 57.1,63 57.1,63.1 57.2,63.1 57.2,63.1 57.3,63.1 57.3,63.1 
		57.4,63.1 57.4,63.2 57.4,63.2 57.5,63.3 57.5,63.3 57.5,63.4 57.6,63.5 57.6,63.8 57.5,63.9 57.4,64.2 57.3,64.4 57.3,64.5 
		57.4,65 57.4,65.1 57.3,65.2 57.3,65.2 57.2,65.2 57.2,65.3 57.1,65.3 57,65.4 56.8,65.7 56.8,65.8 56.7,65.8 56.7,65.8 56.6,65.8 
		56.5,65.8 56.5,65.8 56.4,65.7 56.3,65.7 56.2,65.6 56.1,65.5 56.1,65.5 56,65.5 56,65.5 55.8,65.5 55.5,65.5 55.5,65.5 53.4,64.2 
		53.3,64 53.2,63.9 53.2,63.9 53,63.3 53,63.2 53,63.2 52.9,63 52.4,62.4 52.1,62.1 51.9,62 51.8,62 51.8,62 51.7,62 51.7,62 
		51.6,62 51.5,62 51.5,62.1 51.4,62.1 51.2,62.4 51.2,62.4 51.2,62.4 51.1,62.4 51,62.5 50.9,62.4 49.8,61.9 49.6,61.8 49.5,61.7 
		49.5,61.6 49.4,61.4 49.2,60.9 49.2,60.7 49.2,60.5 49.2,60.3 49.1,60.2 49,60 48.3,59.2 48.2,59.2 48.1,58.7 48.1,58.6 47.9,58.4 
		47.9,58.3 47.8,58.2 47.7,58.2 47.7,58.2 47.6,58.2 47.6,58.2 47.5,58.3 47.5,58.3 47.4,58.3 47.4,58.4 47.3,58.4 47,58.3 
		45.5,57.3 45,56.8 44.7,56.1 44.2,55.9 44.1,55.8 44.1,55.7 44.2,55.6 44.2,55.5 44.2,55.3 44.2,55 44.1,54.9 44.1,54.8 44,54.8 
		43.9,54.8 43.7,54.7 43.4,54.7 43.2,54.8 43.1,54.8 42.9,54.7 42.8,54.5 42.7,54.4 42.7,54.4 42.7,54.3 42.7,54.1 42.7,54 
		42.7,53.9 42.7,53.8 42.7,53.6 42.6,53.5 42.5,53.4 42.5,53.4 42.3,53.4 41.3,53.5 40.9,53.4 40.6,53.3 39.9,53.3 39.6,53.3 
		39.6,53.3 39.4,53.1 39.3,53 39.2,52.9 38.9,52.9 37.9,52.9 37.4,53 37.1,53 37,53.1 36.9,53.1 36.9,53.1 37,53.6 37,53.7 37,53.8 
		36.9,53.9 36.8,53.9 36.6,54.1 36.5,54.2 36.5,54.2 36.3,54.5 36.3,54.6 36.2,54.6 36.2,54.6 36.1,54.6 36,54.6 36,54.6 35.9,54.5 
		35.8,54.4 35.8,54.4 35.7,54.3 35.7,54.3 35.6,54.3 35.3,54.4 35.2,54.4 35.1,54.4 34.9,54.4 34.3,54.5 34,54.4 34,54.4 33.8,54.2 
		33.7,54.1 33.6,53.8 33.5,53.7 33.4,52.9 33.3,52.9 32.8,52 32.8,51.9 32.8,51.8 32.8,51.4 32.7,51.1 32.6,50.5 32.6,50.5 
		32.6,50.4 32.6,50.3 32.6,50.3 32.7,50.3 32.7,50.2 32.8,50.2 32.9,50.2 33.3,50.2 33.4,50.2 33.5,50.2 33.5,50.2 33.6,50.1 
		33.6,50.1 33.6,50 33.7,49.8 33.7,49.7 33.6,49.6 33.5,49.4 33.4,49.2 33.4,49.2 33.3,49.1 33.2,49 33,48.9 32.8,48.8 33,48.7 
		33.2,48.7 33.2,48.6 33.3,48.4 33.3,48.4 33.7,47.8 33.7,47.8 33.7,47.7 33.8,47.6 33.9,47.5 34.3,47.3 34.6,47.1 34.6,47 34.6,47 
		34.8,46.9 35.5,46.6 36.5,46.5 37,46.4 37.5,46.5 37.9,46.6 38,46.6 38.1,46.6 38.4,46.7 38.5,46.7 38.9,46.6 40.4,46.2 41,46 
		41.3,45.7 41.7,45.6 42.1,45.8 42.4,45.9 43.2,45.5 43.3,45.5 43.9,45.6 44.1,45.5 44.7,45.4 45.1,45.1 45.4,44.3 45.6,43.9 
		45.5,43.7 45.5,43.7 45.4,43.6 45.2,43.4 45.1,42.8 45.1,42.6 44.8,42.3 44.3,41.5 44.2,41.4 44.2,41.3 44.3,41.2 45.3,41.1 
		45.7,41 46.2,41 46.3,41 46.4,40.8 46.9,40.3 47.7,40.2 47.5,40.4 47.4,40.6 	"/>
	<path id="Puntarenas" fill="#3A9EB5" stroke="#F9F9FA" stroke-width="0.25" stroke-linecap="round" stroke-linejoin="round" d="
		M19.5,42.8l0.4,0.2l0.4,0l0.4,0l0.3-0.1l0.3-0.1v-0.1l-0.2,0l-0.2,0l-0.1-0.1l-0.2-0.1l-0.1,0l-0.2-0.1H21v-0.2L20.3,42l-0.7-0.1
		l-0.2,0L19,42l0.3,0.6L19.5,42.8z M25.3,48.5L25,48.4l0.3-0.3l0.2-0.1l0.2-0.1l-0.3-0.3L25,47.3l0-0.3l0.4-0.1v-0.1l-0.3-0.2
		l-0.6-0.4l-0.3-0.2L24,46.1l-0.4,0l-0.4-0.1l-0.9-0.5l-0.4-0.1l-0.2,0.1l-0.2-0.1l-1.4-0.6l-0.5-0.5l0,0L19.5,45l-0.1,0.2l-0.5,0.1
		l-0.1,0l-0.6,0.3l-0.1,0l0,0l0,0l0,0l0,0l-0.2,0l-0.2,0.1L17,45.9l-0.2,0.2l-0.1,0.2l0,0.1l0.1,0.1l0.1,0.1l0.1,0l0.1,0l0.2,0
		l0.1,0l0.1,0l0.2,0l0.1,0l0.1,0.1l0.1,0l0.1,0l0.2,0l0.1,0l0.1,0.1l0.2,0.1l0.1,0l0,0l0.1,0.1l0.1,0.1l0.1,0.1l0,0.1l0,0l0,0.1
		l0,0.1l0,0.1l0,0l0,0l0.1,0l0.3,0.1l0,0l0,0.1l-0.1,0.1l-0.1,0.2l-0.2,0.9l0,0.1l0,0.1l0.1,0.1l0,0.1l0,0l-0.1,0.1l0,0.1l0,0.1
		L19,50.2l0,0.1l-0.1,0.1l-0.1,0l-0.1,0.1l-0.1,0.3l-0.1,0l0,0l-0.1,0.1l-0.1,0.1l0,0l0,0l1.9,2.5l0.6,1.3H21l0.3-0.4l0.2-0.4
		l0.5-1.6l0.1-0.2l0.5-0.3l0.1-0.1l0.1,0l0.7-0.4l0.1-0.1L23.2,51l-0.1-0.2l0.2-0.3l0.4,0l0.7,0.3l0.1-0.2l0.1-0.4l0.1-0.2l0.5-0.3
		l0.1-0.1l0.1-0.4l0.3-0.2l0.4-0.2l0.3-0.2v-0.1l-0.8,0L25.3,48.5z M48.1,73.9l0.1,0.1l0.3,0.1l0.2-0.1l0-0.3l-0.3,0L48.1,73.9z
		 M74.3,68.9l-0.6-1l-0.3-0.2l-1-0.3l-1-0.8l-0.5-0.2l-0.1-0.1l-0.1-0.1L70.6,66l-0.1-0.2l-0.2-0.1l-0.2,0L69.4,66l0-0.3l0,0
		l-0.2-0.2l-0.1,0l-0.4-0.1L68.4,65l-0.1-0.2l-0.1-0.4L68,64.2l-0.1-0.1l-0.1-0.1L67,63.9l-0.1,0l-0.1-0.1l-0.1-0.1l0-0.1l-0.2-1.2
		l-0.1-0.2l-0.1-0.1l0,0l0,0l0,0l-0.8-0.5l-0.1-0.1l-0.2-0.2l-0.9-1.1l-0.1,0l-0.1,0l-0.5,0l-0.3,0.1h-0.1l-0.1,0l-0.2,0L62.7,60
		l-0.2-0.1l-0.1-0.1l-0.4-0.1l-0.1-0.1l-0.1,0l-0.1,0l-0.4-0.4l-0.1-0.1L61.1,59L61,59l-0.1,0l-0.2,0.1l-0.1,0.1l-0.1,0.1l-0.3,0.4
		l0,0l-0.1,0l-0.4,0l-0.1,0l-0.1,0l-0.1,0.1l0,0l-0.1,0l0,0l-0.1,0l-0.1-0.2l0-0.1l0-0.1l-0.1-0.1l-0.1,0l-0.6-0.2L58,59.8L58,59.9
		L57.9,60l-0.1,0.6l-0.1,0.1l-0.1,0.1L57,61.5L57,61.6l0,0.1l-0.2,1.1l0,0.1l0,0l0,0l0.2,0l0.1,0l0,0l0,0l0,0l0.1,0h0.1l0.1,0l0.1,0
		l0,0l0,0l0,0.1l0,0l0,0.1l0,0.1l0,0.3l0,0.1l-0.2,0.3l0,0.1l0,0.1l0.1,0.5l0,0.1l0,0.1l0,0l0,0l0,0l-0.1,0L57,65.4l-0.2,0.3l0,0
		l0,0l-0.1,0l-0.1,0l-0.1,0l-0.1,0l-0.1-0.1l0,0l-0.1-0.1l-0.1-0.1l-0.1,0l-0.1,0l-0.1,0l-0.2,0l-0.2,0l-0.1,0l-2-1.3L53.3,64
		l-0.1-0.1l0,0L53,63.3l0-0.1l0-0.1L52.9,63l-0.5-0.6l-0.3-0.3L51.9,62l-0.1,0l-0.1,0h-0.1l-0.1,0l-0.1,0l-0.1,0l-0.1,0l0,0
		l-0.2,0.3l0,0l0,0l-0.1,0l-0.1,0l-0.2,0l-1.1-0.5l-0.2-0.1l-0.1-0.1l-0.1-0.1l-0.1-0.2l-0.1-0.5l0-0.2l0-0.1l0-0.2l-0.1-0.1L49,60
		l-0.7-0.7l0-0.1l-0.1-0.4l0-0.1l-0.2-0.3l-0.1-0.1l-0.1-0.1l-0.1,0h-0.1l-0.1,0l-0.1,0l-0.1,0l0,0l0,0l0,0l0,0.1L47,58.3l-1.5-1
		L45,56.8l-0.4-0.7l-0.5-0.2l-0.1-0.1l0-0.1l0.1-0.1l0-0.1l0-0.1l0-0.3l0-0.1l0-0.1l-0.1,0l-0.1,0l-0.2,0l-0.3,0l-0.2,0l-0.1,0
		l-0.2-0.1l-0.2-0.2l-0.1-0.1l0-0.1l0-0.1l0-0.1l0-0.2l0-0.1l0-0.1l0-0.2l-0.1-0.1l-0.1-0.1l-0.1,0l-0.2,0l-1,0.1l-0.3,0l-0.3-0.1
		l-0.8,0l-0.2,0l0,0l-0.2-0.2L39.3,53l-0.1-0.1l-0.3,0l-1,0.1L37.4,53l-0.3,0l-0.1,0l-0.1,0l0,0.1l0.1,0.4l0,0.1l0,0.1l0,0.1
		l-0.1,0.1l-0.3,0.2l-0.1,0.1l0,0l-0.1,0.3l-0.1,0.1l-0.1,0l-0.1,0l-0.1,0l-0.1,0l0,0l0,0l-0.1-0.1l0,0l-0.1,0l-0.1,0l-0.1,0
		l-0.3,0.1l-0.1,0l-0.1,0l-0.2-0.1l-0.7,0.1l-0.2,0l-0.1,0l-0.2-0.1l-0.1-0.2l-0.1-0.2l-0.1-0.2l-0.1-0.8l0-0.1L32.8,52l-0.1-0.1
		l0-0.1l0-0.4l-0.1-0.3l-0.2-0.6l0-0.1l0-0.1l0-0.1l0,0l0,0l0.1,0l0.1,0l0.1,0l0.4,0l0.1,0l0.1,0l0.1,0l0,0l0-0.1l0-0.1l0-0.2l0-0.1
		l0-0.1l-0.1-0.2l-0.1-0.2l0,0l-0.1-0.1L33.2,49L33,48.9l-0.2-0.1l0.2-0.2L32.5,48l-0.2-0.2l-0.3-0.1l-0.3,0l-0.4-0.1l-0.5-0.2
		l-0.2-0.1l-0.1-0.1l0-0.1l0-0.1l0-0.1l0-0.1l0,0l0.2-0.1l0.4-0.7l0.2-0.2l0.2-0.1l1.1-0.7l0.4-0.1l0.1-0.1l0.1-0.1l0,0l0-0.2
		l-0.3-0.5l-0.2-0.1l-0.1,0l-0.2,0.1l-0.2,0l-0.1,0l0,0l0,0l0-0.1l0-0.1L32.3,44L32,43.6l-0.2-0.3l-0.4-0.5l-0.1-0.2L31,42.1
		l-0.1-0.4l0.1-0.6l0-0.1l0-0.1l-0.1-0.2l0-0.1v-0.1l0.1-0.5l0.1-0.2l0.2-0.4l0-0.1l0-0.1l0,0l-0.1-0.1L31,39l-0.1-0.4l-0.4-0.3
		l-0.2,0l-0.1,0l-0.1,0l-0.1,0.1l-0.3,0.1l-0.4,0.1l-0.2,0l-0.1,0l-0.1-0.1l0,0l-0.1-0.2l-0.5-0.8l-0.3-0.3l-0.1,0l-0.1,0l-0.1,0
		l-0.2,0l-0.1,0l-0.1,0l-0.1,0.1l-0.2,0.2l-0.1,0.1l-0.2,0.1l-0.1,0.1l-0.1,0.1L26.3,38l0,0.1l0,0.1v0.1l0,0.1l0,0l0,0l0.2,0.2l0,0
		l0,0.1l0,0.1l0,0.1L26.4,39l-0.1,0.4l0,0.1l-0.1,0.3l0,0.1l0,0.1l0,0.1l0,0l0,0l0.1,0.1l0,0.1l0,0.1l0,0.2l0,0.1l0,0.1l-0.4,0.2
		l-0.1,0.1l-0.4,0.4l-0.1,0.1l-0.1,0.1l0,0.1l0,0.1l0,0.1l0.1,0.2l0,0.1l0,0l-0.1,0l-0.1,0l-0.1,0L24.9,42l-0.2-0.1l-0.1-0.1
		l-0.3-0.3l-0.2-0.1l0,0l-0.2-0.1l-0.1,0l-0.1,0l-0.1,0l-0.1,0l-0.1,0l0,0l-0.1,0l-0.1,0l-0.1,0l0,0L23.1,41l0,0L23,41L23,41l-0.1,0
		l-0.1,0l-0.1,0l-0.1,0l-0.2,0l-0.4,0.1l0,0l0,0l0,0.2l-0.1,0.2l0.2,0.2l0.1,0l0.1-0.1l0.1-0.1l0.1,0l0.2,0.2l0.5,0.2l0.9,0.9
		l0.4,0.2l-0.1,0.1l0.2,0.2l0.3,0.2l0.1,0l0.1,0.1l0.7,0.6l0.5,0.3l0.6,0.2l0.6,0.1l0.7,0v0.2l-0.8,0l-0.4,0l-0.3,0.1v0.2l2-0.2
		l0.6,0.2l-0.1,0.3l0.1,0.2l0.5,0.5L29.6,47l0,0.3l0.4,0.2l0.3,0.2l0.9,1.3l0.3,0.4l0.2,0.2l0.1,0.3l-0.1,0.3l-0.2,0.2l-0.2,0.2
		L31.1,51l-0.4,0.4l-0.1,0.3l0,0.2l0.1,0.2l0,0.2l-0.1,0.3l0.3,0l0.1,0.2l0,0.2l0.1,0.2l0.2,0.2l0.2,0.1l0.2,0.2l0.1,0.3l0.2,0.3
		l0.8,0.5l0.4,0.3l0-0.2l0-0.1l-0.1-0.1l0.3,0.1l0.1,0.2l0.1,0.3l0.3,0.2l0.3,0l0.3-0.1l0.3-0.1l0.3,0l0.6,0l3,0.8l0.6,0l0.6,0.1
		l0.9,0.5l0.6,0.1l-0.3-0.2l-0.1-0.1l-0.2,0v-0.2l0.6,0.2l0.6,0.5l0.3,0.6l-0.2,0.4l0.4,0.1l0.2,0.2l0.2,0.1l0.3-0.1l0.1,0.2
		l0.1,0.1l0.1,0l0.1-0.1h0.1l2.1,0.8l0.3,0.2l1.7,0.8l1.8,1.7l0.5,0.1l0.7,0.3l0.5,0.5L51,63.9l0.9,0.2l0.6,0.6l0.5,0.8l0.5,0.7
		l0.2-0.2l0.4,0.4l0.1,0.2l0.6,1.6l-0.2,0.2l-0.2,0.2l-0.1,0.2L54,68.9l0.1,0.1l0.2,0.1l0,0.1L54,69.3l0.3,0l0.1,0.1l0.1,0.1
		l0.1,0.1l0.3,0.2l0.2,0.1l0.1,0.2l-0.3,0L54.8,70l-0.4-0.2l0.1,0.4l0.3,0.2l0.3,0.2l0.1,0.2L55,71l-0.3,0.2l-0.6,0.3l-0.3,0.4
		l-0.1,0.4l0.1,0.2l0.3-0.1l0.3-0.3l0.2-0.1l0.2,0l0.5,0.1v0.1l-0.5,0.1l-0.6,0.3L53.7,73l0.3,0.4l-0.1,0.2l-0.5,0.8l-0.2,0.2
		l-0.1-0.1L53,74.3l-0.2,0.1l-0.4,0.2l-0.2,0.2l-0.7,1.1l0.1,0.7l0.1,0.1l0.5,0.2l0.1,0l0.1,0.2l1.9,1.8l0.5,0.7l0.3,0.3l0.3,0.2
		l0.4,0l1.4-0.2l0.5,0.1l1.3,0.6v-0.3l0.2,0.2l0.2,0.1l0.4,0.2l-0.3,0l-0.1,0l-0.1-0.1h-0.1l0.4,0.3l0.8,0.4l0.8,0.3l0.5,0l0.2-0.6
		L62,80l-0.1-0.8l-0.3-0.5v-0.2l0.1-0.2l0-0.2l0-0.6l-0.3,0.2l-0.3-0.2l-0.3-0.4L60.5,77l-0.3,0l-0.8-0.3l-0.3-0.2l-0.2-0.2
		l-0.5-0.7l-0.1-0.4l-0.8-1.2h-0.1l0,0l-0.2,0.1l0.1-0.4l0.3-0.1l0.7,0.1l0.3-0.1l0.1-0.1l0-0.2l0.1-0.1l0.2,0l0.1,0.1l0.1,0
		l0.1-0.3l0.4,0.1l0.5,0.1l0.3,0.2L60.6,74l0.2,0l0.2,0l-0.1,0.5l0.2,0.3l0.7,0.4L62,75l0.3,0.2l0.3,0.3l0.2,0.3l0.3-0.1l0.5,0.1
		l0.4,0l0.2-0.3h0.2l0.2,0.3l0.3,0.3l0.3,0.2l0.3,0.1v0.2l-0.7,0.3l-0.1-0.1l0-0.3l-0.1-0.2L64.3,76h-0.2l0,0.1l0,0.1L64,76.3
		l0.4,0.9l0.2,0.2l0.3,0.1l0.7,0l0.3,0.1l-0.4,0.2l-0.3,0.1L65,77.9l0,0.3l0.1,0.3l0.7,0.9l0.1,0.4l-0.2,0.3l-0.2,0.3l-0.1,0.2
		l-0.1,0.1l-0.7,0.8l0.8,0.7l2.8,2l0.5,0.6l1.5,2.6l0.1,0.3l-0.1,0.3l-0.2,0.4l0,0.3l0.3,0.2l0.1-0.5l0.1-1L69.4,85l-0.1-0.7
		L69.2,84l-0.4-0.2l-0.2,0l-0.3,0.1l-0.1,0l-0.1-0.1l-0.2-0.3l-0.1-0.1L67.1,83l-0.2-0.2l0-0.3l0.2-0.2l1-0.6l1-0.9l0.6-0.3l0.6-0.2
		L71,80l0.5-0.6l0.2-0.7l0.1-0.8l-0.1-1.6l-0.2-0.7l-0.3-0.6l-0.4-0.5l-0.7-0.8l-0.2-0.3l-0.1-0.3l0-0.3l0.2-0.2l0.7-0.4l0.2-0.2
		l0-0.3l-0.2-0.1l-0.1-0.1l0.2-0.3l0.3-0.2l2.3-0.9l0.7-0.4l0.3-0.5l0,0L74.3,68.9z"/>
	
		<polygon id="Limón" fill-rule="evenodd" clip-rule="evenodd" fill="#3A9EB5" stroke="#F9F9FA" stroke-width="0.25" stroke-linecap="round" stroke-linejoin="round" points="
		53.4,23.7 53.5,23.7 53.7,23.7 54.2,24.2 54.7,25.3 55.1,26.4 55.1,27.1 54.8,26.7 54.2,25.2 54.5,27 54.5,27.8 53.9,28.3 
		54.2,28.3 54.4,28.1 54.7,27.9 54.9,27.7 54.8,27.8 54.8,28 54.9,28.1 54.9,28.3 55,28.1 55.1,27.5 55.2,27.3 56.3,30.3 57.7,33.5 
		59.3,36.2 63.5,41.8 63.9,42 65.3,43.8 66.2,44.6 66.7,44.3 66.9,44.5 67.5,44.6 67.6,44.7 67.6,45.2 67.7,45.5 67.9,45.8 
		68.2,46.1 69.2,47.7 69.5,47.9 70.8,49.7 71.8,50.6 72.4,50.4 72.5,50.8 72.6,51.7 72.8,52.1 73.2,52.4 74.7,52.9 75.2,52.9 
		75.7,52.9 76.2,53 76.6,53.2 77.2,54 77.6,54.3 77.6,54.3 77.6,54.3 77.8,55.1 77.7,55.1 77.3,55 77,54.9 76.8,55.2 76.7,56 
		76.6,56.3 76.3,56.4 75.9,56.3 75.5,56.2 75.3,56.1 75,55.8 74.8,55.3 74.5,55 74.3,55.1 74.1,55 73.2,54.2 71.9,53.7 71.5,53.7 
		71.1,54.1 70.8,54.4 70.8,54.7 71.1,55.1 71.2,55.8 71.3,55.9 71.4,55.9 71.6,56 71.5,56.2 71.2,56.4 70,56.5 69.6,56.7 69.4,57 
		69.3,57.4 69.4,59.3 69.4,62 69.4,65.7 69.4,65.7 69.2,65.5 69.1,65.5 68.8,65.4 68.4,65 68.3,64.8 68.2,64.4 68,64.2 67.9,64.2 
		67.8,64.1 67,63.9 67,63.9 66.9,63.8 66.8,63.7 66.8,63.6 66.6,62.4 66.5,62.2 66.4,62.1 66.4,62 66.4,62 66.3,62 65.5,61.5 
		65.4,61.4 65.3,61.3 64.4,60.2 64.3,60.1 64.1,60.1 63.7,60.1 63.4,60.2 63.3,60.2 63.2,60.2 63,60.1 62.7,60 62.4,59.8 62.3,59.8 
		61.9,59.6 61.8,59.6 61.8,59.5 61.7,59.5 61.3,59.1 61.2,59.1 61.1,59 61,59 60.9,59 60.8,59.1 60.7,59.2 60.6,59.2 60.4,59.6 
		60.3,59.6 60.2,59.7 59.8,59.7 59.7,59.7 59.6,59.8 59.5,59.9 59.5,59.9 59.4,59.9 59.4,59.9 59.3,59.9 59.3,59.7 59.3,59.7 
		59.2,59.6 59.2,59.5 59.1,59.5 58.5,59.3 58.2,59.1 58.2,59 58,58.8 57.2,56.7 57.1,56.5 57,56.2 57,56.1 56.9,56.1 56.8,56 
		56.7,55.7 56.7,55.4 56.6,55.2 56.7,54.5 57,53.9 58.3,52.3 58.8,51 59,50.8 59.6,49.9 60.6,48.7 60.7,48.4 60.7,47.9 60.4,47.1 
		60.4,46.6 60.5,46.2 60.6,45.9 60.9,45.5 61,45.4 60.5,45.3 58.2,45.2 54.9,45.2 54.4,45 52.2,44 50.8,43.3 49.8,42.9 47,41.6 
		47.4,40.6 47.5,40.4 47.7,40.2 48.8,39.1 48.8,38.9 49.1,38.4 49.2,38.2 49.2,38.1 49.2,38 49.2,37.7 49.3,37.4 49.3,37.2 
		49.3,37.1 49.3,37.1 49.2,37 49.1,36.9 49.1,36.8 49,36.5 48.7,36 48.7,35.9 48.6,35.6 48.6,35.4 48.7,35.3 48.7,35.2 48.8,35.1 
		49,34.7 49,34.7 49.1,34.7 49.1,34.7 49.2,34.6 49.3,34.6 49.3,34.6 49.4,34.5 49.6,34.2 49.7,33.7 49.7,33.6 49.7,33.5 49.6,33.3 
		49.6,33.2 49.6,33.2 49.6,33 49.6,32.9 49.6,32.8 49.6,32.8 49.6,32.7 49.5,32.6 49.4,32.6 49.4,32.5 49.4,32.4 49.6,31.4 
		49.5,31.2 49.6,30.5 49.6,30.3 49.6,30.2 49.7,30.1 49.8,30.1 49.9,30 50.2,29.8 50.2,29.8 50.5,29.5 50.8,29.3 51.1,29.2 
		51.2,29.2 51.9,29.1 52.1,29.1 52.2,29.1 52.3,29.1 52.4,29.1 52.4,29.1 52.4,29 52.3,29 52.3,28.9 52.2,28.8 52,28.7 51.9,28.6 
		51.8,28.6 51.8,28.5 51.8,28.4 51.7,28.3 51.8,27.8 51.8,27.8 51.8,27.7 51.7,27.6 51.7,27.5 51.5,27.4 51.5,27.3 51.4,27.3 
		51.4,27.3 51.1,27.2 51,27.1 52.5,26.8 53.3,26.4 53.4,25.8 53.2,25 53.1,24 53.1,23.9 53.1,23.8 53.3,23.6 	"/>
	
		<polygon id="Heredia" fill-rule="evenodd" clip-rule="evenodd" fill="#3A9EB5" stroke="#F9F9FA" stroke-width="0.25" stroke-linecap="round" stroke-linejoin="round" points="
		47.6,28.5 47.8,28.5 48.1,28.2 48.3,28.2 48.9,28.3 49,28.3 49.4,27.7 50.9,27.2 51,27.1 51.1,27.2 51.4,27.3 51.4,27.3 51.5,27.3 
		51.5,27.4 51.7,27.5 51.7,27.6 51.8,27.7 51.8,27.8 51.8,27.8 51.7,28.3 51.8,28.4 51.8,28.5 51.8,28.6 51.9,28.6 52,28.7 
		52.2,28.8 52.3,28.9 52.3,29 52.4,29 52.4,29.1 52.4,29.1 52.3,29.1 52.2,29.1 52.1,29.1 51.9,29.1 51.2,29.2 51.1,29.2 50.8,29.3 
		50.5,29.5 50.2,29.8 50.2,29.8 49.9,30 49.8,30.1 49.7,30.1 49.6,30.2 49.6,30.3 49.6,30.5 49.5,31.2 49.6,31.4 49.4,32.4 
		49.4,32.5 49.4,32.6 49.5,32.6 49.6,32.7 49.6,32.8 49.6,32.8 49.6,32.9 49.6,33 49.6,33.2 49.6,33.2 49.6,33.3 49.7,33.5 
		49.7,33.6 49.7,33.7 49.6,34.2 49.4,34.5 49.3,34.6 49.3,34.6 49.2,34.6 49.1,34.7 49.1,34.7 49,34.7 49,34.7 48.8,35.1 48.7,35.2 
		48.7,35.3 48.6,35.4 48.6,35.6 48.7,35.9 48.7,36 49,36.5 49.1,36.8 49.1,36.9 49.2,37 49.3,37.1 49.3,37.1 49.3,37.2 49.3,37.4 
		49.2,37.7 49.2,38 49.2,38.1 49.2,38.2 49.1,38.4 48.8,38.9 48.8,39.1 47.7,40.2 46.9,40.3 46.4,40.8 46.3,41 46.2,41 45.7,41 
		45.3,41.1 44.3,41.2 44.2,41.3 44.2,41.4 44.3,41.5 44.8,42.3 45.1,42.6 45.1,42.8 45.2,43.4 45.4,43.6 45.5,43.7 45.5,43.7 
		45.6,43.9 45.4,44.3 45.1,45.1 44.7,45.4 44.1,45.5 43.9,45.6 43.3,45.5 43.2,45.5 42.4,45.9 42.1,45.8 41.7,45.6 41.3,45.7 
		41.3,45.5 41.3,45.3 41.3,45.3 41.3,45.2 41.4,45 41.8,44.6 41.8,44.5 42.1,41.1 42.1,38 42.1,35.4 42.2,31.7 42.2,26.9 42.3,26.8 
		42.4,26.8 42.7,26.8 43.1,27.2 43.4,27.3 43.6,27.1 43.8,27.1 44.1,27.4 44.6,27 45,27.1 45.3,26.8 45.6,26.8 45.8,26.9 45.9,27.3 
		47.3,28.4 47.4,28.5 	"/>
	
		<polygon id="Guanacaste" fill-rule="evenodd" clip-rule="evenodd" fill="#3A9EB5" stroke="#F9F9FA" stroke-width="0.25" stroke-linecap="round" stroke-linejoin="round" points="
		18.2,20.8 18.1,20.8 18,20.9 17.8,20.9 17.7,20.9 17.7,20.9 17.6,21 16.5,22.2 14.8,23.4 14.7,23.5 14.7,23.6 14.5,23.7 13.7,23.8 
		13.6,23.9 13.6,23.9 13.6,24 13.7,24.1 13.7,24.1 14.7,25.3 15,25.5 15.5,25.8 15.6,25.9 16.1,25.9 16.2,25.9 16.3,26 16.3,26 
		16.4,26.1 16.6,26.4 17.1,27.5 17.8,27.5 18.4,27.4 18.9,27.3 19.2,27.3 19.3,27.3 19.4,27.3 19.6,27.3 19.7,27.4 20.4,27.9 
		20.6,28 20.7,28.1 21.1,28.2 22.2,28.5 22.5,28.6 22.8,28.7 22.9,28.8 23.1,29 23.4,29.5 23.7,29.9 23.8,30.6 23.8,30.7 23.9,30.9 
		24,31 24.6,31.5 24.9,31.8 25.2,31.9 26.4,32.2 26.8,32.4 28.1,33.4 28.2,33.7 28.7,34.7 28.4,35.9 28.5,36.3 28.5,36.5 28.6,36.5 
		28.6,36.6 28.6,36.9 28.2,37.5 27.9,37.3 27.8,37.2 27.6,37.2 27.5,37.2 27.4,37.2 27.3,37.2 27.2,37.2 27.1,37.3 26.9,37.5 
		26.8,37.6 26.6,37.7 26.4,37.8 26.4,37.9 26.3,38 26.2,38 26.2,38.1 26.2,38.2 26.2,38.2 26.3,38.3 26.3,38.3 26.5,38.5 26.5,38.5 
		26.5,38.6 26.5,38.7 26.5,38.7 26.4,39 26.4,39.5 26.3,39.5 26.2,39.8 26.2,39.9 26.2,39.9 26.2,40 26.2,40 26.2,40.1 26.3,40.2 
		26.4,40.2 26.4,40.3 26.4,40.5 26.3,40.6 26.3,40.6 25.8,40.8 25.7,40.9 25.3,41.2 25.2,41.4 25.2,41.5 25.2,41.6 25.2,41.7 
		25.2,41.8 25.3,42 25.3,42.1 25.2,42.2 25.2,42.2 25.1,42.2 25.1,42.1 24.9,42 24.7,41.9 24.6,41.8 24.3,41.5 24.2,41.3 24.1,41.3 
		23.9,41.2 23.8,41.1 23.7,41.1 23.7,41.1 23.6,41.1 23.5,41.2 23.4,41.2 23.4,41.2 23.3,41.2 23.3,41.1 23.2,41.1 23.1,41 23.1,41 
		23,41 23,41 22.8,41 22.7,41 22.6,41 22.6,41 22.4,41 21.9,41.2 21.9,41.2 21.8,41.1 21.7,41 21.4,40.8 21,40.9 19.5,40.9 
		19.1,40.8 18.8,40.6 18.2,40 18.2,39.9 18.3,39.4 18,39 17,38.3 17.1,38.7 17.8,39.2 17.9,39.8 18,40.8 18.1,41.4 18.4,41.9 
		18.1,42.1 18.1,42.4 18.4,42.7 19.1,42.9 19.3,43.2 19.6,43.7 19.8,43.7 19.9,43.7 20,43.7 20,43.9 19.9,43.9 19.7,43.9 19.5,43.8 
		19.3,43.7 19.3,43.9 19.7,44.2 19.5,45 19.4,45.2 18.9,45.3 18.8,45.3 18.2,45.7 18.1,45.7 18,45.7 18,45.6 18,45.6 17.9,45.6 
		17.8,45.6 17.5,45.7 17,45.9 16.8,46.1 16.7,46.3 16.7,46.4 16.8,46.5 16.9,46.6 17,46.6 17.1,46.7 17.3,46.6 17.4,46.6 17.4,46.6 
		17.6,46.7 17.7,46.7 17.8,46.7 17.8,46.8 17.9,46.8 18.1,46.8 18.2,46.8 18.4,46.9 18.5,47 18.6,47 18.6,47 18.7,47.1 18.9,47.3 
		18.9,47.4 18.9,47.4 19,47.5 19,47.6 19,47.7 19.1,47.8 19.1,47.9 19.1,47.9 19.2,47.9 19.5,48 19.6,48 19.6,48.1 19.5,48.2 
		19.4,48.5 19.2,49.3 19.2,49.5 19.2,49.6 19.3,49.6 19.3,49.7 19.3,49.7 19.2,49.8 19.1,49.9 19.1,50 19,50.2 19,50.3 18.9,50.4 
		18.8,50.4 18.8,50.5 18.6,50.8 18.6,50.8 18.5,50.8 18.4,50.9 18.3,50.9 18.3,50.9 18.2,50.6 18.1,50.5 17.9,50.4 17.4,50.2 
		17.3,50 17.3,49.8 17.3,49.6 16.8,49 16,48.6 13.6,47.8 13.4,47.8 13.1,48 13,48.1 12.7,48 12.4,47.8 12.2,47.8 12.1,47.7 12,47.7 
		12,47.6 11.9,47.5 11.7,47.5 11.6,47.5 11.5,47.6 11.5,47.6 10.2,47.2 9.6,47.1 9.5,47 9.4,46.9 9.2,46.8 9,46.8 8.8,46.9 8.6,47 
		8.4,46.7 8.6,46.3 8.4,45.7 6.1,42.9 5.9,42.6 5.8,42 5.5,41.6 4.6,39.5 4.5,38.8 4.4,38.4 4.3,38.1 4.6,37.8 4.7,37.6 4.7,37.4 
		4.2,36.8 3.9,36.6 4.1,36.4 4.5,36.1 4.7,35.7 4.9,35.3 5.3,35.5 5.5,35.3 5.7,34.9 6.1,34.5 6,34.1 5.6,33.7 5.4,33.5 5.5,33.4 
		5.6,33.3 5.7,33.3 5.7,33.2 5.4,33.2 5.4,33 5.6,33 5.8,32.8 6,32.4 6.2,32.4 6.5,32.6 6.9,32.4 7.4,32.2 7.7,32.2 7.8,32.2 
		7.8,31.9 7.9,31.8 8,31.7 8.1,31.6 8.3,31.3 8.4,31.3 8.7,31.3 9.4,30.6 9.3,30.4 9.2,30.3 8.9,30.1 8,31 8,30.9 8,30.9 7.9,30.8 
		7.8,30.8 7.8,30.7 8.1,30.4 8.2,30.3 8.4,30.2 8.3,30.1 8.3,30.1 8.2,30.1 8.2,30.2 8.1,30.2 8.2,30 8.2,30 8.4,29.9 8.4,29.8 
		8.3,29.8 8.3,29.6 8.7,29.3 8.7,28.5 8.6,27 8.3,26.6 7.5,26.3 6.8,26.2 6.5,26.4 6.3,26.4 5.7,25.9 5.5,25.7 5.6,25.7 5.8,25.7 
		5.8,25.5 5.7,25.4 5.5,25.3 5.1,25.4 4.9,25.4 4.3,25.1 3.8,24.8 3.2,24.6 2.3,24.5 2.3,24.3 2.8,24.2 3.8,23.7 4.3,23.7 4.2,23.5 
		4.2,23.5 4.1,23.4 3.9,23.4 3.9,23.2 5,23.1 5.2,23.2 5.4,23.4 5.3,23.6 5.3,23.8 5.3,23.8 5.4,23.9 5.7,24.1 5.8,24.1 6,24 
		6,23.8 5.7,23.6 6,23.4 6.5,23.3 6.9,23.4 7.1,23.4 7.3,23.6 7.5,23.7 7.6,23.6 7.7,23.5 7.6,23.3 7.5,23.2 7.5,23 7.9,22.9 
		8,22.7 7.9,22.4 7.7,22.1 7.5,22 7.2,21.8 7,21.7 6.8,21.5 6.8,21.5 6.9,21.4 7.1,21.3 7.4,21 7.6,21.1 7.8,21.3 8.3,21.3 
		8.6,21.1 8.5,20.8 8.3,20.4 8,20.2 7.8,20.2 7.8,20.2 8.3,19.3 8.7,18.4 9.4,17.5 10.1,17.2 10.8,17.5 11.4,18.1 12.1,18.5 
		14.4,19.4 17.4,20.5 	"/>
	
		<polygon id="Cartago" fill-rule="evenodd" clip-rule="evenodd" fill="#3A9EB5" stroke="#F9F9FA" stroke-width="0.25" stroke-linecap="round" stroke-linejoin="round" points="
		57.2,56.7 54.9,55.3 54.8,55.3 54.6,55.2 54.4,55 53.8,54.4 53.6,54.5 53.5,54.6 53.4,54.8 53.3,54.9 53.3,54.9 53.3,54.9 
		53.2,54.9 53.1,55 53.1,55 53,55 52.9,55 52.7,55 52.6,55 52.5,55 52.2,55.2 52.2,55.2 52.1,55.1 52.1,54.8 52,54.6 52,54.5 
		51.9,54.5 51.8,54.4 51.5,54.3 51.4,54.2 51.3,54.2 51.1,53.8 50.6,53.9 50.5,53.9 50,53.8 50,53.8 49.9,53.7 49.8,53.6 49.7,53.5 
		49.6,53.3 49.6,53.2 49.6,53.1 49.4,52.8 49.2,52.5 49.2,52.5 49.1,52.4 49,52.4 48.9,52.4 48.8,52.4 48.7,52.4 48.7,52.5 
		48.6,52.5 48.5,52.4 48,52.2 47.8,52.1 47.7,52.1 47.6,52 47.1,51.3 46.9,51 46.9,51 46.9,50.9 46.7,50.8 46.3,50.7 46.2,50.4 
		46.1,50.3 46.1,50.2 46,50 45.9,49.9 45,50.1 44.9,50.1 44.8,50.1 44.7,50.1 44.5,50.1 44.2,50.2 44.2,50.2 44.1,50.2 44.1,50.2 
		44,50.2 44,50.1 44,50 44,50 44,49.9 44.1,49.7 44.2,49.5 44.6,49.1 44.9,48.9 45.1,48.8 45.7,47.7 45.3,47.5 45.2,47.5 45.1,47.4 
		45.2,47.2 45.8,46.3 46.8,45.9 46.8,45.9 47.4,45.9 47.6,45.9 47.7,45.9 47.7,46 47.8,45.9 47.9,45.9 48.2,45.6 48.4,45.6 
		48.6,45.5 48.6,45.5 48.7,45.4 48.8,45.2 48.7,44.7 48.6,44.1 48.6,43.9 48.5,43.8 48,43.3 48,43.2 47.9,43.2 47.7,43 47.5,42.9 
		47.4,42.8 47.4,42.7 47,41.6 49.8,42.9 50.8,43.3 52.2,44 54.4,45 54.9,45.2 58.2,45.2 60.5,45.3 61,45.4 60.9,45.5 60.6,45.9 
		60.5,46.2 60.4,46.6 60.4,47.1 60.7,47.9 60.7,48.4 60.6,48.7 59.6,49.9 59,50.8 58.8,51 58.3,52.3 57,53.9 56.7,54.5 56.6,55.2 
		56.7,55.4 56.7,55.7 56.8,56 56.9,56.1 57,56.1 57,56.2 57.1,56.5 	"/>
	
		<polygon id="Alajuela" fill-rule="evenodd" clip-rule="evenodd" fill="#3A9EB5" stroke="#F9F9FA" stroke-width="0.25" stroke-linecap="round" stroke-linejoin="round" points="
		32.3,21.2 32.8,21.2 33.3,21.4 34.4,21.9 34.5,21.9 34.7,21.9 34.8,22 34.9,22.1 35.4,22.7 35.6,22.9 35.8,23 36,23.1 36.2,23.1 
		36.4,23 37.6,22.2 37.8,22.1 38.1,22.2 38.1,22.4 38.1,22.6 38.1,22.9 38.2,23.1 38.5,23.4 38.6,23.6 38.8,23.8 39.9,24.2 
		40.1,24.4 40.3,24.6 40.7,24.8 41.1,25.2 41.2,25.7 40.9,25.9 40.8,25.9 40.7,26.1 40.7,26.2 40.8,26.3 40.9,26.4 41.4,26.8 
		41.5,27 41.7,26.8 42.1,26.8 42.3,26.8 42.2,26.9 42.2,31.7 42.1,35.4 42.1,38 42.1,41.1 41.8,44.5 41.8,44.6 41.4,45 41.3,45.2 
		41.3,45.3 41.3,45.3 41.3,45.5 41.3,45.7 41,46 40.4,46.2 38.9,46.6 38.5,46.7 38.4,46.7 38.1,46.6 38,46.6 37.9,46.6 37.5,46.5 
		37,46.4 36.5,46.5 35.5,46.6 34.8,46.9 34.6,47 34.6,47 34.6,47.1 34.3,47.3 33.9,47.5 33.8,47.6 33.7,47.7 33.7,47.8 33.7,47.8 
		33.3,48.4 33.3,48.4 33.2,48.6 33.2,48.7 33,48.7 32.5,48 32.3,47.9 32.1,47.8 31.8,47.8 31.4,47.7 30.9,47.5 30.8,47.4 30.7,47.3 
		30.8,47.2 30.8,47.1 30.8,47 30.8,46.9 30.8,46.9 31,46.8 31.4,46.2 31.6,46 31.8,45.9 32.9,45.2 33.3,45.1 33.4,45 33.5,45 
		33.5,44.9 33.5,44.7 33.2,44.3 33.1,44.2 33,44.2 32.8,44.4 32.6,44.4 32.6,44.4 32.5,44.4 32.5,44.4 32.5,44.3 32.5,44.2 32.3,44 
		32,43.6 31.8,43.3 31.4,42.8 31.3,42.6 31,42.1 30.9,41.7 31,41.2 31,41.1 31,41 30.9,40.7 30.8,40.6 30.8,40.6 31,40.1 31,39.9 
		31.3,39.5 31.3,39.3 31.3,39.3 31.3,39.2 31.1,39.1 31,39 30.9,38.6 30.5,38.4 30.3,38.3 30.3,38.4 30.2,38.4 30.1,38.5 29.8,38.6 
		29.4,38.6 29.2,38.7 29,38.6 28.9,38.5 28.9,38.5 28.7,38.3 28.2,37.5 28.6,36.9 28.6,36.6 28.6,36.5 28.5,36.5 28.5,36.3 
		28.4,35.9 28.7,34.7 28.2,33.7 28.1,33.4 26.8,32.4 26.4,32.2 25.2,31.9 24.9,31.8 24.6,31.5 24,31 23.9,30.9 23.8,30.7 23.8,30.6 
		23.7,29.9 23.4,29.5 23.1,29 22.9,28.8 22.8,28.7 22.5,28.6 22.2,28.5 21.1,28.2 20.7,28.1 20.6,28 20.4,27.9 19.7,27.4 19.6,27.3 
		19.4,27.3 19.3,27.3 19.2,27.3 18.9,27.3 18.4,27.4 17.8,27.5 17.1,27.5 16.6,26.4 16.4,26.1 16.3,26 16.3,26 16.2,25.9 16.1,25.9 
		15.6,25.9 15.5,25.8 15,25.5 14.7,25.3 13.7,24.1 13.7,24.1 13.6,24 13.6,23.9 13.6,23.9 13.7,23.8 14.5,23.7 14.7,23.6 14.7,23.5 
		14.8,23.4 16.5,22.2 17.6,21 17.7,20.9 17.7,20.9 17.8,20.9 18,20.9 18.1,20.8 18.2,20.8 21.4,22 25,23.3 25.5,23.4 26,23.2 
		28.3,21.7 30,20.6 30.7,20.4 31.1,20.6 31.9,21.2 	"/>
</g>
</svg>
