<?xml version="1.0" encoding="utf-8"?>
<!-- Generator: Adobe Illustrator 23.0.1, SVG Export Plug-In . SVG Version: 6.00 Build 0)  -->
<svg version="1.0" id="Countries" xmlns="http://www.w3.org/2000/svg" xmlns:xlink="http://www.w3.org/1999/xlink" x="0px" y="0px"
	 viewBox="0 0 87 130" enable-background="new 0 0 87 130" xml:space="preserve">
<circle fill="#DAF1F9" stroke="#FFFFFF" stroke-width="0.25" cx="43.5" cy="44.7" r="39"/>
<g id="Ecuador">
	
		<polygon id="Zamora-Chinchipe" fill-rule="evenodd" clip-rule="evenodd" fill="#D96CAA" stroke="#F9F9FA" stroke-width="0.25" stroke-linecap="round" stroke-linejoin="round" points="
		52.9,57.5 53,57.4 53,57.4 53.1,57.2 53.1,57.2 53.2,57.2 53.2,57.2 53.3,57.2 53.6,57.2 53.8,57.2 54.3,57.1 55.3,57.1 55.3,57.1 
		55.2,57.1 55.1,57.4 55.1,57.6 55,57.7 55,58 55.1,58.1 55.1,58.2 55,58.3 54.9,58.3 54.9,58.3 54.9,58.3 54.9,58.4 55,58.9 
		54.9,59.1 54.7,59.2 54.7,59.3 54.6,59.3 54.5,59.4 54.5,59.5 54.4,59.6 54.3,60.2 54.3,60.3 54.3,60.3 54.2,60.3 54.1,60.4 
		54,60.4 53.9,60.4 53.9,60.5 53.8,60.6 53.8,61.1 53.7,61.4 53.3,62.4 53.2,62.7 53.1,62.8 53,62.9 52.9,63.1 53,63.4 53,63.7 
		53.1,63.8 53.3,63.9 53.3,64 53.2,64.2 53,64.4 53,64.5 53,64.7 53,64.8 53,64.9 52.7,65.1 52.7,65.1 52,65.4 51.7,65.6 51.3,65.9 
		51.2,66.1 51.1,66.3 51.1,66.5 51.3,66.8 51.3,67 51.2,67.2 51.1,67.2 50.9,67.2 50.7,67.2 50.6,67.4 50.5,67.7 50.5,67.9 
		50.3,68.1 50.1,68.3 49.9,68.1 49.9,68.1 49.8,68 49.7,68 49.6,68.1 49.5,68.1 49.4,68 49.1,67.9 49,67.9 48.8,67.9 48.4,67.9 
		48.3,67.9 48.2,67.8 48.1,67.6 48,67.5 47.9,67.4 47.8,67.4 47.7,67.3 47.7,67.3 47.6,67.1 47.6,67 47.5,66.9 47.3,66.9 47.2,66.8 
		47.1,66.6 47.1,66.5 47.2,66.4 47.5,66.1 47.7,65.7 47.8,65.6 48.1,65.2 48.1,65.1 48.1,65 48.2,65 48.1,64.8 48.1,64.7 48.2,64.5 
		48.3,64.4 48.3,64.4 48.4,64.3 48.4,64.2 48.5,64.2 48.6,64.2 48.6,64.3 48.7,64.3 48.8,64.3 48.9,64.4 48.9,64.4 49,64.4 
		49.1,64.4 49.1,64.3 49.1,64.3 49.2,64.3 49.3,64.3 49.3,64.2 49.4,64.2 49.4,64.1 49.6,63.9 49.6,63.8 49.7,63.8 49.7,63.7 
		49.7,63.5 49.8,63.3 49.8,63.1 49.7,63 49.8,62.6 49.8,62.4 49.8,62.3 49.8,62.2 49.8,62.1 49.8,62.1 49.7,62 49.7,61.9 49.6,61.9 
		49.6,61.9 49.5,61.8 49.5,61.8 49.5,61.8 49.4,61.8 49.4,61.7 49.4,61.7 49.4,61.6 49.4,61.4 49.5,61 49.5,60.9 49.5,60.7 
		49.5,60.5 49.5,60.2 49.6,60.1 49.6,59.9 49.7,59.8 49.7,59.8 49.6,59.6 49.6,59.6 49.5,59.4 49.4,59.2 49.3,59.1 49.2,58.9 
		49.1,58.7 49.1,58.7 49.1,58.6 49.1,58.6 49.1,58.5 49.2,58.5 49.2,58.5 49.3,58.5 49.3,58.5 49.4,58.5 49.4,58.5 49.4,58.4 
		49.5,58.4 49.4,58.2 49.5,58.2 49.6,58.1 49.6,58.1 49.8,57.9 49.9,57.9 50,57.9 50,57.8 50.1,57.8 50.1,57.7 50.2,57.3 50.1,57 
		50.1,56.9 50.2,56.8 50.2,56.7 50.2,56.6 50.2,56.6 50.1,56.5 50.1,56.4 50.1,56.3 50.1,56.3 50.1,56.2 50.2,56.1 50.3,56 
		50.4,55.9 50.9,55.7 51,55.5 51.6,56 51.7,56 51.7,56.1 51.7,56.1 51.7,56.2 51.7,56.2 51.6,56.3 51.5,56.3 51.5,56.4 51.5,56.4 
		51.5,56.5 51.5,56.6 51.6,56.7 51.6,56.8 51.6,56.8 51.6,56.9 51.7,56.9 51.7,57 51.7,57 51.8,57.1 51.8,57.1 51.8,57.2 51.9,57.2 
		52.1,57.3 52.4,57.3 52.7,57.4 52.8,57.4 52.9,57.5 	"/>
	
		<polygon id="Tungurahua" fill-rule="evenodd" clip-rule="evenodd" fill="#D96CAA" stroke="#F9F9FA" stroke-width="0.25" stroke-linecap="round" stroke-linejoin="round" points="
		55.5,39.3 55.8,39.1 55.9,39.1 56,39.1 56.2,39.1 56.2,39.1 56.3,39.1 56.4,39.1 56.5,39.1 56.5,39.2 56.5,39.2 56.5,39.2 
		56.6,39.2 56.7,39.2 56.7,39.3 56.8,39.4 56.9,39.5 57.1,39.5 57.2,39.5 57.2,39.6 57.2,39.8 57.2,40.6 57.2,40.7 57.2,40.8 
		57,41.2 56.8,41.4 56.6,41.6 56.6,41.6 56.4,41.7 56.3,41.7 56.1,41.7 55.9,41.7 55.8,41.7 55.6,41.8 55.6,41.8 55.4,42 55.4,41.9 
		55.3,41.8 55.3,41.7 55.3,41.7 55.2,41.7 55.1,41.6 55,41.6 54.8,41.6 54.8,41.5 54.6,41.4 54.5,41.4 54.4,41.4 54.3,41.4 
		54.3,41.6 54.2,41.7 54.1,41.7 54,41.6 53.9,41.6 53.7,41.7 53.6,41.7 53.4,41.7 53.2,41.7 52.8,41.6 52.6,41.6 52.5,41.5 
		52.3,41.3 52.2,41.3 52.1,41.2 52,41.2 51.9,41.3 51.6,41.4 51.5,41.5 51.4,41.4 51.3,41.3 51.1,41 51.1,40.9 51.2,40.5 51.2,40.4 
		51.3,40.2 51.4,40.1 51.4,39.8 51.4,39.7 51.6,39.4 51.8,39.3 52,39.1 52.2,39.1 52.3,39 52.4,39 52.8,39.1 53,39.1 53.1,39.1 
		53.2,39 53.4,38.9 53.5,38.9 53.7,38.8 53.8,38.8 53.8,38.8 53.8,38.7 53.8,38.6 53.8,38.6 53.9,38.5 54,38.5 54.1,38.5 54.1,38.5 
		54.2,38.5 54.2,38.6 54.3,38.6 54.4,38.7 54.6,38.6 54.7,38.6 54.7,38.5 54.8,38.4 54.8,38.2 54.8,38.2 54.8,38.1 54.9,38 
		54.9,37.9 55.1,37.8 55.3,38 55.5,38.2 55.6,38.4 55.6,38.5 55.6,38.8 55.6,38.9 55.6,39 55.5,39.2 55.5,39.2 55.5,39.3 	"/>
	
		<polygon id="Sucumbíos" fill-rule="evenodd" clip-rule="evenodd" fill="#D96CAA" stroke="#F9F9FA" stroke-width="0.25" stroke-linecap="round" stroke-linejoin="round" points="
		64.1,28 64.2,28 64.6,27.8 64.7,27.8 64.8,27.8 65,27.9 65.3,28.2 65.5,28.3 65.8,28.3 65.9,28.3 66,28.4 66.1,28.4 66.3,28.6 
		66.4,28.7 66.5,28.7 66.6,28.7 67.1,28.6 67.2,28.6 67.5,28.8 67.6,28.8 67.6,28.5 67.7,28.4 67.9,28.5 68.3,28.5 68.4,28.6 
		68.5,28.6 68.7,28.8 68.9,28.9 69,28.9 69.2,28.8 69.9,28.7 70.1,28.6 70,28.1 70,27.5 70,27.5 70.1,27.5 70.2,27.5 70.3,27.5 
		70.4,27.4 70.6,27.2 70.6,27.2 70.7,27.2 70.8,27.1 70.9,27 70.9,27.1 71.2,27.3 71.3,27.4 71.5,27.5 71.6,27.5 71.8,27.5 72,27.5 
		72,27.5 72.1,27.5 72.2,27.6 72.2,27.8 72.2,27.9 72.4,27.9 72.6,27.8 72.7,27.8 72.8,27.9 72.8,28 73.3,28.6 73.4,28.7 73.4,28.9 
		73.5,29 73.7,29.1 74.1,29.4 74.2,29.5 74.5,29.8 74.7,29.9 74.8,29.9 75,30 75.2,30 75.3,30 75.7,29.9 75.8,29.9 75.9,29.9 
		76.1,30 76.2,30.1 76.2,30.2 76.4,30.2 76.7,30.5 77.2,30.8 77.3,30.9 77.5,31 77.9,31.1 78.4,31.2 78.5,31.3 78.4,31.4 78.3,31.6 
		78.2,31.6 78.1,31.6 78,31.6 77.7,31.6 77.6,31.6 77.4,31.7 77.2,31.7 76.7,31.4 76.6,31.4 76.5,31.4 76.4,31.4 76.2,31.4 
		76.1,31.3 76,31.3 75.9,31.4 75.8,31.5 75.9,31.6 75.9,31.8 76,31.9 76.1,31.9 76.2,31.9 76.3,31.9 76.4,31.9 76.6,32.1 76.6,32.1 
		76.8,32.2 76.9,32.3 77,32.4 77.3,33.2 77.4,33.5 77.6,33.8 77.7,34 77.8,34 77.9,34 78,34 78,34.1 78.1,34.1 78.4,34.3 78.4,34.4 
		78.4,34.4 78.5,34.5 78.5,34.5 78.6,34.5 78.6,34.5 78.7,34.6 78.7,34.7 78.7,35 78.7,35.1 78.7,35.2 78.7,35.2 78.7,35.3 
		78.7,35.3 78.6,35.3 78.5,35.4 78.5,35.3 78.5,35.3 78.5,35.2 78.5,35.2 78.5,35.2 78.4,35.2 78.4,35.2 78.3,35.2 78,35.1 
		77.9,35.1 77.8,35.1 77.8,35 77.7,35 77.7,34.9 77.7,34.9 77.7,34.8 77.6,34.8 77.5,34.8 77.4,34.7 77.4,34.7 77.3,34.7 76.9,34.7 
		76.9,34.7 76.8,34.7 76.6,34.6 76.5,34.5 76.4,34.5 76.4,34.4 76.4,34.4 76.4,34.3 76.4,34.3 76.3,34.2 76.3,34.3 76.2,34.3 
		76.2,34.2 76.2,34.2 76.1,34.1 76.1,34.1 75.9,34 75.8,34 75.7,33.9 75.7,33.9 75.6,34 75.5,34 75.4,34 75.3,34 75.3,33.9 
		75.2,33.8 75.2,33.7 75.1,33.7 75,33.7 75,33.7 74.9,33.7 74.8,33.8 74.6,33.8 74.5,33.8 74.5,33.8 74.4,33.8 74.3,33.8 74.2,33.7 
		74.1,33.7 74,33.6 73.7,33.6 73.6,33.6 73.5,33.7 73.5,33.8 73.5,33.9 73.6,34.5 73.6,34.6 73.6,34.7 73.7,34.7 73.6,34.7 
		73.6,34.7 73.5,34.7 73.3,34.7 73.2,34.7 73,34.6 72.7,34.4 72.5,34.3 72.5,34.2 72.5,34.1 72.4,34 72.4,33.9 72.4,33.8 71.7,33.8 
		71.1,33.8 71,33.9 70.8,33.9 70.6,34 70.5,34 70.2,34.3 70,34.4 70,34.3 69.9,34.2 69.8,34.1 69.5,34.1 69.4,34.1 69,33.8 
		68.8,33.6 68.6,33.6 68.5,33.7 68.4,33.6 68.3,33.5 68.3,33.5 67.8,33.2 67.8,33.1 67.7,33 67.7,33 67.6,32.9 67.6,32.8 67.4,32.6 
		67.4,32.5 67.4,32.5 67.4,32.5 67.4,32.4 67.1,32.2 66.4,31.3 66.3,31.2 66.2,31.1 66.1,31 66,31 65.8,31 65.7,31.1 65.6,31.1 
		65.5,31.2 65.4,31.3 65.2,31.3 65.1,31.3 64.6,31.2 64.5,31.1 64.4,31.2 64.3,31.2 64.2,31.2 64.1,31.2 63.9,31 63.7,30.9 
		63.6,30.9 63.5,30.9 63.4,31 63.2,31.2 63.1,31.3 63,31.4 63,31.5 62.9,31.5 62.9,31.6 62.8,31.6 62.7,31.6 62.3,31.5 62.3,31.5 
		62.2,31.4 62.2,31.4 62.2,31.3 62.3,31.3 62.3,31.2 62.3,31.2 62.2,31.1 62.2,31.1 62.2,31 62.3,31 62.3,31 62.3,30.9 62.2,30.9 
		62.2,30.8 62.2,30.8 62.2,30.7 62.1,30.7 62,30.7 61.9,30.8 61.9,30.8 61.9,30.8 61.8,30.9 61.8,30.9 61.8,30.9 61.7,31 61.6,31 
		61.5,31 61.3,31.2 61.2,31.3 61.2,31.3 61.1,31.2 61,31.2 60.8,31.1 60,31.1 59.9,31.1 59.8,31 59.7,30.9 59.7,30.6 59.7,30.5 
		59.7,30.5 59.7,30.5 59.7,30.5 59.7,30.5 59.7,30.5 59.7,30.4 59.7,30.4 59.7,30.4 59.7,30.4 59.7,30.4 59.3,30.3 59.2,30.2 
		59.2,30.2 59.2,30.2 59.2,30.2 59.2,30.1 59.2,30 59.1,30 59.1,30 59,29.9 59,29.9 58.9,29.9 58.9,29.9 58.8,29.8 58.6,29.7 
		58.6,29.7 58.5,29.7 58.5,29.7 58.5,29.7 58.4,29.7 58.3,29.7 58.3,29.7 58.3,29.6 58.3,29.6 58.3,29.6 58.3,29.6 58.5,29.3 
		58.8,29 58.9,28.9 58.9,28.9 58.9,28.9 59,28.9 59,28.9 59,28.8 59.2,28.6 59.3,28.5 59.3,28.5 59.3,28.5 59.3,28.5 59.3,28.4 
		59.3,28.4 59.3,28.4 59.3,28.4 59.2,28.4 59.2,28.4 59.2,28.4 59.2,28.4 59.2,28.4 59.2,28.3 59.2,28.2 59.5,27.9 59.7,27.7 
		59.7,27.6 59.7,27.5 59.7,27.5 59.7,27.3 59.7,27.2 59.8,27.1 60.3,26.5 60.4,26.4 60.6,26.2 60.7,26.2 60.7,26.1 60.7,26.1 
		60.7,26 60.7,26 60.6,26 60.6,25.9 60.5,25.9 60.5,25.8 60.6,25.7 60.6,25.7 60.6,25.7 60.6,25.7 60.7,25.7 60.7,25.7 60.9,25.7 
		60.9,25.7 61.1,25.7 61.2,25.7 61.3,25.8 61.4,25.8 61.7,25.6 61.7,25.5 61.8,25.5 62.1,25.6 62.2,26 62.2,26.8 62.3,27 62.3,27.2 
		62.4,27.4 62.6,27.6 62.9,27.7 63.7,27.9 63.8,27.9 63.9,28 	"/>
	
		<polygon id="Santa_Elena" fill-rule="evenodd" clip-rule="evenodd" fill="#D96CAA" stroke="#F9F9FA" stroke-width="0.25" stroke-linecap="round" stroke-linejoin="round" points="
		39.1,44.4 39.2,44.7 39.4,45 39.8,45.3 40.4,45.4 40.9,45.7 41.1,45.9 41.4,46.4 41.4,47.1 41.3,47.8 41,48.3 40.6,48.5 39.9,48.7 
		39.5,49 38.9,49.6 38.7,49.3 38.1,48.7 37.8,48.6 37.6,48.5 37.4,48.5 37,48.4 36.8,48.3 36.5,48 36.4,48 36.2,48 36.2,48 
		36.1,47.9 36.1,47.6 36,47.5 35.9,47.4 35.8,47.2 35.5,47 35.5,47 35.4,46.9 35.4,46.8 35.4,46.8 35.5,46.8 35.5,46.8 35.5,46.9 
		35.6,46.9 35.8,46.9 35.8,46.9 35.9,47 35.9,47.1 36,47.2 36.2,47.2 36.5,47.1 36.9,46.8 37.2,46.6 37.4,46.3 37.5,45.9 37.4,45.7 
		37.3,45.4 37.3,45.4 37.3,45.3 37.4,45.3 37.5,45.2 37.5,45 37.5,44.8 37.3,44 37.2,43.7 37.1,43.6 37.1,43.5 37,43.4 36.9,43.2 
		36.9,43.1 36.9,43.1 37.1,43.1 37.2,43.1 37.3,43.1 37.4,43.1 37.9,43.1 38.1,43.1 38.3,43 38.5,43 38.7,43 38.8,43.1 38.8,43.1 
		38.8,43.2 38.8,43.2 38.8,43.3 38.9,43.4 39,43.4 39,43.5 38.9,43.7 38.9,43.8 38.8,43.9 38.8,44 38.8,44 38.8,44.1 38.8,44.2 
		38.9,44.3 39,44.3 	"/>
	
		<polygon id="Santo_Domingo_de_los_Tsáchilas" fill-rule="evenodd" clip-rule="evenodd" fill="#D96CAA" stroke="#F9F9FA" stroke-width="0.25" stroke-linecap="round" stroke-linejoin="round" points="
		49.8,31.1 51.1,31.1 51.4,31.3 52.1,31.7 52.5,32.1 52.3,32.7 51.4,32.8 51.1,33.1 51.1,33.1 51.1,33.1 51.1,33.2 51,33.2 
		50.9,33.2 50.9,33.2 50.9,33.3 50.8,33.3 50.8,33.4 50.8,33.4 50.8,33.5 50.8,33.5 50.7,33.6 50.6,33.6 50.6,33.6 50.5,33.7 
		50.5,33.7 50.4,33.9 50.3,34 50.3,34.1 50.3,34.1 50.3,34.2 50.4,34.2 50.5,34.2 50.5,34.3 50.6,34.4 50.6,34.4 50.6,34.5 
		50.6,34.5 50.6,34.5 50.5,34.6 50.5,34.6 50.4,34.6 50.4,34.7 50.4,34.8 50.3,34.8 50.3,34.9 50.2,34.9 50.1,34.9 50.1,34.9 
		50,34.9 50,34.8 49.9,34.7 49.8,34.6 49.7,34.6 49.6,34.7 49,35.2 48.9,35.3 48.7,35.4 48.6,35.5 48.5,35.6 48.5,35.7 48.4,35.7 
		48.3,35.7 48.2,35.7 48.1,35.7 48,35.7 47.9,35.6 47.9,35.6 47.9,35.5 47.8,35.4 47.9,35.4 47.9,35.3 47.9,35.2 47.9,35.1 47.9,35 
		47.9,34.9 47.9,34.8 48,34.7 48,34.7 47.9,34.6 47.7,34.6 47.3,34.6 47.2,34.6 46.9,34.6 47.1,34.4 47.2,34.2 47.2,34.2 47.2,34 
		47.4,33.6 47.5,33.5 47.5,33.4 47.5,32.1 47.5,31.9 47.4,31.9 47.4,31.8 47.3,31.8 47.2,31.8 47.1,31.8 46.9,31.8 46.8,31.7 
		46.6,31.5 46.4,31.3 46.4,31.3 46.3,31.2 46.2,31.1 46.2,31.1 46.1,31.1 46.1,31.1 46,31 46,30.8 46,30.7 46,30.7 46.1,30.6 
		46.2,30.6 46.4,30.6 46.8,30.7 47.1,30.8 47.1,30.8 47.2,30.8 47.3,30.9 47.3,30.9 47.3,30.9 47.3,30.8 47.4,30.8 47.4,30.8 
		47.4,30.7 47.3,30.7 47.3,30.7 47.3,30.7 47.3,30.7 47.3,30.7 47.2,30.6 47.2,30.6 47.2,30.5 47.3,30.5 47.4,30.4 47.6,30.4 
		47.7,30.3 47.8,30.2 47.8,30.2 48.2,30.5 49.8,30.5 	"/>
	
		<polygon id="Pichincha" fill-rule="evenodd" clip-rule="evenodd" fill="#D96CAA" stroke="#F9F9FA" stroke-width="0.25" stroke-linecap="round" stroke-linejoin="round" points="
		49.3,28.1 49.5,28.1 50.3,28.3 50.3,28.3 50.4,28.4 50.5,28.5 50.6,28.8 50.7,28.8 50.8,28.9 50.9,28.9 51,28.9 51.1,28.9 
		51.3,28.9 51.6,28.8 52.2,28.7 52.4,28.7 53.2,28.9 53.3,28.9 53.4,28.9 53.5,28.8 53.9,28.8 54.1,28.8 54.2,28.8 54.6,28.7 
		55,28.7 55.2,28.7 55.3,28.7 55.3,28.8 55.4,28.9 55.4,29 55.4,29 55.3,29.2 55.3,29.2 55.3,29.3 55.4,29.2 55.5,29.1 55.6,29.1 
		55.7,29.1 55.8,29.2 55.9,29.3 56,29.4 56.2,29.4 56.4,29.5 56.6,29.5 56.8,29.5 57.1,29.3 57.2,29.2 57.4,29.1 57.5,29 57.6,29 
		58.5,29.3 58.3,29.6 58.3,29.6 58.3,29.6 58.3,29.6 58.3,29.7 58.3,29.7 58.4,29.7 58.5,29.7 58.5,29.7 58.5,29.7 58.6,29.7 
		58.6,29.7 58.8,29.8 58.9,29.9 58.9,29.9 59,29.9 59,29.9 59.1,30 59.1,30 59.2,30 59.2,30.1 59.2,30.2 59.2,30.2 59.2,30.2 
		59.2,30.2 59.3,30.3 59.2,30.4 59.2,30.5 58.6,30.8 58.4,30.9 58.3,30.9 58.3,31 58.3,31.2 58.2,31.3 58.2,31.3 58.2,31.3 
		58.1,31.4 58,31.5 58,31.5 57.9,31.5 57.8,31.5 57.7,31.5 57.7,31.5 57.6,31.6 57.6,31.6 57.5,31.8 57.5,31.9 57.4,31.9 57.3,31.9 
		57.3,31.9 57.2,31.8 57.1,31.8 57.1,31.8 56.9,31.8 56.8,31.9 56.8,31.9 56.7,31.9 56.7,32 56.7,32.1 56.7,32.7 56.6,32.9 
		56.5,33.1 56.3,33.4 56.2,33.5 56.2,33.6 56.3,33.8 56.3,33.9 56.3,34 56.2,34.2 56.1,34.3 56.1,34.3 56.1,34.4 56.1,34.5 56,34.7 
		56,34.8 55.8,34.9 55.7,35 55.7,35.1 55.7,35.3 55.6,35.4 55.6,35.5 55.5,35.5 55.3,35.6 55.3,35.6 55.1,35.7 54.6,35.1 54.4,35.1 
		54.3,35.1 54.1,35 54,35 53.9,35.1 53.7,35.2 53.6,35.2 53.6,35.2 53.6,35.1 53.5,35.1 53.4,35.1 53.3,35.1 53.3,35.2 53.2,35.2 
		53.2,35.2 53.1,35.3 53,35.3 52.8,35.4 52.8,35.4 52.7,35.4 52.7,35.4 52.6,35.3 52.6,35.2 52.6,35 52.4,34.8 51.9,34.5 51.8,34.4 
		51.8,34.3 51.8,34.1 51.7,34.1 51.7,33.9 51.5,33.7 51.3,33.3 51.2,33.3 51.2,33.2 51.2,33.2 51.1,33.1 51.4,32.8 52.3,32.7 
		52.5,32.1 52.1,31.7 51.4,31.3 51.1,31.1 49.8,31.1 49.8,30.5 48.2,30.5 47.8,30.2 48,29.8 48.1,29.6 48.2,29.4 48.3,29.3 
		48.3,29.2 48.3,29.2 48.2,29.1 48.2,29.1 48.1,29 47.9,28.9 47.9,28.8 47.9,28.8 47.9,28.7 48,28.7 48.2,28.6 48.3,28.5 48.4,28.4 
		48.5,28.4 48.6,28.3 48.7,28.3 48.9,28.1 49,28.1 49.1,28.1 	"/>
	
		<polygon id="Pastaza" fill-rule="evenodd" clip-rule="evenodd" fill="#D96CAA" stroke="#F9F9FA" stroke-width="0.25" stroke-linecap="round" stroke-linejoin="round" points="
		66.6,39.2 66.7,39.2 66.8,39.2 66.8,39.1 66.8,39 66.8,38.9 66.9,38.8 67,38.7 67.1,38.7 67.1,38.7 67.2,38.8 67.3,38.8 67.4,38.8 
		67.5,38.7 67.6,38.7 67.8,38.7 67.9,38.7 68.1,38.6 68.1,38.6 68.2,38.6 68.2,38.6 68.3,38.5 68.3,38.5 68.5,38.4 68.7,38.4 
		68.8,38.4 68.9,38.4 69,38.4 69.1,38.5 69.2,38.6 69.3,38.7 69.3,38.8 69.2,38.9 69.2,39.2 69.2,39.3 69.3,39.5 69.4,39.5 
		69.4,39.6 69.4,39.6 69.5,39.7 69.5,39.7 69.5,39.8 69.6,39.8 69.6,39.8 69.6,39.9 69.6,39.9 69.7,39.9 69.7,39.9 69.8,39.9 
		69.8,39.9 69.8,39.9 69.8,40 69.8,40 69.9,40 69.9,40 70,40 70.1,40 70.1,39.9 70.2,39.9 70.2,40 70.3,40 70.3,40 70.4,40 70.4,40 
		70.4,40 70.5,40.1 70.5,40.1 70.4,40.1 70.4,40.2 70.5,40.2 70.6,40.2 70.8,40.3 70.9,40.3 71,40.3 71,40.3 71,40.4 71,40.4 
		71,40.4 71,40.3 71.1,40.3 71.1,40.3 71.1,40.3 71.1,40.2 71.2,40.2 71.2,40.3 71.2,40.2 71.3,40.2 71.3,40.2 71.3,40.2 71.3,40.2 
		71.3,40.2 71.4,40.2 71.4,40.2 71.5,40.2 71.5,40.2 71.5,40.2 71.6,40.2 71.7,40.2 71.8,40.2 71.8,40.2 71.8,40.2 71.9,40.2 
		71.9,40.2 72,40.2 72,40.2 72,40.2 72,40.2 72.1,40.1 72.1,40.1 72.2,40.1 72.2,40.1 72.2,40.1 72.2,40.1 72.2,40.1 72.2,40.1 
		72.3,40.1 72.3,40.1 72.5,40.2 72.6,40.2 72.6,40.1 72.6,40.1 72.6,40.1 72.7,40.1 72.7,40.2 72.7,40.2 72.7,40.2 72.7,40.3 
		72.7,40.3 72.7,40.3 72.8,40.3 72.8,40.3 72.8,40.3 72.9,40.3 73,40.3 73.1,40.4 73.2,40.4 73.2,40.5 73.2,40.5 73.3,40.5 
		73.4,40.5 73.4,40.6 73.5,40.6 73.6,40.6 73.8,40.6 73.8,40.7 73.9,40.7 73.9,40.6 73.9,40.6 73.9,40.6 73.9,40.5 73.9,40.5 
		74,40.5 74,40.5 74,40.5 74,40.5 74,40.6 74,40.6 74.1,40.7 74.3,40.7 74.3,40.7 74.4,40.8 74.4,40.9 74.4,40.9 74.4,40.9 
		74.4,40.9 74.5,40.9 74.5,40.9 74.6,40.9 74.6,41 74.7,41 74.7,41 74.8,41 74.9,41.1 75,41.1 75,41.1 75.1,41.2 75.1,41.2 
		75.1,41.3 75.2,41.4 75.2,41.4 75.3,41.5 75.3,41.4 75.3,41.4 75.4,41.4 75.4,41.4 75.4,41.4 75.4,41.5 75.5,41.5 75.5,41.5 
		75.8,41.6 75.8,41.6 75.8,41.6 75.9,41.7 75.9,41.7 76,41.7 76.1,41.7 76.1,41.8 76.2,41.8 76.2,42 76.3,42.1 76.3,42.2 76.2,42.3 
		75.8,42.7 75.5,43 75.1,43.5 74.7,43.9 74.3,44.3 74,44.8 73.6,45.2 73.2,45.7 72.8,46.1 72.4,46.5 72,46.9 71.6,47.2 71.1,47.6 
		70.7,47.9 70.2,48.3 69.8,48.6 69.3,48.9 68.9,49.3 68.4,49.6 68.1,49.8 68.1,49.8 68,49.8 67.8,49.9 67.7,49.9 67.4,49.8 
		67.1,49.7 67,49.7 66.9,49.6 66.8,49.5 66.6,49.6 66.2,49.6 65.9,49.5 65.7,49.4 65.5,49.2 65.4,48.9 65.4,48.9 65.3,48.8 
		65.3,48.8 65.2,48.7 65.2,48.6 64.9,48.3 64.8,48 64.7,47.9 64.6,47.9 64.4,47.8 62.7,46.7 60.6,45.8 60.4,45.8 60.3,45.7 
		60.2,45.6 60.1,45.5 60.1,45.4 60,45.3 59.9,45.2 59.8,45.1 59.5,45.1 59.4,45 59.3,44.9 59.3,44.8 59.3,44.6 59.2,44.5 59.1,44.3 
		59.1,44.2 59.1,44 59.1,43.9 58.9,43.7 58.8,43.2 58.7,43.1 58.6,43 58.5,43 58.1,43 58,43.1 57.9,43 57.9,42.8 57.8,42.6 57.6,42 
		57.5,41.8 57.4,41.7 57.3,41.6 57.1,41.5 56.8,41.4 57,41.2 57.2,40.8 57.2,40.7 57.2,40.6 57.2,39.8 57.6,39.8 57.8,39.8 
		58.3,39.7 58.5,39.7 58.6,39.7 58.7,39.8 58.8,39.8 58.9,39.8 58.9,39.8 58.9,39.7 59,39.6 59,39.6 59.1,39.7 59.2,39.7 59.2,39.7 
		59.4,39.7 59.5,39.6 59.8,39.4 59.9,39.4 60.1,39.3 60.2,39.3 60.3,39.2 60.4,39.2 60.5,39.2 60.6,39.1 60.7,39.1 60.8,39.2 
		60.9,39.2 60.9,39.2 61,39.1 61.1,39.1 61.5,39.1 62.2,38.8 62.3,38.7 62.3,38.7 62.6,38.7 62.8,38.6 63.5,38.4 63.7,38.3 
		63.8,38.3 63.9,38.2 64,38.2 65.2,38.1 65.1,38.3 65,38.3 65.1,38.4 65.1,38.4 65.1,38.7 65.2,38.7 65.3,38.8 65.9,38.9 	"/>
	
		<polygon id="Orellana" fill-rule="evenodd" clip-rule="evenodd" fill="#D96CAA" stroke="#F9F9FA" stroke-width="0.25" stroke-linecap="round" stroke-linejoin="round" points="
		64.2,31.2 64.3,31.2 64.4,31.2 64.5,31.1 64.6,31.2 65.1,31.3 65.2,31.3 65.4,31.3 65.5,31.2 65.6,31.1 65.7,31.1 65.8,31 66,31 
		66.1,31 66.2,31.1 66.3,31.2 66.4,31.3 67.1,32.2 67.4,32.4 67.4,32.5 67.4,32.5 67.4,32.5 67.4,32.6 67.6,32.8 67.6,32.9 67.7,33 
		67.7,33 67.8,33.1 67.8,33.2 68.3,33.5 68.3,33.5 68.4,33.6 68.5,33.7 68.6,33.6 68.8,33.6 69,33.8 69.4,34.1 69.5,34.1 69.8,34.1 
		69.9,34.2 70,34.3 70,34.4 70.2,34.3 70.5,34 70.6,34 70.8,33.9 71,33.9 71.1,33.8 71.7,33.8 72.4,33.8 72.4,33.9 72.4,34 
		72.5,34.1 72.5,34.2 72.5,34.3 72.7,34.4 73,34.6 73.2,34.7 73.3,34.7 73.5,34.7 73.6,34.7 73.6,34.7 73.7,34.7 73.6,34.7 
		73.6,34.6 73.6,34.5 73.5,33.9 73.5,33.8 73.5,33.7 73.6,33.6 73.7,33.6 74,33.6 74.1,33.7 74.2,33.7 74.3,33.8 74.4,33.8 
		74.5,33.8 74.5,33.8 74.6,33.8 74.8,33.8 74.9,33.7 75,33.7 75,33.7 75.1,33.7 75.2,33.7 75.2,33.8 75.3,33.9 75.3,34 75.4,34 
		75.5,34 75.6,34 75.7,33.9 75.7,33.9 75.8,34 75.9,34 76.1,34.1 76.1,34.1 76.2,34.2 76.2,34.2 76.2,34.3 76.3,34.3 76.3,34.2 
		76.4,34.3 76.4,34.3 76.4,34.4 76.4,34.4 76.4,34.5 76.5,34.5 76.6,34.6 76.8,34.7 76.9,34.7 76.9,34.7 77.3,34.7 77.4,34.7 
		77.4,34.7 77.5,34.8 77.6,34.8 77.7,34.8 77.7,34.9 77.7,34.9 77.7,35 77.8,35 77.8,35.1 77.9,35.1 78,35.1 78.3,35.2 78.4,35.2 
		78.4,35.2 78.5,35.2 78.5,35.2 78.5,35.2 78.5,35.3 78.5,35.3 78.5,35.4 78.6,35.3 78.7,35.3 78.7,35.3 78.6,35.4 78.5,35.4 
		78.4,35.5 78.5,35.6 78.5,35.8 78.5,35.8 78.5,35.9 78.4,36 78.4,36.1 78.8,37.3 78.8,37.3 78.7,37.5 78.8,37.5 78.8,37.6 
		78.9,37.7 78.9,37.8 79,37.8 78.9,37.8 78.5,37.8 78.2,37.9 78,37.8 78,37.8 77.9,37.7 77.8,37.6 77.6,37.4 77.6,37.5 77.5,37.8 
		77.2,38.7 77,39.6 76.8,40.5 76.6,41.4 76.4,41.8 76.3,42.1 76.3,42.2 76.3,42.1 76.2,42 76.2,41.8 76.1,41.8 76.1,41.7 76,41.7 
		75.9,41.7 75.9,41.7 75.8,41.6 75.8,41.6 75.8,41.6 75.5,41.5 75.5,41.5 75.4,41.5 75.4,41.4 75.4,41.4 75.4,41.4 75.3,41.4 
		75.3,41.4 75.3,41.5 75.2,41.4 75.2,41.4 75.1,41.3 75.1,41.2 75.1,41.2 75,41.1 75,41.1 74.9,41.1 74.8,41 74.7,41 74.7,41 
		74.6,41 74.6,40.9 74.5,40.9 74.5,40.9 74.4,40.9 74.4,40.9 74.4,40.9 74.4,40.9 74.4,40.8 74.3,40.7 74.3,40.7 74.1,40.7 74,40.6 
		74,40.6 74,40.5 74,40.5 74,40.5 74,40.5 73.9,40.5 73.9,40.5 73.9,40.6 73.9,40.6 73.9,40.6 73.9,40.7 73.8,40.7 73.8,40.6 
		73.6,40.6 73.5,40.6 73.4,40.6 73.4,40.5 73.3,40.5 73.2,40.5 73.2,40.5 73.2,40.4 73.1,40.4 73,40.3 72.9,40.3 72.8,40.3 
		72.8,40.3 72.8,40.3 72.7,40.3 72.7,40.3 72.7,40.3 72.7,40.2 72.7,40.2 72.7,40.2 72.7,40.1 72.6,40.1 72.6,40.1 72.6,40.1 
		72.6,40.2 72.5,40.2 72.3,40.1 72.3,40.1 72.2,40.1 72.2,40.1 72.2,40.1 72.2,40.1 72.2,40.1 72.2,40.1 72.1,40.1 72.1,40.1 
		72,40.2 72,40.2 72,40.2 72,40.2 71.9,40.2 71.9,40.2 71.8,40.2 71.8,40.2 71.8,40.2 71.7,40.2 71.6,40.2 71.5,40.2 71.5,40.2 
		71.5,40.2 71.4,40.2 71.4,40.2 71.3,40.2 71.3,40.2 71.3,40.2 71.3,40.2 71.3,40.2 71.2,40.2 71.2,40.3 71.2,40.2 71.1,40.2 
		71.1,40.3 71.1,40.3 71.1,40.3 71,40.3 71,40.4 71,40.4 71,40.4 71,40.3 71,40.3 70.9,40.3 70.8,40.3 70.6,40.2 70.5,40.2 
		70.4,40.2 70.4,40.1 70.5,40.1 70.5,40.1 70.4,40 70.4,40 70.4,40 70.3,40 70.3,40 70.2,40 70.2,39.9 70.1,39.9 70.1,40 70,40 
		69.9,40 69.9,40 69.8,40 69.8,40 69.8,39.9 69.8,39.9 69.8,39.9 69.7,39.9 69.7,39.9 69.6,39.9 69.6,39.9 69.6,39.8 69.6,39.8 
		69.5,39.8 69.5,39.7 69.5,39.7 69.4,39.6 69.4,39.6 69.4,39.5 69.3,39.5 69.2,39.3 69.2,39.2 69.2,38.9 69.3,38.8 69.3,38.7 
		69.2,38.6 69.1,38.5 69,38.4 68.9,38.4 68.8,38.4 68.7,38.4 68.5,38.4 68.3,38.5 68.3,38.5 68.2,38.6 68.2,38.6 68.1,38.6 
		68.1,38.6 67.9,38.7 67.8,38.7 67.6,38.7 67.5,38.7 67.4,38.8 67.3,38.8 67.2,38.8 67.1,38.7 67.1,38.7 67,38.7 66.9,38.8 
		66.8,38.9 66.8,39 66.8,39.1 66.8,39.2 66.7,39.2 66.6,39.2 65.9,38.9 65.3,38.8 65.2,38.7 65.1,38.7 65.1,38.4 65.1,38.4 65,38.3 
		65.1,38.3 65.2,38.1 65.3,37.9 65.2,37.9 65.2,37.8 65.1,37.8 65.2,37.7 65.3,37.6 65.3,37.5 65.3,37.5 65.3,37.4 65.2,37.4 
		64.9,37.4 64.8,37.3 64.4,37.1 64.3,37 64.3,37 64.2,37 64.2,36.9 64.1,36.8 64.1,36.7 64.2,36.6 64.3,36.4 64.6,36.1 64.7,36 
		64.7,35.9 64.7,35.9 64.7,35.8 64.6,35.8 64.5,35.9 64.4,36 64,36.3 63.8,36.6 63.8,36.8 63.7,36.8 63.4,36.9 62.2,37.5 62.1,37.5 
		62,37.6 62,37.6 61.9,37.6 61.7,37.7 61.5,37.7 61.3,37.6 61.3,37.6 61.3,37.5 61.3,37.5 61.4,37.4 61.5,37.3 61.6,36.8 61.7,36.7 
		61.6,36.5 61.6,36.4 61.6,36.2 61.7,36.1 61.8,36 61.9,35.9 61.9,35.8 61.9,35.7 61.8,35.5 61.8,35.4 61.7,35.4 61.6,35.3 
		61.6,35.3 61.5,35.1 61.3,34.9 61.2,34.8 61.1,34.7 61,34.7 61,34.7 60.9,34.6 60.9,34.5 61,34.5 61.1,34.4 61.3,34.3 61.3,34.2 
		61.4,34.2 61.4,34.1 61.4,34 61.4,34 61.5,34 61.6,34 61.9,34.2 62.1,34.3 62.2,34.3 62.4,34.4 62.5,34.3 62.6,34.3 62.6,34.3 
		62.8,34 62.9,33.8 62.9,33.7 63,33.7 63,33.7 63.1,33.7 63.1,33.7 63.2,33.7 63.1,33.5 63.2,33.5 63.2,33.4 63.4,33.3 63.5,33.3 
		63.6,33.2 63.6,33.2 63.6,33 63.6,33 63.6,32.9 63.7,32.9 63.7,32.8 63.7,32.7 63.6,32.6 63.6,32.6 63.7,32.5 63.7,32.5 63.7,32.4 
		63.7,32.4 63.6,32.2 63.5,32.1 63.4,32 63.4,31.9 63.4,31.9 63.4,31.8 63.4,31.6 63.4,31.5 63.4,31 63.5,30.9 63.6,30.9 63.7,30.9 
		63.9,31 64.1,31.2 	"/>
	
		<polygon id="Napo" fill-rule="evenodd" clip-rule="evenodd" fill="#D96CAA" stroke="#F9F9FA" stroke-width="0.25" stroke-linecap="round" stroke-linejoin="round" points="
		61.2,31.3 61.2,31.3 61.3,31.2 61.5,31 61.6,31 61.7,31 61.8,30.9 61.8,30.9 61.8,30.9 61.9,30.8 61.9,30.8 61.9,30.8 62,30.7 
		62.1,30.7 62.2,30.7 62.2,30.8 62.2,30.8 62.2,30.9 62.3,30.9 62.3,31 62.3,31 62.2,31 62.2,31.1 62.2,31.1 62.3,31.2 62.3,31.2 
		62.3,31.3 62.2,31.3 62.2,31.4 62.2,31.4 62.3,31.5 62.3,31.5 62.7,31.6 62.8,31.6 62.9,31.6 62.9,31.5 63,31.5 63,31.4 63.1,31.3 
		63.2,31.2 63.4,31 63.4,31.5 63.4,31.6 63.4,31.8 63.4,31.9 63.4,31.9 63.4,32 63.5,32.1 63.6,32.2 63.7,32.4 63.7,32.4 63.7,32.5 
		63.7,32.5 63.6,32.6 63.6,32.6 63.7,32.7 63.7,32.8 63.7,32.9 63.6,32.9 63.6,33 63.6,33 63.6,33.2 63.6,33.2 63.5,33.3 63.4,33.3 
		63.2,33.4 63.2,33.5 63.1,33.5 63.2,33.7 63.1,33.7 63.1,33.7 63,33.7 63,33.7 62.9,33.7 62.9,33.8 62.8,34 62.6,34.3 62.6,34.3 
		62.5,34.3 62.4,34.4 62.2,34.3 62.1,34.3 61.9,34.2 61.6,34 61.5,34 61.4,34 61.4,34 61.4,34.1 61.4,34.2 61.3,34.2 61.3,34.3 
		61.1,34.4 61,34.5 60.9,34.5 60.9,34.6 61,34.7 61,34.7 61.1,34.7 61.2,34.8 61.3,34.9 61.5,35.1 61.6,35.3 61.6,35.3 61.7,35.4 
		61.8,35.4 61.8,35.5 61.9,35.7 61.9,35.8 61.9,35.9 61.8,36 61.7,36.1 61.6,36.2 61.6,36.4 61.6,36.5 61.7,36.7 61.6,36.8 
		61.5,37.3 61.4,37.4 61.3,37.5 61.3,37.5 61.3,37.6 61.3,37.6 61.5,37.7 61.7,37.7 61.9,37.6 62,37.6 62,37.6 62.1,37.5 62.2,37.5 
		63.4,36.9 63.7,36.8 63.8,36.8 63.8,36.6 64,36.3 64.4,36 64.5,35.9 64.6,35.8 64.7,35.8 64.7,35.9 64.7,35.9 64.7,36 64.6,36.1 
		64.3,36.4 64.2,36.6 64.1,36.7 64.1,36.8 64.2,36.9 64.2,37 64.3,37 64.3,37 64.4,37.1 64.8,37.3 64.9,37.4 65.2,37.4 65.3,37.4 
		65.3,37.5 65.3,37.5 65.3,37.6 65.2,37.7 65.1,37.8 65.2,37.8 65.2,37.9 65.3,37.9 65.2,38.1 64,38.2 63.9,38.2 63.8,38.3 
		63.7,38.3 63.5,38.4 62.8,38.6 62.6,38.7 62.3,38.7 62.3,38.7 62.2,38.8 61.5,39.1 61.1,39.1 61,39.1 60.9,39.2 60.9,39.2 
		60.8,39.2 60.7,39.1 60.6,39.1 60.5,39.2 60.4,39.2 60.3,39.2 60.2,39.3 60.1,39.3 59.9,39.4 59.8,39.4 59.5,39.6 59.4,39.7 
		59.2,39.7 59.2,39.7 59.1,39.7 59,39.6 59,39.6 58.9,39.7 58.9,39.8 58.9,39.8 58.8,39.8 58.7,39.8 58.6,39.7 58.5,39.7 58.3,39.7 
		57.8,39.8 57.6,39.8 57.2,39.8 57.2,39.6 57.2,39.5 57.1,39.5 56.9,39.5 56.8,39.4 56.7,39.3 56.7,39.2 56.6,39.2 56.5,39.2 
		56.5,39.2 56.5,39.2 56.5,39.1 56.4,39.1 56.3,39.1 56.2,39.1 56.2,39.1 56,39.1 55.9,39.1 55.8,39.1 55.5,39.3 55.5,39.3 
		55.5,39.2 55.5,39.2 55.6,39 55.6,38.9 55.6,38.8 55.6,38.5 55.6,38.4 55.5,38.2 55.3,38 55.1,37.8 55,37.7 54.8,37.7 54.8,37.6 
		54.8,37.6 54.8,37.5 54.8,37.5 54.9,37.5 54.9,37.4 54.9,37.3 54.9,37.2 54.9,37.2 55,37.1 55.1,36.9 55.1,36.8 55.2,36.6 
		55.2,36.5 55.1,36.2 55,35.9 55,35.9 55.1,35.7 55.3,35.6 55.3,35.6 55.5,35.5 55.6,35.5 55.6,35.4 55.7,35.3 55.7,35.1 55.7,35 
		55.8,34.9 56,34.8 56,34.7 56.1,34.5 56.1,34.4 56.1,34.3 56.1,34.3 56.2,34.2 56.3,34 56.3,33.9 56.3,33.8 56.2,33.6 56.2,33.5 
		56.3,33.4 56.5,33.1 56.6,32.9 56.7,32.7 56.7,32.1 56.7,32 56.7,31.9 56.8,31.9 56.8,31.9 56.9,31.8 57.1,31.8 57.1,31.8 
		57.2,31.8 57.3,31.9 57.3,31.9 57.4,31.9 57.5,31.9 57.5,31.8 57.6,31.6 57.6,31.6 57.7,31.5 57.7,31.5 57.8,31.5 57.9,31.5 
		58,31.5 58,31.5 58.1,31.4 58.2,31.3 58.2,31.3 58.2,31.3 58.3,31.2 58.3,31 58.3,30.9 58.4,30.9 58.6,30.8 59.2,30.5 59.2,30.4 
		59.3,30.3 59.7,30.4 59.7,30.4 59.7,30.4 59.7,30.4 59.7,30.4 59.7,30.5 59.7,30.5 59.7,30.5 59.7,30.5 59.7,30.5 59.7,30.5 
		59.7,30.6 59.7,30.9 59.8,31 59.9,31.1 60,31.1 60.8,31.1 61,31.2 61.1,31.2 	"/>
	
		<polygon id="Morona-Santiago" fill-rule="evenodd" clip-rule="evenodd" fill="#D96CAA" stroke="#F9F9FA" stroke-width="0.25" stroke-linecap="round" stroke-linejoin="round" points="
		58,43.1 58.1,43 58.5,43 58.6,43 58.7,43.1 58.8,43.2 58.9,43.7 59.1,43.9 59.1,44 59.1,44.2 59.1,44.3 59.2,44.5 59.3,44.6 
		59.3,44.8 59.3,44.9 59.4,45 59.5,45.1 59.8,45.1 59.9,45.2 60,45.3 60.1,45.4 60.1,45.5 60.2,45.6 60.3,45.7 60.4,45.8 60.6,45.8 
		62.7,46.7 64.4,47.8 64.6,47.9 64.7,47.9 64.8,48 64.9,48.3 65.2,48.6 65.2,48.7 65.3,48.8 65.3,48.8 65.4,48.9 65.4,48.9 
		65.5,49.2 65.7,49.4 65.9,49.5 66.2,49.6 66.6,49.6 66.8,49.5 66.9,49.6 67,49.7 67.1,49.7 67.4,49.8 67.7,49.9 67.8,49.9 68,49.8 
		68.1,49.8 68.1,49.8 68,49.9 67.3,50.1 66.3,50.5 65.4,50.8 64.5,51.1 63.5,51.5 62.6,51.8 61.6,52.1 60.7,52.4 59.7,52.8 
		59.5,52.9 59.2,53 59.1,53 58.5,53.5 57.8,54.5 57.4,54.8 57.3,54.9 57.1,55.4 57,55.5 56.7,55.7 56.6,55.8 56.6,56 56.7,56.1 
		56.8,56.2 56.9,56.3 56.9,56.5 56.9,56.7 56.7,56.7 56.6,56.8 56.5,56.9 56.4,56.9 56.3,56.8 56.2,56.3 56.1,56.2 56.1,56.1 
		55.7,56 55.6,56 55.4,56 55.4,56.2 55.4,56.2 55.4,56.4 55.4,56.5 55.4,56.8 55.3,57.1 55.3,57.1 54.3,57.1 53.8,57.2 53.6,57.2 
		53.3,57.2 53.2,57.2 53.2,57.2 53.1,57.2 53.1,57.2 53,57.4 53,57.4 52.9,57.5 52.9,57.5 52.8,57.4 52.7,57.4 52.4,57.3 52.1,57.3 
		51.9,57.2 51.8,57.2 51.8,57.1 51.8,57.1 51.7,57 51.7,57 51.7,56.9 51.6,56.9 51.6,56.8 51.6,56.8 51.6,56.7 51.5,56.6 51.5,56.5 
		51.5,56.4 51.5,56.4 51.5,56.3 51.6,56.3 51.7,56.2 51.7,56.2 51.7,56.1 51.7,56.1 51.7,56 51.6,56 51,55.5 51,55.4 51,55.3 
		51,55.3 52,54.5 52.1,54.4 52.4,54.3 52.6,54.1 52.8,54 53,53.8 53.1,53.6 53.1,53.5 53.1,53.4 53.1,53.3 53.1,53.2 53.3,52.8 
		53.3,52.7 53.4,52.6 53.7,52 53.8,51.9 53.8,51.8 53.8,51.7 53.7,51.7 53.6,51.6 53.6,51.5 53.6,51.5 53.6,51.4 53.8,51 53.9,50.9 
		54,50.9 54.8,50.4 54.9,50.4 54.9,50.3 54.9,50.2 54.9,50.2 54.9,50.1 54.8,50 54.6,49.9 54.5,49.8 54.5,49.8 54.4,49.9 54.3,49.9 
		54.2,50 54.2,50.1 54.2,50.1 54.2,50.2 54.1,50.3 54.1,50.3 54,50.2 53.9,50.2 53.9,50.1 53.9,50 54,49.8 54,49.8 54,49.8 
		54.1,49.8 54.1,49.8 54.1,49.8 54.2,49.7 54.4,49.4 54.4,49.4 54.4,49.3 54.4,49.2 54.4,49.2 54.4,49 54.4,48.6 54.4,48.5 
		54.5,48.4 54.4,48.3 54.3,48.3 53.8,48.1 53.7,48 53.7,47.9 54,47.7 54,47.7 54.1,47.6 54.1,47.5 54.1,47.4 54.2,47.3 54.3,47.2 
		54.3,47.2 54.3,47.1 54.3,47.1 54.3,47 54.3,46.7 54.3,46.5 54.4,46.4 54.5,46.3 54.6,46.3 54.7,46.2 54.7,46.1 54.7,46 54.6,45.9 
		54.6,45.7 54.6,45.6 54.5,45.5 54.5,45.5 54.4,45.5 54.4,45.4 54.4,45.3 54.4,45.2 54.6,44.9 54.9,44.6 55,44.5 54.9,44.2 
		54.9,44.1 54.9,44 54.8,44 54.8,43.9 54.7,43.8 54.7,43.7 54.7,43.6 54.7,43.4 54.7,43.4 54.8,43.3 54.8,43.2 54.8,43.2 54.9,43.1 
		55,43.1 55,43 55.1,42.9 55.3,42.8 55.3,42.8 55.4,42.7 55.4,42.7 55.4,42.6 55.4,42.5 55.3,42.3 55.3,42.2 55.4,42.1 55.4,42 
		55.6,41.8 55.6,41.8 55.8,41.7 55.9,41.7 56.1,41.7 56.3,41.7 56.4,41.7 56.6,41.6 56.6,41.6 56.8,41.4 57.1,41.5 57.3,41.6 
		57.4,41.7 57.5,41.8 57.6,42 57.8,42.6 57.9,42.8 57.9,43 	"/>
	
		<polygon id="Manabí" fill-rule="evenodd" clip-rule="evenodd" fill="#D96CAA" stroke="#F9F9FA" stroke-width="0.25" stroke-linecap="round" stroke-linejoin="round" points="
		45.5,29.2 45.5,29.2 45.5,29.2 45.5,29.2 45.6,29.2 45.6,29.2 45.6,29.2 45.6,29.2 45.6,29.4 45.7,29.4 45.7,29.4 45.7,29.4 
		45.7,29.4 45.7,29.4 45.8,29.4 45.8,29.3 45.9,29.4 45.9,29.4 45.9,29.4 46.1,29.6 46.1,29.6 46.2,29.6 46.2,29.6 46.3,29.6 
		46.3,29.6 46.3,29.6 46.3,29.7 46.1,29.9 46.1,29.9 46.1,29.9 46,30 46,30 46,30 46,30.1 46,30.1 46,30.1 46,30.1 46,30.1 
		45.9,30.1 45.9,30.1 45.9,30.1 45.9,30.2 45.9,30.2 45.9,30.2 45.9,30.3 45.9,30.3 45.9,30.4 45.9,30.4 46.1,30.6 46,30.7 46,30.7 
		46,30.8 46,31 46.1,31.1 46.1,31.1 46.2,31.1 46.2,31.1 46.3,31.2 46.4,31.3 46.4,31.3 46.6,31.5 46.8,31.7 46.9,31.8 47.1,31.8 
		47.2,31.8 47.3,31.8 47.4,31.8 47.4,31.9 47.5,31.9 47.5,32.1 47.5,33.4 47.5,33.5 47.4,33.6 47.2,34 47.2,34.2 47.2,34.2 
		47.1,34.4 46.9,34.6 46.8,35 46.8,35.1 46.6,35.4 46.5,35.7 46.5,35.8 46.4,35.8 46.3,35.8 46.3,35.9 46.2,36 46.1,36.1 46,36.6 
		45.9,36.9 45.4,37 45.3,37 45.2,37.1 45.1,37.1 44.8,37.5 44.8,37.6 44.8,37.7 44.7,37.8 44.6,37.9 44.6,37.9 44.6,38 44.6,38 
		44.6,38.1 44.5,38.1 44.5,38.2 44.5,38.3 44.4,38.4 44.2,38.6 44.1,38.7 43.8,39 43.6,39.1 43.5,39.1 43.4,39.1 43.4,39.1 
		43.3,39.1 43.2,39.1 43.2,39 43.2,39 43.2,38.9 43.2,38.9 43.2,38.9 43.1,39 43,39.1 43,39.3 42.9,39.4 42.9,39.7 42.7,40.1 
		42.6,40.2 42.3,40.4 42.2,40.5 42.1,40.6 42,40.7 42,40.8 42.1,41 42,41 42,41.1 41.8,41.1 41.7,41.2 41.7,41.2 41.6,41.2 
		41.6,41.3 41.6,41.4 41.5,41.6 41.5,41.7 41.5,41.7 41.6,41.8 41.7,42 41.7,42 41.6,42.1 41.4,42.2 40.9,42.3 40.9,42.4 40.9,42.4 
		41,42.5 41.1,42.6 41.2,42.6 41.3,42.7 41.3,42.7 41.3,42.7 41.3,42.7 41.3,42.8 41.3,42.9 41.4,43.1 41.4,43.2 41.3,43.2 41,43.2 
		40.9,43.2 40.8,43.3 40.8,43.3 40.7,43.3 40.7,43.2 40.6,43.2 40.6,43.2 40.5,43.3 40.4,43.4 40.4,43.4 40.3,43.5 40.2,43.5 
		40.1,43.6 40.1,43.7 40,43.7 40,43.8 39.9,43.9 39.8,44 39.8,44.1 39.8,44.1 39.8,44.2 39.8,44.2 39.8,44.3 39.7,44.3 39.7,44.4 
		39.5,44.4 39.1,44.4 39,44.3 38.9,44.3 38.8,44.2 38.8,44.1 38.8,44 38.8,44 38.8,43.9 38.9,43.8 38.9,43.7 39,43.5 39,43.4 
		38.9,43.4 38.8,43.3 38.8,43.2 38.8,43.2 38.8,43.1 38.8,43.1 38.7,43 38.5,43 38.3,43 38.1,43.1 37.9,43.1 37.4,43.1 37.3,43.1 
		37.2,43.1 37.1,43.1 36.9,43.1 36.9,43.1 36.7,42.8 36.6,42.7 36.6,42.6 36.6,42.5 36.6,42.4 36.9,42.2 36.9,42 36.9,41.8 
		36.9,41.7 37,41.7 37.1,41.6 37.2,41.6 37.3,41.5 37.3,41.4 37.3,41.3 37.3,41.2 37.3,41 37.3,40.9 37.4,40.8 37.4,40.6 37.2,40.3 
		36.8,39.8 36.4,39.1 36.2,38.8 36.1,38.5 36.2,38.4 36.3,38.3 36.4,38.2 36.5,38.1 36.5,38 36.6,37.9 36.7,37.8 36.8,37.7 
		36.8,37.7 36.9,37.6 37,37.7 37.1,37.7 37.2,37.6 37.3,37.6 37.4,37.6 37.5,37.6 37.6,37.5 37.6,37.6 37.7,37.6 37.8,37.7 
		37.9,37.6 38,37.6 38,37.5 38.1,37.5 38.2,37.6 38.3,37.6 38.4,37.6 38.6,37.5 38.7,37.4 38.9,37.2 39,36.7 39.1,36.6 39.2,36.1 
		39.3,35.7 39.5,35.4 39.6,35.2 39.6,35.1 39.7,35.1 39.8,35.1 39.9,35 39.9,35.2 40,35.4 40.2,35.5 40.4,35.5 40.8,35.5 40.8,35.4 
		40.6,35.3 40.3,35.3 40.2,35.3 40.1,35.2 40,35 39.9,34.8 39.8,34.8 39.7,34.7 39.7,34.5 39.7,34.3 39.6,34.1 39.5,33.9 39.4,33.7 
		39.3,33.4 39.4,33.3 39.5,33.3 39.8,33.1 40,32.7 40.1,32.6 40.1,32.5 40.2,32.3 40.2,32.2 40.4,32.1 40.5,32 40.6,31.8 40.7,31.9 
		40.9,31.9 41.1,31.7 41.3,31.6 41.7,31.1 42.1,30.6 42.2,30.5 42.3,30.3 42.3,30.2 42.3,30.2 42.4,30.2 42.5,30.1 42.6,29.8 
		42.7,29.6 42.8,29.2 42.7,29 42.7,28.7 42.7,28.1 42.7,27.9 42.7,27.9 42.8,27.8 42.8,27.9 42.9,27.9 42.9,28 42.9,28.1 43,28.1 
		43,28 43,27.9 43,27.9 43.2,28.4 43.3,28.5 43.4,28.5 43.4,28.5 43.5,28.6 43.5,28.6 43.6,28.6 43.6,28.5 43.6,28.5 43.7,28.5 
		43.7,28.4 43.7,28.4 43.7,28.4 43.8,28.3 43.8,28.2 43.8,28.2 43.8,28.1 43.8,28.1 43.9,28.1 43.9,28.1 43.9,28.1 44.2,28.1 
		44.3,28.1 44.4,28.1 44.5,28 44.6,28 44.7,28 44.8,27.8 44.8,27.8 44.9,27.7 45,27.7 45,27.7 45.1,27.7 45.1,27.7 45.2,27.7 
		45.2,27.8 45.3,27.8 45.3,27.9 45.3,27.9 45.3,27.9 45.3,27.9 45.3,27.9 45.3,27.9 45.2,28 45.2,28.1 45.2,28.1 45.2,28.1 
		45.2,28.1 45.2,28.2 45.2,28.2 45.2,28.2 45.2,28.3 45.2,28.3 45.6,28.5 45.6,28.5 45.6,28.5 45.7,28.6 45.7,28.6 45.6,28.6 
		45.6,28.6 45.6,28.7 45.5,28.7 45.5,28.7 45.4,28.8 45.4,28.9 45.3,29.1 45.3,29.1 45.3,29.1 45.3,29.1 45.4,29.2 45.4,29.2 	"/>
	
		<polygon id="Los_Ríos" fill-rule="evenodd" clip-rule="evenodd" fill="#D96CAA" stroke="#F9F9FA" stroke-width="0.25" stroke-linecap="round" stroke-linejoin="round" points="
		47.3,34.6 47.7,34.6 47.9,34.6 48,34.7 48,34.7 47.9,34.8 47.9,34.9 47.9,35 47.9,35.1 47.9,35.2 47.9,35.3 47.9,35.4 47.8,35.4 
		47.9,35.5 47.9,35.6 47.9,35.6 48,35.7 48.1,35.7 48.2,35.7 48.3,35.7 48.4,35.7 48.5,35.7 48.5,35.6 48.6,35.5 48.7,35.4 
		48.9,35.3 49,35.2 49.6,34.7 49.7,34.6 49.8,34.6 49.9,34.7 49.8,35 49.3,36.2 49.2,36.4 49.1,36.5 49.1,36.5 49,36.6 48.9,36.6 
		48.9,36.7 48.7,37.1 48.6,37.1 48.5,37.2 48.4,37.3 48.4,37.4 48.3,37.7 48.3,37.8 48.2,37.9 48.3,38.1 48.2,38.6 48.1,38.8 
		48.1,38.9 48.2,39.1 48.4,39.3 48.4,39.6 48.1,39.7 48,39.9 47.8,40.2 47.7,40.3 47.6,40.4 47.7,40.5 47.7,40.5 47.8,40.5 
		47.8,40.4 47.9,40.3 48,40.2 48,40.2 48.1,40.3 48.1,40.4 48.4,40.6 48.4,40.6 48.3,40.6 48.3,40.7 48.3,40.7 48.2,40.7 48.2,40.7 
		48.2,40.7 48.1,40.8 48.1,41.4 48.2,41.6 48.2,41.7 48.3,41.8 48.6,41.9 48.6,42 48.7,42.1 48.7,42.2 48.6,42.3 48.6,42.4 
		48.6,42.4 48.5,42.5 48.5,42.5 48.4,42.4 48.4,42.4 48.4,42.4 48.1,42.7 48.1,42.7 48,42.8 48,42.8 48,42.8 48,42.9 48,42.9 
		48.1,42.9 48.1,42.9 48.2,43 48.2,43 48.3,43 48.3,43 48.4,43.1 48.4,43.2 48.7,43.6 48.7,43.6 48.7,43.8 48.7,43.9 48.7,44 
		48.7,44.1 48.8,44.1 48.8,44.2 48.8,44.3 48.7,44.5 48.6,45 48.6,45 48.5,45.1 48.5,45.2 48.5,45.2 48.7,45.5 49,45.9 49,46.1 
		49,46.1 49,46.2 48.9,46.5 48.8,46.7 48.4,46.4 47.8,45.4 47.8,45.3 47.5,45.2 47.4,45.1 47.3,45 46.9,44.8 46.8,44.7 46.6,44.7 
		46.5,44.7 46.1,44.9 45.8,44.9 45.7,44.9 45.6,44.8 45.6,44.6 45.4,44.3 45.3,44.1 45.2,44 45.1,43.7 45,43.6 44.9,43.4 44.8,43.3 
		44.7,43.2 44.1,42.9 44.1,42.8 44.1,42.7 44.1,42.6 44.1,42.5 44.1,42.4 44.1,42.4 44,42 44,41.9 44,41.5 44.1,41.4 44.2,41 
		44.2,41 44.3,40.8 44.4,40.7 44.5,40.6 44.9,39.8 45,39.7 45,39.7 45,39.5 45,39.5 45,39.4 45,39.4 45.1,39.4 45.1,39.4 45.2,39.4 
		45.2,39.3 45.2,39.2 45.2,39.2 45.3,39.2 45.3,39.2 45.3,39.2 45.4,39.1 45.4,39.1 45.4,39 45.5,38.9 45.5,38.9 45.5,38.9 
		45.7,38.9 45.7,38.8 45.8,38.7 45.9,38.6 45.9,38.6 45.9,38.5 46,38.5 46.1,38.5 46.1,38.5 46.2,38.4 46.2,38.3 46.3,38.1 46.3,38 
		46.3,37.9 46.4,37.9 46.4,37.8 46.5,37.8 46.5,37.7 46.5,37.7 46.5,37.6 46.5,37.6 46.6,37.2 46.7,37 46.6,36.9 46.5,36.8 
		46.4,36.8 46.1,36.8 45.9,36.9 46,36.6 46.1,36.1 46.2,36 46.3,35.9 46.3,35.8 46.4,35.8 46.5,35.8 46.5,35.7 46.6,35.4 46.8,35.1 
		46.8,35 46.9,34.6 47.2,34.6 	"/>
	
		<polygon id="Loja" fill-rule="evenodd" clip-rule="evenodd" fill="#D96CAA" stroke="#F9F9FA" stroke-width="0.25" stroke-linecap="round" stroke-linejoin="round" points="
		47.8,55.7 48,55.7 48.1,55.7 48.2,55.7 48.2,55.8 48.3,55.9 48.3,56 48.3,56.1 48.3,56.3 48.4,56.4 48.4,56.5 48.6,56.6 48.8,56.6 
		48.9,56.5 49.1,56.4 49.2,56.4 49.2,56.5 49.3,56.6 49.3,56.8 49.6,57.1 49.6,57.3 49.6,57.5 49.7,57.7 49.8,57.9 49.6,58.1 
		49.6,58.1 49.5,58.2 49.4,58.2 49.5,58.4 49.4,58.4 49.4,58.5 49.4,58.5 49.3,58.5 49.3,58.5 49.2,58.5 49.2,58.5 49.1,58.5 
		49.1,58.6 49.1,58.6 49.1,58.7 49.1,58.7 49.2,58.9 49.3,59.1 49.4,59.2 49.5,59.4 49.6,59.6 49.6,59.6 49.7,59.8 49.7,59.8 
		49.6,59.9 49.6,60.1 49.5,60.2 49.5,60.5 49.5,60.7 49.5,60.9 49.5,61 49.4,61.4 49.4,61.6 49.4,61.7 49.4,61.7 49.4,61.8 
		49.5,61.8 49.5,61.8 49.5,61.8 49.6,61.9 49.6,61.9 49.7,61.9 49.7,62 49.8,62.1 49.8,62.1 49.8,62.2 49.8,62.3 49.8,62.4 
		49.8,62.6 49.7,63 49.8,63.1 49.8,63.3 49.7,63.5 49.7,63.7 49.7,63.8 49.6,63.8 49.6,63.9 49.4,64.1 49.4,64.2 49.3,64.2 
		49.3,64.3 49.2,64.3 49.1,64.3 49.1,64.3 49.1,64.4 49,64.4 48.9,64.4 48.9,64.4 48.8,64.3 48.7,64.3 48.6,64.3 48.6,64.2 
		48.5,64.2 48.4,64.2 48.4,64.3 48.3,64.4 48.3,64.4 48.2,64.5 48.1,64.7 48.1,64.8 48.2,65 48.1,65 48.1,65.1 48.1,65.2 47.8,65.6 
		47.7,65.7 47.5,66.1 47.2,66.4 47.1,66.5 47.1,66.4 46.9,66.1 46.8,65.6 46.6,65.3 46.6,65.1 46.8,64.8 46.8,64.7 46.7,64.6 
		46.6,64.6 46.4,64.6 46.4,64.5 46.3,64.5 46.2,64.4 45.8,64.1 45.6,63.9 45.3,64 45.1,64.1 44.6,64.3 44.3,64.3 44.1,64.1 
		43.9,63.8 43.8,63.6 43.6,63.6 43.4,63.6 43.2,63.6 43,63.5 42.8,63.4 42.6,63.1 42.4,63 42.3,62.9 42.2,62.9 42,62.9 42,62.8 
		42,62.8 41.7,62.8 41.6,62.8 41.5,62.9 41.4,62.9 41.4,63 41.3,63.3 41.2,63.4 41.1,63.6 40.5,64 40.2,64.2 40.2,64.2 40.1,64.2 
		40,64.2 39.8,64.2 39.5,64 39.4,63.9 39.3,63.8 39.4,63.6 40.4,62.3 40.4,62.1 40.1,62.2 39.8,62.3 39.5,62.2 39.3,61.9 39.3,61.8 
		39.4,61.7 39.4,61.6 39.3,61.5 39.2,61.4 39.2,61.3 39.2,61.1 39.2,61.1 39.2,60.9 39.3,60.7 39.4,60.6 39.5,60.5 39.7,60.5 
		39.8,60.5 40,60.5 40.1,60.6 40.4,60.7 40.6,60.8 40.7,60.7 40.9,60.5 41,60.3 41.1,60.2 41.7,59.9 41.8,59.8 41.8,59.7 41.9,59.7 
		42.5,59.7 42.9,59.6 43.4,59.4 43.5,59.4 44,59.3 44.1,59.3 44.2,59.3 44.4,59.4 44.5,59.4 45,59.4 45.1,59.3 45.3,59.3 45.4,59.1 
		45.5,59 45.7,58.9 45.9,58.8 45.9,58.8 46,58.8 46,58.8 46.1,58.9 46.1,58.9 46.3,59.1 46.3,59.1 46.5,59.1 46.7,59.1 46.8,59.1 
		47,59.1 47.1,59.2 47.2,59.2 47.3,59.1 47.4,59.1 47.5,59 47.5,58.9 47.6,58.9 47.6,58.8 47.5,58.6 47.5,58.5 47.6,58.5 47.7,58.4 
		47.7,58.3 47.8,58.3 47.8,58.1 47.8,58 47.8,57.9 47.8,57.8 47.7,57.8 47.7,57.7 47.6,57.7 47.5,57.6 47.4,57.6 47.3,57.5 
		47.3,57.6 47.2,57.6 47.1,57.7 47,57.8 47,57.9 46.9,57.9 46.9,57.8 46.9,57.8 46.9,57.7 47,57.3 47,57.2 47,57 47,57 47.1,56.9 
		47.3,56.6 47.4,56.5 47.4,56.5 47.4,56.4 47.3,56.4 47.3,56.4 47.3,56.3 47.2,56.3 47.2,56.3 47.1,56.2 47.1,56.1 47.1,56 
		47.1,55.6 47.3,55.6 47.5,55.7 	"/>
	
		<polygon id="Imbabura" fill-rule="evenodd" clip-rule="evenodd" fill="#D96CAA" stroke="#F9F9FA" stroke-width="0.25" stroke-linecap="round" stroke-linejoin="round" points="
		59.5,27.9 59.2,28.2 59.2,28.3 59.2,28.4 59.2,28.4 59.2,28.4 59.2,28.4 59.2,28.4 59.3,28.4 59.3,28.4 59.3,28.4 59.3,28.4 
		59.3,28.5 59.3,28.5 59.3,28.5 59.3,28.5 59.2,28.6 59,28.8 59,28.9 59,28.9 58.9,28.9 58.9,28.9 58.9,28.9 58.8,29 58.5,29.3 
		57.6,29 57.5,29 57.4,29.1 57.2,29.2 57.1,29.3 56.8,29.5 56.6,29.5 56.4,29.5 56.2,29.4 56,29.4 55.9,29.3 55.8,29.2 55.7,29.1 
		55.6,29.1 55.5,29.1 55.4,29.2 55.3,29.3 55.3,29.2 55.3,29.2 55.4,29 55.4,29 55.4,28.9 55.3,28.8 55.3,28.7 55.2,28.7 55,28.7 
		54.6,28.7 54.2,28.8 54.1,28.8 53.9,28.8 53.5,28.8 53.4,28.9 53.3,28.9 53.2,28.9 52.4,28.7 52.2,28.7 51.6,28.8 51.3,28.9 
		51.1,28.9 51,28.9 50.9,28.9 50.8,28.9 50.7,28.8 50.6,28.8 50.5,28.5 50.6,28.5 50.7,28.5 50.7,28.5 50.7,28.4 51,28 51.1,27.9 
		51.2,27.8 51.2,27.8 51.2,27.7 51.2,27.7 51.2,27.7 51.3,27.6 51.4,27.5 51.5,27.4 51.6,27.3 51.7,27.3 51.8,27.3 52,27.4 
		52.3,27.4 52.4,27.4 52.5,27.5 52.6,27.5 52.7,27.5 52.7,27.5 52.8,27.5 52.9,27.7 53,27.7 53,27.7 53.1,27.7 53.1,27.7 53.2,27.6 
		53.4,27.5 53.6,27.1 53.9,26.8 54,26.7 54,26.6 54.3,26.5 54.3,26.4 54.4,26.4 54.5,26.5 54.6,26.5 54.7,26.4 54.8,26.4 54.8,26.4 
		54.9,26.3 54.9,26.2 54.9,26.1 54.8,26 54.6,25.7 54.6,25.7 54.6,25.6 54.5,25.3 54.5,25.3 54.2,24.9 54.2,24.8 54.2,24.7 
		54.3,24.7 54.4,24.7 54.5,24.7 54.6,24.7 54.6,24.6 54.7,24.6 54.7,24.5 54.8,24.4 54.7,24.2 54.8,23.9 54.9,24 55,24 55.3,24.1 
		55.4,24.1 55.4,24.1 55.6,24.3 55.9,24.5 56.1,24.7 56.3,24.9 56.5,25.2 56.8,25.6 57,26 57,26.1 57,26.3 57,26.5 57,26.6 
		57.1,26.7 57.4,26.8 57.4,26.8 57.5,26.9 57.7,26.9 57.8,26.9 58.1,27 58.4,27.2 58.7,27.4 59.1,27.6 59.2,27.7 59.3,27.8 	"/>
	<path id="Guayas" fill="#D96CAA" stroke="#F9F9FA" stroke-width="0.25" stroke-linecap="round" stroke-linejoin="round" d="
		M42.9,50.6l-0.3,0l-0.2,0.1L42,50.8l-0.5,0.1L41.4,51l-0.1,0.3l-0.3,0.5l0,0.1l0,0.9l0,0.3l0,0.2l0.1,0.1l0.2,0l0.2,0l0.1,0
		l0.2-0.1l0.3,0l0.1-0.2l0-0.1l0.1-0.1l0-0.2l0.1-0.1l0.1,0l0-0.1l0.1-0.2l0.1-0.2l0.1-0.1l0,0l0.1-0.1l0.1-0.1l0-0.1l0,0l0.1-0.1
		l0-0.1l0.4-0.2l0.1-0.1l0,0l0,0l0-0.1l0-0.1l-0.3-0.1L42.9,50.6z M44.1,50.5l0.2-0.1l0-0.3l0.3-0.1l0.2-0.2l-0.1-0.2l-0.2-0.1
		l-0.1-0.2l-0.2,0.4L44,50l-0.1,0.3l0,0.2L44.1,50.5z M49.6,46.7L49.6,46.7l-0.1-0.1l-0.1,0l0,0l0,0l-0.1,0l-0.1,0l-0.3-0.1
		l-0.4-0.4l-0.6-0.9l-0.1-0.1l-0.2-0.2l-0.1-0.1L47.3,45l-0.3-0.2l-0.1-0.1l-0.2,0l-0.1,0l-0.4,0.1l-0.3,0l-0.2,0l-0.1-0.1l0-0.2
		l-0.2-0.3l-0.1-0.3L45.2,44l-0.2-0.3L45,43.6l-0.1-0.2l-0.1-0.2l-0.1-0.1l-0.6-0.3l0-0.1l0-0.1l0-0.1l0-0.1l0-0.1l0-0.1L44,42
		l0-0.1l0-0.5l0-0.1l0.1-0.3l0-0.1l0.1-0.1l0.1-0.1l0.1-0.1l0.4-0.8l0-0.1l0-0.1l0-0.1l0-0.1l0,0l0,0l0,0l0.1,0l0,0l0,0l0-0.1l0,0
		l0,0l0,0l0.1,0l0,0l0,0l0-0.1l0-0.1l0,0l0,0l0.1,0l0,0l0.1-0.1l0.1-0.1l0,0l0,0l0.1,0l0.1,0l0.1,0l0.1-0.1l0-0.1l0-0.3l0-0.1l0-0.1
		l0-0.1l0.1,0l0.1,0l0-0.1l0,0l0-0.1l0-0.1l0.1-0.3l0-0.2l0-0.1l-0.1-0.1l-0.1,0l-0.3,0l-0.2,0.1L45.4,37l-0.1,0l-0.1,0l-0.1,0.1
		l-0.3,0.4l0,0.1l0,0.1l0,0.1l-0.1,0.1l0,0l0,0.1l0,0.1l0,0.1l0,0.1l0,0.1l-0.1,0.1l-0.1,0.1l-0.1,0.2l-0.1,0.1L43.8,39l-0.1,0.1
		l-0.1,0l-0.1,0l-0.1,0l-0.1,0l0,0l0,0l0-0.1l0-0.1l0,0l0,0L43.1,39l0,0.1l0,0.2l-0.1,0.2l-0.1,0.2l-0.2,0.4l-0.1,0.1l-0.3,0.2
		l-0.2,0.1l-0.1,0.1L42,40.7l0,0.2l0,0.2l0,0l0,0l-0.2,0l-0.1,0.1l0,0l0,0l0,0.1l0,0.1l0,0.2l0,0.1l0,0.1l0,0.1l0.1,0.1l0,0.1l0,0.1
		l-0.3,0.2l-0.5,0.1l0,0.1l0,0.1l0.1,0.1l0.1,0.1l0.1,0l0.1,0l0,0l0,0l0,0l0,0.1l0,0.1l0.1,0.2l0,0.1l-0.1,0l-0.3,0l-0.1,0.1l0,0.1
		l0,0l0,0l-0.1,0l-0.1,0l-0.1,0l-0.1,0.1l-0.1,0.1l0,0l-0.1,0l-0.1,0l-0.1,0.1l-0.1,0.1l0,0.1L40,43.8l-0.1,0.1L39.8,44l0,0.1l0,0.1
		l0,0.1l0,0l0,0.1l0,0l-0.1,0l-0.2,0l-0.3,0l0.1,0.3l0.2,0.4l0.4,0.2l0.6,0.1l0.4,0.3l0.3,0.3l0.3,0.4l0,0.7l-0.1,0.8L41,48.3
		l-0.4,0.2l-0.6,0.2L39.5,49l-0.5,0.5l0.6,0.7l0.3,0.2l0.1,0l0.1,0l0,0l0,0l0.1,0.1l0.1,0.1l0.3,0.3l0.3,0.1l0.2,0l0.1-0.1l0-0.2
		l0-0.1l0-0.1L41,50.5l0,0l0-0.2l0-0.1l0.1-0.1l0.1,0l0,0.1l0,0l0,0l0.1,0l0.1,0l0.1-0.1l0.1-0.1l0.2-0.1l0.2-0.3l0.5-0.7l0.3-0.8
		l0.1-0.1l0.1-0.1l0.1,0l0.2,0l0.1,0l0.1-0.1l0,0l0.1,0l-0.2,0.2l-0.1,0.1l-0.1,0l-0.1,0l-0.1,0l0,0.1l0,0.2l-0.1,0.3l0,0.2l0,0.1
		l0.1,0L43,49l0.2,0l0.2,0.2l0.1,0l0-0.2l0,0.1l0,0.1l0,0.1l-0.1,0l-0.1,0l-0.1-0.1l0-0.1l0,0l-0.2,0l-0.1,0.1l0,0.1l-0.1,0.2
		l-0.2,0.2l-0.1,0.1l0,0.1l0.1,0.1l0.1,0l0.2,0l0.1,0l0,0.1l0.1,0l0.1,0l0.3-0.2l0.1,0l0.1,0l0.2-0.2l0.1-0.1l0.1-0.3l0.1-1.5l0-0.2
		l-0.2-0.4l0-0.2l0-0.2l0.1-0.3l0.1-0.2l0-0.1l0.1-0.1l0.2,0l0.1,0l0-0.1l0-0.1l0,0l0.4-0.3l-0.1,0.2l-0.1,0.1l-0.1,0.1L44.4,46
		l0,0.2l-0.1,0.1l-0.1,0l-0.1,0.1l0.1,0.1l0,0.1l0,0.1l0,0.1l0,0.1l0,0.1l0,0l0,0.1l0,0l0.1,0.1l0,0l0,0l0,0.1l0,0.2l0,0.1l0.1,0.4
		l0,0.4l0,0.1l0,0.1l0.1,0.1l0.1,0.4l0.1,0.1l0.1,0l0.1,0l0.2,0l0,0l0.1,0.3l0,0.3l0,0.2L45,50.2l-0.2,0.2l-0.1,0.1L44.6,51l0,0.2
		l-0.1,0.2l0,0l-0.2,0.3L44,52.4l0,0.1l-0.1,0.3l0,0.2l0.1,0.1l-0.1,0.2l-0.1,0.2l0,0l0.1,0l0.6,0l0.1,0l0.3,0.1l0-0.1l0-0.1
		l0.1-0.1l0.4-0.5l0-0.1l0-0.2l0-0.2l0-0.1l0-0.2l0.1-0.2l1.6-1.7l0,0l0,0l0,0l0.1-0.1l0.2-0.2l0-0.1l0-0.1l-0.1-0.1l-0.1-0.2
		l-0.2,0.1l-0.2,0.1l-0.1,0l-0.1-0.1l0-0.1l0.4-0.4l0.2-0.2l0,0l0-0.1l0-0.1l0-0.1l0-0.1l0-0.2l0.1-0.1l0.1-0.1l0.2-0.2l0.1-0.1
		l0.1,0l0.9-0.2l0.1,0l0.2-0.1l0.2-0.1l0.1-0.1l0.1-0.1l0-0.1l0.1-0.2L49.6,46.7L49.6,46.7z"/>
	<path id="Esmeraldas" fill="#D96CAA" stroke="#F9F9FA" stroke-width="0.25" stroke-linecap="round" stroke-linejoin="round" d="
		M50.7,21.1l0.2,0.1l0.1-0.1l0.1-0.1l0.2,0.1l0.1-0.2l0-0.3l0-0.3l0-0.1l0-0.1l0-0.1l-0.6,0.5l-0.1,0.2l0,0.1L50.7,21.1z M54.9,26.1
		L54.8,26l-0.2-0.2l0-0.1l0-0.1l-0.1-0.2l0-0.1l-0.2-0.4l0-0.1l0,0l0.1,0l0.1,0l0.1,0l0.1,0l0.1,0l0.1-0.1l0-0.1l0-0.1l0-0.1l0-0.3
		l0,0l-0.1-0.1l-0.1-0.1l-0.1-0.1l-0.1,0l-0.1-0.1l0,0l-0.1-0.1l0-0.1l0-0.4l0-0.1l0.2-0.3l0-0.2l0-0.2l0-0.1l0-0.1l0-0.1l0.1-0.1
		l0,0l-0.1,0L54,21.4l-0.1,0l-0.1,0.1l0-0.1l-0.2-0.2l0-0.1l0-0.1l-0.1,0l-0.1,0l-0.1,0L53.1,21l-0.1-0.1l-0.1-0.2l-0.1-0.2
		l-0.1-0.1l-0.2-0.2L52.3,20l-0.4-0.3l0,0l0,0.1l0,0.1l0,0.1l0,0.1l-0.3,0.3l-0.1,0.1l0,0.1l0.1,0.1l0.1,0.1l0.2,0l0.1,0l0.1,0.1
		l-0.3-0.1l-0.1,0l-0.1,0.1l0,0.1l0,0.1l0,0.1l-0.1,0.1l-0.1,0l-0.1,0l0,0l0-0.1L51,21.3l-0.1,0.1l0,0.1l0,0.3l0,0.1L50.8,22
		l-0.1,0.1l0-0.2l-0.1-0.2l-0.1-0.2l-0.1-0.1l-0.2-0.1L50,21.4l-0.6,0.8l-0.1,0.1l-0.2,0l-0.2,0.1l-0.2,0l-0.2-0.1l-0.1,0l-0.1,0
		l-0.2,0l-0.1,0l-0.2,0.1l-0.1,0l-0.5,0l-0.2,0l-0.5,0.5l-0.4,0.2L45.9,23l-0.1,0.1l-0.1,0.1l0,0.1l0,0.2l0,0l0,0.1l0,0l0,0l0.1,0.1
		l0.1,0.3l-0.1-0.1l-0.1-0.2l-0.1-0.1l-0.1-0.1l-0.1-0.1l0-0.1l0.2-0.5l0-0.1l0-0.1l-0.2,0.1L45,23.2l-0.2,0.1l-0.1,0.1l-0.1,0.1
		l-0.1,0.1l-0.2,0.2l-0.1,0l-0.1,0l-0.1,0.1l-0.2,0L43.6,24l-0.1,0l-0.1,0l-0.1,0.1l-0.1,0l-0.2,0l-0.1,0l-0.1-0.1l-0.2,0.2
		l-0.2,0.3L42.2,25l0,0.3l0,0.1l0,0.1l0.1,0.1l0.1,0l0.1,0l0.1,0.1l0.1,0.1l0.1,0.2l0.1,0.1l0,0.2l0,0.2l-0.1,0.1l-0.1,0.1l-0.1,0.1
		l0,0.2l0,0.2l0.1,0.1l0.2,0.3l0.1,0.1l0,0.1l0,0.1l0,0.1l0,0.1l0,0l0.2,0.5l0.1,0.1l0.1,0l0.1,0l0.1,0l0,0l0,0l0,0l0,0l0,0l0,0l0,0
		l0,0l0-0.1l0-0.1l0-0.1l0,0l0,0l0,0l0,0l0,0l0.3,0l0.1,0l0.1,0l0.1,0l0,0l0.1-0.1l0.2-0.2l0,0l0,0l0.1,0l0.1,0l0,0l0,0l0,0l0.1,0.1
		l0.1,0.1l0,0l0,0l0,0l0,0l0,0l0,0L45.2,28l0,0l0,0l0,0l0,0l0,0l0,0l0,0l0,0l0,0l0.4,0.2l0,0l0,0l0,0l0,0l0,0l0,0l0,0l-0.1,0l0,0
		l0,0.1l0,0.1l-0.1,0.2l0,0l0,0l0,0l0.1,0.1l0,0l0,0l0,0l0,0l0,0l0,0l0,0l0,0l0,0l0,0.1l0,0l0,0l0,0l0,0l0,0l0.1,0l0,0l0,0l0,0
		l0.1,0.1l0.1,0.1l0.1,0l0,0l0.1,0l0,0l0,0l0,0l0,0l-0.2,0.2l0,0l0,0l0,0.1l0,0l0,0l0,0l0,0l0,0l0,0l0,0l0,0l0,0l0,0l0,0l0,0l0,0
		l0,0.1l0,0l0,0.1l0,0l0.1,0.2l0.2,0l0.2,0l0.5,0.1l0.2,0.1l0.1,0l0.1,0l0.1,0.1l0,0l0,0l0,0l0,0l0,0l0,0l0,0l0,0l0,0l0,0l0,0
		l-0.1-0.1l0,0l0,0l0.1,0l0.1,0l0.2,0l0.1,0l0.1-0.1l0-0.1l0.1-0.4l0.1-0.2l0.1-0.2l0.1-0.1l0,0l0,0l0,0l-0.1-0.1L48.1,29l-0.2-0.1
		l0,0l0-0.1l0-0.1l0.1,0l0.1-0.1l0.1-0.1l0.2-0.1l0.1,0l0.1,0l0.1,0l0.2-0.1l0.1,0l0.1,0l0.2,0l0.2,0l0.8,0.2l0.1,0l0,0l0.1,0.1
		l0.1,0l0,0l0,0l0-0.1L51,28l0.2-0.2l0.1,0l0,0l0,0l0,0l0,0l0-0.1l0.1-0.1l0.1-0.1l0.1-0.1l0.1,0l0.1,0l0.2,0.1l0.3,0l0.1,0l0.2,0
		l0.1,0l0.1,0l0.1,0l0.1,0l0.1,0.1l0.1,0l0,0l0.1,0l0,0l0.1-0.1l0.1-0.1l0.2-0.3l0.3-0.3l0.1-0.2l0.1-0.1l0.2-0.2l0.1,0l0.1,0l0.1,0
		l0.1,0l0.1,0l0.1,0l0.1,0l0-0.1l0-0.1L54.9,26.1z"/>
	
		<polygon id="El_Oro" fill-rule="evenodd" clip-rule="evenodd" fill="#D96CAA" stroke="#F9F9FA" stroke-width="0.25" stroke-linecap="round" stroke-linejoin="round" points="
		44.8,53.6 45.8,54.1 46,54.3 46.1,54.4 46.1,54.5 46.1,54.6 46.1,54.7 45.9,55.1 45.8,55.2 45.8,55.3 45.7,55.3 45.6,55.4 
		45.5,55.4 45.5,55.5 45.6,55.5 45.7,55.6 45.9,55.6 46.4,55.5 46.6,55.5 46.7,55.5 46.9,55.5 47.1,55.6 47.1,56 47.1,56.1 
		47.1,56.2 47.2,56.3 47.2,56.3 47.3,56.3 47.3,56.4 47.3,56.4 47.4,56.4 47.4,56.5 47.4,56.5 47.3,56.6 47.1,56.9 47,57 47,57 
		47,57.2 47,57.3 46.9,57.7 46.9,57.8 46.9,57.8 46.9,57.9 47,57.9 47,57.8 47.1,57.7 47.2,57.6 47.3,57.6 47.3,57.5 47.4,57.6 
		47.5,57.6 47.6,57.7 47.7,57.7 47.7,57.8 47.8,57.8 47.8,57.9 47.8,58 47.8,58.1 47.8,58.3 47.7,58.3 47.7,58.4 47.6,58.5 
		47.5,58.5 47.5,58.6 47.6,58.8 47.6,58.9 47.5,58.9 47.5,59 47.4,59.1 47.3,59.1 47.2,59.2 47.1,59.2 47,59.1 46.8,59.1 46.7,59.1 
		46.5,59.1 46.3,59.1 46.3,59.1 46.1,58.9 46.1,58.9 46,58.8 46,58.8 45.9,58.8 45.9,58.8 45.7,58.9 45.5,59 45.4,59.1 45.3,59.3 
		45.1,59.3 45,59.4 44.5,59.4 44.4,59.4 44.2,59.3 44.1,59.3 44,59.3 43.5,59.4 43.4,59.4 42.9,59.6 42.5,59.7 41.9,59.7 41.8,59.7 
		41.8,59.7 41.7,59.7 41.7,59.6 41.6,59.6 41.6,59.5 41.6,59.4 41.6,59.3 41.5,59.1 41.4,58.9 41.3,58.7 41.3,58.7 41.4,58.6 
		41.4,58.6 41.4,58.5 41.3,58.4 41.3,58.3 41.3,58.2 41.4,58.2 41.4,58 41.4,57.9 41.4,57.9 41.4,57.7 41.4,57.6 41.3,57.6 
		41.3,57.5 41.2,57.5 41.2,57.5 41.2,57.4 41.2,57.2 41.2,57 41.2,57 41.2,56.9 41.2,56.9 41,56.8 41,56.8 41,56.6 41,56.4 41,56.3 
		40.9,56.2 40.6,56.2 40.5,56.1 40.5,56.1 40.5,56.1 40.5,56 40.4,56 40.5,55.9 40.6,55.8 40.6,55.7 40.7,55.6 40.7,55.5 40.6,55.7 
		40.6,55.8 40.7,55.9 40.8,55.9 40.8,55.6 40.9,55.5 41.1,55.7 41.2,55.7 41.7,55.6 41.8,55.6 41.9,55.6 41.9,55.6 42,55.6 
		42.2,55.4 42.2,55.3 42.5,54.7 42.6,54.6 42.8,54.7 42.8,54.8 42.7,55.2 42.8,55.2 42.9,55.1 42.9,55 43,54.9 43,54.9 43.3,54.7 
		43.4,54.6 43.5,54.4 43.5,54.3 43.5,54 43.7,53.7 43.8,53.4 43.8,53.4 43.9,53.4 44.5,53.5 44.5,53.5 	"/>
	
		<polygon id="Cotopaxi" fill-rule="evenodd" clip-rule="evenodd" fill="#D96CAA" stroke="#F9F9FA" stroke-width="0.25" stroke-linecap="round" stroke-linejoin="round" points="
		52.8,35.4 52.8,35.4 53,35.3 53.1,35.3 53.2,35.2 53.2,35.2 53.3,35.2 53.3,35.1 53.4,35.1 53.5,35.1 53.6,35.1 53.6,35.2 
		53.6,35.2 53.7,35.2 53.9,35.1 54,35 54.1,35 54.3,35.1 54.4,35.1 54.6,35.1 55.1,35.7 55,35.9 55,35.9 55.1,36.2 55.2,36.5 
		55.2,36.6 55.1,36.8 55.1,36.9 55,37.1 54.9,37.2 54.9,37.2 54.9,37.3 54.9,37.4 54.9,37.5 54.8,37.5 54.8,37.5 54.8,37.6 
		54.8,37.6 54.8,37.7 55,37.7 55.1,37.8 54.9,37.9 54.9,38 54.8,38.1 54.8,38.2 54.8,38.2 54.8,38.4 54.7,38.5 54.7,38.6 54.6,38.6 
		54.4,38.7 54.3,38.6 54.2,38.6 54.2,38.5 54.1,38.5 54.1,38.5 54,38.5 53.9,38.5 53.8,38.6 53.8,38.6 53.8,38.7 53.8,38.8 
		53.8,38.8 53.7,38.8 53.5,38.9 53.4,38.9 53.2,39 53.1,39.1 53,39.1 52.8,39.1 52.4,39 52.3,39 52.2,39.1 52,39.1 51.8,39.3 
		51.6,39.4 51.3,39.3 51.3,39.3 51.1,39.4 50.9,39.6 50.8,39.6 50.6,39.6 50.4,39.6 50.3,39.5 50.1,39.3 50,39.3 50,39.2 49.9,39.2 
		49.8,39.2 49.7,39.2 49.5,39.2 49.3,39.3 48.8,39.5 48.4,39.6 48.4,39.3 48.2,39.1 48.1,38.9 48.1,38.8 48.2,38.6 48.3,38.1 
		48.2,37.9 48.3,37.8 48.3,37.7 48.4,37.4 48.4,37.3 48.5,37.2 48.6,37.1 48.7,37.1 48.9,36.7 48.9,36.6 49,36.6 49.1,36.5 
		49.1,36.5 49.2,36.4 49.3,36.2 49.8,35 49.9,34.7 50,34.8 50,34.9 50.1,34.9 50.1,34.9 50.2,34.9 50.3,34.9 50.3,34.8 50.4,34.8 
		50.4,34.7 50.4,34.6 50.5,34.6 50.5,34.6 50.6,34.5 50.6,34.5 50.6,34.5 50.6,34.4 50.6,34.4 50.5,34.3 50.5,34.2 50.4,34.2 
		50.3,34.2 50.3,34.1 50.3,34.1 50.3,34 50.4,33.9 50.5,33.7 50.5,33.7 50.6,33.6 50.6,33.6 50.7,33.6 50.8,33.5 50.8,33.5 
		50.8,33.4 50.8,33.4 50.8,33.3 50.9,33.3 50.9,33.2 50.9,33.2 51,33.2 51.1,33.2 51.1,33.1 51.1,33.1 51.1,33.1 51.2,33.2 
		51.2,33.2 51.2,33.3 51.3,33.3 51.5,33.7 51.7,33.9 51.7,34.1 51.8,34.1 51.8,34.3 51.8,34.4 51.9,34.5 52.4,34.8 52.6,35 
		52.6,35.2 52.6,35.3 52.7,35.4 52.7,35.4 	"/>
	
		<polygon id="Chimborazo" fill-rule="evenodd" clip-rule="evenodd" fill="#D96CAA" stroke="#F9F9FA" stroke-width="0.25" stroke-linecap="round" stroke-linejoin="round" points="
		53.4,41.7 53.6,41.7 53.7,41.7 53.9,41.6 54,41.6 54.1,41.7 54.2,41.7 54.3,41.6 54.3,41.4 54.4,41.4 54.5,41.4 54.6,41.4 
		54.8,41.5 54.8,41.6 55,41.6 55.1,41.6 55.2,41.7 55.3,41.7 55.3,41.7 55.3,41.8 55.4,41.9 55.4,42 55.4,42.1 55.3,42.2 55.3,42.3 
		55.4,42.5 55.4,42.6 55.4,42.7 55.4,42.7 55.3,42.8 55.3,42.8 55.1,42.9 55,43 55,43.1 54.9,43.1 54.8,43.2 54.8,43.2 54.8,43.3 
		54.7,43.4 54.7,43.4 54.7,43.6 54.7,43.7 54.7,43.8 54.8,43.9 54.8,44 54.9,44 54.9,44.1 54.9,44.2 55,44.5 54.9,44.6 54.6,44.9 
		54.4,45.2 54.4,45.3 54.4,45.4 54.4,45.5 54.5,45.5 54.5,45.5 54.6,45.6 54.6,45.7 54.6,45.9 54.7,46 54.7,46.1 54.7,46.2 
		54.6,46.3 54.5,46.3 54.4,46.4 54.3,46.5 54.3,46.7 54.3,47 54.3,47.1 54.3,47.1 54.3,47.2 54.3,47.2 54.2,47.3 54.1,47.4 
		54.1,47.5 54.1,47.6 54,47.7 54,47.7 53.7,47.9 53.6,47.8 52.6,48 52.3,48 52.2,48.1 52,48.3 51.9,48.4 51.6,48.5 51.4,48.6 
		51.1,48.6 51,48.6 50.9,48.5 50.7,48.4 50.6,48.3 50.5,48.3 50.3,48.2 50.1,47.8 50,47.8 50,47.7 49.9,47.7 49.9,47.6 49.8,47.5 
		49.8,47.5 49.8,47.5 49.7,47.4 49.7,47.4 49.6,47.3 49.6,47.3 49.6,47.1 50,46.9 50.3,46.6 50.4,46.4 50.4,46.3 50.4,46.2 
		50.4,46.2 50.4,46.1 50.4,46 50.4,45.9 50.6,44.9 50.6,44.9 50.5,44.7 50.5,44.5 50.5,44.1 50.5,44 50.5,43.9 50.6,43.9 50.7,43.8 
		50.7,43.8 51,43.7 51.1,43.7 51.4,43.5 51.5,43.2 51.6,43 51.6,42.8 51.6,42.6 51.6,42.4 51.7,42.2 51.7,42.1 51.6,42 51.5,41.8 
		51.5,41.7 51.5,41.7 51.5,41.5 51.6,41.4 51.9,41.3 52,41.2 52.1,41.2 52.2,41.3 52.3,41.3 52.5,41.5 52.6,41.6 52.8,41.6 
		53.2,41.7 	"/>
	
		<polygon id="Carchi" fill-rule="evenodd" clip-rule="evenodd" fill="#D96CAA" stroke="#F9F9FA" stroke-width="0.25" stroke-linecap="round" stroke-linejoin="round" points="
		58.6,23.9 58.7,23.9 58.7,23.9 58.8,24 58.8,24.1 58.8,24.2 58.8,24.2 58.9,24.3 59.1,24.4 59.2,24.4 59.4,24.4 59.5,24.4 
		60.1,24.2 60.3,24.2 60.5,24.3 60.6,24.9 60.8,25.1 61.2,25.5 61.5,25.6 61.7,25.5 61.7,25.6 61.4,25.8 61.3,25.8 61.2,25.7 
		61.1,25.7 60.9,25.7 60.9,25.7 60.7,25.7 60.7,25.7 60.6,25.7 60.6,25.7 60.6,25.7 60.6,25.7 60.5,25.8 60.5,25.9 60.6,25.9 
		60.6,26 60.7,26 60.7,26 60.7,26.1 60.7,26.1 60.7,26.2 60.6,26.2 60.4,26.4 60.3,26.5 59.8,27.1 59.7,27.2 59.7,27.3 59.7,27.5 
		59.7,27.5 59.7,27.6 59.7,27.7 59.5,27.9 59.3,27.8 59.2,27.7 59.1,27.6 58.7,27.4 58.4,27.2 58.1,27 57.8,26.9 57.7,26.9 
		57.5,26.9 57.4,26.8 57.4,26.8 57.1,26.7 57,26.6 57,26.5 57,26.3 57,26.1 57,26 56.8,25.6 56.5,25.2 56.3,24.9 56.1,24.7 
		55.9,24.5 55.6,24.3 55.4,24.1 55.4,24.1 55.3,24.1 55,24 54.9,24 54.8,23.9 54.7,23.9 54.6,23.8 54.5,23.7 54.3,23.6 54.3,23.6 
		54.2,23.6 54.1,23.5 54.1,23.4 54.1,23.3 54.1,22.8 54.1,22.7 54.3,22.4 54.4,22.2 54.4,22 54.3,21.9 54.3,21.8 54.4,21.7 
		54.5,21.6 54.5,21.6 54.6,21.6 55.3,22.4 55.5,22.6 55.6,22.6 56,22.8 56.2,22.8 57.2,23.6 57.5,23.7 58,23.8 58.5,23.9 	"/>
	
		<polygon id="Cañar" fill-rule="evenodd" clip-rule="evenodd" fill="#D96CAA" stroke="#F9F9FA" stroke-width="0.25" stroke-linecap="round" stroke-linejoin="round" points="
		51.1,48.6 51.4,48.6 51.6,48.5 51.9,48.4 52,48.3 52.2,48.1 52.3,48 52.6,48 53.6,47.8 53.7,47.9 53.7,48 53.8,48.1 54.3,48.3 
		54.4,48.3 54.5,48.4 54.4,48.5 54.4,48.6 54.4,49 54.4,49.2 54.4,49.2 54.4,49.3 54.4,49.4 54.4,49.4 54.2,49.7 54.1,49.8 
		54.1,49.8 54.1,49.8 54,49.8 54,49.8 54,49.8 53.8,49.8 53.6,50 53.5,50.1 53.5,50.1 53.4,50.2 53.4,50.3 53.3,50.4 53.2,50.4 
		53,50.5 52.9,50.5 52.8,50.7 52.7,50.7 52.6,50.8 52.6,50.8 52.4,50.7 52.3,50.7 52.2,50.8 52.2,50.8 52.1,50.9 52.1,51 52.1,51.1 
		52.2,51.1 52.2,51.2 52.1,51.2 52.1,51.3 52,51.5 51.9,51.5 51.9,51.6 52,51.7 51.9,51.8 51.9,51.8 51.9,51.8 51.8,51.7 51.7,51.8 
		51.7,51.8 51.6,51.8 51.5,51.8 51.2,51.8 51.1,51.7 51,51.6 51,51.5 51,51.4 50.9,51.3 50.8,51.1 50.6,51 50.4,50.8 50.3,50.7 
		50.2,50.6 50.1,50.5 50,50.5 50,50.5 49.9,50.5 49.9,50.6 49.9,50.6 49.8,50.7 49.8,50.7 49.6,50.8 49.6,50.8 49.5,50.9 49.5,50.9 
		49.5,51 49.5,51.1 49.4,51.1 49.3,51.1 49.2,51 48.6,50.3 48.5,50.2 48.4,50.1 48.4,50.1 48.3,50 48.2,49.9 48,49.9 47.9,49.9 
		47.9,49.8 47.7,49.5 47.6,49.4 47.5,49.3 47.3,49.3 47.1,49.4 46.9,49.5 46.8,49.4 46.7,49.4 46.7,49.3 47.1,48.9 47.4,48.7 
		47.4,48.7 47.3,48.6 47.3,48.6 47.3,48.5 47.4,48.5 47.4,48.3 47.4,48.2 47.5,48.1 47.7,47.9 47.8,47.9 47.9,47.8 48.8,47.7 
		48.9,47.6 49.1,47.6 49.3,47.5 49.4,47.4 49.5,47.3 49.5,47.3 49.6,47.1 49.6,47.3 49.6,47.3 49.7,47.4 49.7,47.4 49.8,47.5 
		49.8,47.5 49.8,47.5 49.9,47.6 49.9,47.7 50,47.7 50,47.8 50.1,47.8 50.3,48.2 50.5,48.3 50.6,48.3 50.7,48.4 50.9,48.5 51,48.6 	
		"/>
	
		<polygon id="Bolivar" fill-rule="evenodd" clip-rule="evenodd" fill="#D96CAA" stroke="#F9F9FA" stroke-width="0.25" stroke-linecap="round" stroke-linejoin="round" points="
		50.6,39.6 50.8,39.6 50.9,39.6 51.1,39.4 51.3,39.3 51.3,39.3 51.6,39.4 51.4,39.7 51.4,39.8 51.4,40.1 51.3,40.2 51.2,40.4 
		51.2,40.5 51.1,40.9 51.1,41 51.3,41.3 51.4,41.4 51.5,41.5 51.5,41.7 51.5,41.7 51.5,41.8 51.6,42 51.7,42.1 51.7,42.2 51.6,42.4 
		51.6,42.6 51.6,42.8 51.6,43 51.5,43.2 51.4,43.5 51.1,43.7 51,43.7 50.7,43.8 50.7,43.8 50.6,43.9 50.5,43.9 50.5,44 50.5,44.1 
		50.5,44.5 50.5,44.7 50.6,44.9 50.6,44.9 50.4,45.9 50.4,46 50.4,46.1 50.4,46.2 50.4,46.2 50.4,46.3 50.4,46.4 50.3,46.6 50,46.9 
		49.6,47.1 49.6,46.8 49.6,46.7 49.5,46.7 49.4,46.7 49.4,46.7 49.3,46.8 49.3,46.8 49.2,46.8 49.1,46.8 48.8,46.7 48.9,46.5 
		49,46.2 49,46.1 49,46.1 49,45.9 48.7,45.5 48.5,45.2 48.5,45.2 48.5,45.1 48.6,45 48.6,45 48.7,44.5 48.8,44.3 48.8,44.2 
		48.8,44.1 48.7,44.1 48.7,44 48.7,43.9 48.7,43.8 48.7,43.6 48.7,43.6 48.4,43.2 48.4,43.1 48.3,43 48.3,43 48.2,43 48.2,43 
		48.1,42.9 48.1,42.9 48,42.9 48,42.9 48,42.8 48,42.8 48,42.8 48.1,42.7 48.1,42.7 48.4,42.4 48.4,42.4 48.4,42.4 48.5,42.5 
		48.5,42.5 48.6,42.4 48.6,42.4 48.6,42.3 48.7,42.2 48.7,42.1 48.6,42 48.6,41.9 48.3,41.8 48.2,41.7 48.2,41.6 48.1,41.4 
		48.1,40.8 48.2,40.7 48.2,40.7 48.2,40.7 48.3,40.7 48.3,40.7 48.3,40.6 48.4,40.6 48.4,40.6 48.1,40.4 48.1,40.3 48,40.2 48,40.2 
		47.9,40.3 47.8,40.4 47.8,40.5 47.7,40.5 47.7,40.5 47.6,40.4 47.7,40.3 47.8,40.2 48,39.9 48.1,39.7 48.4,39.6 48.8,39.5 
		49.3,39.3 49.5,39.2 49.7,39.2 49.8,39.2 49.9,39.2 50,39.2 50,39.3 50.1,39.3 50.3,39.5 50.4,39.6 	"/>
	
		<polygon id="Azuay" fill-rule="evenodd" clip-rule="evenodd" fill="#D96CAA" stroke="#F9F9FA" stroke-width="0.25" stroke-linecap="round" stroke-linejoin="round" points="
		49.4,51.1 49.5,51.1 49.5,51 49.5,50.9 49.5,50.9 49.6,50.8 49.6,50.8 49.8,50.7 49.8,50.7 49.9,50.6 49.9,50.6 49.9,50.5 50,50.5 
		50,50.5 50.1,50.5 50.2,50.6 50.3,50.7 50.4,50.8 50.6,51 50.8,51.1 50.9,51.3 51,51.4 51,51.5 51,51.6 51.1,51.7 51.2,51.8 
		51.5,51.8 51.6,51.8 51.7,51.8 51.7,51.8 51.8,51.7 51.9,51.8 51.9,51.8 51.9,51.8 52,51.7 51.9,51.6 51.9,51.5 52,51.5 52.1,51.3 
		52.1,51.2 52.2,51.2 52.2,51.1 52.1,51.1 52.1,51 52.1,50.9 52.2,50.8 52.2,50.8 52.3,50.7 52.4,50.7 52.6,50.8 52.6,50.8 
		52.7,50.7 52.8,50.7 52.9,50.5 53,50.5 53.2,50.4 53.3,50.4 53.4,50.3 53.4,50.2 53.5,50.1 53.5,50.1 53.6,50 53.8,49.8 54,49.8 
		53.9,50 53.9,50.1 53.9,50.2 54,50.2 54.1,50.3 54.1,50.3 54.2,50.2 54.2,50.1 54.2,50.1 54.2,50 54.3,49.9 54.4,49.9 54.5,49.8 
		54.5,49.8 54.6,49.9 54.8,50 54.9,50.1 54.9,50.2 54.9,50.2 54.9,50.3 54.9,50.4 54.8,50.4 54,50.9 53.9,50.9 53.8,51 53.6,51.4 
		53.6,51.5 53.6,51.5 53.6,51.6 53.7,51.7 53.8,51.7 53.8,51.8 53.8,51.9 53.7,52 53.4,52.6 53.3,52.7 53.3,52.8 53.1,53.2 
		53.1,53.3 53.1,53.4 53.1,53.5 53.1,53.6 53,53.8 52.8,54 52.6,54.1 52.4,54.3 52.1,54.4 52,54.5 51,55.3 51,55.3 51,55.4 51,55.5 
		50.9,55.7 50.4,55.9 50.3,56 50.2,56.1 50.1,56.2 50.1,56.3 50.1,56.3 50.1,56.4 50.1,56.5 50.2,56.6 50.2,56.6 50.2,56.7 
		50.2,56.8 50.1,56.9 50.1,57 50.2,57.3 50.1,57.7 50.1,57.8 50,57.8 50,57.9 49.9,57.9 49.8,57.9 49.7,57.7 49.6,57.5 49.6,57.3 
		49.6,57.1 49.3,56.8 49.3,56.6 49.2,56.5 49.2,56.4 49.1,56.4 48.9,56.5 48.8,56.6 48.6,56.6 48.4,56.5 48.4,56.4 48.3,56.3 
		48.3,56.1 48.3,56 48.3,55.9 48.2,55.8 48.2,55.7 48.1,55.7 48,55.7 47.8,55.7 47.5,55.7 47.3,55.6 47.1,55.6 46.9,55.5 46.7,55.5 
		46.6,55.5 46.4,55.5 45.9,55.6 45.7,55.6 45.6,55.5 45.5,55.5 45.5,55.4 45.6,55.4 45.7,55.3 45.8,55.3 45.8,55.2 45.9,55.1 
		46.1,54.7 46.1,54.6 46.1,54.5 46.1,54.4 46,54.3 45.8,54.1 44.8,53.6 44.8,53.4 44.9,53.4 44.9,53.3 45.3,52.8 45.3,52.7 
		45.3,52.5 45.3,52.3 45.3,52.2 45.3,52 45.4,51.8 47,50.1 47,50 47.1,50 47.1,50 47.2,49.9 47.4,49.7 47.4,49.7 47.4,49.6 
		47.4,49.5 47.3,49.3 47.5,49.3 47.6,49.4 47.7,49.5 47.9,49.8 47.9,49.9 48,49.9 48.2,49.9 48.3,50 48.4,50.1 48.4,50.1 48.5,50.2 
		48.6,50.3 49.2,51 49.3,51.1 	"/>
</g>
<path id="Galápagos" fill="#D96CAA" d="M30.4,51.9L30.4,51.9L30.2,52l-0.1,0L30,52l-0.1,0L29.7,52l-0.1,0l-0.1,0.1l-0.3,0.1l-0.1,0
	l0,0.1l-0.2,0.2l-0.1,0.1l-0.1,0.3l-0.1,0.1L28.3,53l-0.1,0l-0.1,0.3L28,53.4l-0.3,0.1l-0.1,0.1l-0.1,0.1l0,0.1l0,0.1l0.1,0l0.3,0
	l0.1,0l0.2,0.1l0.1,0l0.1,0l0.2-0.1l0.1,0l0.3,0l0.1,0l0.1,0l0.1-0.1l0.1-0.1l0.2-0.2l0.1-0.2l0-0.1l0,0l0.3-0.1l0.2-0.2l0.2-0.3
	l0.1-0.3L30.4,51.9z M18.7,42.3l0.1-0.2l-0.1-0.4l-0.3-0.2l-0.1,0.1l0.1,0.3l-0.1,0.2L18.7,42.3z M20.5,44.3L20.5,44.3l0.2,0.1
	l0.1,0l0.1,0.1l0.1,0l0.2,0l0.2-0.1l0.1-0.1l0.1-0.1L21.4,44l-0.2-0.1l-0.2-0.1l-0.2-0.1l-0.2,0l-0.2,0.1L20.4,44l0,0.2L20.5,44.3
	L20.5,44.3z M13.1,50.4l0.5-0.2l0.1,0v-0.7l0-0.3l0-0.2l-0.1-0.1l-0.1,0l-0.3-0.3l-0.1-0.1l-0.1,0L13,48.6l-0.4,0.1l-0.3,0.1l-0.7,0
	l0,0.1l0.1,0.3l0.1,0.4l0.1,0.2l0.1,0.2l0.1,0.1l0,0l0,0l0,0l0,0l0,0l0.1,0l0,0l0.2,0.1l0.1,0l0.2,0.1l0.1,0l0.1,0L13.1,50.4z
	 M27.5,57.1l-0.2-0.1l-0.1,0l-0.4,0l-0.1,0l-0.2,0.2l0.6,0.3l0.3,0l0.2-0.1l0-0.2L27.5,57.1z M23.1,50.8l-0.2,0l-0.1,0l-0.1,0l0-0.1
	l0-0.1l0-0.1l0,0l0,0l0,0l0,0l-0.2,0.1l-0.7,0.1l-0.1,0l-0.1,0.1l-0.1,0l-0.1,0l-0.2,0l-0.1,0l-0.1,0l-0.2,0.1l-0.1,0.1l-0.1,0.1
	l-0.1,0.2l-0.1,0.2l0,0.2l0,0.4l0,0.1l0.1,0.1l0.1,0.1l0.1,0l0.1,0l0.1,0.1l0.2,0.2l0.1,0.1l0,0l0,0l0.1,0l0.2,0l0.3,0.1l0.1,0
	l0.1,0l0.1-0.1l0-0.2l0,0l0.4,0l0,0l0.1-0.1l0.1-0.1l0.1-0.1L23,52l0.1-0.1l0,0l0.1-0.2l0,0l0-0.1l0-0.1l0-0.1l0.1-0.3l0-0.2
	L23.1,50.8L23.1,50.8z M21.7,56.5L21.7,56.5L21.7,56.5l-0.1-0.1l-0.2-0.1l-0.2,0l-0.2,0L21,56.1l-0.1,0l-0.1,0.1l-0.1,0.2l0,0.1
	l-0.1,0.1l-0.1,0.1l0.2,0.1l0.1,0.1l0.1,0.1l0.3,0l0.1,0l0.3-0.2l0,0l0,0l0-0.1l0,0l0,0l0.1,0l0,0l0,0l0,0l0,0L21.7,56.5L21.7,56.5
	L21.7,56.5z M18.4,52.4L18.4,52.4l-0.1,0L18,52l-0.1,0l0.1-0.1l-0.1-0.1l-0.1-0.1l-0.1,0l-0.1,0l0-0.2l-0.2-0.1l-0.3-0.1l0-0.1
	l0-0.1L17.1,51l-0.2,0.1L17,51l0.2-0.2l0-0.1l0-0.3l-0.1-0.3l0,0l0,0l0,0l0,0l-0.1,0l0,0l-0.1-0.1l0-0.1l0-0.1l-0.1-0.1L16,49l0,0
	l-0.1,0l-0.1,0l0-0.1l0-0.1l0,0l0,0l-0.3-0.3l-0.1-0.1l-0.1-0.9l0-0.4l0-0.2l-0.1-0.1l-0.1,0l-0.1,0l-0.2,0l-0.1,0l-0.1-0.1l0,0
	l-0.1-0.1L14.5,46l-0.1-0.1l0-0.1l0-0.2l-0.1-0.2l-0.1-0.1l-0.1,0l-0.1,0l-0.1,0l-0.1,0.1l0,0.1l-0.1,0.1l-0.3,0.1l-0.1,0.1l-0.2,0
	L13,45.8l-0.1,0.3l-0.1,0.2l-0.5,0.3l-0.1,0l0,0l0,0.1l0,0.1l0.2,0.2l0.2,0.1l0.1,0l0.3-0.2l0.3-0.1l0.2,0l0.2,0.1l0.1,0.3l0,0.1
	l0,0.1l0,0.1v0.3l0,0.1l0.1,0.1l0.1,0.2l-0.2,0.1l0,0.2l0.1,0.2l0.2,0.1l0,0.2l0.2,0.2l0.5,0.3l0.1,0.1l0,0l0,0l0.1,0l0.1,0l0.1,0.1
	l0,0.1l0,0.2l0.1,0.3l0.1,0.3l0.2,0.2l0.2,0.2l0.1,0l0.2,0.1l0.1,0l0.1,0.1l0.1,0.1l0,0.1l-0.1,0.1l-0.1,0l-0.1,0.1l-0.1,0.2l0,0.1
	l0,0l-0.1,0.1l0,0l-0.1,0l-0.1,0l-0.1,0l0,0l0,0l0,0l-0.1,0l-0.1,0l-0.3,0.1l-0.2,0.1l-0.1,0l0,0V52l0,0.1l-0.9,0.6l-0.2,0.2
	L13,53.3l-0.1,0.4l0.2,0.3l0.1,0l0.1,0l0.1,0l0,0.1l0,0.2l0,0.1l0,0.1l0.1,0.1l0.2,0.1l0.9,0l0.7,0.1l0.1,0l0.2,0l0.9-0.3l0.3-0.2
	l0.1,0l0.2,0l0.1,0l0.1,0.1l0.1-0.1l0.2-0.2l0.1-0.1l0.2,0.1l0-0.1l0-0.2l0.2-0.8l0.1,0l0.2-0.1l0,0L18.4,52.4L18.4,52.4z
	 M20.3,48.8L20.3,48.8L20.3,48.8l-0.2-0.2l-0.4-0.5l-0.3-0.1l-0.2,0l-0.5-0.2l-0.2-0.1l0,0l0,0l-0.1,0l-0.1,0l-0.1,0.1L18.1,48
	l0,0.1l0,0.1l-0.3,0.5l0.2,0l0.1,0.2l0.1,0.2l0.1,0.1l0.2-0.1l0.1,0l0.1,0.1l0.2,0h0.5l0.3,0.1l0.2,0l0.1,0l0.1-0.2l0.2-0.3
	L20.3,48.8L20.3,48.8L20.3,48.8z"/>
<g>
	<rect x="-22.4" y="90.2" fill="none" width="128.6" height="38.1"/>
	<text transform="matrix(1 0 0 1 17.6855 99.4734)" fill="#818281" font-family="'ArialMT'" font-size="13px">Ecuador</text>
</g>
<rect x="10.7" y="40.1" fill="none" stroke="#545554" stroke-width="0.15" width="21.6" height="20"/>
</svg>
