<?xml version="1.0" encoding="utf-8"?>
<!-- Generator: Adobe Illustrator 23.0.1, SVG Export Plug-In . SVG Version: 6.00 Build 0)  -->
<svg version="1.0" id="Countries" xmlns="http://www.w3.org/2000/svg" xmlns:xlink="http://www.w3.org/1999/xlink" x="0px" y="0px"
	 viewBox="0 0 87 130" enable-background="new 0 0 87 130" xml:space="preserve">
<circle fill="#DAF1F9" stroke="#FFFFFF" stroke-width="0.25" cx="43.9" cy="44.8" r="39"/>
<g id="Belize">
	<path id="Minor_Islands_2_" fill="#8D90C7" d="M47.7,55.2L47.7,55.2l0,0.2l0.1,0.1L47.7,55.2L47.7,55.2z M49.6,50.3l0,0.1l0.1-0.3
		l0-0.3L49.5,50L49.6,50.3z M48.1,35.2l-0.1,0l0,0.2l0.1,0.1l0.1,0.1l0.1-0.3l0-0.1L48.1,35.2z M47.7,34.1l-0.1,0.1l-0.1,0.3l0,0.2
		l0.1-0.1l0.1-0.2l0-0.1L47.7,34.1z M49.1,51.7l0.1,0.1l0,0.1l0,0l-0.1-0.3L49.1,51.7z M49.5,50.5l0,0.1l0.1-0.2L49.5,50.5
		L49.5,50.5z M49.4,50.4L49.4,50.4l0.1,0.1l-0.1-0.4L49.4,50.4z M47.4,34.7L47.4,34.7l0,0.1l0,0.2l0,0.1l0,0l0,0l0.1-0.1l0-0.1
		l-0.1-0.1L47.4,34.7z M44.3,67.3L44.3,67.3L44.3,67.3L44.3,67.3L44.3,67.3L44.3,67.3L44.3,67.3L44.3,67.3L44.3,67.3z M36,66.4
		L36,66.4l-0.2,0.1l0,0.1l-0.1,0.1l0.1,0.1l0.1,0.1l0.1-0.1l0-0.1l0.1-0.1L36,66.4L36,66.4z M50.9,23.2l-0.1,0.4l0.2-0.4L50.9,23.2z
		 M45.8,68.5L45.8,68.5L45.8,68.5L45.8,68.5L45.8,68.5z M47.3,65.9L47.3,65.9L47.3,65.9L47.3,65.9z M45.1,58.8L45,59l0,0l0.1,0
		l0.2,0l-0.1-0.1L45.1,58.8z M62.5,43.3L62.5,43.3l0.1,0L62.5,43.3L62.5,43.3z M56.1,54l0.2-0.1l0.1-0.2l-0.2,0.1L56.1,54z
		 M51.1,28.9L51,29l-0.1,0.2l0,0.3l0,0.2l0.1,0.1l0,0.2l-0.1,0.1l-0.1,0l-0.1,0.2l0,0.1L51,30L51,29.6l0-0.4L51.1,28.9z M50.8,47.4
		l0.1,0.1l0.1,0L50.8,47.4L50.8,47.4z M60.9,43.4l0,0.4l0.1-0.3l0.2-0.3l0-0.1L61.1,43L60.9,43.4z M50.9,45.5l0-0.1l-0.4,0l-0.1,0.4
		l0.2-0.1l0.2,0l0.1,0L50.9,45.5z M63,36.9l-0.2,0L62.6,37l0,0.1l0.3,0.2l0.1-0.1l0.1-0.2L63,36.9z M50.2,38.2L50,38.4l0,0.2
		l0.2,0.2l0.2-0.2L50.2,38.2z M50.7,31.2v-0.4l-0.1,0.4l0,0.4L50.7,31.2z M50.4,27.5l0.2-0.1l-0.2,0l-0.3,0l0.1,0.2L50.4,27.5z
		 M49.7,40.6l-0.1,0.2l0,0.4l0.1,0.2l0,0l0.1-0.2l0.1-0.4L49.7,40.6L49.7,40.6z M50.6,60.8L50.6,60.8L50.6,60.8L50.6,60.8z
		 M50.2,48.1L50.2,48.1l0.3-0.1l-0.2,0L50.2,48.1z M49.5,43.1v0.2l0.1,0l0,0l0.1-0.1l0.1-0.2l-0.2-0.1L49.5,43.1z"/>
	<polygon id="Toledo_2_" fill-rule="evenodd" clip-rule="evenodd" fill="#8D90C7" stroke="#FFFFFF" stroke-width="0.25" points="
		40.1,59 40.2,59 40.3,59 41.2,59.1 41.3,59.1 41.5,59.1 41.6,59.1 41.7,59.1 42.2,59 42.4,59.1 42.5,59.1 42.6,59.3 42.8,59.4 
		42.8,59.4 42.9,59.5 42.5,59.9 42,60.8 41.6,61 41.6,61.1 41.5,61.7 41.5,61.8 41.4,61.9 41.3,61.9 41.2,61.8 41.2,61.8 41.1,61.9 
		41,61.9 41,62 40.9,62.1 40.6,62.8 40.5,62.9 40.4,63 39.8,63.8 39.7,63.9 39.6,64.2 39.6,64.3 39.5,64.4 39.6,64.6 39.6,64.7 
		39.5,64.7 39.3,64.7 39.2,64.7 39.1,64.7 38.9,64.8 38.8,64.9 38.7,64.9 38.6,65.3 38.6,64.3 38.5,64.3 38.3,64.9 38,64.9 
		37.7,64.7 37.6,64.4 37.5,64.3 37.3,64.3 37.1,64.3 37,64.3 37,64.4 37,64.8 36.9,65 36.8,65.1 36,65.2 35.9,65.2 35.8,65.4 
		35.6,65.5 35.3,65.5 35,65.6 34.9,66 35,66.9 34.9,67.4 34.7,67.8 34.3,68 34,68.1 33.8,68.1 33.7,68.3 33.6,68.4 33.5,68.9 
		33.4,69 33.2,69.1 33,69.2 32.7,69.4 32.6,69.5 32.5,69.7 32.4,69.9 32.5,70.2 32.4,70.4 31.8,70.5 31.4,70.8 31.1,71.1 30.8,71.4 
		30.7,72 31.2,73 31.1,73.5 30.3,73.9 28.3,73.3 27.6,73.3 26.9,73.5 25.2,73.4 24.8,73.5 24.6,73.6 24.3,73.6 24.1,73.8 24.1,73.8 
		23.9,73.5 23.9,73.2 23.9,72.1 24.5,66.7 24.9,61.8 25.1,61.4 25.2,61.3 25.3,61.2 25.5,61 25.6,60.9 25.6,60.8 25.6,60.7 
		25.6,60.6 25.7,60.5 25.8,60.4 25.9,60.3 26.7,60 27,60 27.1,60 27.2,59.9 27.6,59.9 27.7,59.8 27.9,59.7 28.4,59.2 28.5,59 
		28.6,59 28.7,59 28.8,59.1 28.8,59.2 29,59.3 29.1,59.4 29.1,59.4 29.3,59.3 30.2,59 30.2,58.9 30.2,58.7 30.2,58.7 30.3,58.5 
		30.4,58.4 30.5,58.3 30.8,58.2 30.9,58.2 31,58.2 31.2,58.2 31.4,58 32,57.6 32.1,57.5 32.3,57.4 32.4,57.4 32.8,57.1 33.2,56.6 
		33.3,56.4 33.3,56.3 33.2,55.9 33.2,55.8 33.3,55.7 33.5,55.4 33.6,55.2 33.7,55.2 33.9,55.1 34.2,55.1 34.9,54.8 36.6,54.8 
		37.1,54.9 37.4,54.9 38.2,55.4 38.3,55.5 38.4,55.6 38.4,55.8 38.5,55.9 38.5,56 38.5,56.1 38.4,56.3 38.4,56.4 38.5,56.5 
		38.8,56.8 38.8,57 38.9,57.1 39,57.1 39,57.2 39.1,57.3 39.1,57.4 39.2,57.6 39.3,57.7 39.3,57.8 39.3,57.9 39.2,58 39.2,58.4 
		39.2,58.5 39.2,58.6 39.1,58.7 39.1,58.8 39.1,58.9 39.2,58.9 	"/>
	
		<polygon id="Stann_Creek_2_" fill-rule="evenodd" clip-rule="evenodd" fill="#8D90C7" stroke="#FFFFFF" stroke-width="0.25" points="
		42.8,59.4 42.6,59.3 42.5,59.1 42.4,59.1 42.2,59 41.7,59.1 41.6,59.1 41.5,59.1 41.3,59.1 41.2,59.1 40.3,59 40.2,59 40.1,59 
		39.2,58.9 39.1,58.9 39.1,58.8 39.1,58.7 39.2,58.6 39.2,58.5 39.2,58.4 39.2,58 39.3,57.9 39.3,57.8 39.3,57.7 39.2,57.6 
		39.1,57.4 39.1,57.3 39,57.2 39,57.1 38.9,57.1 38.8,57 38.8,56.8 38.5,56.5 38.4,56.4 38.4,56.3 38.5,56.1 38.5,56 38.5,55.9 
		38.4,55.8 38.4,55.6 38.3,55.5 38.2,55.4 37.4,54.9 37.1,54.9 36.6,54.8 34.9,54.8 34.2,55.1 34.2,54.8 34.2,54.7 34.3,54.2 
		34.5,53.7 34.7,53.4 35.3,52.4 35.4,52.3 35.5,52.2 35.9,52.1 36.3,52 36.4,52 36.5,51.9 36.5,51.9 36.4,51.8 36.1,51.6 36.1,51.5 
		36.1,51.4 36.3,51.3 36.5,51.2 36.6,51.1 36.6,51 36.7,50.9 36.7,50.8 36.6,50.5 36.6,50.4 36.7,50.1 36.7,49.9 36.7,49.8 
		36.7,49.7 36.7,49.6 37.4,48.9 37.6,48.6 37.7,48.5 37.9,48.3 38.1,48.1 38.2,47.8 38.3,47.5 38.6,47 38.6,46.9 38.8,46.8 
		38.9,46.7 38.9,46.5 38.7,46.3 38.4,46 38.1,45.5 38,45.3 38.1,45.1 44,45 44.2,44.9 44.3,44.8 44.8,44.7 45.1,44.3 45.1,44.6 
		45.2,45.1 45.3,45.4 45.5,45.5 46,45.7 46.3,46 46.5,46.5 46.6,47 46.6,47.7 46.8,48.3 46.7,48.6 46.6,48.7 46.4,48.7 46.1,48.7 
		45.9,49 45.6,49.3 45.3,49.7 45.2,50.1 45.3,50.5 45.8,51.2 45.8,51.6 45.9,51.6 46,51.7 46,51.8 46,51.9 45.9,52 45.6,51.9 
		45.5,51.9 45.2,52.2 45.1,52.3 45.1,52.5 45,52.6 44.9,52.8 44.8,52.9 44.8,53.2 44.8,53.4 44.9,53.8 44.9,54 44.7,55.7 44.6,56 
		44.4,56.2 44.2,56.5 43.9,57.4 43.8,57.7 43.7,58.1 43.8,58.7 43.8,58.9 43.6,59.2 43.4,59.2 43.4,58.8 44.1,56.1 44.5,55.7 
		44.6,55.5 44,55.8 43.4,57.3 42.9,57.9 43.1,57.9 43.4,58.1 43.2,58.2 43.1,58.2 43,58.2 42.8,58.1 42.8,58.3 42.9,58.4 43,58.4 
		43.2,58.4 43.2,58.6 43,58.7 42.8,59 42.8,59.2 	"/>
	
		<polygon id="Orange_Walk_2_" fill-rule="evenodd" clip-rule="evenodd" fill="#8D90C7" stroke="#FFFFFF" stroke-width="0.25" points="
		45.2,24.6 40.2,25.9 39,26.6 38.9,27 38.9,27.2 38.8,27.4 38.9,27.6 38.9,27.9 39,28 38.9,28.4 38.8,29 38.8,29.1 38.8,29.2 
		38.9,29.7 38.9,29.9 38.8,30.4 38.8,30.6 38.9,30.9 39,31 38.9,31.2 38.8,31.3 38.7,31.4 38.4,31.5 37.8,31.8 37.5,32.2 37.2,33 
		37.2,33.4 37.5,36.8 37.2,36.7 37,36.8 36.5,37 36.3,37.1 35.9,37.2 35.2,37.6 34.8,37.8 34.3,37.9 33.7,37.8 33.4,37.9 33.2,37.8 
		32.7,37.9 32.3,37.8 31.9,37.8 31.8,37.8 31.6,38 31.5,38.2 31.2,38.4 30.9,38.5 28.3,38.8 28.1,38.7 28,38.7 27.7,38.7 27.4,38.8 
		26.5,39.4 25.8,40 25.7,33.4 25.6,28.3 25.6,26.3 25.7,25.3 25.9,25.1 26.2,24.6 28.1,23.9 28.6,24.1 28.9,24.5 29.3,24.8 
		29.6,25.1 29.9,25.2 30.2,25.1 30.4,25.1 30.7,25.8 31,26 31.9,26.6 32.1,26.5 32.2,26.3 32.3,25.8 32.4,25.6 33.5,24.8 33.7,24.5 
		34.1,23.6 34.2,23.4 34.5,23.1 34.8,22.9 35.1,22.7 35.3,22.3 35.4,22.1 35.4,21.6 35.5,21.3 36.1,20.4 36.1,20.1 36.1,19.8 
		36,19.7 36.6,19.2 37.3,18.9 37.5,18.7 37.8,18.3 37.8,18.1 38,18.1 39.5,18.8 40.5,19.5 42.1,21.8 	"/>
	<polygon id="Corozal_2_" fill-rule="evenodd" clip-rule="evenodd" fill="#8D90C7" stroke="#FFFFFF" stroke-width="0.25" points="
		42.8,12.6 43,12.6 43.1,12.6 43.3,12.5 44.6,12.5 44.8,12.5 44.8,12.5 44.8,12.6 45.2,13 44.7,13.5 43,14.8 42.8,15.1 43.1,15.5 
		43.4,15.5 44.5,15 44.3,15.4 44.1,15.8 43.6,16.4 43.5,16.6 43.6,16.7 43.7,16.7 43.9,16.6 44.3,16.1 45,15.6 45.4,15.4 45.8,15.4 
		46.3,15.4 46.9,15.8 47.2,15.9 47.7,15.8 48.4,15.3 49.1,15.1 49.4,15 49.5,15.1 49.5,15.4 49.4,15.7 48.9,16 48.4,16.2 48.3,16.3 
		48.3,16.6 48.4,16.7 48.6,16.6 48.8,16.3 49,16.2 49.2,16.1 49.4,16 49.5,16.1 49.7,18.9 49.5,21.1 49.4,21.5 49.1,22.1 49.1,22.4 
		48.2,24.6 47.8,24.9 47.8,24.9 47.8,24.9 45.2,24.6 42.1,21.8 40.5,19.5 39.5,18.8 38,18.1 37.8,18.1 37.8,18 37.9,17.6 38,17.2 
		38.2,16.8 38.9,16 39.1,15.6 39.2,15.3 39.3,14.7 39.5,14.1 39.6,13.4 39.8,13.2 39.9,13 40.6,12.4 40.8,12.5 41,12.6 41.3,12.6 
		41.5,12.6 41.9,12.5 42.2,12.3 42.3,12.3 42.4,12.3 42.6,12.5 	"/>
	<polygon id="Cayo_2_" fill-rule="evenodd" clip-rule="evenodd" fill="#8D90C7" stroke="#FFFFFF" stroke-width="0.25" points="
		38.1,45.1 38,45.3 38.1,45.5 38.4,46 38.7,46.3 38.9,46.5 38.9,46.7 38.8,46.8 38.6,46.9 38.6,47 38.3,47.5 38.2,47.8 38.1,48.1 
		37.9,48.3 37.7,48.5 37.6,48.6 37.4,48.9 36.7,49.6 36.7,49.7 36.7,49.8 36.7,49.9 36.7,50.1 36.6,50.4 36.6,50.5 36.7,50.8 
		36.7,50.9 36.6,51 36.6,51.1 36.5,51.2 36.3,51.3 36.1,51.4 36.1,51.5 36.1,51.6 36.4,51.8 36.5,51.9 36.5,51.9 36.4,52 36.3,52 
		35.9,52.1 35.5,52.2 35.4,52.3 35.3,52.4 34.7,53.4 34.5,53.7 34.3,54.2 34.2,54.7 34.2,54.8 34.2,55.1 33.9,55.1 33.7,55.2 
		33.6,55.2 33.5,55.4 33.3,55.7 33.2,55.8 33.2,55.9 33.3,56.3 33.3,56.4 33.2,56.6 32.8,57.1 32.4,57.4 32.3,57.4 32.1,57.5 
		32,57.6 31.4,58 31.2,58.2 31,58.2 30.9,58.2 30.8,58.2 30.5,58.3 30.4,58.4 30.3,58.5 30.2,58.7 30.2,58.7 30.2,58.9 30.2,59 
		29.3,59.3 29.1,59.4 29.1,59.4 29,59.3 28.8,59.2 28.8,59.1 28.7,59 28.6,59 28.5,59 28.4,59.2 27.9,59.7 27.7,59.8 27.6,59.9 
		27.2,59.9 27.1,60 27,60 26.7,60 25.9,60.3 25.8,60.4 25.7,60.5 25.6,60.6 25.6,60.7 25.6,60.8 25.6,60.9 25.5,61 25.3,61.2 
		25.2,61.3 25.1,61.4 24.9,61.8 25.1,59.4 25.5,52.8 25.8,46.7 25.8,40 26.5,39.4 27.4,38.8 27.7,38.7 28,38.7 28.1,38.7 28.3,38.8 
		30.9,38.5 31.2,38.4 31.5,38.2 31.6,38 31.8,37.8 31.9,37.8 32.3,37.8 32.7,37.9 33.2,37.8 33.4,37.9 33.7,37.8 34.3,37.9 
		34.8,37.8 35.2,37.6 35.9,37.2 36.3,37.1 36.5,37 37,36.8 37.2,36.7 37.5,36.8 38,36.6 38.1,36.4 38.3,36.1 38.5,36 38.6,36.1 
		38.6,36.5 38.8,41.2 38.8,42 38.8,42.1 39.1,42.5 39.3,43 39.3,43.2 39.3,43.4 39.2,43.7 39.1,43.9 39.1,44.1 39,44.3 39,44.3 
		38.9,44.3 38.9,44.4 38.8,44.5 38.8,44.6 38.7,44.8 38.7,44.8 38.7,44.9 38.6,44.9 	"/>
	<path id="Belize_2_" fill="#8D90C7" stroke="#FFFFFF" stroke-width="0.25" d="M46.7,35.1l-0.2-0.2l-0.2-0.4l-0.8-0.4l-0.3-0.3
		l-0.1-0.6l0.1-0.5l0.2-0.4l0.6-0.7l0.2-0.4l0.5-2l0.3-2l-0.1-0.6l0.9-1.8l-2.6-0.3l-5,1.3L39,26.6L38.9,27l0,0.2l0,0.2l0,0.2
		l0.1,0.3l0,0.1l0,0.3L38.8,29l0,0.1l0,0.1l0.1,0.5l0,0.1l-0.1,0.6l0,0.2l0.1,0.3l0,0.1l0,0.2l-0.1,0.1l-0.2,0.1l-0.2,0.1l-0.7,0.3
		l-0.3,0.4L37.2,33l0,0.4l0.3,3.4l0.5-0.2l0.1-0.2l0.1-0.3l0.2-0.1l0.1,0.1l0.1,0.3l0.2,4.7l0,0.9l0,0.1l0.3,0.4l0.2,0.5l0,0.3
		l0,0.2l-0.1,0.3l0,0.2l-0.1,0.3l0,0.1l0,0.1l-0.1,0l0,0.1l0,0.1l0,0.1l-0.1,0.1l0,0.1l-0.1,0l-0.1,0l-0.5,0.2L44,45l0.2-0.1
		l0.1-0.1l0.5-0.2l0.3-0.3l0,0l0,0L45,43.9l-0.2-0.5l0.1-0.9l0-0.5l0.2-2.4l0.9-3.1l0.1-0.4l0.3-0.2l0.6,0.1l0.6,0l0.3-0.5l-0.2-0.2
		L46.7,35.1z M52.2,22.2l0.2-0.2l0-0.2l-0.1-0.1l-0.1,0.1l-0.1,0l-0.1,0.1l-0.2,0.2l0.1,0.1L52.2,22.2z M52.6,21.8L52.6,21.8
		l0.3-0.1l0.1-0.2l0-0.3l-0.1-0.1l0,0l0,0.1l0,0.1l-0.1,0.1l-0.1,0.1l0,0.1l0,0.1L52.6,21.8z M54.3,19.5l0.1-0.2l0-0.1l0-0.1l-0.1,0
		l-0.1,0l-0.1,0l0,0l0,0.1l0,0l-0.1-0.1L54,19.2L54,19.7l0.1,0.1L54.3,19.5z M49.8,31l0.2-0.8l-0.3,0.1l-1.3,0.9L48,31.4l-0.1,0.1
		l0,0.1l0,0.1l0.7-0.1l0.7-0.2L49.8,31z M56.3,35L56,34.8l-0.3-0.1l-0.3,0l-0.2,0.6l0,0.1l0.2,0l0.2-0.1l0.2-0.2l0.2,0.3l0,0.5
		l-0.2,0.5l-0.2,0.2l-0.3,0L55,36.4l-0.2,0l-0.5,0.5l-0.4,0.3l-0.3,0.3l-0.2,0.4L53.3,39l-0.2,0.8L53,40.3l0,0.1l0,0.1l0,0.1
		l-0.1,0.1l0.3,0.3l0-0.3l0.1-0.3l0.1-0.2l0.1-0.2l0.1-1.1l0.2-0.6l0.3-0.3l0.3-0.2l0.2-0.4l0.4,0.4l0.3-0.2l0.2-0.4l0.3-0.4
		l0.5-0.9l0.1-0.4L56.3,35z M55.5,38.1l-0.3,0.3l0.2,0.2l0.1,0.6l0,1.4l0-0.1l0.1-0.1l0.1-0.1l0.1,0l0,0.1l0,0.2H56l0-0.6l0-0.2
		l0.1-0.2l-0.4-1.1L55.5,38.1z M53.5,24.3l0.2-1h-0.1l0,0.2l-0.1,0.1L53.2,24L53,23.6v-0.2l0.2-0.1l0.1-0.1l0.1-0.2l0.1-0.2l0.2,0.1
		l0.2,0.1l0.2-0.4l0.5-1.3l0.2-0.3l0.3-0.3l0-0.5l-0.2-0.3l-0.5,0.3l-0.4-0.2l-0.2,0.2l-0.3,1.2l0,0.2l0,0.2l-0.1,0.1l-0.1,0.1
		l0,0.1l-0.4,1.5l-0.1,0.7l0.4,0l-0.1,0.6l-0.3,0.4l-0.8,0.6l-0.1,0l-0.2,0v0.2l1-0.3l0.7-0.7L53.5,24.3z M50.1,32.7l-0.3-0.3
		l0.3,1.3l0.2,0.6l0.1,0.2h0.2l-0.2-1.3L50.1,32.7z M49.4,35.3l-0.3-0.1l-0.2,0.1l0,0.1l0.1,0.1l0.1,0.1l0.1,0.2l0.2,0.1l0.2,0
		l0,0.1l0,0.5l0,0.2l0.2,0l0.1-0.2l0-0.1l0.1-0.1l0-0.2l-0.2-0.3L49.4,35.3z"/>
</g>
<g>
	<g>
		<rect x="-19.4" y="91" fill="none" width="128.6" height="38.1"/>
		<text transform="matrix(1 0 0 1 27.2181 100.281)" fill="#818281" font-family="'ArialMT'" font-size="13px">Belize</text>
	</g>
</g>
</svg>
