<?xml version="1.0" encoding="utf-8"?>
<!-- Generator: Adobe Illustrator 23.0.1, SVG Export Plug-In . SVG Version: 6.00 Build 0)  -->
<svg version="1.0" id="Countries" xmlns="http://www.w3.org/2000/svg" xmlns:xlink="http://www.w3.org/1999/xlink" x="0px" y="0px"
	 viewBox="0 0 87 130" enable-background="new 0 0 87 130" xml:space="preserve">
<circle fill="#DAF1F9" stroke="#FFFFFF" stroke-width="0.25" cx="43.9" cy="41.6" r="39"/>
<g id="Spain">
	<path id="Valenica" fill="#F47C58" stroke="#F9F9FA" stroke-width="0.25" stroke-linecap="round" stroke-linejoin="round" d="
		M67.3,35.2l-0.2-0.1l0,0l0,0l0,0v0l0,0l0,0l-0.1-0.1l-0.2-0.1l-0.1,0l0,0l0-0.1l0,0l0,0l0,0l0,0l0,0l0,0l-0.1,0l0,0l0,0l0,0l0,0
		l-0.1,0l-0.1,0l-0.1,0l-0.1,0l0,0l0,0l0,0l0,0l0,0l0,0l0,0l0,0l0,0l0,0l0,0l0,0l0,0l-0.1,0l-0.1,0l-0.1-0.1l0,0l0,0l0,0l0,0l-0.1,0
		l0,0l-0.1,0.1l0,0l0,0l0,0.1l0,0.1l0,0l0,0l0,0l-0.2,0.1l0,0l0,0l0,0l0,0l0,0l0,0l0,0l0,0l0,0l0,0l0,0l0,0.1l0,0l0,0l0,0l0,0l0,0
		l0,0l0,0l0.1,0l0,0l0,0l0,0.1l0,0l0,0l0,0.1l0,0l0,0l0,0.1l0,0l0,0l0,0l0,0l0,0l0,0l0,0l0,0l0,0l0,0l-0.1,0.1l0,0l0,0l0,0l0,0l0,0
		l0,0l0,0l0,0l0,0l0,0l0,0l0,0L64.8,36l0,0l0,0.1l0,0l-0.1,0l0,0l0,0l0,0l0,0l0,0l0,0l-0.1,0.1l0,0l-0.1,0l0,0l0,0l0,0l0,0l0,0l0,0
		l0,0l0,0l0,0l0,0l0,0.1l0,0l0,0l0,0.1l0,0l0,0l0,0.1l0,0l0,0l0,0l-0.1,0.1l0,0l0,0l0,0l0,0.1l0,0l-0.2,0.1l-0.1,0l-0.1,0l0,0l0,0
		l0,0l0,0.1l0,0l0,0l0,0l0,0l0,0l-0.1,0l0,0l0,0l0,0.1l0,0l0,0l0,0l0,0.1l0,0.1l0,0l0,0l0,0l0,0l-0.2,0.1l0,0l-0.1,0l0,0l0,0l0,0
		l0,0l0,0l0,0l0,0l0,0l0,0l0,0l0,0l0,0l0,0l0,0l0-0.1l-0.1-0.1l-0.1,0l0,0l-0.1,0l-0.1,0l-0.1,0l-0.1,0l0,0l-0.1,0l0,0l0,0l-0.1,0.1
		l0,0l0,0l0,0l0,0l0,0l0,0l0,0.1l0,0.1l0,0.1l0,0.2l0,0.1l0,0l0,0L62,38.3l0,0l0,0l0,0l0,0.1l0,0l0,0l0,0l0,0l0,0l0,0l-0.1,0l0,0
		l0,0l-0.1,0l0,0l0,0l0,0l-0.1,0l-0.1,0.1l0,0l-0.1,0.2l0,0l0,0l0,0l0,0l0,0l0,0l0,0l0,0l0,0l0,0l0,0l0,0l0,0l0,0l0,0l0,0l0,0l0,0
		l0,0l0,0l0,0l0,0l0,0l0,0l0,0l0,0.1l0,0l0,0l0,0l0,0l0,0l0,0l0,0l0,0l0,0l0,0l0,0l0,0l0,0l0,0l0,0l0,0l0,0l0,0l0,0l0,0l0,0l0,0l0,0
		l0,0l0,0l0,0l0.1,0l0.1,0.1l0,0l0,0l0,0l0.4,0.1l0,0l0,0l0,0l0,0l0,0.1l0,0l0,0l0,0l0,0.1l0,0l0,0l0,0l0,0l0,0l0,0.1l0,0l0,0l0,0
		l0,0l0,0.1l0,0l0,0.1l0,0l0,0l0,0l0,0l0,0l0,0.1l0,0l0.3,0.3l0.1,0l0,0l0.1,0l0.1,0l0.1,0l0.1,0l0,0l0,0l0,0l0,0l0,0l0,0l0.1,0.2
		l0,0l0,0l0,0.1l0,0l0,0.1l0,0l0,0l0,0l0,0.1L63,42l0,0l0,0l0,0l0,0.1l0,0l0,0l0,0l0,0l0,0l0,0v0l0,0L63,42.5l-0.1,0l-0.1,0l-0.1,0
		l0,0l0,0l0.1,0.2l0,0.1l0,0.1l0,0.1l0,0.1l0,0l0,0l0,0l-0.1,0.1l0,0l0,0l0,0.1l0,0.2l0,0.1l0,0l0,0l0.1,0l0.1,0l0,0l0,0l0,0.1
		l0,0.2l0,0l0,0.1l0,0l0,0.1l0,0l0,0.1l-0.1,0.1l0,0l0,0.1l0,0.1l0,0.1l0,0l0,0l0,0l0,0l0.1,0.1l0,0.1l0,0l0,0l0,0.1l0,0l0,0.1
		l0,0.1l0,0l0.1,0.1l0,0l0.1,0.1l0,0l0.1,0l0,0l0,0l0,0l0,0l0,0l0.1,0l0,0l0,0l0-0.1l0.1-0.3l0-0.1l0.1-0.1l0.1,0l0,0l0-0.1l0-0.3
		l0-0.2l0-0.1l0-0.1l0-0.1l0-0.1l0.1,0l0.1,0l0.1,0l0.1,0l0,0l0-0.3l0-0.2l0.1,0l0-0.1l0,0l0,0l0.1,0l0,0l0,0l0-0.1l0-0.1l0.1-0.1
		l0,0l0,0l0,0l0.3-0.1l0.1-0.1l0.1,0l0.1,0h0.1l0,0l0,0l0-0.1l0-0.1l0-0.1l0-0.1l0,0l0,0l0.1,0l0.1,0l0,0l0,0l0.1,0l0-0.1l0-0.1l0,0
		l0,0l0,0l0,0l0.1,0l0,0l0,0l0-0.1l0,0l0,0l0.1,0l0.1,0l0,0l0-0.1l0,0l0,0L66.3,42l0,0l0,0l0,0l0,0l-0.1-0.1l-0.1-0.1l-0.1,0l-0.1,0
		l-0.1,0l-0.1-0.1l-0.1-0.1l-0.1-0.1l0-0.1l-0.1-0.2L65.2,41l-0.1-0.1l-0.1-0.1l0-0.1l0-0.1l0,0l0,0l0-0.1l0-0.1l-0.2-0.4l-0.1-0.3
		l0-0.2l0-0.2l0-0.1l0-0.1l0.1-0.1l0,0l0-0.1l0-0.1l0-0.1l0.1-0.1l0,0l0-0.1l0-0.1l0,0l0.3-0.5l0.2-0.2l0.1-0.1l0.1-0.3l0.1-0.1
		l0.2-0.1l0.1-0.1l0.2-0.4l0.2-0.2l0.1-0.1l0,0l0.1-0.1l0,0l0.2-0.4l0.1-0.1l0-0.1l0-0.1l0.1-0.1l0.1-0.1L67.3,35.2L67.3,35.2
		L67.3,35.2z M61.4,36.8L61.4,36.8L61.4,36.8L61.4,36.8l0.1,0.1l0.1,0.2l0,0l0,0l0,0l0.2,0l0.1,0l0,0l0,0l0,0l0,0l0.1,0l0.1,0l0,0
		l0.1,0l0.1,0l0.1-0.1l0,0l0,0l0,0l0,0l0,0l0,0l-0.1-0.1l-0.1,0l-0.2,0l-0.1,0l0,0l0,0l0,0l0,0l0,0l0,0l0,0l0,0l0,0l0-0.1l0-0.1l0,0
		l0,0l0,0l0,0l0,0l0,0.1l0,0l0,0l-0.1,0l-0.1,0l-0.1,0l-0.2,0L61.4,36.8L61.4,36.8L61.4,36.8z"/>
	
		<polygon id="La_Rioja" fill-rule="evenodd" clip-rule="evenodd" fill="#F47C58" stroke="#F9F9FA" stroke-width="0.25" stroke-linecap="round" stroke-linejoin="round" points="
		60.7,28.7 60.7,28.7 60.7,28.7 60.7,28.7 60.7,28.6 60.7,28.6 60.7,28.6 60.7,28.6 60.7,28.5 60.6,28.4 60.5,28.4 60.4,28.3 
		60.3,28.3 60.3,28.2 60.3,28.2 60.2,28.2 60.2,28.2 60.2,28.2 60.2,28.2 60.2,28.1 60.2,28.1 60.1,28 59.8,27.8 59.7,27.8 
		59.6,27.7 59.6,27.7 59.6,27.7 59.6,27.6 59.6,27.6 59.5,27.6 59.5,27.6 59.3,27.6 59.2,27.6 59.2,27.5 59.1,27.5 59.1,27.5 
		59.1,27.4 59,27.4 58.9,27.4 58.7,27.4 58.6,27.4 58.6,27.3 58.5,27.3 58.4,27.3 58.3,27.2 58.3,27.2 58.2,27.2 58.2,27.2 
		58.2,27.2 58.2,27.3 58.2,27.3 58.2,27.3 58.2,27.3 58.2,27.3 58.1,27.3 58.1,27.3 58.1,27.3 58,27.3 58,27.3 58,27.3 58,27.3 
		57.9,27.3 57.9,27.3 57.9,27.3 57.8,27.2 57.7,27.2 57.7,27.2 57.7,27.1 57.7,27.1 57.7,27 57.7,27 57.7,27 57.7,26.9 57.6,26.9 
		57.5,26.8 57.5,26.9 57.5,26.9 57.5,26.9 57.4,27 57.4,27 57.4,27 57.3,27 57.3,27 57.3,27 57.3,26.9 57.3,26.9 57.3,26.9 
		57.3,26.8 57.3,26.9 57.3,26.8 57.3,26.8 57.3,26.7 57.1,26.8 57,26.8 56.9,26.8 56.7,26.8 56.6,26.8 56.6,26.8 56.5,26.8 
		56.6,26.9 56.6,26.9 56.6,26.9 56.6,27 56.6,27 56.5,27 56.5,27 56.4,27.1 56.4,27.2 56.4,27.2 56.5,27.2 56.5,27.2 56.5,27.2 
		56.5,27.2 56.6,27.2 56.6,27.2 56.6,27.2 56.5,27.3 56.5,27.3 56.5,27.4 56.5,27.4 56.6,27.4 56.6,27.4 56.6,27.5 56.6,27.5 
		56.6,27.5 56.6,27.5 56.6,27.6 56.6,27.7 56.6,27.8 56.6,27.8 56.6,27.8 56.6,27.9 56.5,27.9 56.5,27.9 56.4,27.9 56.4,28 56.5,28 
		56.5,28 56.5,28 56.5,28.1 56.5,28.1 56.5,28.2 56.5,28.2 56.5,28.2 56.5,28.3 56.5,28.3 56.5,28.3 56.5,28.5 56.4,28.5 56.4,28.5 
		56.4,28.6 56.5,28.7 56.5,28.7 56.5,28.8 56.6,28.8 56.6,28.9 56.6,28.9 56.7,28.9 56.7,29 56.7,29 56.7,29 56.8,29 56.8,29 
		56.8,29 56.9,29 56.9,29 56.9,29 57,29 57,29 57,29.1 57,29.1 57,29.1 57,29.3 57.2,29.3 57.3,29.3 57.3,29.2 57.4,29.2 57.4,29.1 
		57.4,29.1 57.4,29.1 57.4,29 57.4,29 57.4,29 57.4,28.9 57.4,28.9 57.5,28.9 57.6,28.9 57.6,28.9 57.6,28.9 57.6,28.9 57.6,28.9 
		57.6,29 57.6,29 57.6,29.1 57.6,29.1 57.6,29.1 57.5,29.2 57.5,29.2 57.5,29.2 57.5,29.2 57.5,29.3 57.6,29.3 57.6,29.3 57.7,29.3 
		57.7,29.3 57.8,29.4 57.8,29.4 57.8,29.4 57.8,29.4 57.9,29.3 58,29.4 58.1,29.4 58.1,29.3 58.1,29.3 58.1,29.3 58.1,29.3 
		58.1,29.2 58.1,29.2 58.2,29.1 58.2,29.1 58.2,29.1 58.2,29.1 58.2,29.1 58.2,29 58.2,29 58.2,28.9 58.2,28.9 58.3,28.9 58.3,28.9 
		58.4,28.9 58.4,28.9 58.5,28.8 58.5,28.8 58.7,28.8 58.9,28.8 58.9,28.8 58.9,28.8 58.9,28.9 58.9,28.9 58.9,28.9 59,28.9 59,29 
		59,29 59,29 59.2,28.9 59.3,28.9 59.3,28.9 59.4,28.9 59.4,29 59.4,29 59.4,29 59.4,29 59.4,29.1 59.3,29.1 59.3,29.1 59.3,29.1 
		59.3,29.2 59.3,29.2 59.3,29.2 59.4,29.3 59.5,29.3 59.5,29.3 59.5,29.4 59.5,29.4 59.5,29.4 59.4,29.4 59.4,29.4 59.4,29.4 
		59.4,29.4 59.4,29.5 59.5,29.5 59.5,29.5 59.7,29.6 59.7,29.6 59.8,29.6 59.8,29.6 59.8,29.7 59.9,29.7 59.9,29.7 60,29.7 60,29.7 
		60.1,29.6 60.1,29.6 60.2,29.5 60.2,29.4 60.2,29.4 60.2,29.4 60.1,29.3 60.1,29.2 60.1,29.2 60.1,29.1 60.1,29.1 60.1,29.1 
		60.1,29 60.2,28.9 60.2,28.9 60.3,28.8 60.3,28.8 60.3,28.8 60.3,28.8 60.3,28.8 60.4,28.8 60.4,28.8 60.4,28.8 60.4,28.8 
		60.5,28.8 60.5,28.8 60.6,28.8 60.6,28.8 60.7,28.8 60.7,28.8 60.7,28.8 60.7,28.8 	"/>
	<path id="Navarre" fill="#F47C58" stroke="#F9F9FA" stroke-width="0.25" stroke-linecap="round" stroke-linejoin="round" d="
		M62.3,27.6L62.3,27.6L62.3,27.6L62.3,27.6l-0.1,0.1l0,0L62.3,27.6L62.3,27.6L62.3,27.6L62.3,27.6L62.3,27.6z M62.5,27.5L62.5,27.5
		L62.5,27.5L62.5,27.5L62.5,27.5L62.5,27.5l-0.1-0.1l0,0l0,0l0,0l0,0L62.5,27.5l0,0.1l0,0L62.5,27.5L62.5,27.5L62.5,27.5L62.5,27.5z
		 M63.5,25.5L63.5,25.5l-0.3,0l-0.2,0l-0.1,0l-0.1-0.1l0,0l0,0l-0.1,0l0,0l0,0l0,0l-0.1,0l-0.1-0.1l-0.1-0.1l-0.2,0l-0.1,0L61.8,25
		l0-0.1l0-0.1l0.1-0.1l-0.1,0l-0.1,0l-0.1,0.1l0,0.1l0,0.1l0,0.1l-0.1,0l-0.1,0l-0.1,0l-0.1,0L61.3,25l0-0.1l0,0l0.1-0.1l0-0.1
		l0-0.1l0-0.2l0-0.2l-0.1-0.1l0,0l0,0l0,0l-0.1-0.1l-0.1,0l-0.1,0l0,0l0,0.1l0,0l0,0l0,0l0,0l0,0l0,0l0-0.1l0,0l0,0l0,0l0,0l-0.1,0
		l0,0l-0.1,0l-0.1,0l0,0l0,0l0,0l0,0l-0.1,0l0,0l0,0l0,0.1l0,0.1l0,0l0,0l0,0l0,0l0,0l0,0l0,0l0,0l0,0l0,0l0,0l0,0l0,0l0,0.1l0,0
		l0,0.1l0,0l0,0l0,0l0,0l0,0.1l0,0l0,0l0,0L59.7,25l0,0.1l0,0.1l0,0l0,0l0,0l0,0l0,0l0,0l0,0l-0.1,0l0,0l-0.1,0.1l0,0l0,0l0,0l0,0
		l-0.1,0l0,0l-0.1,0l0,0l0,0l0,0l0,0l0,0l0,0.1l0,0.2l0,0l0,0L59,26.1l0,0.1l0,0.1l0,0.1l0,0l0,0l-0.1,0l0,0l0,0l0,0.2l0,0l0,0l0,0
		l0,0l0,0l-0.1,0.1l0,0l0,0l-0.1,0l0,0l0,0l0,0l0,0l0,0l0,0l0,0l-0.1,0l0,0l-0.1,0l0,0l0,0l0,0l0,0l0,0l0,0l0,0l0,0l0,0l0,0l0.1-0.1
		l0,0l0,0l0,0l0,0l0,0.1l0,0.2l0,0.1l0.1,0l0.1,0l0.2,0l0,0l0.1,0.1l0,0l0,0l0,0l0,0l0.1,0l0.2,0l0.1,0l0.1,0.1l0,0l0,0l0,0l0,0.1
		l0.1,0l0.2,0l0.2,0.3l0.1,0.1l0,0l0,0l0,0l0,0l0,0l0,0l0,0l0,0l0.1,0.1l0.1,0.1l0.1,0l0.1,0.1l0,0.1l0,0l0,0l0,0l0,0l0,0l0,0l0,0
		l0,0l0,0l0,0l0,0l0,0l-0.1,0l0,0l0,0l-0.1,0l0,0l0,0l0,0l0,0l0,0l0,0l0,0l0,0l0,0l0,0L60.1,29l0,0l0,0l0,0l0,0l0,0l0,0l0.1,0.1l0,0
		l0,0l0,0l0,0l0,0l0,0l0.1,0l0,0l0,0l0,0l0,0l0,0l0,0l0.1,0l0,0l0,0l0.1,0l0,0l0.1,0l0.1,0l0,0l0,0l0,0l0,0l0,0l0.1,0l0,0l0,0l0.1,0
		l0,0l0,0l0,0l0,0l0.1,0l0,0l0.1,0l0,0l0,0l0,0l0,0l0,0l0,0l0,0l0,0l0-0.1l0.1-0.1l0.1-0.1l0,0l0-0.1l0,0l0,0l0,0l0,0l0,0l0,0l0,0
		l0,0l0,0l0,0l0,0l0,0l0,0l0-0.1l0,0l0-0.1l0,0l0,0l0,0l0,0l0,0l0,0l0,0l0,0l0-0.1l0,0l0-0.1l0,0l0,0l0-0.1l0.1-0.1l0.1-0.1l0,0l0,0
		l0,0l0,0l0,0l0,0l0,0l0-0.1l0.1-0.1l0.1-0.1l0-0.1l0,0l0,0l0,0l0,0l0,0l0,0l0,0l0,0l0,0l0,0l0,0l0,0l0.1,0l0,0l0,0l0,0l0,0l0,0l0,0
		l0.1,0l0,0l0,0l0,0l0,0l0,0l0,0l0,0l0,0l0,0l0,0l0.2,0l0,0h0.1l0,0l0,0l0-0.1l0,0l0,0l0,0l0,0l0.1,0l0,0l0,0l0.1-0.1l0.1,0l0-0.1
		l0,0l0,0l0,0l0-0.1l0-0.1l0-0.1l0,0l0,0l0.1-0.1l0,0l0,0l0,0l0,0l0.1-0.1l0.1,0l0,0L63.5,25.5z"/>
	<path id="Murcia" fill="#F47C58" stroke="#F9F9FA" stroke-width="0.25" stroke-linecap="round" stroke-linejoin="round" d="
		M63.5,46.1l0,0.1l0.1,0.1L63.5,46.1L63.5,46.1l0.1-0.1l0,0l0,0l0,0l0,0v0l0,0l0,0l0,0.1L63.5,46.1z M63.6,46.4L63.6,46.4L63.6,46.4
		l-0.1,0l-0.1,0l-0.1-0.1l0,0l-0.1-0.2l0-0.1l0-0.1l0.1,0l0,0l0.1-0.2l0.1,0.1l0,0l0-0.2l0,0l0,0l-0.1,0l0,0l0,0l0,0l0,0l0,0l-0.1,0
		l0,0l-0.1-0.1l0,0L63,45.3l0,0l0-0.1l0-0.1l0,0l0-0.1l0,0l0,0l0-0.1l-0.1-0.1l0,0l0,0l0,0l0,0l0-0.1l0-0.1l0-0.1l0,0l0.1-0.1l0-0.1
		l0,0l0-0.1l0,0l0-0.1l0,0l0-0.2l0-0.1l0,0l0,0l-0.1,0l-0.1,0l0,0l0,0l0-0.1l0-0.2l0-0.1l0,0l0,0l0.1-0.1l0,0l0,0l0,0l0-0.1l0-0.1
		l0-0.1l0-0.1l-0.1-0.2l-0.2-0.1l-0.1-0.1l0,0l0,0l0,0l0,0l0,0l0,0l-0.1,0l0,0l-0.2,0l0,0l0,0l-0.1,0.1l-0.2,0.1l0,0l0,0l0,0l0,0
		l0,0l0,0l-0.1,0l-0.1,0.1l-0.1,0.1l0,0.1l0,0l0,0.1l0,0l0,0l0,0l0,0l0,0.1l0,0l0,0l0,0l0,0l0,0l0,0l0,0.1l0,0.1l0,0.1l0,0.1l0,0.1
		l0,0l0,0l0,0l0,0l0,0l-0.2,0.2l-0.2,0.1l0,0l0,0l0,0l0,0l0,0l0,0l0,0l0,0l0,0l0,0l0,0l0,0l0,0l0,0l0,0l0,0l0,0l0,0l0,0l0,0l0,0l0,0
		l0,0l0,0l0,0l0,0l0,0l0,0l0,0l0,0l-0.2,0.1l-0.1,0.1l-0.1,0l0,0l-0.1,0l-0.1,0l0,0l0,0l-0.1,0l0,0l0,0l0,0l0,0L59.5,44l-0.1,0.1
		l0,0l-0.1,0l0,0l0,0l-0.1,0.1l0,0L59,44.5l-0.1,0.1l-0.1,0.1l0,0l0,0.1l0.1,0.1l0,0l0,0l0,0l0,0.1l0.1,0.1l0.1,0.1l0.1,0l0.1,0.1
		l0.1,0l0,0l0.1,0.1l0.3,0l0,0l0,0l0,0l0,0l0,0l0,0.1l0,0l0,0.1l0,0l0,0.1l0,0l0,0l0,0.1l0,0l0,0l0,0.1l0,0l0,0.1l0,0l0,0l0,0
		l0.4,0.7l0,0l0,0l0,0l0,0l0,0l0,0l0,0l0,0l0.2,0l0,0l0.3,0.2l0.1,0l0.2-0.1l0,0l0,0l0.1-0.1l0,0l0,0l0,0l0,0l0,0l0,0l0-0.1l0,0l0,0
		l0,0l0,0l0,0l0.1,0l0.1,0l0.1-0.1l0,0l0.1,0l0.1,0l0.1,0l0,0l0,0l0,0l0.1,0l0.1,0l0,0l0,0l0.1,0l0.1,0l0-0.1l0,0l0,0l0,0l0,0l0.1,0
		l0.2,0l0.1,0l0.1,0.1l0,0l0.1,0l0,0l0,0h0.1l0.1,0l0,0l0.1,0l0,0l0,0h0l0,0l0,0L63.6,46.4L63.6,46.4L63.6,46.4z"/>
	
		<polygon id="Madrid" fill-rule="evenodd" clip-rule="evenodd" fill="#F47C58" stroke="#F9F9FA" stroke-width="0.25" stroke-linecap="round" stroke-linejoin="round" points="
		56.6,36.9 56.6,36.8 56.5,36.8 56.5,36.8 56.5,36.8 56.5,36.7 56.5,36.7 56.5,36.7 56.5,36.7 56.6,36.7 56.5,36.5 56.5,36.5 
		56.5,36.4 56.5,36.4 56.5,36.3 56.5,36.2 56.4,36.2 56.4,36.2 56.3,36.3 56.3,36.3 56.3,36.3 56.3,36.4 56.2,36.4 56.2,36.3 
		56.2,36.3 56.2,36.2 56.2,36.2 56.2,36.2 56.2,36.1 56.2,36.1 56.3,36.1 56.3,36 56.3,36 56.3,36 56.3,35.9 56.3,35.9 56.3,35.9 
		56.3,35.9 56.3,35.9 56.3,35.8 56.3,35.8 56.4,35.8 56.4,35.8 56.3,35.7 56.3,35.6 56.3,35.6 56.2,35.6 56.2,35.6 56.2,35.6 
		56.2,35.5 56.2,35.4 56.2,35.3 56.2,35.3 56.2,35.3 56.2,35.3 56.1,35.2 56.1,35.2 56.1,35.2 56,35.2 56,35.2 56,35.2 56,35.2 
		55.9,35.2 55.9,35.2 55.9,35.2 55.9,35.2 55.9,35.2 55.9,35.2 55.9,35.2 55.9,35.1 55.9,35.1 55.9,35.1 55.9,35.1 55.9,35 55.8,35 
		55.8,35 55.8,35 55.8,34.8 55.8,34.8 55.8,34.8 55.8,34.8 55.8,34.8 55.7,34.8 55.7,34.8 55.7,34.7 55.6,34.6 55.6,34.6 55.6,34.6 
		55.6,34.6 55.6,34.6 55.5,34.6 55.5,34.6 55.4,34.6 55.4,34.6 55.4,34.6 55.4,34.6 55.4,34.5 55.4,34.5 55.5,34.5 55.5,34.4 
		55.4,34.4 55.4,34.3 55.4,34.3 55.4,34.3 55.4,34.2 55.3,34.2 55.3,34.2 55.3,34.2 55.3,34.2 55.3,34.2 55.3,34.1 55.3,34.1 
		55.3,34.1 55.3,34 55.4,33.9 55.4,33.9 55.4,33.9 55.4,33.9 55.4,33.9 55.4,33.9 55.4,33.8 55.4,33.8 55.4,33.8 55.4,33.7 
		55.4,33.7 55.4,33.7 55.5,33.6 55.5,33.6 55.5,33.5 55.5,33.5 55.5,33.5 55.5,33.4 55.5,33.4 55.5,33.3 55.5,33.2 55.5,33.1 
		55.4,33 55.4,33 55.3,33 55.3,33 55.3,33 55.3,32.9 55.1,32.8 55.1,32.7 55,32.7 54.9,32.8 54.9,32.8 54.8,32.9 54.8,32.9 54.8,33 
		54.7,33 54.6,33.1 54.5,33.2 54.5,33.2 54.5,33.3 54.5,33.3 54.5,33.3 54.4,33.4 54.4,33.4 54.4,33.4 54.1,33.5 54.1,33.5 54,33.6 
		54,33.6 54,33.7 53.9,33.7 53.9,33.8 53.9,33.8 53.9,33.8 53.9,33.9 53.9,33.9 53.9,33.9 53.9,34 53.9,34 53.9,34.1 53.9,34.1 
		53.8,34.1 53.8,34.2 53.8,34.2 53.8,34.2 53.8,34.2 53.7,34.2 53.7,34.2 53.7,34.2 53.6,34.2 53.6,34.2 53.5,34.2 53.5,34.3 
		53.4,34.5 53.4,34.5 53.3,34.6 53.3,34.7 53.3,34.7 53.3,34.8 53.3,34.8 53.2,34.9 53.2,34.9 53.2,34.9 53.2,34.9 53.1,34.9 
		53,34.9 53,34.9 53,34.9 53,34.9 53,34.9 52.9,34.8 52.9,34.8 52.9,34.9 52.9,34.9 52.9,34.9 52.9,35 52.9,35 52.9,35 52.9,35.1 
		52.9,35.1 52.9,35.1 52.9,35.1 52.9,35.1 52.8,35.1 52.8,35.2 52.8,35.2 52.8,35.2 52.8,35.3 52.8,35.3 52.8,35.3 52.8,35.4 
		52.8,35.4 52.8,35.4 52.8,35.5 52.8,35.5 52.8,35.5 52.8,35.6 52.8,35.7 52.8,35.7 52.8,35.7 52.7,35.7 52.7,35.7 52.6,35.7 
		52.6,35.7 52.6,35.7 52.6,35.7 52.6,35.7 52.5,35.7 52.5,35.7 52.5,35.7 52.5,35.8 52.5,35.8 52.5,35.8 52.5,35.9 52.5,35.9 
		52.5,35.9 52.4,36 52.4,36 52.4,36.1 52.3,36.1 52.3,36.1 52.3,36.1 52.3,36 52.2,36 52.2,36 52.2,36 52.2,36 52.2,36 52.2,36.1 
		52.2,36.1 52.2,36.1 52.2,36.2 52.2,36.2 52.1,36.3 52.1,36.4 52.1,36.5 52.1,36.5 52.2,36.5 52.2,36.5 52.2,36.5 52.3,36.5 
		52.3,36.5 52.3,36.4 52.4,36.4 52.5,36.4 52.5,36.3 52.5,36.3 52.6,36.2 52.6,36.2 52.6,36.2 52.7,36.1 52.7,36.1 52.7,36.1 
		52.7,36.1 52.7,36.1 52.7,36.2 52.7,36.2 52.7,36.3 52.7,36.3 52.7,36.3 52.8,36.4 52.8,36.4 52.8,36.4 52.9,36.4 52.9,36.4 
		52.9,36.4 53,36.4 53,36.4 53,36.3 53,36.3 53,36.3 53.1,36.3 53.1,36.2 53.2,36.2 53.2,36.2 53.3,36.2 53.3,36.2 53.4,36.3 
		53.4,36.3 53.5,36.3 53.5,36.3 53.5,36.3 53.6,36.3 53.6,36.3 53.7,36.3 53.7,36.3 53.7,36.4 53.7,36.4 53.7,36.4 53.8,36.4 
		53.8,36.5 54,36.5 54.1,36.6 54.2,36.6 54.2,36.6 54.2,36.6 54.3,36.6 54.3,36.7 54.3,36.7 54.4,36.7 54.4,36.7 54.4,36.7 
		54.5,36.7 54.5,36.8 54.5,36.8 54.5,36.8 54.6,36.8 54.6,36.8 54.7,36.8 54.8,36.8 54.9,36.9 54.9,36.9 54.9,36.9 54.9,36.9 
		54.9,37 54.9,37 54.9,37.1 54.9,37.1 54.9,37.1 54.9,37.1 54.9,37.1 54.8,37.2 54.8,37.2 54.8,37.2 54.6,37.3 54.6,37.4 54.5,37.4 
		54.5,37.4 54.5,37.5 54.4,37.5 54.4,37.5 54.2,37.6 54.2,37.6 54.1,37.6 54.2,37.6 54.2,37.7 54.3,37.7 54.3,37.7 54.4,37.7 
		54.4,37.7 54.4,37.6 54.5,37.6 54.5,37.6 54.5,37.6 54.6,37.5 54.6,37.5 54.6,37.5 54.7,37.5 54.7,37.5 54.8,37.5 54.8,37.4 
		54.9,37.4 54.9,37.4 54.9,37.4 54.9,37.3 54.9,37.3 55,37.3 55,37.3 55,37.3 55,37.3 55,37.3 55.2,37.2 55.2,37.2 55.2,37.2 
		55.2,37.2 55.3,37.1 55.6,37.1 55.7,37.1 55.7,37.1 55.7,37.1 55.8,37.1 55.9,37.1 56.1,37 56.2,37 56.3,37 56.3,37 56.3,37 
		56.4,37 56.5,37 56.5,37 56.6,37 56.6,36.9 56.6,36.9 	"/>
	
		<polygon id="Galicia" fill-rule="evenodd" clip-rule="evenodd" fill="#F47C58" stroke="#F9F9FA" stroke-width="0.25" stroke-linecap="round" stroke-linejoin="round" points="
		45.6,28 45.6,28 45.5,27.9 45.5,27.9 45.4,27.8 45.3,27.7 45.3,27.7 45.3,27.7 45.3,27.6 45.3,27.6 45.3,27.6 45.3,27.5 45.3,27.5 
		45.3,27.4 45.1,27.3 45.1,27.3 45,27.3 45,27.3 45,27.3 44.9,27.3 44.9,27.3 44.9,27.3 44.9,27.3 44.9,27.3 44.8,27.4 44.7,27.3 
		44.6,27.3 44.6,27.2 44.6,27.2 44.6,27.1 44.6,27 44.6,27 44.6,26.9 44.7,26.8 44.7,26.8 44.7,26.8 44.7,26.8 44.7,26.7 44.7,26.7 
		44.7,26.7 44.7,26.6 44.7,26.6 44.7,26.6 44.7,26.5 44.7,26.5 44.7,26.4 44.7,26.4 44.8,26.4 44.9,26.3 44.9,26.3 44.9,26.3 
		45,26.3 45,26.3 45,26.3 45.1,26.2 45.2,26.1 45.2,26 45.2,26 45.2,26 45.2,25.9 45.2,25.8 45.2,25.7 45.3,25.7 45.3,25.7 
		45.3,25.6 45.3,25.5 45.3,25.4 45.2,25.4 45.2,25.3 45.1,25.3 45.1,25.3 45.1,25.3 45,25.3 45,25.3 45,25.3 44.9,25.2 44.9,25.2 
		44.9,25.2 44.9,25.3 44.9,25.3 44.9,25.3 44.9,25.3 44.9,25.3 44.9,25.3 44.8,25.3 44.8,25.3 44.8,25.2 44.8,25.2 44.8,25.1 
		44.9,25.1 44.9,25.1 44.9,25.1 44.9,25 44.9,25 44.9,25 44.9,25 45,25 45,25 45,25 45,25 45.1,24.9 45.2,24.9 45.3,24.8 45.3,24.8 
		45.3,24.7 45.2,24.6 45.2,24.6 45.2,24.6 45.1,24.6 45.1,24.6 45.1,24.6 45.1,24.6 45.1,24.7 45.1,24.7 45,24.7 45,24.7 44.9,24.7 
		44.9,24.7 44.9,24.7 44.9,24.7 44.9,24.7 44.8,24.6 44.9,24.6 44.9,24.5 44.9,24.5 44.9,24.5 44.9,24.5 44.8,24.5 44.8,24.4 
		44.8,24.4 44.7,24.4 44.7,24.4 44.6,24.3 44.6,24.3 44.6,24.3 44.6,24.2 44.6,24.1 44.5,24 44.5,24 44.5,24 44.4,24 44.4,23.9 
		44.4,23.9 44.4,23.9 44.4,23.8 44.4,23.8 44.4,23.8 44.4,23.7 44.4,23.7 44.3,23.7 44.3,23.7 44.3,23.7 44.3,23.7 44.3,23.6 
		44.3,23.5 44.3,23.5 44.3,23.5 44.4,23.5 44.4,23.5 44.4,23.5 44.4,23.5 44.5,23.5 44.5,23.5 44.5,23.4 44.6,23.3 44.6,23.3 
		44.6,23.3 44.6,23.2 44.6,23.2 44.7,23.1 44.7,23.1 44.7,23 44.6,23 44.6,23 44.5,22.9 44.5,23 44.3,23 44.2,23 44.1,22.9 
		44.1,22.9 44,23 44,23 44,23 44,23 44,22.9 44,22.9 44,22.9 44,22.9 44,22.9 43.9,22.8 43.7,22.5 43.5,22.4 43.3,22.3 43.3,22.3 
		43.1,22.3 43.1,22.3 43.1,22.3 43,22.3 43,22.3 43,22.4 42.9,22.4 42.9,22.4 42.9,22.4 42.9,22.2 42.8,22.2 42.8,22.2 42.8,22.2 
		42.8,22.2 42.7,22.2 42.8,22.3 42.7,22.3 42.7,22.3 42.7,22.3 42.7,22.3 42.7,22.2 42.8,22.1 42.8,22.1 42.8,22.1 42.7,22 42.7,22 
		42.7,22 42.7,22.1 42.6,22.1 42.6,22.2 42.4,22.2 42.4,22.3 42.3,22.3 42.3,22.4 42.3,22.4 42.3,22.4 42.3,22.4 42.2,22.4 
		42.2,22.4 42.2,22.4 42.2,22.5 42.2,22.5 42,22.5 42,22.5 42.1,22.5 42.1,22.5 42.1,22.5 42.1,22.5 42.1,22.5 42.1,22.5 42.1,22.4 
		42.1,22.4 42.1,22.4 42.2,22.3 42.2,22.3 42.2,22.3 42.2,22.4 42.2,22.3 42.2,22.3 42.2,22.2 42.1,22.1 42,22.1 42,22.2 41.9,22.3 
		41.8,22.3 41.7,22.4 41.6,22.3 41.6,22.4 41.6,22.4 41.6,22.4 41.5,22.5 41.6,22.5 41.6,22.6 41.6,22.6 41.6,22.6 41.6,22.6 
		41.6,22.6 41.6,22.6 41.6,22.6 41.6,22.7 41.5,22.6 41.5,22.6 41.5,22.6 41.1,22.9 41,23 40.9,22.9 40.9,23 40.8,22.9 40.8,22.9 
		40.8,23 40.8,23 40.9,23.1 40.9,23.1 40.9,23.1 40.8,23.1 40.8,23.2 40.8,23.3 40.8,23.3 40.9,23.3 41,23.3 41,23.3 41,23.3 
		41,23.3 41,23.3 41,23.3 41,23.3 41.2,23.3 41.3,23.3 41.3,23.3 41.3,23.3 41.3,23.3 41.2,23.3 41.2,23.3 40.9,23.4 40.9,23.4 
		40.9,23.4 41,23.5 41,23.5 41.1,23.5 41.2,23.5 41.2,23.6 41.2,23.6 41.2,23.6 41.1,23.7 41.1,23.7 41.2,23.9 41.2,23.9 41.1,24 
		41.1,23.9 41.1,23.9 41,23.8 41,23.8 41,23.7 41,23.7 40.9,23.7 40.8,23.6 40.8,23.6 40.8,23.7 40.8,23.8 40.7,23.8 40.7,23.9 
		40.6,23.8 40.6,23.8 40.6,23.7 40.4,23.7 40.4,23.8 40.4,23.8 40.4,23.8 40.3,23.8 40.3,23.8 40.3,23.9 40.3,23.9 40.3,23.9 
		40.1,24 40,24 39.9,24 39.8,24 39.7,24.1 39.6,24.1 39.5,24 39.5,24 39.4,24 39.3,23.9 39.3,23.9 39.2,23.9 39.2,23.9 39.2,23.9 
		39.1,24 39,24.1 38.9,24.1 38.8,24.1 38.8,24.1 38.8,24.1 38.9,24.2 38.9,24.2 38.9,24.3 39,24.3 39,24.3 39,24.3 38.9,24.4 
		38.8,24.4 38.8,24.3 38.7,24.3 38.7,24.4 38.7,24.4 38.7,24.4 38.6,24.5 38.6,24.5 38.5,24.5 38.5,24.5 38.4,24.5 38.3,24.5 
		38.1,24.6 38.1,24.7 38.2,24.7 38.3,24.7 38.3,24.7 38.3,24.7 38.4,24.7 38.4,24.7 38.4,24.7 38.4,24.7 38.4,24.7 38.3,24.7 
		38.3,24.8 38.3,24.8 38.3,24.8 38.3,24.8 38.2,24.9 38.2,24.9 38.2,24.9 38.1,24.8 38.1,24.9 38.1,24.9 38,24.9 38,25 38,25 38,25 
		37.9,25.1 38,25.2 38,25.2 38,25.2 38,25.3 38,25.3 38,25.3 38,25.3 38,25.4 37.9,25.5 37.9,25.6 37.9,25.6 37.9,25.6 38,25.7 
		38,25.7 38,25.7 38,25.6 38,25.6 38.1,25.6 38.1,25.5 38.1,25.5 38.1,25.6 38.2,25.6 38.2,25.6 38.2,25.6 38.2,25.5 38.2,25.5 
		38.2,25.5 38.3,25.6 38.3,25.6 38.3,25.6 38.4,25.6 38.4,25.7 38.4,25.7 38.4,25.7 38.3,25.7 38.3,25.8 38.3,25.8 38.3,25.8 
		38.3,25.9 38.4,25.9 38.4,25.9 38.5,26 38.5,26 38.4,26 38.4,26.1 38.4,26.1 38.4,26.1 38.4,26.2 38.4,26.2 38.5,26.3 38.5,26.3 
		38.6,26.3 38.6,26.2 38.6,26.1 38.7,26.1 38.8,26.1 38.9,26.1 39,26.1 39,26 39,25.9 39.1,26 39.1,26 39.1,26.1 39.1,26.1 39,26.2 
		39,26.2 38.9,26.3 38.8,26.4 38.8,26.4 38.8,26.4 38.7,26.4 38.7,26.4 38.7,26.5 38.7,26.6 38.7,26.6 38.7,26.7 38.6,26.7 
		38.6,26.8 38.6,26.9 38.6,27 38.7,27 38.7,27.1 38.7,27.2 38.7,27.2 38.8,27.2 38.8,27.1 38.8,27.1 38.9,27 38.9,27 39,27 39,26.9 
		39,26.9 39.1,26.8 39.1,26.8 39.1,26.8 39.1,26.9 39.2,26.9 39.2,26.8 39.2,26.7 39.2,26.7 39.3,26.6 39.3,26.6 39.3,26.7 
		39.4,26.7 39.4,26.8 39.5,26.7 39.5,26.7 39.5,26.6 39.6,26.6 39.6,26.6 39.6,26.7 39.4,26.9 39.4,27 39.4,27 39.3,27 39.3,27 
		39.3,27.1 39.3,27.2 39.3,27.3 39.3,27.4 39.3,27.4 39.3,27.4 39.3,27.5 39.3,27.5 39.2,27.5 39.2,27.5 39.1,27.5 39.2,27.4 
		39.2,27.4 39.2,27.4 39.1,27.3 39.1,27.4 39,27.4 39,27.4 38.9,27.5 39,27.5 39.1,27.5 39.1,27.5 39.1,27.6 39.1,27.6 39.2,27.7 
		39.2,27.7 39.3,27.7 39.4,27.7 39.5,27.7 39.5,27.7 39.6,27.6 39.7,27.6 39.7,27.6 39.7,27.6 39.7,27.6 39.8,27.6 39.8,27.6 
		39.8,27.6 39.8,27.6 39.7,27.7 39.6,27.7 39.6,27.8 39.5,27.9 39.5,28 39.4,28 39.3,28 39.3,28 39.3,28 39.3,28 39.3,28 39.3,28.2 
		39.3,28.2 39.2,28.1 39.2,28.1 39.2,28.2 39.2,28.3 39.2,28.3 39.2,28.3 39.4,28.3 39.4,28.3 39.4,28.3 39.6,28.2 39.7,28.2 
		39.7,28.1 39.8,28.1 39.8,28 39.9,28 39.9,27.9 39.9,27.9 39.9,28 39.9,28.1 39.9,28.1 39.9,28.2 39.8,28.2 39.8,28.2 39.7,28.3 
		39.7,28.3 39.6,28.3 39.5,28.5 39.4,28.5 39.4,28.5 39.4,28.6 39.3,28.6 39.3,28.6 39.3,28.7 39.2,28.7 39.2,28.7 39.2,28.7 
		39.3,28.8 39.3,28.8 39.3,28.8 39.2,28.8 39.1,28.8 39.1,28.9 39.1,28.9 39.1,29.7 39.1,29.8 39.2,29.8 39.2,29.8 39.3,29.7 
		39.3,29.7 39.4,29.7 39.4,29.6 39.5,29.5 39.5,29.5 39.6,29.5 39.6,29.4 39.7,29.4 39.8,29.4 39.8,29.3 39.8,29.2 39.8,29.2 
		39.9,29.2 39.9,29.1 40.1,29.1 40.1,29.1 40.2,29 40.3,29 40.7,28.9 40.8,28.9 40.9,28.8 40.9,28.8 40.9,28.8 41,28.8 41,28.8 
		41.1,28.7 41.1,28.8 41.2,28.8 41.1,29 41.2,29.1 41.2,29.1 41.2,29.1 41.3,29.1 41.4,29.1 41.4,29.1 41.5,29.1 41.5,29.2 
		41.5,29.3 41.4,29.3 41.4,29.4 41.3,29.4 41.2,29.5 41.1,29.7 41.1,29.7 41.1,29.8 41.1,29.9 41.2,29.9 41.2,30 41.2,30 41.2,30.1 
		41.2,30.1 41.5,30.1 41.6,30.1 41.6,30.1 41.7,30 41.8,29.9 41.8,29.9 41.8,29.9 41.9,29.9 41.9,29.9 42,29.8 42,29.8 42,29.7 
		42.1,29.7 42.1,29.8 42.1,29.9 42.2,29.9 42.2,29.9 42.2,29.9 42.2,29.9 42.3,29.8 42.3,29.9 42.5,29.8 42.6,29.8 42.7,29.8 
		42.7,29.8 42.8,29.9 42.9,29.9 42.9,30 42.9,30 43,30.1 43,30.1 43.1,30.1 43.1,30 43.2,30 43.2,30 43.2,29.9 43.2,29.9 43.2,29.9 
		43.2,29.9 43.3,29.9 43.3,29.9 43.4,30 43.4,30 43.4,30.1 43.4,30.1 43.5,30.1 43.6,30 43.6,30 43.6,30 43.7,30 43.8,30 44,29.9 
		44.1,29.8 44.1,29.8 44.2,29.8 44.2,29.7 44.2,29.6 44.2,29.5 44.2,29.5 44.2,29.4 44.3,29.4 44.3,29.4 44.4,29.5 44.5,29.5 
		44.6,29.6 44.7,29.5 44.8,29.5 44.8,29.5 44.8,29.5 44.8,29.5 44.8,29.4 44.8,29.4 44.8,29.4 44.9,29.2 44.9,29.2 44.9,29.2 
		44.8,29.2 44.8,29.1 44.8,29.2 44.7,29.1 44.7,29.1 44.7,29.1 44.7,29.1 44.7,29.1 44.7,29 44.8,28.9 44.8,28.9 44.9,28.9 
		44.9,28.8 44.9,28.8 44.9,28.7 44.9,28.7 45,28.7 45.1,28.5 45.1,28.5 45.2,28.5 45.2,28.5 45.3,28.5 45.3,28.5 45.4,28.5 
		45.4,28.4 45.4,28.4 45.4,28.3 45.5,28.3 45.5,28.2 45.5,28.2 45.5,28.1 45.6,28.1 45.6,28.1 45.6,28 	"/>
	
		<polygon id="Extremadura" fill-rule="evenodd" clip-rule="evenodd" fill="#F47C58" stroke="#F9F9FA" stroke-width="0.25" stroke-linecap="round" stroke-linejoin="round" points="
		51.8,40.5 51.7,40.4 51.6,40.3 51.6,40.3 51.6,40.3 51.6,40.2 51.5,40 51.5,40 51.5,40 51.5,39.9 51.5,39.9 51.6,39.9 51.6,39.9 
		51.6,39.9 51.7,39.7 51.7,39.6 51.7,39.6 51.7,39.5 51.7,39.5 51.5,39.6 51.5,39.6 51.4,39.6 51.3,39.7 51.3,39.7 51.2,39.7 
		51.2,39.7 51.2,39.7 51.1,39.8 50.9,39.7 50.9,39.6 50.9,39.6 50.9,39.6 50.8,39.6 50.8,39.5 50.7,39.4 50.7,39.3 50.6,39.3 
		50.6,39.3 50.5,39.3 50.5,39.3 50.5,39.2 50.4,39.2 50.3,39 50.3,39 50.2,39 50.2,38.9 50.2,38.9 50.2,38.9 50.2,38.9 50.2,38.8 
		50.2,38.8 50.2,38.8 50.3,38.7 50.3,38.7 50.3,38.7 50.3,38.6 50.3,38.6 50.3,38.5 50.3,38.5 50.3,38.5 50.3,38.4 50.3,38.4 
		50.3,38.4 50.3,38.3 50.3,38.3 50.3,38.2 50.3,38.2 50.3,38.1 50.3,38.1 50.2,38.1 50.2,38.1 50.2,38.1 50.1,38.1 50.1,38.2 
		50.1,38.2 50,38.3 50,38.3 50,38.3 49.9,38.3 49.8,38.3 49.8,38.2 49.8,38.2 49.8,38.1 49.8,38.1 49.8,38 49.8,38 49.9,38 
		49.9,37.9 49.9,37.9 49.9,37.8 49.9,37.8 49.9,37.8 49.9,37.8 49.8,37.8 49.8,37.7 49.8,37.7 49.7,37.7 49.6,37.8 49.6,37.8 
		49.6,37.7 49.6,37.6 49.6,37.3 49.7,37.1 49.7,37.1 49.7,37 49.7,36.9 49.7,36.9 49.7,36.9 49.8,36.9 49.7,36.8 49.7,36.7 
		49.7,36.7 49.7,36.7 49.7,36.5 49.7,36.5 49.7,36.4 49.7,36.3 49.7,36.3 49.7,36.3 49.7,36.3 49.5,36.4 49.4,36.4 49.4,36.5 
		49.3,36.5 49.3,36.5 49.3,36.5 49.3,36.5 49.2,36.5 49,36.5 49,36.4 48.9,36.3 48.8,36.3 48.7,36.2 48.6,36.2 48.5,36.2 48.4,36.2 
		48.4,36.2 48.4,36.1 48.4,36.1 48.4,36.1 48.4,36 48.4,36 48.4,36 48.4,36 48.3,36 48.3,36 48.2,36 48.1,36 48.1,36.1 48.1,36.1 
		48.1,36.1 48.1,36.1 48.1,36.2 48.1,36.2 48,36.2 48,36.2 47.9,36.2 47.8,36.1 47.8,36.1 47.7,36.1 47.7,36 47.6,36 47.5,35.9 
		47.5,35.9 47.5,35.9 47.5,35.9 47.5,35.9 47.5,35.8 47.5,35.8 47.5,35.8 47.5,35.8 47.5,35.8 47.6,35.8 47.6,35.7 47.5,35.7 
		47.5,35.7 47.4,35.7 47.4,35.7 47.4,35.6 47.4,35.6 47.4,35.6 47.3,35.6 47.3,35.5 47.3,35.5 47.2,35.4 47.1,35.4 47.1,35.4 
		47,35.4 46.9,35.5 46.9,35.5 46.9,35.5 46.8,35.6 46.8,35.6 46.7,35.6 46.7,35.6 46.7,35.6 46.7,35.7 46.7,35.7 46.7,35.7 
		46.6,35.7 46.5,35.7 46.5,35.8 46.4,35.8 46.3,35.9 46.3,35.9 46.2,35.9 46.2,35.9 46.1,36 46.1,36 46.1,36 46.1,36.1 46.1,36.1 
		46.1,36.2 46.1,36.2 46.1,36.2 46.1,36.2 46,36.2 45.8,36.3 45.8,36.3 45.7,36.3 45.7,36.3 45.7,36.3 45.6,36.3 45.6,36.3 
		45.5,36.3 45.4,36.3 45.4,36.3 45.4,36.3 45.4,36.3 45.3,36.3 45.3,36.3 45.3,36.3 45.2,36.3 45.2,36.2 45.1,36.2 45.1,36.2 
		45.1,36.3 45.1,36.3 45,36.3 45,36.3 44.9,36.3 44.9,36.3 44.8,36.4 44.7,36.4 44.7,36.5 44.7,36.6 44.6,36.6 44.7,36.7 44.7,36.8 
		44.7,36.8 44.8,36.9 44.8,36.9 44.9,36.9 44.9,36.9 44.9,37 45,37.1 45.1,37.3 45.1,37.4 45.1,37.4 45.1,37.4 45.1,37.5 45,37.6 
		45,37.6 45,37.6 45,37.6 45,37.7 45,37.7 45,37.7 45,37.7 45,37.8 45,37.8 44.9,38 44.9,38 44.8,38 44.8,38 44.8,38.1 44.8,38.1 
		44.8,38.2 44.8,38.2 44.8,38.2 44.7,38.3 44.7,38.3 44.7,38.4 44.7,38.4 44.7,38.4 44.7,38.5 44.7,38.5 44.2,38.6 44.1,38.6 
		44.1,38.5 44,38.5 43.9,38.5 43.8,38.6 43.8,38.6 43.7,38.6 43.1,38.6 43.1,38.6 43.1,38.6 43.2,38.9 43.3,38.9 43.4,39.1 
		43.4,39.1 43.5,39.2 43.5,39.2 43.6,39.3 43.6,39.3 43.7,39.4 43.8,39.4 43.8,39.4 43.8,39.5 43.8,39.6 43.8,39.7 43.8,39.7 
		43.8,39.8 43.8,39.9 43.8,39.9 43.9,40 44,40.1 44,40.2 44,40.3 44,40.4 44,40.4 44.1,40.5 44.2,40.5 44.3,40.5 44.3,40.6 
		44.3,40.6 44.3,40.7 44.3,40.8 44.3,40.8 44.3,40.8 44.4,40.8 44.4,40.8 44.5,40.8 44.6,40.8 44.7,40.8 44.7,40.8 44.8,40.9 
		44.8,40.9 44.8,41 44.8,41.1 44.8,41.1 44.9,41.1 44.8,41.2 44.8,41.2 44.7,41.4 44.6,41.5 44.6,41.6 44.6,41.6 44.6,41.7 
		44.6,41.8 44.6,41.8 44.5,41.8 44.5,41.8 44.5,41.9 44.3,41.9 44.3,41.9 44.3,42 44.2,42 44.2,42 44.1,42.1 44.1,42.1 44,42.2 
		44,42.2 43.9,42.3 43.9,42.3 43.9,42.4 43.9,42.5 43.9,42.6 43.9,42.6 43.9,42.6 43.9,42.6 44,42.6 44,42.7 43.9,42.7 43.8,42.9 
		43.8,43.1 43.7,43.1 43.8,43.2 43.8,43.2 43.7,43.3 43.7,43.3 43.7,43.3 43.8,43.4 44.1,43.8 44.1,43.8 44.2,43.9 44.2,43.9 
		44.2,43.9 44.3,44 44.3,44 44.4,44.3 44.4,44.3 44.5,44.4 44.5,44.4 44.6,44.4 44.7,44.3 44.7,44.3 44.7,44.3 44.7,44.3 44.8,44.2 
		44.9,44.2 44.9,44.3 44.9,44.3 45,44.2 45.4,44.4 45.4,44.4 45.4,44.4 45.4,44.5 45.4,44.5 45.4,44.5 45.3,44.5 45.3,44.6 
		45.3,44.6 45.4,44.6 45.4,44.6 45.4,44.6 45.5,44.7 45.7,44.7 45.7,44.7 45.8,44.7 45.9,44.7 45.9,44.7 46,44.7 46,44.8 46,44.8 
		46,44.9 46,44.9 46,44.9 46.1,44.9 46.2,44.9 46.3,45 46.3,45 46.3,45 46.3,44.9 46.4,44.9 46.4,44.9 46.4,44.9 46.4,44.8 
		46.4,44.8 46.5,44.8 46.5,44.8 46.5,44.8 46.7,44.9 46.7,44.9 46.7,45 46.7,45 46.7,45 46.7,45 46.8,45 47.2,45.2 47.2,45.3 
		47.3,45.2 47.4,45.1 47.4,45.1 47.7,45.1 47.7,45.1 47.8,45 47.9,45 47.9,45 47.9,45 48,44.9 48,44.9 48,44.9 48,44.9 48,44.8 
		48,44.8 48,44.7 48,44.7 48,44.7 48,44.7 48,44.6 48,44.6 48,44.6 48,44.6 48.1,44.5 48.1,44.5 48.2,44.5 48.2,44.5 48.2,44.4 
		48.2,44.4 48.3,44.4 48.3,44.3 48.5,44.3 48.6,44.3 48.6,44.3 48.7,44.4 48.7,44.4 48.7,44.4 48.7,44.5 48.6,44.5 48.6,44.5 
		48.6,44.5 48.6,44.5 48.6,44.6 48.6,44.6 48.6,44.7 48.6,44.7 48.6,44.7 48.7,44.7 48.8,44.6 48.8,44.6 48.8,44.5 48.9,44.5 
		49,44.5 49.2,44.4 49.2,44.4 49.2,44.4 49.2,44.3 49.2,44.3 49.2,44.3 49.2,44.2 49.2,44.2 49.2,44.2 49.2,44.1 49.2,44.1 
		49.2,44.1 49.2,44 49.2,44 49.2,44 49.2,43.9 49.2,43.9 49.2,43.9 49.1,43.9 49.1,43.8 49.1,43.8 49.1,43.8 49.1,43.8 49.1,43.8 
		49.1,43.8 49.1,43.7 49.1,43.7 49.1,43.7 49.1,43.7 49.1,43.6 49.1,43.6 49.1,43.6 49.1,43.6 49.1,43.5 49,43.5 49,43.5 49,43.5 
		49.1,43.4 49.1,43.4 49.1,43.3 49.3,43.3 49.3,43.3 49.3,43.2 49.4,43.2 49.4,43.2 49.4,43.1 49.4,43.1 49.5,43.1 49.5,43 49.5,43 
		49.6,43 49.6,43 49.6,42.9 49.6,42.9 49.6,42.9 49.6,42.8 49.7,42.8 49.7,42.8 49.8,42.8 49.8,42.8 49.8,42.8 49.9,42.8 49.9,42.8 
		49.9,42.8 49.9,42.7 49.9,42.7 49.9,42.7 49.9,42.7 50,42.6 50.1,42.5 50.2,42.5 50.2,42.5 50.2,42.4 50.3,42.4 50.3,42.4 
		50.3,42.3 50.3,42.3 50.3,42.3 50.3,42.3 50.5,42.3 50.6,42.3 50.7,42.2 50.7,42.2 50.7,42.2 50.8,42.2 50.8,42.2 50.8,42.2 
		50.8,42.2 50.9,42.1 50.9,41.8 50.9,41.8 51,41.7 51,41.7 51,41.6 51.1,41.6 51.1,41.6 51.1,41.6 51.2,41.6 51.2,41.6 51.2,41.6 
		51.2,41.5 51.3,41.5 51.3,41.4 51.2,41.4 51.2,41.4 51.1,41.4 51,41.4 51,41.3 51,41.3 51,41.3 51,41.3 51,41.2 51,41.2 51,41.2 
		51,41.2 51,41.2 50.9,41.2 50.9,41.1 50.9,41.1 50.9,41.1 50.9,41 50.9,41 50.9,41 51,41 51,41 51,41 51.1,41 51.1,41.1 51.2,41.1 
		51.2,41.1 51.3,41 51.3,41 51.3,41 51.3,40.9 51.2,40.9 51.2,40.9 51.2,40.8 51.2,40.8 51.2,40.6 51.2,40.6 51.2,40.6 51.3,40.5 
		51.3,40.5 51.3,40.5 51.3,40.4 51.4,40.4 51.4,40.4 51.4,40.4 51.5,40.4 51.5,40.4 51.5,40.4 51.6,40.4 51.6,40.4 51.6,40.5 
		51.7,40.5 51.8,40.5 51.8,40.5 	"/>
	
		<polygon id="Catalonia" fill-rule="evenodd" clip-rule="evenodd" fill="#F47C58" stroke="#F9F9FA" stroke-width="0.25" stroke-linecap="round" stroke-linejoin="round" points="
		75.7,28 75.6,28 75.6,28 75.6,28 75.5,28 75.5,28 75.4,28 75.3,27.9 75.3,27.9 75.3,27.8 75.3,27.8 75.3,27.7 75.3,27.6 75.2,27.6 
		75.1,27.6 75,27.6 75,27.6 74.9,27.6 74.9,27.6 74.9,27.5 74.9,27.5 74.8,27.5 74.8,27.5 74.7,27.5 74.7,27.5 74.6,27.5 74.5,27.5 
		74.4,27.5 74.4,27.5 74.3,27.5 74.3,27.6 74.2,27.7 74.1,27.7 74.1,27.7 74,27.7 73.9,27.7 73.8,27.7 73.7,27.8 73.7,27.8 
		73.7,27.9 73.8,28 73.8,28 73.7,28 73.6,28 73.5,27.9 73.4,27.9 73.4,28 73.4,28 73.3,28 73.3,28 73.3,28 73.2,28 73.2,28 
		73.1,27.9 73.1,27.9 73,27.8 73,27.8 72.9,27.8 72.7,27.7 72.7,27.7 72.6,27.6 72.5,27.6 72.3,27.7 72.2,27.7 72.1,27.7 72.1,27.7 
		72.1,27.8 72.1,27.8 72,27.9 72,27.9 71.9,27.9 71.9,27.9 71.8,28 71.8,27.9 71.7,27.9 71.7,27.9 71.6,27.8 71.6,27.7 71.6,27.6 
		71.5,27.6 71.5,27.6 71.4,27.5 71.2,27.4 71.1,27.4 71,27.4 70.9,27.4 70.9,27.3 70.9,27.3 70.9,27.3 70.9,27.3 70.9,27.4 
		70.8,27.4 70.8,27.4 70.8,27.4 70.8,27.3 70.7,27.3 70.7,27.3 70.7,27.4 70.7,27.5 70.6,27.5 70.4,27.5 70.4,27.6 70.4,27.6 
		70.4,27.6 70.3,27.6 70.3,27.6 70.1,27.6 70.1,27.6 70.1,27.5 70,27.4 70,27.4 70.1,27.4 70.1,27.3 70.1,27.2 70.1,27.2 70,27.2 
		70,27.2 70,27.1 70.1,27.1 70,27 70,27 70,27 70.1,26.9 70,26.9 70,26.7 69.9,26.7 69.9,26.6 69.8,26.6 69.8,26.6 69.8,26.5 
		69.8,26.5 69.7,26.5 69.4,26.5 69.3,26.5 69.2,26.5 69.2,26.4 69.1,26.4 69.1,26.3 69.1,26.3 69,26.2 69,26.2 68.7,26.2 68.7,26.2 
		68.6,26.1 68.6,26.1 68.6,26.1 68.6,26.2 68.5,26.2 68.5,26.2 68.5,26.1 68.4,26.1 68.3,26.1 68.2,26 68.2,26 68.1,26 68,26 
		67.9,25.9 67.9,25.9 67.8,25.9 67.7,25.9 67.7,26 67.7,26.1 67.7,26.2 67.7,26.3 67.7,26.3 67.7,26.3 67.7,26.3 67.7,26.3 
		67.7,26.4 67.8,26.5 67.8,26.5 67.8,26.5 67.8,26.6 67.9,26.7 67.9,26.8 67.9,26.8 67.9,26.8 68,26.9 68,26.9 68.1,26.9 68.1,26.9 
		68.1,26.9 68.1,26.9 68.1,27 68.1,27 68.1,27 68.1,27.1 68,27.1 68,27.1 68,27.1 68,27.2 68,27.2 68,27.2 68,27.2 68,27.3 68,27.3 
		68,27.3 68,27.3 67.9,27.3 67.9,27.3 67.9,27.3 67.9,27.4 67.9,27.4 67.9,27.4 67.9,27.5 67.9,27.5 67.9,27.5 67.9,27.6 67.9,27.6 
		67.9,27.6 68,27.6 68,27.6 68,27.7 68,27.8 68,27.9 68,28 68,28.1 68,28.1 68,28.1 68,28.2 68,28.3 68,28.3 68,28.4 67.9,28.4 
		67.9,28.4 67.9,28.4 67.9,28.6 67.9,28.6 67.9,28.6 67.9,28.7 67.9,28.7 67.9,28.7 67.9,28.8 67.9,28.9 67.9,28.9 67.9,29 67.8,29 
		67.8,29 67.8,29.2 67.7,29.2 67.7,29.3 67.7,29.3 67.7,29.3 67.7,29.4 67.7,29.4 67.7,29.4 67.6,29.4 67.6,29.4 67.6,29.5 
		67.6,29.5 67.6,29.5 67.5,29.5 67.5,29.5 67.5,29.6 67.5,29.6 67.5,29.6 67.5,29.6 67.5,29.7 67.5,29.7 67.6,29.7 67.6,29.7 
		67.6,29.9 67.6,29.9 67.5,29.9 67.5,29.9 67.5,30 67.4,30 67.4,30 67.4,30.1 67.4,30.1 67.3,30.1 67.3,30.1 67.3,30.1 67.3,30.1 
		67.2,30.2 67.2,30.3 67.2,30.3 67.1,30.3 67,30.3 67,30.3 67,30.4 67,30.4 67,30.4 67,30.4 66.9,30.4 66.9,30.5 66.9,30.5 
		66.8,30.6 66.8,30.7 66.8,30.7 66.8,30.7 66.8,30.8 66.8,30.9 66.8,30.9 66.8,31 66.9,31 67,31 67,31 67,31 67,31 67.1,31 
		67.1,31.1 67.1,31.1 67.1,31.1 67.1,31.1 67.1,31.2 67.1,31.2 67.1,31.2 67,31.3 67,31.3 67,31.3 67,31.4 67,31.4 67,31.4 67,31.4 
		66.9,31.4 66.9,31.4 66.8,31.5 66.8,31.5 66.8,31.6 66.8,31.6 66.8,31.7 66.7,31.8 66.8,31.9 66.8,31.9 66.8,31.9 66.9,32 66.9,32 
		66.9,32.1 66.8,32.2 66.8,32.3 66.9,32.4 66.8,32.4 66.8,32.5 66.8,32.5 66.7,32.5 66.7,32.5 66.7,32.6 66.7,32.6 66.7,32.6 
		66.7,32.7 66.7,32.7 66.6,32.8 66.6,32.8 66.5,32.8 66.5,32.8 66.5,32.8 66.5,32.8 66.5,32.8 66.4,32.8 66.4,32.9 66.4,32.9 
		66.4,32.9 66.4,32.9 66.4,33 66.4,33 66.4,33 66.4,33.1 66.5,33.2 66.5,33.2 66.5,33.2 66.6,33.3 66.6,33.4 66.6,33.5 66.6,33.6 
		66.6,33.6 66.6,33.6 66.6,33.7 66.5,33.7 66.5,33.7 66.5,33.8 66.5,33.8 66.5,33.9 66.5,33.9 66.5,33.9 66.6,34 66.6,34 66.6,34.1 
		66.6,34.1 66.6,34.1 66.5,34.2 66.5,34.2 66.5,34.3 66.3,34.4 66.3,34.4 66.3,34.4 66.4,34.4 66.4,34.4 66.4,34.4 66.5,34.5 
		66.5,34.5 66.5,34.5 66.6,34.6 66.6,34.6 66.6,34.6 66.6,34.6 66.6,34.7 66.6,34.7 66.6,34.7 66.6,34.8 66.7,34.8 66.7,34.9 
		66.9,34.9 67,35 67.1,35 67.1,35 67.1,35.1 67.1,35.1 67.1,35.1 67.1,35.1 67.3,35.2 67.3,35.2 67.4,35.1 67.5,35 67.5,34.9 
		67.6,34.9 67.8,34.8 67.9,34.8 68,34.8 67.9,35 67.8,35 67.7,35 67.5,35 67.6,35.1 67.7,35.1 67.8,35.1 67.9,35 68,34.8 68.1,34.7 
		68.3,34.6 68.3,34.6 68.4,34.5 68.4,34.4 68.3,34.4 68.3,34.4 68.2,34.4 68.1,34.3 68.1,34.2 68.1,34.2 68,34.2 68.1,34.2 
		68.1,34.3 68.1,34.3 68,34.3 67.9,34.3 67.9,34.2 67.9,34.1 68.2,33.8 68.4,33.5 68.7,33.2 68.8,33.2 68.9,33.1 69.1,33.1 
		69.2,33.1 69.2,33.1 69.3,33.1 69.3,33.1 69.3,33.1 69.3,33.1 69.4,33 69.4,32.9 69.6,32.9 70.4,32.6 70.6,32.6 71.2,32.4 
		71.3,32.4 71.4,32.4 71.4,32.4 71.6,32.3 71.8,32.3 72,32.3 72.2,32.2 72.3,32.1 72.3,31.9 72.5,31.7 72.6,31.6 72.7,31.5 
		72.9,31.4 73.1,31.3 73.1,31.2 73.7,30.9 74.1,30.8 74.1,30.7 74.2,30.7 74.2,30.7 74.2,30.7 74.2,30.6 74.3,30.6 74.3,30.6 
		74.3,30.6 74.4,30.6 74.5,30.5 74.6,30.5 74.6,30.4 74.9,30.2 75,30.2 75,30.1 75.1,30 75.2,30 75.3,29.9 75.4,29.8 75.4,29.7 
		75.5,29.6 75.5,29.5 75.5,29.5 75.4,29.4 75.4,29.4 75.4,29.4 75.4,29.3 75.4,29.2 75.4,29.2 75.4,29.1 75.4,29.1 75.3,29 
		75.3,28.9 75.2,28.8 75.1,28.8 75.1,28.7 75.1,28.6 75.1,28.5 75.2,28.4 75.2,28.3 75.3,28.3 75.3,28.3 75.4,28.4 75.5,28.4 
		75.6,28.4 75.6,28.3 75.6,28.3 75.6,28.3 75.6,28.2 75.7,28.2 75.7,28 	"/>
	
		<path id="Castile_-_Leon" fill="#F47C58" stroke="#F9F9FA" stroke-width="0.25" stroke-linecap="round" stroke-linejoin="round" d="
		M57.2,26.4L57.2,26.4l0.3,0.1l0.2,0l0.2,0.1l0.2,0l0,0l0,0l0,0l0,0l0,0l0,0l0,0l0-0.1l0,0l0,0l0,0l0,0l0,0l0,0l0,0l0,0l0,0l0,0l0,0
		l0,0l0,0l0,0l0,0l0,0l0,0l0,0l0,0l0,0l0,0l0,0l0-0.1l0,0l0,0l0,0l0,0l0,0l0,0l0,0l0,0l0,0l0,0l0,0l0,0l0,0l0,0l-0.2-0.1l0,0l0,0
		l-0.1,0l-0.2,0l0,0l0,0l-0.1,0.1l0,0.1l0,0L57.2,26.4L57.2,26.4z M60.4,30.4L60.4,30.4L60.4,30.4L60.4,30.4l-0.1-0.1l0-0.1l0,0l0,0
		l0,0l0-0.1l0,0l0,0l0,0l0,0l0,0l-0.1-0.1l0-0.1l0-0.2l-0.1,0.1l0,0l-0.1,0l0,0l0,0l-0.1,0l0,0l0,0l0,0l-0.1,0l-0.1,0l-0.2,0l0,0
		l0,0l0-0.1l0,0l0,0l0,0l0,0l0,0l0,0l0,0l0,0l0-0.1l-0.1-0.1l0,0l0,0l0,0l0,0l0,0l0,0l0,0l0,0l0,0l0,0l0,0l0,0l-0.1,0l-0.1,0L59,29
		l0,0l0,0l0,0l0,0l0,0l0,0l0,0l0,0l0,0l-0.2,0l-0.2,0l-0.1,0l0,0l-0.1,0l0,0l-0.1,0l0,0l0,0l0,0l0,0.1l0,0.1l0,0l0,0l0,0l0,0l0,0
		l0,0l0,0.1l0,0.1l0,0l0,0l0,0l-0.1,0l-0.1,0l-0.1,0l0,0h0l0,0l-0.1,0l0,0l0,0l0,0l0,0l0,0l0,0l0,0l0,0l0,0l0,0l0,0l0,0l0-0.1l0,0
		l0,0l0,0l0,0l0,0l-0.1,0l0,0l0,0l0,0l0,0l0,0l0,0l0,0l0,0l0,0l0,0l-0.1,0.1l-0.1,0l-0.1,0l0-0.1l0,0l0,0l0,0l0,0l0,0l0,0l0,0l0,0
		l0,0l0,0l0,0l0,0l0,0l0,0l0,0l0,0l0,0l0,0l0-0.1l0,0l-0.1-0.2l0,0l0,0l0,0l0-0.1l0,0l0,0l0,0l0,0l0,0l0,0l0,0l0-0.1l0,0l0,0l0,0
		l0,0l0,0l0.1,0l0,0l0-0.1l0,0l0,0l0,0l0-0.1l0-0.1l0,0l0,0l0,0l0,0l0,0l0,0l0,0l0,0l0-0.1l0,0l0,0l0,0l0,0l0,0l0,0l0,0l0,0l0,0l0,0
		l0.1-0.1l0,0l0,0l0,0l0,0l0,0l0,0l0,0l0,0l0,0l0.1,0l0.2,0l0,0l0.1,0l0.2-0.1l0,0l0,0L57,26.5l-0.1,0l-0.1-0.1l0,0l-0.1,0l-0.1-0.1
		l-0.1-0.1l-0.1,0l-0.1,0l0,0l0,0l0,0l0,0l0,0l0,0l0,0l0,0l0,0l0,0l0,0l0,0l0-0.1l0,0l0,0l0,0l0,0l0,0l0,0.1l0,0l0,0l-0.1,0l0,0l0,0
		l0,0l0,0l0,0l0,0l0,0l0,0l0,0l0,0L56,25.8l0,0l0,0l0,0l0,0l0,0l0,0l0-0.1l0,0l0,0l0,0l0.1,0l0,0l0,0l0,0l0,0l0,0.1l0,0l0,0l0,0
		l0.1,0l0,0l0,0l0,0l0,0l0.1,0l0,0l0,0l0,0h0l0,0l0,0l0,0l0,0l0,0l0,0l-0.1,0l0,0l0,0l0,0l0,0l0,0l0.1,0l0,0l0,0l0,0l0,0l0,0l0,0
		l0,0l0,0l-0.1,0l0,0l0,0l0,0l0,0l0,0l-0.1,0l-0.1,0.1l0,0l0,0l-0.1,0l-0.1,0l0,0l0,0l0,0l0,0l0,0l0-0.1l0-0.1l0,0l0,0l-0.1,0l0,0
		l0,0l0-0.1l0,0l0.1,0l0,0l0,0l0,0l-0.1,0l-0.1,0l-0.1,0l-0.1,0l0,0l0,0l0,0l0,0l-0.3,0.2l-0.2,0.1l-0.1,0l-0.1,0l-0.1,0l-0.1,0
		l-0.1,0l-0.1,0l-0.1,0l0,0l0,0l0,0l0,0l0,0l-0.1,0.1l-0.1,0.1l0,0l0,0l-0.1,0l0,0l0,0l0,0l-0.1,0l0,0l0,0l0,0l0,0l0,0l0,0l0,0l0,0
		l0,0l0,0L54,25.2l-0.1,0l0,0l0,0l0,0l0,0l-0.1,0.2l0,0l0,0l0,0l0,0l0,0l0,0l0,0l0.1,0l0.1,0l0,0l0-0.1l0,0l0,0l0,0l0,0l0,0l0,0l0,0
		l0,0l0,0l-0.1,0.1l-0.1,0l0,0l0,0l0,0l0,0l0,0l0,0l0,0l0,0l0,0l0,0l0,0l0,0l0,0l0,0l0,0l0,0l0,0l0,0l0,0l0,0l0,0l0,0l0,0l0,0l0,0
		l-0.1,0l-0.1,0L54,26.2l0,0l-0.1,0l0,0l-0.1,0l0-0.1l0,0l0-0.1l0,0l0,0l0,0l0,0l-0.1,0.2l-0.1,0l0-0.1l0,0l0,0l0,0l-0.1,0l0,0
		l-0.1-0.1l0,0l0,0l0,0l0,0l0.1,0l0,0l0,0l0,0l0,0l0,0l0,0l0,0l-0.1,0l0,0l0,0l0,0l0,0l0,0l0,0l0,0l0,0l0,0l0,0l0,0l0,0l0,0l0,0
		l0-0.1l0-0.1l0,0l0,0l0,0l0,0l-0.3-0.1l0,0l0,0l0,0l0,0l-0.1-0.1l0,0l-0.1,0l0,0l-0.1,0l-0.1,0l0,0l0,0l0,0l-0.1,0.1l0,0l-0.1,0
		l-0.1,0l-0.2,0l0,0l-0.1,0l0-0.1l0,0L51.5,25l0,0l0,0l-0.1-0.1l0,0l0,0l0-0.1l0,0l0-0.2l-0.1-0.1l-0.1,0l0,0l0,0l0,0l-0.2,0.1l0,0
		l-0.1,0.1l-0.1,0l-0.1,0l0,0l0,0.1l0,0l0,0l0,0.1l0,0l0,0l0,0l0,0l0,0l0,0l-0.2,0.1l-0.3,0l-0.2,0l0,0l0,0l0,0.1l0,0l0,0l0,0
		l-0.2,0l0,0l0,0l0,0l0,0l0,0l-0.1,0l-0.1,0l0,0l0,0l0,0l0,0l-0.1,0l0,0l-0.1,0l-0.1,0l0,0l-0.1,0l0,0l0,0l0,0l0,0l0,0l0,0l0,0l0,0
		l0,0l0,0l0,0l0,0l0,0l0,0l0,0l0,0l-0.1,0l0,0l0,0l-0.1,0l0,0l0,0l0,0l0,0l-0.1,0l0,0l0,0l0,0l0-0.1l0,0l0,0l-0.1,0l0,0l-0.1,0l0,0
		l0,0l0,0l0,0l0,0l-0.1,0l0,0l0,0l-0.1,0l-0.1,0l0,0l0,0l0,0.1l0,0l0,0l-0.1,0l-0.1-0.1l0,0l-0.1,0l0,0l0,0l-0.1,0l-0.1,0l0,0l0,0
		l0,0l0,0l0,0v0l0,0l0,0l-0.1,0l-0.1,0l0,0l0,0l0,0l0,0l0.1,0l0,0l0,0l0,0l-0.2,0.1l0,0l-0.1,0l0,0l-0.1,0l0,0l0,0l0,0l-0.1,0
		l-0.1,0l-0.1,0l0,0l0,0l0,0l0,0l0,0l0,0l0,0l-0.1,0l-0.1,0l0,0l0,0l0,0l-0.1,0.1l0,0.1l0,0.1l0,0l0,0l0,0l-0.1,0.1L45,26.3l0,0l0,0
		l0,0l0,0l0,0l-0.1,0.1l-0.1,0l0,0l0,0l0,0l0,0l0,0.1l0,0l0,0l0,0l0,0l0,0l0,0l0,0l0,0l0,0l0,0.1l0,0l-0.1,0.1l0,0l0,0.1l0,0.1
		l0.1,0l0.1,0l0,0l0,0l0,0l0,0l0,0l0.1,0l0,0l0,0l0,0l0,0l0.2,0.1l0,0.1l0,0l0,0.1l0,0l0,0l0,0l0,0l0,0l0.1,0.1l0.1,0.1l0,0.1l0,0
		l0,0l0,0l0,0.1l0,0l0,0l0,0l0,0l0,0.1l0,0l0,0.1l0,0l0,0.1l0,0l-0.1,0l0,0l-0.1,0l0,0l0,0L45,28.7l0,0l0,0l0,0.1l0,0l0,0l0,0l0,0
		L44.7,29l0,0l0,0l0,0l0,0l0,0l0,0l0.1,0l0,0l0,0l0,0l0,0l-0.1,0.1l0,0l0,0l0,0l0,0l0,0l0,0l0.1,0.1l0.1,0l0.2,0l0.1,0l0-0.1l0.1,0
		l0.1,0.2l0.1,0l0.2,0l0.1,0l0-0.1l0.1,0l0,0l0,0.1l0,0.2l0,0l0.1,0l0.1,0l0,0.1l-0.1,0.3l0,0l0,0l0,0l0,0l0,0l0,0l0,0.1l0,0.1
		l0,0.1l0.1,0l0,0l0,0l0,0l0,0l0,0l0,0l0.2,0.1l0.1,0.1l0.1,0.1l0.1,0.1l0,0.1l0,0L47,31.3l-0.1,0.1l0,0l0,0l0,0l0,0l-0.1,0.2l0,0
		l-0.1,0l0,0l0,0l0,0l0,0l0,0l0,0l0,0l0,0l0,0L46.5,32l-0.1,0.1l-0.1,0.1l-0.2,0.1l0,0l-0.2,0l-0.1,0l0,0l-0.1,0.2l0,0.1l0,0
		l-0.1,0.1l0,0.1l0,0l0,0.1l0,0.1l-0.1,0.2l0,0l-0.1,0l-0.2,0l-0.1,0l0,0l0,0.1l0,0.1l0,0.1l0,0l0.1,0.1l0,0.1l0.1,0.2l0,0.1l0,0
		l0,0l0,0l0,0.1l0,0l0,0l0,0.1l0,0l0,0l0,0l0,0l0,0v0.1l0,0.1l0,0.1l0,0.1l0,0.1l0,0l0,0.1L45.2,35l0,0.1l0,0.1l0,0l0,0l0,0.1l0,0.1
		l0,0l-0.1,0.1l-0.1,0.1l0,0.1l0.1,0.1l0.1,0.1L45.3,36l0,0l-0.1,0.1l0,0l0,0l0,0l0,0l0.1,0.1l0,0l0,0l0,0l0,0l0,0l0,0l0,0l0.1,0
		l0.1-0.1l0,0l0.1,0l0,0l0,0l0,0l0,0l0.2,0l0,0l0,0l0,0l0,0l0,0l0-0.1l0,0l0,0l0,0l0.1-0.1l0,0l0.1,0l0,0l0.1,0l0.1-0.1l0,0l0,0
		l0.1,0l0,0l0,0l0,0l0,0l0,0l0,0l0,0l0.1,0l0,0l0,0l0.1-0.1l0,0l0,0l0.1,0l0.1,0.1l0,0l0,0.1l0,0l0.1,0l0,0l0,0l0,0l0,0l0.1,0l0,0
		l0,0l0,0l0,0l0,0l0,0l0,0l0,0l0,0l0,0l0,0l0,0l0.1,0l0.1,0l0,0l0,0l0,0l0.1,0.1l0.1,0l0,0l0,0l0,0l0,0l0,0l0,0l0,0l0,0l0,0l0.1,0
		l0.1,0l0,0l0,0l0,0l0,0l0,0l0,0l0,0l0,0l0,0l0.1,0l0.1,0l0.1,0l0.1,0.1l0.1,0.1l0.1,0.1l0.1,0l0.1,0l0.1,0l0,0l0,0l0,0l0,0l0,0
		l0.1-0.1l0.2,0l0.1,0l0,0l0,0l0,0.1l0,0l0,0l0,0.2l0,0.1l0,0l0,0l0.1,0.1l0.3,0l0.1,0l0,0l0.1,0l0,0l0,0l0,0l0,0l0.1-0.1l0,0l0,0
		l0,0l0,0l0.1,0l0,0l0,0l0,0.1l0,0l0,0l0.1,0l0,0l0.1,0l0,0l0,0l0,0l0,0l0,0l0,0l0.1,0l0,0l0.1,0l0,0l0,0l0,0l0,0l0-0.1l0,0l0.1,0
		l0.1,0l0.1,0l0,0l0,0l0,0l0,0l0,0l0,0.1l0,0l0,0l0,0l0.1,0l0,0l0,0l0.1,0l0.1,0l0-0.1l0-0.1l0-0.1l0,0l0,0l0,0l0-0.1l0,0l0,0l0,0
		l0,0l0,0l0,0.1l0,0l0,0l0.1,0l0,0l0,0l0,0l0-0.1l0,0l0,0l0,0l0-0.1l0,0l0,0l0,0l0,0l0,0l0,0l0,0l0,0l0,0l0,0l0,0l0.1,0l0,0l0,0
		l0-0.1l0-0.1l0,0l0,0l0,0l0,0l0,0l0,0l0,0l0,0l0-0.1l0,0l0,0l0,0l0,0l0,0l0,0l0,0l0,0l0,0l0,0l0,0l0,0l0,0l0,0l0,0l0,0l0,0l0,0l0,0
		l0,0l0,0l0.1,0l0.1,0l0,0l0,0l0,0l0,0l0-0.1l0-0.1l0,0l0-0.1l0.1-0.1l0,0l0.1-0.2l0,0l0.1,0l0,0l0,0l0,0l0,0l0.1,0l0,0l0,0l0,0l0,0
		l0-0.1l0,0l0-0.1l0,0l0,0l0,0l0,0l0,0l0-0.1l0,0l0,0l0-0.1l0-0.1l0,0l0,0l0,0l0.3-0.1l0,0l0,0l0-0.1l0,0l0,0l0-0.1l0,0l0,0l0.1-0.1
		l0.1-0.1l0.1-0.1l0,0l0,0l0,0l0.1-0.1l0.1,0l0.1,0l0,0l0.2-0.2l0.1,0l0,0l0,0l0-0.1l0,0l0,0l0,0l0,0l0,0l0.1,0l0.1,0l0.1,0l0,0
		l0.1,0l0.1-0.1l0.1,0l0.3,0.1l0.1,0l0.2,0l0.1,0l0,0l0,0l0,0l0,0l0,0l0,0l0,0l0.1,0l0,0l0,0l0,0l0,0.1l0,0l0,0l0.1,0l0.1,0l0,0l0,0
		l0,0l0,0l0,0l0,0l0,0l0,0l0,0l0.1,0l0.1,0l0,0l0,0l0,0l0,0l0,0l0,0l0,0l0,0l0,0l0,0l0,0l0,0l0,0l0.1,0l0,0l0,0l0,0l0,0l0,0l0,0l0,0
		l0,0l0,0l0,0l0,0l0,0l0,0l0,0l0,0l0,0l0,0l0,0l0,0l0,0.1l0,0l0,0l0,0l0.1,0l0,0l0.1-0.1l0,0l0,0l0,0l0.1,0l0,0l0.1,0l0,0l0,0l0,0
		l0,0l0.1,0l0.1,0l0,0l0,0l0.1-0.1l0,0l0,0l0,0l0,0l0.1,0l0,0l0,0l0,0l0,0l0,0l0,0l0,0l0-0.1l0-0.1l0-0.1l0,0l-0.1-0.1l0,0l0,0l0,0
		l-0.1,0l0,0l0,0l0,0l0-0.1l0-0.2l0,0l0,0l0-0.1l0-0.1l0-0.1l0,0l0,0l0,0l0,0l0,0l0,0l0-0.1l0,0l0,0l0,0l0,0l0,0l0,0l0.1,0l0.1,0
		l0,0l0,0l0,0l0,0l0,0l0,0l0,0l0,0l0,0l0,0l0.1,0l0,0l0,0l0,0l0,0l0,0l0-0.2l0,0l0,0l0,0l0,0l0-0.1l0-0.1l0-0.1l0,0l0,0l0,0l0,0l0,0
		l0,0l0,0l0,0l0,0l0,0l0.1,0l0,0l0,0l0,0l0.1-0.1l0.1,0l0,0l0,0l0,0l0,0l0,0l0,0l0,0l0-0.1l0,0L60.4,30.4L60.4,30.4L60.4,30.4z"/>
	
		<polygon id="Castile_-_La_Mancha" fill-rule="evenodd" clip-rule="evenodd" fill="#F47C58" stroke="#F9F9FA" stroke-width="0.25" stroke-linecap="round" stroke-linejoin="round" points="
		63,42.4 63,42.3 63,42.3 63,42.3 62.9,42.2 62.9,42.2 62.9,42.1 62.9,42.1 62.9,42.1 63,42 63,42 63,41.9 63,41.9 63,41.9 63,41.9 
		63,41.8 63,41.7 63,41.7 63,41.6 63,41.6 62.9,41.4 62.9,41.4 62.8,41.4 62.8,41.4 62.8,41.4 62.8,41.4 62.7,41.4 62.7,41.4 
		62.6,41.4 62.5,41.5 62.4,41.5 62.4,41.4 62.3,41.4 62,41 62,41 62,41 62,40.9 62,40.9 62,40.9 62,40.8 62,40.8 62,40.7 62.1,40.7 
		62.1,40.7 62.1,40.6 62.1,40.6 62.1,40.6 62.2,40.5 62.2,40.5 62.2,40.5 62.2,40.4 62.2,40.4 62.2,40.4 62.2,40.3 62.2,40.3 
		62.2,40.3 62.2,40.2 62.2,40.2 62.2,40.1 62.2,40.1 62.3,40.1 62.3,40 62.2,40 61.8,39.9 61.8,39.9 61.8,39.9 61.8,39.9 61.6,39.8 
		61.6,39.8 61.5,39.8 61.5,39.8 61.5,39.8 61.5,39.8 61.4,39.8 61.4,39.8 61.4,39.7 61.4,39.7 61.4,39.7 61.4,39.7 61.4,39.7 
		61.4,39.7 61.4,39.6 61.4,39.6 61.3,39.6 61.3,39.6 61.3,39.6 61.3,39.6 61.3,39.6 61.3,39.5 61.2,39.5 61.2,39.5 61.2,39.5 
		61.2,39.5 61.2,39.4 61.2,39.4 61.3,39.4 61.2,39.3 61.3,39.3 61.3,39.3 61.3,39.3 61.3,39.3 61.3,39.3 61.3,39.3 61.3,39.2 
		61.3,39.2 61.3,39.2 61.3,39.2 61.3,39.2 61.3,39.1 61.3,39.1 61.3,39.1 61.3,39.1 61.3,39.1 61.3,39.1 61.3,39.1 61.3,39.1 
		61.3,39 61.3,39 61.3,39 61.3,39 61.4,38.9 61.5,38.7 61.5,38.7 61.6,38.6 61.6,38.6 61.7,38.5 61.7,38.5 61.7,38.5 61.8,38.6 
		61.8,38.6 61.8,38.6 61.9,38.6 61.9,38.6 61.9,38.6 61.9,38.6 62,38.5 62,38.5 62,38.5 62,38.4 62,38.4 62,38.3 62,38.3 62,38.2 
		62.1,38.1 62.1,38.1 62.1,38 62.2,37.8 62.2,37.8 62.2,37.7 62.2,37.7 62.2,37.6 62.2,37.6 62.2,37.6 62.2,37.5 62.2,37.5 
		62.2,37.5 62.3,37.4 62.3,37.4 62.3,37.3 62.2,37.3 62.2,37.3 62.2,37.3 62.1,37.3 62.1,37.3 62.1,37.3 62,37.3 62,37.3 61.9,37.3 
		61.7,37.3 61.7,37.3 61.7,37.2 61.6,37.2 61.6,37 61.5,36.9 61.5,36.9 61.5,36.9 61.4,36.8 61.4,36.8 61.4,36.8 61.4,36.7 
		61.4,36.7 61.5,36.6 61.5,36.6 61.5,36.6 61.5,36.6 61.4,36.5 61.4,36.6 61.3,36.5 61.3,36.5 61.2,36.5 61.2,36.5 61.2,36.5 
		61.1,36.5 61.1,36.5 60.8,36.2 60.7,36.2 60.7,36.2 60.6,36.2 60.6,36.2 60.6,36.2 60.6,36.1 60.6,36.1 60.6,36 60.6,36 60.5,35.8 
		60.4,35.8 60.3,35.7 60.4,35.7 60.4,35.7 60.4,35.7 60.5,35.5 60.5,35.5 60.6,35.4 60.6,35.4 60.7,35.4 60.7,35.4 60.7,35.2 
		60.7,35.2 60.7,35 60.7,35 60.8,35 60.8,35 60.9,35 60.9,35 60.9,35 61,35.1 61,35.1 61,35.1 61.1,35 61.1,35 61.1,35 61.1,35 
		61.1,34.9 61.1,34.8 61.1,34.8 61.1,34.7 61.2,34.7 61.2,34.6 61.2,34.6 61.1,34.5 61.1,34.5 61.1,34.5 61.1,34.4 61.1,34.4 
		61.1,34.3 61.1,34.3 61.2,34.2 61.2,34.2 61.1,34.1 61.1,34.1 61.1,34.1 61,34 61,34 61,33.9 60.9,33.9 60.9,33.8 60.9,33.7 
		60.9,33.6 60.9,33.6 60.8,33.5 60.8,33.5 60.8,33.4 60.7,33.4 60.6,33.3 60.5,33.2 60.5,33.2 60.5,33.2 60.5,33.1 60.5,33.1 
		60.3,33 60.2,32.9 60.1,32.8 60,32.8 60,32.8 60,32.7 59.9,32.7 59.9,32.7 59.6,32.8 59.6,32.8 59.6,32.9 59.6,33 59.6,33 59.6,33 
		59.6,33.1 59.6,33 59.5,33 59.5,33 59.5,33 59.4,32.9 59.4,32.9 59.4,32.9 59.4,32.9 59.3,32.9 59.2,33 59.2,33 59.2,33 59.1,33 
		59.1,33 59,33 59,33.1 59,33.1 58.9,33.1 58.8,33.1 58.8,33.1 58.7,33.1 58.7,33.1 58.7,33 58.6,33.1 58.5,33.1 58.5,33.1 
		58.4,33.1 58.4,33 58.4,33 58.4,33 58.3,32.9 58.3,32.9 58.3,32.9 58.3,32.9 58.3,32.9 58.2,32.9 58.2,32.8 58.2,32.8 58.2,32.8 
		58.2,32.8 58.2,32.7 58.1,32.7 58.1,32.8 58.1,32.8 58,32.8 58,32.8 58,32.7 58,32.7 58,32.7 58,32.6 58,32.6 57.9,32.6 57.9,32.6 
		58,32.6 58,32.5 58,32.5 58,32.5 58,32.5 57.9,32.5 57.9,32.5 57.9,32.5 57.9,32.5 57.9,32.4 57.8,32.4 57.7,32.4 57.7,32.4 
		57.6,32.4 57.6,32.3 57.6,32.3 57.6,32.3 57.5,32.3 57.5,32.3 57.5,32.3 57.5,32.3 57.4,32.3 57.4,32.3 57.2,32.3 57.2,32.3 
		57.2,32.3 57.2,32.2 57.2,32.2 57.1,32.1 57.1,32.1 57.1,32.1 57,32.1 57,32.1 57,32.1 57,32.1 56.9,32.1 56.9,32.2 56.9,32.2 
		56.8,32.2 56.6,32.2 56.5,32.2 56.2,32.2 56.1,32.2 56,32.3 55.9,32.3 55.9,32.3 55.8,32.4 55.6,32.3 55.5,32.3 55.5,32.3 
		55.5,32.3 55.5,32.4 55.6,32.4 55.6,32.4 55.5,32.5 55.5,32.5 55.5,32.5 55.4,32.5 55.2,32.7 55.2,32.7 55.1,32.7 55.1,32.8 
		55.3,32.9 55.3,33 55.3,33 55.3,33 55.4,33 55.4,33 55.5,33.1 55.5,33.2 55.5,33.3 55.5,33.4 55.5,33.4 55.5,33.5 55.5,33.5 
		55.5,33.5 55.5,33.6 55.5,33.6 55.4,33.7 55.4,33.7 55.4,33.7 55.4,33.8 55.4,33.8 55.4,33.8 55.4,33.9 55.4,33.9 55.4,33.9 
		55.4,33.9 55.4,33.9 55.4,33.9 55.3,34 55.3,34.1 55.3,34.1 55.3,34.1 55.3,34.2 55.3,34.2 55.3,34.2 55.3,34.2 55.3,34.2 
		55.4,34.2 55.4,34.3 55.4,34.3 55.4,34.3 55.4,34.4 55.5,34.4 55.5,34.5 55.4,34.5 55.4,34.5 55.4,34.6 55.4,34.6 55.4,34.6 
		55.4,34.6 55.5,34.6 55.5,34.6 55.6,34.6 55.6,34.6 55.6,34.6 55.6,34.6 55.6,34.6 55.7,34.7 55.7,34.8 55.7,34.8 55.8,34.8 
		55.8,34.8 55.8,34.8 55.8,34.8 55.8,34.8 55.8,35 55.8,35 55.8,35 55.9,35 55.9,35.1 55.9,35.1 55.9,35.1 55.9,35.1 55.9,35.2 
		55.9,35.2 55.9,35.2 55.9,35.2 55.9,35.2 55.9,35.2 55.9,35.2 56,35.2 56,35.2 56,35.2 56,35.2 56.1,35.2 56.1,35.2 56.1,35.2 
		56.2,35.3 56.2,35.3 56.2,35.3 56.2,35.3 56.2,35.4 56.2,35.5 56.2,35.6 56.2,35.6 56.2,35.6 56.3,35.6 56.3,35.6 56.3,35.7 
		56.4,35.8 56.4,35.8 56.3,35.8 56.3,35.8 56.3,35.9 56.3,35.9 56.3,35.9 56.3,35.9 56.3,35.9 56.3,36 56.3,36 56.3,36 56.3,36.1 
		56.2,36.1 56.2,36.1 56.2,36.2 56.2,36.2 56.2,36.2 56.2,36.3 56.2,36.3 56.2,36.4 56.3,36.4 56.3,36.3 56.3,36.3 56.3,36.3 
		56.4,36.2 56.4,36.2 56.5,36.2 56.5,36.3 56.5,36.4 56.5,36.4 56.5,36.5 56.5,36.5 56.6,36.7 56.5,36.7 56.5,36.7 56.5,36.7 
		56.5,36.7 56.5,36.8 56.5,36.8 56.5,36.8 56.6,36.8 56.6,36.9 56.6,36.9 56.6,36.9 56.6,37 56.5,37 56.5,37 56.4,37 56.3,37 
		56.3,37 56.3,37 56.2,37 56.1,37 55.9,37.1 55.8,37.1 55.7,37.1 55.7,37.1 55.7,37.1 55.6,37.1 55.3,37.1 55.2,37.2 55.2,37.2 
		55.2,37.2 55.2,37.2 55,37.3 55,37.3 55,37.3 55,37.3 55,37.3 54.9,37.3 54.9,37.3 54.9,37.4 54.9,37.4 54.9,37.4 54.8,37.4 
		54.8,37.5 54.7,37.5 54.7,37.5 54.6,37.5 54.6,37.5 54.6,37.5 54.5,37.6 54.5,37.6 54.5,37.6 54.4,37.6 54.4,37.7 54.4,37.7 
		54.3,37.7 54.3,37.7 54.2,37.7 54.2,37.6 54.1,37.6 54.2,37.6 54.2,37.6 54.4,37.5 54.4,37.5 54.5,37.5 54.5,37.4 54.5,37.4 
		54.6,37.4 54.6,37.3 54.8,37.2 54.8,37.2 54.8,37.2 54.9,37.1 54.9,37.1 54.9,37.1 54.9,37.1 54.9,37.1 54.9,37 54.9,37 54.9,36.9 
		54.9,36.9 54.9,36.9 54.9,36.9 54.8,36.8 54.7,36.8 54.6,36.8 54.6,36.8 54.5,36.8 54.5,36.8 54.5,36.8 54.5,36.7 54.4,36.7 
		54.4,36.7 54.4,36.7 54.3,36.7 54.3,36.7 54.3,36.6 54.2,36.6 54.2,36.6 54.2,36.6 54.1,36.6 54,36.5 53.8,36.5 53.8,36.4 
		53.7,36.4 53.7,36.4 53.7,36.4 53.7,36.3 53.7,36.3 53.6,36.3 53.6,36.3 53.5,36.3 53.5,36.3 53.5,36.3 53.4,36.3 53.4,36.3 
		53.3,36.2 53.3,36.2 53.2,36.2 53.2,36.2 53.1,36.2 53.1,36.3 53,36.3 53,36.3 53,36.3 53,36.4 53,36.4 52.9,36.4 52.9,36.4 
		52.9,36.4 52.8,36.4 52.8,36.4 52.8,36.4 52.7,36.3 52.7,36.3 52.7,36.3 52.7,36.2 52.7,36.2 52.7,36.1 52.7,36.1 52.7,36.1 
		52.7,36.1 52.7,36.1 52.6,36.2 52.6,36.2 52.6,36.2 52.5,36.3 52.5,36.3 52.5,36.4 52.4,36.4 52.3,36.4 52.3,36.5 52.3,36.5 
		52.2,36.5 52.2,36.5 52.2,36.5 52.1,36.5 52.1,36.5 52,36.5 51.9,36.5 51.9,36.5 51.8,36.5 51.8,36.5 51.7,36.5 51.7,36.5 
		51.7,36.4 51.7,36.3 51.7,36.3 51.7,36.3 51.7,36.2 51.7,36.2 51.6,36.2 51.6,36.2 51.4,36.3 51.4,36.3 51.4,36.3 51.3,36.3 
		51.3,36.4 51.3,36.4 51.3,36.5 51.2,36.5 51.2,36.5 51.1,36.6 51.1,36.6 51.1,36.6 51,36.7 51,36.7 51,36.7 51,36.8 51,36.8 
		50.9,36.8 50.9,36.8 50.8,36.9 50.8,36.8 50.7,36.8 50.7,36.7 50.7,36.7 50.7,36.7 50.6,36.7 50.6,36.7 50.5,36.8 50.5,36.8 
		50.5,36.8 50.4,36.9 50.4,36.9 50.3,36.9 50.3,36.9 50.3,37 50.2,37 50.2,36.9 50.1,36.9 49.8,36.9 49.7,36.9 49.7,36.9 49.7,36.9 
		49.7,37 49.7,37.1 49.7,37.1 49.6,37.3 49.6,37.6 49.6,37.7 49.6,37.8 49.6,37.8 49.7,37.7 49.8,37.7 49.8,37.7 49.8,37.8 
		49.9,37.8 49.9,37.8 49.9,37.8 49.9,37.8 49.9,37.9 49.9,37.9 49.9,38 49.8,38 49.8,38 49.8,38.1 49.8,38.1 49.8,38.2 49.8,38.2 
		49.8,38.3 49.9,38.3 50,38.3 50,38.3 50,38.3 50.1,38.2 50.1,38.2 50.1,38.1 50.2,38.1 50.2,38.1 50.2,38.1 50.3,38.1 50.3,38.1 
		50.3,38.2 50.3,38.2 50.3,38.3 50.3,38.3 50.3,38.4 50.3,38.4 50.3,38.4 50.3,38.5 50.3,38.5 50.3,38.5 50.3,38.6 50.3,38.6 
		50.3,38.7 50.3,38.7 50.3,38.7 50.2,38.8 50.2,38.8 50.2,38.8 50.2,38.9 50.2,38.9 50.2,38.9 50.2,38.9 50.2,39 50.3,39 50.3,39 
		50.4,39.2 50.5,39.2 50.5,39.3 50.5,39.3 50.6,39.3 50.6,39.3 50.7,39.3 50.7,39.4 50.8,39.5 50.8,39.6 50.9,39.6 50.9,39.6 
		50.9,39.6 50.9,39.7 51.1,39.8 51.2,39.7 51.2,39.7 51.2,39.7 51.3,39.7 51.3,39.7 51.4,39.6 51.5,39.6 51.5,39.6 51.7,39.5 
		51.7,39.5 51.7,39.6 51.7,39.6 51.7,39.7 51.6,39.9 51.6,39.9 51.6,39.9 51.5,39.9 51.5,39.9 51.5,40 51.5,40 51.5,40 51.6,40.2 
		51.6,40.3 51.6,40.3 51.6,40.3 51.7,40.4 51.8,40.5 51.8,40.5 51.8,40.5 51.7,40.5 51.6,40.5 51.6,40.4 51.6,40.4 51.5,40.4 
		51.5,40.4 51.5,40.4 51.4,40.4 51.4,40.4 51.4,40.4 51.3,40.4 51.3,40.5 51.3,40.5 51.3,40.5 51.2,40.6 51.2,40.6 51.2,40.6 
		51.2,40.8 51.2,40.8 51.2,40.9 51.2,40.9 51.3,40.9 51.3,41 51.3,41 51.3,41 51.2,41.1 51.2,41.1 51.1,41.1 51.1,41 51,41 51,41 
		51,41 50.9,41 50.9,41 50.9,41 50.9,41.1 50.9,41.1 50.9,41.1 50.9,41.2 51,41.2 51,41.2 51,41.2 51,41.2 51,41.2 51,41.3 51,41.3 
		51,41.3 51,41.3 51,41.4 51.1,41.4 51.2,41.4 51.2,41.4 51.3,41.4 51.3,41.5 51.2,41.5 51.2,41.6 51.2,41.6 51.2,41.6 51.1,41.6 
		51.1,41.6 51.1,41.6 51,41.6 51,41.7 51,41.7 50.9,41.8 50.9,41.8 50.9,42.1 50.8,42.2 50.8,42.2 50.8,42.2 50.8,42.2 50.7,42.2 
		50.7,42.2 50.7,42.2 50.8,42.4 50.9,42.4 51,42.4 51,42.4 51.1,42.4 51.2,42.4 51.2,42.5 51.2,42.5 51.2,42.5 51.2,42.6 51.2,42.6 
		51.2,42.7 51.3,42.7 51.3,42.7 51.4,42.7 51.4,42.7 51.5,42.8 51.6,42.8 51.6,42.8 51.7,42.9 51.7,42.9 51.7,42.9 51.8,42.9 
		51.9,43 51.9,43.1 51.9,43.1 51.9,43.1 52,43.1 52,43.2 52,43.2 52.1,43.2 52.1,43.2 52.1,43.2 52.2,43.3 52.3,43.4 52.4,43.5 
		52.4,43.5 52.4,43.5 52.6,43.6 52.6,43.6 52.7,43.6 52.9,43.7 52.9,43.7 52.9,43.7 52.9,43.5 53,43.5 53,43.5 53,43.5 53.1,43.5 
		53.1,43.5 53.2,43.5 54.1,43.6 54.2,43.6 54.3,43.5 54.3,43.5 54.3,43.4 54.3,43.4 54.4,43.4 54.4,43.4 54.5,43.4 54.5,43.4 
		54.5,43.4 54.6,43.4 54.6,43.4 54.6,43.4 54.7,43.5 54.8,43.5 54.9,43.5 54.9,43.5 55,43.5 55,43.5 55,43.4 55,43.4 55,43.3 
		55.1,43.3 55.1,43.3 55.1,43.3 55.2,43.3 55.2,43.4 55.2,43.4 55.2,43.4 55.2,43.4 55.2,43.5 55.3,43.5 55.4,43.5 55.4,43.5 
		55.4,43.5 55.5,43.4 55.6,43.4 55.6,43.4 55.6,43.3 55.6,43.3 55.7,43.3 55.7,43.2 55.7,43.2 55.7,43.2 55.8,43.2 55.8,43.2 
		55.9,43.2 55.9,43.2 56,43.2 56.1,43.3 56.3,43.3 56.4,43.3 56.4,43.3 56.4,43.3 56.5,43.2 56.6,43.2 56.6,43.2 56.6,43.2 
		56.6,43.2 56.7,43.3 56.7,43.4 56.8,43.4 56.8,43.4 56.8,43.4 56.8,43.3 56.8,43.3 56.9,43.2 56.9,43.2 57,43.2 57,43.2 57,43.2 
		57.1,43.2 57.1,43.2 57.1,43.3 57.1,43.3 57.1,43.3 57.2,43.3 57.2,43.3 57.2,43.2 57.2,43.2 57.2,43.2 57.2,43.2 57.2,43.2 
		57.2,43.2 57.3,43.1 57.3,43.1 57.3,43.1 57.4,43.1 57.4,43.1 57.5,43 57.5,43 57.5,43 57.6,43.1 57.7,43.1 57.8,43.1 57.8,43.1 
		57.9,43.1 58,43.1 58,43.1 58,43.1 58.1,43.1 58.1,43.1 58.1,43.1 58.1,43.1 58,43.2 58.1,43.2 58.1,43.3 58.1,43.3 58.1,43.3 
		58,43.4 58.1,43.4 58.1,43.4 58.1,43.4 58.3,43.5 58.3,43.5 58.3,43.6 58.3,43.6 58.3,43.6 58.3,43.7 58.3,43.7 58.3,43.8 
		58.3,43.8 58.3,43.9 58.4,43.9 58.5,44 58.5,44 58.5,44 58.5,44 58.5,44.1 58.5,44.1 58.5,44.1 58.5,44.1 58.4,44.2 58.4,44.2 
		58.4,44.2 58.4,44.2 58.4,44.2 58.4,44.3 58.4,44.3 58.3,44.6 58.2,44.6 58.2,44.6 58.2,44.7 58.1,44.7 58.4,44.8 58.7,44.9 
		58.7,44.9 58.8,44.9 58.8,44.8 58.8,44.8 58.9,44.6 59,44.5 59.1,44.3 59.1,44.3 59.2,44.2 59.3,44.2 59.3,44.2 59.4,44.2 
		59.4,44.1 59.5,44 59.6,43.9 59.6,43.9 59.7,43.9 59.7,43.9 59.7,43.9 59.8,44 59.8,44 59.8,44 59.9,43.9 60,43.9 60,43.9 
		60.1,43.9 60.2,43.8 60.4,43.7 60.4,43.7 60.4,43.6 60.4,43.6 60.4,43.6 60.4,43.6 60.5,43.6 60.5,43.6 60.5,43.6 60.5,43.6 
		60.6,43.6 60.6,43.6 60.6,43.6 60.7,43.6 60.7,43.6 60.7,43.6 60.7,43.6 60.7,43.6 60.7,43.7 60.7,43.7 60.7,43.7 60.7,43.7 
		60.7,43.7 60.7,43.8 60.7,43.8 60.8,43.8 60.8,43.8 60.8,43.8 60.8,43.8 60.9,43.8 60.9,43.8 61.1,43.8 61.3,43.6 61.3,43.6 
		61.3,43.5 61.3,43.5 61.3,43.5 61.3,43.5 61.3,43.4 61.3,43.3 61.3,43.2 61.3,43.1 61.3,43.1 61.3,43 61.3,43 61.3,43 61.3,43 
		61.3,43 61.3,42.9 61.3,42.9 61.3,42.9 61.4,42.8 61.4,42.8 61.4,42.8 61.4,42.7 61.4,42.7 61.4,42.6 61.5,42.5 61.6,42.4 
		61.6,42.4 61.7,42.3 61.7,42.3 61.7,42.4 61.7,42.4 61.7,42.4 61.8,42.4 61.9,42.3 62,42.2 62,42.2 62.1,42.2 62.2,42.1 62.3,42.1 
		62.4,42.2 62.4,42.2 62.4,42.2 62.4,42.2 62.4,42.3 62.4,42.3 62.5,42.3 62.5,42.4 62.7,42.5 62.8,42.5 62.8,42.5 62.8,42.5 
		62.9,42.5 63,42.5 63,42.4 63.1,42.4 63.1,42.4 	"/>
	
		<polygon id="Cantabria" fill-rule="evenodd" clip-rule="evenodd" fill="#F47C58" stroke="#F9F9FA" stroke-width="0.25" stroke-linecap="round" stroke-linejoin="round" points="
		56.3,23.8 56.3,23.8 56.3,23.8 56.2,23.8 56.2,23.7 56.1,23.7 56.1,23.7 56,23.6 55.8,23.6 55.6,23.5 55.6,23.5 55.5,23.6 
		55.5,23.6 55.4,23.5 55.4,23.6 55.4,23.6 55.3,23.5 55.3,23.5 55.3,23.5 55.3,23.5 55.3,23.4 55.4,23.4 55.4,23.4 55.4,23.4 
		55.4,23.5 55.5,23.4 55.5,23.5 55.5,23.4 55.5,23.4 55.5,23.4 55.5,23.4 55.5,23.3 55.3,23.3 55.2,23.3 55.2,23.3 55.2,23.2 
		55.1,23.2 55.1,23.2 55,23.2 54.8,23.2 54.8,23.2 54.7,23.3 54.7,23.3 54.6,23.3 54.6,23.3 54.6,23.3 54.6,23.3 54.6,23.3 
		54.6,23.4 54.6,23.4 54.5,23.4 54.5,23.3 54.5,23.4 54.5,23.4 54.5,23.4 54.5,23.5 54.5,23.5 54.5,23.5 54.5,23.4 54.5,23.4 
		54.4,23.4 54.4,23.5 54.4,23.5 54.3,23.5 54.3,23.5 54.3,23.5 54.3,23.5 54.3,23.5 54.3,23.5 54.3,23.5 54.3,23.5 54.3,23.5 
		54.2,23.5 54.3,23.4 54.3,23.4 54.5,23.3 54.4,23.3 54.3,23.2 54.2,23.3 54.1,23.3 54.1,23.3 54.1,23.3 54.1,23.3 54,23.3 54,23.3 
		53.8,23.4 53.8,23.4 53.9,23.4 53.9,23.5 53.9,23.5 53.9,23.5 53.8,23.5 53.8,23.5 53.8,23.4 53.7,23.4 53.7,23.4 53.7,23.5 
		53.7,23.5 53.7,23.5 53.5,23.5 53.5,23.5 53.3,23.6 53.2,23.6 52.8,23.7 52.7,23.6 52.7,23.7 52.6,23.7 52.6,23.7 52.6,23.7 
		52.5,23.6 52.4,23.6 52.3,23.7 52.2,23.6 52.2,23.6 52.2,23.6 52.2,23.7 52.2,23.7 52.2,23.8 52.2,23.8 52.2,23.9 52.2,23.9 
		52.2,23.9 52.2,24 52.2,24 52.2,24.1 52.2,24.1 52.2,24.1 52.2,24.1 52.1,24.2 52.1,24.1 52.1,24.1 52.1,24.1 52,24.1 52,24.1 
		52,24.1 51.9,24.1 51.9,24.1 51.9,24.1 51.9,24.2 51.8,24.2 51.8,24.2 51.8,24.2 51.7,24.2 51.7,24.2 51.7,24.2 51.6,24.2 
		51.6,24.2 51.6,24.3 51.6,24.3 51.6,24.3 51.6,24.4 51.6,24.4 51.6,24.4 51.6,24.5 51.5,24.5 51.5,24.5 51.5,24.5 51.4,24.5 
		51.4,24.5 51.3,24.5 51.3,24.5 51.3,24.7 51.3,24.8 51.3,24.8 51.3,24.9 51.3,24.9 51.5,25 51.5,25 51.5,25 51.6,25.1 51.6,25.1 
		51.6,25.2 51.7,25.2 51.7,25.2 51.9,25.2 52,25.2 52.1,25.2 52.1,25.2 52.2,25.1 52.3,25.1 52.3,25.1 52.3,25.1 52.4,25.1 
		52.4,25.1 52.5,25.1 52.5,25.1 52.6,25.2 52.6,25.3 52.6,25.3 52.6,25.3 52.7,25.3 52.7,25.3 53,25.5 53.1,25.5 53.1,25.5 
		53.1,25.5 53.1,25.6 53.1,25.6 53.1,25.7 53.1,25.7 53.1,25.8 53.1,25.8 53.1,25.8 53.1,25.8 53.1,25.9 53.1,25.9 53.1,25.9 
		53.1,25.9 53.1,25.9 53.2,25.9 53.2,25.9 53.2,25.9 53.2,25.9 53.3,25.9 53.3,25.9 53.4,25.9 53.4,25.9 53.4,25.9 53.3,26 53.3,26 
		53.3,26 53.2,26 53.2,26 53.2,26 53.2,26.1 53.2,26.1 53.3,26.1 53.3,26.1 53.4,26.2 53.4,26.2 53.5,26.2 53.5,26.2 53.5,26.3 
		53.6,26.2 53.7,26 53.7,26 53.8,26 53.8,26 53.8,26 53.8,26.1 53.8,26.2 53.8,26.2 53.9,26.3 53.9,26.3 54,26.2 54,26.2 54.1,26.1 
		54.2,26.1 54.3,26.1 54.3,26.1 54.3,26.1 54.3,26 54.3,26 54.3,26 54.3,25.9 54.3,25.9 54.3,25.9 54.3,25.8 54.3,25.8 54.3,25.8 
		54.2,25.8 54.2,25.8 54.2,25.8 54.1,25.9 54.1,25.9 54.1,25.9 54.1,25.9 54.1,25.9 54.1,25.8 54,25.8 54.1,25.8 54.1,25.7 
		54.1,25.7 54.1,25.7 54.2,25.7 54.3,25.6 54.3,25.6 54.3,25.6 54.2,25.6 54.2,25.5 54.2,25.5 54.2,25.5 54.2,25.5 54.1,25.5 
		54.1,25.5 54.1,25.6 54.1,25.6 54,25.7 53.9,25.7 53.9,25.7 53.9,25.7 53.8,25.6 53.8,25.6 53.8,25.6 53.8,25.6 53.8,25.5 
		53.9,25.3 53.9,25.3 53.9,25.3 53.9,25.3 54,25.3 54,25.2 54.1,25.2 54.1,25.1 54.2,25.1 54.2,25.1 54.2,25.1 54.3,25 54.3,25 
		54.3,24.9 54.3,24.9 54.3,24.9 54.3,24.9 54.4,24.9 54.4,24.9 54.5,24.9 54.5,24.9 54.6,24.8 54.6,24.8 54.7,24.8 54.7,24.7 
		54.8,24.6 54.8,24.6 54.9,24.6 54.9,24.6 54.9,24.6 55,24.6 55,24.6 55.1,24.7 55.2,24.7 55.3,24.7 55.3,24.7 55.4,24.7 55.5,24.7 
		55.5,24.7 55.5,24.6 55.5,24.5 55.4,24.5 55.4,24.5 55.5,24.5 55.5,24.4 55.4,24.4 55.4,24.4 55.4,24.3 55.5,24.3 55.7,24.1 
		55.8,24.1 55.8,24.1 56,24.1 56.1,24.1 56.1,24.1 56.2,24.1 56.3,24 56.3,24 56.3,24 	"/>
	
		<path id="Basque" fill-rule="evenodd" clip-rule="evenodd" fill="#F47C58" stroke="#F9F9FA" stroke-width="0.25" stroke-linecap="round" stroke-linejoin="round" d="
		M60.5,24.1L60.5,24.1l0-0.1l-0.1,0l0-0.1l0-0.1l0,0l-0.1,0l-0.1,0.1l-0.1,0.1L60,23.9l0,0l0,0l0,0l0,0l0,0l0,0l0,0l0,0l0,0l-0.1,0
		L59.6,24l-0.1,0l0,0l-0.1,0.1l0,0l0,0l0,0l0,0l0,0l0,0l0,0l0,0l0,0l0,0l0,0l0,0l0,0L59,24l-0.1,0l-0.1,0l-0.1,0l-0.3-0.1l-0.1-0.1
		l-0.1,0l-0.1,0L58,23.6l-0.1,0l0,0l0,0l0,0l0,0l0,0l0,0l0,0l0,0.1l0,0l0-0.1l0-0.1l0,0l-0.1-0.1l-0.1,0l0,0l-0.1,0l-0.1,0l-0.1,0
		l-0.2,0l-0.1,0l0,0v0h0v0l0,0l-0.1,0.1l0,0l0,0l0,0v0l0,0l0,0.1l0,0.1v0l-0.1-0.1l-0.1-0.1l-0.1,0.1l-0.1,0l-0.1,0l0,0l0,0.1l0,0
		l0,0l-0.1,0.1l0,0l-0.1,0l-0.1,0l-0.2,0l0,0l0,0l-0.3,0.2l0,0l0,0l0,0l0,0l0,0l0,0l0,0l0,0l0,0l0,0.1l0,0.1l0.2-0.1l0.3-0.2l0,0
		l0,0l0,0l0,0l0.1,0l0.1,0l0.1,0l0.1,0l0,0l0,0l0,0l-0.1,0l0,0l0,0.1l0,0l0,0l0.1,0l0,0l0,0l0,0.1l0,0.1l0,0l0,0l0,0l0,0l0,0l0.1,0
		l0.1,0l0,0l0,0l0.1-0.1l0.1,0l0,0l0,0l0,0l0,0l0,0l0.1,0l0,0l0,0l0,0l0,0l0,0l0,0l0,0l0,0l-0.1,0l0,0l0,0l0,0l0,0l0,0l0.1,0l0,0
		l0,0l0,0l0,0l0,0l0,0h0l0,0l0,0l0,0l-0.1,0l0,0l0,0l0,0l0,0l-0.1,0l0,0l0,0l0,0l0-0.1l0,0l0,0l0,0l0,0l-0.1,0l0,0l0,0l0,0l0,0.1
		l0,0l0,0l0,0l0,0l0,0l0,0l0.1,0.1l0,0l0,0l0,0l0,0l0,0l0,0l0,0l0,0l0,0l0,0l0.1,0l0,0l0,0l0-0.1l0,0l0,0l0,0l0,0l0,0l0,0.1l0,0l0,0
		l0,0l0,0l0,0l0,0l0,0l0,0l0,0l0,0l0,0l0,0l0.1,0l0.1,0l0.1,0.1l0.1,0.1l0.1,0l0,0l0.1,0.1l0.1,0l0.2,0.2l0,0l0,0l0,0l0,0.1l0,0l0,0
		l0,0l0,0l0,0l0,0l0,0l0,0l0,0l0,0l0,0l0-0.1l0,0l0,0l0,0l0,0l0.1,0.1l0,0l0,0l0,0l0,0l0,0.1l0,0.1l0,0l0,0l0.1,0.1l0,0l0,0l0,0l0,0
		l0,0l0,0.1l0,0l0,0l0,0l0.1,0l0,0l0,0l0,0l0,0l0,0l0,0l0,0l0,0l0,0.1l0.1,0.1l0.1,0l0.1,0l0-0.1l0-0.2l0-0.1l0,0l0,0l0,0l0,0
		L58.4,27l0,0l0,0l0,0l0,0l0,0l0,0l0,0l0,0l0,0l0,0l0.1,0l0,0l0.1,0l0,0l0,0l0,0l0,0l0,0l0,0l0,0l0.1,0l0,0l0,0l0.1-0.1l0,0l0,0l0,0
		l0,0l0,0l0-0.2l0,0l0,0l0.1,0l0,0l0,0l0-0.1l0-0.1l0-0.1l0.1-0.1l0,0l0,0l0-0.2l0-0.1l0,0l0,0l0,0l0,0l0,0l0.1,0l0,0l0.1,0l0,0l0,0
		l0,0l0,0l0.1-0.1l0,0l0.1,0l0,0l0,0l0,0l0,0l0,0l0,0l0,0l0-0.1l0-0.1l0.2-0.1l0,0l0,0l0,0l0-0.1l0,0l0,0l0,0l0,0l0-0.1l0,0l0-0.1
		l0,0l0,0l0,0l0,0l0,0l0,0l0,0l0,0l0,0l0,0l0,0l0,0l0,0l0-0.1l0-0.1L60.5,24.1L60.5,24.1L60.5,24.1L60.5,24.1L60.5,24.1z M58.2,26.7
		L58.2,26.7L58.2,26.7L58.2,26.7L58.2,26.7l-0.1,0l0,0l-0.2,0l-0.2-0.1l-0.2,0l-0.2-0.1l-0.1-0.1l-0.1-0.1l0,0l0,0l0-0.1l0.1-0.1
		l0,0l0,0l0.2,0l0.1,0l0,0l0,0l0.2,0.1l0,0l0,0l0,0l0,0l0,0l0,0l0,0l0,0l0,0l0,0l0,0l0,0l0,0l0,0l0,0.1l0,0l0,0l0,0l0,0l0,0l0,0l0,0
		l0,0l0,0l0,0l0,0l0,0l0,0l0,0l0,0l0,0l0,0l0,0l0,0l0,0l0,0L58.2,26.7L58.2,26.7L58.2,26.7z"/>
	
		<path id="Baeleric_Islands" fill="#F47C58" stroke="#F9F9FA" stroke-width="0.25" stroke-linecap="round" stroke-linejoin="round" d="
		M70.6,40.9L70.6,40.9L70.6,40.9L70.6,40.9L70.6,40.9l-0.1-0.1l0,0l0,0l0,0l0,0l0,0l-0.1,0l-0.1,0l-0.1,0L70,40.9l0,0l-0.1,0l0,0h0
		L69.8,41l0,0l0,0l0,0l0,0.1l0,0.2l-0.1,0l0,0l0,0l0,0l0,0l0,0l0,0l0,0l0,0.1l0,0.1l0,0.1l0,0l0.1,0.1l0,0l0.1,0l0.1,0l0,0l0,0l0,0
		l0,0h0l0,0l0.1,0l0,0.1l0.1,0l0-0.1l0-0.1l0,0l0-0.1l0,0l0,0l0,0l0,0l0.1,0l0,0l0.1-0.1l0.1-0.1l0,0l0-0.1l0,0l0,0l0,0L70.6,40.9
		L70.6,40.9z M74.6,40.5L74.6,40.5l0,0.2l0.1,0l0.1-0.1l0-0.1l0-0.1L74.6,40.5z M70.4,42.4l-0.1-0.1l-0.1-0.2l0,0v0l0,0l0,0l0,0.1
		l0,0l0,0l0,0l0,0l0,0l0,0l0,0l0,0l0,0l0,0l0,0l0,0l0,0.1l0,0l0,0l0-0.1l0,0l0.1,0l0,0l0.1,0.1l0.1,0l0.1,0l0-0.1l-0.1-0.1
		L70.4,42.4z M76.1,38.3l-0.2-0.1l-0.1,0l0,0l-0.1,0.1l-0.1,0h-0.2l-0.1,0l-0.1-0.1l-0.1-0.1l0-0.1l0-0.1l0,0l0.1,0l0,0l0,0l0,0l0,0
		l0,0l0,0l0,0v0l-0.2,0.1l-0.1,0l0-0.1h0l0,0l0,0l0,0l0,0l0,0l0.1,0l0,0l0,0l0,0l0,0l0-0.1L75,37.6l-0.2,0l-0.2,0l-0.1,0l-0.2,0.1
		l-0.1,0l0,0l-0.1,0l0,0l0,0l0,0l0,0l0,0l0,0l0,0l-0.1,0l0,0l0,0l-0.1,0.1l0,0l0,0l-0.1,0.1l0,0l0,0l0,0l0,0l0,0l0,0l-0.1,0.1
		l-0.1,0l-0.1,0l-0.1,0l0,0l-0.1,0.2l-0.1,0l-0.1,0l-0.2,0.1l0,0.1l0,0.1l0,0.1l0.1,0l0,0.1l0,0l0,0l0.1,0l0,0l0,0l0,0l0,0l0.1,0.1
		l0,0l0,0l0,0l0,0l0.1,0.1l0.1,0l0.1-0.1l0-0.1l0,0l0.2-0.1l0.1,0l0.1,0l0.1,0.1l0.1,0.1l0,0.1l0,0.1l0,0.1l0,0l0,0.2l0.1,0.1l0.1,0
		l0.3,0l0,0l0,0l0,0l0,0l0,0l0,0l0,0l0,0l0,0l0,0l0,0l0,0l0,0l0.1,0.1l0,0l0,0l0,0l0,0l0,0l0.1-0.1l0.3-0.2l0.1-0.1l0-0.2l0,0l0,0
		l0-0.2l0.1-0.2l0.1-0.2l0.1-0.1l0-0.1l0-0.1l0,0l0.1,0l0,0l0-0.1l0-0.1l0,0l0,0l0,0l0,0l0,0L76.1,38.3L76.1,38.3l0.1,0L76.1,38.3z
		 M78.8,37.8l-0.1-0.1l0-0.1l0-0.1l0,0l0,0l0,0l0.1,0l0-0.1l0-0.1l0,0l0,0l0,0l0,0l0,0l0,0l0,0l-0.1-0.1l0,0l0-0.1l0,0l0,0l0,0.1
		l0,0l0,0l0,0l0,0l0,0l0,0l0,0l-0.1-0.1l0,0l0,0l0,0l-0.1,0l0,0l0,0l-0.1,0l-0.3,0l-0.1,0l-0.2,0l0,0l0,0l0,0l0,0l0,0l0,0l0.1,0l0,0
		l0,0l0,0.1l0,0.1l0,0l0.1,0l0.2,0l0.1,0l0.1,0l0.5,0.3l0.2,0.1l0.2,0L78.8,37.8L78.8,37.8L78.8,37.8L78.8,37.8L78.8,37.8L78.8,37.8
		L78.8,37.8z"/>
	
		<polygon id="Asturias" fill-rule="evenodd" clip-rule="evenodd" fill="#F47C58" stroke="#F9F9FA" stroke-width="0.25" stroke-linecap="round" stroke-linejoin="round" points="
		52.2,23.9 52.2,23.9 52.2,23.9 52.2,23.8 52.2,23.8 52.2,23.7 52.2,23.7 52.2,23.6 51.6,23.6 51.5,23.6 51.3,23.4 51,23.4 51,23.4 
		50.9,23.3 50.9,23.4 50.9,23.4 50.8,23.4 50.6,23.3 50.6,23.4 50.6,23.3 50.5,23.3 50.2,23.3 50.1,23.2 49.9,23.1 49.9,23.1 
		49.7,23.1 49.7,23.1 49.7,23.1 49.7,23.1 49.7,23.1 49.6,23.2 49.6,23.2 49.5,23.2 49.5,23.2 49.6,23.1 49.6,23.1 49.6,23 49.5,23 
		48.9,23 48.7,23 48.7,22.9 48.7,22.9 48.7,22.9 48.6,22.9 48.6,22.9 48.4,22.7 48.4,22.6 48.3,22.6 48.2,22.6 48.2,22.6 48.2,22.6 
		48.1,22.7 48,22.7 48.1,22.7 48.1,22.7 48.1,22.7 48,22.8 48,22.8 48.1,22.8 48,22.9 47.7,22.9 47.7,22.9 47.6,22.9 47.6,22.9 
		47.5,22.9 47.5,22.9 47.2,22.9 47.2,22.9 47.1,22.8 47.1,22.8 47,22.9 47,22.9 46.9,22.9 46.9,22.9 46.8,22.9 46.7,22.9 46.5,23 
		46.5,23 46.4,22.9 46.4,22.9 46.4,22.9 46.4,23 46.4,23 46.3,23 46.3,23 46.2,23 46.1,23 46,22.9 45.8,22.9 45.7,23 45.6,23 
		45.5,22.9 45.3,23 45.2,22.9 44.9,23 44.8,23 44.7,23.1 44.7,23.1 44.7,23.2 44.7,23.2 44.7,23.3 44.6,23.3 44.6,23.3 44.6,23.3 
		44.6,23.3 44.5,23.4 44.5,23.5 44.5,23.5 44.4,23.5 44.4,23.5 44.4,23.5 44.4,23.5 44.3,23.5 44.3,23.5 44.3,23.5 44.3,23.6 
		44.3,23.7 44.3,23.7 44.3,23.7 44.3,23.7 44.4,23.7 44.4,23.7 44.4,23.8 44.4,23.8 44.4,23.8 44.4,23.9 44.4,23.9 44.4,23.9 
		44.4,24 44.5,24 44.5,24 44.5,24 44.6,24.1 44.6,24.2 44.6,24.3 44.6,24.3 44.6,24.3 44.7,24.4 44.7,24.4 44.8,24.4 44.8,24.4 
		44.8,24.5 44.9,24.5 44.9,24.5 44.9,24.5 44.9,24.5 44.9,24.6 44.8,24.6 44.9,24.7 44.9,24.7 44.9,24.7 44.9,24.7 44.9,24.7 
		45,24.7 45,24.7 45.1,24.7 45.1,24.7 45.1,24.6 45.1,24.6 45.1,24.6 45.1,24.6 45.2,24.6 45.2,24.6 45.2,24.6 45.3,24.7 45.3,24.8 
		45.3,24.8 45.2,24.9 45.1,24.9 45,25 45,25 45,25 45,25 44.9,25 44.9,25 44.9,25 44.9,25 44.9,25.1 44.9,25.1 44.9,25.1 44.8,25.1 
		44.8,25.2 44.8,25.2 44.8,25.3 44.8,25.3 44.9,25.3 44.9,25.3 44.9,25.3 44.9,25.3 44.9,25.3 44.9,25.3 44.9,25.2 44.9,25.2 
		44.9,25.2 45,25.3 45,25.3 45,25.3 45.1,25.3 45.1,25.3 45.1,25.3 45.2,25.3 45.2,25.4 45.3,25.4 45.3,25.5 45.3,25.6 45.4,25.7 
		45.4,25.7 45.5,25.7 45.5,25.7 45.5,25.7 45.5,25.7 45.6,25.7 45.6,25.6 45.6,25.6 45.7,25.6 45.7,25.6 45.9,25.6 45.9,25.6 
		45.9,25.6 45.9,25.6 46.1,25.6 46.1,25.6 46.2,25.6 46.3,25.6 46.4,25.5 46.4,25.5 46.4,25.4 46.4,25.4 46.4,25.4 46.3,25.4 
		46.3,25.4 46.3,25.3 46.3,25.3 46.4,25.3 46.5,25.3 46.5,25.3 46.5,25.3 46.5,25.2 46.5,25.2 46.5,25.2 46.6,25.2 46.6,25.1 
		46.6,25.1 46.7,25.1 46.7,25.1 46.8,25.1 46.8,25.1 46.8,25.1 46.9,25.1 47,25.2 47.1,25.2 47.1,25.2 47.1,25.2 47.1,25.1 
		47.1,25.1 47.2,25.1 47.2,25.1 47.3,25.2 47.4,25.2 47.4,25.2 47.5,25.1 47.5,25.1 47.5,25.1 47.5,25.1 47.5,25 47.5,25 47.7,25 
		47.7,25.1 47.8,25 47.8,25.1 47.9,25.1 47.9,25.1 47.9,25.2 47.9,25.2 47.9,25.2 48,25.3 48,25.3 48.1,25.3 48.1,25.3 48.1,25.3 
		48.2,25.4 48.2,25.4 48.2,25.4 48.4,25.4 48.4,25.4 48.4,25.4 48.5,25.4 48.5,25.3 48.5,25.3 48.5,25.3 48.5,25.3 48.5,25.3 
		48.5,25.2 48.5,25.2 48.5,25.2 48.6,25.2 48.6,25.1 48.6,25.1 48.6,25.1 48.7,25.1 48.7,25.1 48.8,25.1 48.9,25.1 48.9,25.1 
		49,25.1 49,25.2 49.1,25.2 49.1,25.2 49.1,25.2 49.1,25.2 49.2,25.2 49.3,25.2 49.3,25.2 49.3,25.1 49.3,25.1 49.3,25.1 49.4,25.1 
		49.5,25.1 49.5,25.1 49.6,25.1 49.6,25 49.6,24.9 49.6,24.9 49.7,24.9 49.8,24.9 50.1,24.9 50.3,24.8 50.3,24.8 50.4,24.8 
		50.4,24.8 50.4,24.8 50.5,24.8 50.5,24.8 50.5,24.7 50.5,24.7 50.5,24.6 50.6,24.6 50.6,24.6 50.6,24.5 50.7,24.5 50.8,24.4 
		50.9,24.4 51,24.3 51.1,24.3 51.1,24.3 51.1,24.3 51.2,24.4 51.3,24.5 51.3,24.5 51.4,24.5 51.4,24.5 51.5,24.5 51.5,24.5 
		51.5,24.5 51.6,24.5 51.6,24.4 51.6,24.4 51.6,24.4 51.6,24.3 51.6,24.3 51.6,24.3 51.6,24.2 51.6,24.2 51.7,24.2 51.7,24.2 
		51.7,24.2 51.8,24.2 51.8,24.2 51.8,24.2 51.9,24.2 51.9,24.1 51.9,24.1 51.9,24.1 52,24.1 52,24.1 52,24.1 52.1,24.1 52.1,24.1 
		52.1,24.1 52.1,24.2 52.2,24.1 52.2,24.1 52.2,24.1 52.2,24.1 52.2,24 52.2,24 	"/>
	
		<path id="Aragon" fill-rule="evenodd" clip-rule="evenodd" fill="#F47C58" stroke="#F9F9FA" stroke-width="0.25" stroke-linecap="round" stroke-linejoin="round" d="
		M68.1,26.9L68.1,26.9L68.1,26.9l-0.1,0l0,0l0,0l0,0l0-0.1l-0.1-0.1l0,0l0,0l0,0l-0.1,0l-0.4,0l0,0l-0.1,0l-0.1,0l-0.1,0l0,0l0,0
		l0,0l0,0l-0.1-0.1l-0.1,0l-0.1,0.1l-0.1,0.1l0,0l0-0.1l-0.1-0.1l0,0l-0.2,0l0,0l-0.1,0l-0.2,0l-0.2,0.1l-0.1,0l-0.1,0l0,0l0,0l0,0
		l0,0l0,0l0,0l0,0l0,0l0,0l0-0.1l0-0.1l0-0.1l-0.1,0l-0.1,0l-0.1,0l0-0.1L64.9,26l0,0l0,0l0,0l0,0l0,0l0,0l-0.1,0.1l-0.1,0l-0.1,0
		l-0.2-0.1l-0.1,0l0,0.1l0,0l-0.1,0l0,0l0,0l0,0l0,0l0,0l0,0h0l0,0l0,0l0,0l0,0l-0.1-0.2l-0.1,0l-0.1-0.1l0,0l0,0l0,0l0,0l0,0l0,0
		l0,0l0,0l0,0l0,0l-0.1,0l-0.1,0.1l0,0l0,0l0,0l0,0l-0.1,0.1l0,0l0,0l0,0.1l0,0.1l0,0.1l0,0l0,0l0,0l0,0.1l-0.1,0l-0.1,0.1l0,0l0,0
		l-0.1,0l0,0l0,0l0,0l0,0l0,0.1l0,0l0,0h-0.1l0,0l-0.2,0l0,0l0,0l0,0l0,0l0,0l0,0l0,0l0,0l0,0l0,0l-0.1,0l0,0l0,0l0,0l0,0l0,0l0,0
		l-0.1,0l0,0l0,0l0,0l0,0l0,0l0,0l0,0l0,0l0,0l0,0l0,0l0,0l0,0.1l-0.1,0.1l-0.1,0.1l0,0.1l0,0l0,0l0,0l0,0l0,0l0,0l0,0L61.7,28
		l-0.1,0.1l0,0.1l0,0l0,0l0,0.1l0,0l0,0.1l0,0l0,0l0,0l0,0l0,0l0,0l0,0l0,0l0,0.1l0,0l0,0.1l0,0l0,0l0,0l0,0l0,0l0,0l0,0l0,0l0,0
		l0,0l0,0l0,0l0,0l0,0.1l0,0l-0.1,0.1l-0.1,0.1l0,0.1l0,0l0,0l0,0l0,0l0,0l0,0l0,0l0,0l-0.1,0l0,0l-0.1,0l0,0l0,0l0,0l0,0l-0.1,0
		l0,0l0,0l-0.1,0l0,0l0,0l0,0l0,0l0,0l-0.1,0l-0.1,0l0,0l-0.1,0l0,0l0,0l-0.1,0l0,0l0,0l0,0l0,0l0,0l0,0l-0.1,0l0,0l0,0l0,0l0,0l0,0
		l0,0l0,0.1l0,0l0,0.1l0,0.2l0,0.1l0.1,0.1l0,0l0,0l0,0l0,0l0,0l0,0.1l0,0l0,0l0,0l0,0.1l0,0.1l0,0l0,0l0,0l0,0l0,0.1l0,0l0,0l0,0.1
		l0,0l0,0l0,0l0,0l0,0l0,0l0,0l-0.1,0L60,30.9l0,0l0,0l0,0l-0.1,0l0,0l0,0l0,0l0,0l0,0l0,0l0,0l0,0l0,0l0,0l0,0.1l0,0.1l0,0.1l0,0
		l0,0l0,0l0,0l0,0.2l0,0l0,0l0,0l0,0l0,0l-0.1,0l0,0l0,0l0,0l0,0l0,0l0,0l0,0l0,0l0,0l0,0l-0.1,0l-0.1,0l0,0l0,0l0,0l0,0l0,0l0,0
		l0,0.1l0,0l0,0l0,0l0,0l0,0l0,0l0,0.1l0,0.1l0,0.1l0,0l0,0l0,0.2l0,0.1l0,0l0,0l0,0l0.1,0l0,0l0,0l0,0l0.1,0.1l0,0l0.2-0.1l0.1,0
		l0,0l0,0l0,0l0.1,0l0.1,0.1l0.1,0.1l0.1,0.1l0,0l0,0l0,0l0,0l0,0.1l0.2,0.1l0,0l0,0l0,0l0.1,0.1l0,0.1l0,0l0,0.1l0,0.1l0,0.1l0,0
		l0,0l0.1,0.1l0,0l0,0l0,0l0,0.1l0,0l0,0.1l0,0l0,0l0,0l0,0l0,0l0,0.1l0,0l0,0.1l0,0l0,0.1l0,0.1l0,0l0,0.1l0,0l0,0l0,0l-0.1,0l0,0
		l0,0l0,0l0,0l0,0l0,0l-0.1,0l0,0l0,0l0,0.1l0,0.1l0,0.1l0,0l0,0l-0.1,0l0,0l0,0l-0.1,0.2l0,0l0,0l0,0l0.1,0l0.1,0.1l0.1,0.2l0,0.1
		l0,0l0,0l0,0l0,0l0,0l0,0l0,0l0.1,0l0.3,0.3l0,0l0,0l0,0h0l0,0l0,0l0,0l0.1,0l0,0l0,0l0,0l0,0l0,0l0,0l0.2,0l0.1,0l0.1,0l0.1,0l0,0
		l0,0l0-0.1l0,0l0,0l0,0l0,0l0,0l0,0.1l0,0.1l0,0l0,0l0,0l0,0l0,0l0,0l0,0l0,0l0,0l0.1,0l0.2,0l0.1,0l0.1,0.1l0,0l0,0l0,0l0,0l0,0
		l0,0l-0.1,0.1l-0.1,0l0.1,0.2l0,0l0.1,0l0,0l0.1,0l0.1,0l0.1,0l0.1,0l0,0l0.1,0l0.1,0.1l0,0.1l0,0l0,0l0,0l0,0l0,0l0,0l0,0l0,0l0,0
		l0,0l0,0l0,0l0,0l0,0l0.1,0l0,0l0.2-0.1l0,0l0,0l0,0l0,0l0-0.1l0-0.1l0,0l0,0l0,0l0-0.1l0,0l0,0l0.1,0l0,0l0,0l0,0l0,0l0,0l0-0.1
		l0,0l0,0l0,0l0.1,0l0.1,0l0.2-0.1l0,0l0-0.1l0,0l0,0l0,0l0.1-0.1l0,0l0,0l0,0l0-0.1l0,0l0,0l0-0.1l0,0l0,0l0-0.1l0,0l0,0l0,0l0,0
		l0,0l0,0l0,0l0,0l0,0l0,0l0.1,0l0,0l0.1-0.1l0,0l0,0l0,0l0,0l0,0l0,0l0.1,0l0,0l0-0.1l0,0l0.1-0.1l0,0l0,0l0,0l0,0l0,0l0,0l0,0l0,0
		l0,0l0,0l0,0l0,0l0.1-0.1l0,0l0,0l0,0l0,0l0,0l0,0l0,0l0,0l0,0l0,0l0-0.1l0,0l0,0l0-0.1l0,0l0,0l0-0.1l0,0l0,0l-0.1,0l0,0l0,0l0,0
		l0,0l0,0l0,0l0,0l0-0.1l0,0l0,0l0,0l0,0l0,0l0,0l0,0l0,0l0,0l0,0l0,0l0.2-0.1l0,0l0,0l0,0l0-0.1l0-0.1l0,0l0,0l0.1-0.1l0,0l0.1,0
		l0,0l0,0l0,0l0,0l0.1,0.1l0.1,0l0.1,0l0,0l0,0l0,0l0,0l0,0l0,0l0,0l0,0l0,0l0,0l0,0l0,0l0,0l0.1,0l0.1,0l0,0l0,0l0.2-0.1l0,0l0-0.1
		l0.1-0.1l0,0l0,0l0,0l0-0.1l0,0l0,0l0,0l0-0.1l0,0l0,0l0,0l0,0l0,0l0-0.1l0,0l0,0l0-0.1l0-0.1l0,0l0,0l0,0l0-0.1l0-0.1l0,0l0,0l0,0
		l0,0l0,0l0,0l0,0l0,0l0,0l0,0l0,0l0,0l0.1,0l0,0l0,0l0,0l0-0.1l0,0l0,0l0,0l0,0l0,0l0,0l0,0l0,0l0-0.1l0-0.1l0.1-0.2l0-0.1l0-0.1
		l0,0l0,0l0,0l0-0.1l0-0.1l0-0.1l0-0.1l0-0.1l0,0l0,0l0.1,0l0,0l0,0l0,0l0,0l0,0l0,0l0,0l0.1-0.1l0,0l0,0l0,0l0,0l0,0l0,0l0,0l0,0
		l0,0l0,0l0,0l-0.1,0l0,0l0,0l0,0l0-0.1l0-0.1l0,0l0,0l0-0.1l0.1-0.1l0-0.1l0,0l0,0l0,0l0,0l0,0l0,0l0,0l0.1,0l0,0l0,0l0-0.1l0-0.1
		l0,0l0,0l0,0l0.1,0l0,0l0,0l0,0l0,0l0,0l0,0l0,0l0,0l0-0.1l0,0l0,0l0,0l0,0l0,0l0,0l0,0l0,0l0,0l0,0l0,0l0,0l0,0l0,0l0,0l0,0l0,0
		l0,0l0,0l0,0v0l0-0.1l0-0.2l0,0l0,0l0,0l0,0l0-0.1l0,0l0,0l0,0l0,0l0,0l0,0l0-0.1l0,0l0,0l0,0l0-0.1l0,0l0-0.1v-0.1l0,0l0-0.1l0,0
		l0-0.1l0-0.2l0-0.1l0,0l0,0l0,0l0,0l0,0l0,0l0,0l0,0l0,0l0,0l0,0l0,0l0,0l0,0l0,0l0,0l0,0l0,0l0,0l0,0l0,0l0,0l0,0l0,0l0,0l0,0l0,0
		l0,0L68.1,26.9L68.1,26.9L68.1,26.9L68.1,26.9z M62.3,27.6L62.3,27.6L62.3,27.6L62.3,27.6l-0.1,0.1l0-0.1L62.3,27.6L62.3,27.6
		L62.3,27.6L62.3,27.6L62.3,27.6z M62.6,27.6L62.6,27.6L62.6,27.6h-0.1l0,0l0,0l0,0l0,0l0,0l0,0l0,0l0,0l0,0l0,0L62.6,27.6
		L62.6,27.6L62.6,27.6L62.6,27.6z"/>
	
		<polygon id="Andalusia" fill-rule="evenodd" clip-rule="evenodd" fill="#F47C58" stroke="#F9F9FA" stroke-width="0.25" stroke-linecap="round" stroke-linejoin="round" points="
		60.6,47.2 60.5,47.1 60.4,47.1 60.4,47.1 60.4,47.1 60.4,47.1 60.4,47.2 60.3,47.2 60.3,47.1 60.3,47.1 60.3,47.1 59.8,46.4 
		59.8,46.4 59.8,46.3 59.8,46.3 59.8,46.2 59.8,46.2 59.8,46.2 59.8,46.1 59.8,46.1 59.8,46 59.8,46 59.8,46 59.8,45.8 59.8,45.8 
		59.8,45.8 59.8,45.7 59.8,45.7 59.8,45.6 59.8,45.6 59.8,45.6 59.8,45.5 59.8,45.5 59.5,45.5 59.4,45.4 59.4,45.4 59.3,45.4 
		59.1,45.3 59.1,45.3 59,45.2 58.9,45.1 58.9,45 58.9,45 58.9,45 58.9,45 58.8,44.9 58.7,44.9 58.7,44.9 58.4,44.8 58.1,44.7 
		58.2,44.7 58.2,44.6 58.2,44.6 58.3,44.6 58.4,44.3 58.4,44.3 58.4,44.2 58.4,44.2 58.4,44.2 58.4,44.2 58.4,44.2 58.5,44.1 
		58.5,44.1 58.5,44.1 58.5,44.1 58.5,44 58.5,44 58.5,44 58.5,44 58.4,43.9 58.3,43.9 58.3,43.8 58.3,43.8 58.3,43.7 58.3,43.7 
		58.3,43.6 58.3,43.6 58.3,43.6 58.3,43.5 58.3,43.5 58.1,43.4 58.1,43.4 58.1,43.4 58,43.4 58.1,43.3 58.1,43.3 58.1,43.3 
		58.1,43.2 58,43.2 58.1,43.1 58.1,43.1 58.1,43.1 58.1,43.1 58,43.1 58,43.1 58,43.1 57.9,43.1 57.8,43.1 57.8,43.1 57.7,43.1 
		57.6,43.1 57.5,43 57.5,43 57.5,43 57.4,43.1 57.4,43.1 57.3,43.1 57.3,43.1 57.3,43.1 57.2,43.2 57.2,43.2 57.2,43.2 57.2,43.2 
		57.2,43.2 57.2,43.2 57.2,43.3 57.2,43.3 57.1,43.3 57.1,43.3 57.1,43.3 57.1,43.2 57.1,43.2 57,43.2 57,43.2 57,43.2 56.9,43.2 
		56.9,43.2 56.8,43.3 56.8,43.3 56.8,43.4 56.8,43.4 56.8,43.4 56.7,43.4 56.7,43.3 56.6,43.2 56.6,43.2 56.6,43.2 56.6,43.2 
		56.5,43.2 56.4,43.3 56.4,43.3 56.4,43.3 56.3,43.3 56.1,43.3 56,43.2 55.9,43.2 55.9,43.2 55.8,43.2 55.8,43.2 55.7,43.2 
		55.7,43.2 55.7,43.2 55.7,43.3 55.6,43.3 55.6,43.3 55.6,43.4 55.6,43.4 55.5,43.4 55.4,43.5 55.4,43.5 55.4,43.5 55.3,43.5 
		55.2,43.5 55.2,43.4 55.2,43.4 55.2,43.4 55.2,43.4 55.2,43.3 55.1,43.3 55.1,43.3 55.1,43.3 55,43.3 55,43.4 55,43.4 55,43.5 
		55,43.5 54.9,43.5 54.9,43.5 54.8,43.5 54.7,43.5 54.6,43.4 54.6,43.4 54.6,43.4 54.5,43.4 54.5,43.4 54.5,43.4 54.4,43.4 
		54.4,43.4 54.3,43.4 54.3,43.4 54.3,43.5 54.3,43.5 54.2,43.6 54.1,43.6 53.2,43.5 53.1,43.5 53.1,43.5 53,43.5 53,43.5 53,43.5 
		52.9,43.5 52.9,43.7 52.9,43.7 52.9,43.7 52.7,43.6 52.6,43.6 52.6,43.6 52.4,43.5 52.4,43.5 52.4,43.5 52.3,43.4 52.2,43.3 
		52.1,43.2 52.1,43.2 52.1,43.2 52,43.2 52,43.2 52,43.1 51.9,43.1 51.9,43.1 51.9,43.1 51.9,43 51.8,42.9 51.7,42.9 51.7,42.9 
		51.7,42.9 51.6,42.8 51.6,42.8 51.5,42.8 51.4,42.7 51.4,42.7 51.3,42.7 51.3,42.7 51.2,42.7 51.2,42.6 51.2,42.6 51.2,42.5 
		51.2,42.5 51.2,42.5 51.2,42.4 51.1,42.4 51,42.4 51,42.4 50.9,42.4 50.8,42.4 50.7,42.2 50.6,42.3 50.5,42.3 50.3,42.3 50.3,42.3 
		50.3,42.3 50.3,42.3 50.3,42.4 50.3,42.4 50.2,42.4 50.2,42.5 50.2,42.5 50.1,42.5 50,42.6 49.9,42.7 49.9,42.7 49.9,42.7 
		49.9,42.7 49.9,42.8 49.9,42.8 49.9,42.8 49.8,42.8 49.8,42.8 49.8,42.8 49.7,42.8 49.7,42.8 49.6,42.8 49.6,42.9 49.6,42.9 
		49.6,42.9 49.6,43 49.6,43 49.5,43 49.5,43 49.5,43.1 49.4,43.1 49.4,43.1 49.4,43.2 49.4,43.2 49.3,43.2 49.3,43.3 49.3,43.3 
		49.1,43.3 49.1,43.4 49.1,43.4 49,43.5 49,43.5 49,43.5 49.1,43.5 49.1,43.6 49.1,43.6 49.1,43.6 49.1,43.6 49.1,43.7 49.1,43.7 
		49.1,43.7 49.1,43.7 49.1,43.8 49.1,43.8 49.1,43.8 49.1,43.8 49.1,43.8 49.1,43.8 49.1,43.9 49.2,43.9 49.2,43.9 49.2,43.9 
		49.2,44 49.2,44 49.2,44 49.2,44.1 49.2,44.1 49.2,44.1 49.2,44.2 49.2,44.2 49.2,44.2 49.2,44.3 49.2,44.3 49.2,44.3 49.2,44.4 
		49.2,44.4 49.2,44.4 49,44.5 48.9,44.5 48.8,44.5 48.8,44.6 48.8,44.6 48.7,44.7 48.6,44.7 48.6,44.7 48.6,44.7 48.6,44.6 
		48.6,44.6 48.6,44.5 48.6,44.5 48.6,44.5 48.6,44.5 48.7,44.5 48.7,44.4 48.7,44.4 48.7,44.4 48.6,44.3 48.6,44.3 48.5,44.3 
		48.3,44.3 48.3,44.4 48.2,44.4 48.2,44.4 48.2,44.5 48.2,44.5 48.1,44.5 48.1,44.5 48,44.6 48,44.6 48,44.6 48,44.6 48,44.7 
		48,44.7 48,44.7 48,44.7 48,44.8 48,44.8 48,44.9 48,44.9 48,44.9 48,44.9 47.9,45 47.9,45 47.9,45 47.8,45 47.7,45.1 47.7,45.1 
		47.4,45.1 47.4,45.1 47.3,45.2 47.2,45.3 47.2,45.2 46.8,45 46.7,45 46.7,45 46.7,45 46.7,45 46.7,44.9 46.7,44.9 46.5,44.8 
		46.5,44.8 46.5,44.8 46.4,44.8 46.4,44.8 46.4,44.9 46.4,44.9 46.4,44.9 46.3,44.9 46.3,45 46.3,45 46.3,45 46.2,44.9 46.1,44.9 
		46,44.9 46,44.9 46,44.9 46,44.8 46,44.8 46,44.7 45.9,44.7 45.9,44.7 45.8,44.7 45.7,44.7 45.7,44.7 45.5,44.7 45.4,44.6 
		45.4,44.6 45.4,44.6 45.3,44.6 45.3,44.6 45.3,44.5 45.4,44.5 45.4,44.5 45.4,44.5 45.4,44.4 45.4,44.4 45.4,44.4 45,44.2 
		44.9,44.3 44.9,44.3 44.9,44.3 44.9,44.4 44.9,44.4 44.8,44.6 44.8,44.7 44.8,44.8 44.7,44.9 44.7,44.9 44.6,45 44.5,44.9 
		44.4,44.9 44.4,44.9 44.3,45 44.3,45 44.3,45 44.3,45.1 44.2,45.1 44.2,45.1 44.1,45.1 44.1,45.1 44.1,45.1 44,45.1 44,45.1 
		44,45.1 44,45.2 44,45.2 43.9,45.3 43.9,45.5 43.9,45.6 43.8,45.7 43.5,46 43.4,46.1 43.4,46.2 43.4,46.4 43.4,46.4 43.3,46.4 
		43.3,46.5 43.2,46.5 43.2,46.6 43.2,46.6 43.2,46.6 43.2,46.6 43.2,46.7 43.2,46.7 43.2,46.7 43.2,46.7 43.2,46.7 43.2,46.8 
		43.2,46.8 43.2,46.8 43.2,46.8 43.3,46.9 43.3,46.9 43.3,46.9 43.3,46.9 43.4,47 43.4,47.1 43.4,47.2 43.4,47.2 43.4,47.4 
		43.5,47.7 43.5,47.8 43.5,47.8 43.5,47.9 43.5,48.1 43.6,48.1 43.6,48.1 43.7,48.1 43.7,48.1 43.8,48.1 44.5,48 44.5,48 44.4,48 
		44.5,48 44.6,48 44.7,48 44.9,48.2 45,48.2 45,48.1 44.9,48.1 44.9,48 44.9,47.9 45,47.9 45.1,47.9 45.2,47.7 45.2,47.8 45.1,47.9 
		45,48 45,48 45,48.1 45.1,48.2 45.2,48.2 45.2,48.2 45.3,48.3 45.4,48.4 45.5,48.4 45.5,48.4 46.3,49 46.4,49.1 46.4,49.2 
		46.5,49.4 46.6,49.5 46.7,49.5 46.7,49.5 46.7,49.3 46.7,49.2 46.8,49.1 46.9,49.1 47,49.1 47.1,49.1 47.1,49.1 47.2,49.1 
		47.1,49.2 46.9,49.2 46.8,49.2 46.7,49.3 46.8,49.5 46.7,49.6 46.7,49.6 46.6,49.7 46.5,49.7 46.5,49.7 46.5,49.8 46.5,49.9 
		46.5,50 46.6,50 46.6,50.2 46.6,50.2 46.7,50.2 46.9,50.2 46.9,50.3 47.1,50.4 47.1,50.5 47.1,50.6 47.1,50.6 47.2,50.6 47.2,50.6 
		47.2,50.6 47.2,50.7 47.1,50.8 47.1,50.8 47.1,50.8 47,50.7 47,50.7 47,50.7 47,50.6 46.9,50.5 46.9,50.5 46.8,50.6 46.9,50.6 
		46.9,50.6 47,50.8 47,50.9 47.1,51 47.2,51.2 47.2,51.2 47.3,51.3 47.3,51.4 47.3,51.4 47.5,51.5 47.5,51.6 47.6,51.7 47.7,51.8 
		47.8,51.9 48,51.9 48,51.9 48.1,51.9 48.3,52.1 48.3,52.2 48.4,52.2 48.5,52.3 48.6,52.3 48.6,52.3 48.7,52.3 48.8,52.3 48.9,52.4 
		48.9,52.5 49,52.5 49.1,52.5 49.4,52.4 49.4,52.3 49.5,52.3 49.5,52.3 49.5,52.2 49.5,52.2 49.5,52.2 49.5,52.1 49.5,52.1 49.4,52 
		49.4,52 49.5,51.9 49.5,51.9 49.5,51.9 49.6,51.9 49.6,51.9 49.7,51.9 49.7,52 49.8,52 49.8,51.8 49.8,51.8 49.9,51.6 49.9,51.6 
		49.9,51.5 49.9,51.5 49.9,51.5 50,51.5 50,51.5 50,51.4 50,51.4 50.1,51.2 50.1,51.2 50.2,51.1 50.2,51 50.3,51 50.3,51 50.4,51 
		50.4,50.9 50.6,50.9 50.8,50.8 51,50.7 51,50.7 51.1,50.7 51.1,50.7 51.5,50.7 51.6,50.7 51.7,50.7 51.8,50.7 51.8,50.6 51.9,50.6 
		52,50.4 52.2,50.4 52.3,50.2 52.3,50.2 52.3,50.1 52.4,50.1 52.4,50 52.5,49.9 52.5,49.9 52.6,49.8 53.1,49.9 53.2,49.9 53.4,49.8 
		53.5,49.8 53.6,49.8 53.9,49.8 54.1,49.8 54.3,49.7 54.4,49.8 54.6,49.8 54.7,49.8 54.8,49.8 54.9,49.8 55,49.8 55,49.8 55.1,49.9 
		55.2,49.9 55.2,49.9 55.3,49.9 55.5,50 55.6,49.9 55.7,49.8 55.7,49.8 55.8,49.8 56.1,49.7 56.3,49.8 56.5,49.7 56.8,49.8 57,49.7 
		57,49.7 57.1,49.8 57.2,49.9 57.2,49.9 57.3,49.9 57.3,49.9 57.3,49.9 57.4,49.9 57.4,50 57.5,50 57.6,50 57.6,50 57.7,50 57.8,50 
		57.8,49.9 57.8,49.9 57.9,49.8 58,49.7 58,49.5 58.1,49.5 58.3,49.4 58.4,49.5 58.4,49.5 58.5,49.5 58.5,49.5 58.6,49.4 58.7,49.4 
		58.8,49.4 58.8,49.5 58.9,49.5 59,49.6 59.1,49.7 59.2,49.8 59.3,49.8 59.3,49.8 59.4,49.8 59.4,49.8 59.5,49.7 59.5,49.7 
		59.5,49.7 59.6,49.7 59.6,49.6 59.6,49.6 59.6,49.5 59.6,49.5 59.7,49.4 59.7,49.4 59.8,49.2 59.8,49.2 59.9,49.1 59.9,49.1 
		60,49.1 60,49.1 60.1,49.1 60.1,49 60.1,49 60.1,49 60.1,48.9 60.1,48.9 60.1,48.9 60.1,48.8 60.2,48.5 60.2,48.4 60.3,48.3 
		60.3,48.2 60.3,48 60.4,47.9 60.6,47.7 60.7,47.6 60.7,47.5 60.7,47.5 60.8,47.4 60.8,47.4 60.8,47.4 60.8,47.4 	"/>
	<path fill="#F47C58" d="M14.4,61.1L14.4,61.1l0-0.1l0,0l0,0l-0.1,0l-0.1,0l-0.1,0l-0.1,0l-0.1,0l-0.1,0L13.8,61l-0.1,0.1l0,0.1l0,0
		l0,0l0,0l0,0.1l0,0.1l0.1,0.2l0,0.1l0,0.1l0,0l0,0l0,0.2l0,0l0,0l0,0h0l0-0.1l0.1-0.1l0.1-0.1l0.1-0.1l0,0l0-0.1l0-0.1l0-0.1l0-0.1
		l0.1-0.1L14.4,61.1L14.4,61.1L14.4,61.1z M14,64.2L14,64.2l-0.1,0l-0.1,0.1l-0.1,0l0,0l0,0l0,0l-0.1,0.1l0,0l-0.1,0l-0.1,0l-0.1,0
		l0,0.1l0,0l0.1,0l0.2,0l0,0l0,0l0,0l0.1,0l0,0l0,0l0-0.1l0,0l0,0l0,0l0,0l0,0l0,0l0,0l0,0l0,0v0l0,0l0,0l0.1-0.2L14,64.2L14,64.2
		L14,64.2z M16.1,63.1L15.9,63l-0.1,0l-0.2,0.1l0,0.2l0.1,0.2l0.2,0.1l0,0l0,0l0,0l0,0l0,0l0,0l0.1-0.1l0,0l0-0.1l0-0.1l-0.1-0.1
		L16.1,63.1z M21.3,63.7L21.3,63.7L21.3,63.7L21.3,63.7l-0.1-0.1l0,0l0,0l0,0l0,0l0-0.1l0-0.1l0,0l0,0l0,0l0,0l0,0l-0.1,0l0,0.1
		l-0.1,0l-0.2,0h-0.2l-0.2-0.1l0,0l0,0l0,0l0,0l0,0l0,0l0,0.1l0,0.1l0,0l0,0.1l0,0.1l-0.1,0.1l-0.1,0L20,63.6l0,0l0,0l0,0.1l0,0.1
		l0,0l0,0.1l0,0.1l0.1,0.2l0,0l0,0l0.1,0l0,0l0,0l0.2,0.1l0,0l0.1,0l0.1,0l0,0l0,0l0,0l0,0l0.1-0.1l0,0l0,0l0.2-0.1l0,0l0.1-0.1l0,0
		l0,0l0,0l0-0.1l0,0l0-0.1l0,0l0,0v0l0-0.1L21.3,63.7L21.3,63.7z M25.7,61.3L25.7,61.3l-0.2-0.1l-0.1,0l-0.1,0l0,0l0,0l0,0l0,0.1
		l0,0.1l0,0.2L25,61.9l-0.1,0.2l-0.1,0.1l0,0l0,0l-0.1,0.2l-0.1,0.1l0,0.1l0,0.2l0,0.1l0,0.1l0,0.1l-0.1,0.1l-0.2,0.1L24,63.3
		l-0.1,0l-0.1,0l-0.1,0l0,0l0,0l0,0l0,0l0,0l0,0l0.2,0l0.1,0l0.1,0.1h0.1l0.1-0.1l0.1-0.1l0.1-0.1l0.1-0.1l0.1,0l0.1,0l0.1-0.1
		l0.1,0l0.3,0l0.1-0.1l0.1-0.1l0-0.1l0-0.1l0-0.1l0,0l0,0l0,0l0,0l0.1,0l0,0l0,0l0,0l0,0l0,0l0-0.1l0,0l0.1-0.1l0-0.1l0-0.3l0-0.1
		L25.7,61.3z M26.8,59.6L26.8,59.6l-0.1,0l0,0l0,0.1l0,0.1l0,0.1l0,0l0,0h-0.1l0,0l-0.1,0l-0.1,0l-0.1,0.1l-0.1,0l-0.1,0l-0.1,0l0,0
		l0,0l-0.1,0.1l-0.1,0.2l0,0l0,0.2l0,0.1l0,0.1l0,0l0,0l0,0l0,0l0,0l0,0l0.1,0l0.1,0l0,0h0l0-0.1l0.1-0.1l0.1-0.1l0.1,0l0,0l0.1,0
		l0,0l0,0l0,0l0,0l0.1,0l0.1-0.1l0.1-0.1l0-0.1l0,0l0-0.1l0,0l0,0l0,0l0,0l0-0.1l0,0l0,0l0-0.1l0.1,0l0,0l0-0.1L26.8,59.6L26.8,59.6
		z M19,61.8l-0.2,0.1l-0.3,0l0,0l0,0.1l-0.1,0l-0.1,0l-0.1,0l0,0l-0.1,0l0,0l0,0l0,0l-0.1,0L18,62.3l0,0l-0.1,0l0,0l0,0.1l0,0l0,0
		l-0.2,0l-0.1,0l0,0l-0.1,0l-0.1,0l-0.1,0l0,0l0,0l-0.1,0l0,0l-0.2,0.1l0,0l0,0.1l0.1,0.1l0,0.1l0,0.1l0,0l0,0.1l0,0l0,0l0,0.1
		l0,0.1l0,0.1l0.1,0.1l0,0l0,0l0,0.1l0,0l0,0l0,0l0,0l0,0l0,0.1l0.1,0l0.1,0l0.2-0.1l0.1,0l0.1,0l0.1,0l0,0l0.2-0.2l0-0.1l0.1,0l0,0
		l0.1-0.2l0.1-0.2l0-0.1l0,0l0,0l0,0l0,0l0,0l0,0l0-0.1l0,0l0,0l0,0l0.1-0.1l0.1-0.1l0,0l0,0l0.1-0.1L19,62l0.1-0.1L19,61.8L19,61.8
		z M26.6,59.6L26.6,59.6l0-0.1l-0.1,0l0,0.1L26.6,59.6l-0.1,0v0L26.6,59.6L26.6,59.6z"/>
</g>
<g>
	<rect x="-21.2" y="89" fill="none" width="128.6" height="38.1"/>
	<text transform="matrix(1 0 0 1 26.4752 98.3001)" fill="#818281" font-family="'ArialMT'" font-size="13px">Spain</text>
</g>
</svg>
