<?xml version="1.0" encoding="utf-8"?>
<!-- Generator: Adobe Illustrator 23.0.1, SVG Export Plug-In . SVG Version: 6.00 Build 0)  -->
<svg version="1.0" id="Countries" xmlns="http://www.w3.org/2000/svg" xmlns:xlink="http://www.w3.org/1999/xlink" x="0px" y="0px"
	 viewBox="0 0 87 130" enable-background="new 0 0 87 130" xml:space="preserve">
<circle fill="#DAF1F9" stroke="#FFFFFF" stroke-width="0.25" cx="44.2" cy="40.8" r="39"/>
<g id="Portugal">
	<polygon id="Viseu" fill-rule="evenodd" clip-rule="evenodd" fill="#D0B0CE" stroke="#FFFFFF" stroke-width="0.25" points="
		68.3,24.2 68.5,24.2 68.3,24.7 68.2,24.9 68.2,25.1 68.3,25.3 68.2,25.3 68,25.3 68,25.4 68,25.4 68.1,25.5 68.1,25.6 68.2,25.6 
		68.2,25.6 68.2,25.7 68.3,25.7 68.3,25.8 68.2,25.9 68,26.1 67.8,26.1 67.7,26.1 67.7,26.3 67.8,26.3 67.8,26.4 67.8,26.5 
		67.6,26.8 67.6,26.9 67.5,26.9 67.4,26.8 67.4,26.8 67.2,26.6 67.1,26.5 67,26.5 66.9,26.5 66.8,26.5 66.8,26.6 66.7,26.6 
		66.7,26.8 66.6,26.9 66.5,27 66.5,27.1 66.5,27.1 66.6,27.2 66.7,27.3 66.8,27.4 66.8,27.4 66.8,27.5 66.8,27.5 66.7,27.6 
		66.8,27.7 66.9,27.8 67,28 67,28.2 66.9,28.3 66.7,28.7 66.8,28.9 66.4,28.9 66.1,29 65.9,29.2 65.7,29.2 65.6,29.4 65.5,29.4 
		65.3,29.4 65.3,29.5 65.2,29.5 65.1,29.5 65,29.6 64.8,29.8 64.7,30 64.6,30.1 64.3,30.3 64,30.4 63.5,30.7 63.2,30.7 62.9,30.7 
		62.9,30.7 62.9,30.8 62.9,30.8 62.8,30.9 62.8,30.9 62.8,30.9 62.7,30.8 62.6,30.8 62.5,30.7 62.4,30.6 62.2,30.5 62.2,30.5 
		62.1,30.5 62.1,30.2 62.2,30 62.3,29.9 62.3,29.8 62.2,29.7 62.2,29.6 62.2,29.6 62.3,29.5 62.7,29.3 62.6,29.2 62.6,29.2 
		62.5,29.1 62.5,29.1 62.5,28.9 62.4,28.8 62.4,28.7 62.4,28.6 62.5,28.6 62.7,28.5 62.6,28.4 62.5,28.4 62.5,28.3 62.4,28.2 
		62.4,28 62.4,28 62.4,27.9 62.3,27.8 62.3,27.8 62.2,27.7 62.2,27.7 62.2,27.6 62.3,27.5 62.4,27.4 62.6,27.3 62.7,27 62.8,26.9 
		62.8,26.9 62.7,26.6 62.9,26.6 62.9,26.6 63,26.6 63.1,26.6 63.2,26.6 63.3,26.6 63.3,26.6 63.4,26.6 63.4,26.6 63.5,26.6 
		63.5,26.6 63.5,26.6 63.5,26.5 63.5,26.3 63.5,26.1 63.4,26 63.4,26 63.5,25.9 63.5,25.8 63.7,25.5 63.7,25.5 63.7,25.4 63.7,25.4 
		63.7,25.4 63.7,25.4 63.6,25.4 63.5,25.4 63.5,25.5 63.5,25.5 63.5,25.6 63.4,25.6 63.3,25.6 62.9,25.4 62.9,25.2 62.9,25.1 
		62.8,25.1 62.8,25 62.5,24.8 62.9,24.6 63.1,24.6 63.7,24.6 63.8,24.6 64.6,24.3 64.8,24.2 65.2,24 65.3,24 65.4,24 65.5,24.1 
		65.6,24.2 65.7,24.2 65.8,24.2 65.9,24.2 66,24.2 66.2,24 66.3,24 66.4,24 66.4,24 66.7,24 66.9,24 67.7,23.7 67.7,23.7 67.8,23.8 
		68,24 68.1,24.1 	"/>
	
		<polygon id="Viana_do_Castelo_x0A__x0A_" fill-rule="evenodd" clip-rule="evenodd" fill="#D0B0CE" stroke="#FFFFFF" stroke-width="0.25" points="
		63.1,16.9 63.1,16.8 63.3,16.8 63.4,16.8 63.5,16.8 63.6,16.9 63.6,17 63.6,17.2 63.6,17.3 63.5,17.4 63.3,17.5 63.1,17.6 62.9,18 
		62.8,18.1 62.8,18.3 62.9,18.4 63.1,18.5 63.1,18.6 63.2,18.7 63.1,18.9 63.1,18.9 63.1,18.9 63,18.9 62.5,19.2 62.3,19.3 
		61.8,19.3 61.7,19.3 61.6,19.3 61.6,19.4 61.4,19.5 61.3,19.5 61.3,19.5 61.2,19.5 61.2,19.5 61.2,19.5 61.1,19.6 61.1,19.6 
		61.1,19.7 61.1,19.8 61.1,19.9 61,19.9 61,20 61,20.1 60.9,20.1 61,20.2 60.9,20.4 60.8,20.4 60.8,20.4 60.7,20.3 60.6,20.3 
		60.4,20.2 60.4,20.2 60.3,20.2 60.3,20.3 60.3,20.3 60.2,20.3 59.9,20.3 59.5,20.5 59.4,20.5 59.3,20.5 59.2,20.5 59.2,20.4 
		59.2,20.2 59.2,20 59.2,19.9 59.3,19.9 59.7,19.8 59.8,19.8 59.9,19.7 60,19.6 59.3,19.8 59.2,19.8 59.1,19.8 59,19.8 58.9,19.5 
		58.9,19.3 58.9,18.9 58.9,18.7 58.9,18.6 59,18.5 59.4,18.1 59.6,17.9 59.7,17.6 59.7,17.6 59.9,17.5 60,17.4 60.2,17.4 60.2,17.3 
		60.3,17.1 60.3,17 60.4,16.9 60.5,16.9 60.7,16.9 60.9,16.9 61.1,16.7 61.2,16.7 62.1,16.5 62.2,16.5 62.4,16.3 62.4,16.3 
		62.5,16.3 62.6,16.3 62.7,16.2 62.9,16.1 62.9,16.2 63,16.3 63,16.7 63,16.8 	"/>
	<polygon id="Vila_Real" fill-rule="evenodd" clip-rule="evenodd" fill="#D0B0CE" stroke="#FFFFFF" stroke-width="0.25" points="
		65,18.5 65.1,18.5 65.1,18.4 65.1,18.4 65.2,18.4 65.4,18.4 65.7,18.3 65.9,18.2 66,18.2 66.2,18.3 66.3,18.4 66.6,18.4 66.5,18.6 
		66.5,18.7 66.6,18.8 66.7,18.8 66.8,18.8 67,18.7 67.1,18.7 67.1,18.6 67.1,18.5 67.1,18.5 67.1,18.5 67.2,18.5 67.3,18.5 
		67.3,18.5 67.4,18.6 67.5,18.7 67.6,18.8 67.6,18.9 67.7,18.9 67.8,18.7 67.9,18.6 68,18.6 68.2,18.6 68.3,18.6 68.7,18.5 
		68.9,18.3 69,18.3 69,18.3 69.1,18.5 69,18.5 69,18.7 69,18.9 69.1,18.9 69.1,19.1 69.2,19.2 69.2,19.3 69.2,19.4 69.2,19.5 
		69.2,19.5 69.1,19.5 69.1,19.6 68.9,19.9 68.7,20.6 68.7,20.8 68.7,20.9 68.7,21 68.8,21 68.8,21.1 68.8,21.1 68.8,21.2 68.8,21.2 
		68.8,21.2 68.7,21.3 68.7,21.3 68.6,21.3 68.6,21.4 68.5,21.5 68.4,21.6 68.4,21.7 68.3,21.7 68.3,21.7 68.1,21.9 68.1,22.3 
		68.1,22.5 68.2,22.6 68.2,22.6 68.3,22.7 68.1,22.8 68,22.9 68,23 68,23 68,23.1 68,23.1 67.9,23.2 67.9,23.3 67.9,23.4 67.9,23.4 
		67.9,23.5 67.9,23.5 67.8,23.5 67.7,23.5 67.7,23.6 67.7,23.6 67.7,23.7 66.9,24 66.7,24 66.4,24 66.4,24 66.3,24 66.2,24 66,24.2 
		65.9,24.2 65.8,24.2 65.7,24.2 65.6,24.2 65.5,24.1 65.4,24 65.3,24 65.2,24 64.8,24.2 64.9,24 64.9,23.8 65,23.5 64.9,23.5 
		64.9,23.4 64.8,23.2 64.7,23.1 64.8,23 64.6,22.9 64.5,22.8 64.5,22.7 64.5,22.7 64.5,22.6 64.4,22.5 64.4,22.3 64.4,22.3 
		64.4,22.2 64.4,22.2 64.4,22.2 64.5,22.2 64.5,22.1 64.6,22 64.6,21.9 64.6,21.9 64.6,21.8 64.6,21.6 64.7,21.5 64.7,21.5 
		64.7,21.5 64.8,21.5 64.8,21.5 64.9,21.4 64.9,21.3 65,21.3 65.1,21.2 65.3,20.8 65.3,20.8 65.2,20.6 65.2,20.5 65.1,20.5 65,20.6 
		64.8,20.7 64.8,20.7 64.5,20.6 64.5,20.6 64.4,20.6 64.3,20.6 64.2,20.5 64.2,20.2 64.3,20.1 64.3,20 64.3,19.9 64.2,19.9 
		64.1,19.8 64,19.8 64,19.8 63.9,19.8 63.8,19.8 63.8,19.8 63.7,19.8 63.7,19.8 63.7,19.9 63.6,19.9 63.5,19.9 63.6,19.7 63.7,19.7 
		63.7,19.6 63.8,19.4 63.8,19.3 63.9,19.1 63.9,19 63.9,19 63.9,18.9 63.9,18.9 63.9,18.9 63.9,18.9 64.1,18.6 64.2,18.5 64.3,18.5 
		64.3,18.4 64.4,18.4 64.5,18.4 64.6,18.3 64.6,18.2 64.7,18.1 64.8,18.1 64.8,18.3 64.8,18.5 	"/>
	<path id="Setúbal" fill="#D0B0CE" stroke="#FFFFFF" stroke-width="0.25" d="M63.4,47.1l0-0.2l-0.1-0.3L63,46.4l-0.1,0l-0.1,0
		l-0.1,0l-0.1,0l-0.1-0.1l-0.1-0.1l-0.1-0.1l0,0V46l0.1-0.2l0-0.1l0-0.1l0,0l-0.1,0l0,0l0,0l0,0l0,0l-0.1-0.2l0,0l0,0l0,0l0,0l0,0
		L62.1,45L62,44.9l-0.1,0l-0.1,0L61.7,45l-0.1,0l-0.2,0l-0.1,0l-0.1,0l0,0l0,0l0,0l-0.1,0l0,0l0,0l0,0.1l0,0l0,0l-0.1,0l-0.2,0
		l-0.2-0.1l-0.2,0l0-0.2l0-0.1l0-0.1l0-0.1l0-0.1l0.2-0.3l0.5-0.4l0.1-0.1l0-0.1l0-0.1l0-0.1l0.1-0.1l0-0.1l0,0l-0.3,0l-0.2,0
		l-0.1,0l-0.1,0L60.6,43l0-0.1l0-0.1l0-0.1l0-0.1l0-0.1l0,0l0,0l-0.1,0l-0.1,0.1l-0.2-0.1l-0.1,0l0,0l0,0l0,0l-0.2,0.4l-0.1,0.2
		l0,0.1l-0.1,0.1l-0.1,0l0,0l-0.2-0.1l-0.1-0.1l0,0l-0.1,0l-0.1,0l-0.1,0l-0.1,0.1l-0.1,0l-0.1,0l-0.1-0.1l0-0.1l0-0.1l-0.1,0
		l-0.1,0l0,0l0,0l0,0l-0.2,0.2L58,43.4l-0.1,0.1l-0.1,0.1v0l-0.1,0l-0.2,0.1l-0.1,0l0,0.2h0l-0.1-0.1l-0.1-0.1l-0.3,0l-0.3,0
		l-0.1,0.1l0.1,0.2l0.2,0.3l0.1,0.4l0,0.4l0,0.2l-0.2,0.2l0,0.1l0,0l0,0l0,0.1l0,0l0,0l0.2,0l0.1,0l0.1-0.1l0.1,0l0.6-0.1l0.3-0.1
		l0,0l0.3-0.3l0.3-0.1l0.2,0.1l0.2,0.1l0.1,0l0.1,0l0.1-0.1l0-0.1L59.4,45l-0.1,0v0l0.1,0l0.1-0.2l0.1,0l0,0.1l0,0.1l0.1,0.1l0.1,0
		V45l-0.1,0l0,0.1l0,0.1l0,0.1l0,0.1l0.1,0.1l0.4,0.2l0.2,0l0.2,0l-0.3,0.1l-0.6-0.2l-0.3,0l0-0.1l-0.1-0.1L59,45.5l-0.2-0.2
		l-0.1-0.1l-0.1,0.1l0.2,0.1l0.2,0.2l0.2,0.2l0.2,0.2l0.2,0.3l0.1,0.4l0,0.5l0,0.4L59.4,48l-0.1,0.5L59,49.2l0,0l0,0l0,0l0,0.1
		l0.2,0.2l0.2,0l0.1,0.2l0,0.2l0,0.3l0,0.1l0.1,0.1l0,0l0,0l0,0l0,0l0.1,0l0,0l0.1,0l0,0.1l0,0l0.2,0.2l0.1,0.1l0,0l0,0l0,0l0,0l0,0
		l0,0l0,0l0,0l0.1,0l0.1,0l0.1,0l0-0.1l0-0.1l0-0.1l0.1-0.2l0-0.1l0.1-0.1l0-0.1l0-0.1l0.1-0.1l0.1-0.1l0.5-0.1l0.3,0l0.2,0l0,0
		l0.2,0.1l0.1-0.2l0-0.1l0.1-0.2l0-0.3l0-0.2L62.4,49l0-0.1l-0.1-0.1l-0.1,0l-0.1,0l-0.1,0l-0.1-0.1l-0.1-0.1l0-0.1l0,0l0,0l0-0.1
		l0,0l0,0l0-0.1l0-0.1l0,0l0,0l0,0l0,0l0,0l0,0l0-0.1l0,0l0,0l0,0l0,0l0,0l0,0l0,0l0.1,0l0,0l0,0l0,0l0-0.1l0-0.1l0,0l0,0l0.2,0
		l0-0.1l0-0.1l0,0l0.2-0.1l0.1-0.1l0.2-0.1l0-0.1L63.4,47.1L63.4,47.1z M59.1,45.2L59.1,45.2L59.1,45.2L59.1,45.2l0,0.1L59.1,45.2
		L59.1,45.2z"/>
	<polygon id="Santarém" fill-rule="evenodd" clip-rule="evenodd" fill="#D0B0CE" stroke="#FFFFFF" stroke-width="0.25" points="
		61.5,35.4 61.6,35.4 61.9,35.3 62,35.3 62.1,35.2 62.2,35.3 62.3,35.2 62.2,35.1 62.2,35 62.2,35 62.3,35 62.5,35 62.6,35.2 
		62.6,35.2 62.7,35.2 62.8,35.2 62.8,35.3 62.8,35.3 62.8,35.4 62.8,35.4 62.8,35.5 62.8,35.6 62.8,35.7 62.8,35.8 62.8,36.1 
		62.9,36.2 63.2,36.3 63.4,36.4 63.5,36.4 63.7,36.4 63.8,36.4 63.8,36.3 63.8,36.3 63.8,36.2 63.8,36.1 63.8,36 63.9,35.9 
		63.9,35.5 64,35.4 64.1,35.4 64.3,35.5 64.4,35.5 64.5,35.5 64.5,35.6 64.5,35.6 64.5,35.7 64.5,35.7 64.5,35.9 64.5,36 64.5,36 
		64.6,36.1 64.6,36.1 64.7,36.1 64.8,36.1 64.9,36.2 65,36.3 65.1,36.4 65.3,36.6 65.3,36.7 65.3,36.8 65.4,36.9 65.3,37 65.2,37 
		65.1,37.2 65.1,37.2 65.1,37.2 65,37.2 65,37.1 64.7,37 64.6,36.9 64.5,37 64.4,37.1 64.3,37.3 64.2,37.6 64.4,37.8 64.5,37.9 
		64.5,38 64.5,38 64.4,38.2 64.1,38.4 64.1,38.5 64,38.6 64,38.6 63.9,38.8 63.8,38.9 63.8,39 63.7,39 63.7,39 63.6,39.1 63.5,39 
		63.4,39.1 63.4,39.1 63.3,39.3 63.1,39.4 62.8,39.7 62.5,40 62.4,40.1 62.2,40.4 62.2,40.5 62.3,40.5 62.4,40.6 62.5,40.6 
		62.5,40.7 62.5,40.8 62.5,40.8 62.6,40.9 62.6,41 62.7,41 62.7,41.1 62.8,41.2 63,41.3 63,41.4 62.9,41.4 62.9,41.4 62.8,41.4 
		62.8,41.4 62.8,41.5 62.8,41.6 62.8,41.7 62.7,41.8 62.7,41.8 62.7,41.9 62.6,41.9 62.7,42 62.7,42 62.7,42.1 63.1,42.2 63.1,42.2 
		63.2,42.2 63.2,42.3 63.2,42.4 63.2,42.5 63.2,42.6 63.3,42.7 63.3,42.7 63.4,42.7 63.4,42.7 63.4,42.8 63.4,42.9 63.3,43 63.2,43 
		63.2,42.9 63.1,42.8 63.1,42.8 63.1,42.8 63,42.8 63,42.8 63,42.7 63,42.7 63,42.7 62.9,42.6 62.7,42.6 62.6,42.5 62.5,42.4 
		62.4,42.3 62.4,42.3 62.4,42.4 62.4,42.4 62.3,42.4 62.3,42.4 62.2,42.4 62.2,42.5 62.1,42.5 62,42.4 61.9,42.4 61.9,42.4 
		61.9,42.5 61.9,42.5 61.9,42.6 61.8,42.6 61.8,42.6 61.7,42.6 61.6,42.6 61.5,42.7 61.5,42.8 61.2,42.8 60.9,43.1 60.7,43.1 
		60.7,43.1 60.6,43 60.6,43 60.5,42.9 60.5,42.8 60.6,42.8 60.6,42.7 60.6,42.6 60.6,42.6 60.5,42.6 60.4,42.6 60.3,42.7 60.1,42.6 
		60.1,42.6 60,42.6 60,42.5 60,42.6 59.8,42.9 59.7,43.1 59.7,43.2 59.6,43.3 59.5,43.3 59.5,43.3 59.3,43.3 59.2,43.2 59.2,43.2 
		59.1,43.2 59,43.2 58.9,43.2 58.8,43.3 58.8,43.3 58.7,43.3 58.6,43.2 58.6,43.1 58.6,43 58.6,42.8 58.6,42.8 58.5,42.7 58.4,42.6 
		58.4,42.5 58.5,42.4 58.6,42.3 58.6,42.2 58.9,41.6 58.9,41.5 59,41.4 59,41.3 59.1,41.1 59.1,41.1 59,41 59.3,41 59.4,40.8 
		59.4,40.8 59.4,40.8 59.4,40.7 59.4,40.7 59.5,40.6 59.6,40.5 59.4,40.6 59.4,40.6 59.4,40.5 59.3,40.5 59.3,40.4 59.3,40.4 
		59.2,40.4 59.1,40.3 58.9,40.2 58.9,40.1 58.9,40 58.8,40 58.8,40 58.7,39.9 58.7,39.9 58.8,39.8 58.9,39.8 59.1,39.8 59.2,39.8 
		59.3,39.7 59,39.4 58.9,39.3 58.7,39.4 58.3,39.2 58.3,39.1 58.2,38.9 58.2,38.7 58.1,38.5 58.2,38.4 58.3,38.2 58.4,38.2 
		58.5,38.2 58.5,38.1 58.7,37.7 58.8,37.6 59,37.5 59.4,37.5 59.7,37.5 59.8,37.5 59.8,37.4 59.8,37.4 59.8,37.4 59.8,37.3 
		59.7,37.2 59.7,37.2 59.7,37.1 59.7,37.1 59.8,37.1 59.8,37.1 59.9,37.1 59.9,37.1 60.1,36.9 60.1,36.8 60.1,36.6 60.1,36.5 
		60,36.2 60.1,36.1 60.2,36.1 60.2,36.1 60.3,36 60.3,35.9 60.3,35.8 60.2,35.8 60.2,35.7 60.1,35.7 60.1,35.6 60.1,35.5 60.1,35.4 
		60.1,35.3 60.1,35.3 60.2,35.2 60.5,35.1 60.6,35.1 60.6,35.1 60.8,35 61,34.8 61.1,34.8 61.2,34.8 61.3,34.7 61.4,34.7 61.4,35 
		61.5,35.1 61.5,35.3 61.5,35.4 61.5,35.4 	"/>
	<polygon id="Porto" fill-rule="evenodd" clip-rule="evenodd" fill="#D0B0CE" stroke="#FFFFFF" stroke-width="0.25" points="
		60.6,22.6 60.6,22.6 60.6,22.6 61,22.6 61,22.6 61.1,22.6 61.1,22.6 61.2,22.5 61.3,22.4 61.4,22.4 61.5,22.4 61.5,22.4 61.5,22.5 
		61.7,22.5 61.9,22.5 62.1,22.4 62.2,22.4 62.3,22.5 62.3,22.5 62.4,22.4 62.5,22.4 62.7,22.3 62.8,22.2 62.9,22.1 63.2,22.2 
		63.3,22.3 63.3,22.4 63.3,22.5 63.5,22.6 63.7,22.7 63.8,22.7 63.9,22.8 64,22.8 64.1,22.8 64.1,22.8 64.1,22.8 64.2,22.7 
		64.2,22.7 64.2,22.7 64.3,22.7 64.3,22.6 64.3,22.6 64.3,22.6 64.4,22.5 64.5,22.6 64.5,22.7 64.5,22.7 64.5,22.8 64.6,22.9 
		64.8,23 64.7,23.1 64.8,23.2 64.9,23.4 64.9,23.5 65,23.5 64.9,23.8 64.9,24 64.8,24.2 64.6,24.3 63.8,24.6 63.7,24.6 63.1,24.6 
		62.9,24.6 62.5,24.8 62.4,24.9 62.4,24.9 62.1,25.1 62,25.1 61.8,25.1 61.8,25.2 61.8,25.2 61.9,25.3 61.9,25.3 61.9,25.4 
		61.8,25.4 61.7,25.3 61.7,25.2 61.6,25.1 61.5,25 61.4,25.1 61.4,25.2 61.3,25.3 61.3,25.3 61.2,25.3 61.1,25.3 61.1,25.2 61,25.2 
		61,25.2 60.9,25.3 60.7,25.3 60.6,25.3 60.3,25.3 60.2,25.3 60.2,25.3 60.2,25.2 60.2,24.7 60.2,24.4 60.3,24.3 60.3,24.2 
		60.1,24.2 59.9,23.9 59.9,23.7 59.7,23.4 59.8,23.3 59.8,23.2 59.7,23.2 59.7,23.1 59.7,22.8 59.7,22.7 59.6,22.7 59.6,22.6 
		59.6,22.5 59.5,22.4 59.5,22.3 59.5,22.2 59.5,21.9 59.5,21.7 59.7,21.7 59.8,21.8 60,21.8 60.1,21.8 60.2,21.9 60.2,21.9 60.3,22 
		60.4,22.1 60.5,22.1 60.5,22.1 60.6,22.2 60.6,22.2 60.6,22.3 60.5,22.3 60.5,22.3 60.4,22.4 60.5,22.4 60.5,22.6 60.5,22.6 	"/>
	<polygon id="Portalegre" fill-rule="evenodd" clip-rule="evenodd" fill="#D0B0CE" stroke="#FFFFFF" stroke-width="0.25" points="
		66.9,36 67,36.1 67.1,36.6 67.3,36.7 67.4,37 67.5,37.1 67.7,37.2 67.8,37.2 67.9,37.4 67.9,37.5 68.1,37.5 68.3,37.6 68.4,37.7 
		68.4,37.9 68.3,38 68.3,38.1 68.3,38.3 68.3,38.4 68.3,38.6 68.3,38.7 68.5,38.8 68.8,39.2 68.7,39.3 68.7,39.5 68.7,39.6 
		68.8,39.7 68.9,39.8 69.1,39.9 69.3,39.9 69.3,40.1 69.3,40.2 69.2,40.3 69.3,40.4 69.3,40.4 69.4,40.5 69.5,40.5 69.6,40.5 
		69.7,40.4 69.9,40.4 70,40.4 70.2,40.5 70.3,40.6 70.4,40.7 70.4,40.9 70.4,41 70.4,41.1 70.4,41.2 70.4,41.2 70.3,41.3 70.1,41.7 
		70,41.9 69.9,42 70,42.2 69.9,42.3 69.9,42.4 69.9,42.4 69.8,42.5 69.7,42.6 69.6,42.6 69.4,42.7 69.3,42.7 69.3,42.8 69.2,42.9 
		69.1,43 69,43 68.9,43.1 68.9,43.1 68.9,43 68.9,43 68.9,42.9 69,42.8 69,42.7 69,42.6 68.9,42.6 68.9,42.5 68.8,42.5 68.7,42.5 
		68.5,42.6 68.4,42.7 68.3,42.8 68.2,42.8 68.1,42.8 68,42.8 67.9,42.8 67.9,42.7 67.8,42.6 67.8,42.5 67.8,42.4 67.7,42.3 
		67.7,42.2 67.7,42 67.5,41.9 67.5,41.8 67.5,41.7 67.5,41.6 67.4,41.5 67.4,41.4 67.1,41.3 67.1,41.3 67.1,41.3 67.1,41.3 67,41.3 
		66.9,41.3 67,41.4 67,41.4 67,41.5 67,41.5 66.9,41.6 66.8,41.6 66.7,41.6 66.6,41.7 66.5,41.7 66.5,41.8 66.5,41.9 66.4,41.9 
		66.4,41.9 66.4,41.9 66.2,41.9 66.2,41.8 66.1,41.8 66,41.9 66,41.9 65.9,41.8 65.9,41.8 65.8,41.9 65.7,42 65.5,42.1 65.4,42 
		65.3,42.1 65.3,42.1 65.2,42 65,41.9 64.7,41.6 64.7,41.5 64.5,41.5 64.5,41.6 64.4,41.6 64.4,41.7 64.3,41.7 64.3,41.7 64.1,41.7 
		64.1,41.7 64.1,41.6 64.1,41.5 64.1,41.4 64,41.3 63.9,41.3 63.9,41.2 63.9,41.2 63.8,41.2 63.7,41.3 63.7,41.3 63.7,41.3 
		63.7,41.3 63.7,41.3 63.7,41.4 63.7,41.4 63.6,41.4 63.6,41.4 63.6,41.3 63.6,41.2 63.6,41.1 63.6,41.1 63.5,41.1 63.3,41.1 
		63.3,41.1 63.2,41.1 63.1,41.1 63,41.3 62.8,41.2 62.7,41.1 62.7,41 62.6,41 62.6,40.9 62.5,40.8 62.5,40.8 62.5,40.7 62.5,40.6 
		62.4,40.6 62.3,40.5 62.2,40.5 62.2,40.4 62.4,40.1 62.5,40 62.8,39.7 63.1,39.4 63.3,39.3 63.4,39.1 63.4,39.1 63.5,39 63.6,39.1 
		63.7,39 63.7,39 63.8,39 63.8,38.9 63.9,38.8 64,38.6 64,38.6 64.1,38.5 64.1,38.4 64.4,38.2 64.5,38 64.5,38 64.5,37.9 64.4,37.8 
		64.2,37.6 64.3,37.3 64.4,37.1 64.5,37 64.6,36.9 64.7,37 65,37.1 65,37.2 65.1,37.2 65.1,37.2 65.1,37.2 65.2,37 65.3,37 
		65.4,36.9 65.5,36.8 65.6,36.7 65.7,36.6 65.8,36.5 65.8,36.5 65.9,36.4 66,36.2 66.1,36.2 66.2,36.2 66.3,36.2 66.4,36.2 
		66.5,36.1 66.6,36.1 66.7,36 66.8,35.9 66.9,36 	"/>
	<path id="Lisbon" fill="#D0B0CE" stroke="#FFFFFF" stroke-width="0.25" d="M58.1,41.9L58.1,41.9L58.1,41.9L58,42.1l0,0L58.1,41.9z
		 M57.9,42.3L57.9,42.3L57.9,42.3l-0.1,0.1l-0.1,0.1l-0.1,0.1l0,0l0.1-0.1l0.1-0.1L57.9,42.3L57.9,42.3L57.9,42.3z M57.6,42.5
		l0.2-0.2l0.3-0.7l0.3-0.4l0.1-0.2l0.1-0.1l0.5-0.1l0.3-0.2l0-0.1l0,0l0,0l0,0l-0.1-0.1l0,0l-0.2-0.2l0,0l0-0.1l0,0l0,0l0,0l0,0
		l0.1-0.1l0.1,0l0.2,0l0.1,0l0.1-0.1L59,39.4l0-0.1l-0.2,0.1l-0.4-0.1l0-0.1l-0.1-0.2l-0.2,0l-0.1-0.1l-0.1,0l-0.1,0l0,0l-0.1,0
		L57.5,39l-0.1,0.2l-0.1,0.1l-0.1,0.1L57,39.4L56.9,39l-0.1-0.1l0-0.1l0,0l0,0l-0.1,0l0,0L56.3,39h-0.2l-0.1,0l0,0.2l0,0.2l0,0.3
		L55.9,40l-0.1,0.2l-0.2,0.4l0,0.2L55.5,41l0.1,0.3l0,0.5l-0.2,0.6l-0.1,0.2l-0.1,0.1l0,0.1v0.2l0.1,0.3l0,0.1l0,0.2l0.1,0l0.3,0
		l0.1,0l0.3,0.1l0.2,0.1l0.1-0.1l0.1-0.1l0.4,0l0.3-0.1l0.3-0.1l0.1-0.2l0-0.2l0-0.3l0-0.1l0-0.1L57.6,42.5z M59.4,40.7L59.4,40.7
		L59.4,40.7l-0.2,0.2l-0.1,0l-0.3,0l-0.1,0l-0.2,0.2l-0.2,0.2l-0.3,0.5l0.1,0.2l0,0.2l0.1,0.1l0.1,0l0,0.1l0,0.2l0.1,0.2l0.1,0.1v0
		l0.1,0l0.1,0l0-0.2l0-0.1l0,0l-0.1-0.1l0-0.1l0.1-0.1l0-0.1l0.1-0.2l0.2-0.6l0.1-0.1l0.1-0.1l0-0.1l0.1-0.2l-0.1-0.1l0-0.1l0.2-0.1
		L59.4,40.7L59.4,40.7L59.4,40.7L59.4,40.7z M58.1,42.2L58.1,42.2L58,42.3l0.1,0.1l0.1,0L58.1,42.2L58.1,42.2L58.1,42.2z"/>
	<path id="Leiria" fill="#D0B0CE" stroke="#FFFFFF" stroke-width="0.25" d="M55.1,38.1L55.1,38.1L55.1,38.1L55.1,38.1z M63.5,33.7
		L63.5,33.7l-0.2-0.5l0-0.1l0-0.2l0-0.1l0-0.1l0,0l-0.1,0L63,33l-0.2-0.1l-0.3,0.2l-0.1,0.1l0,0l0,0.1l0,0l0.1,0.1l0,0l0,0.1l0,0
		l-0.1,0l-0.1,0l-0.1,0l-0.2,0.2l-0.2,0.1l0,0l0,0l0,0l0,0l0-0.1l0-0.1l0-0.1l-0.1-0.2l-0.1-0.2l0,0l-0.1,0l0,0l-0.1,0l-0.2,0.2
		l-0.2,0.1L61,33.7l0,0l0,0l0,0l0-0.1v-0.1l0-0.1l0-0.2l0,0l0,0l0,0l0,0l0,0l0,0l-0.1,0.2l0,0l0,0l-0.1,0l0,0l0,0l-0.1-0.1l-0.1-0.1
		l-0.1,0l-0.1,0l-0.1,0l-0.3,0l-0.1,0.1l-0.1,0.1l-0.1,0l-0.2,0l-0.1,0l-0.1,0l-0.2-0.1l0,0l0,0l-0.5,1.6l-0.5,1.3l0,0.3l-0.1,0.2
		l0,0.1l0,0.1L57.5,37l-0.1,0.1l-0.1,0.1l-0.2,0.1L57,37.4l0,0.1l-0.1,0.2l-0.1,0.2l0.1,0.1l0,0.1l-0.1,0.1l-0.1,0L56.7,38l-0.1,0
		l-0.1,0.1L56,38.4l-0.3-0.1l-0.1,0l0,0.1l0.2,0.2l0.1,0.2l0,0.2l0.1,0h0.2l0.3-0.2l0,0l0.1,0l0,0l0,0l0,0.1l0.1,0.1l0.1,0.5
		l0.1,0.1l0.1-0.1l0.1-0.1l0.1-0.2l0.1-0.2l0.1,0l0,0l0.1,0l0.1,0l0.1,0.1l0.2,0l0-0.3l0-0.1l0-0.1l0.1-0.2l0.1,0l0.1,0l0.1-0.1
		l0.2-0.4l0.1-0.1l0.2-0.1l0.4,0l0.3,0l0.1-0.1l0-0.1l0,0v0l0,0l0-0.1l0-0.1l0-0.1l0,0l0,0l0,0l0.1,0l0,0l0.2-0.2l0-0.1l-0.1-0.2
		l0-0.1L60,36.2l0.1-0.1l0.1,0l0,0l0,0l0-0.1l0-0.1l0-0.1l-0.1,0l0,0l0-0.1l0-0.1l0-0.1l0-0.1l0-0.1l0-0.1l0.3-0.1l0.1,0l0.1,0
		l0.1-0.1l0.3-0.2l0.1,0l0.1,0l0.1-0.1l0.1,0l0.1,0.3l0,0.1l0,0.2l0,0.1l0,0l0,0l0.1,0l0.3-0.1l0.1,0l0.1-0.1l0.1,0l0,0l0-0.2l0-0.1
		l0,0l0,0l0.3,0l0-0.1l0,0l0-0.1l0,0l0,0l0,0l0,0l0,0l0.3-0.1l0.1,0l0,0l0-0.1l0.1-0.1l0.1,0l0.1,0l0.1,0l0.1-0.1l0.1-0.2l0-0.1l0,0
		l0,0l0,0L63.5,33.7L63.5,33.7z"/>
	<polygon id="Guarda" fill-rule="evenodd" clip-rule="evenodd" fill="#D0B0CE" stroke="#FFFFFF" stroke-width="0.25" points="
		70.7,25.1 70.7,25.1 70.7,25.2 70.6,25.3 70.6,25.4 70.7,25.5 70.9,25.7 71,25.9 71.1,26.2 71.1,26.4 71.2,26.4 71.3,26.4 
		71.4,26.5 71.4,26.6 71.4,26.7 71.3,26.7 71.3,26.9 71.3,27 71.3,27.1 71.3,27.1 71.3,27.2 71.2,27.2 71.2,27.4 71.3,27.5 
		71.3,27.8 71.4,28 71.4,28.2 71.4,28.3 71.4,28.4 71.2,28.7 71.2,28.8 71.2,28.9 71.2,29 71.3,29.1 71.4,29.2 71.4,29.3 71.4,29.4 
		71.2,29.6 71.1,29.9 71.2,30.2 71.3,30.4 71.5,30.6 71.4,30.8 71.4,30.8 71.1,31 71.1,31.1 71,31.1 71,31.2 71,31.3 71,31.3 
		70.9,31.4 70.8,31.4 70.7,31.4 70.6,31.4 70.6,31.4 70.6,31.4 70.5,31.3 70.4,31.2 70.3,31.2 70.3,31.1 70.2,31.1 70.1,31.2 
		70,31.2 69.8,31.1 69.8,31.1 69.7,31 69.7,30.9 69.6,30.9 69.6,30.9 69.5,30.9 69.5,31 69.5,31.1 69.5,31.1 69.4,31.2 69.3,31.2 
		69.1,31.2 68.8,31.3 68.6,31.3 68.5,31.2 68.4,31.2 68.4,31.2 68.4,31.2 68.3,31.2 68.3,31.1 68.3,31 68.4,31 68.5,30.9 68.5,30.8 
		68.6,30.6 68.6,30.2 68.6,30.1 68.5,30.1 68.4,30.1 68.3,30.2 68.3,30.2 68.2,30.3 68,30.4 67.9,30.4 67.8,30.3 67.5,30.1 
		67.2,30.4 67.1,30.6 67.1,30.6 67.1,30.7 67,30.8 67,30.8 66.8,30.9 66.6,30.8 66.5,31 66.4,31.1 66.2,31.2 66.1,31.3 65.8,31.5 
		65.8,31.5 65.7,31.5 65.5,31.6 65.4,31.4 65.3,31.3 65.3,31.2 65.4,31.1 65.4,31 65.5,30.9 65.6,30.8 65.6,30.8 65.6,30.7 
		65.5,30.6 65.5,30.6 65.4,30.3 65.4,30.2 65.4,30.2 65.3,30.2 65.2,30.1 65.2,30.1 65.2,30 65.3,30 65.3,29.9 65.4,29.9 65.4,29.9 
		65.4,29.8 65.4,29.7 65.4,29.7 65.3,29.6 65.3,29.5 65.3,29.4 65.5,29.4 65.6,29.4 65.7,29.2 65.9,29.2 66.1,29 66.4,28.9 
		66.8,28.9 66.7,28.7 66.9,28.3 67,28.2 67,28 66.9,27.8 66.8,27.7 66.7,27.6 66.8,27.5 66.8,27.5 66.8,27.4 66.8,27.4 66.7,27.3 
		66.6,27.2 66.5,27.1 66.5,27.1 66.5,27 66.6,26.9 66.7,26.8 66.7,26.6 66.8,26.6 66.8,26.5 66.9,26.5 67,26.5 67.1,26.5 67.2,26.6 
		67.4,26.8 67.4,26.8 67.5,26.9 67.6,26.9 67.6,26.8 67.8,26.5 67.8,26.4 67.8,26.3 67.7,26.3 67.7,26.1 67.8,26.1 68,26.1 
		68.2,25.9 68.3,25.8 68.3,25.7 68.2,25.7 68.2,25.6 68.2,25.6 68.1,25.6 68.1,25.5 68,25.4 68,25.4 68,25.3 68.2,25.3 68.3,25.3 
		68.2,25.1 68.2,24.9 68.3,24.7 68.5,24.2 68.9,24.1 69.1,24.2 69.2,24.2 69.3,24.1 69.5,23.9 69.6,23.9 69.5,24.1 69.5,24.1 
		69.5,24.2 69.6,24.2 69.6,24.2 69.7,24.2 69.7,24.3 69.7,24.3 69.7,24.4 69.7,24.5 69.7,24.6 69.8,24.7 69.8,24.8 70.3,25 70.6,25 
		70.7,25.1 	"/>
	<path id="Faro" fill="#D0B0CE" stroke="#FFFFFF" stroke-width="0.25" d="M67.8,55.3L67.8,55.3L67.8,55.3L67.8,55.3l-0.1-0.4l0-0.2
		l0-0.1l-0.1-0.2l0-0.6l-0.1-0.2l0-0.1l0-0.2l0-0.2l0-0.1l0,0l-0.1-0.1l0,0l-0.1-0.1l0,0l-0.1,0l-0.2,0l-0.1,0.1l-0.1,0.1l-0.1,0
		l-0.1,0l0,0l-0.1,0l0,0l-0.3,0L65.5,53l-0.1,0.1l0,0l0,0l0,0l-0.1,0.1l0,0l0,0l0,0.1l-0.1,0l-0.1,0.1l0,0l0,0.1l-0.1,0l-0.2,0
		l-0.1,0l-0.2,0l-0.1,0.1l0,0.1l0,0.1l0,0l0,0.1v0l0,0L64,54l-0.1,0.1l-0.1,0l-0.1,0l-0.2,0l-0.1,0l-0.2-0.1l-0.4-0.3l-0.1,0
		l-0.1-0.1l0,0l0-0.1l0-0.1l-0.2,0l-0.1,0l-0.1,0l-0.1,0l-0.1,0l-0.1,0l-0.2,0.1l0,0l0,0.1l0,0.1l0,0.1l-0.1,0l-0.1,0l-0.3,0l-0.1,0
		l-0.2-0.1l-0.1,0l-0.2,0l0,0l0,0l0,0l0,0l-0.1,0l0,0l-0.2-0.1l-0.2,0l0,0l-0.1-0.1l-0.1-0.1l-0.1-0.1l-0.1,0l-0.1-0.1l-0.1-0.1
		l-0.1,0.2l-0.1,0.3l0,0.2L59,54.1l-0.1,0.2l0,0.1l0,0.1l-0.1,0.3L58.7,55l-0.1,0.1l0.1,0.2l-0.1,0.2l-0.1,0.2l-0.2,0.4l0,0l0,0.1
		l0,0.2l0.1,0l0.1,0l0.1,0.1l0.1,0l0.1,0l0.1-0.1l0.1,0l0,0l0.1-0.1l0.1,0l0.1-0.1l0.1,0l0.1,0l0.1,0l0.2-0.1l0.1,0h0.4l0.2-0.2
		l0.1-0.1l0.1,0l0.3,0l0.3,0l0.3,0.2l0,0l0.3,0.1l0.3,0l0.2-0.1l0.2,0.1l0.2,0.1l0.5-0.1l0.2,0l0.2,0.1l0.2,0.1l0.4,0.2l0.2,0.2
		l0.1,0.2l0-0.1l0,0l-0.1-0.1l0.1,0l0.1,0l0.1,0l0.1-0.1l0.1,0l0.4,0l0.1,0l0.1,0l0.1,0l0.2-0.2l0.9-0.6l0-0.1l0.4-0.2l0.1,0
		l0.2-0.2l0.1-0.1l0.1,0l0.1,0l0.1,0l0.1,0.1L67.8,55.3L67.8,55.3L67.8,55.3z M64.9,56.7L64.9,56.7L64.9,56.7L64.9,56.7l-0.1,0l0,0
		l0,0L64.9,56.7L64.9,56.7L64.9,56.7L64.9,56.7L64.9,56.7L64.9,56.7z M65.1,56.7L65.1,56.7l-0.2,0.1l-0.1,0l-0.3,0v0.1l0.1,0.1
		l0.2,0l0.2,0l0.1-0.1l0,0L65.1,56.7L65.1,56.7L65.1,56.7z M64.8,56.8L64.8,56.8L64.8,56.8L64.8,56.8L64.8,56.8L64.8,56.8z"/>
	<polygon id="Évora" fill-rule="evenodd" clip-rule="evenodd" fill="#D0B0CE" stroke="#FFFFFF" stroke-width="0.25" points="
		63.6,41.4 63.7,41.4 63.7,41.4 63.7,41.3 63.7,41.3 63.7,41.3 63.7,41.3 63.7,41.3 63.8,41.2 63.9,41.2 63.9,41.2 63.9,41.3 
		64,41.3 64.1,41.4 64.1,41.5 64.1,41.6 64.1,41.7 64.1,41.7 64.3,41.7 64.3,41.7 64.4,41.7 64.4,41.6 64.5,41.6 64.5,41.5 
		64.7,41.5 64.7,41.6 65,41.9 65.2,42 65.3,42.1 65.3,42.1 65.4,42 65.5,42.1 65.7,42 65.8,41.9 65.9,41.8 65.9,41.8 66,41.9 
		66,41.9 66.1,41.8 66.2,41.8 66.2,41.9 66.4,41.9 66.4,41.9 66.4,41.9 66.5,41.9 66.5,41.8 66.5,41.7 66.6,41.7 66.7,41.6 
		66.8,41.6 66.9,41.6 67,41.5 67,41.5 67,41.4 67,41.4 66.9,41.3 67,41.3 67.1,41.3 67.1,41.3 67.1,41.3 67.1,41.3 67.4,41.4 
		67.4,41.5 67.5,41.6 67.5,41.7 67.5,41.8 67.5,41.9 67.7,42 67.7,42.2 67.7,42.3 67.8,42.4 67.8,42.5 67.8,42.6 67.9,42.7 
		67.9,42.8 68,42.8 68.1,42.8 68.2,42.8 68.3,42.8 68.4,42.7 68.5,42.6 68.7,42.5 68.8,42.5 68.9,42.5 68.9,42.6 69,42.6 69,42.7 
		69,42.8 68.9,42.9 68.9,43 68.9,43 68.9,43.1 68.9,43.1 68.6,43.3 68.6,43.3 68.6,43.4 68.6,43.5 68.5,43.8 68.5,43.9 68.5,44 
		68.5,44.1 68.5,44.1 68.6,44.2 68.6,44.2 68.6,44.2 68.6,44.3 68.3,44.7 68.2,45.1 68.2,45.2 68.2,45.3 68.2,45.4 68.2,45.5 
		68.1,45.6 68.2,45.6 68.4,45.7 69,46.6 69,46.6 69.1,46.7 69.1,46.8 69.1,46.8 69.2,46.9 69.3,46.9 69.5,47.5 69.6,47.6 69.5,47.6 
		69.5,47.6 69.4,47.7 69.4,47.6 69.3,47.6 69.2,47.5 69.2,47.4 69.2,47.4 69.1,47.2 69.1,47.2 69.1,47.1 69,47.1 68.9,47 68.7,46.9 
		68.7,46.8 68.7,46.8 68.7,46.7 68.7,46.7 68.6,46.6 68.6,46.6 68.6,46.5 68.6,46.5 68.6,46.5 68.6,46.5 68.5,46.4 68.5,46.5 
		68.3,46.5 68.3,46.5 68.2,46.5 68,46.6 67.8,46.7 67.8,46.7 67.8,46.8 67.8,46.9 67.8,46.9 67.7,47 67.7,47 67.6,47.1 67.6,47.1 
		67.4,47.2 67.3,47.3 67.2,47.4 67.2,47.5 67.1,47.5 66.9,47.5 66.7,47.4 66.6,47.4 66.2,47.4 66.1,47.4 65.7,47.2 65.6,47.1 
		65.3,47.1 64.8,46.8 64.6,46.7 64.5,46.6 64.4,46.6 64.3,46.6 64.2,46.7 64.1,46.7 64.1,46.6 64,46.6 64,46.5 63.9,46.5 63.8,46.5 
		63.7,46.5 63.3,46.5 63.2,46.6 63,46.4 62.9,46.3 62.8,46.3 62.8,46.3 62.7,46.3 62.6,46.2 62.5,46.2 62.4,46.1 62.3,46.1 62.3,46 
		62.4,45.9 62.5,45.7 62.4,45.7 62.4,45.6 62.3,45.6 62.3,45.6 62.3,45.5 62.3,45.5 62.3,45.4 62.2,45.2 62.2,45.2 62.2,45.2 
		62.2,45.1 62.2,45.1 62.2,45.1 62.1,45 62,44.9 61.9,44.8 61.8,44.9 61.7,45 61.6,45 61.4,45 61.3,45 61.3,44.9 61.3,44.9 
		61.2,44.9 61.2,44.8 61.1,44.8 61.1,44.8 61.1,44.9 61.1,44.9 61.1,45 61.1,45 60.9,45 60.8,44.9 60.5,44.8 60.3,44.8 60.3,44.6 
		60.3,44.5 60.3,44.5 60.3,44.4 60.3,44.3 60.5,44 61,43.7 61.1,43.6 61.1,43.5 61.2,43.4 61.1,43.4 61.2,43.2 61.2,43.1 61.2,43.1 
		60.9,43.1 61.2,42.8 61.5,42.8 61.5,42.7 61.6,42.6 61.7,42.6 61.8,42.6 61.8,42.6 61.9,42.6 61.9,42.5 61.9,42.5 61.9,42.4 
		61.9,42.4 62,42.4 62.1,42.5 62.2,42.5 62.2,42.4 62.3,42.4 62.3,42.4 62.4,42.4 62.4,42.4 62.4,42.3 62.4,42.3 62.5,42.4 
		62.6,42.5 62.7,42.6 62.9,42.6 63,42.7 63,42.7 63,42.7 63,42.8 63,42.8 63.1,42.8 63.1,42.8 63.1,42.8 63.2,42.9 63.2,43 63.3,43 
		63.4,42.9 63.4,42.8 63.4,42.7 63.4,42.7 63.3,42.7 63.3,42.7 63.2,42.6 63.2,42.5 63.2,42.4 63.2,42.3 63.2,42.2 63.1,42.2 
		63.1,42.2 62.7,42.1 62.7,42 62.7,42 62.6,41.9 62.7,41.9 62.7,41.8 62.7,41.8 62.8,41.7 62.8,41.6 62.8,41.5 62.8,41.4 62.8,41.4 
		62.9,41.4 62.9,41.4 63,41.4 63,41.3 63.1,41.1 63.2,41.1 63.3,41.1 63.3,41.1 63.5,41.1 63.6,41.1 63.6,41.1 63.6,41.2 63.6,41.3 
		63.6,41.4 	"/>
	<path id="Coimbra" fill="#D0B0CE" stroke="#FFFFFF" stroke-width="0.25" d="M65.8,32.5L65.8,32.5l0-0.1l-0.2-0.1l-0.1-0.1l-0.1-0.1
		l0-0.1l0-0.1l0-0.1l0.1-0.3l-0.1-0.1l-0.2-0.1l0.1-0.2l0-0.1l0-0.1l0.1-0.1l0.1-0.1l0-0.1l0,0l-0.1-0.1l0-0.1l0-0.3l0-0.1l0,0
		l-0.1,0l-0.1,0l0-0.1l0-0.1l0,0l0.1,0l0,0l0-0.1l0-0.1l0-0.1l0-0.1l0,0l-0.1-0.2l-0.1,0l-0.1,0L65,29.6l-0.2,0.2L64.7,30l-0.1,0.1
		l-0.3,0.2L64,30.4l-0.5,0.3l-0.4-0.1l-0.3,0l0,0l0,0l0,0l0,0l0,0l0,0l0,0l-0.1,0l-0.1-0.1l-0.1-0.1l-0.2-0.1l-0.1,0l-0.1,0L62,30.5
		l0,0.1L62,30.7l-0.1,0l0,0l-0.1,0.1l0,0.1L61.6,31l0,0.1l-0.1,0.1l0,0l-0.4,0l0-0.1l0,0l0-0.1l0-0.1l0-0.1l0-0.1l0,0l0,0l0,0l0,0
		l0-0.1l0,0l0-0.1l-0.1-0.1l0-0.2l-0.1,0l-0.1,0l-0.1,0.1l-0.1,0l-0.1,0l0-0.1l0-0.1l0-0.1l0-0.2l-0.2-0.2l-0.1,0.2l0,0.1l0,0.1
		l-0.2,0l-0.7-0.7l0,0l-0.1,0.4L59,31.2l-0.2,0.4l-0.1,0.2l0,0.2l0.1,0.1l0.1,0.1l0.3,0l0.1,0l0.1,0.1l0.1,0.1v0.1l-0.2,0l-0.1,0
		L59,32.3L59,32.4L58.7,33l0,0l0,0l0.2,0.1l0.1,0l0.1,0l0.2,0l0.1,0l0.1-0.1l0.1-0.1l0.3,0l0.1,0l0.1,0l0.1,0l0.1,0.1l0.1,0.1l0,0
		l0,0l0.1,0l0,0l0,0l0.1-0.2l0,0l0,0l0,0l0,0l0,0l0,0l0,0.2l0,0.1v0.1l0,0.1l0,0l0,0l0,0l0.1-0.1l0.2-0.1l0.2-0.2l0.1,0l0,0l0.1,0
		l0,0l0.1,0.2l0.1,0.2l0,0.1l0,0.1l0,0.1l0,0l0,0l0,0l0,0l0.2-0.1l0.2-0.2l0.1,0l0.1,0l0.1,0l0,0l0-0.1l0,0l-0.1-0.1l0,0l0-0.1l0,0
		l0.1-0.1l0.3-0.2L63,33l0.2-0.2l0.1,0l0,0l0,0.1l0,0.1l0,0.2l0,0.1l0.3,0.4l-0.1,0.1l0,0l0,0.1l0,0l0,0l0,0l0,0.1l0.1-0.1l0,0l0,0
		l0,0l0.1,0l0.1-0.1l0.1,0l0.1,0l0,0l0,0l0,0l0,0l0.1,0l0,0l0,0l0.1,0l0,0l0,0l0,0l0,0l0.1-0.1l0,0l0,0l0.1,0l0.1,0l0,0l0-0.1l0-0.1
		l0.1-0.1L65,33l0.1,0l0.1,0l0.1,0l0.1,0l0.1,0.1l0-0.2l0-0.1l0,0l0,0l0,0l0,0l0,0l0,0l0.1,0l0.1-0.1l0.1-0.1L65.8,32.5L65.8,32.5
		L65.8,32.5z M59.2,32.4L59.2,32.4l0.2-0.1l-0.2-0.1l-0.1,0l0,0l0,0l0,0.1L59.2,32.4L59.2,32.4z"/>
	
		<polygon id="Castelo_Branco" fill-rule="evenodd" clip-rule="evenodd" fill="#D0B0CE" stroke="#FFFFFF" stroke-width="0.25" points="
		68.8,31.3 69.1,31.2 69.3,31.2 69.4,31.2 69.5,31.1 69.5,31.1 69.5,31 69.5,30.9 69.6,30.9 69.6,30.9 69.7,30.9 69.7,31 69.8,31.1 
		69.8,31.1 70,31.2 70.1,31.2 70.2,31.1 70.3,31.1 70.3,31.2 70.4,31.2 70.5,31.3 70.6,31.4 70.6,31.4 70.6,31.4 70.5,31.4 
		70.3,31.6 70.2,31.6 70.1,31.7 70.1,31.9 70,32 70.1,32.1 70.1,32.4 70.2,32.5 70.2,32.5 70.4,32.5 70.5,32.5 70.5,32.6 70.6,32.7 
		70.8,32.9 71,33.3 70.9,33.5 70.9,33.6 70.9,33.7 70.9,33.8 70.8,34 70.8,34 70.7,34 70.7,34.1 70.7,34.1 70.7,34.2 70.7,34.2 
		70.7,34.3 70.7,34.4 70.7,34.5 70.6,34.7 70.5,34.8 70.4,34.8 70.3,34.9 70.3,35 70.3,35.1 70.3,35.1 70.3,35.2 70.3,35.3 
		70.2,35.4 70.2,35.5 70.2,35.5 70.2,35.6 70.2,35.7 70.1,35.8 70.1,35.9 69.2,36 69,36 68.8,35.9 68.7,35.9 68.5,35.9 68.4,35.9 
		68.3,36 68.2,36 66.9,35.9 66.9,36 66.9,36 66.8,35.9 66.7,36 66.6,36.1 66.5,36.1 66.4,36.2 66.3,36.2 66.2,36.2 66.1,36.2 
		66,36.2 65.9,36.4 65.8,36.5 65.8,36.5 65.7,36.6 65.6,36.7 65.5,36.8 65.4,36.9 65.3,36.8 65.3,36.7 65.3,36.6 65.1,36.4 65,36.3 
		64.9,36.2 64.8,36.1 64.7,36.1 64.6,36.1 64.6,36.1 64.5,36 64.5,36 64.5,35.9 64.5,35.7 64.5,35.7 64.5,35.6 64.5,35.6 64.5,35.5 
		64.4,35.5 64.3,35.5 64.1,35.4 64,35.4 63.9,35.5 63.9,35.9 63.8,36 63.8,36.1 63.8,36.2 63.8,36.3 63.8,36.3 63.8,36.4 63.7,36.4 
		63.5,36.4 63.4,36.4 63.2,36.3 62.9,36.2 62.8,36.1 62.8,35.8 62.8,35.7 62.8,35.6 62.8,35.5 62.8,35.4 62.8,35.4 62.8,35.3 
		62.8,35.3 62.8,35.2 62.7,35.2 62.6,35.2 62.6,35.2 62.5,35 62.5,34.9 62.5,34.9 62.5,34.8 62.6,34.8 62.6,34.8 62.6,34.7 
		62.6,34.7 62.6,34.6 62.9,34.6 63,34.6 63,34.5 63.1,34.5 63.1,34.4 63.2,34.4 63.2,34.4 63.3,34.3 63.3,34.3 63.4,34 63.5,33.9 
		63.6,33.9 63.6,33.9 63.6,33.8 63.7,33.8 63.8,33.8 63.9,33.7 64,33.7 64,33.7 64.1,33.7 64.1,33.6 64.1,33.6 64.2,33.6 64.2,33.6 
		64.2,33.5 64.3,33.5 64.3,33.5 64.4,33.5 64.4,33.6 64.4,33.5 64.5,33.4 64.6,33.4 64.6,33.4 64.7,33.4 64.8,33.3 64.8,33.3 
		64.8,33.2 64.8,33.1 64.9,33 65,33 65.1,33 65.2,33 65.2,33 65.3,33 65.4,33.1 65.4,32.9 65.4,32.8 65.4,32.8 65.4,32.7 65.5,32.7 
		65.5,32.8 65.5,32.8 65.6,32.8 65.6,32.8 65.7,32.7 65.8,32.7 65.8,32.6 65.8,32.6 65.8,32.5 65.8,32.5 65.8,32.4 65.6,32.3 
		65.5,32.2 65.4,32.1 65.4,32 65.4,32 65.4,31.9 65.5,31.6 65.7,31.5 65.8,31.5 65.8,31.5 66.1,31.3 66.2,31.2 66.4,31.1 66.5,31 
		66.6,30.8 66.8,30.9 67,30.8 67,30.8 67.1,30.7 67.1,30.6 67.1,30.6 67.2,30.4 67.5,30.1 67.8,30.3 67.9,30.4 68,30.4 68.2,30.3 
		68.3,30.2 68.3,30.2 68.4,30.1 68.5,30.1 68.6,30.1 68.6,30.2 68.6,30.6 68.5,30.8 68.5,30.9 68.4,31 68.3,31 68.3,31.1 68.3,31.2 
		68.4,31.2 68.4,31.2 68.4,31.2 68.5,31.2 68.6,31.3 	"/>
	<polygon id="Bragança" fill-rule="evenodd" clip-rule="evenodd" fill="#D0B0CE" stroke="#FFFFFF" stroke-width="0.25" points="
		70,17.8 70.2,17.7 70.3,17.6 70.4,17.7 70.5,17.7 70.6,17.8 70.8,17.9 71.2,17.8 71.3,17.7 71.3,17.5 71.5,17.5 71.7,17.9 
		71.9,17.9 72.4,17.9 72.6,17.8 72.6,17.7 72.8,17.7 72.9,17.8 72.9,18 72.8,18.3 72.9,18.4 73,18.4 73.2,18.4 73.1,18.6 72.9,19.3 
		72.9,19.3 72.9,19.4 72.8,19.5 72.9,19.5 72.9,19.6 72.9,19.7 72.9,19.8 73,20 73,20.1 73.2,20.2 73.3,20.2 73.4,20.1 73.5,20.1 
		73.5,20 73.5,20 73.6,20 74.1,20.1 74.4,20.2 74.7,20.4 74.9,20.7 75,20.8 75.1,20.9 74.8,21.3 74.6,21.4 74.6,21.5 74.6,21.6 
		74.6,21.6 74.6,21.7 74.4,22.1 74.4,22.1 74.2,22.2 74.1,22.2 74,22.3 74.1,22.3 74.1,22.3 74,22.4 74,22.4 74,22.4 73.9,22.4 
		73.9,22.4 73.7,22.7 73.5,22.9 73.4,23 73.3,23.1 73,23.2 72.9,23.3 72.5,23.3 72.4,23.3 72.3,23.4 72.1,23.7 72.1,23.8 72,23.9 
		71.8,24.1 71.8,24.2 71.7,24.2 71.7,24.4 71.7,24.6 71.5,24.9 71.4,25 71.2,25 70.8,25 70.7,25.1 70.7,25.1 70.6,25 70.3,25 
		69.8,24.8 69.8,24.7 69.7,24.6 69.7,24.5 69.7,24.4 69.7,24.3 69.7,24.3 69.7,24.2 69.6,24.2 69.6,24.2 69.5,24.2 69.5,24.1 
		69.5,24.1 69.6,23.9 69.5,23.9 69.3,24.1 69.2,24.2 69.1,24.2 68.9,24.1 68.5,24.2 68.3,24.2 68.1,24.1 68,24 67.8,23.8 67.7,23.7 
		67.7,23.7 67.7,23.6 67.7,23.6 67.7,23.5 67.8,23.5 67.9,23.5 67.9,23.5 67.9,23.4 67.9,23.4 67.9,23.3 67.9,23.2 68,23.1 68,23.1 
		68,23 68,23 68,22.9 68.1,22.8 68.3,22.7 68.2,22.6 68.2,22.6 68.1,22.5 68.1,22.3 68.1,21.9 68.3,21.7 68.3,21.7 68.4,21.7 
		68.4,21.6 68.5,21.5 68.6,21.4 68.6,21.3 68.7,21.3 68.7,21.3 68.8,21.2 68.8,21.2 68.8,21.2 68.8,21.1 68.8,21.1 68.8,21 68.7,21 
		68.7,20.9 68.7,20.8 68.7,20.6 68.9,19.9 69.1,19.6 69.1,19.5 69.2,19.5 69.2,19.5 69.2,19.4 69.2,19.3 69.2,19.2 69.1,19.1 
		69.1,18.9 69,18.9 69,18.7 69,18.5 69.1,18.5 69,18.3 69,18.3 69.1,18.2 69.1,18 69,17.8 69.1,17.7 69.1,17.6 69.2,17.5 69.3,17.5 
		69.4,17.5 69.6,17.6 69.8,17.7 	"/>
	<polygon id="Braga" fill-rule="evenodd" clip-rule="evenodd" fill="#D0B0CE" stroke="#FFFFFF" stroke-width="0.25" points="
		63.6,19.9 63.7,19.9 63.7,19.8 63.7,19.8 63.8,19.8 63.8,19.8 63.9,19.8 64,19.8 64,19.8 64.1,19.8 64.2,19.9 64.3,19.9 64.3,20 
		64.3,20.1 64.2,20.2 64.2,20.5 64.3,20.6 64.4,20.6 64.5,20.6 64.5,20.6 64.8,20.7 64.8,20.7 65,20.6 65.1,20.5 65.2,20.5 
		65.2,20.6 65.3,20.8 65.3,20.8 65.1,21.2 65,21.3 64.9,21.3 64.9,21.4 64.8,21.5 64.8,21.5 64.7,21.5 64.7,21.5 64.7,21.5 
		64.6,21.6 64.6,21.8 64.6,21.9 64.6,21.9 64.6,22 64.5,22.1 64.5,22.2 64.4,22.2 64.4,22.2 64.4,22.2 64.4,22.3 64.4,22.3 
		64.4,22.5 64.3,22.6 64.3,22.6 64.3,22.6 64.3,22.7 64.2,22.7 64.2,22.7 64.2,22.7 64.1,22.8 64.1,22.8 64.1,22.8 64,22.8 
		63.9,22.8 63.8,22.7 63.7,22.7 63.5,22.6 63.3,22.5 63.3,22.4 63.3,22.3 63.2,22.2 62.9,22.1 62.8,22.2 62.7,22.3 62.5,22.4 
		62.4,22.4 62.3,22.5 62.3,22.5 62.2,22.4 62.1,22.4 61.9,22.5 61.7,22.5 61.5,22.5 61.5,22.4 61.5,22.4 61.4,22.4 61.3,22.4 
		61.2,22.5 61.1,22.6 61.1,22.6 61,22.6 61,22.6 60.6,22.6 60.6,22.6 60.6,22.6 60.5,22.6 60.5,22.6 60.5,22.4 60.4,22.4 60.5,22.3 
		60.5,22.3 60.6,22.3 60.6,22.2 60.6,22.2 60.5,22.1 60.5,22.1 60.4,22.1 60.3,22 60.2,21.9 60.2,21.9 60.1,21.8 60,21.8 59.8,21.8 
		59.7,21.7 59.5,21.7 59.5,21.7 59.5,21.5 59.4,21.3 59.4,21.2 59.4,21.1 59.3,20.8 59.3,20.6 59.3,20.5 59.2,20.5 59.3,20.5 
		59.4,20.5 59.5,20.5 59.9,20.3 60.2,20.3 60.3,20.3 60.3,20.3 60.3,20.2 60.4,20.2 60.4,20.2 60.6,20.3 60.7,20.3 60.8,20.4 
		60.8,20.4 60.9,20.4 61,20.2 60.9,20.1 61,20.1 61,20 61,19.9 61.1,19.9 61.1,19.8 61.1,19.7 61.1,19.6 61.1,19.6 61.2,19.5 
		61.2,19.5 61.2,19.5 61.3,19.5 61.3,19.5 61.4,19.5 61.6,19.4 61.6,19.3 61.7,19.3 61.8,19.3 62.3,19.3 62.5,19.2 63,18.9 
		63.1,18.9 63.1,18.9 63.1,18.9 63.1,18.9 63.6,18.9 63.9,18.9 63.9,18.9 63.9,18.9 63.9,19 63.9,19 63.9,19.1 63.8,19.3 63.8,19.4 
		63.7,19.6 63.7,19.7 63.6,19.7 63.5,19.9 	"/>
	<polygon id="Beja" fill-rule="evenodd" clip-rule="evenodd" fill="#D0B0CE" stroke="#FFFFFF" stroke-width="0.25" points="
		69.4,47.7 69.5,47.6 69.5,47.6 69.6,47.6 69.6,47.7 69.7,47.7 69.9,47.6 70,47.6 70.1,47.5 70.1,47.5 70.2,47.5 70.3,47.4 
		70.5,47.4 70.6,47.5 70.6,47.5 70.5,47.7 70.5,47.8 70.4,48.1 70.3,48.3 70.2,48.5 70.2,48.6 70.1,48.8 70,48.9 69.6,48.7 
		69.5,48.7 69.5,48.8 69.4,48.9 69.3,49 69.3,49 69.2,49.1 69.1,49.1 69.1,49.1 69,49.1 68.9,49.1 68.9,49.1 68.7,49.1 68.6,49.2 
		68.6,49.2 68.6,49.3 68.6,49.4 68.6,49.5 68.5,49.9 68.4,50.2 68.2,50.5 67.7,50.9 67.6,51.1 67.5,51.3 67.4,51.7 67.4,51.8 
		67.4,51.9 67.2,52 67.2,52.1 67.2,52.1 67.2,52.1 67.2,52.2 67.1,52.2 67.1,52.3 67.1,52.3 67.1,52.4 67.1,52.4 67.1,52.4 
		67.1,52.5 67.1,52.6 67.1,52.6 67.2,52.6 67.2,52.6 67,52.6 66.8,52.7 66.7,52.7 66.6,52.8 66.5,52.9 66.5,52.9 66.4,52.9 
		66.3,52.9 66.3,52.8 66,52.8 65.5,53 65.4,53.1 65.4,53.1 65.3,53.2 65.3,53.2 65.2,53.2 65.1,53.2 65.1,53.3 65.1,53.3 65,53.3 
		64.9,53.4 64.9,53.4 64.8,53.5 64.8,53.5 64.6,53.6 64.5,53.6 64.3,53.6 64.2,53.6 64.2,53.7 64.2,53.7 64.2,53.8 64.3,53.8 
		64.3,53.9 64.2,53.9 64,54 63.9,54.1 63.8,54.2 63.7,54.2 63.5,54.1 63.4,54.1 63.2,54.1 62.8,53.8 62.7,53.7 62.6,53.6 62.6,53.6 
		62.6,53.5 62.5,53.4 62.4,53.3 62.3,53.4 62.2,53.4 62.1,53.4 62.1,53.4 61.9,53.4 61.7,53.5 61.7,53.5 61.6,53.6 61.6,53.6 
		61.6,53.7 61.5,53.7 61.4,53.8 61.1,53.7 61,53.7 60.8,53.6 60.7,53.6 60.5,53.6 60.5,53.6 60.4,53.7 60.4,53.7 60.4,53.7 
		60.3,53.7 60.3,53.7 60.1,53.6 59.9,53.6 59.8,53.6 59.8,53.5 59.7,53.5 59.6,53.4 59.5,53.3 59.4,53.3 59.3,53.2 59.3,53.1 
		59.4,52.9 59.4,52.6 59.4,52.4 59.3,52.3 59.2,52.2 59.2,52.1 59.3,51.7 59.3,51.5 59.4,51.3 59.5,51.3 59.6,51.3 59.7,51.1 
		59.7,51 59.6,51.1 59.5,51.1 59.3,51.1 59.3,51 59.3,50.6 59.4,50.3 59.4,50.4 59.5,50.4 59.5,50.5 59.5,50.5 59.6,50.4 59.6,50.4 
		59.7,50.4 59.8,50.4 59.8,50.5 59.8,50.5 60,50.7 60,50.8 60.1,50.9 60.1,50.9 60.1,50.8 60.2,50.8 60.2,50.8 60.2,50.8 60.3,50.8 
		60.3,50.8 60.4,50.9 60.5,50.9 60.6,50.9 60.6,50.8 60.7,50.7 60.7,50.7 60.7,50.5 60.7,50.5 60.8,50.3 60.9,50.3 60.9,50.2 
		60.9,50.2 61.1,50.1 61.6,50 61.9,50.1 62,50.1 62,50.1 62.2,50.2 62.3,50 62.3,49.9 62.4,49.7 62.4,49.4 62.4,49.1 62.4,49 
		62.3,48.9 62.3,48.8 62.2,48.8 62.1,48.8 62,48.8 61.9,48.7 61.8,48.6 61.8,48.5 61.8,48.5 61.8,48.4 61.8,48.4 61.8,48.3 
		61.8,48.3 61.8,48.2 61.9,48.2 61.9,48.2 62,48.2 62,48.2 62,48.2 62,48.1 62.1,48.1 62.1,48 62.1,48 62.1,48 62.1,47.9 62.1,47.9 
		62.2,47.9 62.2,47.9 62.2,47.8 62.3,47.9 62.3,47.9 62.4,47.9 62.4,47.9 62.5,47.8 62.5,47.7 62.5,47.6 62.5,47.6 62.8,47.6 
		62.8,47.6 62.8,47.5 62.9,47.5 63.1,47.4 63.2,47.3 63.4,47.3 63.4,47.2 63.4,47.1 63.4,47.1 63.4,46.9 63.2,46.6 63.3,46.5 
		63.7,46.5 63.8,46.5 63.9,46.5 64,46.5 64,46.6 64.1,46.6 64.1,46.7 64.2,46.7 64.3,46.6 64.4,46.6 64.5,46.6 64.6,46.7 64.8,46.8 
		65.3,47.1 65.6,47.1 65.7,47.2 66.1,47.4 66.2,47.4 66.6,47.4 66.7,47.4 66.9,47.5 67.1,47.5 67.2,47.5 67.2,47.4 67.3,47.3 
		67.4,47.2 67.6,47.1 67.6,47.1 67.7,47 67.7,47 67.8,46.9 67.8,46.9 67.8,46.8 67.8,46.7 67.8,46.7 68,46.6 68.2,46.5 68.3,46.5 
		68.3,46.5 68.5,46.5 68.5,46.4 68.6,46.5 68.6,46.5 68.6,46.5 68.6,46.5 68.6,46.6 68.6,46.6 68.7,46.7 68.7,46.7 68.7,46.8 
		68.7,46.8 68.7,46.9 68.9,47 69,47.1 69.1,47.1 69.1,47.2 69.1,47.2 69.2,47.4 69.2,47.4 69.2,47.5 69.3,47.6 69.4,47.6 	"/>
	<polygon id="Aveiro" fill-rule="evenodd" clip-rule="evenodd" fill="#D0B0CE" stroke="#FFFFFF" stroke-width="0.25" points="
		63.4,25.6 63.5,25.6 63.5,25.5 63.5,25.5 63.5,25.4 63.6,25.4 63.7,25.4 63.7,25.4 63.7,25.4 63.7,25.4 63.7,25.5 63.7,25.5 
		63.5,25.8 63.5,25.9 63.4,26 63.4,26 63.5,26.1 63.5,26.3 63.5,26.5 63.5,26.6 63.5,26.6 63.5,26.6 63.4,26.6 63.4,26.6 63.3,26.6 
		63.3,26.6 63.2,26.6 63.1,26.6 63,26.6 62.9,26.6 62.9,26.6 62.7,26.6 62.8,26.9 62.8,26.9 62.7,27 62.6,27.3 62.4,27.4 62.3,27.5 
		62.2,27.6 62.2,27.7 62.2,27.7 62.3,27.8 62.3,27.8 62.4,27.9 62.4,28 62.4,28 62.4,28.2 62.5,28.3 62.5,28.4 62.6,28.4 62.7,28.5 
		62.5,28.6 62.4,28.6 62.4,28.7 62.4,28.8 62.5,28.9 62.5,29.1 62.5,29.1 62.6,29.2 62.6,29.2 62.7,29.3 62.3,29.5 62.2,29.6 
		62.2,29.6 62.2,29.7 62.3,29.8 62.3,29.9 62.2,30 62.1,30.2 62.1,30.5 62,30.5 62,30.6 62,30.7 61.8,30.7 61.8,30.7 61.7,30.7 
		61.7,30.8 61.6,31 61.5,31.1 61.5,31.1 61.4,31.2 61.1,31.1 61,31.1 61,31 61,30.9 61.1,30.9 61.1,30.7 61.1,30.7 61.2,30.7 
		61.2,30.6 61.2,30.6 61.2,30.6 61.3,30.5 61.3,30.4 61.3,30.4 61.2,30.2 61.2,30.1 61.1,30.1 61,30.1 60.9,30.2 60.8,30.2 
		60.8,30.2 60.7,30.2 60.7,30 60.7,29.9 60.8,29.7 60.5,29.6 60.4,29.8 60.4,29.9 60.3,30 60.1,30 59.5,29.3 59.4,29.3 59.5,29.2 
		59.6,28.8 59.7,28.3 59.7,28.3 59.7,28.3 59.7,28.4 59.7,28.5 59.8,28.3 59.9,28.2 60,28.3 60,28.3 60,28.2 60,28.2 60,28.2 
		60,28.1 60,28.1 60.1,28 60.1,28.1 60.1,28.1 60.1,28.1 60.2,28.1 60.3,28 60.3,27.9 60.2,27.8 60.2,27.7 60.2,27.7 60.3,27.6 
		60.4,27.6 60.6,27.6 60.7,27.5 60.7,27.4 60.6,27.4 60.5,27.5 60.4,27.5 60.3,27.5 60.3,27.5 60.2,27.5 60.1,27.4 60.1,27.2 
		60.3,26.9 60.2,26.7 60.2,26.8 60.2,26.9 60.2,27 60.1,26.9 60,27 60,27.2 59.9,27.4 59.9,27.7 59.9,27.8 59.8,28 59.7,28.1 
		59.7,28.2 60.2,25.5 60.2,25.3 60.2,25.3 60.3,25.3 60.6,25.3 60.7,25.3 60.9,25.3 61,25.2 61,25.2 61.1,25.2 61.1,25.3 61.2,25.3 
		61.3,25.3 61.3,25.3 61.4,25.2 61.4,25.1 61.5,25 61.6,25.1 61.7,25.2 61.7,25.3 61.8,25.4 61.9,25.4 61.9,25.3 61.9,25.3 
		61.8,25.2 61.8,25.2 61.8,25.1 62,25.1 62.1,25.1 62.4,24.9 62.4,24.9 62.5,24.8 62.8,25 62.8,25.1 62.9,25.1 62.9,25.2 62.9,25.4 
		63.3,25.6 	"/>
	<path id="Azurs" fill="#D0B0CE" d="M37.5,79L37.5,79L37.5,79L37.5,79L37.5,79L37.5,79L37.5,79L37.5,79L37.5,79L37.5,79L37.5,79z
		 M37.2,79.2L37.2,79.2L37.2,79.2L37.2,79.2L37.2,79.2z M36.3,73.9L36.3,73.9L36.3,73.9L36.3,73.9L36.3,73.9L36.3,73.9L36.3,73.9
		l0,0.1L36.3,73.9L36.3,73.9z M36.7,72.7L36.7,72.7L36.7,72.7L36.7,72.7L36.7,72.7l-0.1,0l0,0.1l0,0l0,0l0,0v0l0,0l0,0l0,0
		L36.7,72.7L36.7,72.7L36.7,72.7L36.7,72.7L36.7,72.7L36.7,72.7z M36,73.4L36,73.4L36,73.4L36,73.4L36,73.4l-0.2,0l0,0l0,0l-0.1-0.1
		l0,0l-0.1,0l0,0l-0.1,0l0,0l0,0l0,0l0,0l0,0l0,0l0,0l0,0l0,0l0,0l0,0l0,0l0,0l0,0l0,0l0,0.1l0,0l0,0l0,0l0,0l0,0l0,0.1l0.1,0.1
		l0.1,0l0.3,0.1l0.1,0l0.1,0l0.1,0l0-0.1l0,0l0.1-0.1L36,73.4L36,73.4L36,73.4L36,73.4L36,73.4L36,73.4z"/>
	<path fill="#D0B0CE" d="M9.5,57.6L9.5,57.6L9.5,57.6L9.5,57.6L9.5,57.6L9.5,57.6l0,0.1l0,0l0.1,0L9.5,57.6L9.5,57.6L9.5,57.6z
		 M9.5,58.2L9.5,58.2L9.5,58.2L9.5,58.2l-0.1,0l0,0l0,0l0,0l0,0l0,0l0,0l0,0l0,0l0,0l0,0l0,0l0,0l0,0l0,0l0,0l0,0l0,0l0,0l0,0l0,0
		l0-0.1l0-0.1L9.5,58.2L9.5,58.2z M14.1,60.2l-0.2-0.1l0,0l0,0l0,0l0,0l0,0l-0.1,0l-0.1,0l0,0l0.1,0.1l0,0l0,0.1l0,0l0,0l0.1,0l0,0
		l0,0l0,0l0,0l0,0l0,0l0,0l0,0l0,0l0.1,0l0,0L14.1,60.2L14.1,60.2z M15.2,59.3L15.2,59.3L15.2,59.3l0.1,0l0,0l0,0l0,0l0,0l0,0
		l-0.1-0.1l0,0l0,0l0,0l0,0l0,0l0,0L15.2,59.3L15.2,59.3L15.2,59.3L15.2,59.3z M20.7,64L20.7,64L20.7,64l-0.1-0.1l-0.1,0l-0.1,0
		l-0.1,0l0,0l0,0l0,0l0,0l0,0l0,0l0,0l0.1,0L20.7,64L20.7,64L20.7,64L20.7,64z M17,60L17,60L17,60L17,60l-0.1-0.1l-0.1,0l-0.1,0
		l-0.3,0l-0.1,0l-0.1,0l0,0.1l0,0.1l0,0l0,0.1l0,0l0,0l0,0l0,0l0,0l0,0l0,0l0,0l0.1,0l0,0l0.1,0l0,0l0,0L17,60L17,60L17,60L17,60
		L17,60L17,60L17,60z M20.5,62.2L20.5,62.2l0-0.2l0-0.1l-0.1,0l-0.3,0L19.9,62l0,0l0,0l0,0l0,0l0,0l0,0l0,0l-0.2,0l0,0l0,0l0,0l0,0
		l0,0l-0.1-0.1l0,0l-0.1,0l0,0.1l0.1,0.1l0.2,0.2l0.2,0l0.1,0l0,0l0,0l0,0l0,0l0.1,0l0.1,0l0.1,0L20.5,62.2L20.5,62.2z M15.1,60.6
		L15.1,60.6l-0.2-0.1l0,0l0,0l0,0l0,0l0,0l-0.1,0l-0.2-0.1l-0.1,0l-0.1,0l-0.1,0l-0.1,0.1v0.1l0,0.1l0.1,0.1l0,0l0.3,0l0,0l0,0l0,0
		l0,0l0.1-0.1l0,0l0,0l0.1,0l0.1,0L15.1,60.6L15.1,60.6L15.1,60.6z M15.6,60.3l-0.1-0.1l-0.3-0.1L14.8,60l0,0l0,0l-0.1,0l0,0l0,0
		l0,0l0.1,0.1l0,0l0,0l0,0l0,0l0,0l0,0l0,0l0,0l0,0l0,0l0,0.1l0,0l0.2,0.1l0,0l0,0l0,0l0,0l0,0l0,0l0,0l0,0l0,0l0,0l0.1,0L15.6,60.3
		L15.6,60.3L15.6,60.3L15.6,60.3l0.1,0.1L15.6,60.3L15.6,60.3z"/>
</g>
<g>
	<rect x="-21.1" y="86.6" fill="none" width="128.6" height="38.1"/>
	<text transform="matrix(1 0 0 1 18.9873 95.9499)" fill="#818281" font-family="'ArialMT'" font-size="13px">Portugal</text>
</g>
</svg>
