<?xml version="1.0" encoding="utf-8"?>
<!-- Generator: Adobe Illustrator 23.0.1, SVG Export Plug-In . SVG Version: 6.00 Build 0)  -->
<svg version="1.0" id="Countries" xmlns="http://www.w3.org/2000/svg" xmlns:xlink="http://www.w3.org/1999/xlink" x="0px" y="0px"
	 viewBox="0 0 87 130" enable-background="new 0 0 87 130" xml:space="preserve">
<circle fill="#DAF1F9" stroke="#FFFFFF" stroke-width="0.25" cx="44.2" cy="40.8" r="39"/>
<g id="Portugal">
	<polygon id="Viseu" fill-rule="evenodd" clip-rule="evenodd" fill="#D0B0CE" stroke="#FFFFFF" stroke-width="0.25" points="
		58.5,21.7 58.7,21.7 58.5,22.5 58.4,22.9 58.4,23.1 58.4,23.5 58.3,23.5 58.1,23.5 58,23.6 58,23.7 58.1,23.8 58.2,23.9 58.3,23.9 
		58.4,24 58.4,24 58.4,24.1 58.4,24.3 58.3,24.5 58,24.8 57.7,24.7 57.6,24.7 57.6,25 57.6,25.1 57.7,25.2 57.7,25.3 57.4,25.8 
		57.4,25.9 57.2,25.9 57.1,25.9 57.1,25.8 56.8,25.5 56.6,25.4 56.5,25.3 56.3,25.3 56.2,25.4 56.1,25.4 56.1,25.5 56,25.8 55.9,26 
		55.8,26.2 55.7,26.2 55.7,26.3 55.8,26.4 56.1,26.6 56.1,26.7 56.1,26.8 56.1,26.9 56.1,26.9 56,27.1 56.1,27.3 56.3,27.4 
		56.5,27.6 56.4,27.9 56.3,28.1 56.1,28.8 56.1,29 55.5,29.1 55.1,29.3 54.8,29.5 54.5,29.6 54.3,29.8 54.2,29.8 53.9,29.8 
		53.8,29.9 53.6,30 53.5,30.1 53.4,30.2 53.1,30.4 52.8,30.8 52.7,30.9 52.3,31.2 51.8,31.4 51,31.9 50.5,31.8 50.1,31.9 50.1,31.9 
		50,32 50,32 50,32.1 50,32.1 49.9,32.1 49.9,32 49.7,32 49.6,31.8 49.3,31.7 49,31.6 49,31.5 48.8,31.5 48.8,31.1 49.1,30.7 
		49.1,30.6 49.1,30.4 49,30.3 49,30.2 49,30.1 49.2,29.9 49.8,29.7 49.6,29.5 49.6,29.5 49.5,29.4 49.5,29.3 49.4,29.1 49.3,28.8 
		49.3,28.7 49.4,28.7 49.4,28.6 49.8,28.4 49.6,28.3 49.5,28.2 49.4,28.2 49.4,28 49.4,27.7 49.3,27.6 49.3,27.5 49.1,27.4 
		49.1,27.3 49.1,27.2 49.1,27.1 49.1,27.1 49.2,26.9 49.4,26.8 49.6,26.5 49.8,26.1 49.9,26 49.9,25.9 49.8,25.5 50.1,25.5 
		50.2,25.5 50.3,25.5 50.4,25.5 50.5,25.4 50.7,25.4 50.7,25.5 50.8,25.5 50.9,25.5 51,25.5 51.1,25.5 51.1,25.4 51.1,25.3 51,25.1 
		51,24.7 50.9,24.6 50.9,24.5 51,24.4 51,24.2 51.3,23.8 51.3,23.7 51.3,23.7 51.3,23.7 51.3,23.6 51.3,23.6 51.2,23.6 51.1,23.7 
		51.1,23.7 51,23.8 51,23.9 50.9,23.9 50.7,23.9 50,23.6 50,23.3 50,23.2 50,23.1 50,23 49.4,22.7 50,22.4 50.4,22.3 51.3,22.4 
		51.6,22.4 52.7,22 53.1,21.7 53.6,21.4 53.8,21.4 53.9,21.4 54.1,21.7 54.3,21.7 54.4,21.8 54.6,21.8 54.8,21.8 54.9,21.7 
		55.2,21.5 55.4,21.5 55.5,21.4 55.5,21.4 55.9,21.5 56.4,21.4 57.5,21 57.6,21 57.8,21.1 58,21.5 58.2,21.6 	"/>
	
		<polygon id="Viana_do_Castelo_x0A__x0A_" fill-rule="evenodd" clip-rule="evenodd" fill="#D0B0CE" stroke="#FFFFFF" stroke-width="0.25" points="
		50.3,10.4 50.5,10.3 50.7,10.2 50.8,10.2 51,10.3 51.2,10.4 51.2,10.6 51.2,10.9 51.1,11 51,11.1 50.7,11.3 50.4,11.6 50.1,12.1 
		50,12.4 50,12.6 50.1,12.8 50.4,12.9 50.5,13 50.5,13.2 50.5,13.5 50.5,13.5 50.4,13.5 50.3,13.5 49.4,14 49.2,14.1 48.4,14.1 
		48.2,14.2 48.1,14.2 48,14.3 47.8,14.4 47.7,14.5 47.6,14.5 47.5,14.5 47.5,14.5 47.4,14.5 47.3,14.6 47.3,14.7 47.3,14.8 47.3,15 
		47.3,15.1 47.2,15.2 47.1,15.2 47.1,15.3 47.1,15.4 47.1,15.5 47,15.8 46.9,15.8 46.8,15.8 46.7,15.7 46.5,15.7 46.2,15.6 
		46.2,15.6 46.1,15.6 46.1,15.6 46,15.7 45.9,15.7 45.4,15.7 44.8,16 44.7,16 44.5,16 44.4,16 44.4,15.8 44.4,15.6 44.3,15.3 
		44.4,15.2 44.6,15.1 45.2,15 45.3,14.9 45.5,14.8 45.6,14.7 44.6,15 44.3,15 44.2,15 44,14.9 43.9,14.5 43.9,14.1 43.9,13.5 
		43.9,13.2 43.9,13.1 44,12.9 44.7,12.4 45,12 45.1,11.5 45.2,11.5 45.4,11.4 45.6,11.3 45.8,11.2 45.9,11 46,10.8 46.1,10.6 
		46.2,10.5 46.4,10.5 46.8,10.5 46.9,10.4 47.3,10.2 47.4,10.1 48.9,9.9 49,9.8 49.3,9.6 49.4,9.5 49.4,9.5 49.6,9.5 49.8,9.4 
		50.1,9.2 50.1,9.3 50.2,9.5 50.2,10.1 50.2,10.3 	"/>
	<polygon id="Vila_Real" fill-rule="evenodd" clip-rule="evenodd" fill="#D0B0CE" stroke="#FFFFFF" stroke-width="0.25" points="
		53.4,12.9 53.5,12.9 53.5,12.8 53.6,12.7 53.7,12.7 53.9,12.7 54.5,12.6 54.8,12.4 54.9,12.5 55.2,12.6 55.3,12.7 55.8,12.8 
		55.7,13.1 55.7,13.3 55.8,13.4 56,13.4 56.2,13.3 56.4,13.3 56.5,13.2 56.6,13.1 56.6,13 56.6,12.9 56.7,12.9 56.8,12.9 56.9,13 
		57,13 57.1,13 57.3,13.2 57.3,13.4 57.4,13.6 57.5,13.5 57.7,13.2 57.9,13.1 58,13.1 58.3,13.1 58.5,13.1 59.2,12.9 59.5,12.7 
		59.6,12.5 59.6,12.6 59.6,12.9 59.6,13 59.6,13.2 59.6,13.5 59.7,13.6 59.7,13.8 59.9,14.1 59.9,14.2 59.9,14.3 59.9,14.4 
		59.8,14.5 59.8,14.5 59.7,14.6 59.5,15.1 59.2,16.1 59.1,16.5 59.1,16.6 59.2,16.7 59.2,16.8 59.3,16.9 59.3,17 59.3,17.1 
		59.3,17.1 59.2,17.2 59.1,17.2 59.1,17.2 59,17.2 58.9,17.3 58.8,17.6 58.7,17.8 58.6,17.9 58.5,17.9 58.4,17.9 58.1,18.2 
		58.1,18.8 58.2,19.1 58.3,19.2 58.3,19.3 58.6,19.5 58.2,19.6 58.1,19.7 58.1,19.9 58.1,19.9 58,20 58,20.1 57.9,20.2 57.8,20.4 
		57.8,20.5 57.8,20.6 57.8,20.6 57.8,20.7 57.7,20.7 57.6,20.7 57.6,20.8 57.5,20.8 57.5,21 56.4,21.4 55.9,21.5 55.5,21.4 
		55.5,21.4 55.4,21.5 55.2,21.5 54.9,21.7 54.8,21.8 54.6,21.8 54.4,21.8 54.3,21.7 54.1,21.7 53.9,21.4 53.8,21.4 53.6,21.4 
		53.1,21.7 53.2,21.4 53.2,21.1 53.3,20.6 53.3,20.6 53.2,20.5 53,20.2 53,20 53,19.9 52.7,19.7 52.6,19.6 52.5,19.5 52.5,19.4 
		52.5,19.3 52.4,19.1 52.5,18.9 52.5,18.8 52.4,18.7 52.4,18.7 52.5,18.6 52.5,18.6 52.6,18.5 52.7,18.3 52.7,18.2 52.7,18.1 
		52.7,18.1 52.8,17.8 52.9,17.6 52.9,17.6 53,17.6 53,17.6 53.1,17.5 53.2,17.4 53.2,17.3 53.4,17.3 53.5,17.1 53.9,16.6 53.9,16.4 
		53.7,16.1 53.7,16.1 53.6,16 53.4,16.2 53.1,16.3 53,16.3 52.6,16.2 52.5,16.2 52.5,16.2 52.3,16.1 52.2,16.1 52.2,15.5 52.2,15.4 
		52.3,15.2 52.2,15.1 52.2,15.1 51.9,14.9 51.9,14.9 51.8,14.9 51.6,15 51.6,15 51.5,15 51.4,15 51.3,15 51.3,15 51.2,15 51,15 
		51.2,14.8 51.3,14.7 51.3,14.6 51.4,14.3 51.5,14.2 51.6,13.8 51.6,13.7 51.7,13.6 51.7,13.6 51.7,13.5 51.7,13.5 51.7,13.5 
		52,13.1 52.1,13 52.2,12.9 52.3,12.8 52.5,12.8 52.7,12.8 52.7,12.7 52.8,12.5 52.8,12.3 53,12.2 53,12.6 53.1,12.9 	"/>
	<path id="Setúbal" fill="#D0B0CE" stroke="#FFFFFF" stroke-width="0.25" d="M50.9,57.3L50.8,57l-0.2-0.5l-0.4-0.3l-0.2-0.1l-0.1,0
		l-0.1,0l-0.1,0L49.6,56l-0.1-0.1l-0.2-0.1l-0.1,0v-0.1l0.2-0.3l0-0.2l0-0.1L49.3,55L49.2,55l0-0.1l0-0.1l0,0l0-0.1L49,54.4l0-0.1
		l0,0l0,0l0,0l0-0.1l-0.1-0.1l-0.2-0.2l-0.1,0l-0.2,0L48.2,54l-0.1,0l-0.3,0l-0.1,0l-0.1-0.1l-0.1-0.1l0-0.1l-0.1,0l-0.1,0l0,0
		l0,0.1l0,0.1l0,0.1l-0.1,0L47.1,54l-0.3,0l-0.4-0.2l-0.3,0l-0.1-0.3l0-0.1l0-0.1l0-0.1l0-0.1l0.3-0.4l0.8-0.6l0.1-0.2l0.1-0.1
		l0-0.1l0-0.1l0.1-0.2l0-0.1l-0.1,0L47,51.1l-0.2,0l-0.1,0l-0.1,0l-0.1-0.1l0-0.1l0-0.1l0-0.1l0-0.1l0-0.1l0-0.1l0,0l-0.2,0.1
		l-0.2,0.1l-0.3-0.1l-0.1-0.1l-0.1-0.1l-0.1,0l-0.1,0l-0.3,0.5l-0.1,0.3l0,0.1L45,51.4l-0.2,0.1l-0.1,0l-0.3-0.1l-0.1-0.1l-0.1,0
		l-0.1,0l-0.2,0L44,51.3l-0.2,0.1l-0.1,0l-0.1,0l-0.1-0.1l0-0.2l0-0.2l-0.1,0l-0.1,0l0,0l-0.1,0l0,0l-0.3,0.3l-0.3,0.2l-0.2,0.2
		l-0.1,0.2v0.1l-0.1,0L41.8,52l-0.1,0.1l0.1,0.2h-0.1l-0.1-0.1l-0.2-0.1l-0.4,0l-0.4,0.1l-0.2,0.1l0.1,0.4l0.3,0.5l0.2,0.6l0,0.6
		L41,54.6l-0.3,0.3L40.6,55l0,0l0,0.1l0,0.1l0,0.1l0,0l0.2,0.1l0.2,0l0.2-0.1l0.2-0.1l0.9-0.1l0.5-0.2l-0.1-0.1l0.4-0.5l0.5-0.1
		l0.4,0.1l0.3,0.2l0.2,0.1l0.2,0l0.1-0.1l0-0.2L44.7,54l-0.2,0v-0.1l0.2-0.1l0.2-0.4l0.1,0L45,53.7l0,0.2l0.1,0.1l0.1,0v0.1
		l-0.1,0.1l0,0.1l0,0.2l0,0.2l0.1,0.2l0.1,0.1l0.7,0.3l0.2,0.1l0.3,0L46,55.4L45,55.1l-0.4,0l0-0.2l-0.2-0.1L44,54.7l-0.3-0.3
		l-0.2-0.1l-0.1,0.1l0.3,0.1l0.3,0.3l0.3,0.3l0.2,0.3l0.2,0.5l0.1,0.7l0.1,0.8l0,0.6l-0.2,0.6l-0.2,0.8L44,60.6l-0.1,0.1l-0.1,0
		l-0.1,0l0,0.1l0.4,0.2l0.3,0.1l0.1,0.3l0.1,0.3l0,0.4l0,0.2l0.1,0.1l0.1,0.1l0,0l0.1,0l0.1,0l0.1,0l0.1,0l0.2,0.1l0.1,0.1l0,0.1
		l0.2,0.3l0.1,0.2l0,0.1l0.1,0l0-0.1l0-0.1l0.1,0l0.1,0l0.1,0l0.1,0.1l0.2,0.1l0.1,0l0.2-0.1l0.1-0.1l0-0.1l0-0.1l0.1-0.3l0-0.1
		l0.2-0.2l0-0.1l0-0.1l0.1-0.1l0.2-0.1l0.8-0.2l0.4,0.1l0.2,0l0,0l0.3,0.2l0.1-0.3l0-0.1l0.1-0.3l0.1-0.5l0-0.3l-0.1-0.3l-0.1-0.1
		L49.1,60L49,60l-0.1,0l-0.1-0.1l-0.1-0.2l-0.2-0.1l0-0.1l0-0.1l0-0.1l0-0.1l0-0.1l0-0.1l0-0.1l0.1-0.1l0.1,0l0.1,0l0.1,0l0,0l0-0.1
		l0,0l0-0.1l0-0.1l0-0.1l0-0.1l0-0.1l0.1,0l0.1-0.1l0.1,0l0.1,0l0.1,0.1l0.1,0l0.1,0l0.1-0.2l0-0.1l0-0.1l0.1-0.1l0.3,0l0.1-0.1
		l0-0.1l0.1,0l0.3-0.1l0.2-0.1l0.3-0.1l0-0.1l0-0.1L50.9,57.3z M44.2,54.4L44.2,54.4L44.2,54.4L44.2,54.4l0,0.2L44.2,54.4L44.2,54.4
		z"/>
	<polygon id="Santarém" fill-rule="evenodd" clip-rule="evenodd" fill="#D0B0CE" stroke="#FFFFFF" stroke-width="0.25" points="
		48,39.2 48.1,39.2 48.5,39 48.7,39 48.9,38.9 49,38.9 49.1,38.9 49.1,38.7 49,38.6 49.1,38.5 49.1,38.5 49.5,38.6 49.6,38.8 
		49.7,38.8 49.8,38.9 49.9,38.9 50,39 50,39 50,39.1 50,39.2 50,39.2 50,39.5 49.9,39.6 49.9,39.8 50,40.2 50.1,40.4 50.6,40.6 
		50.8,40.8 51,40.8 51.4,40.7 51.6,40.7 51.6,40.6 51.5,40.5 51.5,40.3 51.5,40.2 51.5,40 51.6,39.9 51.7,39.3 51.7,39.2 51.9,39.2 
		52.2,39.3 52.5,39.3 52.5,39.3 52.6,39.4 52.6,39.5 52.6,39.6 52.6,39.7 52.6,39.9 52.6,40.1 52.6,40.2 52.7,40.2 52.8,40.2 
		52.9,40.2 53.1,40.3 53.2,40.4 53.4,40.5 53.6,40.8 53.8,41.1 53.8,41.1 53.9,41.4 54,41.5 53.8,41.6 53.7,41.6 53.5,41.9 
		53.5,41.9 53.4,41.9 53.4,41.9 53.3,41.8 52.9,41.6 52.7,41.5 52.6,41.6 52.4,41.7 52.2,42 52,42.6 52.4,42.9 52.6,43.1 52.6,43.1 
		52.6,43.2 52.4,43.5 52,43.8 51.9,43.9 51.9,44 51.8,44.1 51.7,44.3 51.5,44.6 51.4,44.7 51.4,44.7 51.3,44.8 51.2,44.8 51,44.8 
		50.9,44.8 50.8,44.9 50.7,45.2 50.5,45.4 49.9,45.9 49.4,46.3 49.3,46.4 49,46.8 49,47 49.2,47.1 49.3,47.2 49.4,47.3 49.4,47.4 
		49.5,47.5 49.5,47.6 49.6,47.7 49.7,47.8 49.7,47.9 49.7,48 49.9,48.1 50.3,48.2 50.2,48.4 50.1,48.4 50,48.4 50,48.5 49.9,48.5 
		49.9,48.6 49.9,48.8 49.9,49 49.8,49.1 49.8,49.1 49.7,49.2 49.7,49.3 49.7,49.4 49.8,49.5 49.9,49.5 50.3,49.7 50.5,49.7 
		50.5,49.8 50.5,49.9 50.5,50.1 50.5,50.2 50.6,50.3 50.7,50.4 50.8,50.4 50.9,50.5 50.9,50.5 50.9,50.6 50.9,50.8 50.7,51 
		50.6,50.9 50.5,50.8 50.5,50.7 50.4,50.6 50.4,50.7 50.3,50.7 50.3,50.6 50.3,50.5 50.2,50.5 50.2,50.4 50.1,50.4 49.8,50.3 
		49.7,50.2 49.5,50 49.4,49.9 49.3,49.9 49.3,50 49.3,50 49.2,50.1 49.2,50.1 49.1,50.1 49,50.1 48.8,50.1 48.7,50 48.6,50 
		48.6,50.1 48.6,50.2 48.5,50.2 48.5,50.3 48.4,50.3 48.4,50.3 48.3,50.3 48.2,50.3 48,50.5 47.9,50.6 47.5,50.7 47,51.1 46.8,51 
		46.7,51 46.6,51 46.5,50.9 46.4,50.8 46.4,50.7 46.5,50.6 46.5,50.5 46.5,50.4 46.5,50.3 46.4,50.3 46.3,50.4 46.1,50.5 45.8,50.4 
		45.7,50.3 45.7,50.3 45.6,50.2 45.5,50.3 45.3,50.8 45.1,51.1 45.1,51.2 45,51.4 44.8,51.5 44.8,51.5 44.5,51.4 44.4,51.2 
		44.3,51.2 44.2,51.2 44.1,51.2 44,51.3 43.8,51.4 43.7,51.4 43.6,51.4 43.5,51.3 43.4,51.1 43.5,50.9 43.4,50.7 43.4,50.6 
		43.3,50.5 43.2,50.3 43.2,50.2 43.3,50 43.4,49.9 43.5,49.7 43.8,48.8 43.9,48.6 44,48.5 44.1,48.3 44.2,48.1 44.1,48 44.1,47.9 
		44.5,47.8 44.6,47.5 44.7,47.5 44.7,47.5 44.7,47.4 44.7,47.4 44.9,47.2 44.9,47.1 44.7,47.3 44.7,47.3 44.6,47.1 44.6,47 44.5,47 
		44.5,46.9 44.3,46.9 44.2,46.8 44,46.6 43.9,46.5 43.8,46.3 43.8,46.3 43.7,46.2 43.7,46.2 43.7,46.1 43.8,46 43.9,46 44.2,46 
		44.3,45.9 44.5,45.8 44,45.3 43.9,45.2 43.5,45.3 42.9,45.1 42.9,44.9 42.8,44.6 42.8,44.2 42.7,44 42.8,43.9 43,43.5 43.1,43.5 
		43.2,43.4 43.3,43.3 43.6,42.7 43.7,42.5 44,42.4 44.6,42.4 45.1,42.4 45.2,42.3 45.2,42.2 45.2,42.2 45.2,42.2 45.2,42.1 45.2,42 
		45.2,41.9 45.2,41.8 45.2,41.8 45.3,41.8 45.3,41.8 45.4,41.8 45.5,41.8 45.8,41.5 45.8,41.4 45.7,41.1 45.7,40.8 45.6,40.5 
		45.8,40.3 45.9,40.2 46,40.2 46,40.1 46.1,40 46,39.8 46,39.7 45.9,39.6 45.8,39.6 45.8,39.5 45.8,39.3 45.8,39.1 45.8,39 
		45.8,38.9 45.9,38.8 46.3,38.7 46.5,38.7 46.6,38.7 46.8,38.6 47.2,38.3 47.4,38.2 47.4,38.2 47.6,38.1 47.7,38.1 47.8,38.6 
		47.9,38.7 47.9,39 47.9,39.1 48,39.2 	"/>
	<polygon id="Porto" fill-rule="evenodd" clip-rule="evenodd" fill="#D0B0CE" stroke="#FFFFFF" stroke-width="0.25" points="
		46.5,19.3 46.5,19.3 46.6,19.3 47.1,19.3 47.2,19.3 47.3,19.3 47.3,19.2 47.4,19.2 47.6,19 47.7,19 47.9,19 47.9,19 48,19.1 
		48.2,19.1 48.5,19.1 48.9,19 49,19 49.1,19.1 49.2,19.1 49.4,19 49.5,19 49.8,18.9 49.9,18.7 50.1,18.5 50.5,18.7 50.7,18.9 
		50.8,19 50.8,19.1 51.1,19.3 51.4,19.5 51.5,19.4 51.7,19.6 51.8,19.6 51.9,19.6 52,19.6 52,19.5 52.1,19.5 52.1,19.5 52.2,19.4 
		52.2,19.4 52.3,19.3 52.3,19.3 52.3,19.2 52.4,19.1 52.5,19.3 52.5,19.4 52.5,19.5 52.6,19.6 52.7,19.7 53,19.9 53,20 53,20.2 
		53.2,20.5 53.3,20.6 53.3,20.6 53.2,21.1 53.2,21.4 53.1,21.7 52.7,22 51.6,22.4 51.3,22.4 50.4,22.3 50,22.4 49.4,22.7 49.4,22.8 
		49.3,22.8 48.9,23.2 48.7,23.1 48.5,23.2 48.4,23.3 48.5,23.3 48.5,23.4 48.5,23.5 48.5,23.6 48.4,23.6 48.2,23.4 48.2,23.3 
		48.1,23.2 47.9,23 47.8,23.2 47.7,23.3 47.7,23.4 47.6,23.5 47.5,23.5 47.4,23.4 47.3,23.3 47.2,23.3 47.1,23.3 46.9,23.4 
		46.6,23.5 46.5,23.4 46.1,23.5 46,23.5 46,23.5 46,23.3 45.9,22.5 45.9,22 46,21.9 46,21.8 45.7,21.7 45.5,21.4 45.4,20.9 
		45.2,20.6 45.3,20.4 45.2,20.3 45.2,20.1 45.1,20 45.1,19.6 45.1,19.5 45,19.4 45,19.3 45,19.2 44.8,19 44.8,18.8 44.8,18.6 
		44.8,18.3 44.9,17.9 45.1,17.9 45.3,18 45.5,18.1 45.8,18.1 45.9,18.2 46,18.2 46,18.3 46.2,18.5 46.3,18.5 46.4,18.6 46.5,18.7 
		46.5,18.7 46.5,18.8 46.5,18.8 46.4,18.8 46.3,18.9 46.3,19 46.3,19.2 46.4,19.3 	"/>
	<polygon id="Portalegre" fill-rule="evenodd" clip-rule="evenodd" fill="#D0B0CE" stroke="#FFFFFF" stroke-width="0.25" points="
		56.3,40 56.4,40.2 56.7,41 56.9,41.2 57.1,41.6 57.3,41.7 57.6,41.9 57.7,42 57.8,42.3 57.9,42.4 58.1,42.5 58.5,42.6 58.6,42.7 
		58.6,43 58.5,43.2 58.5,43.4 58.4,43.6 58.4,43.9 58.5,44.1 58.5,44.3 58.7,44.4 59.2,45 59.1,45.2 59,45.4 59.1,45.7 59.2,45.9 
		59.5,46 59.7,46.1 60,46.2 60.1,46.4 60.1,46.5 60,46.8 60,46.9 60.1,47 60.2,47 60.3,47.1 60.5,47 60.7,46.9 60.9,46.9 61.2,46.9 
		61.4,47.1 61.5,47.2 61.7,47.4 61.7,47.7 61.7,47.9 61.8,48 61.8,48.1 61.7,48.2 61.6,48.3 61.3,48.9 61.1,49.2 60.9,49.4 
		61.1,49.6 61,49.8 61,50 60.9,50 60.8,50.1 60.7,50.3 60.6,50.3 60.1,50.4 60,50.5 60,50.6 59.9,50.8 59.7,50.9 59.6,51 59.4,51.1 
		59.4,51.1 59.3,51 59.4,50.9 59.4,50.8 59.5,50.6 59.5,50.5 59.5,50.4 59.5,50.3 59.4,50.2 59.3,50.1 59.1,50.2 58.8,50.2 
		58.6,50.4 58.4,50.6 58.3,50.7 58.2,50.6 58.1,50.6 57.9,50.6 57.8,50.5 57.7,50.3 57.7,50.2 57.7,50 57.6,49.8 57.6,49.6 
		57.5,49.4 57.3,49.2 57.3,49.1 57.2,49 57.2,48.8 57.2,48.7 57,48.5 56.6,48.4 56.6,48.2 56.6,48.2 56.6,48.2 56.5,48.2 56.4,48.3 
		56.4,48.4 56.5,48.5 56.5,48.6 56.4,48.7 56.4,48.7 56.2,48.8 56,48.8 55.9,48.9 55.7,49 55.7,49.1 55.6,49.2 55.6,49.2 55.5,49.2 
		55.5,49.2 55.3,49.2 55.2,49.1 55.1,49.1 55,49.2 54.9,49.2 54.8,49.1 54.7,49.1 54.5,49.3 54.4,49.4 54.1,49.5 53.9,49.5 
		53.9,49.5 53.8,49.5 53.7,49.5 53.4,49.3 53,48.7 52.9,48.6 52.7,48.6 52.5,48.8 52.5,48.8 52.4,48.9 52.3,48.9 52.2,48.9 52,48.9 
		52,48.9 52,48.7 52,48.6 51.9,48.5 51.7,48.2 51.7,48.2 51.7,48.2 51.6,48.2 51.4,48.2 51.3,48.2 51.3,48.2 51.3,48.3 51.3,48.3 
		51.3,48.4 51.3,48.4 51.3,48.5 51.2,48.5 51.2,48.4 51.1,48.3 51.1,48.1 51.2,48 51.2,48 51,47.9 50.8,47.9 50.7,48 50.6,48 
		50.5,48.1 50.3,48.2 49.9,48.1 49.7,48 49.7,47.9 49.7,47.8 49.6,47.7 49.5,47.6 49.5,47.5 49.4,47.4 49.4,47.3 49.3,47.2 
		49.2,47.1 49,47 49,46.8 49.3,46.4 49.4,46.3 49.9,45.9 50.5,45.4 50.7,45.2 50.8,44.9 50.9,44.8 51,44.8 51.2,44.8 51.3,44.8 
		51.4,44.7 51.4,44.7 51.5,44.6 51.7,44.3 51.8,44.1 51.9,44 51.9,43.9 52,43.8 52.4,43.5 52.6,43.2 52.6,43.1 52.6,43.1 52.4,42.9 
		52,42.6 52.2,42 52.4,41.7 52.6,41.6 52.7,41.5 52.9,41.6 53.3,41.8 53.4,41.9 53.4,41.9 53.5,41.9 53.5,41.9 53.7,41.6 53.8,41.6 
		54,41.5 54.1,41.3 54.2,41.1 54.4,41 54.6,40.9 54.6,40.8 54.7,40.6 54.8,40.4 55,40.3 55.2,40.3 55.4,40.4 55.5,40.4 55.7,40.3 
		55.9,40.2 56,40 56.2,40 56.3,40 	"/>
	<path id="Lisbon" fill="#D0B0CE" stroke="#FFFFFF" stroke-width="0.25" d="M42.6,49.3L42.6,49.3l-0.1,0.1l0,0.2l0.1-0.1L42.6,49.3z
		 M42.4,49.8L42.4,49.8L42.4,49.8L42.2,50l-0.1,0.2L42,50.4l0.1,0l0.2-0.2l0.1-0.2L42.4,49.8L42.4,49.8L42.4,49.8z M41.9,50.1
		l0.3-0.3l0.5-1l0.5-0.7l0.2-0.3l0.1-0.1l0.8-0.1l0.4-0.3l-0.1-0.2l0-0.1l0,0l-0.1,0l-0.2-0.1l-0.1,0L44,46.6l0-0.1l-0.1-0.2
		l-0.1-0.1l-0.1,0l0-0.1l0-0.1l0.1-0.1l0.1,0l0.3,0l0.1,0l0.1-0.1L44,45.3l-0.1-0.2l-0.4,0.1l-0.7-0.2l0-0.2l-0.1-0.3l-0.3-0.1
		l-0.2-0.1l-0.1,0l-0.1,0l-0.1,0L42,44.6l-0.2,0.2l-0.2,0.4l-0.2,0.2l-0.2,0.2L41,45.4l-0.2-0.7l-0.1-0.1l-0.1-0.1l-0.1,0l0,0
		l-0.1,0l-0.1,0.1l-0.4,0.2h-0.4l-0.1,0l0.1,0.3l-0.1,0.4l0,0.5l-0.2,0.4l-0.1,0.3l-0.4,0.7l0,0.3l-0.1,0.3l0.1,0.5l0,0.7l-0.3,1
		l-0.2,0.2l-0.1,0.1l-0.1,0.1v0.3l0.1,0.5l-0.1,0.2l0,0.2l0.2,0.1l0.4-0.1l0.2,0l0.4,0.2l0.4,0.2l0.2-0.2l0.2-0.1l0.6,0.1l0.5-0.1
		l0.5-0.2l0.1-0.3l0-0.3l0-0.4l0-0.2l0.1-0.2L41.9,50.1z M44.7,47.4L44.7,47.4L44.7,47.4l-0.3,0.3l-0.2,0.1l-0.4,0l-0.2,0l-0.3,0.3
		L43,48.4l-0.4,0.9l0.1,0.3l0.1,0.3l0.1,0.2l0.2,0L43,50.2l0.1,0.2l0.1,0.2l0.1,0.2V51l0.1,0l0.1,0l-0.1-0.3l0-0.1l0-0.1l-0.2-0.2
		l0-0.1l0.1-0.1l0.1-0.1l0.1-0.3l0.3-0.9l0.1-0.2l0.1-0.1l0-0.1l0.2-0.3L44.1,48l0-0.1l0.3-0.1l0.2-0.2l0.1,0L44.7,47.4L44.7,47.4z
		 M42.6,49.7L42.6,49.7l-0.1,0.2l0.1,0.1l0.1-0.1l0-0.1L42.6,49.7L42.6,49.7z"/>
	<path id="Leiria" fill="#D0B0CE" stroke="#FFFFFF" stroke-width="0.25" d="M37.9,43.3l0.1-0.1l-0.1,0L37.9,43.3z M51,36.6l0.1-0.1
		l-0.4-0.6l0-0.2l0.1-0.3l0-0.1l-0.1-0.1l-0.1,0L50.5,35l-0.3,0.4l-0.3-0.1l-0.4,0.4l-0.1,0.2l0,0.1l0,0.1l0,0l0.1,0.1l0,0.1l0,0.1
		l-0.1,0.1l-0.1,0l-0.1-0.1l-0.1,0l-0.3,0.4l-0.4,0.1l-0.1,0l-0.1,0l0,0l0.1,0l0.1-0.1l0-0.1l0-0.2l-0.1-0.2l-0.1-0.3l-0.1-0.1
		l-0.1,0l0,0.1l-0.2,0l-0.3,0.3l-0.2,0.2l-0.2,0.2l-0.1,0.1l0,0l0-0.1l0-0.1v-0.2l0-0.1l-0.1-0.3l-0.1-0.1l-0.1,0l-0.1,0l-0.1,0
		l-0.1,0l-0.1,0.1l-0.1,0.2l0,0l0,0l-0.1,0l-0.1,0l0,0L46,35.9l-0.2-0.1l-0.1-0.1l-0.2-0.1l-0.2,0l-0.5,0l-0.2,0.1l-0.1,0.1l-0.1,0
		l-0.3-0.1L44,35.7L44,35.6l-0.2-0.1l-0.1,0l0,0L42.8,38l-0.7,2L42,40.4l-0.1,0.3l0,0.2l0,0.2l-0.2,0.3l-0.1,0.2L41.5,42l-0.3,0.2
		L41,42.3l-0.1,0.1l-0.2,0.2l-0.2,0.2l0.2,0.1l0.1,0.2l-0.1,0.1l-0.1,0l-0.1-0.1l-0.2,0l-0.2,0.2l-0.7,0.5L39,43.7l-0.1,0l0.1,0.1
		l0.3,0.4l0.1,0.2l0.1,0.3l0.1,0h0.4l0.4-0.2l0.1-0.1l0.1,0l0,0l0.1,0l0.1,0.1l0.1,0.1l0.2,0.7l0.2,0.1l0.2-0.2l0.2-0.2l0.2-0.4
		l0.2-0.2l0.1-0.1l0.1,0l0.1,0l0.1,0l0.2,0.1l0.3,0.1l0-0.4L42.7,44l0-0.1l0.2-0.4l0.2,0l0.1-0.1l0.1-0.1l0.3-0.6l0.1-0.1l0.3-0.1
		l0.6-0.1l0.5,0l0.1-0.1l0-0.1l0,0v0l0,0L45.2,42l0-0.1l0-0.1l0-0.1l0.1,0l0.1,0l0.1,0l0.1,0l0.2-0.3l0.1-0.1l-0.1-0.3l0-0.2
		l-0.1-0.4l0.2-0.2l0.1-0.1l0.1-0.1l0.1-0.1l0-0.1l0-0.2L46,39.7l-0.1-0.1l-0.1-0.1l0-0.1l0-0.1l0-0.2l0-0.1l0.1-0.1l0.1-0.1
		l0.4-0.2l0.2,0l0.1,0l0.2-0.1l0.5-0.3l0.1,0l0.1,0l0.1-0.1l0.1,0l0.1,0.5l0,0.1l0.1,0.3l0,0.1l0,0.1l0,0.1l0.2-0.1l0.4-0.1l0.1,0
		l0.2-0.1l0.2,0l0,0l0-0.2l0-0.1l0-0.1l0.1,0l0.4,0l0-0.1l0-0.1l0.1-0.1l0.1,0l0-0.1l0-0.1l0.1-0.1l0.1-0.1l0.4-0.1l0.1,0l0.1-0.1
		l0.1-0.1l0.1-0.1l0.1,0l0.1,0l0.1-0.1l0.1-0.1L51,37l0-0.2l0,0l0,0l0-0.1L51,36.6L51,36.6z"/>
	<polygon id="Guarda" fill-rule="evenodd" clip-rule="evenodd" fill="#D0B0CE" stroke="#FFFFFF" stroke-width="0.25" points="
		62.2,23.1 62.2,23.1 62.2,23.3 62.1,23.5 62.1,23.7 62.2,23.8 62.5,24.1 62.6,24.3 62.8,24.8 62.9,25.1 63,25.2 63.1,25.2 
		63.2,25.3 63.3,25.5 63.2,25.6 63.1,25.7 63.1,26 63.1,26.1 63.1,26.2 63.1,26.3 63.1,26.4 63.1,26.5 63.1,26.7 63.1,26.9 
		63.2,27.3 63.3,27.7 63.3,27.9 63.3,28.1 63.2,28.3 63,28.7 62.9,28.9 63,29.1 63,29.2 63.2,29.3 63.3,29.5 63.3,29.7 63.3,29.9 
		63.1,30.2 62.9,30.6 62.9,31 63.2,31.4 63.5,31.7 63.3,32 63.2,32.1 62.8,32.4 62.8,32.4 62.7,32.5 62.7,32.6 62.7,32.7 62.7,32.8 
		62.5,32.9 62.3,32.9 62.1,32.9 62.1,32.9 62.1,32.9 62,32.9 61.9,32.8 61.8,32.7 61.6,32.6 61.5,32.5 61.4,32.5 61.3,32.6 61,32.6 
		60.8,32.5 60.7,32.5 60.7,32.3 60.6,32.2 60.6,32.2 60.5,32.1 60.4,32.2 60.3,32.3 60.3,32.4 60.3,32.5 60.2,32.6 60.1,32.6 
		59.6,32.6 59.2,32.8 59,32.7 58.8,32.7 58.7,32.6 58.6,32.6 58.6,32.6 58.5,32.6 58.5,32.5 58.5,32.4 58.6,32.3 58.7,32.2 
		58.8,32.1 58.9,31.8 59,31 58.9,31 58.8,31 58.6,31 58.6,31 58.5,31 58.3,31.3 58,31.3 57.9,31.4 57.6,31.3 57.3,31 56.8,31.4 
		56.7,31.7 56.7,31.7 56.6,31.9 56.5,32 56.4,32.1 56.1,32.1 55.9,32 55.7,32.3 55.5,32.5 55.3,32.7 55,32.8 54.6,33.1 54.5,33.1 
		54.4,33.1 54.2,33.2 54,33 53.8,32.9 53.9,32.6 53.9,32.4 54,32.3 54.1,32.2 54.3,32 54.3,32 54.3,31.9 54.2,31.8 54.1,31.7 
		54,31.2 54,31.1 54,31.1 53.8,31 53.7,31 53.7,30.8 53.7,30.8 53.8,30.7 53.8,30.7 53.9,30.6 54,30.6 54,30.4 54,30.3 53.9,30.3 
		53.9,30.2 53.8,29.9 53.9,29.8 54.2,29.8 54.3,29.8 54.5,29.6 54.8,29.5 55.1,29.3 55.5,29.1 56.1,29 56.1,28.8 56.3,28.1 
		56.4,27.9 56.5,27.6 56.3,27.4 56.1,27.3 56,27.1 56.1,26.9 56.1,26.9 56.1,26.8 56.1,26.7 56.1,26.6 55.8,26.4 55.7,26.3 
		55.7,26.2 55.8,26.2 55.9,26 56,25.8 56.1,25.5 56.1,25.4 56.2,25.4 56.3,25.3 56.5,25.3 56.6,25.4 56.8,25.5 57.1,25.8 57.1,25.9 
		57.2,25.9 57.4,25.9 57.4,25.8 57.7,25.3 57.7,25.2 57.6,25.1 57.6,25 57.6,24.7 57.7,24.7 58,24.8 58.3,24.5 58.4,24.3 58.4,24.1 
		58.4,24 58.4,24 58.3,23.9 58.2,23.9 58.1,23.8 58,23.7 58,23.6 58.1,23.5 58.3,23.5 58.4,23.5 58.4,23.1 58.4,22.9 58.5,22.5 
		58.7,21.7 59.5,21.7 59.8,21.7 59.9,21.7 60,21.6 60.4,21.4 60.5,21.3 60.4,21.6 60.4,21.7 60.4,21.7 60.5,21.8 60.5,21.8 
		60.6,21.8 60.7,21.8 60.7,21.9 60.6,22 60.6,22.2 60.7,22.3 60.7,22.5 60.8,22.6 61.7,23 62.1,23.1 62.2,23.1 	"/>
	<path id="Faro" fill="#D0B0CE" stroke="#FFFFFF" stroke-width="0.25" d="M57.7,70L57.7,70L57.7,70l-0.1-0.1l-0.1-0.5l0-0.3l0.1-0.2
		l-0.1-0.4l-0.1-0.9l-0.2-0.4l0-0.1l0-0.3l-0.1-0.3l-0.1-0.2L57,66.2l-0.2-0.1L56.8,66l-0.1-0.1l0,0l-0.2,0l-0.3,0L56,66l-0.2,0.2
		l-0.1,0.1l-0.1,0l-0.1,0l-0.1,0l-0.1,0l-0.5,0l-0.7,0.3L54,66.6l-0.1,0l-0.1,0l-0.1,0l-0.2,0.1l-0.1,0l-0.1,0l0,0.1l-0.1,0
		l-0.2,0.1l0,0.1l0,0.1L53,67.3l-0.3,0l-0.1,0l-0.3,0l-0.1,0.1l0,0.1l0,0.1l0,0l0.1,0.1v0.1l-0.1,0L51.8,68l-0.2,0.2l-0.1,0.1
		l-0.1,0l-0.4,0l-0.2,0l-0.3-0.1l-0.7-0.5l-0.1-0.1l-0.1-0.1l0-0.1l0-0.2l-0.1-0.1L49.3,67l-0.2,0L49,67.1l-0.1,0l-0.1,0l-0.2,0
		l-0.4,0.1l0,0l-0.1,0.1l0,0.1l0,0.1l-0.2,0.1l-0.2,0.1l-0.4-0.1l-0.1-0.1l-0.4-0.2l-0.1,0l-0.4,0.1l-0.1,0l0,0.1l-0.1,0.1l-0.1,0
		l-0.1,0l-0.1,0l-0.2-0.1l-0.4,0l-0.1,0l-0.1-0.1l-0.1-0.1L45,67l-0.1,0l-0.2-0.1l-0.1-0.1l-0.1,0.4l-0.2,0.4l0,0.3L44,68.2
		l-0.2,0.3l0.1,0.2l0.1,0.2l-0.1,0.5l-0.2,0.2l-0.2,0.2l0.1,0.4l-0.1,0.3l-0.1,0.3l-0.4,0.6l0,0.1l-0.1,0.2l-0.1,0.3l0.1-0.1
		l0.1,0.1l0.1,0.1l0.1,0.1l0.1,0l0.2-0.2l0.1,0l0.1-0.1l0.2-0.2l0.2,0.1l0.2-0.2l0.2-0.1l0.1,0l0.1-0.1l0.2-0.2l0.1,0h0.6l0.3-0.3
		l0.1-0.1l0.1,0l0.4,0l0.4,0.1l0.5,0.3l0,0l0.4,0.2l0.4-0.1l0.3-0.1l0.4,0.1l0.3,0.1l0.8-0.1l0.3,0l0.3,0.1l0.4,0.1l0.7,0.4l0.3,0.3
		l0.2,0.3l0-0.1l0-0.1l-0.1-0.1l0.1,0l0.1,0.1l0.1,0l0.1-0.1l0.2,0.1l0.6,0l0.2,0l0.1,0.1l0.1,0l0.3-0.3l1.4-1l0.1-0.1l0.5-0.4
		l0.2-0.1l0.4-0.3l0.2-0.1l0.2,0l0.2,0l0.2,0.1l0.2,0.1L57.7,70L57.7,70L57.7,70z M53.2,72.1L53.2,72.1L53.2,72.1l-0.1,0H53l0,0l0,0
		l0.1,0.1L53.2,72.1L53.2,72.1L53.2,72.1L53.2,72.1L53.2,72.1z M53.5,72.1L53.5,72.1l-0.2,0.2L53,72.4l-0.5-0.1v0.1l0.2,0.1l0.3,0
		l0.2-0.1l0.2-0.1l0,0l0.1,0L53.5,72.1L53.5,72.1z M53,72.4L53,72.4L53,72.4L53,72.4l0-0.1L53,72.4z"/>
	<polygon id="Évora" fill-rule="evenodd" clip-rule="evenodd" fill="#D0B0CE" stroke="#FFFFFF" stroke-width="0.25" points="
		51.2,48.5 51.3,48.5 51.3,48.4 51.3,48.4 51.3,48.3 51.3,48.3 51.3,48.2 51.3,48.2 51.4,48.2 51.6,48.2 51.7,48.2 51.7,48.2 
		51.7,48.2 51.9,48.5 52,48.6 52,48.7 52,48.9 52,48.9 52.2,48.9 52.3,48.9 52.4,48.9 52.5,48.8 52.5,48.8 52.7,48.6 52.9,48.6 
		53,48.7 53.4,49.3 53.7,49.5 53.8,49.5 53.9,49.5 53.9,49.5 54.1,49.5 54.4,49.4 54.5,49.3 54.7,49.1 54.8,49.1 54.9,49.2 55,49.2 
		55.1,49.1 55.2,49.1 55.3,49.2 55.5,49.2 55.5,49.2 55.6,49.2 55.6,49.2 55.7,49.1 55.7,49 55.9,48.9 56,48.8 56.2,48.8 56.4,48.7 
		56.4,48.7 56.5,48.6 56.5,48.5 56.4,48.4 56.4,48.3 56.5,48.2 56.6,48.2 56.6,48.2 56.6,48.2 56.6,48.4 57,48.5 57.2,48.7 
		57.2,48.8 57.2,49 57.3,49.1 57.3,49.2 57.5,49.4 57.6,49.6 57.6,49.8 57.7,50 57.7,50.2 57.7,50.3 57.8,50.5 57.9,50.6 58.1,50.6 
		58.2,50.6 58.3,50.7 58.4,50.6 58.6,50.4 58.8,50.2 59.1,50.2 59.3,50.1 59.4,50.2 59.5,50.3 59.5,50.4 59.5,50.5 59.5,50.6 
		59.4,50.8 59.4,50.9 59.3,51 59.4,51.1 59.4,51.1 59,51.4 59,51.5 58.9,51.6 58.9,51.7 58.8,52.1 58.8,52.4 58.8,52.5 58.8,52.6 
		58.9,52.7 58.9,52.7 59,52.8 59,52.9 58.9,53 58.6,53.6 58.4,54.2 58.3,54.3 58.4,54.5 58.4,54.6 58.3,54.8 58.2,54.9 58.3,55 
		58.6,55.2 59.6,56.5 59.6,56.5 59.7,56.7 59.7,56.8 59.8,56.8 59.9,57 60,57 60.3,58 60.4,58.1 60.4,58.1 60.3,58.1 60.2,58.2 
		60.1,58.2 60,58.1 59.9,58 59.8,57.8 59.8,57.7 59.7,57.5 59.7,57.4 59.7,57.3 59.6,57.3 59.4,57.1 59.2,57 59.1,56.9 59.1,56.8 
		59.1,56.7 59.1,56.6 59,56.5 59,56.5 58.9,56.4 58.9,56.4 58.9,56.4 58.9,56.3 58.8,56.3 58.8,56.3 58.5,56.4 58.5,56.4 58.4,56.4 
		58.1,56.6 57.8,56.7 57.8,56.8 57.8,56.8 57.7,57 57.6,57.1 57.6,57.1 57.5,57.2 57.4,57.3 57.3,57.3 57.1,57.4 56.9,57.6 
		56.8,57.8 56.8,57.9 56.7,57.9 56.3,57.9 56,57.8 55.9,57.8 55.2,57.8 55.1,57.7 54.5,57.4 54.3,57.3 53.8,57.3 53,56.9 52.8,56.6 
		52.5,56.5 52.4,56.5 52.3,56.5 52.1,56.6 52,56.6 52,56.6 51.9,56.5 51.7,56.4 51.7,56.4 51.6,56.3 51.3,56.4 50.7,56.4 50.6,56.5 
		50.3,56.2 50.1,56.1 50,56.1 49.9,56.1 49.8,56.1 49.6,56 49.5,55.9 49.3,55.8 49.2,55.8 49.2,55.7 49.4,55.4 49.4,55.2 49.4,55.1 
		49.3,55 49.2,55 49.1,54.9 49.1,54.8 49.2,54.8 49.2,54.7 49,54.4 49,54.3 49,54.3 49,54.3 49,54.3 49,54.2 48.9,54.1 48.7,53.8 
		48.6,53.8 48.4,53.8 48.2,54 48.1,54 47.8,54 47.7,54 47.6,53.9 47.5,53.9 47.5,53.8 47.4,53.8 47.4,53.8 47.3,53.8 47.3,53.9 
		47.4,53.9 47.3,54 47.3,54 47.1,54 46.8,53.9 46.4,53.7 46.1,53.7 46.1,53.4 46.1,53.3 46,53.2 46,53.1 46,53 46.4,52.6 47.1,52 
		47.3,51.8 47.4,51.7 47.4,51.6 47.4,51.5 47.5,51.3 47.5,51.2 47.4,51.1 47,51.1 47.5,50.7 47.9,50.6 48,50.5 48.2,50.3 48.3,50.3 
		48.4,50.3 48.4,50.3 48.5,50.3 48.5,50.2 48.6,50.2 48.6,50.1 48.6,50 48.7,50 48.8,50.1 49,50.1 49.1,50.1 49.2,50.1 49.2,50.1 
		49.3,50 49.3,50 49.3,49.9 49.4,49.9 49.5,50 49.7,50.2 49.8,50.3 50.1,50.4 50.2,50.4 50.2,50.5 50.3,50.5 50.3,50.6 50.3,50.7 
		50.4,50.7 50.4,50.6 50.5,50.7 50.5,50.8 50.6,50.9 50.7,51 50.9,50.8 50.9,50.6 50.9,50.5 50.9,50.5 50.8,50.4 50.7,50.4 
		50.6,50.3 50.5,50.2 50.5,50.1 50.5,49.9 50.5,49.8 50.5,49.7 50.3,49.7 49.9,49.5 49.8,49.5 49.7,49.4 49.7,49.3 49.7,49.2 
		49.8,49.1 49.8,49.1 49.9,49 49.9,48.8 49.9,48.6 49.9,48.5 50,48.5 50,48.4 50.1,48.4 50.2,48.4 50.3,48.2 50.5,48.1 50.6,48 
		50.7,48 50.8,47.9 51,47.9 51.2,48 51.2,48 51.1,48.1 51.1,48.3 51.2,48.4 	"/>
	<path id="Coimbra" fill="#D0B0CE" stroke="#FFFFFF" stroke-width="0.25" d="M54.6,34.7L54.6,34.7l-0.1-0.2l-0.3-0.2l-0.2-0.2
		L54.1,34l0-0.1l0-0.2l0-0.1l0.2-0.5L54,33l-0.3-0.1l0.1-0.2l0-0.2l0.1-0.1l0.1-0.1l0.2-0.2l0-0.1l0-0.1l-0.1-0.1l-0.1-0.1L54,31.2
		l0-0.1L54,31.1l-0.2,0L53.7,31l-0.1-0.1l0-0.1l0.1-0.1l0.1,0l0.1,0l0.1-0.1l0-0.1l0-0.1l-0.1-0.1l-0.1,0l-0.1-0.3L53.6,30l-0.1,0.1
		l-0.1,0.1l-0.3,0.2l-0.2,0.4l-0.2,0.1l-0.4,0.3l-0.5,0.2L51,31.9l-0.5-0.1l-0.4,0.1l0,0l0,0.1l0,0.1l0,0.1l0,0l-0.1,0L49.9,32
		L49.7,32l-0.1-0.1l-0.2-0.2L49,31.6L49,31.5l-0.1,0l-0.1,0.1l0,0.1l-0.1,0.1l-0.2,0l-0.1,0l-0.1,0.1L48.3,32L48,32.3l0,0.1
		l-0.1,0.1l-0.1,0.1l-0.5-0.1l-0.1-0.1l0-0.1l0-0.1l0-0.1l0.1-0.2l0.1-0.1l0-0.1l0,0l0,0l0,0l0-0.2l0-0.1l0-0.1l-0.1-0.2l0-0.2
		l-0.1,0L47.1,31L47,31.1l-0.1,0l-0.1,0L46.8,31l0-0.2l0-0.1l0.1-0.3l-0.4-0.2l-0.2,0.3l0,0.2l-0.1,0.1l-0.3,0l-1-1.1l0,0l-0.1,0.6
		L44,32.7l-0.3,0.6l-0.1,0.3l0,0.3l0.1,0.2l0.2,0.1l0.4,0.1l0.2,0.1l0.1,0.1l0.2,0.1v0.1l-0.4,0l-0.2-0.1l-0.1-0.2L44,34.5l-0.3,1
		l0,0l0.1,0l0.2,0.1l0.1,0.1l0.1,0.1l0.3,0.1l0.1,0l0.1-0.1l0.2-0.1l0.5,0l0.2,0l0.2,0.1l0.1,0.1l0.2,0.1l0.1,0.1l0,0l0.1,0l0.1,0
		l0,0l0,0l0.1-0.2l0.1-0.1l0.1,0l0.1,0l0.1,0l0.1,0l0.1,0.1l0.1,0.3l0,0.1v0.2l0,0.1l0,0.1l0,0l0.1-0.1l0.2-0.2l0.2-0.2l0.3-0.3
		l0.2,0l0-0.1l0.1,0l0.1,0.1l0.1,0.3l0.1,0.2l0,0.2l0,0.1l-0.1,0.1l-0.1,0l0,0l0.1,0l0.1,0l0.4-0.1l0.3-0.4l0.1,0l0.1,0.1l0.1,0
		l0.1-0.1l0-0.1l0-0.1l-0.1-0.1l0,0l0-0.1l0-0.1l0.1-0.2l0.4-0.4l0.3,0.1l0.3-0.4l0.1,0.1l0.1,0l0.1,0.1l0,0.1l-0.1,0.3l0,0.2
		l0.4,0.6L51,36.6l0,0.1l0,0.1l0,0.1l0,0l0,0l0,0.2l0.1-0.2l0-0.1l0.1,0l0,0l0.1,0l0.1-0.1l0.2-0.1l0.2,0l0,0l0-0.1l0-0.1l0,0l0.1,0
		l0.1-0.1l0,0l0.1,0l0.1,0l0.1,0l0,0l0,0l0.1-0.2l0.1,0l0.1,0l0.2,0l0.1-0.1l0-0.1l0-0.2l0-0.1l0.1-0.1l0.2-0.1l0.1,0l0.1,0l0.1,0
		l0.1,0l0.2,0.2l0-0.2l0-0.2l0-0.1l0,0l0,0l0,0l0,0l0.1,0l0.1,0l0.2-0.1l0.1-0.1l0-0.1L54.6,34.7L54.6,34.7z M44.4,34.5l0.1,0
		l0.2-0.1l-0.3-0.2l-0.1,0l-0.1,0l0,0l0,0.1l0,0.1L44.4,34.5z"/>
	
		<polygon id="Castelo_Branco" fill-rule="evenodd" clip-rule="evenodd" fill="#D0B0CE" stroke="#FFFFFF" stroke-width="0.25" points="
		59.2,32.8 59.6,32.6 60.1,32.6 60.2,32.6 60.3,32.5 60.3,32.4 60.3,32.3 60.4,32.2 60.5,32.1 60.6,32.2 60.6,32.2 60.7,32.3 
		60.7,32.5 60.8,32.5 61,32.6 61.3,32.6 61.4,32.5 61.5,32.5 61.6,32.6 61.8,32.7 61.9,32.8 62,32.9 62.1,32.9 62.1,32.9 62,33 
		61.6,33.2 61.4,33.3 61.3,33.4 61.2,33.7 61.1,33.8 61.2,34 61.3,34.4 61.4,34.6 61.5,34.6 61.8,34.7 61.9,34.7 62,34.8 62.1,35 
		62.3,35.3 62.7,36 62.5,36.2 62.5,36.4 62.5,36.5 62.4,36.6 62.4,36.9 62.4,36.9 62.3,37 62.2,37.1 62.2,37.1 62.3,37.3 62.3,37.3 
		62.3,37.4 62.3,37.6 62.2,37.8 62,38.1 61.9,38.2 61.7,38.3 61.6,38.3 61.5,38.5 61.6,38.6 61.6,38.7 61.6,38.8 61.6,38.9 
		61.5,39.1 61.4,39.3 61.4,39.4 61.4,39.5 61.5,39.6 61.3,39.8 61.2,39.9 59.8,40 59.5,40 59.3,39.9 59.2,40 58.8,39.9 58.6,40 
		58.5,40 58.3,40.1 56.3,40 56.3,40 56.3,40 56.2,40 56,40 55.9,40.2 55.7,40.3 55.5,40.4 55.4,40.4 55.2,40.3 55,40.3 54.8,40.4 
		54.7,40.6 54.6,40.8 54.6,40.9 54.4,41 54.2,41.1 54.1,41.3 54,41.5 53.9,41.4 53.8,41.1 53.8,41.1 53.6,40.8 53.4,40.5 53.2,40.4 
		53.1,40.3 52.9,40.2 52.8,40.2 52.7,40.2 52.6,40.2 52.6,40.1 52.6,39.9 52.6,39.7 52.6,39.6 52.6,39.5 52.6,39.4 52.5,39.3 
		52.5,39.3 52.2,39.3 51.9,39.2 51.7,39.2 51.7,39.3 51.6,39.9 51.5,40 51.5,40.2 51.5,40.3 51.5,40.5 51.6,40.6 51.6,40.7 
		51.4,40.7 51,40.8 50.8,40.8 50.6,40.6 50.1,40.4 50,40.2 49.9,39.8 49.9,39.6 50,39.5 50,39.2 50,39.2 50,39.1 50,39 50,39 
		49.9,38.9 49.8,38.9 49.7,38.8 49.6,38.8 49.5,38.6 49.5,38.4 49.5,38.4 49.5,38.3 49.6,38.2 49.6,38.2 49.6,38.1 49.7,38 49.7,38 
		50.1,37.8 50.2,37.9 50.3,37.8 50.3,37.7 50.4,37.6 50.5,37.6 50.6,37.5 50.7,37.5 50.8,37.4 51,37 51.1,36.9 51.1,36.8 51.2,36.8 
		51.2,36.7 51.4,36.7 51.5,36.6 51.7,36.5 51.8,36.5 51.9,36.5 51.9,36.4 51.9,36.4 51.9,36.4 52.1,36.3 52.1,36.3 52.2,36.3 
		52.3,36.2 52.3,36.2 52.4,36.3 52.4,36.3 52.5,36.3 52.6,36.1 52.7,36 52.7,36 52.9,36 53,35.9 53,35.9 53,35.7 53,35.6 53.1,35.5 
		53.4,35.4 53.5,35.4 53.6,35.4 53.7,35.4 53.8,35.4 54,35.6 54,35.3 54,35.1 54,35 54.1,35 54.1,35 54.1,35.1 54.2,35.1 54.2,35.1 
		54.3,35.1 54.5,35 54.6,34.9 54.6,34.8 54.6,34.8 54.6,34.7 54.6,34.6 54.6,34.5 54.3,34.3 54.2,34.1 54.1,34 54,33.9 54,33.8 
		54,33.7 54.2,33.2 54.4,33.1 54.5,33.1 54.6,33.1 55,32.8 55.3,32.7 55.5,32.5 55.7,32.3 55.9,32 56.1,32.1 56.4,32.1 56.5,32 
		56.6,31.9 56.7,31.7 56.7,31.7 56.8,31.4 57.3,31 57.6,31.3 57.9,31.4 58,31.3 58.3,31.3 58.5,31 58.6,31 58.6,31 58.8,31 58.9,31 
		59,31 58.9,31.8 58.8,32.1 58.7,32.2 58.6,32.3 58.5,32.4 58.5,32.5 58.5,32.6 58.6,32.6 58.6,32.6 58.7,32.6 58.8,32.7 59,32.7 	
		"/>
	<polygon id="Bragança" fill-rule="evenodd" clip-rule="evenodd" fill="#D0B0CE" stroke="#FFFFFF" stroke-width="0.25" points="
		61.1,11.9 61.4,11.7 61.6,11.6 61.7,11.6 61.8,11.7 62.1,11.9 62.3,11.9 62.9,11.9 63.1,11.7 63.2,11.4 63.5,11.4 63.8,11.9 
		64.1,12 64.8,12 65.1,11.9 65.2,11.6 65.4,11.7 65.6,11.9 65.6,12.1 65.5,12.6 65.6,12.7 65.8,12.7 66,12.8 65.9,13.1 65.7,14.1 
		65.6,14.2 65.6,14.3 65.5,14.4 65.5,14.5 65.6,14.7 65.6,14.8 65.7,15 65.7,15.3 65.9,15.5 66.1,15.6 66.2,15.5 66.4,15.5 
		66.5,15.4 66.5,15.3 66.6,15.2 66.7,15.2 67.5,15.4 68,15.6 68.4,15.8 68.8,16.3 68.9,16.4 69,16.6 68.6,17.2 68.3,17.5 68.3,17.6 
		68.3,17.7 68.3,17.8 68.3,17.9 67.9,18.5 67.9,18.6 67.6,18.6 67.5,18.6 67.4,18.7 67.4,18.7 67.4,18.8 67.4,18.9 67.4,19 67.3,19 
		67.2,19 67.2,19 66.9,19.5 66.6,19.8 66.4,19.9 66.3,20 65.7,20.3 65.6,20.3 65,20.3 64.9,20.4 64.8,20.5 64.4,21 64.4,21.2 
		64.3,21.3 64,21.6 63.8,21.7 63.8,21.8 63.8,22.1 63.8,22.3 63.4,22.9 63.3,23 63,23.1 62.4,23 62.2,23.1 62.2,23.1 62.1,23.1 
		61.7,23 60.8,22.6 60.7,22.5 60.7,22.3 60.6,22.2 60.6,22 60.7,21.9 60.7,21.8 60.6,21.8 60.5,21.8 60.5,21.8 60.4,21.7 60.4,21.7 
		60.4,21.6 60.5,21.3 60.4,21.4 60,21.6 59.9,21.7 59.8,21.7 59.5,21.7 58.7,21.7 58.5,21.7 58.2,21.6 58,21.5 57.8,21.1 57.6,21 
		57.5,21 57.5,20.8 57.6,20.8 57.6,20.7 57.7,20.7 57.8,20.7 57.8,20.6 57.8,20.6 57.8,20.5 57.8,20.4 57.9,20.2 58,20.1 58,20 
		58.1,19.9 58.1,19.9 58.1,19.7 58.2,19.6 58.6,19.5 58.3,19.3 58.3,19.2 58.2,19.1 58.1,18.8 58.1,18.2 58.4,17.9 58.5,17.9 
		58.6,17.9 58.7,17.8 58.8,17.6 58.9,17.3 59,17.2 59.1,17.2 59.1,17.2 59.2,17.2 59.3,17.1 59.3,17.1 59.3,17 59.3,16.9 59.2,16.8 
		59.2,16.7 59.1,16.6 59.1,16.5 59.2,16.1 59.5,15.1 59.7,14.6 59.8,14.5 59.8,14.5 59.9,14.4 59.9,14.3 59.9,14.2 59.9,14.1 
		59.7,13.8 59.7,13.6 59.6,13.5 59.6,13.2 59.6,13 59.6,12.9 59.6,12.6 59.6,12.5 59.7,12.4 59.7,12.2 59.6,11.8 59.7,11.6 
		59.7,11.5 59.9,11.4 60,11.3 60.2,11.3 60.5,11.5 60.8,11.7 	"/>
	<polygon id="Braga" fill-rule="evenodd" clip-rule="evenodd" fill="#D0B0CE" stroke="#FFFFFF" stroke-width="0.25" points="
		51.2,15 51.3,15 51.3,15 51.4,15 51.5,15 51.6,15 51.6,15 51.8,14.9 51.9,14.9 51.9,14.9 52.2,15.1 52.2,15.1 52.3,15.2 52.2,15.4 
		52.2,15.5 52.2,16.1 52.3,16.1 52.5,16.2 52.5,16.2 52.6,16.2 53,16.3 53.1,16.3 53.4,16.2 53.6,16 53.7,16.1 53.7,16.1 53.9,16.4 
		53.9,16.6 53.5,17.1 53.4,17.3 53.2,17.3 53.2,17.4 53.1,17.5 53,17.6 53,17.6 52.9,17.6 52.9,17.6 52.8,17.8 52.7,18.1 52.7,18.1 
		52.7,18.2 52.7,18.3 52.6,18.5 52.5,18.6 52.5,18.6 52.4,18.7 52.4,18.7 52.5,18.8 52.5,18.9 52.4,19.1 52.3,19.2 52.3,19.3 
		52.3,19.3 52.2,19.4 52.2,19.4 52.1,19.5 52.1,19.5 52,19.5 52,19.6 51.9,19.6 51.8,19.6 51.7,19.6 51.5,19.4 51.4,19.5 51.1,19.3 
		50.8,19.1 50.8,19 50.7,18.9 50.5,18.7 50.1,18.5 49.9,18.7 49.8,18.9 49.5,19 49.4,19 49.2,19.1 49.1,19.1 49,19 48.9,19 
		48.5,19.1 48.2,19.1 48,19.1 47.9,19 47.9,19 47.7,19 47.6,19 47.4,19.2 47.3,19.2 47.3,19.3 47.2,19.3 47.1,19.3 46.6,19.3 
		46.5,19.3 46.5,19.3 46.4,19.3 46.3,19.2 46.3,19 46.3,18.9 46.4,18.8 46.5,18.8 46.5,18.8 46.5,18.7 46.5,18.7 46.4,18.6 
		46.3,18.5 46.2,18.5 46,18.3 46,18.2 45.9,18.2 45.8,18.1 45.5,18.1 45.3,18 45.1,17.9 44.9,17.9 44.9,17.8 44.7,17.6 44.7,17.3 
		44.7,17.1 44.7,16.9 44.5,16.5 44.5,16.3 44.4,16 44.4,16 44.5,16 44.7,16 44.8,16 45.4,15.7 45.9,15.7 46,15.7 46.1,15.6 
		46.1,15.6 46.2,15.6 46.2,15.6 46.5,15.7 46.7,15.7 46.8,15.8 46.9,15.8 47,15.8 47.1,15.5 47.1,15.4 47.1,15.3 47.1,15.2 
		47.2,15.2 47.3,15.1 47.3,15 47.3,14.8 47.3,14.7 47.3,14.6 47.4,14.5 47.5,14.5 47.5,14.5 47.6,14.5 47.7,14.5 47.8,14.4 48,14.3 
		48.1,14.2 48.2,14.2 48.4,14.1 49.2,14.1 49.4,14 50.3,13.5 50.4,13.5 50.5,13.5 50.5,13.5 50.5,13.5 51.3,13.6 51.7,13.5 
		51.7,13.5 51.7,13.6 51.7,13.6 51.6,13.7 51.6,13.8 51.5,14.2 51.4,14.3 51.3,14.6 51.3,14.7 51.2,14.8 51,15 	"/>
	<polygon id="Beja" fill-rule="evenodd" clip-rule="evenodd" fill="#D0B0CE" stroke="#FFFFFF" stroke-width="0.25" points="
		60.2,58.2 60.3,58.1 60.4,58.1 60.4,58.1 60.6,58.2 60.7,58.2 60.9,58.1 61.2,58 61.3,57.9 61.3,57.9 61.4,57.9 61.6,57.8 
		61.9,57.8 62,57.9 62,57.9 61.9,58.3 61.9,58.4 61.7,58.8 61.6,59.2 61.5,59.6 61.4,59.7 61.3,60 61.1,60 60.5,59.8 60.4,59.8 
		60.3,59.9 60.2,60.1 60.1,60.3 60,60.3 59.9,60.3 59.8,60.4 59.7,60.4 59.6,60.3 59.4,60.3 59.3,60.4 59,60.5 59,60.5 59,60.6 
		59,60.7 59,60.9 59,61.1 58.8,61.6 58.7,62 58.4,62.5 57.5,63.2 57.4,63.5 57.2,63.8 57.2,64.4 57.1,64.6 57,64.7 56.8,64.9 
		56.7,65 56.7,65.1 56.7,65.1 56.7,65.2 56.7,65.2 56.6,65.4 56.6,65.4 56.6,65.5 56.6,65.5 56.6,65.5 56.7,65.7 56.7,65.8 
		56.7,65.9 56.7,65.9 56.7,65.9 56.5,65.9 56.2,65.9 56,66 55.8,66.2 55.7,66.3 55.6,66.3 55.6,66.3 55.4,66.2 55.4,66.2 54.9,66.2 
		54.2,66.5 54,66.6 53.9,66.7 53.9,66.7 53.8,66.7 53.6,66.8 53.6,66.8 53.5,66.9 53.5,66.9 53.4,67 53.2,67.1 53.2,67.1 53.1,67.2 
		53,67.3 52.7,67.3 52.6,67.3 52.3,67.4 52.2,67.5 52.1,67.5 52.1,67.6 52.2,67.7 52.2,67.8 52.2,67.8 52.2,67.8 51.8,68 51.6,68.2 
		51.5,68.3 51.4,68.3 51,68.2 50.8,68.2 50.5,68.1 49.9,67.6 49.7,67.6 49.6,67.4 49.6,67.4 49.6,67.2 49.5,67.1 49.3,67 49.1,67 
		49,67.1 48.9,67 48.8,67.1 48.6,67.1 48.2,67.2 48.2,67.3 48.2,67.3 48.1,67.4 48.1,67.5 47.9,67.6 47.8,67.7 47.4,67.6 47.2,67.6 
		46.9,67.3 46.7,67.3 46.4,67.4 46.3,67.4 46.3,67.5 46.2,67.5 46.2,67.6 46.1,67.6 46,67.5 45.8,67.4 45.4,67.4 45.3,67.3 
		45.2,67.3 45.1,67.2 45,67 44.8,67 44.7,66.9 44.5,66.8 44.6,66.6 44.6,66.3 44.7,65.8 44.6,65.5 44.5,65.3 44.4,65.2 44.4,65 
		44.5,64.5 44.5,64.2 44.6,63.9 44.8,63.8 45,63.8 45.1,63.5 45.1,63.4 45,63.5 44.8,63.6 44.5,63.6 44.5,63.4 44.5,62.7 44.6,62.3 
		44.7,62.4 44.8,62.5 44.8,62.5 44.9,62.5 44.9,62.5 45,62.4 45.1,62.4 45.2,62.5 45.3,62.6 45.3,62.6 45.6,62.9 45.7,63.1 
		45.7,63.2 45.8,63.1 45.8,63.1 45.8,63 45.9,63 46,63 46,63.1 46.1,63.1 46.3,63.2 46.4,63.2 46.5,63.1 46.6,63.1 46.6,63 
		46.6,62.9 46.7,62.6 46.8,62.5 46.9,62.3 47,62.3 47,62.2 47.1,62.1 47.2,62 48.1,61.9 48.5,61.9 48.7,61.9 48.8,61.9 49.1,62.1 
		49.2,61.8 49.2,61.7 49.3,61.4 49.4,60.8 49.4,60.5 49.3,60.2 49.2,60.1 49.1,60 49,60 48.9,60 48.8,59.9 48.6,59.7 48.4,59.6 
		48.4,59.5 48.4,59.4 48.4,59.4 48.4,59.3 48.4,59.2 48.4,59.1 48.5,59 48.5,58.9 48.6,58.9 48.6,59 48.7,59 48.7,59 48.8,58.9 
		48.8,58.9 48.8,58.8 48.8,58.7 48.8,58.7 48.8,58.6 48.9,58.6 48.9,58.5 49,58.5 49.1,58.5 49.2,58.5 49.2,58.5 49.3,58.6 
		49.4,58.5 49.4,58.3 49.4,58.2 49.5,58.2 49.5,58.1 49.9,58.1 49.9,58 50,57.9 50,57.9 50.4,57.8 50.5,57.7 50.9,57.6 50.9,57.5 
		50.9,57.4 50.9,57.3 50.8,57 50.6,56.5 50.7,56.4 51.3,56.4 51.6,56.3 51.7,56.4 51.7,56.4 51.9,56.5 52,56.6 52,56.6 52.1,56.6 
		52.3,56.5 52.4,56.5 52.5,56.5 52.8,56.6 53,56.9 53.8,57.3 54.3,57.3 54.5,57.4 55.1,57.7 55.2,57.8 55.9,57.8 56,57.8 56.3,57.9 
		56.7,57.9 56.8,57.9 56.8,57.8 56.9,57.6 57.1,57.4 57.3,57.3 57.4,57.3 57.5,57.2 57.6,57.1 57.6,57.1 57.7,57 57.8,56.8 
		57.8,56.8 57.8,56.7 58.1,56.6 58.4,56.4 58.5,56.4 58.5,56.4 58.8,56.3 58.8,56.3 58.9,56.3 58.9,56.4 58.9,56.4 58.9,56.4 
		59,56.5 59,56.5 59.1,56.6 59.1,56.7 59.1,56.8 59.1,56.9 59.2,57 59.4,57.1 59.6,57.3 59.7,57.3 59.7,57.4 59.7,57.5 59.8,57.7 
		59.8,57.8 59.9,58 60,58.1 60.1,58.2 	"/>
	<polygon id="Aveiro" fill-rule="evenodd" clip-rule="evenodd" fill="#D0B0CE" stroke="#FFFFFF" stroke-width="0.25" points="
		50.9,23.9 51,23.9 51,23.8 51.1,23.7 51.1,23.7 51.2,23.6 51.3,23.6 51.3,23.6 51.3,23.7 51.3,23.7 51.3,23.7 51.3,23.8 51,24.2 
		51,24.4 50.9,24.5 50.9,24.6 51,24.7 51,25.1 51.1,25.3 51.1,25.4 51.1,25.5 51,25.5 50.9,25.5 50.8,25.5 50.7,25.5 50.7,25.4 
		50.5,25.4 50.4,25.5 50.3,25.5 50.2,25.5 50.1,25.5 49.8,25.5 49.9,25.9 49.9,26 49.8,26.1 49.6,26.5 49.4,26.8 49.2,26.9 
		49.1,27.1 49.1,27.1 49.1,27.2 49.1,27.3 49.1,27.4 49.3,27.5 49.3,27.6 49.4,27.7 49.4,28 49.4,28.2 49.5,28.2 49.6,28.3 
		49.8,28.4 49.4,28.6 49.4,28.7 49.3,28.7 49.3,28.8 49.4,29.1 49.5,29.3 49.5,29.4 49.6,29.5 49.6,29.5 49.8,29.7 49.2,29.9 
		49,30.1 49,30.2 49,30.3 49.1,30.4 49.1,30.6 49.1,30.7 48.8,31.1 48.8,31.5 48.8,31.6 48.8,31.7 48.7,31.8 48.5,31.8 48.4,31.8 
		48.3,31.9 48.3,32 48,32.3 48,32.4 47.9,32.5 47.8,32.6 47.3,32.5 47.2,32.4 47.2,32.3 47.2,32.2 47.2,32.1 47.3,31.9 47.4,31.8 
		47.4,31.8 47.5,31.8 47.5,31.7 47.5,31.7 47.6,31.5 47.6,31.4 47.6,31.3 47.4,31.1 47.4,30.9 47.3,30.9 47.1,31 47,31.1 46.9,31.1 
		46.8,31.1 46.8,31 46.7,30.8 46.7,30.7 46.8,30.4 46.4,30.1 46.2,30.4 46.2,30.6 46.1,30.8 45.8,30.7 44.8,29.6 44.7,29.6 
		44.8,29.5 44.9,28.9 45.1,28.2 45.1,28.1 45.1,28.1 45.1,28.3 45.1,28.4 45.3,28.1 45.5,28 45.6,28.1 45.7,28.1 45.7,28 45.6,28 
		45.6,27.9 45.6,27.8 45.6,27.8 45.7,27.7 45.7,27.7 45.8,27.8 45.8,27.8 45.9,27.8 46,27.7 46.1,27.5 46,27.4 45.9,27.3 45.9,27.1 
		46.1,27.1 46.3,27.1 46.5,27 46.6,26.9 46.8,26.7 46.6,26.8 46.4,26.9 46.2,26.9 46.1,26.9 46.1,26.9 45.9,26.8 45.8,26.7 
		45.7,26.4 46.1,25.9 46,25.6 46,25.8 45.9,26 45.8,26.1 45.8,25.9 45.7,26.1 45.6,26.5 45.5,26.8 45.5,27.1 45.4,27.3 45.3,27.6 
		45.2,27.9 45.1,28 46,23.8 46,23.5 46,23.5 46.1,23.5 46.5,23.4 46.6,23.5 46.9,23.4 47.1,23.3 47.2,23.3 47.3,23.3 47.4,23.4 
		47.5,23.5 47.6,23.5 47.7,23.4 47.7,23.3 47.8,23.2 47.9,23 48.1,23.2 48.2,23.3 48.2,23.4 48.4,23.6 48.5,23.6 48.5,23.5 
		48.5,23.4 48.5,23.3 48.4,23.3 48.5,23.2 48.7,23.1 48.9,23.2 49.3,22.8 49.4,22.8 49.4,22.7 50,23 50,23.1 50,23.2 50,23.3 
		50,23.6 50.7,23.9 	"/>
</g>
<path id="Azurs" fill="#C181B7" d="M32.1,50.5L32.1,50.5L32.1,50.5L32.1,50.5L32.1,50.5L32.1,50.5L32.1,50.5L32.1,50.5L32.1,50.5
	L32.1,50.5L32.1,50.5z M31.7,50.7L31.7,50.7L31.7,50.7L31.7,50.7L31.7,50.7z M30.7,44.6L30.7,44.6L30.7,44.6L30.7,44.6L30.7,44.6
	L30.7,44.6L30.7,44.6l0,0.1L30.7,44.6L30.7,44.6z M31.2,43.2L31.2,43.2L31.2,43.2L31.2,43.2L31,43.2l0,0l0,0.1l0,0l0,0l0,0v0l0,0
	l0,0l0,0l0,0L31.2,43.2L31.2,43.2L31.2,43.2L31.2,43.2L31.2,43.2z M30.3,44L30.3,44L30.3,44L30.3,44l-0.1,0l-0.1,0l0,0l0,0L30,43.9
	l0,0l-0.1,0l0,0l-0.1,0l0,0l0,0l0,0l-0.1,0l-0.1,0l-0.1,0l0,0l0,0l0,0l-0.1-0.1l0,0l0,0l0,0l0,0l0,0l-0.1,0.1l0,0l0,0l0,0l0,0l0,0
	l0.1,0.1l0.1,0.1l0.1,0.1l0.4,0.1l0.2,0l0.1,0l0.1,0l0-0.1l0,0l0.1-0.1L30.3,44L30.3,44L30.3,44L30.3,44L30.3,44L30.3,44z"/>
<path fill="#C181B7" d="M12.7,33.6L12.7,33.6L12.7,33.6L12.7,33.6L12.7,33.6L12.7,33.6l0,0.2l0,0l0.1,0L12.7,33.6L12.7,33.6
	L12.7,33.6z M12.7,34.2L12.7,34.2L12.7,34.2L12.7,34.2l-0.1-0.1l0,0l0,0l0,0l0,0l0,0l0,0l0,0.1l0,0l0,0l0,0l0,0l0,0l0,0.1l0,0l0,0
	l0,0l0,0l0,0l0,0l0,0l0-0.1l0-0.1L12.7,34.2L12.7,34.2z M18,36.6l-0.2-0.1l0,0l0,0.1l0,0l0,0l0,0l-0.1,0l-0.1,0l0,0l0.1,0.1l0,0
	l0.1,0.1l0,0l0,0l0.1,0l0,0l0.1,0l0,0l0,0l0,0l0,0l0,0l0,0l0,0l0.1,0l0,0L18,36.6L18,36.6z M19.2,35.5L19.2,35.5L19.2,35.5l0.1,0
	l0,0l0,0l0,0l0,0l0,0l-0.1-0.1l0,0l0,0l0,0l0,0l0,0l0,0l0,0.1L19.2,35.5L19.2,35.5L19.2,35.5z M25.6,41L25.6,41l-0.1-0.1l0,0l-0.1,0
	l-0.1,0l-0.1,0l0,0l0,0l0,0l0,0l0,0l0,0l0,0l0.1,0L25.6,41L25.6,41L25.6,41L25.6,41z M21.3,36.3L21.3,36.3L21.3,36.3L21.3,36.3
	l-0.1-0.2l-0.1-0.1l-0.1,0l-0.3,0l-0.1,0l-0.1,0l0,0.1l0,0.1l0,0.1l0,0.1l0.1,0l0,0l0.1,0l0.1,0l0.1,0l0,0l0,0l0,0l0.1,0l0.1,0
	l0.1,0l0,0l0,0l0,0L21.3,36.3L21.3,36.3L21.3,36.3L21.3,36.3L21.3,36.3L21.3,36.3z M25.3,38.9L25.3,38.9l0-0.2l-0.1-0.1l-0.1,0
	l-0.3,0l-0.2,0.1l0,0l0,0l0,0l0,0l0,0l-0.1,0l0,0l-0.3,0l0,0l0,0l0,0l0,0l0,0l-0.1-0.1l-0.1,0l-0.2,0l0,0.1l0.1,0.1l0.3,0.2l0.2,0
	l0.1,0l0.1,0l0.1,0l0,0l0,0l0.1,0l0.1,0l0.1,0L25.3,38.9L25.3,38.9z M19.2,37L19.2,37L18.9,37l0,0l0,0l0,0l0,0l0,0l-0.1,0l-0.2-0.1
	l-0.1,0l-0.1,0l-0.1,0l-0.1,0.1v0.1l0,0.1l0.1,0.1l0,0l0.3,0l0,0l0,0l0,0l0,0l0.1-0.1l0,0l0,0l0.2,0l0.1,0L19.2,37L19.2,37L19.2,37z
	 M19.7,36.7l-0.2-0.1l-0.3-0.2l-0.4-0.2l0,0l0,0l-0.1,0l0,0l0,0l0,0l0.1,0.1l0,0l0,0l0,0l0,0l0,0l0,0l0,0l0,0l0,0l0,0l0,0.1l0,0
	l0.2,0.1l0,0l0,0l0,0l0,0l0,0l0.1,0l0,0l0,0l0,0l0,0l0.1,0L19.7,36.7l0,0.1l0.1,0l0,0l0,0L19.7,36.7L19.7,36.7z"/>
<g>
	<rect x="-21.1" y="86.6" fill="none" width="128.6" height="38.1"/>
	<text transform="matrix(1 0 0 1 18.9873 95.9499)" fill="#818281" font-family="'ArialMT'" font-size="13px">Portugal</text>
</g>
<rect x="11.6" y="31.2" fill="none" stroke="#545554" stroke-width="0.15" width="21.6" height="20"/>
</svg>
