<?xml version="1.0" encoding="utf-8"?>
<!-- Generator: Adobe Illustrator 23.0.1, SVG Export Plug-In . SVG Version: 6.00 Build 0)  -->
<svg version="1.0" id="Countries" xmlns="http://www.w3.org/2000/svg" xmlns:xlink="http://www.w3.org/1999/xlink" x="0px" y="0px"
	 viewBox="0 0 87 130" enable-background="new 0 0 87 130" xml:space="preserve">
<circle fill="#DAF1F9" stroke="#FFFFFF" stroke-width="0.25" cx="44.3" cy="44.7" r="39"/>
<g id="Malaysia">
	<path fill="#9FD087" stroke="#F9F9FA" stroke-width="0.25" stroke-linecap="round" stroke-linejoin="round" d="M20.2,38.7
		L20.2,38.7L20.2,38.7L20.2,38.7l0.1-0.1l0,0l0,0l0,0l0,0l0-0.1l0,0l0,0l0,0.1L20.2,38.7L20.2,38.7z M22,44.1l-0.1-0.3l0-0.1l0-0.2
		l0-0.1l0-0.1l0-0.1l-0.1-0.6l0-0.2l0-0.1l0-0.1l0,0l0,0l-0.1-0.1l0,0l0-0.1l-0.2-0.4l-0.4-0.6l-0.1-0.3l-0.4-0.6l-0.3-0.4L20,39.6
		l-0.1,0l-0.2,0l-0.2-0.1L19,38.9l-0.1,0l0-0.1l0-0.1l-0.1-0.1l-0.1-0.1l-0.2-0.1l0,0l0,0l0,0l-0.1,0.2l-0.3,0.3L17.8,39l0,0
		l0.1,0.2l0,0l0,0l0,0l0,0.1l0,0.2l0,0l0,0l0,0l0,0l0,0.2l0,0.1l0,0l0,0l0,0l0,0l0.1,0.1l0.1,0.1l0,0l0,0l0,0.1l0,0.1l0,0l0,0.1
		l0,0.2l0,0.1l0,0l0,0l0,0l0,0.1l0,0l0,0l0,0l0.1,0l0,0l0,0l0,0l0,0l0,0l0,0l0,0l0,0l0,0l0,0l0.1,0.1l0,0l0,0l0,0l0,0l0,0l0,0l0,0
		l0,0l0,0l0,0l0,0l0,0l0,0l0,0l0,0l0,0l0,0l0,0l0,0l0,0.2l0,0l0,0l0,0l0,0l0,0l0,0l0,0l0,0v0l0,0v0l0,0l0,0l0,0.1l0,0.1l0,0l0,0.1
		l0,0l0,0l0,0l0,0l0,0l0,0l0,0l0,0l0,0l0,0l0.1,0l0.2,0.1l0,0l0,0l0,0l0,0l0,0.1l0,0l0,0l0,0l0,0l0,0.1l0,0l0,0.1l0.1,0.2l0,0l0.1,0
		l0.1,0.1l0,0l0.1,0l0,0l0,0l0.1,0l0.1,0l0.1,0l0.1,0l0.1,0.1l0,0l0,0l0,0l0,0l0,0l0,0l0,0l0,0l0,0l0,0.1l0,0l0,0l0,0l0,0l0,0l0,0
		l0,0l0,0l0,0l0,0l0,0l0,0l0,0.1l0,0l0,0l0,0l0,0l0,0l0,0l0,0l0,0l0,0l0,0l0,0l0,0l0,0l0,0l0,0l0,0l0,0l0,0l0,0l0,0l0,0l0,0l0,0l0,0
		l0,0l0,0l0,0l0,0l0.1,0.1l0,0l0,0l0,0l0,0l0,0l0,0l0,0l0,0.1l0,0.1l0,0l0,0l0,0.1l0,0l0,0l0,0l0,0l0,0l0,0l0,0l0,0l0,0l0,0l0,0l0,0
		l0,0.1l0,0l0,0l0,0l0,0v0l0,0.1l0,0.1l0,0.1l0,0l0,0.1l0,0l0,0l0,0.1l0,0v0l0,0.1l0,0l0,0l0,0l0,0l0,0l0,0l0.2-0.1l0.1,0l0,0l0,0
		l0,0l0,0l0.1,0l0,0l0,0l0,0l0,0l0.1,0l0,0l0,0l0,0l0,0l0,0l0,0l0,0l0,0l0,0l0,0l0,0l0,0l0,0l0.1,0.1l0,0h0l0,0l0,0l0,0l0,0l0,0l0,0
		l0,0l0,0l0,0l0,0l0,0l0,0l0,0l0,0l0,0l0,0.1l0,0l0,0l0,0l0,0l0.1,0.1l0,0l0,0l0,0l0,0l0,0l0,0l0,0l0,0l0,0l0,0.1l0,0l0,0l0,0l0,0
		l0,0l0,0l0-0.1l0,0l0,0l0,0l0,0l0,0l0,0l0,0l0,0l0,0l0,0l0,0l0,0l0-0.1l0-0.1l0,0l0,0l0,0l0,0v0l0,0l0,0l0,0l0,0l0,0l0,0l0,0l0,0
		l0,0l0,0l0,0l0,0l0,0l0,0l0,0l0,0l0,0l0-0.1l0,0l0,0l0,0l0,0l0,0l0,0l0,0l0,0l0,0l0-0.1l0,0l0-0.1l0,0l0,0l0,0l0,0l0,0l0,0l0,0l0,0
		l0,0l0.3,0l0.1,0l0,0l0,0l0,0l0,0l0-0.1l0,0l0,0l0.1-0.1l0,0l0,0l0.1-0.1l0,0L22,44.1z M19.2,38.2L19.2,38.2L19.2,38.2L19.2,38.2
		L19.2,38.2L19.2,38.2L19.2,38.2L19.2,38.2L19.2,38.2L19.2,38.2L19.2,38.2L19.2,38.2L19.2,38.2L19.2,38.2z"/>
	<path fill="#9FD087" stroke="#F9F9FA" stroke-width="0.25" stroke-linecap="round" stroke-linejoin="round" d="M13.5,49.3
		L13.5,49.3L13.5,49.3l0,0.2l0,0l0,0L13.5,49.3L13.5,49.3L13.5,49.3z M13.6,49L13.6,49l-0.1,0l0,0.1l0,0L13.6,49L13.6,49L13.6,49z
		 M16.2,49L16.2,49l0-0.1l0-0.1l0-0.1l0-0.1l0,0l0,0l0,0l0,0l0,0l0,0l0,0l0,0l0,0l0-0.1l0,0l0,0l0,0l0,0l0,0l0,0l0,0l0,0l0,0l-0.1,0
		l0,0l-0.1-0.1l0,0l0,0l0,0l-0.2-0.3l0-0.1l0-0.1l0,0l0,0l0-0.1l0,0l0,0l0,0l0,0l0,0l0,0l0,0l0,0l0,0l0.1-0.1l0,0l0,0l0,0l0,0l0,0
		l0,0l0,0l0-0.1l0,0l0-0.1l-0.1-0.1l0,0l0,0l0,0l0,0l0,0l0,0l0,0l0,0l-0.1-0.1l-0.1,0l0,0l0,0l0,0l0,0l-0.1,0l0,0l0,0l-0.1-0.2
		l-0.1,0l0,0l0,0l0,0l-0.1,0.2l-0.1,0.1l0,0l0,0l0,0l0,0l0,0l0,0l0,0l0,0l0,0l0,0l0,0l0,0l0,0l0,0l0,0l0,0l0,0l0,0l0,0l0,0l0,0l0,0
		l0,0l0,0l0,0l0,0l0,0l0,0l0,0l0,0l0,0l0,0l0,0l0,0l0,0l0,0l0,0l0,0l0,0l0,0l0,0l0,0l0,0l0,0l0,0l-0.1,0l0,0l0,0l0,0l0,0l0,0l0,0
		l0,0l0,0l0,0l0,0l0,0l0,0l0,0l0,0.1l0,0.1l0,0.1l0,0.1l-0.1,0l0,0l-0.1,0l-0.1,0l0,0l0,0l0,0l0,0l0,0l0,0l0,0l0,0v0l0,0l0,0v0l0,0
		l0,0l-0.1,0l0,0l0,0l0,0l0,0l0,0l0,0l0,0l0,0l0,0l0,0l0,0l0,0l0,0l0,0l0,0l0,0l0,0l0,0l0,0l0,0l0,0l0,0l0,0l0,0l0,0l0,0l0,0l0,0
		l0,0l0,0l0,0l0,0l0,0l0,0l0,0l0,0l0,0l0,0l0,0l0,0l0,0l0,0l0,0l0,0l0,0l0,0l0,0l0,0l0,0l0,0l0,0l0,0l0,0l0,0l0,0l0,0l0,0l0,0l0,0
		l0,0l0,0l0,0l0,0l0,0l0,0l0,0l0,0l0,0l0,0l0,0l0,0l0,0l0,0l0,0l0,0l0,0l0,0l0,0l0,0l0,0l0,0l0,0l0,0l0,0l0,0l0,0l0,0l0,0l0,0l0,0
		l0,0l0,0l0,0l0,0l0,0l0,0l0,0l0,0l0,0l0,0l0,0l0,0l0,0l0,0l0,0L12.4,46l0,0l0,0l0,0l0,0l0,0l0,0v0l0,0l0,0l0,0l0,0l-0.1,0l-0.1,0
		L12,46l0,0l0,0L11.9,46l0,0.1l0,0.1l0,0l0.2,0l0.1,0l0.1,0.1l0.1,0.1l0,0l0,0l0.1,0l0.3,0.2l0.1,0.1l0,0.1l0,0.2l0.1,0.1l0,0.1l0,0
		l0.1,0.1l0.2,0.2l0,0.1l0,0l0,0l0,0l0.1,0l0,0l0,0l0,0l0.1,0.1l0.1,0.1l0,0.1l0.1,0.5l0,0l0.1,0.1l0,0l0,0.2v0.1l0,0l-0.1,0l-0.1,0
		l-0.2,0.2l0,0.1l0.1,0l-0.1,0.2l0.1,0.1l0.2,0l0.2,0l0.1,0.1l0.2,0.3l0.1,0.1l0.1,0.1l0.1,0l0.1,0l0.1,0l0.2,0l0.1,0l0,0l0,0l0,0v0
		l0-0.1l0,0l0,0l0,0l0-0.1l0,0l0-0.1l0.1-0.2l0-0.2l0-0.2l0-0.1l0,0l0,0l0.1,0l0,0l0.1,0l0.1,0l0,0l0,0l0,0l0,0l0,0l0,0l0,0l0-0.1
		l0-0.1l0,0l0,0l0,0l0.1,0l0,0l0,0l0,0l0,0l0,0l0-0.1l0,0l0,0L16.2,49L16.2,49L16.2,49L16.2,49L16.2,49L16.2,49L16.2,49z M15.3,49.4
		L15.3,49.4l-0.1,0.1l0,0l-0.1,0l0,0l0,0l0,0l0,0l0,0l0,0l0,0l0,0l0,0l0,0l0-0.1l0,0l0,0l0,0l0,0l0,0l0,0l0,0l0.1,0l0,0l0,0l0,0
		l0,0.1l0,0L15.3,49.4L15.3,49.4z M15.4,48.5L15.4,48.5L15.4,48.5L15.4,48.5l0,0.1l0,0l0,0l0,0l0,0l0,0l0,0.1l0,0.1l0,0l0,0l0,0l0,0
		l0,0l0,0l0,0l0,0l0,0l0,0l0,0l0,0l0,0l0,0l0,0l0,0l-0.1,0l0,0l0,0l0,0l0,0l0,0l0,0l0,0l0,0l0,0l0,0l0,0l0,0l0,0l0,0l0,0l0,0l0,0
		l0,0l0,0l0,0l0,0l0,0l0,0l0,0l0,0l0,0l0,0l0,0l0,0l0,0l0-0.1l0,0l0.1-0.1l0,0l0,0l0,0l0,0l0,0l0,0l0,0l0,0l0,0l0,0l0.1,0l0,0l0,0
		l0,0l0,0l0,0l0,0l0,0l0,0L15.4,48.5L15.4,48.5L15.4,48.5L15.4,48.5L15.4,48.5z M13.6,49.2L13.6,49.2l0.1-0.1l0.1,0l0-0.1l0,0l0,0
		l0,0l0,0l-0.1,0L13.7,49L13.6,49.2L13.6,49.2L13.6,49.2L13.6,49.2L13.6,49.2L13.6,49.2z"/>
	<path fill="#9FD087" stroke="#F9F9FA" stroke-width="0.25" stroke-linecap="round" stroke-linejoin="round" d="M51.4,51l0,0.2
		l0,0.1l0.1,0l0,0l0.1,0.2l0,0l0,0l0,0l0,0l0,0l0,0l0,0l0,0l0,0l-0.1-0.2l0-0.3l0-0.7l0-0.2L51.6,50l-0.1,0L51.4,50l0,0.2l0.1,0.6
		L51.4,51z M67.9,44.1L67.9,44.1L67.8,44l0,0l0,0l0,0l-0.1,0l0,0l0,0l0,0l0,0l0-0.1l0-0.1l0,0l0,0l-0.1-0.1l0-0.1l0-0.3l0,0l0,0
		l0.1-0.2l0,0l0,0l0-0.1l0-0.1l0,0l0,0l0.1-0.1l0,0l0,0l0.1-0.2l0,0l0,0l-0.1-0.4l0,0l0,0l0,0l-0.1,0l-0.1,0l-0.2,0l-0.3,0l0,0
		l-0.1,0l0,0l-0.1,0.1l0,0l-0.1,0l-0.1,0l-0.1,0l0-0.1l0,0l0,0l0,0l-0.1,0l0,0l0,0l0-0.1l-0.1,0l0,0l0,0.1l0,0l-0.1,0l-0.1,0l0,0.1
		l0,0l0.1,0l0,0l0.1,0.1l0.2,0.7l0,0.1l0,0.1l0,0.1l0,0.1l0,0.2l0,0.1l0.1,0.1l0.1,0.1l0.1,0.1l0,0.1l-0.1,0.1l-0.1,0l-0.1,0l-0.1,0
		l0,0l-0.1,0l0,0l-0.1,0l0,0l-0.1,0L66,44l-0.2-0.1l0,0l0-0.1l0-0.4l0-0.1L65.5,43l0-0.1l0-0.3l0-0.3l0,0l0-0.1l0-0.1l0-0.1l0,0l0,0
		l0,0l0,0l-0.1,0.1l0,0.1l0,0.1l0,0.1l-0.1,0l-0.1,0l-0.1,0l-0.1,0l-0.1,0l-0.1,0l-0.1,0.1l-0.1,0l-0.1,0.1l0,0l0,0l0,0.1l0,0.1
		l0.1,0.1l0,0.1l0,0.1l0,0.4l0,0.1l0.1,0.1l0.1,0l0.1,0l0,0l0,0.1l0,0.1l0,0.1l0,0.1l-0.1,0.1l0,0l0,0l0,0.1l0.1,0l0,0.1l0,0.1
		l-0.1,0.1l0,0.1l0,0.2l0,0.1l-0.3,0.3l-0.2,0.1l-0.2,0l0,0l0-0.1l0,0l0,0L63.6,45l-0.2-0.2l-0.1-0.1l0-0.1l-0.1-0.2l0,0l-0.1,0
		l-0.2,0l-0.2,0l-0.1,0l0,0l0-0.1l0,0l0.1,0l0,0l0-0.2l-0.1-0.1v-0.1l0-0.1l0,0l0,0l0,0l0,0l0,0l0,0l-0.1,0l0,0l0-0.1l0,0l-0.1,0
		l-0.1-0.1l-0.1,0l-0.2,0l-0.2-0.1l-0.1,0l0,0.1l0.1,0.4l0,0.2l0,0.2L61.4,44l0,0.1l-0.1,0.2l-0.8,1l-0.9,0.8l-0.2,0.1l-0.1,0.1
		l0,0.1l0,0.1l0,0.1l-0.1,0.2l-0.2,0.2l0,0l0,0L59,47l0,0l0,0.1l0,0l0,0l-0.1,0.1l-0.3,0.3l-0.1,0.2l0,0l0,0L58.2,48L58.1,48l0,0
		l0,0.1L58,48.3l-0.2,0.2l-0.1,0.1L57,48.8l0,0l-0.2,0.1L56.2,49l-1,0.3l-1.1,0.3l-0.6,0l-0.7,0.1l-0.1,0.1L52.3,50L52,50.2l0,0
		l0,0.1l0,0.1l-0.1,0.2l0,0.1l0,0.1l0,0l0,0l0.1,0l0.1,0l0.1,0l0,0l0,0l0,0l0,0l-0.1,0.1l-0.1,0l-0.1,0l-0.1,0l0,0.1l0,0.2l0,0
		l0.1,0.1l0.1,0.1l0,0.1l-0.1,0l-0.1,0l0,0l-0.1,0l0,0l-0.1,0.1l0,0l0,0l0,0l0,0l0,0l-0.1-0.1l0,0l-0.1,0l0,0l0-0.1l-0.1,0.1l0,0.1
		l0,0.3l0,0.2l0,0.1l0,0l0.1,0l0.1,0l0,0.1l-0.1,0l-0.1,0L51,52.1l0,0.1l0,0.1l0,0l0.1,0l0.3,0l0.1,0l0.1,0.1l0,0l0,0l0-0.1l0,0l0,0
		l0,0l0,0l-0.1,0.1l0,0l-0.1,0l0,0l-0.1,0l-0.1,0l-0.1,0l-0.1,0l0,0.1l0.1,0.1l-0.1,0l-0.1,0l0,0l0,0l0,0.1L50.9,53l-0.1,0.2
		l-0.1,0.1l0,0.1l0,0.1l0,0l0.1,0l0,0l0,0l-0.1,0l0,0l0,0.1l0,0.1l0.1,0.1l0,0l0,0l0.1,0l0,0l0,0l0,0.1l0,0l0,0l0,0l0.1,0l0,0l0,0
		l0.1,0.1l0,0l0.1,0l-0.1,0l-0.1,0l-0.1,0l0,0l-0.1,0l-0.1-0.1l0-0.1l0-0.1l-0.1,0l-0.1,0l-0.2,0l0,0l0,0.1l-0.1,0.1l0,0l0,0.1l0,0
		l0.1,0.1l0.1,0.2l0.1,0.1l0.2,0.1l0.1,0l0.1,0.1l0.1,0l0.1,0l0.1,0l0.1-0.1l0,0l0.1,0l0.1,0l0.1,0l0,0l0,0.1l0,0l0.1,0l0.1,0l0.1,0
		l-0.2,0.1l-0.1-0.1l-0.1-0.1l-0.1,0l-0.1,0l-0.1,0.1l-0.1,0l0,0l-0.2-0.1L50.4,55l-0.3-0.3L50,54.6l-0.3-0.1l-0.2,0l-0.1,0.1l0,0.1
		l0,0.1l0,0.1l0,0.1l-0.1,0.1l-0.1,0l-0.1,0l-0.1,0v0l0.1-0.1l0.1-0.1l0-0.1l0-0.1l-0.1-0.1l-0.2-0.1l-0.2-0.1l-0.1,0l0,0l-0.1,0
		l0,0l0,0l0,0l0,0l0,0l-0.1,0l-0.1,0l-0.1,0l0,0l0.1-0.1l0,0l0-0.1l0-0.1l0-0.1l0-0.1l0-0.1l-0.1,0l-0.1,0l-0.1,0l0,0.1l0,0L48,54
		l0,0l0,0l0,0l0,0l0,0l0,0l0,0l0-0.1l0,0l0,0l0,0l0-0.1l-0.1,0l-0.1,0l0,0.1l0,0l0,0.1l0,0l0,0l0,0l0,0l0,0l0,0.1l0,0L47.5,54l0,0
		l0,0l0,0l0,0l-0.1,0l0,0l0,0L47.2,54l0,0l-0.5,0l-0.1,0l-0.1,0l0,0l-0.2,0l-0.1,0l0-0.1l-0.1-0.1l0-0.1l-0.1,0l-0.2-0.1l-0.1-0.1
		l-0.2-0.1l-0.1-0.1l-0.1-0.1l-0.1-0.2l0-0.1l0-0.1l0-0.1l0-0.1l0-0.1l0-0.2l0-0.1l0-0.1l0,0l-0.1,0.2L45,52.9L44.9,53l0,0l-0.1,0.1
		l0,0l0,0.1l0,0.1l0,0l0,0l0,0l0,0l0,0l0,0l0,0l0.2,0l0.1,0l0,0.1l0,0.3l0,0.2l0,0.1l0,0.1l0.1,0.1l0.3,0.3l0,0l0,0.1l0,0l0.1,0l0,0
		l0.1,0.2l0.1,0.1l0.1,0l0.1,0l0.1,0l0.1,0l0,0.1l0.1,0.2l0,0.1l0,0l0.1,0.1l0.1,0.1l0.1,0.1l0.1,0.1l0.1,0l0.2,0l0.1,0l0.1,0.1
		l0.1,0.2l0.2,0.3l0,0.1l0,0.1l0,0l0.1,0l0.1,0l0.2,0l0,0l0.1,0.1l0.2,0.2l0.1,0.1l0.2,0.1l0.2,0l0.2-0.1l0,0l0,0l0,0l0,0l0,0l0,0
		l0,0l0.1,0l0,0l0.1-0.1l0,0h0l0,0l0,0l0.1,0l0,0l0,0l0,0l0,0l0,0l0,0l0,0l0-0.1l0-0.1l0.2-0.2l0.1,0l0.1,0l0.2,0l0.8-0.2l0.1,0
		l0.5,0.2l0.1,0l0.1,0l0.1,0l0.1,0l0.1,0l0,0l0,0.1l0,0.1l0,0.1l0,0l0.1-0.1l0.3-0.1l0.1,0l0.1,0l0.1,0l0.2,0.1l0.1,0l0.2-0.1
		l0.3-0.4l0.2-0.1l0.3,0l0.1,0l0.1,0l0,0l0.2-0.6l0.1-0.2l0,0l0,0l0,0l-0.1,0l0,0l0-0.1l0.1-0.1l0.4-0.2l0.1,0l0.2,0l0.1,0l0.1,0
		l0.1-0.1l0.1,0l0.1,0l1.1,0.1l0.1,0l0,0l0,0l0,0l0,0l0,0l0.1,0l0.1,0l0.1,0l0.1,0l0.2,0l0.1,0l0.1,0l0.1,0l0,0.1l0,0.1l0,0.1l0,0.1
		l-0.1,0.1L57.6,55l0,0l0,0l0.1,0l0.1,0l0.1,0l0.1,0l0.1,0.1l0.1,0.1l0.1,0l0.2,0l0.2,0l0.2,0.1l0.3,0.2l0.2,0l0.1-0.1l0.1,0l0.1,0
		l0.1,0l0.2,0.2l0.1,0.1l0.1,0l0.6-0.4l0.2-0.3l0.1-0.1l0.1,0l0.5-0.1l0.2,0l0.1,0l0,0l0,0l0,0l0,0l0,0l0.1-0.1l0,0l0.6-0.2l0.1,0
		l0.1,0l0.1,0l0.3,0.2l0.1,0l0.1,0l0.1-0.1l0-0.1l0-0.1l0-0.1v-0.1l0-0.1l0.1-0.1l0.1-0.1l0.1-0.2l0.1-0.2l0-0.3l0-0.1l0,0l0,0l0,0
		l0,0l0,0l0,0l0,0l0,0l0.2,0l0.2-0.1l0,0l0-0.1l0-0.1V53l0-0.1l0-0.1l0,0l0-0.1l0,0l0,0l-0.1,0l-0.1,0l0,0l0-0.1l0,0l0-0.1l0,0
		l0-0.1l0,0l0-0.1l0-0.2l0.1-0.1l0.1-0.1l0.3,0l0.1,0l0,0l0-0.1l0-0.1l0-0.1l0,0l0.1,0l0.1,0l0.2-0.1l0.1,0l0.1,0l0.1-0.2l0.1-0.1
		l0.2,0l0.1,0l0.1-0.1l0-0.1l0-0.1L66,50.7l-0.1-0.1l0,0l0,0l0,0l0,0l0,0l-0.1,0l0,0l-0.1-0.1l0-0.1l0-0.1l0-0.1l0,0l0-0.1l0,0l0,0
		l0,0l0,0l0,0l0-0.1l0-0.1l-0.1-0.1l0-0.1l0,0l0,0l0.1,0l0,0l0,0l0,0l0,0l0-0.1l0.1-0.1l0.2-0.1l0,0l0.1-0.1l0.1-0.1l0.1,0l0.1,0.1
		l0.1,0.1l0.1,0l0.2-0.1l0.2,0l0.1,0l0-0.1l0-0.2l0-0.1l0.1-0.2l0,0l-0.1,0l-0.1-0.1l0-0.1l0.1-0.6l0.1-0.2l0.1-0.1l0,0l0,0l0,0l0,0
		l0,0l0,0l0-0.1l-0.1-0.1l0,0l0,0l0-0.1l0,0l-0.1-0.2l0-0.1l0-0.1l0-0.1l0.1-0.4l0-0.1l-0.1-0.1l-0.1,0l-0.1-0.1l0-0.1l0,0l0.1-0.1
		l0,0l0.1-0.1l0-0.2l0-0.3l0-0.1l0,0l0,0l0,0l0-0.1l0-0.1l0-0.1l0,0l0.1-0.1l0,0L67.9,44.1L67.9,44.1L67.9,44.1z"/>
	<path fill="#9FD087" stroke="#F9F9FA" stroke-width="0.25" stroke-linecap="round" stroke-linejoin="round" d="M76.7,37.4
		L76.7,37.4L76.7,37.4L76.7,37.4L76.7,37.4L76.7,37.4L76.7,37.4z M76.9,36.9L76.9,36.9L76.9,36.9L76.9,36.9L76.9,36.9z M76.9,37.2
		L76.9,37.2L76.9,37.2L76.9,37.2z M76.8,37.3L76.8,37.3L76.8,37.3L76.8,37.3z M76.7,37.3L76.7,37.3L76.7,37.3L76.7,37.3L76.7,37.3z
		 M80.9,39.9L80.9,39.9L80.9,39.9l0.1-0.1l0,0L80.9,39.9L80.9,39.9L80.9,39.9L80.9,39.9L80.9,39.9z M78.3,34.1L78.3,34.1l0.2,0
		l0.1,0l0.1,0l0,0l0-0.1l0,0l0.1,0l0,0l0-0.1l0,0l-0.1,0l0,0l0,0l0,0l-0.1,0l-0.1,0l0,0l0,0L78.3,34.1L78.3,34.1z M76.7,36.7
		L76.7,36.7L76.7,36.7L76.7,36.7L76.7,36.7L76.7,36.7z M77.3,38.5L77.3,38.5L77.3,38.5L77.3,38.5l0.2,0l0,0l0,0l0,0l0,0l-0.1,0
		l-0.1,0l0,0L77.3,38.5L77.3,38.5L77.3,38.5L77.3,38.5z M77,37.2L77,37.2L77,37.2L77,37.2L77,37.2L77,37.2L77,37.2L77,37.2L77,37.2z
		 M76.9,36.7L76.9,36.7L76.9,36.7L76.9,36.7L76.9,36.7z M79.5,43L79.5,43L79.5,43L79.5,43L79.5,43l-0.1,0l0,0l-0.1,0l0,0.1l0,0l0,0
		L79.5,43L79.5,43L79.5,43L79.5,43L79.5,43L79.5,43z M81.5,40.4L81.5,40.4l0-0.1l0,0l-0.1-0.1L81.2,40l-0.1-0.1l-0.1,0l-0.1,0
		l-0.3,0.1l-0.1,0L80.4,40l-0.1,0l0,0l0,0l0,0l0,0.1l0,0l-0.1,0l-0.1,0l0,0l0.1,0l0-0.1l-0.1-0.1l-0.1,0l-0.1,0l-0.2-0.1l0,0l0,0
		l0,0l0,0l0-0.1l0-0.1l-0.1,0l-0.1,0l-0.1,0l-0.1-0.1l-0.2-0.2l-0.1-0.1l-0.1,0l-0.1,0.1l0,0l0,0.1l0,0l0,0l0,0l0,0.1h0l0-0.1l0-0.1
		l0-0.1l0-0.2l0,0l0,0l0,0l0,0l0,0l-0.1,0l-0.1,0l-0.1,0l-0.1-0.1l-0.4-0.2l-0.1,0l0,0l0,0l0,0l0,0l0,0l0,0l0,0l-0.2-0.1l-0.1,0
		l-0.2,0.1l-0.2,0l-0.1,0l0,0l0,0.1l0,0l0,0l0,0l0,0.1l0,0l0,0l0,0l0,0l0,0l0-0.1l0,0l0,0l0,0l0,0l0,0l0,0l0,0l-0.1,0L76.6,39
		l-0.1,0l0,0l0,0l0,0l0,0l-0.1-0.3l0,0l0,0l0,0l0,0l0.1,0l0.2,0l0.1,0l0.1,0l0.1,0l0.1,0l0.1,0l0.1-0.1l0,0l0,0l-0.2-0.2l0-0.1
		l0-0.1l0,0l-0.1,0l0,0l0,0l0,0l-0.1-0.1l-0.1,0l0,0l0,0l-0.1,0l-0.1,0.2l-0.1,0.1l-0.1,0l0,0l0,0L76,38L76,38l-0.1,0l0,0l0,0l0,0
		l0,0.1l0,0l-0.1,0l-0.2,0l-0.3,0l-0.3,0l-0.1,0l-0.2,0.1l-0.1,0l0.1-0.1l0.5-0.2l0.1-0.1l0.1-0.1l0-0.1l0-0.1l-0.1,0l-0.1,0l0-0.1
		l0,0l0,0l0,0l0,0l0,0l0,0l0,0l0,0l0,0l-0.1,0l-0.1-0.1l-0.1-0.1l0-0.1l0-0.1l0.1-0.1l0.1,0l0.1,0l0.1,0l0.1,0l0-0.1l0-0.2l0-0.1
		l0,0l0,0l0,0l0,0l0-0.1l0,0l0,0l0,0l0,0l0,0l0,0l0,0l0,0l0,0h0l0-0.1l0-0.1l-0.1-0.1l0,0l0,0l-0.1,0l0,0l0,0l-0.1-0.1l0,0l0,0l0,0
		l0,0l0,0l0,0l0,0l-0.1-0.1l0,0l0-0.1l0-0.1l0,0l-0.1,0.1l-0.1,0.1l0,0l-0.1,0l-0.1,0l-0.1,0l-0.1-0.1l-0.1-0.1l-0.1,0l-0.1,0
		l-0.2,0l0,0l0-0.1l0-0.1l0-0.2l0-0.1l-0.1-0.2l0-0.1l0-0.1l0-0.1l0.1,0l0,0l0-0.2l0-0.1l0,0l0,0l-0.2-0.1l0,0l0,0l-0.1,0l0,0l0,0
		l-0.1,0l0,0l0,0l0,0l0,0l0,0l0,0l0,0l0,0l0,0l0,0l0,0l0,0l0,0l0,0l0,0l0,0l0,0l0,0.1l0.1,0.2l0,0.1l0,0.1l-0.1,0.1l-0.1,0.1l0,0
		l0,0l0,0l0,0.1l0,0l-0.1,0.1l-0.2,0.2l-0.1,0l0,0l0,0.1l-0.1,0.1l-0.1,0l-0.2,0l0-0.1l0.1-0.2l0.1-0.1l0.1-0.2l0-0.1l0-0.1l0-0.1
		l-0.1,0l-0.1,0l0,0l0,0l0-0.1l0,0l0,0l0.1,0l-0.1-0.3l0,0l-0.2-0.1l0-0.1l0,0l0,0l0,0l0,0l0,0l0,0.1l0,0l0,0l0,0l0,0.1l0,0.1l0,0.1
		l-0.1,0.1l0,0.1l0,0.1l0,0l0,0.1l0,0l0,0l0,0.1l0,0.1l0,0.1l0,0.1l-0.1,0.1l-0.2,0.3l-0.1,0.1l-0.1,0l0,0.1l0,0.1l0,0.1l0,0.1
		l-0.1,0l-0.1,0l-0.1,0.1l-0.1,0.1l-0.3,0.3l0,0l0,0l0,0l0,0.1l0,0l0,0l0,0l-0.1,0l0,0l0,0l-0.1,0.1L70,36.8v0l0.1,0l0.1,0l0,0
		l0,0.1l0,0l0,0l-0.1,0l0,0l-0.1,0l0,0L69.9,37l-0.2,0.3l-0.1,0l-0.1,0l0,0.1l0,0l0.1,0l0.1,0.1l-0.1,0.2l-0.2,0.4l0,0.1l0,0.2
		l0,0.1l-0.1,0.1l-0.3,0.2l-0.1,0l0,0.1l0,0.1l0,0.2l0,0.2l-0.1,0.2l-0.1,0.1l-0.1,0.1l-0.1,0l-0.1,0l-0.3,0l-0.1,0l-0.1-0.1l0,0
		l0,0.1l0,0l-0.1-0.1l0.1-0.2l-0.1-0.1l-0.1,0.1l-0.1,0.3l-0.3,0.2l0,0.1l0,0.1L66.9,40l0,0l0,0l0,0l0,0l0,0.1l0,0.1l0,0.1l0,0
		l0.1-0.1l0,0l0,0l0,0l0,0l0,0l0.3,0.3l0.1,0.1l0.1,0l0.1-0.1l0,0.1l0,0l0,0l0,0l0,0.1l0,0l0,0.1l0,0.2l0,0.1l0,0l-0.1,0l-0.1,0
		l-0.1,0l0,0L67,41.6l-0.1,0.1l0,0l0.3,0l0.2,0l0.1,0l0.1,0l0,0l0,0l0,0l0.1,0.4l0,0l0,0l-0.1,0.2l0,0l0,0l-0.1,0.1l0,0l0,0l0,0.1
		l0,0.1l0,0l0,0l-0.1,0.2l0,0l0,0l0,0.3l0,0.1l0.1,0.1l0,0l0,0l0,0.1l0,0.1l0,0l0,0l0,0l0,0l0.1,0l0,0l0,0l0,0l0.1,0.1l0,0l0,0l0,0
		l0,0.1l0,0l-0.1,0.1l0,0l0,0.1l0,0.1l0,0.1l0,0l0,0l0,0l0-0.1l0,0l0.1,0l0,0l0,0l0.2-0.1l0,0l0,0l0,0l0.1,0l0,0l0,0l0.1-0.1l0-0.1
		l0-0.1l0-0.1l0,0l0,0l0,0l0,0.1l0,0.1l0.1,0l0.2,0l0.1,0l0,0l0,0l0,0.1l0,0.1l0,0l0.1,0l0,0l0.2-0.2l0.1,0l0,0l0,0l0-0.1l0,0l0,0
		l0.1,0l0.2,0l0.1,0l0.1,0l0.1-0.1l0.1,0l0.1,0.1l0,0l0,0l0,0l0,0l0,0l0.1,0.2l0,0l0,0l0,0l0.1-0.1l0,0l0,0l0.1,0l0,0l0,0l0,0l0,0
		l0-0.1l0.1-0.1l0,0l0,0l0.2,0.2l0.1,0l0.1,0l0.1,0l0.1,0l0.1,0l0.1-0.1l0.1,0l0.1,0.1l0.1,0l0.3-0.1l0.2,0l0.2,0.1l0.7,0l0,0
		l0.1-0.1l0,0l0.1,0l0,0l0,0l0,0l0.1,0.1l0.3,0.2l0.2,0.2l0.1,0.1l0.1,0l0.1,0l0.1,0l0.1,0l0.1,0l0,0l0.2-0.1l0,0l0,0l0,0l-0.1-0.1
		l0,0l0,0l0,0l0,0l0,0l0.1-0.1l0,0l0,0l0,0l-0.1-0.1l0,0V44l0,0l-0.1,0l0,0l0,0l0.1-0.1l0.1-0.1l0.1,0l0.1,0.1l0,0.1l0,0.1l0.1,0.1
		l0,0l0.1,0l0.1,0l0.1,0l0,0l0,0.1l0,0l0,0l0,0l0.1,0l0.1,0.1l0,0l0.1,0l0.2,0.1l0.1,0l0.5-0.3l0.1,0l0.3,0l0.3-0.1l0,0l0-0.1l0.1,0
		l0.1,0l0.2,0l0.1,0l0.1,0l0.1,0l0.1,0l0.1,0l0.1,0l0,0l0,0l0-0.1l0-0.1l0.1,0l0,0l0,0l0,0l0,0l0,0l-0.1-0.2l0-0.1l0-0.1l0,0l-0.1,0
		l0,0l-0.1,0.1l-0.1,0l0,0l0,0l0,0l0,0l0,0l0,0l0,0l0,0l0-0.1l-0.1,0l-0.1,0l-0.1,0l0,0.1l-0.1,0l0,0l0,0l0,0l0-0.1l0,0l0,0l-0.1,0
		l0,0l0,0l0,0l0,0l-0.1-0.1l-0.1-0.1l-0.1-0.1l-0.1-0.1l0-0.1l0,0l0,0l-0.1-0.1l0,0l0,0l0,0l0,0l0,0l0.1,0l0.2-0.2l0.1-0.1l0.1,0
		l0,0l0,0l0,0l0,0l0.1-0.1l0.1-0.1l0,0l0,0l0.1,0l0.1,0.1l0.1,0.2l0.1,0.1l0,0l0,0l0,0l0.1,0l0.1-0.1l0,0l0,0l0.1,0l0.1,0l0.1,0.1
		l0.1,0l0.1,0l0.1,0l0.1,0l0.1-0.1l0.7-0.2l0.7-0.2l0.1-0.1l0.2-0.2l0.1-0.1l0-0.1l0-0.2l0-0.1L81.5,40.4z M77.8,41.7L77.8,41.7
		L77.8,41.7L77.8,41.7L77.8,41.7L77.8,41.7l0,0.1L77.8,41.7L77.8,41.7l0.2,0l0,0l0,0l-0.1,0l0,0l0,0l0,0l0,0l0,0l0,0l0,0l0,0
		L77.8,41.7L77.8,41.7L77.8,41.7L77.8,41.7L77.8,41.7L77.8,41.7L77.8,41.7L77.8,41.7L77.8,41.7L77.8,41.7z M74.2,35.4L74.2,35.4
		l0.2,0l0.1,0l0.1,0l0.1-0.1l0-0.1l-0.1-0.1l-0.1-0.1l-0.1,0l-0.2,0l0,0l0,0.1l0.1,0l0,0l0,0.1l0,0l-0.1,0l-0.2,0l0,0L74.2,35.4
		L74.2,35.4L74.2,35.4L74.2,35.4z M76.5,38.6L76.5,38.6L76.5,38.6L76.5,38.6l-0.1,0l0,0h0l0,0l0.1,0L76.5,38.6L76.5,38.6l0,0.2
		l0.1,0l0,0l0,0l0,0l0,0l0,0l0,0l0,0l0,0l0,0l0,0l0,0l0,0l0,0l0,0l0,0L76.5,38.6l0.1,0L76.5,38.6L76.5,38.6L76.5,38.6L76.5,38.6
		L76.5,38.6L76.5,38.6L76.5,38.6L76.5,38.6L76.5,38.6L76.5,38.6L76.5,38.6L76.5,38.6L76.5,38.6L76.5,38.6z M75.4,38L75.4,38L75.4,38
		L75.4,38l0.1,0l0,0l0,0l0,0l0,0l0,0l0,0l0,0l0,0l0,0l0,0l0,0l0,0l0,0l0,0l0,0l0,0l0,0l0,0l0,0L75.4,38L75.4,38z M78.8,43L78.8,43
		L78.8,43L78.8,43l-0.1-0.1l-0.1,0l-0.1,0.1l-0.1,0l0-0.1l0-0.1l-0.1,0l0,0l0,0l0,0l0,0h-0.3v0l0.3,0.1l0.1,0l0,0l0,0l0,0l0.1,0
		l0.1,0l0.1,0l0.1,0l0,0l0,0l0,0l0,0l0,0l0.1,0.1L78.8,43L78.8,43L78.8,43z M79.4,43.5l-0.2,0l-0.1,0h0l0,0l0,0l0,0l0,0l0,0l0,0
		l0,0.1v0l0,0l0,0l0.1-0.1h0.1l0.1,0l0-0.1L79.4,43.5L79.4,43.5z M73.1,33.7L73.1,33.7L73.1,33.7l0.1-0.1l0,0l0,0l0.1,0l0,0l0,0
		l0.2,0l0.1,0l0.1,0l0.1-0.1l0-0.1l0-0.3l0-0.1l0-0.1l-0.1,0l-0.3,0l-0.1,0l0,0l-0.1,0.1l-0.1,0.1l0,0l-0.1,0l0,0l0,0l0,0.2l0,0
		l0,0.1L73.1,33.7L73.1,33.7z M72.4,33.3L72.4,33.3L72.4,33.3l0.1-0.1L72.4,33.3l0.1-0.1l0,0l0.4-0.1l0-0.1l0-0.1l0.1,0l0.1,0.1
		l0-0.1l0-0.1l0-0.1l-0.1,0l-0.2,0.2l-0.1,0l-0.1,0l-0.1,0L72.4,33.3L72.4,33.3L72.4,33.3z M76.3,44.7L76.3,44.7l-0.2-0.1l-0.1,0
		l0,0l0,0l0,0l-0.1-0.1l0,0l0,0l-0.1,0l-0.1,0l-0.1,0l-0.1,0l-0.1,0l-0.1,0l0,0l0,0l0.2,0.2l0,0l0.1,0h0.4L76.3,44.7L76.3,44.7
		L76.3,44.7z M66.2,40.1L66.2,40.1l-0.2,0.1l0,0l-0.1,0.3l0,0.1l0.1-0.1l0.1-0.1l0,0l0.1,0l0,0l0.1-0.1l0-0.1L66.2,40.1L66.2,40.1z"
		/>
	<polygon fill="#9FD087" stroke="#F9F9FA" stroke-width="0.25" stroke-linecap="round" stroke-linejoin="round" points="15.3,49.3 
		15.3,49.3 15.3,49.3 15.2,49.2 15.2,49.2 15.2,49.2 15.2,49.2 15.1,49.2 15.1,49.3 15.1,49.3 15.1,49.3 15.1,49.3 15.1,49.3 
		15.1,49.3 15.1,49.4 15.1,49.4 15.1,49.4 15.1,49.5 15.1,49.5 15.1,49.5 15.1,49.5 15.1,49.5 15.1,49.6 15.1,49.6 15.1,49.6 
		15.2,49.6 15.2,49.5 15.2,49.5 15.2,49.5 15.3,49.4 	"/>
	
		<polygon fill-rule="evenodd" clip-rule="evenodd" fill="#9FD087" stroke="#F9F9FA" stroke-width="0.25" stroke-linecap="round" stroke-linejoin="round" points="
		10.1,35.8 10,35.8 10,35.7 9.9,35.3 9.8,35.2 9.8,35.2 9.7,35.2 9.7,35.2 9.7,35.3 9.7,35.3 9.6,35.3 9.6,35.2 9.5,35.2 9.5,35.2 
		9.5,35.2 9.4,35.2 9.4,35.2 9.4,35.3 9.4,35.4 9.4,35.5 9.4,35.6 9.4,35.7 9.4,35.7 9.4,35.8 9.4,35.8 9.3,35.8 9.3,35.9 9.4,35.9 
		9.4,36 9.3,36 9.3,36.1 9.3,36.2 9.3,36.3 9.3,36.4 9.4,36.6 9.5,36.8 9.5,36.9 9.5,36.9 9.6,36.8 9.6,36.8 9.6,36.8 9.6,36.7 
		9.6,36.7 10,36.3 10.1,36.2 10.1,36.2 10.2,36.2 10.2,36.1 10.2,36 10.2,35.9 10.2,35.9 10.2,35.9 	"/>
	<path fill="#9FD087" stroke="#F9F9FA" stroke-width="0.25" stroke-linecap="round" stroke-linejoin="round" d="M11,44.6L11,44.6
		l0-0.1l0,0l0,0l0,0l0,0l0,0l0,0l0,0l0,0l0,0l0,0l0,0l0,0l0,0L11,44.6L11,44.6L11,44.6L11,44.6L11,44.6L11,44.6z M15.4,39.8
		L15.4,39.8L15.4,39.8L15.4,39.8L15.4,39.8L15.4,39.8L15.4,39.8l-0.1-0.1l0,0l0,0l0,0l0,0l0,0l0,0l0,0l0,0l0,0l0,0l0,0l0,0l0,0l0,0
		l0,0l0-0.1l0-0.1l0,0l0,0l0,0l0,0l0,0l0,0l0,0l0,0l0,0l0,0l0,0l0,0l0,0l0,0l0,0l0,0l0,0l0,0l0,0l0,0l0,0l0-0.1l0-0.2l0,0l0,0l0,0
		l-0.1,0L15,38.7l-0.1-0.2l0,0l0,0l0,0l0,0l0,0l0,0l0,0l0,0l-0.1-0.1l-0.1,0l-0.1,0l-0.1,0.1L14,38.4l-0.1,0.1l-0.1,0.1l-0.1,0
		l-0.1,0.1l0,0.2l0,0.1l0,0.1l0,0.1l-0.1,0.1l-0.2,0.1l-0.1,0l-0.1,0l0-0.1L12.9,39l-0.1-0.1l-0.1-0.1l0,0l-0.1,0l0,0l0,0l0-0.1l0,0
		l0,0l0,0l0,0l0,0l0,0l0,0.1l0,0l0,0l0,0l0,0l0,0l0,0l0,0l0,0l0,0l-0.1,0.2l0,0l0,0l0,0l0,0l0,0l0,0l0,0l0,0l0,0l0,0l0,0l0,0l0,0
		l0,0l0,0l0,0l0,0v0l0,0.1v0l0,0l0,0l0,0.1l0,0l0,0l0,0l0,0l0,0l0,0l0,0l0,0l0,0l0,0l0,0.1l0,0.1l0,0l0,0l0,0l0,0.1l0,0l0,0l0,0
		l0,0.1l0,0l0,0l-0.1,0l-0.1,0l0,0l0,0.1l0,0l0,0l0,0l0,0l-0.1,0.1l0,0l0,0l0,0.1l0,0.1l0,0l0,0l0,0l-0.3,0.2l0,0l0,0.1l0,0l0,0
		l-0.1,0L11,41.3l0,0l0,0l0,0l0,0l0,0l0,0l0,0l0,0l0,0l0,0l0-0.1l0,0l0,0l-0.3,0.1l0,0l0,0l0,0l0,0l0,0l0,0l0,0l0,0l0,0l0,0.1l0,0.1
		l0.1,0.1l0,0.1l0.1,0.1l0,0.1l0,0.1l0,0l0,0.1l0,0l0,0l0,0l0,0l0,0l0,0l0,0l0,0.1l0,0l0,0l0,0l0,0l0.1,0l0,0l0,0l0,0.1l0,0l0,0l0,0
		v0l0,0.1l0,0.1l0,0.1l0,0l0,0l0,0l0.1,0l0,0l0,0.1l0.1,0l0,0v0l-0.1,0l0,0l0,0.2l0,0.1l0.1,0l0.1,0l0.1,0l0,0l0,0l0,0l0,0.1l-0.1,0
		l0,0l0,0.1l0,0.1l0,0.1l0.1,0l0.1,0l0.1,0l0,0.1l-0.1,0.2l0,0.1l0,0.1L11,43.8l0,0l0,0.1l0,0.1l0,0.1l0,0.1l0,0l0,0l0,0l0,0.1
		l0,0.1l0,0l0.1,0l0,0l0,0.1l0,0.1l0,0.1l0.1-0.1l0.1,0l0.1,0.1l0.1,0.1l0.2,0.1l0,0.1l0,0.1l0,0.1l0,0.1l0.1,0l0,0l0.1,0l0.1,0
		l0,0.1l-0.1,0l-0.1,0l-0.1,0l-0.1,0.1l-0.1,0l-0.2,0l0,0l0,0.1l0,0.2l0,0.1l0,0.1l0,0.1l0.1,0l0.1,0l0.1,0l0,0l0,0l0,0l0.1,0l0,0
		l0,0l0,0l0,0l0,0l0.1,0l0.1,0l0.1,0l0,0l0,0l0,0l0,0v0l0,0l0,0l0,0l0,0l0,0l0,0l0.1,0.1l0,0l0,0l0,0l0,0l0,0l0,0l0,0l0,0l0,0l0,0
		l0,0l0,0l0,0l0,0l0,0l0,0l0,0l0,0l0,0l0,0l0,0l0,0l0,0l0,0l0,0l0,0l0,0l0,0l0,0l0,0l0,0l0,0l0,0l0,0l0,0l0,0l0,0l0,0l0,0l0,0l0,0
		l0,0l0,0l0,0l0,0l0,0l0,0l0,0l0,0l0,0l0,0l0,0l0,0l0,0l0,0l0,0l0,0l0,0l0,0l0,0l0,0l0,0l0,0l0,0l0,0l0,0l0,0l0,0l0,0l0,0l0,0l0,0
		l0,0l0,0l0,0l0,0l0,0l0,0l0,0l0,0l0,0l0,0l0,0l0,0l0,0l0,0l0,0l0,0l0,0l0,0l0,0l0,0l0,0l0,0l0,0l0,0l0,0l0,0l0,0l0,0l0,0l0,0l0,0
		l0,0l0,0l0.1,0l0,0l0,0v0l0,0l0,0v0l0,0l0,0l0,0l0,0l0,0l0,0l0,0l0,0l0.1,0l0.1,0l0,0l0.1,0l0-0.1l0-0.1l0-0.1l0-0.1l0,0l0,0l0,0
		l0,0l0,0l0,0l0,0l0,0l0,0l0,0l0,0l0,0l0,0l0.1,0l0,0l0,0l0,0l0,0l0,0l0,0l0,0l0,0l0,0l0,0l0,0l0,0l0,0l0,0l0,0l0,0l0,0l0,0l0,0l0,0
		l0,0l0,0l0,0l0,0l0,0l0,0l0,0l0,0l0,0l0,0l0,0l0,0l0,0l0,0l0,0l0,0l0,0l0,0l0,0l0,0l0,0l0,0l0,0l0,0l0,0l0.1-0.1l0.1-0.2l0,0l0,0
		l0,0l0.1,0l0-0.1l0,0l0,0l0,0l0,0l0,0l0-0.2l0,0l0,0l0,0l0,0l0,0l0-0.1l0-0.3l0,0l0,0l0,0l0,0l0-0.1l0.1-0.2l-0.1-0.1l0,0l0,0l0,0
		l0,0l0,0l0,0l0,0l0,0l0,0l0-0.1l0,0l0,0l0,0l0,0l0,0l0,0l0,0l0,0l-0.1,0l0,0l0,0l0,0l0,0l0,0l0,0l0,0l0,0l0,0l0,0l0,0l0,0l0-0.2
		l0,0l0,0l0,0l0,0l0,0l0,0l0,0l0,0l0,0l0,0l0,0l0,0l0,0l0,0l0,0l0,0l0,0L14,43.9l0,0l0,0l0,0l0-0.1l0,0l0-0.1l0,0l0,0l0,0l0,0l0,0
		l0-0.1l0,0l0,0l0,0l0,0l0,0l0,0l0,0l0,0l0,0l0-0.1l0,0l0-0.1l0.1-0.1l0-0.1l0-0.1l-0.1-0.1l0-0.1l0,0l0,0l0,0l0,0l0,0l0,0l0,0l0,0
		l0,0l0,0l0,0l0,0l0,0l0,0l0,0l0,0l0,0l0,0l0,0l0,0l0,0l0,0l0,0l0,0l0,0l0,0l0,0l0,0l0,0l0-0.1l0,0l0,0l0,0l0,0l0,0l0,0l0,0l0,0l0,0
		l0,0l0,0l0-0.1l0,0l0,0l0-0.2l0,0l0,0l0-0.1l0.1,0l0,0l0,0l0,0l0,0l0,0l0,0l0,0l0,0l0-0.1l0,0l0,0l0,0l0-0.1l0,0l0,0l0,0l0,0l0,0
		l0,0l0,0l0,0v0l0,0l0,0l0,0l0,0l0,0l0-0.1l0,0l0,0l0.1-0.1l0,0l0,0l0-0.1l0,0l0,0l0,0l0,0l0,0l0,0l0,0l0,0l0,0l0,0l0,0l0,0l0,0
		l0.1,0l0,0l0,0l0,0l0,0l0,0l0,0l0,0l0,0l0,0l0,0l0,0l0,0l0,0l0,0l0,0l0,0l0,0l0,0l0,0l0,0l0,0l0,0l0,0l0,0l0,0l0,0l0,0l0,0l0,0l0,0
		l0,0l0,0l0,0l0,0l0,0l0,0l0,0l0,0l0-0.1l0-0.1l0,0l0,0l0,0l0,0l0,0L15.4,39.8L15.4,39.8L15.4,39.8L15.4,39.8L15.4,39.8L15.4,39.8z"
		/>
	<path fill="#9FD087" stroke="#F9F9FA" stroke-width="0.25" stroke-linecap="round" stroke-linejoin="round" d="M10.8,40.6l-0.1-0.8
		l0-0.2l0,0l0,0l-0.1,0l-0.1,0l-0.5,0l0,0l0,0l0.1,0.2l0,0.1l0,0.3l0,0.1l0,0.1l0.1,0.1l0.1,0.2l0,0l0,0l0,0.1l0,0l0,0l0,0.1l0,0
		l0,0.1L10.4,41l0,0.1l0,0l0,0l0,0l0.3-0.1l0,0l0,0l0.1,0l0,0l0,0l0,0l0,0l0,0l0,0v0L10.8,40.6z M10,40L10,40l-0.1-0.1l-0.1,0
		l-0.1,0l-0.1,0l0,0l0,0l0,0l0,0l0,0l0,0l0,0l0,0l0,0l0,0l0,0l0,0l0,0l0,0l0,0l0,0l0,0.2l0,0.2l0,0.1l-0.1,0l0,0l0,0l0,0l0,0l0,0
		l0,0l0.1,0l0.2,0l0-0.1l0.1-0.2l0-0.1l0-0.1L10,40L10,40L10,40z"/>
	
		<polygon fill-rule="evenodd" clip-rule="evenodd" fill="#9FD087" stroke="#F9F9FA" stroke-width="0.25" stroke-linecap="round" stroke-linejoin="round" points="
		22.4,50.5 22.5,50.4 22.5,50.4 22.5,50.4 22.5,50.4 22.5,50.4 22.5,50.4 22.1,49.9 21.9,49.7 21.8,49.4 21.7,49.3 21.8,48.4 
		21.8,48.3 21.8,48.2 21.7,47.7 21.7,47.6 21.9,47.2 21.8,47.2 21.8,47.1 21.8,47 21.6,46.9 21.6,46.8 21.5,46.7 21.4,46.4 
		21.4,46.4 21.4,46.3 21.4,46.2 21.4,46.2 21.5,46.1 21.5,46.1 21.5,46 21.5,45.9 21.5,45.8 21.6,45.6 21.7,45.5 21.7,45.6 
		21.8,45.5 21.6,45.1 21.6,45 21.6,44.9 21.6,44.9 21.7,44.8 21.7,44.8 21.8,44.7 21.8,44.7 21.8,44.7 21.8,44.7 21.7,44.7 
		21.7,44.7 21.4,44.7 21.4,44.7 21.4,44.7 21.4,44.7 21.4,44.7 21.4,44.7 21.3,44.7 21.3,44.6 21.3,44.6 21.3,44.7 21.3,44.7 
		21.3,44.7 21.3,44.8 21.3,44.8 21.3,44.9 21.3,44.9 21.3,44.9 21.3,44.9 21.3,44.9 21.3,44.9 21.3,44.9 21.3,45 21.2,45 21.2,45.1 
		21.2,45.1 21.2,45.1 21.3,45.1 21.3,45.1 21.3,45.1 21.3,45.1 21.3,45.2 21.3,45.2 21.3,45.2 21.3,45.2 21.3,45.2 21.3,45.2 
		21.3,45.3 21.3,45.3 21.3,45.3 21.3,45.3 21.3,45.3 21.3,45.4 21.3,45.4 21.3,45.4 21.3,45.4 21.4,45.4 21.4,45.5 21.4,45.5 
		21.4,45.6 21.4,45.6 21.4,45.6 21.4,45.6 21.4,45.7 21.3,45.7 21.3,45.7 21.3,45.7 21.3,45.7 21.3,45.7 21.3,45.7 21.3,45.8 
		21.3,45.8 21.3,45.8 21.3,45.8 21.3,45.8 21.3,45.8 21.2,45.8 21.2,45.7 21.2,45.7 21.2,45.6 21.1,45.6 21.1,45.6 21.2,45.6 
		21.2,45.6 21.2,45.6 21.1,45.5 21.1,45.5 21.1,45.5 21,45.4 21,45.4 21,45.4 21,45.4 21,45.3 21,45.3 21,45.3 21,45.3 20.9,45.3 
		20.9,45.3 20.9,45.3 20.9,45.3 20.9,45.3 20.9,45.3 20.9,45.3 20.9,45.2 20.9,45.2 20.9,45.2 20.8,45.2 20.8,45.2 20.8,45.2 
		20.8,45.2 20.7,45.2 20.7,45.2 20.6,45.2 20.6,45.1 20.6,45.1 20.6,45.1 20.6,45.1 20.6,45.1 20.6,45.1 20.6,45.1 20.6,45.1 
		20.6,45.1 20.5,45 20.5,45 20.4,45 20.4,45 20.4,45 20.3,44.9 20.3,44.9 20.2,44.9 20.2,44.9 20.2,44.9 20.1,44.9 20.1,44.9 
		20.1,44.9 19.9,45 19.8,45 19.8,45 19.8,45 19.8,45 19.8,44.9 19.8,44.9 19.7,44.9 19.7,44.8 19.7,44.8 19.8,44.8 19.8,44.7 
		19.8,44.7 19.8,44.7 19.8,44.6 19.8,44.6 19.8,44.4 19.9,44.4 19.9,44.3 19.9,44.3 19.9,44.3 19.9,44.3 19.9,44.2 19.9,44.2 
		20,44.2 20,44.2 20,44.1 20,44.1 20,44.1 20.1,44.1 20.1,44.1 20.1,44.1 20.1,44.1 20.1,44.1 20.2,44.1 20.2,44.1 20.1,44 20.1,44 
		20.1,44 20.2,43.9 20.2,43.9 20.2,43.8 20.2,43.8 20.2,43.8 20.2,43.8 20.1,43.7 20.1,43.7 20.1,43.7 20,43.6 20,43.6 20,43.6 
		20,43.6 20,43.6 19.9,43.6 19.9,43.6 19.9,43.6 19.9,43.7 19.9,43.7 19.9,43.7 19.9,43.7 19.9,43.6 19.9,43.6 19.9,43.6 19.8,43.6 
		19.8,43.6 19.8,43.6 19.7,43.6 19.7,43.6 19.7,43.6 19.7,43.6 19.7,43.6 19.6,43.6 19.6,43.6 19.6,43.5 19.6,43.5 19.6,43.5 
		19.5,43.5 19.5,43.4 19.5,43.4 19.5,43.3 19.5,43.3 19.5,43.3 19.5,43.3 19.5,43.3 19.6,43.2 19.6,43.2 19.6,43.2 19.6,43.2 
		19.6,43.2 19.6,43.2 19.6,43.1 19.6,43.1 19.6,43.1 19.7,43.1 19.7,43 19.6,43 19.6,43 19.6,42.9 19.6,42.9 19.6,42.9 19.5,42.8 
		19.5,42.8 19.4,42.8 19.3,42.8 19.2,42.8 19.2,42.8 19.2,42.8 19.1,42.8 19.1,42.8 19,42.7 18.9,42.7 18.9,42.6 18.8,42.5 
		18.7,42.5 18.7,42.5 18.7,42.4 18.7,42.4 18.7,42.4 18.6,42.4 18.6,42.5 18.6,42.5 18.6,42.5 18.6,42.5 18.6,42.5 18.6,42.5 
		18.6,42.6 18.6,42.6 18.6,42.6 18.6,42.6 18.6,42.6 18.6,42.6 18.6,42.6 18.6,42.7 18.6,42.7 18.6,42.7 18.6,42.8 18.6,42.8 
		18.6,42.8 18.5,42.8 18.5,42.8 18.5,42.7 18.5,42.7 18.4,42.7 18.4,42.7 18.4,42.7 18.4,42.7 18.4,42.7 18.4,42.7 18.4,42.8 
		18.4,42.8 18.4,42.8 18.3,42.8 18.3,42.8 18.3,42.8 18.3,42.8 18.3,42.8 18.2,42.8 18.2,42.8 18.2,42.8 18.2,42.8 18.1,42.8 
		18.1,42.8 18.1,42.7 18,42.7 18,42.7 18,42.7 18,42.7 18,42.7 17.9,42.7 17.9,42.7 17.9,42.7 17.9,42.7 17.9,42.7 17.8,42.7 
		17.8,42.7 17.7,42.7 17.7,42.7 17.7,42.8 17.7,42.8 17.7,42.8 17.7,42.8 17.7,42.8 17.7,42.9 17.7,42.9 17.6,42.9 17.6,43 17.6,43 
		17.6,43 17.5,42.9 17.5,42.9 17.5,42.9 17.4,42.9 17.4,42.9 17.3,42.9 17.3,42.9 17.2,42.9 17.2,42.9 17.2,43 17.1,43 17.1,43 
		17.1,43 17.1,42.9 17.1,42.9 17.1,42.9 17.1,42.9 17,42.9 17,42.9 17,42.9 17,42.9 17,42.9 17,42.9 17,42.8 17,42.8 17,42.8 
		17,42.8 17,42.8 16.8,42.7 16.8,42.7 16.8,42.7 16.8,42.6 16.8,42.6 16.8,42.6 16.8,42.5 16.8,42.5 16.8,42.5 16.7,42.5 16.5,42.6 
		16.5,42.6 16.5,42.6 16.5,42.6 16.4,42.6 16.4,42.6 16.4,42.6 16.4,42.6 16.4,42.6 16.4,42.5 16.3,42.5 16.3,42.5 16.3,42.5 
		16.3,42.5 16.3,42.5 16.3,42.5 16.3,42.5 16.2,42.5 16.2,42.5 16.2,42.5 16.2,42.5 16.2,42.5 16.2,42.6 16.2,42.6 16.2,42.6 
		16.2,42.6 16.2,42.6 16.2,42.6 16.2,42.7 16.1,42.8 16.1,42.9 16.1,42.9 16.1,42.9 16,42.9 16,43 16,43 16,43 16,43 16,43.1 
		16,43.1 16,43 16,43 16,43 15.9,43 15.9,43 15.9,43 15.9,42.9 15.9,42.9 15.9,42.9 15.9,42.9 15.9,42.9 15.9,42.9 15.9,42.8 
		15.9,42.8 15.8,42.8 15.8,42.8 15.8,42.8 15.8,42.8 15.8,42.8 15.8,42.8 15.8,42.8 15.8,42.7 15.8,42.7 15.8,42.7 15.8,42.7 
		15.7,42.7 15.7,42.7 15.7,42.7 15.7,42.7 15.7,42.7 15.7,42.7 15.7,42.7 15.7,42.6 15.7,42.6 15.7,42.6 15.7,42.6 15.6,42.6 
		15.6,42.5 15.6,42.5 15.6,42.5 15.6,42.5 15.6,42.5 15.6,42.5 15.6,42.5 15.5,42.5 15.5,42.5 15.5,42.5 15.5,42.6 15.5,42.6 
		15.5,42.7 15.5,42.7 15.5,42.8 15.5,42.9 15.5,42.9 15.5,43 15.5,43 15.5,43 15.4,43 15.4,43 15.3,43 15.3,43 15.3,43.1 15.3,43.1 
		15.1,43.2 15.1,43.2 15.1,43.2 15.1,43.2 15.1,43.2 15,43.3 15,43.3 14.9,43.3 14.9,43.3 14.9,43.3 14.9,43.3 14.8,43.3 14.8,43.2 
		14.7,43.2 14.7,43.2 14.7,43.2 14.6,43.2 14.6,43.2 14.6,43.1 14.6,43.1 14.6,43.1 14.5,43.1 14.5,43.1 14.5,43.1 14.4,43.1 
		14.4,43.2 14.4,43.2 14.4,43.2 14.4,43.2 14.4,43.2 14.4,43.2 14.4,43.2 14.3,43.2 14.3,43.2 14.3,43.2 14.2,43.2 14.2,43.1 
		14.1,43.1 14,43.1 13.9,43.2 13.9,43.3 13.9,43.3 14,43.4 14,43.4 14,43.4 14,43.4 14,43.5 14,43.5 14,43.5 14,43.5 14,43.5 
		14,43.5 13.9,43.6 13.9,43.6 13.9,43.7 13.9,43.7 13.9,43.7 13.9,43.7 13.9,43.8 13.9,43.8 13.9,43.8 14,43.9 14,43.9 14,43.9 
		14.2,43.9 14.2,43.9 14.2,43.9 14.2,43.9 14.2,44 14.2,44 14.2,44 14.2,44 14.2,44 14.2,44 14.2,44.1 14.2,44.1 14.2,44.1 
		14.2,44.1 14.2,44.1 14.2,44.1 14.3,44.1 14.3,44.2 14.3,44.3 14.3,44.4 14.3,44.4 14.3,44.4 14.3,44.4 14.3,44.4 14.3,44.5 
		14.3,44.5 14.3,44.5 14.3,44.5 14.3,44.6 14.3,44.6 14.4,44.6 14.4,44.6 14.4,44.6 14.5,44.6 14.5,44.6 14.5,44.6 14.5,44.6 
		14.5,44.7 14.5,44.7 14.5,44.7 14.5,44.8 14.5,44.9 14.5,44.9 14.5,44.9 14.6,44.9 14.6,44.9 14.6,44.9 14.6,44.9 14.6,44.9 
		14.7,44.9 14.8,45.1 14.7,45.3 14.7,45.4 14.7,45.4 14.7,45.4 14.7,45.4 14.7,45.4 14.8,45.7 14.8,45.8 14.8,45.8 14.8,45.8 
		14.8,45.9 14.8,45.9 14.8,45.9 14.8,46.1 14.8,46.1 14.8,46.2 14.8,46.2 14.9,46.2 14.9,46.2 14.9,46.2 15,46.4 15.1,46.4 
		15.1,46.5 15.2,46.5 15.2,46.5 15.2,46.5 15.2,46.5 15.2,46.5 15.3,46.5 15.4,46.6 15.5,46.6 15.5,46.7 15.5,46.7 15.5,46.7 
		15.5,46.7 15.5,46.7 15.5,46.7 15.5,46.8 15.6,46.8 15.6,46.9 15.6,46.9 15.6,47 15.6,47.1 15.6,47.1 15.6,47.1 15.6,47.1 
		15.5,47.1 15.5,47.1 15.5,47.1 15.5,47.2 15.4,47.3 15.4,47.3 15.4,47.3 15.4,47.3 15.5,47.3 15.5,47.3 15.5,47.4 15.5,47.4 
		15.5,47.4 15.5,47.5 15.5,47.5 15.5,47.6 15.5,47.6 15.4,47.7 15.7,48 15.7,48 15.7,48.1 15.8,48.1 15.9,48.1 15.9,48.1 16,48.1 
		16,48.1 16,48.1 16.1,48.1 16.1,48.1 16.1,48.1 16.1,48.1 16.1,48.1 16.1,48.1 16.1,48.1 16.1,48.1 16.2,48.1 16.2,48.2 16.2,48.2 
		16.2,48.2 16.3,48.2 16.3,48.2 16.3,48.2 16.3,48.2 16.3,48.2 16.3,48.3 16.3,48.3 16.3,48.3 16.4,48.3 16.4,48.3 16.5,48.3 
		16.5,48.3 16.5,48.3 16.5,48.3 16.5,48.3 16.6,48.4 16.6,48.4 16.6,48.4 16.6,48.4 16.6,48.4 16.6,48.5 16.6,48.5 16.6,48.5 
		16.6,48.5 16.6,48.5 16.7,48.5 16.7,48.4 16.7,48.4 16.7,48.4 16.8,48.4 16.8,48.4 16.8,48.4 16.8,48.4 16.8,48.4 16.9,48.4 
		17,48.5 17.5,48.6 17.5,48.6 17.8,48.7 17.8,48.7 18,48.9 18,48.9 18.1,49 18.9,49.5 18.9,49.5 18.9,49.5 18.9,49.5 18.9,49.5 
		18.9,49.5 18.9,49.5 18.9,49.5 18.9,49.6 19,49.7 19.2,49.8 19.3,49.9 19.4,49.9 19.9,50.5 20.1,50.6 20.7,50.9 20.7,50.9 
		20.7,50.9 21.3,50.7 21.4,50.6 21.5,50.6 21.5,50.7 21.6,50.7 21.8,50.8 21.8,50.8 21.8,50.8 21.9,50.9 21.9,50.9 22.4,51.2 
		22.4,51.2 22.4,51.2 22.4,51.2 22.4,51.2 22.4,51.2 22.4,51.2 22.5,51.1 22.5,51.1 22.5,51.1 22.5,51.1 22.5,51 22.5,51 22.5,51 
		22.5,51 22.5,51 22.5,50.9 22.4,50.9 22.4,50.9 22.4,50.9 22.4,50.9 22.4,50.9 22.4,50.9 22.4,50.9 22.4,50.9 22.4,50.9 22.4,50.8 
		22.4,50.8 22.4,50.8 22.4,50.8 22.4,50.8 22.4,50.8 22.4,50.7 22.4,50.7 22.4,50.7 22.4,50.7 22.4,50.7 22.4,50.7 22.4,50.7 
		22.4,50.7 22.5,50.6 22.5,50.6 22.5,50.6 22.4,50.6 22.4,50.6 22.4,50.6 22.4,50.6 22.4,50.6 22.4,50.5 22.4,50.5 22.4,50.5 
		22.4,50.5 	"/>
	<polygon fill="#9FD087" stroke="#F9F9FA" stroke-width="0.25" stroke-linecap="round" stroke-linejoin="round" points="18.9,49.6 
		18.9,49.5 18.9,49.5 18.9,49.5 18.9,49.5 18.9,49.5 18.9,49.5 18.9,49.5 18.9,49.5 18.1,49 18,48.9 18,48.9 17.8,48.7 17.8,48.7 
		17.5,48.6 17.5,48.6 17,48.5 16.9,48.4 16.8,48.4 16.8,48.4 16.8,48.4 16.8,48.4 16.8,48.4 16.7,48.4 16.7,48.4 16.7,48.4 
		16.7,48.5 16.6,48.5 16.6,48.5 16.6,48.5 16.6,48.5 16.6,48.5 16.6,48.4 16.6,48.4 16.6,48.4 16.6,48.4 16.6,48.4 16.5,48.3 
		16.5,48.3 16.5,48.3 16.5,48.3 16.5,48.3 16.4,48.3 16.4,48.3 16.3,48.3 16.3,48.3 16.3,48.3 16.3,48.2 16.3,48.2 16.3,48.2 
		16.3,48.2 16.3,48.2 16.2,48.2 16.2,48.2 16.2,48.2 16.2,48.1 16.1,48.1 16.1,48.1 16.1,48.1 16.1,48.1 16.1,48.1 16.1,48.1 
		16.1,48.1 16.1,48.1 16,48.1 16,48.1 16,48.1 16,48.2 16.1,48.2 16.1,48.2 16.1,48.2 16.1,48.2 16.1,48.3 16.1,48.3 16.1,48.3 
		16.1,48.3 16.1,48.4 16.1,48.4 16.1,48.5 16.1,48.5 16.2,48.5 16.2,48.5 16.2,48.6 16.2,48.6 16.2,48.6 16.2,48.6 16.2,48.7 
		16.2,48.8 16.2,48.8 16.2,48.9 16.2,49 16.2,49 16.2,49 16.2,49 16.2,49 16.1,49 16.1,49 16.1,49.1 16.1,49.1 16.1,49.1 16.1,49.2 
		16.1,49.2 16.1,49.2 16.1,49.3 16.1,49.3 16.1,49.3 16,49.3 16,49.3 16,49.4 16,49.4 15.9,49.4 15.9,49.5 15.9,49.6 15.9,49.6 
		15.9,49.6 15.8,49.6 15.8,49.7 15.8,49.7 15.8,49.7 15.6,49.6 15.5,49.6 15.5,49.6 15.4,49.6 15.4,49.6 15.4,49.7 15.4,49.7 
		15.5,50 15.5,50.1 15.4,50.3 15.4,50.4 15.3,50.4 15.3,50.4 15.3,50.5 15.3,50.5 15.3,50.5 15.3,50.6 15.3,50.6 15.4,50.7 
		15.5,50.7 15.5,50.7 15.6,50.9 15.6,51 15.7,51 15.7,51 15.8,51.1 15.8,51.2 15.8,51.3 15.8,51.4 15.9,51.3 16,51.3 16.1,51.3 
		16.2,51.4 16.2,51.4 16.3,51.4 16.3,51.4 16.3,51.4 16.4,51.3 16.4,51.3 16.5,51.2 16.5,51.3 16.5,51.3 16.5,51.3 16.6,51.3 
		16.6,51.3 16.6,51.2 16.6,51.2 16.6,51.2 16.6,51.2 16.6,51.2 16.6,51.2 16.6,51.2 16.6,51.2 16.6,51.1 16.6,51.1 16.7,51.2 
		16.7,51.2 16.9,51.1 16.9,51.1 16.9,51.1 17,51 17,51 17,51 17,51 17.1,51.1 17.2,51.1 17.3,51.1 17.4,51.1 17.6,51 17.7,51 
		17.8,51 18,51.1 18.1,51.2 18.6,51.3 18.6,51.2 18.6,51.2 18.7,51.1 18.7,51.1 18.7,51.1 18.7,51.1 18.7,51 18.7,51 18.7,51 
		18.7,50.9 18.7,50.9 18.7,50.9 18.7,50.8 18.7,50.8 18.7,50.8 18.7,50.8 18.7,50.7 18.7,50.7 18.7,50.7 18.7,50.6 18.7,50.6 
		18.8,50.6 18.8,50.6 18.7,50.6 18.7,50.5 18.7,50.5 18.7,50.5 18.8,50.4 19,49.8 19,49.7 	"/>
	
		<polygon fill-rule="evenodd" clip-rule="evenodd" fill="#9FD087" stroke="#F9F9FA" stroke-width="0.25" stroke-linecap="round" stroke-linejoin="round" points="
		18.1,51.2 18,51.1 17.8,51 17.7,51 17.6,51 17.4,51.1 17.3,51.1 17.2,51.1 17.1,51.1 17,51 17,51 17,51 17,51 16.9,51.1 16.9,51.1 
		16.9,51.1 16.7,51.2 16.7,51.2 16.6,51.1 16.6,51.1 16.6,51.2 16.6,51.2 16.6,51.2 16.6,51.2 16.6,51.2 16.6,51.2 16.6,51.2 
		16.6,51.2 16.6,51.3 16.6,51.3 16.5,51.3 16.5,51.3 16.5,51.3 16.5,51.2 16.4,51.3 16.4,51.3 16.3,51.4 16.3,51.4 16.3,51.5 
		16.3,51.5 16.4,51.6 16.5,51.6 16.5,51.6 16.8,51.9 16.9,52 17,52.1 17.6,52.3 18.2,52.5 18.2,52.5 18.2,52.4 18.3,52.4 18.3,52.4 
		18.3,52.4 18.3,52.4 18.4,52.4 18.4,52.3 18.4,52.3 18.3,52.2 18.3,52.2 18.3,52.2 18.3,52.2 18.3,52.2 18.3,52.2 18.2,52.2 
		18.2,52.2 18.2,52.2 18.2,52.2 18.2,52.1 18.1,52.1 18.1,52.1 18.1,52.1 18.2,52 18.2,52 18.2,52 18.2,52 18.2,52 18.2,51.9 
		18.2,51.9 18.2,51.9 18.2,51.9 18.3,51.7 18.3,51.6 18.3,51.6 18.3,51.6 18.3,51.6 18.3,51.5 18.3,51.5 18.4,51.4 18.4,51.4 
		18.5,51.3 18.6,51.3 	"/>
	
		<polygon fill-rule="evenodd" clip-rule="evenodd" fill="#9FD087" stroke="#F9F9FA" stroke-width="0.25" stroke-linecap="round" stroke-linejoin="round" points="
		18.8,42.4 18.8,42.3 18.8,42.3 18.8,42.3 18.8,42.3 18.8,42.2 18.8,42.2 18.7,42.2 18.7,42.2 18.7,42.1 18.7,42.1 18.5,42 18.4,42 
		18.4,42 18.4,42 18.4,42 18.4,42 18.4,42 18.3,42 18.3,42 18.3,42 18.3,42 18.3,41.9 18.3,41.9 18.3,41.8 18.3,41.8 18.2,41.7 
		18.2,41.6 18.2,41.6 18.2,41.6 18.2,41.6 18.2,41.6 18.2,41.6 18.2,41.6 18.2,41.6 18.2,41.6 18.3,41.6 18.3,41.6 18.3,41.6 
		18.3,41.5 18.2,41.4 18.2,41.3 18.2,41.3 18.2,41.3 18.3,41.3 18.3,41.3 18.3,41.3 18.3,41.3 18.3,41.3 18.3,41.3 18.3,41.2 
		18.3,41.2 18.3,41.2 18.3,41.2 18.3,41.1 18.2,41.1 18.2,41.1 18.2,41.1 18.2,41.1 18.2,41.1 18.1,41 18.1,41 18.1,41 18.1,41 
		18.1,41 18,41 18,41 18,41 18,41 18,41 18,41 17.9,41 17.9,40.9 17.9,40.9 17.9,40.9 17.9,40.8 17.9,40.8 17.9,40.8 17.9,40.8 
		17.9,40.7 17.9,40.5 17.9,40.4 17.9,40.4 18,40.3 18,40.2 18,40.2 18,40.2 17.9,40.1 17.8,40 17.8,40 17.8,40 17.8,40 17.8,40 
		17.8,39.9 17.8,39.7 17.8,39.6 17.8,39.6 17.9,39.6 17.9,39.6 17.9,39.4 17.9,39.3 17.9,39.3 17.8,39.3 17.8,39.2 17.8,39 17.8,39 
		17.9,38.9 18.2,38.6 18.4,38.4 18.4,38.4 18.3,38.3 18.2,38.2 17.8,37.4 17.6,37.2 17.5,37.1 17.1,37 17,37 17,37 17,37 17.1,37 
		17,37.1 16.9,37.1 16.9,37.1 16.7,37 16.6,36.9 16.6,37.1 16.6,37.4 16.6,37.5 16.5,37.6 16.2,37.8 16.1,37.9 16,38.1 16,38.2 
		16,38.4 15.9,38.5 15.8,38.5 15.8,38.6 15.8,38.6 15.8,38.6 15.7,38.7 15.7,38.7 15.6,38.8 15.6,38.8 15.5,38.8 15.4,38.8 
		15.4,38.8 15.4,38.7 15.4,38.7 15.3,38.7 15.3,38.7 15.2,38.7 15.2,38.8 15.2,39 15.2,39 15.2,39 15.1,39 15.1,39.1 15.1,39.1 
		15.1,39.1 15.1,39.1 15.1,39.2 15.1,39.2 15.1,39.2 15.1,39.3 15.1,39.3 15.1,39.3 15.1,39.3 15.1,39.3 15.1,39.3 15.1,39.4 
		15.1,39.4 15.2,39.4 15.2,39.5 15.2,39.5 15.1,39.5 15.1,39.6 15.1,39.6 15.1,39.7 15.1,39.7 15.1,39.7 15.1,39.7 15.1,39.7 
		15.2,39.7 15.2,39.7 15.2,39.7 15.2,39.7 15.2,39.7 15.2,39.7 15.3,39.7 15.3,39.7 15.3,39.7 15.3,39.7 15.3,39.7 15.3,39.7 
		15.3,39.7 15.4,39.7 15.4,39.7 15.4,39.7 15.4,39.8 15.4,39.8 15.4,39.8 15.4,39.8 15.4,39.8 15.4,39.9 15.4,39.9 15.4,39.9 
		15.4,40 15.4,40 15.4,40 15.4,40.1 15.4,40.2 15.4,40.2 15.4,40.2 15.4,40.3 15.4,40.3 15.3,40.3 15.3,40.3 15.3,40.3 15.3,40.3 
		15.3,40.3 15.3,40.3 15.2,40.3 15.2,40.3 15.2,40.3 15.2,40.3 15.1,40.3 15.1,40.4 15.1,40.4 15.1,40.4 15.1,40.3 15,40.3 15,40.3 
		15,40.3 15,40.3 15,40.3 14.9,40.3 14.9,40.3 14.9,40.3 14.9,40.3 14.9,40.3 14.9,40.3 14.8,40.3 14.8,40.3 14.8,40.4 14.8,40.4 
		14.8,40.4 14.8,40.4 14.8,40.4 14.8,40.4 14.7,40.5 14.7,40.5 14.7,40.5 14.7,40.6 14.6,40.6 14.6,40.6 14.6,40.6 14.6,40.6 
		14.6,40.6 14.6,40.6 14.6,40.6 14.5,40.6 14.5,40.7 14.5,40.7 14.5,40.7 14.5,40.8 14.5,40.8 14.5,40.8 14.5,40.9 14.4,40.9 
		14.4,40.9 14.4,41 14.4,41 14.4,41 14.4,41.1 14.4,41.1 14.4,41.1 14.4,41.1 14.4,41.1 14.4,41.2 14.4,41.2 14.4,41.2 14.4,41.2 
		14.4,41.2 14.4,41.3 14.4,41.3 14.3,41.4 14.3,41.4 14.3,41.4 14.3,41.4 14.3,41.5 14.3,41.5 14.3,41.5 14.3,41.6 14.3,41.6 
		14.3,41.6 14.3,41.6 14.3,41.7 14.3,41.7 14.2,41.7 14.2,41.8 14.3,41.8 14.3,41.8 14.3,42 14.3,42 14.3,42 14.3,42.1 14.3,42.2 
		14.2,42.2 14.2,42.2 14.2,42.2 14.2,42.2 14.2,42.2 14.1,42.2 14.1,42.2 14.1,42.3 14.1,42.3 14.1,42.3 14.1,42.3 14.1,42.4 
		14.1,42.4 14.1,42.4 14.1,42.4 14.1,42.4 14.1,42.5 14.1,42.5 14.1,42.5 14.1,42.5 14.1,42.5 14,42.5 14,42.5 14,42.6 14,42.6 
		14,42.6 14,42.6 14,42.6 14,42.7 14,42.7 14,42.7 14,42.7 14,42.7 14,42.7 14,42.7 14,42.7 13.9,42.7 13.9,42.7 13.9,42.7 
		13.9,42.7 13.9,42.8 13.9,42.9 14,43 14,43.1 14.1,43.1 14.2,43.1 14.2,43.2 14.3,43.2 14.3,43.2 14.3,43.2 14.4,43.2 14.4,43.2 
		14.4,43.2 14.4,43.2 14.4,43.2 14.4,43.2 14.4,43.2 14.4,43.1 14.5,43.1 14.5,43.1 14.5,43.1 14.6,43.1 14.6,43.1 14.6,43.1 
		14.6,43.2 14.6,43.2 14.7,43.2 14.7,43.2 14.7,43.2 14.8,43.2 14.8,43.3 14.9,43.3 14.9,43.3 14.9,43.3 14.9,43.3 15,43.3 15,43.3 
		15.1,43.2 15.1,43.2 15.1,43.2 15.1,43.2 15.1,43.2 15.3,43.1 15.3,43.1 15.3,43 15.3,43 15.4,43 15.4,43 15.5,43 15.5,43 15.5,43 
		15.5,42.9 15.5,42.9 15.5,42.8 15.5,42.7 15.5,42.7 15.5,42.6 15.5,42.6 15.5,42.5 15.5,42.5 15.5,42.5 15.6,42.5 15.6,42.5 
		15.6,42.5 15.6,42.5 15.6,42.5 15.6,42.5 15.6,42.5 15.6,42.6 15.7,42.6 15.7,42.6 15.7,42.6 15.7,42.6 15.7,42.7 15.7,42.7 
		15.7,42.7 15.7,42.7 15.7,42.7 15.7,42.7 15.7,42.7 15.8,42.7 15.8,42.7 15.8,42.7 15.8,42.7 15.8,42.8 15.8,42.8 15.8,42.8 
		15.8,42.8 15.8,42.8 15.8,42.8 15.8,42.8 15.9,42.8 15.9,42.8 15.9,42.9 15.9,42.9 15.9,42.9 15.9,42.9 15.9,42.9 15.9,42.9 
		15.9,43 15.9,43 15.9,43 16,43 16,43 16,43 16,43.1 16,43.1 16,43 16,43 16,43 16,43 16,42.9 16.1,42.9 16.1,42.9 16.1,42.9 
		16.1,42.8 16.2,42.7 16.2,42.6 16.2,42.6 16.2,42.6 16.2,42.6 16.2,42.6 16.2,42.6 16.2,42.5 16.2,42.5 16.2,42.5 16.2,42.5 
		16.2,42.5 16.3,42.5 16.3,42.5 16.3,42.5 16.3,42.5 16.3,42.5 16.3,42.5 16.3,42.5 16.4,42.5 16.4,42.6 16.4,42.6 16.4,42.6 
		16.4,42.6 16.4,42.6 16.5,42.6 16.5,42.6 16.5,42.6 16.5,42.6 16.7,42.5 16.8,42.5 16.8,42.5 16.8,42.5 16.8,42.6 16.8,42.6 
		16.8,42.6 16.8,42.7 16.8,42.7 16.8,42.7 17,42.8 17,42.8 17,42.8 17,42.8 17,42.8 17,42.9 17,42.9 17,42.9 17,42.9 17,42.9 
		17,42.9 17.1,42.9 17.1,42.9 17.1,42.9 17.1,42.9 17.1,43 17.1,43 17.1,43 17.2,43 17.2,42.9 17.2,42.9 17.3,42.9 17.3,42.9 
		17.4,42.9 17.4,42.9 17.5,42.9 17.5,42.9 17.5,42.9 17.6,43 17.6,43 17.6,43 17.6,42.9 17.7,42.9 17.7,42.9 17.7,42.8 17.7,42.8 
		17.7,42.8 17.7,42.8 17.7,42.8 17.7,42.7 17.7,42.7 17.8,42.7 17.8,42.7 17.9,42.7 17.9,42.7 17.9,42.7 17.9,42.7 17.9,42.7 
		18,42.7 18,42.7 18,42.7 18,42.7 18,42.7 18.1,42.7 18.1,42.8 18.1,42.8 18.2,42.8 18.2,42.8 18.2,42.8 18.2,42.8 18.3,42.8 
		18.3,42.8 18.3,42.8 18.3,42.8 18.3,42.8 18.4,42.8 18.4,42.8 18.4,42.8 18.4,42.7 18.4,42.7 18.4,42.7 18.4,42.7 18.4,42.7 
		18.4,42.7 18.5,42.7 18.5,42.7 18.5,42.8 18.5,42.8 18.6,42.8 18.6,42.8 18.6,42.8 18.6,42.7 18.6,42.7 18.6,42.7 18.6,42.6 
		18.6,42.6 18.6,42.6 18.6,42.6 18.6,42.6 18.6,42.6 18.6,42.6 18.6,42.5 18.6,42.5 18.6,42.5 18.6,42.5 18.6,42.5 18.6,42.5 
		18.6,42.4 18.7,42.4 18.7,42.4 18.7,42.4 18.7,42.5 18.7,42.5 18.8,42.5 18.8,42.4 	"/>
	<path fill="#9FD087" stroke="#F9F9FA" stroke-width="0.25" stroke-linecap="round" stroke-linejoin="round" d="M8.5,36.5L8.5,36.5
		l0-0.1l0,0l0,0l0,0l-0.1,0l0,0l0-0.1l0-0.1l0,0l0,0l0,0l0,0l0,0l0,0l0,0l-0.1,0l0,0l0,0l0,0l0,0l0,0l-0.1,0l-0.2,0l0-0.1l-0.1,0
		l-0.1,0l-0.1,0l0,0.1l0,0.1l0,0.1l0.1,0l0.1,0l0.1,0l0,0l0,0.1l0,0.1l0,0l0,0l0,0l0.1,0l0.1,0l0.1-0.1l0.1,0l0.1,0l0.1,0l0.1,0
		l0-0.1l0,0l0,0l0,0l0,0L8.5,36.5L8.5,36.5L8.5,36.5L8.5,36.5z M8.1,36.8L8.1,36.8l-0.1,0.1L8,37.1l0,0.1l0.1,0l0,0l0,0l0,0l0,0l0,0
		l0,0l0,0l0,0l0-0.1l0,0L8.1,36.8L8.1,36.8L8.1,36.8L8.1,36.8L8.1,36.8L8.1,36.8z M12.9,37.5L12.9,37.5l-0.1-0.1l0-0.1l0.1-0.1l0,0
		l0,0l0-0.1l0-0.1l0,0l0,0l-0.2,0l-0.1,0l-0.1-0.1l-0.1,0l-0.1,0.1l-0.1,0l-0.2,0l-0.1,0l0,0l0,0l0,0l0-0.1l0,0l0-0.1l0,0l0,0l0,0
		l0,0l0,0l0-0.1l0,0l0,0l0-0.2l0-0.1l-0.1-0.1l0,0l0,0l0,0l0,0l0,0l0-0.1l0,0l-0.1,0l-0.2,0.2l-0.1,0l-0.1,0L11,36.1L10.7,36l-0.1,0
		l-0.1-0.1l-0.1,0l-0.1,0l-0.1,0l-0.1,0l0,0l0,0.1v0l0,0l0,0.2l0,0l0,0l-0.1,0.1l0,0l-0.4,0.5l0,0l0,0l0,0l0,0l0,0l0,0l0,0L9.7,37
		L9.7,37l0,0.2l0.1,0.2l0.1,0.2l0,0.1l0.1,0.1l0,0.1l0.1,0.8l0,0.4l0,0l0,0l0,0l0,0l0,0l0,0l0,0l0,0l0,0.3l0,0.1l0,0l0.5,0l0.1,0
		l0.1,0l0,0l0,0l0,0.2l0.1,0.8l0.1,0.4v0l0,0l0,0l0,0l0,0l0,0l0,0l-0.1,0l0,0.1l0,0l0,0l0,0l0,0l0,0l0,0l0,0l0,0l0,0l0,0l0.1-0.1
		l0.1,0l0,0l0,0l0-0.1l0,0l0.3-0.2l0,0l0,0l0,0l0-0.1l0-0.1l0,0l0,0l0.1-0.1l0,0l0,0l0,0l0,0l0-0.1l0,0l0.1,0l0.1,0l0,0l0,0l0-0.1
		l0,0l0,0l0,0l0-0.1l0,0l0,0l0,0l0-0.1l0-0.1l0,0l0,0l0,0l0,0l0,0l0,0l0,0l0,0l0,0l0,0l0-0.1l0,0l0,0v0l0-0.1v0l0,0l0,0l0,0l0,0l0,0
		l0,0l0,0l0,0l0,0l0,0l0,0l0,0l0,0l0,0l0,0l0,0l0,0l0.1-0.2l0,0l0,0l0,0l0,0l0,0l0,0l0,0l0,0l0,0l0-0.1l0,0l0,0l0,0l0,0l0,0l0,0l0,0
		l0,0l0,0l0.2-0.3l0.1,0l0.1,0l0.1,0l0-0.1l0-0.1l0-0.1l0-0.2L12.9,37.5L12.9,37.5z"/>
	<polygon fill="#9FD087" stroke="#F9F9FA" stroke-width="0.25" stroke-linecap="round" stroke-linejoin="round" points="15.1,49 
		15.1,49 15.2,49 15.3,49 15.3,49 15.3,49 15.3,49 15.3,49 15.3,49 15.3,49 15.3,49 15.3,49 15.3,49 15.4,49 15.4,49 15.4,49 
		15.4,48.9 15.4,48.9 15.4,48.9 15.4,48.8 15.4,48.7 15.4,48.7 15.4,48.6 15.4,48.6 15.4,48.6 15.4,48.6 15.4,48.5 15.4,48.5 
		15.4,48.5 15.4,48.5 15.4,48.5 15.4,48.4 15.4,48.4 15.4,48.4 15.4,48.3 15.4,48.3 15.4,48.3 15.4,48.3 15.3,48.3 15.3,48.3 
		15.3,48.3 15.3,48.4 15.2,48.3 15.1,48.3 15.1,48.3 15.1,48.3 15.1,48.3 15.1,48.3 15.1,48.3 15,48.3 15,48.3 15,48.3 15,48.3 
		15,48.4 14.9,48.4 14.9,48.5 14.9,48.6 14.9,48.6 14.9,48.6 14.9,48.6 15,48.6 15,48.7 15,48.7 15,48.7 15,48.7 15,48.7 15,48.8 
		15,48.8 15,48.8 15.1,48.8 15.1,48.8 15.1,48.8 15.1,48.8 15.1,48.8 15.1,48.8 15.1,48.8 15,48.9 15,48.9 15,48.9 15,48.9 15,48.9 
		15.1,49 15.1,49 15.1,49 15.1,49 	"/>
	<path fill="#9FD087" stroke="#F9F9FA" stroke-width="0.25" stroke-linecap="round" stroke-linejoin="round" d="M24.4,50L24.4,50
		L24.4,50l0.1,0.2l0.1,0l0.1,0l0.1,0l0,0l0,0l0-0.2l0-0.2l0,0l0-0.1l0,0l0,0l0,0l0,0l0,0l0,0l0,0l0,0l0,0.1l0,0.1v0.1l0,0.1l0,0l0,0
		l0,0L24.4,50L24.4,50L24.4,50z M24.2,51.7L24.2,51.7L24.2,51.7l0.1,0.1l0,0l0-0.1l0,0L24.2,51.7L24.2,51.7L24.2,51.7L24.2,51.7
		L24.2,51.7L24.2,51.7L24.2,51.7z M23.5,50.3L23.5,50.3L23.5,50.3L23.5,50.3L23.5,50.3L23.5,50.3L23.5,50.3L23.5,50.3L23.5,50.3
		L23.5,50.3L23.5,50.3z M25.9,51.2L25.9,51.2L25.9,51.2L25.9,51.2l-0.1,0L25.9,51.2L25.9,51.2L25.9,51.2L25.9,51.2l0,0.1L25.9,51.2
		L25.9,51.2L25.9,51.2z M25.1,50.7L25.1,50.7L25.1,50.7L25.1,50.7L25.1,50.7L25.1,50.7L25.1,50.7L25.1,50.7L25.1,50.7L25.1,50.7
		L25.1,50.7L25.1,50.7z M24.9,54.7l-0.1-0.2l0-0.2l0-0.1l0,0l0,0l0-0.1l0-0.1l0-0.1l0-0.1l-0.1-0.1l0-0.2l-0.1-0.2h0l0,0l-0.1,0
		l0-0.1l0-0.1l0-0.2l0-0.1l0-0.1l0,0l-0.1-0.1l0,0l0-0.1l-0.1-0.1L24,52.4l-0.2-0.2l0-0.1l0,0l0-0.1l0,0l0,0l-0.1-0.1l0,0l0,0l0-0.1
		l0,0l0,0l-0.1-0.1l0,0l-0.3-0.3l0-0.1l0-0.1l0-0.1l-0.1-0.2l0-0.1L23,50.5l0,0l0,0l0,0l-0.1,0l-0.1,0l0,0l0,0l-0.1-0.1l0,0l-0.1,0
		l-0.1,0l0,0l0,0l0,0.1l0,0l-0.1,0l0,0l0,0l0,0l0,0l0,0l0,0l0,0l0,0l0,0l0,0l0,0l0,0l0,0l0,0l0,0l0,0l0,0l0,0l0,0l0,0l0,0l0,0l0,0
		l0,0l0,0l0,0l0,0l0,0l0,0l0,0l0,0l0,0l0,0l0,0l0,0l0,0l0,0l0,0l0,0l0,0l0,0l0,0l0,0l0,0l0,0.1l0,0l0,0v0l0,0l0,0l0,0l0,0l-0.5-0.3
		l0,0l0,0l0,0l0,0l-0.2-0.1l0,0l0,0l-0.1,0l-0.2,0l-0.6,0.2l0,0l0,0l-0.6-0.2l-0.1-0.1l-0.5-0.6l-0.1,0l-0.2-0.1L19,49.7l0,0.1
		l-0.2,0.6l0,0.1l0,0l0,0l0,0l0,0v0l0,0l0,0l0,0l0,0l0,0.1l0,0l0,0l0,0l0,0l0,0l0,0l0,0l0,0l0,0l0,0l0,0l0,0l0,0l0,0l0,0.1l0,0
		l0,0.1l-0.1,0.1l-0.1,0l0,0l-0.1,0.1l0,0l0,0l0,0l0,0l0,0l0,0l-0.1,0.2l0,0l0,0l0,0l0,0l0,0l0,0l0,0l0,0l-0.1,0.1l0,0l0,0l0,0l0,0
		l0,0l0,0l0,0l0.1,0l0,0l0,0l0,0l0,0l0,0l0,0l0,0l0,0.1l0,0l0,0l0,0l0,0l0,0l-0.1,0.1l0,0l0,0l0.1,0.1l0.1,0l0,0l0,0l0,0l0,0l0,0
		l0,0l0,0l0.3,0.2l0.1,0.1l0.1,0.2l0,0.1l0.1,0l0.1,0l0.2,0l0.1,0l0.1,0.1l0.1,0.1l0.1,0.1l0.1,0.1l0.1,0.1l0,0l0.1,0l0.1,0l0.1,0
		l0.2,0.1l0.6,0.4l0.4,0.2l0.2,0.1l0.1,0.1l0.1,0.1l0.1,0.4l0,0.1l0.1,0.1l0.1,0.1l0,0.1l0.1-0.1l0.1-0.1l0,0l0,0l0-0.1l0,0l0,0l0,0
		l0,0l0,0l0.1,0l0.1-0.1l0.2-0.2l0.1,0l0.1,0l0.2,0l0.1,0l0.2-0.1l0.1,0l0.3,0.2l0.2,0l0.1-0.1l0-0.1l0-0.1l0-0.1l0,0l0-0.1l0-0.1
		l-0.1-0.2l0-0.1l0,0l0.1,0.1l0.1,0.1l0.1,0.2l0,0.1l0,0l0,0l0.1-0.1l0.1,0l0.1,0l0.1,0l-0.1,0.1l-0.1,0.1l-0.1,0.1l0,0.1l0,0l0.1,0
		l0,0l0,0.1l0,0.1l0,0l0,0l0.2,0.1l0.1,0l0.2,0l0,0l0-0.1l0,0h0.1l0-0.1l0-0.2l0,0l0,0l0-0.1L24.9,54.7z M21.7,55.4L21.7,55.4
		L21.7,55.4L21.7,55.4L21.7,55.4L21.7,55.4L21.7,55.4L21.7,55.4z"/>
</g>
<g>
	<rect x="-19.5" y="90.3" fill="none" width="128.6" height="38.1"/>
	<text transform="matrix(1 0 0 1 19.1209 99.5753)" fill="#818281" font-family="'ArialMT'" font-size="13px">Malaysia</text>
</g>
</svg>
