<?xml version="1.0" encoding="utf-8"?>
<!-- Generator: Adobe Illustrator 23.0.1, SVG Export Plug-In . SVG Version: 6.00 Build 0)  -->
<svg version="1.0" id="Countries" xmlns="http://www.w3.org/2000/svg" xmlns:xlink="http://www.w3.org/1999/xlink" x="0px" y="0px"
	 viewBox="0 0 87 130" enable-background="new 0 0 87 130" xml:space="preserve">
<circle fill="#DAF1F9" stroke="#FFFFFF" stroke-width="0.25" cx="43.5" cy="44.7" r="39"/>
<g id="Dominican_Republic">
	
		<polygon id="Valverde" fill-rule="evenodd" clip-rule="evenodd" fill="#F2E355" stroke="#F9F9FA" stroke-width="0.25" stroke-linecap="round" stroke-linejoin="round" points="
		30.7,27.4 30.5,28.1 30.2,28.7 29.8,28.8 29.3,28.4 29.3,28.8 29.5,29.2 29.7,29.3 30,29.5 30,30.1 29.9,30.7 30.3,31 30.2,31.4 
		29.4,31.4 28.6,31 28.4,31.2 28.2,31.5 28,31.5 27.7,31.5 27.1,31.2 26.6,30.9 25.2,30.7 24.5,29.5 24.7,28.8 24.6,28.1 24.7,27.6 
		25.2,27.7 25.1,27 25.1,26.3 25.2,25.7 25.4,25.1 26.1,25.4 26.7,25.7 27.2,26 27.7,26.1 28.5,26.4 29.1,26.9 29.8,27.3 	"/>
	
		<polygon id="Santo_Domingo" fill-rule="evenodd" clip-rule="evenodd" fill="#F2E355" stroke="#F9F9FA" stroke-width="0.25" stroke-linecap="round" stroke-linejoin="round" points="
		47.2,47.4 48,47 48.1,46.8 48.1,46.7 48.4,46.6 48.6,46.6 49.1,46.6 49.5,46.6 50,47 50.5,47.5 50.7,47.9 50.9,48.3 51.3,48.7 
		51.4,49.3 52.3,48.3 53.4,47.9 53.8,47.8 54.2,47.6 54.9,47.4 55.6,47.7 55.3,48 55.2,48.3 55.3,48.3 55.4,48.2 55.5,48.8 
		55.5,49.3 55.1,49.8 54.8,50.3 55.5,51.1 56.7,51.4 56.5,52 56.5,52.5 56.5,52.5 55.5,51.9 55,51.6 54.8,51.6 54.6,51.8 54.6,52 
		54.7,52.2 54.6,52.4 54.5,52.5 54.2,52.5 53.9,52.4 53.8,52.4 53.5,51.8 53.3,51.7 53.2,51.6 50.2,51.3 49.7,51.3 49.7,50.7 
		49.2,50.6 48.8,50.7 48.4,50.7 48.2,50.3 48,50 47.5,50.3 47.4,50.8 47.8,51.5 47.7,52.2 47.7,52.2 47.5,52.3 47.3,52.4 47.2,52.3 
		47.2,51.8 46.9,51.5 46.5,51.5 46.1,51.5 45.9,51.2 45.8,50.9 45.4,50.4 45,50.1 44.6,49.4 44.4,48.7 44.5,48.2 44.7,47.8 
		44.1,46.9 44.1,46 44.7,46.2 45,46.8 45.6,47.1 46.3,47.2 	"/>
	
		<polygon id="Santiago_Rodríguez" fill-rule="evenodd" clip-rule="evenodd" fill="#F2E355" stroke="#F9F9FA" stroke-width="0.25" stroke-linecap="round" stroke-linejoin="round" points="
		21.2,29.5 21.9,29.5 22.2,29.3 22.6,29.2 23.2,29.6 23.9,29.6 24.1,29.4 24.5,29.5 25.2,30.7 26.6,30.9 26.3,31.3 26.3,31.7 
		26.5,31.9 26.7,32.1 26,32.3 25.3,32.7 24.9,32.7 24.5,32.6 24.2,32.8 24,33.1 23.6,33.4 23.4,33.8 23.3,34.4 23.3,35 23.3,35.5 
		23.6,35.8 23.7,36.4 23.6,37 22.5,37 21.7,36.6 20.9,36.2 20,35.7 19.4,34.9 18.6,34.4 18.3,34 18.1,33.6 19,33.2 19.3,31.9 
		19.4,31.4 19.4,31 19.6,30.1 20.1,29.4 20.3,29 20.6,29.3 	"/>
	
		<polygon id="Santiago" fill-rule="evenodd" clip-rule="evenodd" fill="#F2E355" stroke="#F9F9FA" stroke-width="0.25" stroke-linecap="round" stroke-linejoin="round" points="
		36.8,29.9 36.7,30.3 36.4,30.7 36.1,31.1 36,31.6 36.1,32.1 36.1,32.5 35.8,32.8 35.5,33 34.5,33.3 33.5,33.8 33,34 32.9,34.4 
		33.4,34.7 33.9,34.9 34.2,35.4 34.1,36.1 34.2,36.7 33.7,36.6 33.2,36.6 33,37.2 32,38 30.8,38.5 30.2,38.8 29.6,39.1 29.7,39.5 
		29.7,40 29.1,39.8 28.6,39.7 28.2,39.8 27.7,40 26.9,39.7 26,39.2 25.6,38.8 25.6,38.3 25.4,38 25.1,37.9 24.3,37.5 23.6,37 
		23.7,36.4 23.6,35.8 23.3,35.5 23.3,35 23.3,34.4 23.4,33.8 23.6,33.4 24,33.1 24.2,32.8 24.5,32.6 24.9,32.7 25.3,32.7 26,32.3 
		26.7,32.1 26.5,31.9 26.3,31.7 26.3,31.3 26.6,30.9 27.1,31.2 27.7,31.5 28,31.5 28.2,31.5 28.4,31.2 28.6,31 29.4,31.4 30.2,31.4 
		30.3,31 29.9,30.7 30,30.1 30,29.5 29.7,29.3 29.5,29.2 29.3,28.8 29.3,28.4 29.8,28.8 30.2,28.7 30.5,28.1 30.7,27.4 31.3,27.5 
		31.8,27.7 32.2,28 32.7,28.4 33.5,28.4 33.6,27.2 34.6,27.6 35,28.6 35.6,29.5 	"/>
	
		<polygon id="Sánchez_Ramírez" fill-rule="evenodd" clip-rule="evenodd" fill="#F2E355" stroke="#F9F9FA" stroke-width="0.25" stroke-linecap="round" stroke-linejoin="round" points="
		43,37.5 43.4,37.4 44.2,37.4 45.1,37.5 45.6,37.6 46.1,37.8 46.6,38 47,38.1 47.6,38.1 48.2,38.2 48.7,38.3 49.1,38.6 49.1,39.2 
		48.9,39.7 48.6,41 48.3,42.4 47.7,42.8 47.1,42.5 46.7,42.4 46.5,42.8 46.1,42.7 45.7,42.6 45.2,42.7 44.8,43.1 44,43.3 43,43.5 
		42.5,42.6 41.7,42 41.3,41.7 41,41.3 40.9,41 40.7,40.8 40.3,40.5 40.2,40 40,39.5 39.8,39 40.3,38.4 41.1,38 41.6,37.8 42,37.6 
		42,37.6 41.9,37.5 41.9,37.4 41.8,37.5 42.2,37.3 42.6,37.4 	"/>
	
		<polygon id="San_Pedro_de_Macorís" fill-rule="evenodd" clip-rule="evenodd" fill="#F2E355" stroke="#F9F9FA" stroke-width="0.25" stroke-linecap="round" stroke-linejoin="round" points="
		59.8,50.3 60.4,49.6 60.8,49.1 61.1,48.3 61.8,47.9 62,48 62.3,48.2 62.6,48.2 62.9,48.3 63.4,48.8 64,49.2 64.6,49.1 65.1,49.2 
		65,49.6 64.9,50.2 64.6,50.7 64.3,51.2 64.5,51.5 64.7,51.7 64.9,52.3 65,52.8 65,52.8 64.7,52.8 63.8,52.5 63.4,52.4 63.1,52.3 
		62.5,51.8 62.1,51.7 61.7,51.8 61.4,51.9 61,52 60.6,51.7 60.2,52.1 57.7,52.3 56.9,52.6 56.5,52.6 56.5,52.5 56.5,52.5 56.5,52 
		56.7,51.4 55.5,51.1 54.8,50.3 55.1,49.8 55.5,49.3 55.5,48.8 55.4,48.2 55.3,48.3 55.2,48.3 55.3,48 55.6,47.7 56.7,45.8 
		57.8,44.5 57.8,45.3 58.1,45.9 58.3,46.7 58.4,47.6 58.8,48.3 59.3,48.9 59.5,49.6 	"/>
	
		<polygon id="San_Juan" fill-rule="evenodd" clip-rule="evenodd" fill="#F2E355" stroke="#F9F9FA" stroke-width="0.25" stroke-linecap="round" stroke-linejoin="round" points="
		23.6,37 24.3,37.5 25.1,37.9 25.4,38 25.6,38.3 25.6,38.8 26,39.2 26.9,39.7 27.7,40 28.2,39.8 28.6,39.7 29.1,39.8 29.7,40 
		30,40.3 30.1,40.8 30,41.2 29.6,41.4 29.5,41.8 29.2,42 28.7,42.4 28.5,42.9 28.4,43.9 28.4,45 28.2,45.3 28,45.6 27.7,45.4 
		27.5,45.1 26.9,45.3 27,46.1 27,46.3 26.8,46.6 26.9,46.8 27,47.1 26.6,47.2 26.3,47.4 25.8,48.1 24.9,48.4 24.2,48 23.3,48.2 
		22.8,48.3 22.2,48.3 21.8,48.4 21.4,48.7 20.4,48.6 19.6,48.2 18.6,48 17.7,47.6 18,47 17.7,46.4 17.2,46.3 16.9,45.9 16.9,45.4 
		16.7,44.9 16.3,44.6 15.9,44.3 16.1,43.3 15.8,42.9 16,41.8 16.4,40.8 16.9,40.4 17.4,40.3 18,40.1 18.3,39.5 18.5,38.6 18.9,37.9 
		19.6,38 20.2,38.4 20.9,38.3 21.5,37.9 21.6,37.2 21.7,36.6 22.5,37 	"/>
	
		<polygon id="San_José_de_Ocoa" fill-rule="evenodd" clip-rule="evenodd" fill="#F2E355" stroke="#F9F9FA" stroke-width="0.25" stroke-linecap="round" stroke-linejoin="round" points="
		38.6,45.9 39.1,45.8 39.6,45.7 40.1,45.9 40.6,46.2 40.2,47.1 40.2,47.9 40.2,48.7 40,49.4 40.2,50 40.5,50.6 40,51.1 39.6,51.4 
		38.6,51.7 38.1,52.5 37.7,51.6 37.3,50.9 36.6,50.6 36,50.2 35.6,50 35.2,49.7 35.1,49.4 34.8,49.2 34.4,48.2 33.8,47.1 34.7,47.1 
		35.6,47.1 35.9,46.8 36.3,46.4 36.8,45.8 37,44.8 37.9,45.3 	"/>
	
		<polygon id="San_Cristóbal" fill-rule="evenodd" clip-rule="evenodd" fill="#F2E355" stroke="#F9F9FA" stroke-width="0.25" stroke-linecap="round" stroke-linejoin="round" points="
		44.1,46 44.1,46.9 44.7,47.8 44.5,48.2 44.4,48.7 44.6,49.4 45,50.1 45.4,50.4 45.8,50.9 45.9,51.2 46.1,51.5 46.5,51.5 46.9,51.5 
		47.2,51.8 47.2,52.3 47.3,52.4 47.3,52.4 47,52.5 46.6,52.9 46.3,53.4 46.1,54 46,54.2 45.6,54.4 45.5,54.6 45.4,54.8 44.8,55.4 
		44.3,56 44,56.2 43.9,56.1 43.9,56.1 43.9,56.1 43.7,55.7 43.7,55.3 43.4,55.1 43.2,54.8 43,54.6 42.9,54.3 42.5,53.8 42.1,53.4 
		42.2,52.9 42.7,52.6 42.8,52.1 42.2,51.8 41.4,51.1 40.5,50.6 40.2,50 40,49.4 40.2,48.7 40.2,47.9 40.2,47.1 40.6,46.2 41.3,46.2 
		41.6,45.5 41.8,44.9 42.5,44.6 42.8,45 43.2,45.4 43.7,45.6 	"/>
	
		<polygon id="Samaná" fill-rule="evenodd" clip-rule="evenodd" fill="#F2E355" stroke="#F9F9FA" stroke-width="0.25" stroke-linecap="round" stroke-linejoin="round" points="
		54.7,38.4 54.7,38.6 54.7,39.1 54.6,39.8 54.4,40.3 53.8,39.9 53.2,39.6 52.6,39.1 52.1,38.7 52.5,38.4 52.5,37.7 52.8,37.4 
		53.1,37.2 53.6,36.8 53.6,36.3 52.4,36 51.5,36.5 51.4,36 51.5,35.5 51.7,35 51.7,34.4 51.8,34.3 51.8,34.3 51.8,34.4 52.5,34.7 
		52.9,34.6 53.6,34.3 54,34.2 54.9,34.2 55.3,34.1 55.7,34 56.3,33.6 56.5,33.5 56.7,33.6 57.1,33.8 57.3,33.8 57.8,33.7 58,33.7 
		58.1,33.7 58.2,33.7 58.3,33.8 58.3,33.9 58.4,34 58.5,33.9 58.7,33.8 59.9,34.3 60.2,34.5 60.4,34.1 60.8,33.7 61.6,33.3 
		62.2,33.1 62.3,33.3 62.2,33.8 61.9,34.4 62.3,34.5 62.7,34.5 63.2,34.4 63.5,34.2 63.6,34.7 63.4,35 63,35.4 62.8,35.7 62.8,36.1 
		62.5,36.4 62.2,36.7 61.8,36.8 60.3,36.5 58.6,36.6 58.2,36.5 57.5,36.1 55,35.8 54.7,35.9 54.6,36.2 54.6,37.2 54.4,38 54.5,38.3 
			"/>
	
		<polygon id="Puerto_Plata" fill-rule="evenodd" clip-rule="evenodd" fill="#F2E355" stroke="#F9F9FA" stroke-width="0.25" stroke-linecap="round" stroke-linejoin="round" points="
		40.2,25.9 39.9,26.5 39.7,27 39.3,27.1 39,27.1 38.6,27.2 38.3,27.3 38.1,27.2 37.8,27.2 37.5,27.5 37.4,27.9 37.2,29 36.8,29.9 
		35.6,29.5 35,28.6 34.6,27.6 33.6,27.2 33.5,28.4 32.7,28.4 32.2,28 31.8,27.7 31.3,27.5 30.7,27.4 29.8,27.3 29.1,26.9 28.5,26.4 
		27.7,26.1 27.2,26 26.7,25.7 26.1,25.4 25.4,25.1 24.9,24.9 24.3,24.7 23.9,24.1 23.7,23.4 23.7,23.4 23.9,23.4 24,23.2 24,23 
		24.1,22.8 24.3,22.7 24.5,22.9 24.7,23.4 24.9,23.3 25,23.2 25,23.1 25.1,23 24.9,22.9 24.9,22.9 24.9,22.9 24.8,22.7 25.1,22.8 
		25.4,22.8 25.7,22.8 26,22.7 26.2,22.6 26.5,21.9 26.8,21.7 27,21.7 27.7,21.3 28,21.3 28.3,21.4 28.6,21.6 28.8,21.8 28.7,22.1 
		29.1,22.3 29.2,22.3 29.1,22 29.1,21.9 30,22 30.3,22 30.8,21.9 31.1,21.9 31.3,22 32.1,23 32.2,23.2 32.1,23.4 32.8,23.4 
		33.1,23.6 33.9,24.2 34.6,24.6 35.3,24.8 36.2,24.9 37.3,25 37.4,24.9 37.5,24.8 37.8,24.6 38,24.5 38.2,24.4 39,24.6 	"/>
	
		<polygon id="Peravia" fill-rule="evenodd" clip-rule="evenodd" fill="#F2E355" stroke="#F9F9FA" stroke-width="0.25" stroke-linecap="round" stroke-linejoin="round" points="
		43.9,56.1 43.4,56.1 43.1,56.2 42.8,56.3 42.5,56.1 42.1,56.1 39.7,56.1 39.3,56.2 38.5,56.6 38,56.7 36.7,56.7 36.4,56.6 
		36.3,56.4 36.5,56.3 36.7,56.2 36.7,56.1 36.7,55.8 36.6,55.7 36.4,55.6 36.3,55.4 36.2,55.4 36.2,55.4 37.2,55.2 37.9,54.4 
		37.9,53.8 38,53.2 38.2,52.9 38.1,52.5 38.6,51.7 39.6,51.4 40,51.1 40.5,50.6 41.4,51.1 42.2,51.8 42.8,52.1 42.7,52.6 42.2,52.9 
		42.1,53.4 42.5,53.8 42.9,54.3 43,54.6 43.2,54.8 43.4,55.1 43.7,55.3 43.7,55.7 43.9,56.1 	"/>
	<path id="Pedernales" fill="#F2E355" stroke="#F9F9FA" stroke-width="0.25" stroke-linecap="round" stroke-linejoin="round" d="
		M22.6,64l0-0.1l0,0l0,0l0-0.1l0-0.8l-0.3-0.7l-0.6,0l-0.5,0.1l-1-0.8l-0.4-1l0.1-0.2l0.2-0.1l0.2-0.1l0.1-0.2l0-0.4l0-0.4l0-0.8
		l-0.6-0.3l-0.6-0.5l-0.6-0.5l-0.7-0.3l-0.7-0.2l-1.6-0.8L14.1,55l0,0l-0.9,1.5l-0.2,0.4L13,57.2l0,0.2l0.2,0.6l0,0.2l0,0.3l0,0.6
		l-0.1,0.4L13,60.1l1.1,0.4l0.7,0.6l0.3,0.4l0.1,0.4l-0.1,0.8l0,0.2l0,0.1l0.2,0.3l0.3,0.6l0.1,0.3l0,0.4l-0.1,0.3l-0.6,0.6
		l-0.2,0.1l0.7,0.2l1.5-0.2l0.7,0.3l0.3,0.4l1.3,2.2l0.2,0.2l0,0.1l0.2,0.2l0.2,0.1l0.8-1.1l0.2-0.4l0.7-1.9l0.2-0.3l0.1-0.1
		l0.1-0.4l0.1-0.1l0.2,0l0.1-0.1l0.1-0.1l0.1-0.2h-0.1L22.6,64L22.6,64z M18.2,68.7L18,68.6L17.7,69l-0.2,0.5l0,0.4l0.3,0.2l0.3-0.1
		l0.5-0.5l0.3-0.1l-0.5-0.5L18.2,68.7z"/>
	
		<polygon id="Monte_Plata" fill-rule="evenodd" clip-rule="evenodd" fill="#F2E355" stroke="#F9F9FA" stroke-width="0.25" stroke-linecap="round" stroke-linejoin="round" points="
		52.1,38.7 52.6,39.1 53.2,39.6 53.8,39.9 54.4,40.3 55.2,41.1 56.3,41.7 57.3,42.2 58.3,42.7 59,42.8 59.3,43.1 58.9,43.4 
		58.6,43.7 58.1,44.1 57.8,44.5 56.7,45.8 55.6,47.7 54.9,47.4 54.2,47.6 53.8,47.8 53.4,47.9 52.3,48.3 51.4,49.3 51.3,48.7 
		50.9,48.3 50.7,47.9 50.5,47.5 50,47 49.5,46.6 49.1,46.6 48.6,46.6 48.4,46.6 48.1,46.7 48.1,46.8 48,47 47.2,47.4 46.3,47.2 
		45.6,47.1 45,46.8 44.7,46.2 44.1,46 43.7,45.6 43.2,45.4 42.8,45 42.5,44.6 42.6,43.9 43,43.5 44,43.3 44.8,43.1 45.2,42.7 
		45.7,42.6 46.1,42.7 46.5,42.8 46.7,42.4 47.1,42.5 47.7,42.8 48.3,42.4 48.6,41 48.9,39.7 49.4,39.7 49.7,39.3 49.7,39 49.8,38.8 
		50.8,38.7 	"/>
	
		<polygon id="Monte_Cristi" fill-rule="evenodd" clip-rule="evenodd" fill="#F2E355" stroke="#F9F9FA" stroke-width="0.25" stroke-linecap="round" stroke-linejoin="round" points="
		23.7,23.4 23.7,23.4 23.9,24.1 24.3,24.7 24.9,24.9 25.4,25.1 25.2,25.7 25.1,26.3 25.1,27 25.2,27.7 24.7,27.6 24.6,28.1 
		24.7,28.8 24.5,29.5 24.1,29.4 23.9,29.6 23.2,29.6 22.6,29.2 22.2,29.3 21.9,29.5 21.2,29.5 20.6,29.3 20.3,29 20.1,29.4 19.3,29 
		18.5,28.5 18.2,28 17.7,27.8 15.7,28.1 13.8,27.3 13.6,27.2 13.6,26.9 13.6,26.5 13.4,26 13.8,26.1 14.1,26.2 14,25.8 13.7,25 
		13.7,24.8 13.7,24.7 13.2,24.7 13.1,24.4 13.3,24.1 13.6,23.8 13.7,23.7 13.8,23.7 14,23.7 14.2,23.6 14.4,23.4 14.5,23.3 
		14.7,23.2 14.9,23.1 15.1,23.1 15.3,22.9 15.2,22.6 15.1,22.4 15.3,22.2 15.5,22.1 15.6,22.2 15.9,22.3 16,22.3 16.1,22.3 
		16.2,22.1 16.3,22 18.3,21.9 18.8,21.9 19.3,22.1 21.1,23.1 21.7,23.2 22.2,23 22.6,23.3 22.9,23.4 23.7,23.4 	"/>
	
		<polygon id="Monseñor_Noue" fill-rule="evenodd" clip-rule="evenodd" fill="#F2E355" stroke="#F9F9FA" stroke-width="0.25" stroke-linecap="round" stroke-linejoin="round" points="
		39.8,39 40,39.5 40.2,40 40.3,40.5 40.7,40.8 40.9,41 41,41.3 41.3,41.7 41.7,42 42.5,42.6 43,43.5 42.6,43.9 42.5,44.6 41.8,44.9 
		41.6,45.5 41.3,46.2 40.6,46.2 40.1,45.9 39.6,45.7 39.1,45.8 38.6,45.9 37.9,45.3 37,44.8 35.9,43.5 36.1,42.1 37.2,41.1 
		37.3,39.8 37.7,39 38.6,38.7 38.8,38.4 39.2,38.2 39.6,38.5 	"/>
	
		<polygon id="María_Trinidad_Sánchez" fill-rule="evenodd" clip-rule="evenodd" fill="#F2E355" stroke="#F9F9FA" stroke-width="0.25" stroke-linecap="round" stroke-linejoin="round" points="
		51.8,34.3 51.7,34.4 51.7,35 51.5,35.5 51.4,36 51.5,36.5 50.1,36.2 48.8,35.6 47.5,35.3 46.6,34.5 46.3,34 45.7,33.9 45.1,33.4 
		44.8,32.6 44.8,31.9 44.5,31.2 43.9,30.8 43.2,30.3 43.3,29.8 43.4,29.2 43.8,29.2 44.2,29.2 45.2,28.7 45.5,27.6 45.5,27.5 
		45.5,27.5 46.2,26.8 46.5,26.6 47.6,26.6 48.1,26.6 48.4,26.6 48.7,26.8 49.3,27.5 49.5,28 49.5,28.5 49.2,29.6 49.6,29.8 
		49.7,30.1 49.7,31.1 49.8,31.5 49.9,31.8 51.2,33.7 	"/>
	
		<polygon id="La_Vega" fill-rule="evenodd" clip-rule="evenodd" fill="#F2E355" stroke="#F9F9FA" stroke-width="0.25" stroke-linecap="round" stroke-linejoin="round" points="
		36.6,33.4 37,33.2 37.4,33.1 37.8,34.1 38.3,34 38.6,34.7 39,35.3 39.5,35.9 40.3,35.9 41,36.9 41.9,37.5 42,37.6 42,37.6 
		41.6,37.8 41.1,38 40.3,38.4 39.8,39 39.6,38.5 39.2,38.2 38.8,38.4 38.6,38.7 37.7,39 37.3,39.8 37.2,41.1 36.1,42.1 35.9,43.5 
		37,44.8 36.8,45.8 36.3,46.4 35.9,46.8 35.6,47.1 34.7,47.1 33.8,47.1 34.1,45.9 33.4,45.1 32.2,44.5 31.4,43.3 31.1,41.4 
		30.1,40.8 30,40.3 29.7,40 29.7,39.5 29.6,39.1 30.2,38.8 30.8,38.5 32,38 33,37.2 33.2,36.6 33.7,36.6 34.2,36.7 34.1,36.1 
		34.2,35.4 33.9,34.9 33.4,34.7 32.9,34.4 33,34 33.5,33.8 34.5,33.3 35.5,33 36,33.3 	"/>
	
		<polygon id="La_Romana" fill-rule="evenodd" clip-rule="evenodd" fill="#F2E355" stroke="#F9F9FA" stroke-width="0.25" stroke-linecap="round" stroke-linejoin="round" points="
		68.6,52.7 68.2,52.5 67.4,52.4 66.4,52.8 65,52.8 64.9,52.3 64.7,51.7 64.5,51.5 64.3,51.2 64.6,50.7 64.9,50.2 65.9,49.6 
		66.6,48.6 67.1,47.7 67.9,47.3 68.2,48.1 68.6,48.8 69.1,49.2 69.5,49.7 69.5,50.3 69.3,50.9 68.9,51.9 68.6,52.7 	"/>
	<path id="La_Altagracia" fill="#F2E355" stroke="#F9F9FA" stroke-width="0.25" stroke-linecap="round" stroke-linejoin="round" d="
		M74.6,57.8l-0.2-0.3l-0.3-0.1l-1,0l-0.9-0.1L72,57.2L71.8,57l-0.3-0.2l-0.3-0.1l-0.3,0.1l0.2,0.5l0.3,0.5l0.5,0.4l0.7,0.2l0.3,0
		l0.6-0.2l0.3,0l0.3,0.1l0.6,0.3l0.3,0.1l0-0.2l-0.1-0.4L74.6,57.8z M79.1,47.5L78,46.9L77.1,46L77,45.9l-0.2-0.1l-0.8-0.6l-1.2-0.9
		l-0.8-1l-2.2-2.1l-0.2-0.1l-0.3,0L71,41l-0.2-0.1l-0.4,0.5l-0.6,0.4l0,0.3l-0.1,0.2l-0.1,0.9l0.5,1l-0.4,1.2l-1,0.8l-0.5,0.1
		l-0.4,0.3l-0.1,0.4l0.1,0.4l0.3,0.7l0.4,0.7l0.5,0.4l0.4,0.5l0,0.6l-0.3,0.6l-0.3,0.9l-0.3,0.8l0,0l0.4,0.2l0.6,0.4l0.6,0.7l0.6,1
		l0.5,1l0,0.7l0.3,0.1l1.6-0.1l0.2-0.1l0.1-0.2l0.3-1.2l0.2-0.4l0.2-0.3l0.2-0.4l-0.1-0.4l-0.1-0.3l0.3-0.2l0.3,0.1l0.8,0.5l0.4,0.1
		h0.5l0.4,0l0.3-0.2l0.2-0.3l0-0.2l0-0.7l0.1-0.2l0.1-0.1l0.1-0.1l1.8-2.8l0.1-0.8L79.1,47.5z"/>
	
		<polygon id="Independencia" fill-rule="evenodd" clip-rule="evenodd" fill="#F2E355" stroke="#F9F9FA" stroke-width="0.25" stroke-linecap="round" stroke-linejoin="round" points="
		17.7,47.6 17.1,47.8 16.4,48 16.4,48.2 16.4,48.5 16.3,49 16,49.4 16.6,51.2 18.6,51.9 19.3,52.3 20,52.7 20.8,52.9 21.5,52.6 
		22.4,52.7 22.9,53.6 23.5,54.1 24.2,54 23.5,54.9 22.5,55.1 21.5,54.8 20.7,55 20.9,56.2 21.2,57.3 20.8,57.3 20.3,57.2 20,57.6 
		19.9,58.1 19.3,57.6 18.7,57.1 18.1,56.9 17.4,56.7 15.7,55.9 14.1,55 14.1,54.9 14.1,54.9 14.3,54.5 14.3,54.5 14.1,54.3 
		13.8,54.1 12.8,53.7 12.1,53.2 11.9,53.1 11.6,52.6 11.5,52.5 10.7,52.3 10.4,52.1 10.3,51.8 10.4,51.5 10.5,51.4 10.6,51.3 
		10.6,51 10.4,50.8 8.7,49 8.5,48.7 8.9,48.5 9.6,48.3 11,48.6 11.8,48.3 12,48 12.4,47.4 12.7,47.1 12.7,47 12.9,47 13.9,47.1 
		15.2,47.3 16.5,47.4 	"/>
	
		<polygon id="Hermanas_Mirabal" fill-rule="evenodd" clip-rule="evenodd" fill="#F2E355" stroke="#F9F9FA" stroke-width="0.25" stroke-linecap="round" stroke-linejoin="round" points="
		42.8,30.3 42.7,30.8 42.5,31.5 42,31.9 41.1,32.3 40.8,33.2 40.6,34.2 40.3,35 40.3,35.9 39.5,35.9 39,35.3 38.6,34.7 38.3,34 
		38.7,32.8 38.8,31.6 38.8,30.3 39.5,29.5 39.8,29.6 40.1,29.8 40.4,30.3 40.8,30 41.2,29.4 41.8,29.1 42.3,29.6 	"/>
	
		<polygon id="Hato_Mayor" fill-rule="evenodd" clip-rule="evenodd" fill="#F2E355" stroke="#F9F9FA" stroke-width="0.25" stroke-linecap="round" stroke-linejoin="round" points="
		62.6,40.1 62.6,40.2 62.6,40.2 62.5,41.3 63,42.2 61.4,41.9 60.3,42.1 61,43.5 62.1,44.6 62.4,45.5 62.3,46.3 62,47.1 61.8,47.9 
		61.1,48.3 60.8,49.1 60.4,49.6 59.8,50.3 59.5,49.6 59.3,48.9 58.8,48.3 58.4,47.6 58.3,46.7 58.1,45.9 57.8,45.3 57.8,44.5 
		58.1,44.1 58.6,43.7 58.9,43.4 59.3,43.1 59,42.8 58.3,42.7 57.3,42.2 56.3,41.7 55.2,41.1 54.4,40.3 54.6,39.8 54.7,39.1 
		54.7,38.6 54.7,38.4 54.7,38.4 54.9,38.6 56,38.4 56.4,38.6 56.8,38.4 57.7,38.8 58.2,38.7 58.1,38.6 57.9,38.5 57.7,38.5 
		57.5,38.4 57.5,38.3 58.6,38.2 58.9,38.3 59.2,38.6 59.5,39.2 59.8,39.4 60.1,39.5 60.8,39.6 	"/>
	
		<polygon id="Espaillat" fill-rule="evenodd" clip-rule="evenodd" fill="#F2E355" stroke="#F9F9FA" stroke-width="0.25" stroke-linecap="round" stroke-linejoin="round" points="
		45.5,27.5 45.5,27.5 45.5,27.6 45.2,28.7 44.2,29.2 43.8,29.2 43.4,29.2 43.3,29.8 43.2,30.3 43,30.3 42.8,30.3 42.3,29.6 
		41.8,29.1 41.2,29.4 40.8,30 40.4,30.3 40.1,29.8 39.8,29.6 39.5,29.5 38.8,30.3 38.8,31.6 38.7,32.8 38.3,34 37.8,34.1 37.4,33.1 
		37,33.2 36.6,33.4 36,33.3 35.5,33 35.8,32.8 36.1,32.5 36.1,32.1 36,31.6 36.1,31.1 36.4,30.7 36.7,30.3 36.8,29.9 37.2,29 
		37.4,27.9 37.5,27.5 37.8,27.2 38.1,27.2 38.3,27.3 38.6,27.2 39,27.1 39.3,27.1 39.7,27 39.9,26.5 40.2,25.9 40.2,25.9 40.9,26.6 
		41.2,26.9 41.5,27.1 41.9,27.2 42.8,27.3 43.5,27.5 44.8,27.8 45.1,27.8 45.3,27.7 45.5,27.6 	"/>
	
		<polygon id="Elías_Piña" fill-rule="evenodd" clip-rule="evenodd" fill="#F2E355" stroke="#F9F9FA" stroke-width="0.25" stroke-linecap="round" stroke-linejoin="round" points="
		21.7,36.6 21.6,37.2 21.5,37.9 20.9,38.3 20.2,38.4 19.6,38 18.9,37.9 18.5,38.6 18.3,39.5 18,40.1 17.4,40.3 16.9,40.4 16.4,40.8 
		16,41.8 15.8,42.9 16.1,43.3 15.9,44.3 16.3,44.6 16.7,44.9 16.9,45.4 16.9,45.9 17.2,46.3 17.7,46.4 18,47 17.7,47.6 16.5,47.4 
		15.2,47.3 13.9,47.1 12.9,47 13.4,46.6 13.7,46.4 13.9,46 14,45.7 14.1,45.3 14.1,44.9 14,44.1 14,43.3 13.9,42.9 13.7,42.7 
		13.3,42.3 13.1,42.1 12.8,41.5 12.6,41.4 12.2,41.4 11.7,41.5 11.4,41.6 11.3,41.2 11.6,41 12.6,40.7 12.9,40.6 13.7,39.7 
		14.3,38.8 14.6,38.6 15.3,38.1 15.5,37.8 15.6,37.4 15.7,36.2 15.4,36.1 15.8,35.8 16.2,35.5 16.6,35.4 16.7,35 16.9,34.7 
		17.4,34.8 17.9,35 18.3,34.7 18.6,34.4 19.4,34.9 20,35.7 20.9,36.2 	"/>
	
		<polygon id="El_Seibo" fill-rule="evenodd" clip-rule="evenodd" fill="#F2E355" stroke="#F9F9FA" stroke-width="0.25" stroke-linecap="round" stroke-linejoin="round" points="
		70.8,40.9 70.5,41.4 69.9,41.8 69.9,42.1 69.8,42.3 69.7,43.2 70.2,44.2 69.8,45.3 68.8,46.1 68.3,46.2 67.9,46.5 67.8,46.9 
		67.9,47.3 67.1,47.7 66.6,48.6 65.9,49.6 64.9,50.2 65,49.6 65.1,49.2 64.6,49.1 64,49.2 63.4,48.8 62.9,48.3 62.6,48.2 62.3,48.2 
		62,48 61.8,47.9 62,47.1 62.3,46.3 62.4,45.5 62.1,44.6 61,43.5 60.3,42.1 61.4,41.9 63,42.2 62.5,41.3 62.6,40.2 62.6,40.2 
		62.6,40.1 62.6,40.1 63.3,40.3 63.6,40.3 64,40.1 63.9,39.9 63.6,39.8 63.6,39.6 64,39.5 64.3,39.7 64.7,40.4 65,40.6 65.2,40.6 
		65.5,40.8 65.6,41 65.9,40.8 66.3,40.6 66.5,40.4 66.4,40.2 66.5,40.2 66.6,40.2 66.8,40.1 67,39.9 67.1,39.8 67.2,39.8 67.8,39.9 
		68.2,40 68.6,40.1 68.9,40.3 69,40.3 69,40.4 69,40.5 69.1,40.5 69.5,40.7 69.5,40.7 70.2,40.8 70.6,40.8 70.8,40.9 70.8,40.9 	"/>
	
		<polygon id="Duarte" fill-rule="evenodd" clip-rule="evenodd" fill="#F2E355" stroke="#F9F9FA" stroke-width="0.25" stroke-linecap="round" stroke-linejoin="round" points="
		43.2,30.3 43.9,30.8 44.5,31.2 44.8,31.9 44.8,32.6 45.1,33.4 45.7,33.9 46.3,34 46.6,34.5 47.5,35.3 48.8,35.6 50.1,36.2 
		51.5,36.5 52.4,36 53.6,36.3 53.6,36.8 53.1,37.2 52.8,37.4 52.5,37.7 52.5,38.4 52.1,38.7 50.8,38.7 49.8,38.8 49.7,39 49.7,39.3 
		49.4,39.7 48.9,39.7 49.1,39.2 49.1,38.6 48.7,38.3 48.2,38.2 47.6,38.1 47,38.1 46.6,38 46.1,37.8 45.6,37.6 45.1,37.5 44.2,37.4 
		43.4,37.4 43,37.5 42.6,37.4 42.2,37.3 41.8,37.5 41.9,37.4 41.9,37.5 41,36.9 40.3,35.9 40.3,35 40.6,34.2 40.8,33.2 41.1,32.3 
		42,31.9 42.5,31.5 42.7,30.8 42.8,30.3 43,30.3 	"/>
	
		<polygon id="Distrito_Nacional" fill-rule="evenodd" clip-rule="evenodd" fill="#F2E355" stroke="#F9F9FA" stroke-width="0.25" stroke-linecap="round" stroke-linejoin="round" points="
		48.8,50.7 49.2,50.6 49.7,50.7 49.7,51.3 49.7,51.3 49.6,51.3 49.3,51.4 48.7,51.7 48.2,52 48,52.1 47.7,52.2 47.7,52.2 47.8,51.5 
		47.4,50.8 47.5,50.3 48,50 48.2,50.3 48.4,50.7 	"/>
	
		<polygon id="Dajabón" fill-rule="evenodd" clip-rule="evenodd" fill="#F2E355" stroke="#F9F9FA" stroke-width="0.25" stroke-linecap="round" stroke-linejoin="round" points="
		15.7,28.1 17.7,27.8 18.2,28 18.5,28.5 19.3,29 20.1,29.4 19.6,30.1 19.4,31 19.4,31.4 19.3,31.9 19,33.2 18.1,33.6 18.3,34 
		18.6,34.4 18.3,34.7 17.9,35 17.4,34.8 16.9,34.7 16.7,35 16.6,35.4 16.2,35.5 15.8,35.8 15.4,36.1 14.2,35.4 13.5,34.8 13.5,34.7 
		13.1,34.2 13,33.8 13.2,33.7 13.7,33.4 13.9,33.2 14.1,32.6 14.2,32.5 14.4,32 14.4,31.1 14.2,29.5 13.7,28.2 13.6,27.8 13.6,27.2 
		13.8,27.3 	"/>
	
		<polygon id="Barahona" fill-rule="evenodd" clip-rule="evenodd" fill="#F2E355" stroke="#F9F9FA" stroke-width="0.25" stroke-linecap="round" stroke-linejoin="round" points="
		27.7,50.7 27.9,51 28,51.7 27.6,52.2 27,52.7 27.1,52.9 27.2,53.1 27.4,53.3 27.6,53.4 28.3,53.6 28.8,53.7 28.8,54 28.8,54.4 
		29,55.1 28.7,55.6 28.7,55.6 28.7,55.6 28.6,55.4 28.5,55.2 28.3,55 28.1,54.9 27.9,54.8 27.1,54.6 26.7,54.6 26.4,54.7 26.3,55 
		26.2,55.2 26.1,55.5 26,55.7 26.1,56 26.2,56.1 26.3,56.2 26.4,56.5 26.7,57.6 26.8,57.8 26.9,58 26.5,58.6 26.2,59.4 24.3,62.1 
		24.2,62.5 24.1,62.7 23.9,62.8 23.5,63 23.3,63.2 23.1,63.4 23,63.7 22.9,64 22.7,64 22.7,63.9 22.6,63.9 22.6,63.9 22.6,63.8 
		22.6,63 22.3,62.3 21.7,62.3 21.2,62.4 20.3,61.6 19.8,60.6 20,60.4 20.2,60.3 20.4,60.3 20.5,60 20.5,59.7 20.5,59.3 20.5,58.5 
		19.9,58.1 20,57.6 20.3,57.2 20.8,57.3 21.2,57.3 20.9,56.2 20.7,55 21.5,54.8 22.5,55.1 23.5,54.9 24.2,54 24.2,53.4 24.5,52.8 
		24.9,52.6 25.2,52.4 25.4,52.1 25.7,51.8 26.3,51.6 26.8,51.2 27.1,50.7 27.4,50.2 	"/>
	
		<polygon id="Baoruco" fill-rule="evenodd" clip-rule="evenodd" fill="#F2E355" stroke="#F9F9FA" stroke-width="0.25" stroke-linecap="round" stroke-linejoin="round" points="
		21.4,48.7 21.8,48.4 22.2,48.3 22.8,48.3 23.3,48.2 24.2,48 24.9,48.4 25.8,49.3 27,49.7 27.6,49.8 28.2,50.2 28.2,50.5 27.7,50.7 
		27.4,50.2 27.1,50.7 26.8,51.2 26.3,51.6 25.7,51.8 25.4,52.1 25.2,52.4 24.9,52.6 24.5,52.8 24.2,53.4 24.2,54 23.5,54.1 
		22.9,53.6 22.4,52.7 21.5,52.6 20.8,52.9 20,52.7 19.3,52.3 18.6,51.9 16.6,51.2 16,49.4 16.3,49 16.4,48.5 16.4,48.2 16.4,48 
		17.1,47.8 17.7,47.6 18.6,48 19.6,48.2 20.4,48.6 	"/>
	
		<polygon id="Azua" fill-rule="evenodd" clip-rule="evenodd" fill="#F2E355" stroke="#F9F9FA" stroke-width="0.25" stroke-linecap="round" stroke-linejoin="round" points="
		33.8,47.1 34.4,48.2 34.8,49.2 35.1,49.4 35.2,49.7 35.6,50 36,50.2 36.6,50.6 37.3,50.9 37.7,51.6 38.1,52.5 38.2,52.9 38,53.2 
		37.9,53.8 37.9,54.4 37.2,55.2 36.2,55.4 36.2,55.4 35.9,55.2 35.8,55 35.9,54.8 36,54.7 36.1,54.6 36.2,54.5 36.3,54.1 36.3,53.7 
		36.3,53.3 36.2,53 35.7,52.5 35.5,52.3 35,52.2 34.6,52.1 34.2,52 33.8,52.1 33.6,52.5 33.6,52.9 33.6,53.1 33,53.7 32.9,53.8 
		32.7,53.8 32.4,53.8 32,53.7 31.9,53.7 31.7,53.7 31.4,53.9 31.3,54 31,53.9 30.9,54 30.7,54.2 30.7,54.2 30.6,54.5 30.5,54.6 
		30.5,54.7 30.2,54.7 30.1,54.8 29.6,55.4 29.3,55.6 28.9,55.6 28.7,55.6 28.7,55.6 29,55.1 28.8,54.4 28.8,54 28.8,53.7 28.3,53.6 
		27.6,53.4 27.4,53.3 27.2,53.1 27.1,52.9 27,52.7 27.6,52.2 28,51.7 27.9,51 27.7,50.7 28.2,50.5 28.2,50.2 27.6,49.8 27,49.7 
		25.8,49.3 24.9,48.4 25.8,48.1 26.3,47.4 26.6,47.2 27,47.1 26.9,46.8 26.8,46.6 27,46.3 27,46.1 26.9,45.3 27.5,45.1 27.7,45.4 
		28,45.6 28.2,45.3 28.4,45 28.4,43.9 28.5,42.9 28.7,42.4 29.2,42 29.5,41.8 29.6,41.4 30,41.2 30.1,40.8 31.1,41.4 31.4,43.3 
		32.2,44.5 33.4,45.1 34.1,45.9 	"/>
</g>
<g>
	<g>
		<rect x="-20.1" y="90.5" fill="none" width="128.6" height="65"/>
		<text transform="matrix(1 0 0 1 13.4909 99.804)"><tspan x="0" y="0" fill="#818281" font-family="'ArialMT'" font-size="13px">Dominican</tspan><tspan x="5.4" y="15.6" fill="#818281" font-family="'ArialMT'" font-size="13px">Republic</tspan></text>
	</g>
</g>
</svg>
