<?xml version="1.0" encoding="utf-8"?>
<!-- Generator: Adobe Illustrator 23.0.1, SVG Export Plug-In . SVG Version: 6.00 Build 0)  -->
<svg version="1.0" id="Countries" xmlns="http://www.w3.org/2000/svg" xmlns:xlink="http://www.w3.org/1999/xlink" x="0px" y="0px"
	 viewBox="0 0 87 130" enable-background="new 0 0 87 130" xml:space="preserve">
<circle fill="#DAF1F9" stroke="#FFFFFF" stroke-width="0.25" cx="43.9" cy="41.6" r="39"/>
<g id="Spain">
	<path id="Valenica" fill="#F47C58" stroke="#F9F9FA" stroke-width="0.25" stroke-linecap="round" stroke-linejoin="round" d="
		M68,38.1L67.7,38l0,0l0,0l0,0v0l0,0l0,0l-0.1-0.1l-0.3-0.1l-0.1,0l0,0l0-0.1l0,0l0,0l0,0l0,0l0,0l0,0l-0.1,0l0,0l0,0l0,0l0,0
		l-0.1,0l-0.1,0l-0.1,0l-0.1,0l-0.1,0l0,0l0,0l0,0l0,0l0,0l0,0l0,0l0,0l0,0l0,0l0,0l-0.1,0l-0.2,0l-0.1,0L65.6,37l-0.1,0l0,0l0,0
		l-0.1,0l-0.1,0l0,0L65.3,37l0,0l0,0l0,0.1l0,0.1l0,0l0,0l0,0L65,37.4l0,0l0,0l0,0l-0.1,0l-0.1,0l0,0l0,0l0,0l0,0l0,0l0,0l0,0.1l0,0
		l0,0l0,0l0,0l0,0l0,0l0,0l0.1,0l0,0l0,0l0,0.1l0,0l0,0l0,0.1l0,0l0,0l0,0.1l0,0l0,0l0,0l0,0l0.1,0l0,0l0,0.1l0,0l0,0l0,0l-0.2,0.1
		l0,0l0,0l0,0l0,0l0,0l0.1,0l0,0l0,0.1l0,0l0,0l0,0l0,0L64.8,39l0,0l-0.1,0.1l0,0l-0.1,0.1l0,0l0,0l0,0l0,0l0,0l0,0l-0.1,0.1l0,0
		l-0.1,0l0,0l0,0l0,0l0,0l-0.1,0l0,0l0,0l0,0l0,0l0,0l0,0.1l0,0l0,0l0,0.1l0,0l0,0l0,0.1l0,0l0,0l0,0l-0.1,0.1l0,0l0,0l0,0l0,0.1
		l0,0l-0.3,0.1l-0.1,0l-0.1,0l0,0l0,0l0,0l0,0.1l0,0l0,0l0,0l0,0l0,0l-0.1,0l0,0l0,0l0,0.1l0,0l0,0l0,0l0,0.1l0,0.1l0,0l0,0l0,0l0,0
		L63,41.4l0,0l-0.1,0l0,0l0,0l0,0l0,0l0,0l0,0l0,0l0,0l0,0l0,0l0,0l0,0l0,0l0,0l-0.1-0.1l-0.2-0.1l-0.1,0l0,0l-0.1,0l-0.1,0l-0.1,0
		l-0.1,0l0,0l-0.1,0l-0.1,0l0,0l-0.1,0.1l0,0l0,0l0,0l0,0l0,0l0,0l0,0.1l0,0.1l0,0.1l-0.1,0.2l0,0.1l0,0l0,0.1l-0.1,0.2l0,0l0,0l0,0
		l0,0.1l0,0l0,0l0,0l0,0l0,0l0,0l-0.1,0l0,0l0,0l-0.1,0l0,0l0,0l0,0l-0.1,0.1l-0.1,0.1l0,0l-0.1,0.3l0,0.1l0,0l0,0l0,0l0,0.1l0,0
		l0,0l0,0l0,0l0,0l0,0l0,0l0,0l0,0l0,0l0,0l0,0l0,0l0,0l0,0l0,0l0,0l0,0l0,0l0,0.1l0,0.1l0,0l0,0l0,0l0,0l0,0l0,0l0,0l0.1,0l0,0l0,0
		l0,0l0,0l0,0l0,0l0,0l0,0l0,0l0,0l0,0l0,0l0,0l0,0l0,0l0,0l0,0l0,0l0.1,0l0.2,0.1l0,0l0,0l0,0l0.5,0.2l0,0l0,0l0,0l0,0l0,0.1l0,0
		l0,0l0,0l0,0.1l0,0l0,0l0,0l0,0l0,0l0,0.1l0,0l0,0l0,0.1l0,0l0,0.1l0,0l0,0.1l0,0l0,0l0,0l0,0l0,0l0,0.1l0,0l0.4,0.4l0.1,0l0,0
		l0.1,0l0.1,0l0.1,0l0.1,0l0.1,0l0,0l0,0l0,0l0,0l0,0l0.1,0.2l0,0l0,0l0,0.1l0,0l0,0.1l0,0l0,0l0,0l0,0.1l-0.1,0.1l0,0l0,0l0,0
		l0,0.1l0,0.1l0,0.1l0,0l0,0.1l0,0l0,0v0l0,0L62.6,47l-0.1,0l-0.1,0l-0.1,0l0,0l-0.1,0l0.1,0.3l0,0.1l0,0.1l0,0.1l0,0.1l0,0l0,0l0,0
		L62.1,48l0,0l0,0.1l0,0.1l0,0.2l0,0.1l0,0l0,0l0.1,0l0.1,0l0,0l0,0l0,0.1l0.1,0.2l0,0.1l0,0.1l0,0l0,0.1l0,0l0,0.1l-0.1,0.2l0,0.1
		l0,0.1l0,0.1l0,0.1l0,0l0,0l0,0l0,0l0.1,0.1l0.1,0.1l0,0l0,0l0,0.1l0,0l0.1,0.1l0,0.1l0,0l0.1,0.1l0,0l0.2,0.2l0,0l0.1,0l0,0l0,0
		l0,0l0,0l0,0l0.1,0l0,0l0,0l0-0.1l0.1-0.4l0-0.1l0.1-0.1l0.1,0l0,0l0-0.1l0-0.3l0-0.2l0-0.1l0-0.1l0-0.1l0.1-0.1l0.1-0.1l0.1,0
		l0.1,0l0.1,0l0-0.1l-0.1-0.4l0-0.2l0.1,0l0-0.1l0,0l0.1,0l0.1,0l0,0l0,0l0-0.1l0-0.1l0.1-0.2l0,0l0-0.1l0.1,0l0.4-0.1l0.1-0.1
		l0.1,0l0.2,0h0.2l0.1,0l0.1-0.1l0-0.1l0-0.1l0-0.1l0-0.1l0.1,0l0.1,0l0.1,0l0.1,0l0,0l0.1,0l0.1,0l0-0.1l0-0.1l0,0l0,0l0,0l0,0
		l0.1,0l0,0l0,0l0-0.1l0.1,0l0.1,0l0.1,0l0.1,0l0,0l0-0.1l0-0.1l0,0l-0.1-0.1l0,0l0,0l0,0l0,0l-0.1-0.1l-0.2-0.1l-0.2-0.1l-0.2,0
		L66,46L65.9,46l-0.1-0.1l-0.1-0.1l-0.1-0.1l-0.1-0.2l-0.1-0.2l-0.1-0.2l-0.1-0.2l0-0.2l0-0.1l0.1,0l0,0l0-0.1l0-0.1L65,43.9
		l-0.1-0.3l0-0.2l0-0.2l0-0.2l0-0.1l0.1-0.2l0-0.1l0-0.1l0-0.1l0.1-0.1l0.1-0.1l0-0.1l0-0.1l0-0.1l0-0.1l0.4-0.6l0.2-0.3l0.1-0.1
		l0.2-0.3l0.1-0.1l0.2-0.1l0.1-0.1l0.2-0.4l0.2-0.2l0.1-0.2l0-0.1l0.1-0.1l0-0.1l0.3-0.5l0.1-0.1l0-0.1l0-0.1l0.1-0.1l0.1-0.1
		L68,38.1L68,38.1L68,38.1z M60.8,40.1L60.8,40.1l0.1,0.1l0,0l0,0.1l0.1,0.3l0,0l0,0l0,0l0.2,0l0.1,0l0.1,0l0,0l0,0l0,0l0.1,0l0.1,0
		l0,0l0.1,0l0.1,0l0.2-0.1l0,0l0,0l0,0l0,0l0,0l0-0.1l-0.1-0.1l-0.1-0.1l-0.2,0l-0.1,0l0,0l0,0l0,0l0,0l0,0l0,0l0,0l0,0l0,0l0-0.1
		l0-0.1l0,0l0,0l0,0l0,0l0,0l0,0.1l0,0l0,0l-0.1,0l-0.1,0l-0.1,0l-0.2,0L60.8,40.1L60.8,40.1L60.8,40.1z"/>
	
		<polygon id="La_Rioja" fill-rule="evenodd" clip-rule="evenodd" fill="#F47C58" stroke="#F9F9FA" stroke-width="0.25" stroke-linecap="round" stroke-linejoin="round" points="
		59.9,30.2 59.8,30.1 59.8,30.1 59.9,30.1 59.9,30.1 59.9,30 59.8,30 59.8,30 59.8,29.9 59.7,29.8 59.6,29.8 59.5,29.7 59.4,29.6 
		59.3,29.6 59.3,29.6 59.3,29.6 59.2,29.6 59.2,29.5 59.2,29.5 59.2,29.4 59.2,29.4 59.1,29.3 58.8,29 58.6,29 58.5,29 58.5,28.9 
		58.5,28.9 58.5,28.8 58.5,28.8 58.4,28.7 58.3,28.7 58.1,28.7 58,28.7 58,28.7 57.9,28.7 57.9,28.6 57.8,28.6 57.7,28.5 57.7,28.5 
		57.5,28.5 57.3,28.5 57.2,28.5 57.1,28.5 57,28.4 56.9,28.4 56.9,28.3 56.8,28.3 56.8,28.3 56.8,28.3 56.8,28.4 56.8,28.4 
		56.8,28.4 56.8,28.4 56.8,28.4 56.7,28.4 56.7,28.4 56.6,28.4 56.6,28.5 56.6,28.4 56.5,28.4 56.5,28.4 56.5,28.4 56.4,28.4 
		56.4,28.4 56.3,28.3 56.2,28.3 56.2,28.3 56.2,28.2 56.2,28.1 56.2,28.1 56.2,28 56.2,28 56.1,28 56,27.9 56,27.9 55.9,27.9 
		55.9,27.9 55.9,27.9 55.9,28 55.8,28 55.8,28 55.7,28 55.7,28 55.7,28 55.7,28 55.7,27.9 55.7,27.9 55.7,27.9 55.7,27.9 55.6,27.8 
		55.6,27.8 55.6,27.7 55.4,27.8 55.3,27.8 55.2,27.8 55,27.7 54.8,27.8 54.8,27.8 54.8,27.8 54.8,27.9 54.8,27.9 54.8,28 54.8,28 
		54.8,28 54.8,28.1 54.7,28.1 54.6,28.2 54.6,28.2 54.6,28.3 54.7,28.3 54.7,28.3 54.7,28.3 54.8,28.3 54.8,28.3 54.8,28.3 
		54.8,28.3 54.8,28.4 54.7,28.5 54.7,28.5 54.7,28.5 54.8,28.6 54.8,28.6 54.8,28.6 54.9,28.7 54.9,28.7 54.9,28.7 54.8,28.8 
		54.8,28.9 54.8,29 54.8,29 54.8,29 54.8,29.2 54.8,29.2 54.7,29.2 54.6,29.2 54.6,29.2 54.7,29.3 54.7,29.3 54.7,29.3 54.7,29.4 
		54.7,29.4 54.7,29.5 54.7,29.5 54.7,29.6 54.7,29.6 54.7,29.6 54.7,29.7 54.7,29.9 54.6,29.9 54.6,29.9 54.6,30 54.7,30.1 
		54.7,30.2 54.8,30.3 54.8,30.3 54.8,30.3 54.9,30.4 54.9,30.4 54.9,30.4 54.9,30.5 55,30.5 55.1,30.5 55.1,30.5 55.1,30.5 
		55.2,30.5 55.2,30.5 55.3,30.5 55.3,30.5 55.3,30.6 55.3,30.6 55.3,30.6 55.3,30.6 55.4,30.8 55.5,30.9 55.6,30.8 55.7,30.7 
		55.8,30.7 55.8,30.7 55.8,30.6 55.8,30.6 55.8,30.5 55.8,30.5 55.8,30.5 55.8,30.4 55.9,30.4 55.9,30.3 56,30.3 56.1,30.3 
		56.1,30.4 56.1,30.4 56.1,30.4 56.1,30.5 56.1,30.5 56.1,30.6 56,30.6 56,30.6 56,30.7 56,30.7 56,30.8 56,30.8 56,30.8 56,30.8 
		56.1,30.8 56.1,30.9 56.2,30.9 56.2,30.9 56.3,30.9 56.3,30.9 56.3,30.9 56.4,30.9 56.5,30.9 56.6,30.9 56.6,30.9 56.6,30.9 
		56.6,30.9 56.7,30.8 56.7,30.7 56.7,30.7 56.7,30.7 56.8,30.7 56.8,30.6 56.8,30.6 56.8,30.6 56.8,30.5 56.8,30.4 56.8,30.4 
		56.8,30.4 56.9,30.4 56.9,30.4 57,30.4 57.1,30.3 57.1,30.3 57.2,30.2 57.4,30.2 57.6,30.3 57.7,30.3 57.7,30.3 57.7,30.3 
		57.7,30.4 57.7,30.4 57.7,30.4 57.7,30.5 57.8,30.5 57.8,30.5 58,30.4 58.1,30.4 58.2,30.4 58.2,30.4 58.2,30.5 58.3,30.5 
		58.3,30.5 58.2,30.5 58.2,30.6 58.2,30.6 58.2,30.6 58.2,30.6 58.2,30.7 58.2,30.7 58.2,30.8 58.3,30.8 58.3,30.9 58.3,30.9 
		58.3,30.9 58.3,30.9 58.3,30.9 58.3,31 58.3,31 58.3,31 58.3,31 58.3,31.1 58.3,31.1 58.4,31.2 58.6,31.2 58.6,31.2 58.7,31.3 
		58.8,31.3 58.8,31.3 58.8,31.3 58.9,31.3 59,31.3 59,31.3 59.1,31.3 59.1,31.2 59.2,31.2 59.3,31 59.3,31 59.3,30.9 59.1,30.8 
		59.1,30.8 59.1,30.7 59.1,30.7 59.1,30.6 59.1,30.6 59.1,30.6 59.2,30.4 59.3,30.3 59.3,30.3 59.3,30.3 59.3,30.2 59.4,30.2 
		59.4,30.2 59.4,30.2 59.5,30.2 59.5,30.2 59.5,30.2 59.6,30.2 59.7,30.2 59.7,30.2 59.8,30.3 59.8,30.3 59.8,30.2 59.9,30.2 
		59.9,30.2 	"/>
	<path id="Navarre" fill="#F47C58" stroke="#F9F9FA" stroke-width="0.25" stroke-linecap="round" stroke-linejoin="round" d="
		M61.8,28.8L61.8,28.8L61.8,28.8l-0.1,0.1l0,0l0.1,0l0,0L61.8,28.8L61.8,28.8L61.8,28.8L61.8,28.8z M62.1,28.7L62.1,28.7L62.1,28.7
		l0-0.1l0,0l0,0l0,0l0,0l0,0l0,0l0,0l0.1,0l0.1,0l0,0l0,0L62.1,28.7L62.1,28.7L62.1,28.7z M63.3,26.2L63.3,26.2l-0.4,0l-0.3,0
		l-0.1,0l-0.1-0.1l0-0.1l-0.1,0l-0.1,0l0,0l-0.1,0l0,0l-0.1,0l-0.1-0.1l-0.1-0.1l-0.2,0l-0.1,0l-0.1-0.1l0-0.1l0-0.1l0.1-0.1l-0.1,0
		l-0.1,0l-0.1,0.1l0,0.1l0,0.1l0,0.1l-0.1,0l-0.1,0l-0.1,0l-0.1,0l-0.1-0.1l0-0.1l0,0l0.2-0.2l0-0.1l0.1-0.2l0-0.2l0-0.2l-0.1-0.1
		l0,0l0,0l0,0l-0.2-0.1l-0.1,0l-0.1,0l-0.1,0l0,0.1l0,0l0,0l0,0l0,0l0,0l0,0l0-0.1l0,0l0,0l0,0l0,0l-0.1,0l0,0l-0.1,0l-0.1,0l0,0
		l0,0l0,0l0,0l-0.1,0l0,0l0,0l-0.1,0.1l-0.1,0.1l0,0l-0.1,0l0,0l0,0l0,0l0,0l0,0l0,0l0,0l0,0l0,0l0,0l0,0l0,0.1l0,0l0,0.1l0,0l0,0
		l0,0l0,0.1L59,25.4l0,0l0,0l0,0l-0.2,0.1l-0.1,0.1l0,0.1l0,0l0,0l0,0l0,0l0,0l0,0l0,0l-0.1,0l0,0l-0.1,0.1l0,0l0,0l0,0l0,0l-0.1,0
		l0,0l-0.1,0l0,0l0,0l0,0l0,0l0,0l-0.1,0.1l0.1,0.2l0,0l0,0.1l-0.1,0.1l0,0.1l0,0.1l0,0.1l0,0l0,0l-0.1,0l0,0l0,0l0,0.2l0,0l0,0l0,0
		l0,0l0,0l-0.1,0.1l0,0l0,0l-0.1,0l0,0l0-0.1l0,0l0,0l0,0l0,0l0,0l-0.1,0.1l0,0.1L57,27.8l0,0l-0.1,0l0,0l0,0l0,0l0,0l0,0l0.1,0l0,0
		l0,0l0.1-0.1l0,0l0,0l0,0l0,0l0,0.1l0,0.3l0,0.1l0.1,0l0.2,0.1l0.2,0l0,0l0.1,0.1l0,0l0,0.1l0,0l0.1,0l0.1,0l0.2,0l0.1,0l0.1,0.1
		l0,0l0,0l0,0l0.1,0.1l0.1,0l0.2,0l0.3,0.3l0.1,0.1l0,0l0,0l0,0l0,0l0,0l0.1,0l0,0l0,0l0.1,0.1l0.2,0.1l0.1,0l0.1,0.1l0,0.1l0,0l0,0
		l0,0l0,0l0,0l0,0l0,0.1l0,0l0,0l0,0l0,0l0,0l-0.1,0l0,0l0,0l-0.1,0l0,0l0,0l0,0l0,0l0,0l0,0l0,0l0,0l0,0l-0.1,0.1l-0.1,0.2l0,0l0,0
		l0,0l0,0l0,0l0,0.1l0.1,0.1l0,0l0,0l0,0l0,0l0,0l0,0l0.1,0l0,0l0,0l0,0l0,0.1l0,0l0,0l0.1,0l0,0l0,0l0.1,0l0,0l0.1,0l0.1,0l0,0l0,0
		l0,0.1l0,0l0.1,0l0.1,0l0,0l0,0l0.1,0l0.1,0l0,0l0,0l0,0l0.1,0l0,0l0.1,0l0,0l0,0l0,0l0,0l0,0l0-0.1l0,0l0,0l0-0.1l0.1-0.1l0.1-0.1
		l0,0l0-0.1l0,0l0,0l0,0l0,0l0,0l0,0l0,0l0,0l0,0l0,0l-0.1,0l0,0l0,0l0-0.1l0,0l0-0.1l0,0l0,0l0,0l0,0l0,0l0,0l0,0l0,0l0-0.1l0,0
		l0-0.1l0,0l0-0.1l0-0.1l0.1-0.1l0.1-0.1l0,0l0,0l0,0l0,0l0,0l0,0l0-0.1l0-0.1l0.1-0.1l0.1-0.1l0.1-0.1l0-0.1l0,0l0,0l0,0l0,0l0,0
		l0,0l0,0l0,0l0,0l0,0l0,0l0.1,0l0,0l0,0l0,0l0,0l0,0l0,0l0.1-0.1l0,0l0,0l-0.1,0l0,0l0,0l0,0l0,0l0,0l0,0l0,0l0.2,0l0,0h0.1l0,0
		l0,0l0-0.1l0,0l0,0l0,0l0,0l0.2,0l0,0l0,0l0.1-0.1l0.1,0l0-0.1l0,0l0,0l0,0l0-0.1l0-0.1l0-0.1l0,0l0,0l0.1-0.1l0,0l0,0l0,0l0,0
		l0.1-0.1l0.1,0l0,0L63.3,26.2z"/>
	<path id="Murcia" fill="#F47C58" stroke="#F9F9FA" stroke-width="0.25" stroke-linecap="round" stroke-linejoin="round" d="
		M63.3,51.5l0,0.1l0.1,0.1L63.3,51.5L63.3,51.5l0.1-0.2l0,0l0,0l0,0l0,0v0l0,0l0,0l0,0.1L63.3,51.5z M63.5,51.8L63.5,51.8L63.5,51.8
		l-0.2,0l-0.1,0l-0.1-0.1l0,0l-0.1-0.2l0-0.1l0-0.1l0.1,0l0,0l0.1-0.2l0.1,0.1l0,0l0-0.2l0,0l0,0l-0.1,0l0,0l0,0l0,0l0,0l0,0l-0.1,0
		l0,0l-0.2-0.2l0,0l-0.1-0.1l0,0l0-0.1l-0.1-0.1l0,0l0-0.1l0,0l0,0L62.5,50l-0.1-0.1l0,0l0,0l0,0l0,0l0-0.1l0-0.1l0-0.1l0-0.1
		l0.1-0.2l0-0.1l0,0l0-0.1l0,0l0-0.1l0-0.1l-0.1-0.2l0-0.1l0,0l0,0l-0.1,0l-0.1,0l0,0l0,0l0-0.1l0-0.2l0-0.1l0-0.1l0,0l0.1-0.1l0,0
		l0,0l0,0l0-0.1l0-0.1l0-0.1l0-0.1l-0.1-0.3l-0.2-0.2L62,46.8l0,0l0,0l0,0l0,0l0,0l0,0l-0.1,0l0,0l-0.2,0.1l0,0l0,0l-0.1,0.1
		l-0.2,0.1l0,0l0,0l0,0l0,0l0,0l-0.1,0l-0.1,0.1L60.8,47l-0.1,0.1l0,0.1l0,0l0,0.1l0,0l0,0l0,0l0,0l0,0.1l0,0l0,0l0,0l0,0l0,0l0,0
		l0,0.1l0,0.1l0,0.1l0,0.1l0,0.1l0,0l0,0l0,0l0,0l0,0l-0.3,0.2l-0.2,0.1l0,0l0,0l0,0l0,0l0,0l0,0l0,0l0,0l0,0l0,0l0,0l0,0l0,0l0,0
		l0,0l0,0l0,0l-0.1,0l0,0l0,0l0,0l0,0l0,0l0,0l0,0l0,0l0,0l0,0l0,0l0,0l-0.2,0.1l-0.1,0.1L59,48.7l-0.1,0l-0.1,0l-0.1,0l0,0l0,0
		l-0.1-0.1l0,0l0,0l0,0l-0.1,0l-0.1,0.1L58.2,49l0,0l-0.1,0l0,0l0,0l-0.1,0.1l0,0.1l-0.1,0.2l-0.1,0.2l-0.1,0.2l0,0L57.5,50l0.1,0.1
		l0,0l0,0l0,0l0,0.1l0.1,0.1l0.1,0.1l0.1,0.1l0.1,0.1l0.2,0l0,0l0.1,0.1l0.3,0l0,0l0,0l0,0.1l0,0l0,0l0,0.1l0,0l0,0.1l0,0l0,0.2l0,0
		l0,0l0,0.1l0,0l0,0l0,0.1l0,0l0,0.1l0,0l0,0l0,0l0.5,0.9l0,0l0,0l0,0l0,0l0,0l0,0l0,0l0,0l0.2,0l0,0L60,53l0.1-0.1l0.2-0.1l0.1,0
		l0,0l0.1-0.1l0,0l0,0l0,0l0,0l0,0l0,0l0-0.2l0,0l0,0l0,0l0,0l0,0l0.1,0l0.1,0l0.2-0.2l0.1,0l0.1-0.1l0.1,0l0.1,0l0,0l0.1-0.1l0.1,0
		l0.1,0l0.1,0l0,0l0,0.1l0.1,0l0.1,0l0-0.1l0,0l0,0l0,0l0.1,0l0.1,0l0.2,0l0.1,0l0.1,0.1l0,0l0.1-0.1l0.1,0l0,0H63l0.1-0.1l0.1,0
		l0.1,0l0,0l0,0h0l0,0l0,0l0.1,0L63.5,51.8L63.5,51.8z"/>
	
		<polygon id="Madrid" fill-rule="evenodd" clip-rule="evenodd" fill="#F47C58" stroke="#F9F9FA" stroke-width="0.25" stroke-linecap="round" stroke-linejoin="round" points="
		54.8,40.1 54.8,40.1 54.8,40.1 54.8,40 54.7,40 54.7,40 54.7,39.9 54.7,39.9 54.7,39.9 54.8,39.9 54.7,39.7 54.7,39.6 54.7,39.6 
		54.7,39.5 54.7,39.4 54.7,39.4 54.6,39.3 54.6,39.3 54.5,39.4 54.5,39.4 54.4,39.5 54.4,39.5 54.4,39.5 54.4,39.5 54.4,39.4 
		54.4,39.3 54.4,39.3 54.4,39.3 54.4,39.2 54.4,39.2 54.4,39.1 54.5,39.1 54.5,39.1 54.5,39 54.5,39 54.5,39 54.5,38.9 54.5,38.9 
		54.5,38.9 54.5,38.8 54.5,38.8 54.5,38.8 54.5,38.8 54.5,38.7 54.5,38.6 54.4,38.6 54.4,38.6 54.3,38.6 54.3,38.5 54.3,38.5 
		54.3,38.4 54.3,38.3 54.3,38.2 54.3,38.2 54.3,38.2 54.2,38.1 54.2,38.1 54.2,38.1 54.1,38.1 54.1,38.1 54.1,38.1 54,38.1 54,38.1 
		54,38.1 54,38.1 54,38.1 54,38.1 54,38.1 54,38 54,38 54,38 54,38 54,37.9 53.9,37.9 53.9,37.9 53.9,37.8 53.8,37.8 53.9,37.7 
		53.9,37.6 53.9,37.5 53.8,37.6 53.8,37.6 53.8,37.6 53.7,37.5 53.7,37.5 53.6,37.4 53.6,37.4 53.6,37.4 53.6,37.4 53.6,37.4 
		53.5,37.4 53.4,37.4 53.4,37.4 53.4,37.4 53.4,37.3 53.4,37.3 53.4,37.3 53.4,37.2 53.4,37.2 53.4,37.1 53.4,37.1 53.4,37 53.4,37 
		53.4,36.9 53.4,36.9 53.2,36.9 53.2,36.9 53.2,36.8 53.2,36.8 53.2,36.8 53.2,36.8 53.3,36.7 53.3,36.7 53.3,36.7 53.3,36.5 
		53.3,36.5 53.3,36.5 53.3,36.5 53.4,36.5 53.4,36.4 53.4,36.4 53.4,36.4 53.4,36.3 53.4,36.3 53.4,36.3 53.4,36.2 53.4,36.2 
		53.4,36.1 53.5,36 53.5,36 53.5,36 53.5,35.9 53.5,35.8 53.5,35.8 53.5,35.6 53.4,35.5 53.4,35.4 53.4,35.4 53.3,35.4 53.3,35.4 
		53.2,35.3 53.2,35.3 53.1,35.1 53,35 52.9,35.1 52.8,35.2 52.7,35.2 52.7,35.2 52.7,35.3 52.6,35.3 52.5,35.4 52.4,35.5 52.3,35.6 
		52.3,35.6 52.2,35.7 52.2,35.7 52.2,35.8 52.2,35.9 52.1,35.9 52.1,35.9 51.8,36 51.7,36 51.7,36.1 51.7,36.1 51.6,36.2 51.6,36.3 
		51.5,36.3 51.5,36.4 51.6,36.4 51.6,36.5 51.5,36.5 51.5,36.5 51.5,36.6 51.5,36.6 51.5,36.7 51.5,36.7 51.5,36.8 51.4,36.8 
		51.4,36.9 51.4,36.9 51.4,36.9 51.3,36.9 51.3,36.9 51.2,36.9 51.2,36.9 51.1,36.9 51.1,36.9 51,37 50.9,37.2 50.9,37.2 50.8,37.4 
		50.8,37.5 50.8,37.5 50.7,37.6 50.7,37.6 50.7,37.7 50.7,37.7 50.7,37.7 50.6,37.7 50.6,37.8 50.5,37.8 50.4,37.8 50.4,37.7 
		50.4,37.7 50.4,37.7 50.3,37.6 50.3,37.6 50.3,37.7 50.3,37.7 50.3,37.8 50.3,37.8 50.3,37.8 50.3,37.9 50.3,37.9 50.3,37.9 
		50.3,37.9 50.3,38 50.3,38 50.2,38 50.2,38 50.2,38.1 50.2,38.1 50.2,38.2 50.2,38.2 50.2,38.3 50.2,38.3 50.2,38.3 50.2,38.4 
		50.2,38.4 50.2,38.4 50.2,38.5 50.2,38.6 50.2,38.7 50.2,38.7 50.1,38.7 50,38.7 50,38.7 50,38.7 50,38.7 50,38.7 49.9,38.7 
		49.9,38.7 49.9,38.7 49.9,38.7 49.8,38.7 49.8,38.8 49.8,38.8 49.8,38.9 49.8,38.9 49.8,38.9 49.8,39 49.7,39.1 49.7,39.1 
		49.6,39.1 49.6,39.1 49.5,39.1 49.5,39.1 49.5,39.1 49.5,39.1 49.4,39 49.4,39 49.4,39.1 49.4,39.1 49.4,39.1 49.4,39.2 49.4,39.2 
		49.4,39.3 49.4,39.3 49.4,39.4 49.3,39.6 49.3,39.6 49.4,39.7 49.4,39.7 49.5,39.7 49.5,39.7 49.5,39.7 49.5,39.6 49.6,39.6 
		49.7,39.6 49.8,39.5 49.8,39.5 49.8,39.4 49.9,39.3 49.9,39.3 50,39.3 50,39.2 50,39.2 50,39.2 50.1,39.2 50.1,39.2 50.1,39.3 
		50.1,39.3 50.1,39.4 50.1,39.4 50.1,39.5 50.1,39.5 50.2,39.5 50.2,39.5 50.3,39.6 50.3,39.6 50.3,39.6 50.4,39.6 50.4,39.5 
		50.4,39.5 50.4,39.4 50.5,39.4 50.5,39.4 50.6,39.4 50.7,39.3 50.7,39.3 50.8,39.3 50.8,39.4 50.9,39.5 50.9,39.5 51,39.5 
		51.1,39.5 51.1,39.4 51.1,39.4 51.2,39.4 51.2,39.5 51.3,39.5 51.3,39.5 51.3,39.5 51.3,39.6 51.4,39.6 51.4,39.6 51.6,39.7 
		51.7,39.7 51.9,39.8 51.9,39.8 51.9,39.8 52,39.9 52,39.9 52,39.9 52.1,39.9 52.1,39.9 52.2,39.9 52.2,40 52.2,40 52.3,40 52.3,40 
		52.4,40 52.4,40 52.5,40 52.6,40 52.7,40.1 52.8,40.2 52.8,40.2 52.8,40.2 52.8,40.3 52.8,40.3 52.8,40.4 52.8,40.4 52.7,40.4 
		52.7,40.5 52.7,40.5 52.7,40.5 52.6,40.5 52.6,40.5 52.4,40.7 52.4,40.8 52.3,40.8 52.3,40.8 52.2,40.9 52.2,40.9 52.1,40.9 
		51.9,41 51.9,41 51.8,41 51.8,41.1 51.9,41.1 52,41.2 52.1,41.2 52.1,41.2 52.1,41.1 52.2,41.1 52.2,41.1 52.3,41 52.3,41 52.3,41 
		52.4,40.9 52.4,40.9 52.5,40.9 52.5,40.9 52.6,40.9 52.7,40.8 52.7,40.8 52.7,40.8 52.7,40.7 52.7,40.7 52.8,40.7 52.8,40.7 
		52.9,40.7 52.9,40.6 52.9,40.6 52.9,40.6 53.1,40.6 53.1,40.6 53.1,40.5 53.1,40.5 53.2,40.4 53.6,40.4 53.7,40.4 53.7,40.4 
		53.8,40.5 53.8,40.4 54,40.4 54.2,40.3 54.4,40.2 54.4,40.3 54.4,40.3 54.4,40.3 54.6,40.3 54.7,40.3 54.8,40.3 54.8,40.2 
		54.8,40.2 54.8,40.2 	"/>
	
		<polygon id="Galicia" fill-rule="evenodd" clip-rule="evenodd" fill="#F47C58" stroke="#F9F9FA" stroke-width="0.25" stroke-linecap="round" stroke-linejoin="round" points="
		41.3,29.3 41.3,29.2 41.3,29.2 41.2,29.1 41.1,29.1 40.9,28.9 41,28.9 41,28.9 41,28.8 41,28.8 41,28.8 41,28.7 41.1,28.6 41,28.5 
		40.7,28.5 40.7,28.4 40.7,28.4 40.6,28.4 40.6,28.4 40.5,28.4 40.5,28.4 40.5,28.4 40.5,28.5 40.5,28.5 40.4,28.5 40.3,28.4 
		40.1,28.4 40.1,28.3 40.1,28.2 40.1,28.2 40.2,28.1 40.2,28 40.2,27.9 40.2,27.8 40.2,27.8 40.3,27.8 40.3,27.7 40.3,27.7 
		40.3,27.7 40.3,27.7 40.2,27.6 40.2,27.6 40.2,27.5 40.2,27.5 40.2,27.4 40.3,27.4 40.3,27.3 40.4,27.3 40.5,27.2 40.5,27.2 
		40.5,27.2 40.6,27.2 40.6,27.2 40.7,27.2 40.7,27.1 40.9,26.9 40.9,26.9 40.9,26.8 40.9,26.8 40.9,26.6 40.9,26.6 40.9,26.5 
		40.9,26.5 40.9,26.4 41,26.4 41,26.2 41,26.1 40.9,26.1 40.8,26 40.8,26 40.7,26 40.7,26 40.7,26 40.6,25.9 40.6,25.9 40.6,25.8 
		40.5,25.8 40.5,25.8 40.5,25.9 40.5,25.9 40.5,26 40.5,26 40.5,26 40.5,26 40.4,26 40.4,25.9 40.4,25.9 40.4,25.8 40.4,25.8 
		40.5,25.8 40.5,25.7 40.5,25.7 40.5,25.7 40.5,25.6 40.5,25.6 40.6,25.6 40.6,25.6 40.6,25.5 40.6,25.5 40.7,25.5 40.8,25.5 
		40.8,25.5 41,25.3 41,25.3 41,25.2 40.9,25.1 40.9,25.1 40.8,25.1 40.8,25.1 40.8,25.1 40.8,25.1 40.8,25.2 40.8,25.2 40.7,25.2 
		40.7,25.2 40.6,25.3 40.6,25.3 40.5,25.3 40.5,25.3 40.5,25.2 40.5,25.2 40.4,25.1 40.5,25.1 40.5,25 40.5,25 40.5,25 40.5,25 
		40.4,24.9 40.4,24.9 40.3,24.9 40.3,24.9 40.3,24.8 40.2,24.8 40.2,24.8 40.1,24.7 40.1,24.7 40.1,24.5 40.1,24.4 40,24.4 40,24.4 
		40,24.3 39.9,24.3 39.9,24.3 39.9,24.2 39.9,24.2 39.9,24.1 39.9,24.1 39.9,24 39.8,24 39.8,24 39.7,24 39.7,24 39.7,24 39.7,23.9 
		39.7,23.8 39.8,23.8 39.8,23.8 39.8,23.8 39.9,23.8 39.9,23.8 39.9,23.8 40,23.8 40,23.7 40.1,23.7 40.2,23.5 40.2,23.5 40.2,23.5 
		40.2,23.4 40.2,23.4 40.2,23.3 40.2,23.3 40.2,23.2 40.2,23.1 40.1,23.1 40.1,23.1 40,23.1 39.8,23.1 39.6,23.1 39.6,23.1 
		39.5,23.1 39.5,23.1 39.4,23.1 39.4,23.1 39.4,23.1 39.4,23.1 39.4,23.1 39.4,23.1 39.4,23 39.4,23 39.2,22.9 39,22.5 38.9,22.5 
		38.6,22.3 38.5,22.3 38.4,22.3 38.3,22.3 38.3,22.3 38.2,22.3 38.2,22.3 38.2,22.4 38.1,22.5 38.1,22.5 38.1,22.4 38,22.2 38,22.1 
		37.9,22.2 37.9,22.2 37.9,22.2 37.9,22.2 37.9,22.2 37.9,22.3 37.8,22.3 37.8,22.3 37.8,22.3 37.8,22.2 37.9,22.1 37.9,22 37.9,22 
		37.9,22 37.8,21.9 37.8,22 37.8,22 37.7,22.1 37.7,22.2 37.5,22.2 37.4,22.2 37.4,22.3 37.3,22.4 37.3,22.4 37.3,22.4 37.3,22.4 
		37.3,22.4 37.2,22.4 37.2,22.4 37.2,22.5 37.2,22.6 37,22.6 37,22.5 37,22.5 37,22.5 37.1,22.5 37.1,22.5 37.1,22.5 37.1,22.5 
		37.1,22.5 37.1,22.4 37.1,22.4 37.2,22.3 37.2,22.3 37.2,22.3 37.2,22.4 37.2,22.3 37.2,22.3 37.2,22.2 37.1,22.1 37,22.1 
		36.9,22.2 36.9,22.3 36.7,22.3 36.6,22.4 36.5,22.4 36.5,22.4 36.4,22.4 36.4,22.5 36.4,22.5 36.4,22.6 36.5,22.6 36.5,22.6 
		36.5,22.7 36.4,22.7 36.4,22.7 36.4,22.7 36.5,22.7 36.4,22.7 36.4,22.7 36.4,22.7 36.4,22.6 35.8,23 35.7,23.1 35.6,23.1 
		35.6,23.1 35.5,23.1 35.5,23.1 35.5,23.1 35.5,23.2 35.6,23.2 35.6,23.3 35.6,23.3 35.5,23.3 35.5,23.4 35.5,23.5 35.5,23.6 
		35.6,23.6 35.7,23.5 35.7,23.5 35.8,23.5 35.8,23.5 35.8,23.5 35.7,23.5 35.7,23.5 36,23.5 36,23.5 36.1,23.5 36.1,23.5 36,23.5 
		36,23.6 36,23.6 35.6,23.6 35.6,23.7 35.6,23.7 35.7,23.8 35.8,23.8 35.9,23.8 36,23.8 36,23.9 36,23.9 35.9,23.9 35.9,24 
		35.9,24.1 35.9,24.2 35.9,24.3 35.9,24.4 35.9,24.3 35.8,24.2 35.8,24.2 35.7,24.1 35.7,24.1 35.7,24 35.6,24 35.5,23.9 35.5,23.9 
		35.4,24 35.4,24.1 35.4,24.1 35.4,24.2 35.3,24.1 35.3,24.1 35.3,24 35.1,24.1 35,24.1 35,24.1 35,24.1 34.9,24.1 34.9,24.2 
		34.9,24.2 34.9,24.2 34.8,24.3 34.6,24.4 34.5,24.3 34.4,24.4 34.2,24.4 34.1,24.5 34.1,24.5 33.9,24.4 33.9,24.4 33.8,24.4 
		33.7,24.3 33.6,24.2 33.6,24.2 33.6,24.3 33.5,24.3 33.4,24.3 33.3,24.4 33.1,24.5 33.1,24.5 33,24.5 33.1,24.6 33.1,24.6 
		33.1,24.6 33.2,24.7 33.2,24.7 33.3,24.7 33.3,24.8 33.2,24.8 33.1,24.8 33,24.7 33,24.7 32.9,24.8 32.9,24.9 32.9,24.9 32.8,25 
		32.8,25 32.7,25 32.6,25 32.5,24.9 32.4,25 32.2,25.2 32.2,25.3 32.3,25.3 32.4,25.2 32.4,25.2 32.5,25.3 32.5,25.2 32.6,25.2 
		32.6,25.2 32.5,25.2 32.5,25.3 32.5,25.3 32.5,25.3 32.4,25.3 32.4,25.3 32.4,25.4 32.4,25.4 32.3,25.4 32.3,25.4 32.2,25.4 
		32.2,25.4 32.1,25.5 32.1,25.5 32.1,25.6 32.1,25.6 32,25.6 32,25.7 32,25.8 32.1,25.8 32.1,25.9 32.1,25.9 32.1,25.9 32,26 32,26 
		32,26 32,26.3 31.9,26.3 31.9,26.3 32,26.4 32,26.5 32,26.5 32,26.5 32.1,26.4 32.1,26.3 32.1,26.3 32.2,26.3 32.2,26.3 32.2,26.3 
		32.3,26.3 32.3,26.3 32.3,26.3 32.3,26.2 32.3,26.2 32.3,26.2 32.4,26.3 32.4,26.3 32.5,26.3 32.5,26.4 32.5,26.4 32.5,26.4 
		32.5,26.5 32.5,26.5 32.5,26.5 32.5,26.6 32.5,26.6 32.5,26.7 32.6,26.7 32.6,26.7 32.6,26.8 32.6,26.8 32.6,26.9 32.6,26.9 
		32.5,26.9 32.5,27 32.6,27.1 32.6,27.1 32.6,27.2 32.7,27.2 32.8,27.2 32.8,27.1 32.8,27 32.9,27 33.1,27 33.2,27 33.3,26.9 
		33.3,26.9 33.3,26.8 33.4,26.8 33.4,26.9 33.4,27 33.4,27 33.3,27 33.2,27.1 33.1,27.2 33,27.3 33,27.3 33,27.3 33,27.3 32.9,27.4 
		32.9,27.4 32.9,27.5 32.9,27.6 32.9,27.6 32.8,27.7 32.8,27.9 32.7,28 32.8,28 32.9,28.1 32.9,28.1 32.9,28.2 33,28.3 33,28.2 
		33,28.2 33.1,28.2 33.1,28.1 33.1,28.1 33.2,28 33.3,28 33.2,27.9 33.4,27.8 33.4,27.8 33.4,27.9 33.4,27.9 33.5,27.9 33.6,27.8 
		33.5,27.7 33.5,27.6 33.6,27.5 33.6,27.6 33.7,27.7 33.7,27.7 33.8,27.8 33.9,27.7 33.9,27.7 33.9,27.6 34,27.5 34,27.5 34,27.6 
		33.8,27.9 33.8,28 33.7,28 33.7,28 33.7,28.1 33.6,28.2 33.6,28.3 33.7,28.4 33.6,28.5 33.6,28.5 33.7,28.6 33.6,28.6 33.6,28.7 
		33.6,28.6 33.5,28.6 33.5,28.6 33.5,28.6 33.5,28.5 33.5,28.5 33.4,28.5 33.4,28.5 33.3,28.5 33.2,28.6 33.2,28.6 33.2,28.6 
		33.4,28.6 33.4,28.7 33.4,28.7 33.5,28.8 33.5,28.9 33.6,28.9 33.7,28.9 33.8,28.9 33.9,28.9 33.9,28.9 34,28.8 34.1,28.8 
		34.1,28.8 34.1,28.7 34.2,28.7 34.2,28.8 34.2,28.8 34.3,28.7 34.2,28.8 34.2,28.9 34.1,28.9 34,29 33.9,29.2 33.8,29.2 33.8,29.2 
		33.7,29.2 33.6,29.2 33.6,29.2 33.6,29.3 33.6,29.3 33.6,29.5 33.6,29.5 33.6,29.4 33.5,29.4 33.5,29.5 33.5,29.6 33.5,29.7 
		33.6,29.6 33.8,29.7 33.8,29.6 33.8,29.6 34,29.5 34.1,29.5 34.2,29.5 34.3,29.4 34.3,29.3 34.3,29.2 34.4,29.2 34.4,29.2 
		34.4,29.2 34.4,29.4 34.4,29.4 34.4,29.5 34.3,29.5 34.2,29.5 34.1,29.7 34.1,29.7 34,29.7 33.8,29.8 33.8,29.9 33.8,29.9 33.7,30 
		33.7,30 33.7,30 33.7,30.1 33.6,30.1 33.6,30.1 33.6,30.2 33.7,30.2 33.7,30.2 33.6,30.3 33.6,30.3 33.4,30.3 33.4,30.3 33.4,30.4 
		33.5,31.4 33.4,31.5 33.5,31.5 33.6,31.4 33.6,31.4 33.7,31.3 33.8,31.3 33.8,31.2 33.9,31.2 33.9,31.1 34,31.1 34,31 34.1,31 
		34.2,30.9 34.2,30.9 34.3,30.8 34.3,30.7 34.4,30.7 34.4,30.7 34.6,30.7 34.6,30.6 34.8,30.5 34.8,30.5 35.4,30.4 35.5,30.4 
		35.6,30.3 35.6,30.3 35.6,30.3 35.7,30.3 35.8,30.3 35.9,30.2 35.9,30.2 35.9,30.3 35.9,30.5 35.9,30.6 36,30.6 36,30.6 36.1,30.6 
		36.2,30.6 36.2,30.6 36.3,30.7 36.3,30.7 36.3,30.8 36.3,30.9 36.2,30.9 36.1,31 36,31.1 35.9,31.3 35.8,31.4 35.8,31.5 35.9,31.6 
		36,31.6 36,31.7 36,31.7 36,31.9 36,31.9 36.3,31.9 36.5,31.8 36.5,31.8 36.6,31.7 36.7,31.7 36.7,31.6 36.8,31.6 36.8,31.6 
		36.9,31.6 36.9,31.5 36.9,31.4 37,31.4 37,31.4 37,31.5 37.1,31.6 37.2,31.6 37.2,31.6 37.2,31.6 37.2,31.5 37.3,31.5 37.4,31.5 
		37.6,31.5 37.7,31.4 37.8,31.4 37.9,31.5 37.9,31.5 38.1,31.6 38.1,31.7 38.1,31.8 38.1,31.8 38.2,31.8 38.3,31.8 38.3,31.8 
		38.4,31.7 38.4,31.7 38.4,31.7 38.4,31.6 38.5,31.6 38.5,31.6 38.5,31.6 38.6,31.6 38.6,31.7 38.7,31.7 38.7,31.8 38.7,31.9 
		38.8,31.8 38.9,31.7 38.9,31.7 39,31.7 39.1,31.7 39.2,31.7 39.4,31.6 39.5,31.5 39.6,31.5 39.6,31.4 39.6,31.3 39.6,31.2 
		39.6,31.1 39.6,31.1 39.7,31 39.8,31 39.8,31 39.9,31.1 40,31.2 40.2,31.2 40.3,31.2 40.4,31.1 40.4,31.1 40.4,31.1 40.4,31.1 
		40.4,31 40.4,31 40.4,30.9 40.5,30.8 40.5,30.8 40.5,30.8 40.4,30.7 40.4,30.7 40.3,30.7 40.3,30.7 40.3,30.7 40.3,30.6 40.2,30.6 
		40.3,30.6 40.3,30.5 40.4,30.4 40.4,30.3 40.5,30.3 40.5,30.3 40.5,30.3 40.6,30.1 40.6,30.1 40.6,30.1 40.7,29.9 40.8,29.9 
		40.8,29.9 40.9,29.8 41,29.8 41,29.9 41.1,29.9 41.1,29.8 41.1,29.8 41.1,29.7 41.2,29.6 41.2,29.5 41.3,29.5 41.3,29.5 41.3,29.4 
		41.3,29.4 41.3,29.3 	"/>
	
		<polygon id="Extremadura" fill-rule="evenodd" clip-rule="evenodd" fill="#F47C58" stroke="#F9F9FA" stroke-width="0.25" stroke-linecap="round" stroke-linejoin="round" points="
		48.9,44.5 48.8,44.4 48.8,44.4 48.7,44.3 48.7,44.3 48.7,44.2 48.6,44 48.6,44 48.6,43.9 48.6,43.9 48.6,43.9 48.7,43.9 48.7,43.8 
		48.8,43.8 48.8,43.6 48.9,43.5 48.9,43.4 48.8,43.3 48.8,43.3 48.6,43.4 48.6,43.5 48.5,43.5 48.4,43.6 48.3,43.6 48.3,43.6 
		48.2,43.6 48.2,43.6 48.1,43.7 47.9,43.6 47.9,43.5 47.8,43.5 47.8,43.5 47.8,43.4 47.7,43.4 47.6,43.2 47.6,43.2 47.5,43.1 
		47.5,43.1 47.4,43.1 47.4,43.1 47.3,43 47.2,42.9 47.1,42.8 47.1,42.7 47,42.7 47,42.7 47,42.6 47,42.6 47,42.6 47,42.5 47,42.5 
		47.1,42.5 47.1,42.4 47.1,42.4 47.1,42.3 47.1,42.3 47.1,42.3 47.1,42.2 47.2,42.1 47.2,42.1 47.2,42 47.2,42 47.1,42 47.1,41.9 
		47.1,41.9 47.1,41.8 47.1,41.8 47.1,41.7 47.1,41.7 47.1,41.6 47,41.6 47,41.7 46.9,41.7 46.9,41.7 46.8,41.8 46.8,41.8 46.8,41.8 
		46.7,41.9 46.7,41.8 46.6,41.8 46.5,41.8 46.5,41.8 46.5,41.7 46.6,41.6 46.6,41.6 46.6,41.5 46.6,41.5 46.6,41.4 46.6,41.4 
		46.6,41.3 46.6,41.3 46.6,41.3 46.6,41.2 46.5,41.2 46.5,41.2 46.5,41.2 46.4,41.2 46.3,41.2 46.3,41.2 46.3,41.2 46.3,41 
		46.3,40.7 46.3,40.4 46.3,40.4 46.3,40.3 46.4,40.2 46.4,40.2 46.4,40.2 46.5,40.1 46.4,40 46.4,40 46.4,39.9 46.4,39.9 46.4,39.7 
		46.4,39.6 46.4,39.6 46.4,39.5 46.4,39.5 46.4,39.4 46.3,39.4 46.1,39.5 46,39.6 46,39.6 45.9,39.7 45.9,39.7 45.9,39.7 45.9,39.7 
		45.7,39.7 45.6,39.7 45.5,39.6 45.4,39.5 45.3,39.4 45.2,39.3 45,39.3 44.9,39.3 44.8,39.3 44.8,39.3 44.8,39.2 44.8,39.2 
		44.8,39.2 44.8,39.1 44.8,39.1 44.8,39 44.7,39 44.7,39 44.6,39.1 44.5,39.1 44.5,39.1 44.5,39.1 44.4,39.2 44.4,39.2 44.4,39.2 
		44.4,39.3 44.4,39.3 44.3,39.3 44.3,39.3 44.2,39.3 44.1,39.2 44,39.2 44,39.1 43.9,39.1 43.9,39 43.7,39 43.7,39 43.7,38.9 
		43.7,38.9 43.7,38.9 43.7,38.9 43.7,38.9 43.7,38.8 43.7,38.8 43.7,38.8 43.8,38.8 43.8,38.7 43.7,38.7 43.7,38.7 43.6,38.7 
		43.6,38.6 43.6,38.6 43.6,38.6 43.5,38.6 43.5,38.5 43.4,38.5 43.4,38.4 43.3,38.4 43.2,38.4 43.2,38.4 43.1,38.4 43,38.5 
		42.9,38.5 42.9,38.5 42.8,38.5 42.8,38.5 42.8,38.6 42.7,38.6 42.7,38.6 42.7,38.7 42.7,38.7 42.7,38.7 42.5,38.7 42.5,38.8 
		42.5,38.8 42.4,38.9 42.3,38.9 42.2,38.9 42.2,39 42.1,39 42,39.1 42,39.1 42,39.1 42,39.2 42,39.2 42,39.3 42,39.3 42,39.3 
		41.9,39.3 41.9,39.4 41.6,39.4 41.6,39.4 41.5,39.4 41.5,39.5 41.5,39.5 41.4,39.4 41.4,39.4 41.2,39.5 41.2,39.5 41.1,39.5 
		41.1,39.5 41.1,39.5 41,39.5 41,39.5 41,39.5 40.9,39.4 40.9,39.4 40.8,39.3 40.8,39.4 40.8,39.4 40.7,39.4 40.7,39.4 40.6,39.4 
		40.6,39.4 40.5,39.4 40.4,39.6 40.3,39.6 40.3,39.6 40.2,39.7 40.2,39.8 40.2,39.9 40.2,40 40.3,40.1 40.3,40.1 40.4,40.1 
		40.5,40.1 40.5,40.2 40.6,40.3 40.6,40.4 40.8,40.6 40.7,40.7 40.7,40.8 40.7,40.8 40.7,40.9 40.7,41 40.7,41 40.6,41 40.6,41.1 
		40.6,41.1 40.6,41.1 40.6,41.2 40.6,41.2 40.6,41.3 40.6,41.3 40.5,41.5 40.5,41.5 40.4,41.5 40.4,41.5 40.4,41.6 40.4,41.7 
		40.4,41.7 40.4,41.7 40.4,41.8 40.3,41.9 40.3,41.9 40.3,42 40.3,42 40.3,42 40.3,42.1 40.2,42.2 39.7,42.2 39.6,42.2 39.5,42.2 
		39.4,42.2 39.3,42.2 39.2,42.2 39.1,42.2 39.1,42.2 38.3,42.2 38.3,42.2 38.3,42.3 38.5,42.6 38.5,42.7 38.6,42.8 38.7,42.9 
		38.8,42.9 38.8,43 38.9,43.1 38.9,43.1 39,43.2 39.2,43.2 39.2,43.3 39.2,43.4 39.2,43.5 39.2,43.5 39.1,43.6 39.1,43.7 39.2,43.8 
		39.2,43.9 39.2,43.9 39.4,44.1 39.4,44.2 39.4,44.3 39.4,44.4 39.5,44.5 39.5,44.6 39.6,44.6 39.7,44.6 39.8,44.7 39.8,44.8 
		39.7,44.9 39.7,44.9 39.8,44.9 39.8,45 39.9,45 39.9,44.9 40,44.9 40.1,44.9 40.2,44.9 40.3,45 40.4,45 40.4,45.1 40.4,45.2 
		40.4,45.3 40.4,45.3 40.4,45.4 40.4,45.4 40.4,45.5 40.3,45.7 40.2,45.8 40.1,45.9 40.2,46 40.1,46 40.1,46.1 40.1,46.1 40.1,46.2 
		40,46.2 40,46.2 39.8,46.3 39.8,46.3 39.7,46.4 39.7,46.4 39.6,46.5 39.6,46.5 39.5,46.5 39.4,46.7 39.4,46.7 39.3,46.7 39.3,46.8 
		39.3,46.9 39.3,47 39.3,47.1 39.3,47.1 39.3,47.2 39.3,47.2 39.3,47.2 39.4,47.2 39.3,47.3 39.2,47.5 39.1,47.8 39.1,47.8 
		39.1,47.9 39.1,47.9 39.1,48 39,48 39.1,48.1 39.2,48.1 39.6,48.6 39.6,48.7 39.6,48.7 39.6,48.8 39.7,48.8 39.7,48.8 39.7,48.8 
		39.9,49.2 39.9,49.3 40,49.3 40,49.3 40.1,49.3 40.2,49.3 40.3,49.2 40.3,49.2 40.3,49.2 40.4,49.2 40.5,49.2 40.5,49.2 40.5,49.2 
		40.6,49.1 41.1,49.3 41.1,49.3 41.1,49.4 41.1,49.4 41.1,49.4 41.1,49.5 41,49.5 41,49.6 41,49.6 41.1,49.6 41.1,49.6 41.2,49.7 
		41.3,49.7 41.4,49.7 41.5,49.7 41.7,49.7 41.7,49.7 41.8,49.7 41.8,49.8 41.9,49.9 41.9,49.9 41.9,49.9 41.9,50 41.9,50 41.9,50 
		42.1,50 42.2,50.1 42.2,50 42.3,50 42.3,50 42.3,50 42.3,49.9 42.4,49.9 42.4,49.9 42.4,49.9 42.4,49.9 42.5,49.9 42.5,49.9 
		42.7,50 42.7,50 42.7,50.1 42.7,50.1 42.7,50.1 42.7,50.1 42.8,50.1 43.3,50.3 43.4,50.4 43.4,50.4 43.5,50.3 43.6,50.2 43.9,50.2 
		44,50.2 44.1,50.1 44.2,50.1 44.2,50.1 44.2,50 44.3,50 44.3,50 44.3,50 44.3,49.9 44.3,49.8 44.4,49.8 44.4,49.8 44.3,49.7 
		44.3,49.7 44.3,49.7 44.3,49.7 44.3,49.6 44.3,49.6 44.4,49.6 44.4,49.5 44.5,49.5 44.5,49.4 44.5,49.4 44.6,49.4 44.6,49.3 
		44.6,49.3 44.7,49.3 45,49.2 45,49.2 45.1,49.3 45.1,49.3 45.1,49.4 45.2,49.4 45.1,49.4 45.1,49.5 45,49.5 45,49.5 45,49.5 
		45,49.5 45,49.6 45,49.7 45,49.7 45.1,49.7 45.1,49.7 45.2,49.6 45.3,49.6 45.3,49.5 45.4,49.5 45.6,49.5 45.7,49.4 45.7,49.3 
		45.7,49.3 45.7,49.3 45.8,49.2 45.8,49.2 45.8,49.1 45.8,49.1 45.8,49 45.8,49 45.8,49 45.8,48.9 45.8,48.9 45.8,48.9 45.8,48.9 
		45.7,48.8 45.7,48.8 45.7,48.7 45.7,48.7 45.7,48.7 45.7,48.6 45.7,48.6 45.7,48.6 45.6,48.6 45.6,48.6 45.6,48.5 45.6,48.5 
		45.6,48.5 45.6,48.5 45.6,48.4 45.6,48.4 45.6,48.4 45.6,48.3 45.6,48.3 45.6,48.3 45.6,48.3 45.6,48.2 45.6,48.1 45.6,48.1 
		45.7,48.1 45.8,48 45.9,47.9 45.9,47.9 46,47.9 46,47.8 46,47.8 46,47.8 46.2,47.7 46.2,47.7 46.2,47.6 46.2,47.6 46.2,47.6 
		46.2,47.6 46.2,47.5 46.3,47.5 46.3,47.4 46.4,47.4 46.4,47.4 46.5,47.4 46.5,47.4 46.6,47.4 46.6,47.4 46.6,47.4 46.6,47.3 
		46.6,47.3 46.6,47.3 46.6,47.3 46.6,47.3 46.8,47.2 46.9,47 47,47 47,47 47.1,47 47.1,46.9 47.1,46.9 47.1,46.8 47.1,46.8 
		47.1,46.8 47.1,46.8 47.4,46.8 47.5,46.7 47.6,46.7 47.6,46.7 47.7,46.7 47.7,46.7 47.7,46.7 47.7,46.7 47.8,46.6 47.8,46.5 
		47.9,46.2 47.9,46.1 48,46 48,46 48,46 48,46 48.1,46 48.1,46 48.2,46 48.2,46 48.3,45.9 48.3,45.8 48.3,45.8 48.3,45.7 48.3,45.7 
		48.2,45.7 48.1,45.7 48,45.6 48,45.6 48,45.6 48,45.5 48,45.5 48,45.5 48,45.4 47.9,45.4 47.9,45.4 47.9,45.4 47.9,45.4 47.9,45.3 
		47.9,45.3 47.9,45.3 47.9,45.2 47.9,45.2 47.9,45.2 47.9,45.2 48,45.2 48,45.2 48.1,45.2 48.1,45.3 48.2,45.3 48.2,45.3 48.3,45.2 
		48.3,45.2 48.3,45.1 48.3,45.1 48.2,45.1 48.2,45 48.2,45 48.2,44.9 48.2,44.7 48.2,44.7 48.3,44.6 48.3,44.6 48.3,44.6 48.4,44.5 
		48.4,44.5 48.4,44.5 48.4,44.5 48.5,44.5 48.5,44.5 48.6,44.5 48.6,44.5 48.7,44.5 48.7,44.5 48.8,44.5 48.9,44.6 48.9,44.6 
		49,44.6 	"/>
	
		<polygon id="Catalonia" fill-rule="evenodd" clip-rule="evenodd" fill="#F47C58" stroke="#F9F9FA" stroke-width="0.25" stroke-linecap="round" stroke-linejoin="round" points="
		78.2,29.3 78.1,29.3 78.1,29.3 78,29.3 78,29.2 77.9,29.2 77.8,29.2 77.8,29.2 77.7,29.1 77.7,29 77.7,29 77.7,28.9 77.7,28.8 
		77.6,28.8 77.5,28.8 77.4,28.8 77.3,28.8 77.3,28.8 77.2,28.7 77.2,28.7 77.2,28.6 77.2,28.6 77.1,28.6 77,28.6 77,28.6 76.8,28.6 
		76.7,28.7 76.7,28.7 76.6,28.7 76.5,28.7 76.5,28.7 76.4,28.9 76.3,28.9 76.2,28.9 76.1,28.9 76,28.9 75.9,28.9 75.8,29 75.8,29.1 
		75.8,29.2 75.8,29.2 75.8,29.3 75.7,29.3 75.7,29.2 75.5,29.2 75.4,29.2 75.4,29.2 75.4,29.3 75.3,29.3 75.3,29.3 75.3,29.3 
		75.2,29.3 75.1,29.2 75,29.2 75,29.1 75,29 74.9,29 74.8,29 74.6,28.9 74.5,28.9 74.4,28.8 74.3,28.8 74.1,28.9 73.9,28.9 
		73.9,28.9 73.8,28.9 73.8,29 73.8,29 73.7,29.1 73.6,29.2 73.6,29.2 73.5,29.2 73.4,29.2 73.4,29.2 73.3,29.2 73.3,29.1 73.2,29 
		73.2,28.8 73.1,28.8 73.1,28.7 73,28.7 72.9,28.7 72.7,28.6 72.6,28.5 72.4,28.5 72.3,28.5 72.4,28.5 72.3,28.5 72.3,28.4 
		72.3,28.4 72.3,28.5 72.3,28.5 72.2,28.5 72.2,28.5 72.2,28.5 72.1,28.5 72.1,28.5 72.1,28.5 72.1,28.6 72,28.7 71.7,28.7 
		71.7,28.7 71.7,28.8 71.7,28.8 71.6,28.8 71.6,28.8 71.4,28.8 71.3,28.7 71.3,28.7 71.2,28.5 71.3,28.5 71.3,28.5 71.4,28.4 
		71.4,28.4 71.3,28.3 71.2,28.3 71.2,28.2 71.3,28.1 71.3,28.1 71.3,28.1 71.3,28.1 71.3,28 71.3,28 71.3,27.9 71.2,27.7 71.1,27.6 
		71.1,27.5 71,27.5 71,27.5 71,27.5 71,27.4 70.9,27.4 70.5,27.4 70.3,27.4 70.3,27.4 70.2,27.4 70.2,27.3 70.2,27.2 70.1,27.2 
		70.1,27.1 70,27.1 69.7,27.1 69.6,27 69.6,27 69.6,27 69.5,27 69.5,27 69.4,27 69.4,27 69.3,27 69.3,26.9 69.2,26.9 69,26.8 
		69,26.8 68.9,26.8 68.8,26.8 68.7,26.7 68.7,26.7 68.6,26.7 68.5,26.8 68.5,26.8 68.5,26.9 68.4,27.1 68.5,27.1 68.4,27.2 
		68.4,27.2 68.4,27.2 68.4,27.2 68.5,27.3 68.5,27.4 68.5,27.5 68.5,27.5 68.5,27.5 68.6,27.6 68.7,27.8 68.7,27.8 68.7,27.9 
		68.8,27.9 68.8,27.9 68.9,27.9 68.9,27.9 68.9,27.9 68.9,28 68.9,28 68.9,28.1 68.9,28.1 68.9,28.1 68.8,28.1 68.8,28.2 68.8,28.2 
		68.8,28.3 68.8,28.3 68.8,28.3 68.7,28.4 68.8,28.4 68.7,28.4 68.7,28.4 68.7,28.5 68.7,28.5 68.7,28.5 68.7,28.5 68.6,28.5 
		68.6,28.5 68.6,28.6 68.7,28.6 68.7,28.6 68.7,28.7 68.7,28.7 68.7,28.8 68.7,28.8 68.7,28.8 68.8,28.8 68.8,28.9 68.8,29 
		68.8,29.2 68.8,29.3 68.8,29.4 68.8,29.4 68.8,29.4 68.8,29.5 68.8,29.6 68.8,29.6 68.8,29.7 68.7,29.8 68.7,29.8 68.7,29.8 
		68.7,30 68.7,30 68.7,30 68.6,30.1 68.7,30.1 68.7,30.2 68.7,30.2 68.6,30.3 68.6,30.4 68.6,30.4 68.6,30.5 68.6,30.5 68.5,30.7 
		68.5,30.8 68.5,30.8 68.5,30.9 68.5,30.9 68.4,31 68.4,31 68.4,31 68.4,31 68.3,31 68.3,31.1 68.3,31.1 68.3,31.1 68.2,31.1 
		68.2,31.1 68.2,31.2 68.2,31.2 68.1,31.2 68.1,31.3 68.2,31.3 68.2,31.3 68.2,31.4 68.2,31.4 68.3,31.6 68.2,31.6 68.2,31.6 
		68.2,31.6 68.2,31.7 68.1,31.7 68.1,31.8 68.1,31.8 68,31.8 68,31.8 67.9,31.8 67.9,31.9 67.9,31.9 67.8,32 67.8,32 67.8,32.1 
		67.7,32.1 67.6,32.1 67.6,32.1 67.6,32.2 67.5,32.2 67.5,32.2 67.5,32.2 67.5,32.3 67.5,32.3 67.4,32.4 67.3,32.4 67.3,32.5 
		67.3,32.6 67.3,32.6 67.3,32.7 67.3,32.8 67.4,32.9 67.4,32.9 67.4,32.9 67.5,32.9 67.6,32.9 67.6,32.9 67.6,32.9 67.6,33 67.6,33 
		67.6,33.1 67.7,33.1 67.7,33.1 67.7,33.2 67.7,33.2 67.7,33.2 67.6,33.3 67.6,33.3 67.5,33.4 67.5,33.4 67.5,33.4 67.5,33.4 
		67.5,33.4 67.5,33.4 67.4,33.5 67.4,33.5 67.3,33.5 67.3,33.6 67.3,33.7 67.3,33.9 67.3,33.9 67.3,34 67.3,34 67.4,34.1 67.4,34.1 
		67.4,34.2 67.4,34.3 67.4,34.5 67.4,34.6 67.4,34.7 67.4,34.7 67.3,34.7 67.3,34.8 67.2,34.8 67.2,34.8 67.2,34.9 67.2,34.9 
		67.2,34.9 67.2,35 67.1,35.1 67.1,35.1 67.1,35.1 67,35.1 67,35.1 67,35.2 67,35.2 66.9,35.2 66.9,35.2 66.8,35.2 66.8,35.3 
		66.8,35.3 66.8,35.3 66.8,35.4 66.8,35.4 66.8,35.4 66.9,35.5 66.9,35.6 67,35.7 67,35.7 67.1,35.7 67.1,35.9 67.1,36 67.1,36.1 
		67.1,36.1 67,36.2 67,36.2 67,36.3 67,36.3 67,36.3 67,36.4 67,36.5 67,36.5 67,36.5 67,36.6 67.1,36.7 67.1,36.7 67,36.7 67,36.8 
		67,36.9 66.9,36.9 66.9,36.9 66.7,37.1 66.7,37.1 66.7,37.1 66.8,37.2 66.9,37.1 66.9,37.2 66.9,37.2 66.9,37.2 67,37.3 67,37.3 
		67.1,37.3 67.1,37.4 67.1,37.4 67.1,37.4 67.1,37.5 67.1,37.5 67.1,37.6 67.1,37.6 67.2,37.7 67.5,37.8 67.6,37.8 67.6,37.9 
		67.7,37.9 67.7,37.9 67.7,38 67.7,38 67.7,38 68,38.1 68,38.1 68.1,37.9 68.1,37.8 68.2,37.8 68.3,37.7 68.6,37.6 68.7,37.6 
		68.8,37.6 68.6,37.8 68.5,37.9 68.4,37.8 68.2,37.9 68.3,38 68.4,38 68.5,37.9 68.7,37.9 68.8,37.6 68.9,37.5 69.2,37.4 69.2,37.4 
		69.3,37.3 69.3,37.2 69.2,37.1 69.2,37.1 69.1,37.1 69,36.9 68.9,36.9 68.9,36.9 68.8,36.9 68.9,36.9 68.9,36.9 68.9,37 68.8,37 
		68.7,36.9 68.6,36.9 68.7,36.7 69.1,36.3 69.3,36.1 69.7,35.6 69.8,35.6 69.9,35.5 70.1,35.5 70.3,35.5 70.3,35.5 70.4,35.6 
		70.4,35.5 70.4,35.5 70.4,35.5 70.5,35.4 70.5,35.3 70.8,35.3 71.7,34.9 72,34.9 72.7,34.7 72.9,34.7 72.9,34.7 73,34.6 73.2,34.6 
		73.5,34.5 73.6,34.5 73.9,34.4 74,34.2 74.1,34.1 74.3,33.8 74.4,33.6 74.5,33.6 74.8,33.4 75,33.3 75.1,33.2 75.8,32.9 76.3,32.7 
		76.3,32.6 76.4,32.6 76.4,32.6 76.4,32.5 76.4,32.5 76.5,32.4 76.5,32.4 76.5,32.4 76.6,32.4 76.7,32.4 76.8,32.4 76.9,32.2 
		77.2,32 77.3,31.9 77.4,31.8 77.5,31.7 77.6,31.7 77.7,31.5 77.8,31.5 77.8,31.4 77.9,31.2 77.9,31.1 77.9,31.1 77.9,31 77.8,31 
		77.8,30.9 77.8,30.8 77.8,30.8 77.8,30.7 77.9,30.7 77.9,30.6 77.8,30.5 77.7,30.4 77.6,30.3 77.5,30.2 77.5,30.1 77.5,30 
		77.5,29.9 77.6,29.7 77.6,29.7 77.7,29.6 77.7,29.7 77.9,29.7 78,29.7 78,29.7 78.1,29.7 78.1,29.7 78.1,29.6 78.1,29.6 78.2,29.5 
		78.2,29.3 	"/>
	
		<path id="Castile_-_Leon" fill="#F47C58" stroke="#F9F9FA" stroke-width="0.25" stroke-linecap="round" stroke-linejoin="round" d="
		M55.6,27.4L55.6,27.4l0.3,0.2l0.3,0.1l0.2,0.1l0.3,0l0,0l0,0l0,0l0,0l0,0l0,0l0,0l0-0.1l0,0l0,0l0,0l0,0l0,0l0,0l0,0l0,0l0,0l0,0
		l0,0l0-0.1l0,0l0,0l0,0l0,0l0,0l0,0l0,0l0,0l0,0l0,0l0-0.1l0,0l0,0l0,0l0,0l0,0l0,0l0,0l0,0l0,0l0,0l0,0l0,0l0,0l0,0L56.1,27
		l-0.1,0l0,0L56,27l-0.2,0l0,0l0,0l-0.1,0.1l-0.1,0.1l0,0L55.6,27.4L55.6,27.4z M59.5,32.3L59.5,32.3L59.5,32.3L59.5,32.3l-0.1-0.1
		L59.3,32l0,0l0,0l0,0l0-0.1l0,0l0,0l0,0l0,0l0,0l-0.1-0.1l-0.1-0.2l0-0.2l-0.1,0.1l0,0l-0.1,0l0,0l0,0l-0.1,0l0,0l0,0l0,0l-0.1,0
		l-0.1,0l-0.2-0.1l0,0l0,0l0-0.1l0,0l0,0l0,0l0,0l0,0l0,0l0,0l0,0l0-0.1l-0.1-0.1l0,0l0,0l0,0l0,0l0,0l0,0l0,0l0,0l0,0l0,0l0,0
		l-0.1,0l-0.1,0l-0.1,0l-0.2,0.1l0,0l0,0l0,0l0,0l0,0l0,0l0,0l0,0l0,0l-0.2,0l-0.2,0l-0.1,0l0,0L57,30.4l0,0l-0.1,0l0,0l0,0l0,0
		l0,0.1l0,0.1l0,0l0,0l0,0l0,0l0,0l0,0l0,0.1l0,0.1l0,0l0,0l0,0l-0.1,0l-0.1,0l-0.1,0l0,0h0l0,0l-0.1-0.1l0,0l0,0l-0.1,0l-0.1,0l0,0
		l0,0l0,0l0,0l0,0l0,0l0,0l0,0l0-0.1l0,0l0,0l0,0l0,0l0,0l-0.1,0l0,0l0,0.1l0,0l0,0l0,0l0,0l0,0l0,0l0,0l0,0l-0.1,0.1l-0.1,0.1
		l-0.1,0l0-0.2l0,0l0,0l0,0l0,0l0,0l0,0l0,0l-0.1,0l-0.1,0l0,0l0,0l-0.1,0l0-0.1l0,0l0,0l0-0.1l-0.1,0l0,0l0-0.1l0,0L54.6,30l0,0
		l0,0l0,0l0-0.2l0-0.1l0,0l0,0l0,0l0,0l0,0l0,0l0-0.1l0,0l0,0l0,0l0,0l0,0l0.1,0l0,0l0.1-0.1l0,0l0,0l0,0l0-0.1l0-0.1l0,0l0,0l0,0
		l0,0l0,0l-0.1,0l0,0l0,0l0-0.1l0,0l0,0l0,0l0,0l0,0l0,0l0,0l0,0l0,0l0,0l0.1-0.1l0,0l0,0l0,0l0,0l0,0l0,0l0-0.1l0,0l0.1,0l0.2,0
		l0.2,0l0.1,0l0.1,0l0.3-0.1l0-0.1l0,0l-0.2-0.2l-0.1,0l-0.1-0.1l-0.1,0L55,27.2l-0.1-0.1L54.8,27l-0.1,0.1l-0.1,0l0,0l0,0l0,0l0,0
		l0,0l0,0l0,0l0,0l0,0l0,0l0,0l0-0.1l0-0.1l0,0l0-0.1l0,0l0,0l0,0l-0.1,0.1l0,0l0,0l-0.1,0l0,0l0,0l0,0l0,0l0,0l0,0l0,0l0,0l0,0l0,0
		l-0.1-0.1l-0.1,0l0,0l0,0l0,0l0,0l0.1-0.1l0-0.1l0,0l0,0l0,0l0.1,0l0,0l0,0l0,0l0,0l0,0.1l0,0l0,0l0,0l0.1,0l0,0l0,0l0,0l0.1,0
		l0.1,0l0,0l0,0l0,0h0l0,0l0,0l0,0l0,0l0,0l0,0l-0.1,0l0,0l0,0l0,0l0,0l0,0l0.1,0l0,0l0,0l0,0l0,0l0,0l0,0l0,0l0,0l-0.1,0l0,0l0,0
		l0,0l0,0l0,0l-0.1,0l-0.1,0.1l0,0l0,0l-0.1,0l-0.1,0l0,0l0,0l0,0l0,0l0-0.1l0-0.1l0-0.1l0-0.1l0,0l-0.1,0l0,0l0,0l0-0.1l0,0
		l0.1-0.1l0,0l0,0l0,0l-0.1,0l-0.1,0l-0.1,0L54.1,25l0,0l0,0l0,0l0,0l-0.3,0.2l-0.2,0.1l-0.1,0l-0.1,0l-0.1,0l-0.1,0l-0.1,0l-0.1,0
		l-0.1,0l0,0l-0.1,0l0,0l0,0l-0.1,0l-0.1,0.1l-0.1,0.1l-0.1,0.1l0,0l-0.1,0l-0.1,0l0,0l0,0l-0.1,0l0,0l0,0l0,0l0,0l0,0l0,0l0,0l0,0
		l-0.1,0l-0.1,0l-0.1,0.1l-0.1,0l0,0l0,0l0,0l0,0.1l-0.1,0.2l0,0l0,0l0,0l0,0l0,0l0,0l0,0l0.1,0l0.1-0.1l0,0l0-0.1l0,0l0,0l0,0l0,0
		l0,0l0,0l0,0l0,0l0,0l-0.1,0.1l-0.1,0l0,0l0,0l0,0l0,0l0,0.1l0,0l0,0l0,0l0,0l0,0l0,0l0,0l0,0l0,0l0,0l0,0l0,0l0,0.1l0,0l0,0.1l0,0
		l0,0l0,0l0,0l0,0l-0.1,0l-0.1,0l-0.1,0.1l0,0l-0.1,0l-0.1,0l-0.1,0l0-0.1l0,0l0-0.1l0,0l0,0l0,0l0,0l-0.1,0.2l-0.1,0l0-0.1l0,0l0,0
		l0,0l-0.1,0l0,0l-0.1-0.1l0,0l0,0l0,0l0,0l0.1,0l0,0l0,0l0,0l0,0l0,0l0,0l0,0l-0.1,0l0,0l0,0l0,0l0,0l0,0l0,0l0,0l0,0l0,0l0,0l0,0
		l0,0l0,0l0,0l0-0.1l0-0.1l0,0l0,0l0,0l-0.1,0L50.1,26L50,26l0,0l0,0l0,0l-0.1-0.1l0,0l-0.1,0l0,0l-0.1,0l-0.1,0l0,0l-0.1,0l0,0
		l-0.1,0.1l0,0l-0.1,0l-0.1,0l-0.2,0l-0.1,0l-0.1,0l0-0.1l0,0l-0.1-0.1l0,0l0,0l-0.2-0.1l0,0l0,0l0-0.1l0-0.1l0-0.3l-0.1-0.2
		l-0.1-0.1l0,0l0,0l0,0l-0.2,0.1l-0.1,0.1L47.7,25l-0.1,0l-0.1,0l0,0l0,0.1l0,0l0,0l0,0.1l0,0l-0.1,0.1l0,0l0,0l0,0l0,0l-0.2,0.1
		l-0.4,0l-0.2,0l0,0l0,0l0,0.1l0,0l0,0l0,0l-0.2,0l0,0l0,0l0,0l0,0l0,0l-0.1,0l-0.1,0l0,0l0,0l0,0l0,0l-0.1,0l-0.1,0l-0.1,0
		l-0.1-0.1l-0.1,0l-0.1,0l-0.1,0l0,0l0,0l0,0l0,0l0,0l0,0l0,0l0,0l0,0l0,0l0,0l0,0l0,0l0,0l-0.1,0l-0.1,0l0,0l0,0l-0.1,0l0,0l0,0
		l-0.1,0l0,0l-0.1-0.1l0,0l0,0l0,0l0-0.1l0,0l0,0l-0.1,0l0,0l-0.2,0l0,0l0,0l0,0l0,0l0,0l-0.1,0l0,0l0,0l-0.1,0l-0.1,0l0,0l0,0
		l0,0.1l0,0l0,0l-0.1,0l-0.2-0.1l0,0l-0.1,0l0,0l0,0l-0.1,0l-0.1,0l0,0l0,0l0,0l0,0l0,0v0l0,0l0,0l-0.1,0l-0.1,0l0,0l0,0l0,0l0,0
		l0.1,0l0,0l0,0l0,0l-0.2,0.1l-0.1,0L42,26.4l0,0l-0.2,0l0,0l0,0l0,0l-0.2,0l-0.1,0l-0.1,0l0,0l0,0l0,0l0,0l0,0l0,0l0-0.1l-0.1,0
		l-0.1,0l0,0l0,0l0,0l-0.1,0.1l0,0.1l0,0.1l0,0l0,0.1l0,0l-0.1,0.1l-0.1,0.1l0,0l0,0l0,0l0,0l0,0l-0.1,0.1l-0.1,0l0,0l0,0.1l0,0l0,0
		l0,0.1l0,0l0,0l0,0l0,0l0,0l0,0l0,0l0,0l0,0l0,0.1l0,0.1l-0.1,0.1l0,0l0,0.1l0,0.1l0.2,0l0.2,0l0,0l0,0l0,0l0,0l0,0l0.1,0l0,0l0,0
		l0,0l0,0l0.3,0.1l0,0.1l0,0l0,0.1l0,0l0,0l0,0l0,0l0,0l0.2,0.2l0.1,0.1l0.1,0.1l0,0l0,0l0,0l0,0.1l0,0l0,0l0,0l0,0.1l0,0.1l0,0
		l-0.1,0.1l0,0l0,0.1l0,0l-0.1,0l-0.1,0l-0.1,0l-0.1,0l-0.1,0l-0.1,0.1l0,0l0,0l0,0.1l0,0l0,0l0,0l0,0l-0.1,0.1l0,0l0,0l0,0l0,0l0,0
		l0,0l0.1,0l0,0l0,0.1l0,0l0,0l-0.1,0.2l0,0l0,0l0,0l0,0.1l0,0l0.1,0l0.1,0.1l0.1,0l0.2,0l0.1-0.1l0-0.1l0.1,0l0.1,0.2l0.1,0l0.3,0
		l0.1,0l0-0.1l0.1,0l0,0.1l0,0.1l0,0.2l0,0l0.1,0l0.1,0l0,0.1L42,32.1l0,0l0,0l0,0l0,0l0,0l0,0l0,0.1l0,0.1l0.1,0.1l0.1,0l0,0l0.1,0
		l0.1,0l0,0l0,0l0.1,0l0.3,0.1l0.2,0.1l0.2,0.1l0.2,0.2l0.1,0.1l0,0l-0.2,0.3L43,33.4l0,0l0,0l0,0l0,0l-0.1,0.2l0,0l-0.1,0l-0.1,0
		l0,0l0,0l0,0l0,0l0,0l0,0l0,0l0,0l-0.1,0.2l-0.1,0.1l-0.1,0.1L42,34.5l0,0l-0.2,0l-0.1,0l0,0l-0.1,0.2l0,0.1l0,0L41.3,35l0,0.1l0,0
		l0,0.1l0,0.1l-0.1,0.2L41,35.6l-0.1,0l-0.2,0l-0.1,0l0,0l0,0.1l0,0.1l0,0.1l0,0.1l0.1,0.1l0.1,0.1l0.1,0.2l0,0.1l0,0l0.1,0l0,0
		l0,0.1l0,0.1l-0.1,0l0,0.1l0,0l0,0.1l0,0l0,0l0,0V37l0,0.1l0,0.2l0,0.2l0,0.1l0,0.1l0,0.1l-0.1,0.2l0,0.1l0,0.1l0,0l0,0l0,0.1
		l0,0.1l0,0.1l-0.1,0.1l-0.1,0.2l0,0.2l0.1,0.1l0.1,0.1L41,39.1l0,0l-0.2,0.1l0,0l0,0l0,0l0,0l0.1,0.1l0,0l0,0l0,0l0,0l0,0l0,0l0,0
		l0.1,0l0.1-0.1l0,0l0.1,0l0,0l0,0l0,0l0,0l0.3,0l0.1,0l0,0l0,0l0,0l0,0l0-0.1l0,0l0,0l0,0l0.1-0.1l0,0l0.1,0l0,0l0.1-0.1l0.1-0.1
		l0,0l0,0l0.1,0l0,0l0,0l0,0l0,0l0,0l0,0l0,0l0.1,0l0,0l0,0l0.1-0.1l0,0l0,0l0.1,0l0.1,0.1l0,0l0.1,0.1l0,0l0.1,0l0,0l0,0l0,0l0,0
		l0.1,0l0,0l0,0l0,0l0,0l0,0l0,0l0,0l0,0l0,0l0,0l0,0l0,0l0.1,0.1l0.1,0l0,0l0,0l0,0l0.1,0.1l0.1,0l0,0l0,0l0,0l0,0l0,0l0,0l0,0l0,0
		l0,0l0.1,0l0.1,0l0,0l0,0l0,0l0,0l0,0l0,0l0,0.1l0,0l0,0l0.1,0l0.1,0l0.1,0.1l0.1,0.1l0.1,0.1l0.1,0.1l0.1,0.1l0.1,0l0.1,0l0,0l0,0
		l0,0l0-0.1l0,0l0.1-0.1l0.2-0.1l0.1,0l0,0l0,0l0,0.1l0,0l0,0l0,0.2l0,0.1l0,0l0,0l0.1,0.1l0.4,0l0.1,0l0,0l0.1,0l0.1,0l0,0l0,0l0,0
		l0.2-0.1l0,0l0,0l0,0l0,0l0.1,0l0,0l0,0l0,0.1l0,0l0.1,0l0.1,0l0.1,0L48,40l0,0l0,0l0,0l0,0l0-0.1l0,0l0.1,0l0,0l0.1,0l0.1-0.1
		l0-0.1l0,0l0,0l0-0.1l0,0l0.1,0l0.2,0l0.1,0l0,0l0,0l0,0l0,0l0,0l0,0.1l0,0l0,0l0,0l0.1,0l0,0l0.1,0l0.1,0l0.1,0l0.1-0.1l0-0.2
		l0-0.1l0,0l0,0l0,0l0-0.1l0,0l0,0l0,0l0,0l0,0l0,0.1l0,0l0,0l0.1,0l0,0l0,0l0,0l0-0.1l0,0l0,0l0,0l0-0.1l0,0l0,0l0,0l0,0l0,0l0,0
		l0,0l0,0l0,0l0,0l0,0l0.1,0l0,0l0,0l0-0.1l0-0.1l0,0l0,0l0,0l0,0l0-0.1l0,0l0,0l0,0l0-0.1l0,0l0,0l0,0l0,0l0,0l0,0l0,0l0,0l0-0.1
		l0,0l0,0l0,0l0,0l0,0l0,0l0,0l0,0l0,0.1l0,0l0,0l0,0l0.1,0l0.1,0l0,0l0,0l0,0l0,0l0-0.1l0-0.1l0,0l0-0.1l0.1-0.2l0,0L51,37l0,0
		l0.1,0l0,0l0,0l0,0l0,0l0.1,0l0,0l0,0l0,0l0,0l0-0.1l0,0l0-0.1l0,0l0,0l0,0l0,0l0,0l0-0.1l0,0l0,0l0-0.1l0.1-0.1l0,0l0,0l0,0
		l0.3-0.1l0,0l0,0l0.1-0.1l0,0l0,0l0-0.1l0,0l0.1,0l0.2-0.1l0.1-0.1l0.1-0.1l0,0l0,0l0,0l0.1-0.1l0.2,0l0.1,0l0,0l0.3-0.2l0.1,0l0,0
		l0,0l0-0.1l0,0l0,0l0,0l0,0l0,0l0.1,0l0.2,0l0.2,0l0,0l0.1,0l0.1-0.1l0.1,0l0.4,0.1l0.1,0l0.2,0l0.1,0l0.1,0l0,0l0,0l0,0l0,0l0,0
		l0,0l0.1,0l0,0l0,0l0,0l0,0.1l0,0l0,0l0.1,0l0.1,0l0,0l0,0l0,0l0,0l0,0l0,0l0,0l0,0l0,0l0.1,0l0.1,0l0.1,0l0,0l0,0l0,0l0,0l0,0l0,0
		l0,0l0,0l0,0l-0.1,0l0,0l0,0l0.1,0l0,0l0,0l0,0.1l0,0l0,0l0,0l0.1,0l0,0l0,0l0,0l0,0l0,0l0,0l0,0l0,0l0,0l0,0l0,0l0,0l0,0.1l0,0
		l0,0l0,0l0.1,0l0,0l0.1-0.1l0,0l0,0l0,0l0.1,0l0,0l0.1,0l0.1,0l0,0l0,0l0,0l0.1,0l0.1,0l0,0l0,0l0.1-0.1l0,0l0,0l0,0l0,0l0.1,0.1
		l0,0l0,0l0,0l0,0l0,0l0,0l0,0l0-0.1l0-0.1l0-0.1l0,0L58.4,35l0,0l0,0l0,0l-0.1,0l0,0l0,0l0,0l0-0.2l0-0.2l0,0l0,0l0-0.1l0-0.2
		l0-0.1l0,0l0,0l0,0l0,0l0,0l0,0l0-0.1l0,0l0,0l0,0l0,0l0,0l0,0l0.1,0l0.1,0l0,0l0,0l0,0l0,0l0,0l0,0l0,0l0,0l0,0l0,0l0.1,0l0.1,0
		l0,0l0,0l0,0l0,0l0-0.2l0,0l0,0l0,0l0-0.1l0-0.1l0-0.2l0-0.1l0,0l0,0l0,0l0,0l0,0l0,0l0,0l0,0l0,0l0,0l0.1,0l0,0l0,0l0,0l0.1-0.1
		l0.1,0l0,0l0,0l0,0l0,0l0,0l0,0l0,0l0-0.1l0,0l0,0L59.5,32.3L59.5,32.3z"/>
	
		<polygon id="Castile_-_La_Mancha" fill-rule="evenodd" clip-rule="evenodd" fill="#F47C58" stroke="#F9F9FA" stroke-width="0.25" stroke-linecap="round" stroke-linejoin="round" points="
		62.7,46.9 62.7,46.8 62.7,46.8 62.6,46.7 62.6,46.7 62.6,46.6 62.6,46.5 62.6,46.5 62.6,46.5 62.6,46.5 62.7,46.4 62.7,46.3 
		62.7,46.3 62.7,46.3 62.7,46.3 62.7,46.1 62.7,46.1 62.7,46 62.7,46 62.7,45.9 62.5,45.7 62.5,45.7 62.5,45.7 62.4,45.7 62.4,45.7 
		62.4,45.7 62.3,45.7 62.2,45.7 62.1,45.7 62,45.7 61.9,45.7 61.9,45.7 61.8,45.7 61.5,45.2 61.4,45.2 61.4,45.1 61.4,45.1 61.4,45 
		61.4,45 61.5,45 61.5,44.9 61.5,44.9 61.5,44.8 61.5,44.8 61.6,44.7 61.6,44.7 61.6,44.6 61.6,44.6 61.7,44.6 61.7,44.5 61.7,44.5 
		61.7,44.4 61.7,44.4 61.7,44.4 61.7,44.3 61.7,44.3 61.7,44.2 61.7,44.2 61.7,44.1 61.8,44.1 61.8,44.1 61.8,44 61.7,44 61.2,43.8 
		61.2,43.8 61.2,43.8 61.1,43.8 61,43.7 60.9,43.7 60.9,43.7 60.8,43.7 60.8,43.7 60.8,43.7 60.8,43.7 60.8,43.7 60.7,43.7 
		60.7,43.6 60.7,43.6 60.7,43.6 60.7,43.6 60.7,43.5 60.7,43.5 60.7,43.5 60.6,43.5 60.6,43.5 60.6,43.5 60.6,43.4 60.5,43.4 
		60.5,43.4 60.5,43.4 60.5,43.4 60.5,43.3 60.5,43.3 60.5,43.3 60.5,43.3 60.5,43.2 60.5,43.1 60.5,43.1 60.5,43.1 60.6,43.1 
		60.6,43.1 60.6,43.1 60.5,43.1 60.5,43 60.5,43 60.5,43 60.5,42.9 60.5,42.9 60.6,42.9 60.6,42.9 60.6,42.9 60.5,42.9 60.5,42.9 
		60.5,42.8 60.5,42.8 60.5,42.8 60.6,42.8 60.6,42.7 60.6,42.7 60.6,42.7 60.7,42.6 60.8,42.4 60.8,42.3 60.9,42.3 61,42.2 61,42.2 
		61.1,42.2 61.1,42.2 61.2,42.2 61.2,42.2 61.2,42.2 61.3,42.2 61.3,42.2 61.3,42.2 61.4,42.2 61.4,42.2 61.4,42.1 61.4,42.1 
		61.4,42 61.4,42 61.4,41.9 61.4,41.9 61.5,41.7 61.5,41.7 61.6,41.6 61.6,41.6 61.6,41.3 61.7,41.2 61.7,41.2 61.7,41.1 61.7,41.1 
		61.7,41 61.6,41 61.6,41 61.6,40.9 61.7,40.9 61.8,40.8 61.9,40.8 61.8,40.6 61.7,40.6 61.7,40.6 61.6,40.7 61.6,40.7 61.5,40.7 
		61.5,40.7 61.5,40.7 61.4,40.7 61.3,40.6 61.1,40.6 61.1,40.6 61,40.6 61,40.6 60.9,40.3 60.9,40.2 60.9,40.2 60.9,40.1 60.8,40.1 
		60.7,40.1 60.7,40 60.7,39.9 60.8,39.9 60.8,39.8 60.8,39.8 60.8,39.8 60.8,39.7 60.8,39.7 60.7,39.7 60.6,39.7 60.6,39.7 
		60.5,39.7 60.5,39.7 60.4,39.7 60.4,39.7 60.3,39.7 60,39.3 59.9,39.3 59.8,39.3 59.8,39.3 59.8,39.3 59.7,39.3 59.7,39.2 
		59.8,39.2 59.8,39.1 59.7,39.1 59.6,38.8 59.5,38.8 59.4,38.7 59.5,38.7 59.5,38.7 59.5,38.6 59.6,38.5 59.7,38.4 59.7,38.4 
		59.8,38.4 59.8,38.3 59.8,38.3 59.8,38.1 59.8,38.1 59.9,37.9 59.9,37.8 59.9,37.8 60,37.9 60,37.9 60.1,37.9 60.1,37.9 60.2,37.9 
		60.2,37.9 60.2,37.9 60.3,37.9 60.3,37.9 60.3,37.8 60.4,37.8 60.3,37.7 60.4,37.7 60.4,37.6 60.4,37.5 60.4,37.5 60.4,37.4 
		60.4,37.3 60.4,37.3 60.4,37.2 60.3,37.2 60.3,37.1 60.3,37.1 60.4,37 60.4,37 60.4,36.9 60.4,36.8 60.4,36.8 60.4,36.7 60.4,36.7 
		60.3,36.6 60.2,36.6 60.2,36.5 60.2,36.5 60.1,36.4 60.1,36.2 60.1,36.2 60.1,36.1 60,36 60,36 59.9,35.9 59.9,35.9 59.7,35.7 
		59.6,35.6 59.6,35.6 59.6,35.6 59.6,35.6 59.6,35.5 59.4,35.4 59.3,35.3 59.1,35.2 59,35.1 59,35.1 58.9,35.1 58.9,35 58.8,35 
		58.5,35.1 58.5,35.2 58.5,35.3 58.5,35.4 58.5,35.4 58.5,35.4 58.5,35.5 58.4,35.5 58.4,35.4 58.4,35.4 58.4,35.4 58.3,35.3 
		58.3,35.3 58.2,35.3 58.2,35.3 58.2,35.3 58.1,35.4 58,35.4 58,35.4 57.9,35.4 57.8,35.4 57.8,35.4 57.8,35.5 57.7,35.5 57.7,35.5 
		57.6,35.5 57.5,35.5 57.4,35.5 57.4,35.5 57.4,35.4 57.3,35.5 57.2,35.5 57.2,35.5 57.1,35.5 57,35.4 57,35.4 57,35.4 57,35.3 
		56.9,35.3 56.9,35.3 56.9,35.2 56.9,35.2 56.8,35.2 56.8,35.2 56.8,35.2 56.8,35.1 56.8,35.1 56.8,35.1 56.7,35.1 56.7,35.1 
		56.6,35.1 56.6,35.1 56.6,35.1 56.6,35.1 56.6,35 56.6,35 56.6,35 56.5,34.9 56.5,34.9 56.5,34.9 56.5,34.8 56.6,34.8 56.6,34.8 
		56.5,34.8 56.5,34.8 56.5,34.8 56.4,34.8 56.4,34.8 56.4,34.7 56.4,34.7 56.3,34.7 56.2,34.6 56.2,34.6 56.1,34.6 56.1,34.6 
		56.1,34.5 56,34.5 56,34.5 56,34.5 55.9,34.5 55.9,34.5 55.8,34.6 55.8,34.6 55.6,34.5 55.6,34.5 55.5,34.5 55.5,34.4 55.5,34.4 
		55.5,34.3 55.5,34.3 55.4,34.3 55.4,34.3 55.3,34.3 55.3,34.3 55.3,34.3 55.3,34.3 55.2,34.4 55.2,34.4 55.1,34.4 54.9,34.5 
		54.7,34.5 54.3,34.4 54.2,34.4 54.1,34.5 54,34.5 54,34.6 53.8,34.6 53.6,34.6 53.5,34.5 53.5,34.6 53.5,34.6 53.5,34.6 53.5,34.6 
		53.6,34.7 53.5,34.8 53.5,34.8 53.5,34.8 53.4,34.8 53.1,35 53.1,35.1 53,35 53.1,35.1 53.2,35.3 53.2,35.3 53.3,35.4 53.3,35.4 
		53.4,35.4 53.4,35.4 53.4,35.5 53.5,35.6 53.5,35.8 53.5,35.8 53.5,35.9 53.5,36 53.5,36 53.5,36 53.4,36.1 53.4,36.2 53.4,36.2 
		53.4,36.3 53.4,36.3 53.4,36.3 53.4,36.4 53.4,36.4 53.4,36.4 53.4,36.5 53.3,36.5 53.3,36.5 53.3,36.5 53.3,36.5 53.3,36.7 
		53.3,36.7 53.3,36.7 53.2,36.8 53.2,36.8 53.2,36.8 53.2,36.8 53.2,36.9 53.2,36.9 53.4,36.9 53.4,36.9 53.4,37 53.4,37 53.4,37.1 
		53.4,37.1 53.4,37.2 53.4,37.2 53.4,37.3 53.4,37.3 53.4,37.3 53.4,37.4 53.4,37.4 53.4,37.4 53.5,37.4 53.6,37.4 53.6,37.4 
		53.6,37.4 53.6,37.4 53.6,37.4 53.7,37.5 53.7,37.5 53.8,37.6 53.8,37.6 53.8,37.6 53.9,37.5 53.9,37.6 53.9,37.7 53.8,37.8 
		53.9,37.8 53.9,37.9 53.9,37.9 54,37.9 54,38 54,38 54,38 54,38 54,38.1 54,38.1 54,38.1 54,38.1 54,38.1 54,38.1 54,38.1 
		54.1,38.1 54.1,38.1 54.1,38.1 54.2,38.1 54.2,38.1 54.2,38.1 54.3,38.2 54.3,38.2 54.3,38.2 54.3,38.3 54.3,38.4 54.3,38.5 
		54.3,38.5 54.3,38.6 54.4,38.6 54.4,38.6 54.5,38.6 54.5,38.7 54.5,38.8 54.5,38.8 54.5,38.8 54.5,38.8 54.5,38.9 54.5,38.9 
		54.5,38.9 54.5,39 54.5,39 54.5,39 54.5,39.1 54.5,39.1 54.4,39.1 54.4,39.2 54.4,39.2 54.4,39.3 54.4,39.3 54.4,39.3 54.4,39.4 
		54.4,39.5 54.4,39.5 54.4,39.5 54.4,39.5 54.5,39.4 54.5,39.4 54.6,39.3 54.6,39.3 54.7,39.4 54.7,39.4 54.7,39.5 54.7,39.6 
		54.7,39.6 54.7,39.7 54.8,39.9 54.7,39.9 54.7,39.9 54.7,39.9 54.7,40 54.7,40 54.8,40 54.8,40.1 54.8,40.1 54.8,40.1 54.8,40.2 
		54.8,40.2 54.8,40.2 54.8,40.3 54.7,40.3 54.6,40.3 54.4,40.3 54.4,40.3 54.4,40.3 54.4,40.2 54.2,40.3 54,40.4 53.8,40.4 
		53.8,40.5 53.7,40.4 53.7,40.4 53.6,40.4 53.2,40.4 53.1,40.5 53.1,40.5 53.1,40.6 53.1,40.6 52.9,40.6 52.9,40.6 52.9,40.6 
		52.9,40.7 52.8,40.7 52.8,40.7 52.7,40.7 52.7,40.7 52.7,40.8 52.7,40.8 52.7,40.8 52.6,40.9 52.5,40.9 52.5,40.9 52.4,40.9 
		52.4,40.9 52.3,41 52.3,41 52.3,41 52.2,41.1 52.2,41.1 52.1,41.1 52.1,41.2 52.1,41.2 52,41.2 51.9,41.1 51.8,41.1 51.8,41 
		51.9,41 51.9,41 52.1,40.9 52.2,40.9 52.2,40.9 52.3,40.8 52.3,40.8 52.4,40.8 52.4,40.7 52.6,40.5 52.6,40.5 52.7,40.5 52.7,40.5 
		52.7,40.5 52.7,40.4 52.8,40.4 52.8,40.4 52.8,40.3 52.8,40.3 52.8,40.2 52.8,40.2 52.8,40.2 52.7,40.1 52.6,40 52.5,40 52.4,40 
		52.4,40 52.3,40 52.3,40 52.2,40 52.2,40 52.2,39.9 52.1,39.9 52.1,39.9 52,39.9 52,39.9 52,39.9 51.9,39.8 51.9,39.8 51.9,39.8 
		51.7,39.7 51.6,39.7 51.4,39.6 51.4,39.6 51.3,39.6 51.3,39.5 51.3,39.5 51.3,39.5 51.2,39.5 51.2,39.4 51.1,39.4 51.1,39.4 
		51.1,39.5 51,39.5 50.9,39.5 50.9,39.5 50.8,39.4 50.8,39.3 50.7,39.3 50.7,39.3 50.6,39.4 50.5,39.4 50.5,39.4 50.4,39.4 
		50.4,39.5 50.4,39.5 50.4,39.6 50.3,39.6 50.3,39.6 50.3,39.6 50.2,39.5 50.2,39.5 50.1,39.5 50.1,39.5 50.1,39.4 50.1,39.4 
		50.1,39.3 50.1,39.3 50.1,39.2 50.1,39.2 50,39.2 50,39.2 50,39.2 50,39.3 49.9,39.3 49.9,39.3 49.8,39.4 49.8,39.5 49.8,39.5 
		49.7,39.6 49.6,39.6 49.5,39.6 49.5,39.7 49.5,39.7 49.5,39.7 49.4,39.7 49.4,39.7 49.3,39.6 49.2,39.7 49.1,39.7 49,39.7 49,39.7 
		48.9,39.7 48.9,39.7 48.9,39.6 48.8,39.6 48.8,39.5 48.8,39.4 48.8,39.4 48.8,39.4 48.8,39.3 48.8,39.3 48.7,39.4 48.5,39.4 
		48.4,39.4 48.4,39.4 48.4,39.5 48.4,39.5 48.4,39.6 48.3,39.6 48.3,39.7 48.2,39.7 48.2,39.8 48.1,39.8 48.1,39.8 48,39.9 48,39.9 
		48,40 48,40 48,40 47.9,40.1 47.8,40.1 47.7,40.1 47.7,40.1 47.7,40.1 47.6,39.9 47.6,39.9 47.6,39.9 47.5,40 47.4,40 47.4,40 
		47.4,40 47.4,40.1 47.2,40.2 47.2,40.2 47.2,40.2 47.1,40.2 47.1,40.2 47,40.2 47,40.2 46.9,40.2 46.5,40.1 46.4,40.2 46.4,40.2 
		46.4,40.2 46.3,40.3 46.3,40.4 46.3,40.4 46.3,40.7 46.3,41 46.3,41.2 46.3,41.2 46.3,41.2 46.4,41.2 46.5,41.2 46.5,41.2 
		46.5,41.2 46.6,41.2 46.6,41.3 46.6,41.3 46.6,41.3 46.6,41.4 46.6,41.4 46.6,41.5 46.6,41.5 46.6,41.6 46.6,41.6 46.5,41.7 
		46.5,41.8 46.5,41.8 46.6,41.8 46.7,41.8 46.7,41.9 46.8,41.8 46.8,41.8 46.8,41.8 46.9,41.7 46.9,41.7 47,41.7 47,41.6 47.1,41.6 
		47.1,41.7 47.1,41.7 47.1,41.8 47.1,41.8 47.1,41.9 47.1,41.9 47.1,42 47.2,42 47.2,42 47.2,42.1 47.2,42.1 47.1,42.2 47.1,42.3 
		47.1,42.3 47.1,42.3 47.1,42.4 47.1,42.4 47.1,42.5 47,42.5 47,42.5 47,42.6 47,42.6 47,42.6 47,42.7 47,42.7 47.1,42.7 47.1,42.8 
		47.2,42.9 47.3,43 47.4,43.1 47.4,43.1 47.5,43.1 47.5,43.1 47.6,43.2 47.6,43.2 47.7,43.4 47.8,43.4 47.8,43.5 47.8,43.5 
		47.9,43.5 47.9,43.6 48.1,43.7 48.2,43.6 48.2,43.6 48.3,43.6 48.3,43.6 48.4,43.6 48.5,43.5 48.6,43.5 48.6,43.4 48.8,43.3 
		48.8,43.3 48.9,43.4 48.9,43.5 48.8,43.6 48.8,43.8 48.7,43.8 48.7,43.9 48.6,43.9 48.6,43.9 48.6,43.9 48.6,44 48.6,44 48.7,44.2 
		48.7,44.3 48.7,44.3 48.8,44.4 48.8,44.4 48.9,44.5 49,44.6 48.9,44.6 48.9,44.6 48.8,44.5 48.7,44.5 48.7,44.5 48.6,44.5 
		48.6,44.5 48.5,44.5 48.5,44.5 48.4,44.5 48.4,44.5 48.4,44.5 48.4,44.5 48.3,44.6 48.3,44.6 48.3,44.6 48.2,44.7 48.2,44.7 
		48.2,44.9 48.2,45 48.2,45 48.2,45.1 48.3,45.1 48.3,45.1 48.3,45.2 48.3,45.2 48.2,45.3 48.2,45.3 48.1,45.3 48.1,45.2 48,45.2 
		48,45.2 47.9,45.2 47.9,45.2 47.9,45.2 47.9,45.2 47.9,45.3 47.9,45.3 47.9,45.3 47.9,45.4 47.9,45.4 47.9,45.4 47.9,45.4 48,45.4 
		48,45.5 48,45.5 48,45.5 48,45.6 48,45.6 48,45.6 48.1,45.7 48.2,45.7 48.3,45.7 48.3,45.7 48.3,45.8 48.3,45.8 48.3,45.9 48.2,46 
		48.2,46 48.1,46 48.1,46 48,46 48,46 48,46 48,46 47.9,46.1 47.9,46.2 47.8,46.5 47.8,46.6 47.7,46.7 47.7,46.7 47.7,46.7 
		47.7,46.7 47.6,46.7 47.6,46.7 47.8,46.9 47.9,46.9 48,46.9 48,46.9 48.1,46.9 48.2,46.9 48.2,47 48.2,47 48.2,47.1 48.2,47.1 
		48.2,47.2 48.3,47.2 48.3,47.3 48.4,47.3 48.4,47.3 48.5,47.3 48.5,47.3 48.7,47.4 48.7,47.4 48.8,47.5 48.8,47.5 48.9,47.5 
		48.9,47.6 49,47.7 49.1,47.7 49.1,47.8 49.1,47.8 49.2,47.8 49.2,47.8 49.2,47.8 49.3,47.8 49.3,47.9 49.4,47.9 49.5,48 49.6,48.1 
		49.6,48.2 49.7,48.2 49.7,48.3 49.9,48.3 50,48.4 50,48.4 50.3,48.5 50.3,48.5 50.4,48.5 50.4,48.3 50.4,48.3 50.4,48.2 50.4,48.2 
		50.5,48.2 50.6,48.2 50.7,48.3 51.8,48.3 51.9,48.3 52,48.3 52,48.2 52,48.2 52.1,48.1 52.1,48.1 52.2,48.1 52.2,48.1 52.3,48.1 
		52.3,48.2 52.4,48.2 52.4,48.1 52.4,48.1 52.5,48.2 52.6,48.2 52.8,48.2 52.8,48.2 52.9,48.2 52.9,48.2 52.9,48.2 52.9,48.1 
		52.9,48 53,48 53,48 53,48 53.1,48 53.1,48.1 53.1,48.1 53.1,48.1 53.1,48.2 53.1,48.2 53.3,48.2 53.3,48.2 53.4,48.2 53.4,48.2 
		53.5,48.2 53.6,48.1 53.6,48.1 53.7,48 53.7,48 53.7,48 53.7,47.9 53.7,47.9 53.8,47.9 53.9,47.9 53.9,47.9 54,47.9 54,47.9 
		54.1,47.9 54.2,48 54.4,48 54.5,48 54.6,48 54.6,48 54.7,47.9 54.8,47.9 54.8,47.9 54.8,47.9 54.9,47.9 55,48 55,48.1 55,48.1 
		55.1,48.1 55.1,48.1 55.1,48 55.1,48 55.2,47.9 55.2,47.9 55.3,47.9 55.3,47.9 55.4,47.9 55.4,47.9 55.4,47.9 55.5,48 55.5,48 
		55.5,48 55.5,48 55.5,47.9 55.5,47.9 55.5,47.9 55.6,47.9 55.6,47.9 55.6,47.9 55.6,47.9 55.7,47.8 55.7,47.8 55.8,47.8 55.8,47.8 
		55.8,47.7 55.9,47.7 55.9,47.7 55.9,47.6 56.1,47.7 56.2,47.8 56.3,47.8 56.4,47.7 56.4,47.7 56.5,47.7 56.6,47.8 56.6,47.8 
		56.6,47.8 56.6,47.8 56.6,47.8 56.6,47.8 56.6,47.9 56.6,47.9 56.6,48 56.6,48 56.6,48.1 56.6,48.1 56.6,48.1 56.6,48.1 56.7,48.2 
		56.9,48.3 56.9,48.3 56.9,48.3 56.9,48.4 56.9,48.4 56.9,48.5 57,48.5 57,48.6 57,48.6 57,48.7 57,48.7 57.1,48.8 57.1,48.8 
		57.1,48.9 57.1,48.9 57.1,48.9 57.1,49 57.1,49 57.1,49 57.1,49.1 57.1,49.1 57.1,49.1 57.1,49.1 57.1,49.2 57.1,49.2 57.1,49.2 
		56.9,49.5 56.8,49.6 56.8,49.6 56.7,49.7 56.7,49.7 57,49.9 57.4,50 57.4,50 57.5,50 57.5,49.8 57.5,49.8 57.7,49.6 57.8,49.5 
		57.9,49.3 57.9,49.2 58,49.1 58.1,49.1 58.1,49.1 58.2,49 58.2,49 58.4,48.9 58.5,48.8 58.6,48.7 58.6,48.7 58.6,48.7 58.7,48.7 
		58.7,48.8 58.7,48.8 58.8,48.8 58.9,48.8 59,48.8 59,48.7 59.1,48.7 59.3,48.6 59.5,48.5 59.5,48.4 59.5,48.4 59.5,48.4 59.5,48.4 
		59.5,48.4 59.6,48.4 59.6,48.4 59.6,48.3 59.7,48.3 59.7,48.3 59.7,48.4 59.7,48.4 59.8,48.4 59.8,48.4 59.9,48.4 59.9,48.4 
		59.9,48.4 59.9,48.4 59.9,48.5 59.9,48.5 59.9,48.5 59.9,48.5 59.9,48.6 59.9,48.6 59.9,48.6 59.9,48.6 60,48.7 60,48.7 60.1,48.7 
		60.1,48.7 60.3,48.6 60.6,48.4 60.6,48.3 60.6,48.3 60.6,48.3 60.6,48.2 60.6,48.2 60.6,48.1 60.6,48 60.6,47.9 60.6,47.8 
		60.6,47.7 60.6,47.7 60.6,47.7 60.5,47.6 60.5,47.6 60.6,47.6 60.6,47.6 60.6,47.5 60.6,47.5 60.7,47.4 60.7,47.4 60.7,47.4 
		60.7,47.3 60.7,47.3 60.7,47.2 60.8,47 60.9,46.9 61,46.9 61,46.8 61.1,46.8 61.1,46.9 61.1,46.9 61.1,46.9 61.2,46.9 61.4,46.8 
		61.5,46.7 61.5,46.7 61.5,46.6 61.7,46.6 61.8,46.6 61.9,46.6 61.9,46.7 62,46.7 62,46.7 62,46.7 62,46.8 62,46.8 62.1,46.9 
		62.3,47.1 62.4,47 62.4,47 62.5,47 62.5,47 62.6,47 62.7,46.9 62.7,46.9 62.7,46.9 	"/>
	
		<polygon id="Cantabria" fill-rule="evenodd" clip-rule="evenodd" fill="#F47C58" stroke="#F9F9FA" stroke-width="0.25" stroke-linecap="round" stroke-linejoin="round" points="
		54.5,24.2 54.5,24.1 54.5,24.1 54.4,24.1 54.3,24 54.3,24 54.2,24 54.1,23.9 53.8,23.9 53.7,23.8 53.6,23.8 53.5,23.8 53.4,23.8 
		53.4,23.8 53.3,23.9 53.3,23.9 53.3,23.8 53.2,23.8 53.3,23.7 53.3,23.7 53.3,23.7 53.3,23.7 53.4,23.7 53.4,23.7 53.4,23.7 
		53.4,23.7 53.5,23.7 53.5,23.7 53.5,23.7 53.5,23.6 53.5,23.6 53.4,23.6 53.2,23.5 53.2,23.5 53.1,23.5 53.1,23.4 53,23.4 53,23.3 
		52.9,23.3 52.6,23.4 52.6,23.4 52.6,23.5 52.5,23.5 52.4,23.5 52.4,23.5 52.4,23.6 52.4,23.6 52.4,23.6 52.4,23.6 52.3,23.6 
		52.3,23.6 52.3,23.6 52.3,23.6 52.3,23.6 52.3,23.7 52.3,23.7 52.3,23.7 52.3,23.7 52.2,23.7 52.2,23.7 52.2,23.7 52.1,23.8 
		52.1,23.8 52.1,23.8 52,23.8 52,23.8 52,23.8 52,23.8 52,23.8 52,23.8 52,23.8 52,23.8 51.9,23.7 52,23.7 52.1,23.6 52.2,23.5 
		52.1,23.5 52,23.4 51.9,23.5 51.8,23.5 51.8,23.5 51.8,23.5 51.7,23.5 51.7,23.5 51.6,23.5 51.5,23.6 51.5,23.7 51.5,23.7 
		51.5,23.7 51.5,23.7 51.5,23.7 51.5,23.7 51.4,23.7 51.3,23.7 51.3,23.7 51.3,23.7 51.3,23.7 51.3,23.7 51.3,23.7 51.1,23.7 
		51,23.8 50.8,23.8 50.7,23.9 50.2,24 50,23.9 50,24 50,24 50,24 49.9,24 49.8,23.9 49.7,23.9 49.6,24 49.5,23.9 49.5,23.9 
		49.5,23.9 49.5,24 49.5,24 49.5,24.1 49.4,24.2 49.4,24.2 49.4,24.2 49.4,24.2 49.5,24.3 49.5,24.4 49.5,24.5 49.4,24.5 49.4,24.5 
		49.4,24.6 49.4,24.6 49.3,24.5 49.3,24.5 49.3,24.5 49.2,24.5 49.2,24.4 49.2,24.5 49.1,24.5 49.1,24.5 49.1,24.5 49,24.6 49,24.6 
		48.9,24.6 48.9,24.6 48.9,24.6 48.8,24.6 48.8,24.6 48.7,24.6 48.7,24.6 48.7,24.7 48.7,24.8 48.7,24.8 48.7,24.8 48.7,24.9 
		48.7,24.9 48.7,25 48.6,25 48.6,25 48.5,25 48.5,25 48.5,25 48.4,25 48.3,25 48.3,25.3 48.3,25.3 48.3,25.4 48.4,25.4 48.4,25.5 
		48.5,25.6 48.6,25.6 48.6,25.6 48.7,25.7 48.7,25.7 48.7,25.9 48.8,25.9 48.8,25.9 49,25.9 49.2,25.8 49.3,25.8 49.3,25.8 
		49.5,25.8 49.5,25.8 49.6,25.8 49.6,25.7 49.7,25.7 49.7,25.7 49.8,25.7 49.9,25.8 49.9,25.8 50,25.9 50,25.9 50,26 50,26 50.1,26 
		50.4,26.2 50.5,26.2 50.5,26.2 50.5,26.3 50.5,26.3 50.5,26.4 50.5,26.4 50.5,26.5 50.5,26.5 50.5,26.6 50.5,26.6 50.5,26.6 
		50.5,26.7 50.5,26.7 50.6,26.7 50.6,26.7 50.6,26.7 50.6,26.7 50.6,26.7 50.7,26.7 50.7,26.7 50.8,26.6 50.9,26.7 50.9,26.7 
		50.9,26.7 50.9,26.8 50.8,26.8 50.8,26.8 50.8,26.8 50.7,26.8 50.7,26.8 50.7,26.9 50.7,26.9 50.7,26.9 50.8,27 50.8,27 50.9,27 
		51,27 51,27 51,27.1 51.1,27.1 51.2,27.1 51.3,26.9 51.3,26.8 51.4,26.8 51.4,26.8 51.4,26.9 51.4,27 51.4,27 51.4,27.1 51.5,27.1 
		51.6,27.1 51.6,27.1 51.7,27.1 51.8,27 51.9,27 52,27 52,26.9 52,26.9 52.1,26.9 52,26.8 52,26.8 52,26.8 52,26.7 52,26.7 52,26.6 
		52,26.6 52,26.6 51.9,26.6 51.9,26.6 51.8,26.6 51.8,26.7 51.8,26.7 51.8,26.7 51.7,26.7 51.7,26.6 51.7,26.6 51.7,26.6 51.7,26.5 
		51.7,26.5 51.7,26.5 51.7,26.5 51.8,26.5 52,26.4 52,26.3 52,26.3 52,26.3 51.9,26.2 51.9,26.2 51.9,26.2 51.8,26.2 51.8,26.2 
		51.8,26.3 51.8,26.3 51.7,26.4 51.6,26.4 51.6,26.4 51.5,26.4 51.5,26.4 51.5,26.4 51.4,26.4 51.4,26.3 51.4,26.3 51.4,26.3 
		51.5,26 51.5,26 51.5,25.9 51.6,25.9 51.6,25.9 51.7,25.9 51.8,25.8 51.8,25.8 51.9,25.7 51.9,25.7 51.9,25.7 52,25.6 52,25.6 
		52,25.5 52,25.5 52,25.5 52.1,25.5 52.2,25.5 52.2,25.5 52.2,25.5 52.3,25.4 52.4,25.4 52.4,25.4 52.4,25.3 52.5,25.2 52.6,25.1 
		52.7,25.1 52.7,25.1 52.7,25.1 52.8,25.1 52.8,25.1 52.9,25.2 53,25.2 53.1,25.2 53.2,25.2 53.3,25.2 53.4,25.3 53.5,25.2 
		53.5,25.2 53.5,25.1 53.4,25 53.4,25 53.4,25 53.4,24.9 53.4,24.9 53.4,24.9 53.4,24.8 53.4,24.8 53.5,24.7 53.8,24.5 53.8,24.5 
		53.9,24.4 54.1,24.5 54.2,24.4 54.3,24.5 54.3,24.5 54.5,24.4 54.5,24.4 54.5,24.3 	"/>
	
		<path id="Basque" fill-rule="evenodd" clip-rule="evenodd" fill="#F47C58" stroke="#F9F9FA" stroke-width="0.25" stroke-linecap="round" stroke-linejoin="round" d="
		M59.6,24.4L59.6,24.4l-0.1-0.2l-0.1-0.1l0-0.1l0-0.1l0-0.1l-0.1,0L59.3,24l-0.1,0.1L59,24.2l0,0l0,0l0,0l-0.1,0l0,0l0,0l0,0l-0.1,0
		l0,0l-0.1,0.1l-0.3,0.1l-0.1,0l0,0l-0.1,0.1l0,0l0,0l0,0l0,0l0,0l0,0l0,0l0,0l0,0l0,0l0,0l0,0l0,0l-0.1,0l-0.2,0l-0.2,0l-0.1,0
		L57,24.2l-0.1-0.1l-0.1,0l-0.2,0l-0.2-0.1l-0.1,0l0,0l0,0l0,0l0,0l0,0l0,0l0,0l0,0.1l0,0l0-0.1l0-0.1l0-0.1L56,23.7l-0.1-0.1l0,0
		l-0.1,0l-0.1,0l-0.2,0l-0.2,0l-0.1,0l-0.1,0v0h0v0l-0.1,0L55,24l0,0.1l0,0l0,0v0l0,0l0,0.1l0,0.1v0l-0.2-0.2l-0.1-0.1l-0.1,0.1
		l-0.1,0l-0.1,0l0,0l0,0.1l0,0l0,0l-0.2,0.1l0,0l-0.1,0l-0.1,0l-0.2,0l0,0l0,0l-0.3,0.2l0,0.1l0,0l0,0l0,0l0,0l0,0l0,0l0,0l0,0
		l0,0.1l0,0.1l0.2-0.1L54,25l0,0l0,0l0,0l0,0l0.1,0.1l0.1,0l0.1,0l0.1,0l0,0l0,0l0,0l-0.1,0.1l0,0l0,0.1l0,0l0,0l0.1,0l0,0l0,0.1
		l0,0.1l0,0.1l0,0.1l0,0l0,0l0,0l0,0l0.1,0l0.1,0l0,0l0,0l0.1-0.1l0.1,0l0,0l0,0l0,0l0,0l0,0l0.1,0l0,0l0,0l0,0l0,0l0,0l0,0l0,0l0,0
		l-0.1,0l0,0l0,0l0,0l0,0l0,0l0.1,0l0,0l0,0l0,0l0,0l0,0l0,0h0l0,0l0,0l0,0l-0.1,0l-0.1,0l0,0l0,0l0,0l-0.1,0l0,0l0,0l0,0l0-0.1l0,0
		l0,0l0,0l0,0l-0.1,0l0,0l0,0l0,0l0,0.1L54,26.4l0,0l0,0l0,0l0,0l0.1,0l0.1,0.1l0,0l0,0l0,0l0,0l0,0l0,0l0,0l0,0l0,0l0,0l0.1,0l0,0
		l0,0l0.1-0.1l0,0l0,0l0,0l0,0.1l0,0l0,0.1l0,0.1l0,0l0,0l0,0l0,0l0,0l0,0l0,0l0,0l0,0l0,0l0,0l0.1,0l0.1-0.1l0.1,0.1l0.1,0.1
		l0.1,0.1l0.1,0l0.1,0.1l0.1,0l0.2,0.2l0,0l0,0.1l0,0l0,0.1l0,0l0.1,0l0,0l0,0l0,0l0,0l0,0l0,0l0,0l0,0l0,0l0-0.1l0,0l0,0l0.1,0l0,0
		l0.1,0.1l0,0l0,0l0,0l0,0l0,0.1l0,0.1l0,0l0,0l0.1,0.1l0.1,0l0,0l0,0l0,0l0,0l0,0.1l0,0l0,0l0.1,0l0.1,0l0,0l0,0l0,0l0,0l0,0l0,0
		l0,0l0,0l0,0.1l0.1,0.1l0.1,0l0.1,0l0-0.1l0-0.3l0-0.1l0,0l0,0l0,0l0,0l-0.1,0.1l0,0l0,0L57,28l0,0l0,0l0,0l0,0l0,0l0.1,0l0,0
		l0.1-0.1l0-0.1l0.1-0.1l0,0l0,0l0,0l0,0l0,0l0,0.1l0,0l0.1,0l0,0l0,0l0.1-0.1l0,0l0,0l0,0l0,0l0,0l0-0.2l0,0l0,0l0.1,0l0,0l0,0
		l0-0.1l0-0.1l0-0.1l0.1-0.1l0-0.1l0,0l-0.1-0.2l0.1-0.1l0,0l0,0l0,0l0,0l0,0l0.1,0l0,0l0.1,0l0,0l0,0l0,0l0,0l0.1-0.1l0,0l0.1,0
		l0,0l0,0l0,0l0,0l0,0l0,0l0,0l0-0.1l0.1-0.1l0.2-0.1l0,0l0,0l0,0l0.1-0.1l0-0.1l0,0l0,0l0,0l0-0.1l0,0l0-0.1l0,0l0,0l0,0l0,0l0,0
		l0,0l0,0l0,0l0,0l0,0l0,0l0.1,0l0,0l0.1-0.1l0.1-0.1l0,0L59.6,24.4L59.6,24.4L59.6,24.4L59.6,24.4z M56.8,27.7L56.8,27.7L56.8,27.7
		l-0.1,0l0,0l0,0l0,0l-0.3,0l-0.2-0.1L56,27.5l-0.2-0.1l-0.1-0.1l-0.1-0.1l0,0l0,0l0.1-0.1l0.1-0.1l0,0l0,0l0.2,0l0.1,0l0,0l0.1,0
		l0.2,0.1l0,0l0,0l0,0l0,0l0,0l0,0l0,0l0,0l0,0l0,0l0,0l0,0l0,0l0,0l0,0.1l0,0l0,0l0,0l0,0l0,0l0,0l0,0l0,0l0,0l0,0l0,0.1l0,0l0,0
		l0,0l0,0l0,0l0,0l0,0l0,0l0,0l0,0L56.8,27.7L56.8,27.7L56.8,27.7z"/>
	
		<path id="Baeleric_Islands" fill="#F47C58" stroke="#F9F9FA" stroke-width="0.25" stroke-linecap="round" stroke-linejoin="round" d="
		M71.9,45L71.9,45L71.9,45L71.9,45l-0.1-0.1l-0.1,0l0,0l-0.1,0l-0.1,0l-0.1,0l0,0l-0.1,0l-0.1,0L71.3,45l-0.1,0.1l0,0l-0.1,0.1l0,0
		h0L71,45.2l-0.1,0l0,0l0,0l0,0.1l0,0.2l-0.1,0l0,0l0,0l0,0l0,0l0,0l0,0l0,0.1l0,0.1l0,0.1l0,0.1l0,0l0.1,0.1l0-0.1l0.1,0l0.1,0
		l0,0.1l0,0l0,0l0,0h0l0.1,0l0.1,0l0,0.1l0.1,0l0-0.1l0-0.2l0.1,0l0.1-0.1l0,0l0,0l0,0l0,0l0.1-0.1l0,0l0.1-0.2l0.1-0.1l0,0l0-0.1
		l0-0.1l0,0l0.1,0L71.9,45L71.9,45z M76.9,44.6L76.9,44.6l0,0.3l0.1,0l0.1-0.1l0-0.1l0-0.1L76.9,44.6z M71.7,46.9l-0.1-0.1l-0.2-0.3
		l0,0v0l0,0l0,0l0,0.1l0,0.1l0,0l0,0l0,0.1l0,0l0,0l0,0l0,0l0,0l0,0l0,0l0,0l0,0.1l0.1,0l0.1,0l0.1-0.1l0,0l0.1-0.1l0.1,0l0.2,0.1
		l0.1,0l0.1,0l0-0.1l-0.1-0.1L71.7,46.9z M78.7,41.9l-0.2-0.1l-0.1,0l-0.1,0l-0.1,0.1l-0.1,0h-0.3l-0.1,0l-0.1-0.1l-0.1-0.1l0-0.1
		l0-0.1l0,0l0.1,0l0.1,0l0,0l0,0l0,0l0,0l0,0l0,0v0l-0.3,0.1l-0.1,0l0-0.2h0l0,0l0,0l0-0.1l0.1,0l0,0l0.1-0.1l0,0l0,0l0,0l0,0
		l-0.1-0.1L77.4,41L77.2,41l-0.2,0l-0.1,0l-0.2,0.1l-0.1,0.1l0,0l-0.1,0l0,0l0,0l0,0l-0.1,0l0,0l0,0l-0.1,0L76,41.5l0,0l0,0
		l-0.1,0.1l0,0l0,0l-0.1,0.1l0,0l0,0l0,0l0,0l0,0.1l0,0L75.6,42L75.5,42l-0.1,0l-0.1,0l-0.1,0l-0.2,0.2l-0.1,0l-0.1,0l-0.3,0.2
		l0,0.1l0,0.1l0,0.1l0.1,0.1l0,0.1l0,0l0,0l0.1-0.1l0,0l0,0l0,0l0,0l0.1,0.1l0,0l0,0l0,0l0,0l0.1,0.1l0.1,0l0.1-0.1l0-0.1l0-0.1
		l0.2-0.1l0.1,0l0.1,0l0.1,0.1l0.1,0.1l0,0.1l-0.1,0.1l0,0.1l0.1,0l0,0.3l0.1,0.1l0.1,0.1l0.3,0l0,0l0.1,0l0,0l0,0l0.1,0l0,0l0,0
		l0,0l0,0.1l0,0l0,0l0.1,0l0,0l0.1,0.2l0,0l0,0l0,0l0,0l0,0l0.1-0.1l0.3-0.2l0.1-0.1l0.1-0.2l0,0l0,0l0-0.3l0.1-0.2l0.2-0.2l0.1-0.1
		l0-0.1l0-0.1l0-0.1l0.1,0l0,0l0-0.1l0.1-0.1l0-0.1l0,0l0,0l0,0l0,0l0,0l0,0l0,0L78.7,41.9z M82,41.2l-0.1-0.1l0-0.1l0-0.1l0,0
		l-0.1,0l-0.1,0l0.1,0l0-0.1l0-0.1l0-0.1l0,0l-0.1,0l0,0l0,0l0,0l0,0l-0.1-0.1l0,0l0-0.1l0,0l0,0l0,0.1l0,0.1l0,0l0,0l0,0l0,0l0,0
		l0,0l-0.1-0.1l0,0l0-0.1l0,0L81,40.4l-0.1,0l0,0l-0.1,0l-0.4,0l-0.1,0l-0.3,0.1l0,0.1l0,0.1l0,0l0,0l0,0.1l0,0l0.1,0l0,0l0,0l0,0.1
		l0,0.1l0,0.1l0.1,0.1l0.3-0.1l0.1,0l0.1,0l0.6,0.4l0.3,0.1l0.2,0L82,41.2L82,41.2L82,41.2L82,41.2L82,41.2L82,41.2L82,41.2z"/>
	
		<polygon id="Asturias" fill-rule="evenodd" clip-rule="evenodd" fill="#F47C58" stroke="#F9F9FA" stroke-width="0.25" stroke-linecap="round" stroke-linejoin="round" points="
		49.4,24.2 49.4,24.2 49.4,24.2 49.4,24.2 49.5,24.1 49.5,24 49.5,24 49.5,23.9 48.7,23.8 48.6,23.8 48.3,23.7 48,23.6 48,23.6 
		47.9,23.6 47.9,23.6 47.8,23.6 47.8,23.6 47.5,23.6 47.5,23.6 47.4,23.5 47.4,23.5 47,23.5 46.9,23.4 46.7,23.3 46.6,23.2 
		46.4,23.2 46.4,23.2 46.4,23.3 46.4,23.3 46.3,23.3 46.3,23.3 46.2,23.4 46.2,23.4 46.2,23.4 46.2,23.3 46.3,23.2 46.3,23.1 
		46.1,23.1 45.4,23.2 45.2,23.1 45.2,23 45.1,23 45.1,23.1 45.1,23.1 45,23 44.8,22.7 44.7,22.7 44.6,22.6 44.6,22.6 44.5,22.7 
		44.5,22.7 44.5,22.7 44.4,22.7 44.4,22.8 44.4,22.8 44.4,22.8 44.3,22.9 44.4,22.9 44.4,22.9 44.4,23 43.9,23 43.9,23 43.8,23.1 
		43.8,23.1 43.7,23 43.7,23.1 43.4,23 43.3,23 43.2,22.9 43.2,23 43.1,23 43.1,23 43,23 42.9,23.1 42.9,23.1 42.7,23.1 42.5,23.1 
		42.4,23.1 42.4,23.1 42.3,23 42.3,23.1 42.3,23.1 42.3,23.2 42.2,23.1 42.2,23.2 42.2,23.2 42,23.1 41.8,23 41.6,23 41.4,23.1 
		41.3,23.1 41.2,23.1 41,23.1 40.9,23.1 40.6,23.1 40.3,23.1 40.3,23.3 40.3,23.3 40.2,23.4 40.2,23.5 40.2,23.5 40.2,23.5 
		40.2,23.5 40.2,23.5 40.2,23.5 40.1,23.7 40,23.7 40,23.8 39.9,23.8 39.9,23.8 39.9,23.8 39.8,23.8 39.8,23.8 39.8,23.8 39.7,23.8 
		39.7,23.9 39.7,24 39.7,24 39.7,24 39.8,24 39.8,24 39.9,24 39.9,24.1 39.9,24.1 39.9,24.2 39.9,24.2 39.9,24.3 39.9,24.3 40,24.3 
		40,24.4 40,24.4 40.1,24.4 40.1,24.5 40.1,24.7 40.1,24.7 40.2,24.8 40.2,24.8 40.3,24.8 40.3,24.9 40.3,24.9 40.4,24.9 40.4,24.9 
		40.5,25 40.5,25 40.5,25 40.5,25 40.5,25.1 40.4,25.1 40.5,25.2 40.5,25.2 40.5,25.3 40.5,25.3 40.6,25.3 40.6,25.3 40.7,25.2 
		40.7,25.2 40.8,25.2 40.8,25.2 40.8,25.1 40.8,25.1 40.8,25.1 40.8,25.1 40.9,25.1 40.9,25.1 41,25.2 41,25.3 41,25.3 40.8,25.5 
		40.8,25.5 40.7,25.5 40.6,25.5 40.6,25.5 40.6,25.6 40.6,25.6 40.5,25.6 40.5,25.6 40.5,25.7 40.5,25.7 40.5,25.7 40.5,25.8 
		40.4,25.8 40.4,25.8 40.4,25.9 40.4,25.9 40.4,26 40.5,26 40.5,26 40.5,26 40.5,26 40.5,25.9 40.5,25.9 40.5,25.8 40.5,25.8 
		40.6,25.8 40.6,25.9 40.6,25.9 40.7,26 40.7,26 40.7,26 40.8,26 40.8,26 40.9,26.1 41,26.1 41,26.2 41,26.4 41.1,26.4 41.2,26.4 
		41.2,26.5 41.2,26.5 41.3,26.5 41.3,26.4 41.3,26.4 41.3,26.4 41.4,26.4 41.4,26.3 41.5,26.3 41.7,26.3 41.7,26.3 41.8,26.3 
		41.8,26.4 42,26.4 42,26.4 42.1,26.3 42.2,26.3 42.4,26.2 42.4,26.2 42.4,26.1 42.4,26.1 42.3,26.1 42.3,26.1 42.3,26 42.3,26 
		42.3,26 42.4,26 42.5,26 42.5,25.9 42.5,25.9 42.5,25.9 42.5,25.9 42.5,25.8 42.5,25.8 42.6,25.8 42.6,25.7 42.7,25.7 42.7,25.7 
		42.8,25.7 42.8,25.8 42.9,25.8 42.9,25.8 43.1,25.9 43.2,25.9 43.2,25.9 43.2,25.8 43.2,25.8 43.2,25.8 43.3,25.7 43.4,25.8 
		43.5,25.8 43.5,25.8 43.6,25.8 43.6,25.8 43.7,25.7 43.7,25.7 43.7,25.7 43.7,25.6 43.7,25.6 43.9,25.7 44,25.7 44.1,25.6 
		44.1,25.7 44.1,25.7 44.1,25.8 44.2,25.8 44.2,25.8 44.2,25.9 44.3,25.9 44.3,26 44.4,26 44.4,26 44.4,26 44.5,26.1 44.6,26.1 
		44.6,26.1 44.7,26.1 44.8,26.1 44.8,26.1 44.9,26 44.9,26 44.9,26 44.9,26 44.9,25.9 44.9,25.9 44.9,25.9 44.9,25.9 45,25.8 
		45,25.8 45,25.8 45,25.7 45.1,25.7 45.1,25.7 45.2,25.7 45.3,25.7 45.4,25.8 45.4,25.8 45.5,25.8 45.6,25.8 45.6,25.8 45.6,25.8 
		45.7,25.8 45.7,25.8 45.8,25.8 45.9,25.8 45.9,25.8 45.9,25.8 45.9,25.8 45.9,25.7 46,25.7 46.2,25.7 46.2,25.7 46.2,25.7 
		46.3,25.6 46.3,25.5 46.3,25.5 46.4,25.5 46.6,25.5 46.9,25.5 47.1,25.4 47.1,25.4 47.2,25.4 47.2,25.4 47.3,25.4 47.3,25.3 
		47.3,25.3 47.4,25.2 47.4,25.2 47.4,25.2 47.4,25.1 47.5,25.1 47.5,25 47.7,25 47.8,24.9 47.8,24.9 48,24.8 48.1,24.8 48.1,24.8 
		48.1,24.8 48.2,24.8 48.3,25 48.4,25 48.5,25 48.5,25 48.5,25 48.6,25 48.6,25 48.7,25 48.7,24.9 48.7,24.9 48.7,24.8 48.7,24.8 
		48.7,24.8 48.7,24.7 48.7,24.6 48.7,24.6 48.8,24.6 48.8,24.6 48.9,24.6 48.9,24.6 48.9,24.6 49,24.6 49,24.6 49.1,24.5 49.1,24.5 
		49.1,24.5 49.2,24.5 49.2,24.4 49.2,24.5 49.3,24.5 49.3,24.5 49.3,24.5 49.4,24.6 49.4,24.6 49.4,24.5 49.4,24.5 49.5,24.5 
		49.5,24.4 49.5,24.3 	"/>
	
		<path id="Aragon" fill-rule="evenodd" clip-rule="evenodd" fill="#F47C58" stroke="#F9F9FA" stroke-width="0.25" stroke-linecap="round" stroke-linejoin="round" d="
		M68.9,27.9L68.9,27.9L68.9,27.9l-0.1-0.1l0,0l0,0l0,0l-0.1-0.1l-0.1-0.1l0,0l0,0l0,0l-0.1,0l-0.5,0l-0.1,0l-0.1,0l-0.1,0l-0.1,0
		l0,0l0,0l0,0l0,0l-0.1-0.1l-0.1,0l-0.1,0.1l-0.1,0.1l-0.1,0L67,27.5l-0.1-0.1l-0.1,0l-0.2-0.1l-0.1,0l-0.1,0l-0.2,0L66,27.5l-0.1,0
		l-0.1-0.1l0,0l0,0l0,0l0,0l0,0l0,0l0,0l0,0l-0.1,0l0-0.1l0-0.1l0-0.1l-0.1,0l-0.1,0l-0.1,0l0-0.1l-0.2-0.1l0,0l-0.1-0.1l0,0l0,0
		l0,0l0,0l-0.2,0.1L64.5,27l-0.1,0l-0.2-0.1l-0.1,0l0,0.1l0,0l-0.1,0l0,0l0,0l0,0l0,0l0,0l0,0h-0.1l0,0l0,0l0,0l0,0l-0.1-0.2
		l-0.1-0.1l-0.1-0.1l0,0l0,0l0,0l0,0l0,0l0,0l0,0l0,0l0,0l0,0l-0.1,0l-0.1,0.1l0,0l0,0l0,0l0,0L63,26.7l0,0l0,0l0,0.1l0,0.1l0,0.1
		l0,0l0,0l0,0l0,0.1l-0.1,0l-0.1,0.1l0,0l0,0l-0.2,0l0,0l0,0l0,0l0,0l0,0.1l0,0l0,0h-0.1l0,0l-0.2,0l0,0l0,0l0,0l0,0l0,0l0,0l0,0
		l0.1,0l0,0l0,0L61.7,28l0,0l0,0l0,0l0,0l0,0l0,0l-0.1,0l0,0l0,0l0,0l0,0l0,0l0,0l0,0l0,0l0,0l0,0l0,0l0,0.1l-0.1,0.1l-0.1,0.1
		l-0.1,0.1l0,0.1l0,0.1l0,0l0,0l0,0l0,0l0,0l0,0l-0.1,0.1L61,29.4l0,0.1l0,0.1l0,0l0,0.1l0,0l0,0.1l0,0l0,0l0,0l0,0l0,0l0,0l0,0l0,0
		l0,0.1l0,0l0,0.1l0,0l0,0l0.1,0l0,0l0,0l0,0l0,0l0,0l0,0l0,0l0,0l0,0l0,0l0,0.1l0,0l-0.1,0.1L61.1,31l0,0.1l0,0l0,0l0,0.1l0,0l0,0
		l0,0l0,0l0,0l-0.1,0l0,0l-0.1,0l0,0l0,0l0,0l-0.1,0l-0.1,0l0,0l0,0l-0.1,0l-0.1,0l0,0l0-0.1l0,0l0,0l-0.1,0l-0.1,0l0,0l-0.1,0l0,0
		l0,0l-0.1,0l0,0l0,0l0-0.1l0,0l0,0l0,0l-0.1,0l0,0l0,0l0,0l0,0l0,0l0,0l0,0.1l0,0l0,0.1l0,0.2l0.1,0.2l0.1,0.1l0,0l0,0l0,0l0,0l0,0
		l0,0.1l0,0l0,0l0,0l0.1,0.1l0,0.1l0,0l0,0l0,0l0,0l0,0.1l0,0l0,0l0,0.1l0,0l0,0l0,0l0,0l0,0l0,0l0,0l-0.1,0L59,32.8l0,0l0,0l0,0
		l-0.1,0l0,0l0,0l0,0l0,0l0,0l0,0l0,0l0,0l0,0l0,0l0,0.1l0,0.2l0,0.1l0,0.1l0,0l0,0l0,0l0,0.2l0,0l0,0l0,0l0,0l-0.1,0l-0.1,0l0,0
		l0,0l0,0l0,0l0,0l0,0l0,0l0,0l0,0l0,0l-0.1,0l-0.1,0l0,0l0,0l0,0l0,0l0,0l0,0l0,0.1l0,0l0,0l0,0l0,0l0,0l0,0l0,0.1l0,0.2l0,0.1l0,0
		l0,0l0,0.2l0,0.2l0,0l0,0l0,0l0.1,0l0,0l0,0l0,0l0.1,0.1l0,0l0.3-0.1l0.1,0l0,0l0,0l0,0l0.1,0l0.1,0.1l0.1,0.1l0.2,0.2l0,0l0,0l0,0
		l0,0l0.1,0.1l0.2,0.2l0,0l0,0l0,0l0.1,0.1l0,0.1l0,0l0,0.2l0,0.1l0,0.1l0,0l0.1,0.1l0.1,0.1l0,0l0,0l0,0l0,0.1l0,0l0,0.1l0,0l0,0
		l0,0l0,0l0,0l0,0.1l0,0l0,0.1l0,0l0,0.1l0,0.1l0,0.1l0,0.1l0,0l0,0l0,0l-0.1,0l0,0l0,0l0,0l0,0l-0.1,0l0,0l-0.1,0l0,0l0,0l-0.1,0.2
		l0,0.1l0,0.2l0,0l0,0l-0.1,0l0,0l0,0l-0.1,0.2l0,0l0,0l0,0.1l0.1,0l0.1,0.1l0.2,0.2l0,0.1l0,0.1l0,0l0,0.1l0,0l0,0l0,0l0.1,0l0.1,0
		l0.4,0.4l0,0l0,0l0,0h0l0.1,0l0.1,0l0,0l0.1,0l0,0l0,0l0,0l0,0l0,0.1l0,0l0.2,0l0.1,0l0.1,0l0.1,0l0,0l0,0l0-0.1l0,0l0,0l0,0l0,0
		l0,0l0,0.1l0,0.1l0,0l0,0l0,0l0,0l0,0l0,0l0,0l0,0l0,0l0.1,0l0.2,0l0.1,0.1l0.1,0.1l0,0.1l0,0l0,0l0,0l0,0l0,0l-0.2,0.1l-0.1,0
		l0.1,0.2l0.1,0l0.1,0l0,0l0.1,0l0.1,0l0.1,0l0.1,0l0,0l0.1,0l0.2,0.1l0.1,0.1l0,0l0,0l0,0l0,0l0,0l0,0l0,0l0,0l0,0l0,0l0,0l0,0l0,0
		l0,0l0.1,0l0,0l0.2-0.1l0,0l0,0l0,0l0,0l0-0.1l0-0.1l0,0l0,0l0,0l0-0.1l0,0l0,0l0.1,0l0,0l0,0l0,0l0,0l0,0l0-0.1l0,0l0,0l0,0l0.1,0
		l0.1,0l0.3-0.1l0,0l0-0.1l0,0l0,0l0,0l0.1-0.1l0,0l0,0l0,0l0-0.1l0,0l0,0l0-0.1l0,0l0,0l0-0.1l0,0l0,0l0,0l0,0l0,0l0.1,0l0,0l0,0
		l0,0l0,0l0.1,0l0,0l0.1-0.1l0,0l0,0l0,0l0,0l0,0l0,0l0.1-0.1l0,0l0.1-0.1l0,0l0.1-0.1l0,0l0,0l0,0l0,0l0-0.1l0,0l-0.1,0l0,0l0,0
		l0,0l0,0l0,0l0.2-0.1l0,0l0,0l0,0l0-0.1l0,0l-0.1,0l0,0l0,0l0,0l0,0l0-0.1l0,0l0,0l0-0.1l0,0l0,0l0-0.1l0,0l0,0l-0.1,0l0,0l0,0l0,0
		l0,0l0,0l0,0l0,0l0-0.1l0,0l0,0l0,0l0,0l0,0l0,0l0.1,0l0.1,0l0,0l0,0l0,0l0.2-0.1l0,0l0,0l0,0l0-0.1l0-0.1l0,0l0,0l0.1-0.1l0,0
		l0.1,0l0.1,0l0,0l0,0l0.1,0l0.2,0.1l0.1,0l0.2,0l0.1,0l0,0l0,0l0,0l0,0l0,0l0,0l0,0l0,0l0,0l0,0l0,0l0.1,0l0.1,0l0.1,0l0-0.1l0,0
		l0.2-0.1l0,0l0-0.1l0.1-0.1l0,0l0,0l0,0l0-0.1l0,0l0,0l0,0l0-0.1l0,0l0,0l0,0l0,0l0,0l0-0.1l0,0l0,0l0-0.1l-0.1-0.2l-0.1,0l-0.1,0
		l-0.1,0l0-0.1l0-0.1l0,0l0,0l0,0l0,0l0,0l0,0l0,0l0,0l0,0l0,0l0,0l0,0l0.1,0l0,0l0,0l0,0l0-0.1l0,0l0,0l0,0l0,0l0.1,0l0,0l0,0l0,0
		l0-0.1l0-0.1l0.1-0.2l0-0.1l0-0.1l0,0l-0.1,0l0,0l0-0.1l0.1-0.1l0-0.1l0-0.1l0-0.1l0,0l0,0l0.1,0l0,0l0,0l0,0l0,0l0,0l0,0l0,0
		l0.1-0.1l0,0l0,0l0,0l0,0l0,0l0,0l0,0l0,0l0,0l0,0l0,0l-0.1,0l0,0l0,0l0,0l0-0.1l-0.1-0.1l0,0l0,0l0.1-0.1l0.1-0.1l0-0.1l0,0l0,0
		l0,0l0,0l0,0l0,0l0,0l0.1,0l0,0l0,0l0-0.1l0-0.1l0,0l0,0l0,0l0.1,0l0,0l0,0l0-0.1l0.1,0l0,0l0,0l0,0l0,0l0-0.2l0,0l0,0l0,0l0,0l0,0
		l0,0l0,0l0,0l0,0l0,0l0,0l0,0l0-0.1l0,0l0,0l0,0l0,0l0,0l0-0.1l0,0v0l0.1-0.1l0.1-0.2l0,0l0,0l0,0l0-0.1l0-0.1l0-0.1l0-0.1l0,0
		l0-0.1l0,0l0,0l0-0.2l0,0l0,0l0,0l0-0.1l0,0l0-0.1v-0.1l0,0l0-0.1l0,0l0-0.1l0-0.2l0-0.1l0-0.1l0,0l0,0l0,0l0,0l0,0l0-0.1l0,0l0,0
		l0,0l0,0l0,0l0,0l0,0l0,0l0,0l0,0l0,0l0-0.1l0,0l0,0l0,0l0,0l0,0l0,0l0,0l0,0l0,0L68.9,27.9L68.9,27.9L68.9,27.9L68.9,27.9z
		 M61.8,28.8L61.8,28.8l-0.1,0.1l-0.1,0l0,0l0-0.1l0,0L61.8,28.8L61.8,28.8L61.8,28.8L61.8,28.8z M62.1,28.8L62.1,28.8L62.1,28.8H62
		l-0.1,0l0,0l0,0l0,0l0,0l0,0l0,0l0,0l0,0l0,0.1l0,0L62.1,28.8L62.1,28.8L62.1,28.8z"/>
	
		<polygon id="Andalusia" fill-rule="evenodd" clip-rule="evenodd" fill="#F47C58" stroke="#F9F9FA" stroke-width="0.25" stroke-linecap="round" stroke-linejoin="round" points="
		59.7,52.7 59.7,52.7 59.5,52.7 59.5,52.7 59.4,52.7 59.4,52.7 59.4,52.7 59.4,52.7 59.4,52.7 59.4,52.7 59.3,52.7 58.8,51.8 
		58.7,51.8 58.7,51.7 58.7,51.7 58.7,51.6 58.7,51.6 58.7,51.5 58.7,51.5 58.7,51.4 58.7,51.4 58.7,51.3 58.7,51.3 58.7,51.1 
		58.7,51.1 58.7,51 58.7,51 58.7,50.9 58.7,50.9 58.8,50.8 58.8,50.8 58.8,50.7 58.8,50.7 58.4,50.7 58.3,50.6 58.3,50.6 58.1,50.6 
		57.9,50.5 57.9,50.5 57.8,50.3 57.7,50.2 57.6,50.1 57.6,50.1 57.6,50.1 57.6,50.1 57.5,50 57.4,50 57.4,50 57,49.9 56.7,49.7 
		56.7,49.7 56.8,49.6 56.8,49.6 56.9,49.5 57.1,49.2 57.1,49.2 57.1,49.2 57.1,49.1 57.1,49.1 57.1,49.1 57.1,49.1 57.1,49 57.1,49 
		57.1,49 57.1,48.9 57.1,48.9 57.1,48.9 57.1,48.8 57.1,48.8 57,48.7 57,48.7 57,48.6 57,48.6 57,48.5 56.9,48.5 56.9,48.4 
		56.9,48.4 56.9,48.3 56.9,48.3 56.9,48.3 56.7,48.2 56.6,48.1 56.6,48.1 56.6,48.1 56.6,48.1 56.6,48 56.6,48 56.6,47.9 56.6,47.9 
		56.6,47.8 56.6,47.8 56.6,47.8 56.6,47.8 56.6,47.8 56.6,47.8 56.5,47.7 56.4,47.7 56.4,47.7 56.3,47.8 56.2,47.8 56.1,47.7 
		55.9,47.6 55.9,47.7 55.9,47.7 55.8,47.7 55.8,47.8 55.8,47.8 55.7,47.8 55.7,47.8 55.6,47.9 55.6,47.9 55.6,47.9 55.6,47.9 
		55.5,47.9 55.5,47.9 55.5,47.9 55.5,48 55.5,48 55.5,48 55.5,48 55.4,47.9 55.4,47.9 55.4,47.9 55.3,47.9 55.3,47.9 55.2,47.9 
		55.2,47.9 55.1,48 55.1,48 55.1,48.1 55.1,48.1 55,48.1 55,48.1 55,48 54.9,47.9 54.8,47.9 54.8,47.9 54.8,47.9 54.7,47.9 54.6,48 
		54.6,48 54.5,48 54.4,48 54.2,48 54.1,47.9 54,47.9 54,47.9 53.9,47.9 53.9,47.9 53.8,47.9 53.7,47.9 53.7,47.9 53.7,48 53.7,48 
		53.7,48 53.6,48.1 53.6,48.1 53.5,48.2 53.4,48.2 53.4,48.2 53.3,48.2 53.3,48.2 53.1,48.2 53.1,48.2 53.1,48.1 53.1,48.1 
		53.1,48.1 53.1,48 53,48 53,48 53,48 52.9,48 52.9,48.1 52.9,48.2 52.9,48.2 52.9,48.2 52.8,48.2 52.8,48.2 52.6,48.2 52.5,48.2 
		52.4,48.1 52.4,48.1 52.4,48.2 52.3,48.2 52.3,48.1 52.2,48.1 52.2,48.1 52.1,48.1 52.1,48.1 52,48.2 52,48.2 52,48.3 51.9,48.3 
		51.8,48.3 50.7,48.3 50.6,48.2 50.5,48.2 50.4,48.2 50.4,48.2 50.4,48.3 50.4,48.3 50.4,48.5 50.3,48.5 50.3,48.5 50,48.4 50,48.4 
		49.9,48.3 49.7,48.3 49.7,48.2 49.6,48.2 49.6,48.1 49.5,48 49.4,47.9 49.3,47.9 49.3,47.8 49.2,47.8 49.2,47.8 49.2,47.8 
		49.1,47.8 49.1,47.8 49.1,47.7 49,47.7 48.9,47.6 48.9,47.5 48.8,47.5 48.8,47.5 48.7,47.4 48.7,47.4 48.5,47.3 48.5,47.3 
		48.4,47.3 48.4,47.3 48.3,47.3 48.3,47.2 48.2,47.2 48.2,47.1 48.2,47.1 48.2,47 48.2,47 48.2,46.9 48.1,46.9 48,46.9 48,46.9 
		47.9,46.9 47.8,46.9 47.6,46.7 47.5,46.7 47.4,46.8 47.1,46.8 47.1,46.8 47.1,46.8 47.1,46.8 47.1,46.9 47.1,46.9 47.1,47 47,47 
		47,47 46.9,47 46.8,47.2 46.6,47.3 46.6,47.3 46.6,47.3 46.6,47.3 46.6,47.3 46.6,47.4 46.6,47.4 46.6,47.4 46.5,47.4 46.5,47.4 
		46.4,47.4 46.4,47.4 46.3,47.4 46.3,47.5 46.2,47.5 46.2,47.6 46.2,47.6 46.2,47.6 46.2,47.6 46.2,47.7 46.2,47.7 46,47.8 46,47.8 
		46,47.8 46,47.9 45.9,47.9 45.9,47.9 45.8,48 45.7,48.1 45.6,48.1 45.6,48.1 45.6,48.2 45.6,48.3 45.6,48.3 45.6,48.3 45.6,48.3 
		45.6,48.4 45.6,48.4 45.6,48.4 45.6,48.5 45.6,48.5 45.6,48.5 45.6,48.5 45.6,48.6 45.6,48.6 45.7,48.6 45.7,48.6 45.7,48.6 
		45.7,48.7 45.7,48.7 45.7,48.7 45.7,48.8 45.7,48.8 45.8,48.9 45.8,48.9 45.8,48.9 45.8,48.9 45.8,49 45.8,49 45.8,49 45.8,49.1 
		45.8,49.1 45.8,49.2 45.8,49.2 45.7,49.3 45.7,49.3 45.7,49.3 45.7,49.4 45.6,49.5 45.4,49.5 45.3,49.5 45.3,49.6 45.2,49.6 
		45.1,49.7 45.1,49.7 45,49.7 45,49.7 45,49.6 45,49.5 45,49.5 45,49.5 45,49.5 45.1,49.5 45.1,49.4 45.2,49.4 45.1,49.4 45.1,49.3 
		45.1,49.3 45,49.2 45,49.2 44.7,49.3 44.6,49.3 44.6,49.3 44.6,49.4 44.5,49.4 44.5,49.4 44.5,49.5 44.4,49.5 44.4,49.6 44.3,49.6 
		44.3,49.6 44.3,49.7 44.3,49.7 44.3,49.7 44.3,49.7 44.4,49.8 44.4,49.8 44.3,49.8 44.3,49.9 44.3,50 44.3,50 44.3,50 44.2,50 
		44.2,50.1 44.2,50.1 44.1,50.1 44,50.2 43.9,50.2 43.6,50.2 43.5,50.3 43.4,50.4 43.4,50.4 43.3,50.3 42.8,50.1 42.7,50.1 
		42.7,50.1 42.7,50.1 42.7,50.1 42.7,50 42.7,50 42.5,49.9 42.5,49.9 42.4,49.9 42.4,49.9 42.4,49.9 42.4,49.9 42.3,49.9 42.3,50 
		42.3,50 42.3,50 42.2,50 42.2,50.1 42.1,50 41.9,50 41.9,50 41.9,50 41.9,49.9 41.9,49.9 41.9,49.9 41.8,49.8 41.8,49.7 41.7,49.7 
		41.7,49.7 41.5,49.7 41.4,49.7 41.3,49.7 41.2,49.7 41.1,49.6 41.1,49.6 41,49.6 41,49.6 41,49.5 41.1,49.5 41.1,49.4 41.1,49.4 
		41.1,49.4 41.1,49.3 41.1,49.3 40.6,49.1 40.5,49.2 40.5,49.2 40.5,49.2 40.5,49.3 40.5,49.4 40.4,49.6 40.4,49.7 40.3,49.8 
		40.3,49.9 40.3,50 40.2,50 40,49.9 39.9,49.9 39.9,50 39.8,50.1 39.8,50.1 39.8,50.1 39.7,50.1 39.7,50.2 39.6,50.2 39.6,50.2 
		39.5,50.1 39.5,50.2 39.4,50.2 39.3,50.2 39.4,50.3 39.4,50.3 39.4,50.4 39.3,50.4 39.3,50.7 39.2,50.8 39.1,51 38.8,51.3 
		38.7,51.4 38.7,51.5 38.6,51.7 38.6,51.8 38.6,51.8 38.5,52 38.5,52 38.5,52 38.5,52 38.5,52 38.5,52.1 38.4,52.1 38.4,52.1 
		38.4,52.2 38.4,52.2 38.4,52.2 38.4,52.2 38.5,52.3 38.5,52.3 38.5,52.3 38.5,52.4 38.5,52.4 38.6,52.4 38.6,52.5 38.6,52.6 
		38.7,52.7 38.7,52.8 38.7,52.8 38.7,53 38.7,53.3 38.8,53.5 38.8,53.6 38.8,53.7 38.8,53.9 38.9,53.9 39,53.9 39,53.9 39.1,53.8 
		39.1,53.8 40,53.8 40,53.8 39.9,53.8 40,53.7 40.1,53.8 40.2,53.8 40.6,54 40.6,54 40.6,53.9 40.6,53.8 40.5,53.7 40.5,53.7 
		40.6,53.7 40.7,53.6 40.9,53.4 40.9,53.5 40.7,53.7 40.7,53.7 40.7,53.8 40.7,53.9 40.7,54 40.8,54 40.9,54.1 41,54.2 41.1,54.2 
		41.2,54.2 41.3,54.3 42.2,54.9 42.3,55 42.4,55.2 42.5,55.5 42.6,55.6 42.7,55.6 42.8,55.6 42.7,55.3 42.8,55.2 42.8,55.2 43,55.1 
		43.1,55.2 43.1,55.1 43.2,55.1 43.3,55.1 43.2,55.2 42.9,55.2 42.8,55.3 42.8,55.4 42.8,55.6 42.8,55.7 42.7,55.7 42.6,55.8 
		42.5,55.8 42.4,55.9 42.4,56 42.4,56.1 42.5,56.1 42.5,56.2 42.6,56.4 42.6,56.5 42.7,56.5 42.9,56.5 43,56.5 43.2,56.7 43.2,56.8 
		43.2,56.9 43.2,57 43.3,57 43.3,57 43.4,57 43.3,57.1 43.2,57.1 43.2,57.2 43.2,57.2 43.1,57.1 43.1,57.1 43.1,57 43.1,57 43,56.9 
		42.9,56.9 42.9,56.9 42.9,56.9 43,57 43.1,57.1 43.1,57.3 43.2,57.5 43.3,57.6 43.4,57.7 43.4,57.8 43.4,57.9 43.4,57.9 43.6,58 
		43.7,58.2 43.8,58.3 43.9,58.5 44.1,58.5 44.2,58.5 44.3,58.5 44.4,58.5 44.6,58.8 44.7,58.9 44.8,58.9 44.9,59 45,59 45.1,59 
		45.2,59 45.2,59.1 45.4,59.2 45.4,59.3 45.6,59.3 45.6,59.2 46,59.1 46.1,59.1 46.1,59 46.1,59 46.1,59 46.1,58.9 46.1,58.9 
		46.1,58.8 46.1,58.8 46.1,58.7 46.1,58.6 46.1,58.6 46.1,58.5 46.1,58.5 46.2,58.5 46.3,58.5 46.4,58.6 46.4,58.7 46.5,58.7 
		46.5,58.5 46.5,58.4 46.6,58.2 46.6,58.1 46.6,58.1 46.6,58.1 46.7,58 46.7,58 46.7,58 46.8,58 46.8,57.9 46.9,57.7 46.9,57.7 
		47,57.5 47,57.4 47.1,57.4 47.1,57.4 47.3,57.4 47.3,57.4 47.5,57.3 47.7,57.2 48,57.1 48,57 48.1,57 48.1,57 48.6,57.1 48.7,57.1 
		48.9,57 48.9,57 49,57 49.1,56.9 49.2,56.7 49.4,56.7 49.6,56.5 49.6,56.4 49.6,56.4 49.7,56.3 49.7,56.3 49.8,56.1 49.8,56 
		49.9,56 50.5,56.1 50.6,56.1 51,56 51.1,55.9 51.2,55.9 51.5,56 51.8,55.9 52,55.9 52.1,55.9 52.4,56 52.5,56 52.6,55.9 52.7,55.9 
		52.8,55.9 52.9,56 53,56.1 53.1,56 53.1,56 53.3,56.1 53.5,56.1 53.7,56.1 53.7,56 53.8,56 53.8,55.9 54.2,55.9 54.5,55.9 
		54.8,55.9 55.1,56 55.3,55.9 55.4,55.9 55.5,56 55.6,56.1 55.6,56.1 55.6,56.1 55.7,56.1 55.7,56.1 55.8,56.1 55.8,56.2 55.9,56.2 
		56,56.2 56.1,56.2 56.2,56.2 56.3,56.2 56.3,56.1 56.4,56.1 56.4,56 56.5,55.8 56.6,55.6 56.7,55.6 56.9,55.5 57,55.5 57.1,55.6 
		57.1,55.6 57.2,55.6 57.3,55.5 57.4,55.5 57.5,55.5 57.5,55.5 57.7,55.6 57.8,55.7 57.9,55.9 58,56 58.1,56 58.2,56 58.3,56 
		58.3,55.9 58.3,55.8 58.4,55.8 58.4,55.8 58.5,55.8 58.5,55.7 58.5,55.7 58.5,55.6 58.6,55.6 58.6,55.5 58.7,55.5 58.7,55.3 
		58.8,55.2 58.9,55.1 58.9,55.1 59,55.1 59,55.1 59.1,55 59.1,55 59.1,55 59.1,54.9 59.1,54.9 59.1,54.9 59.1,54.8 59.1,54.7 
		59.2,54.4 59.3,54.3 59.3,54.1 59.3,54 59.4,53.8 59.5,53.7 59.7,53.4 59.8,53.3 59.9,53.2 59.9,53.1 59.9,53.1 60,53.1 60,53 
		60,53 	"/>
</g>
<path fill="#F47C58" d="M12.9,39.9L12.9,39.9l0-0.1l0,0l0,0l-0.1,0l-0.1,0l-0.1,0l-0.1,0l-0.1,0l-0.1,0l-0.1,0.1l-0.1,0.1l0,0.1l0,0
	l0,0l0,0l0,0.1l0,0.1l0.1,0.2l0,0.1l0,0.1l0,0l0,0l0,0.2l0,0l0,0l0,0h0l0-0.1l0.1-0.1l0.1-0.1l0.1-0.1l0,0l0-0.1l0-0.1l0-0.1l0-0.1
	l0.1-0.1L12.9,39.9L12.9,39.9L12.9,39.9z M12.4,42.9L12.4,42.9l-0.1,0l-0.1,0.1l-0.1,0l0,0l0,0l0,0L12,43.2l0,0l-0.1,0l-0.1,0
	l-0.1,0l0,0.1l0,0l0.1,0l0.2,0l0,0l0,0l0,0l0.1,0l0,0l0,0l0-0.1l0,0l0,0l0,0l0,0l0,0l0,0l0,0l0,0l0,0v0l0,0l0,0l0.1-0.2L12.4,42.9
	L12.4,42.9L12.4,42.9z M14.5,41.8l-0.2-0.1l-0.1,0l-0.2,0.1l0,0.2l0.1,0.2l0.2,0.1l0,0l0,0l0,0l0,0l0,0l0,0l0.1-0.1l0,0l0-0.1l0-0.1
	l-0.1-0.1L14.5,41.8z M19.7,42.4L19.7,42.4L19.7,42.4L19.7,42.4l-0.1-0.1l0,0l0,0l0,0l0,0l0-0.1l0-0.1l0,0l0,0l0,0l0,0l0,0l-0.1,0
	l0,0.1l-0.1,0l-0.2,0H19l-0.2-0.1l0,0l0,0l0,0l0,0l0,0l0,0l0,0.1l0,0.1l0,0l0,0.1l0,0.1l-0.1,0.1l-0.1,0l-0.1,0.1l0,0l0,0l0,0.1
	l0,0.1l0,0l0,0.1l0,0.1l0.1,0.2l0,0l0,0l0.1,0l0,0l0,0l0.2,0.1l0,0l0.1,0l0.1,0l0,0l0,0l0,0l0,0l0.1-0.1l0,0l0,0l0.2-0.1l0,0
	l0.1-0.1l0,0l0,0l0,0l0-0.1l0,0l0-0.1l0,0l0,0v0l0-0.1L19.7,42.4L19.7,42.4z M24.1,40.1L24.1,40.1L23.9,40l-0.1,0l-0.1,0l0,0l0,0
	l0,0l0,0.1l0,0.1l0,0.2l-0.1,0.2l-0.1,0.2L23.2,41l0,0l0,0l-0.1,0.2l-0.1,0.1l0,0.1l0,0.2l0,0.1l0,0.1l0,0.1l-0.1,0.1L22.6,42
	L22.5,42l-0.1,0l-0.1,0l-0.1,0l0,0l0,0l0,0l0,0l0,0l0,0l0.2,0l0.1,0l0.1,0.1h0.1l0.1-0.1l0.1-0.1l0.1-0.1l0.1-0.1l0.1,0l0.1,0
	l0.1-0.1l0.1,0l0.3,0l0.1-0.1l0.1-0.1l0-0.1l0-0.1l0-0.1l0,0l0,0l0,0l0,0l0.1,0l0,0l0,0l0,0l0,0l0,0l0-0.1l0,0l0.1-0.1l0-0.1l0-0.3
	l0-0.1L24.1,40.1z M25.2,38.4L25.2,38.4l-0.1,0l0,0l0,0.1l0,0.1l0,0.1l0,0l0,0h-0.1l0,0l-0.1,0l-0.1,0l-0.1,0.1l-0.1,0l-0.1,0
	l-0.1,0l0,0l0,0L24.2,39l-0.1,0.2l0,0l0,0.2l0,0.1l0,0.1l0,0l0,0l0,0l0,0l0,0l0,0l0.1,0l0.1,0l0,0h0l0-0.1l0.1-0.1l0.1-0.1l0.1,0
	l0,0l0.1,0l0,0l0,0l0,0l0,0l0.1,0l0.1-0.1l0.1-0.1l0-0.1l0,0l0-0.1l0,0l0,0l0,0l0,0l0-0.1l0,0l0,0l0-0.1l0.1,0l0,0l0-0.1L25.2,38.4
	L25.2,38.4z M17.5,40.5l-0.2,0.1l-0.3,0l0,0l0,0.1l-0.1,0l-0.1,0l-0.1,0l0,0l-0.1,0l0,0l0,0l0,0l-0.1,0L16.4,41l0,0l-0.1,0l0,0
	l0,0.1l0,0l0,0l-0.2,0l-0.1,0l0,0l-0.1,0l-0.1,0l-0.1,0l0,0l0,0l-0.1,0l0,0l-0.2,0.1l0,0l0,0.1l0.1,0.1l0,0.1l0,0.1l0,0l0,0.1l0,0
	l0,0l0,0.1l0,0.1l0,0.1l0.1,0.1l0,0l0,0l0,0.1l0,0l0,0l0,0l0,0l0,0l0,0.1l0.1,0l0.1,0l0.2-0.1l0.1,0l0.1,0l0.1,0l0,0l0.2-0.2l0-0.1
	l0.1,0l0,0l0.1-0.2l0.1-0.2l0-0.1l0,0l0,0l0,0l0,0l0,0l0,0l0-0.1l0,0l0,0l0,0l0.1-0.1l0.1-0.1l0,0l0,0l0.1-0.1l0.2-0.1l0.1-0.1
	L17.5,40.5L17.5,40.5z M25.1,38.4L25.1,38.4l0-0.1l-0.1,0l0,0.1L25.1,38.4l-0.1,0v0L25.1,38.4L25.1,38.4z"/>
<g>
	<rect x="-21.2" y="89" fill="none" width="128.6" height="38.1"/>
	<text transform="matrix(1 0 0 1 26.4752 98.3001)" fill="#818281" font-family="'ArialMT'" font-size="13px">Spain</text>
</g>
<rect x="8.3" y="30.6" fill="none" stroke="#545554" stroke-width="0.15" width="21.6" height="20"/>
</svg>
