<?xml version="1.0" encoding="utf-8"?>
<!-- Generator: Adobe Illustrator 23.0.1, SVG Export Plug-In . SVG Version: 6.00 Build 0)  -->
<svg version="1.0" id="Countries" xmlns="http://www.w3.org/2000/svg" xmlns:xlink="http://www.w3.org/1999/xlink" x="0px" y="0px"
	 viewBox="0 0 87 130" enable-background="new 0 0 87 130" xml:space="preserve">
<circle fill="#DAF1F9" stroke="#FFFFFF" stroke-width="0.25" cx="43.5" cy="44.5" r="39"/>
<g id="Costa_Rica">
	
		<polygon id="San_Jose" fill-rule="evenodd" clip-rule="evenodd" fill="#3A9EB5" stroke="#F9F9FA" stroke-width="0.25" stroke-linecap="round" stroke-linejoin="round" points="
		50,35 50.2,35.8 50.3,35.9 50.3,35.9 50.5,36.1 50.6,36.2 50.7,36.2 50.7,36.2 51.1,36.6 51.1,36.7 51.2,36.9 51.2,37.3 51.3,37.7 
		51.3,37.9 51.2,37.9 51.1,38 51,38 50.8,38.1 50.6,38.3 50.6,38.3 50.5,38.3 50.5,38.3 50.4,38.3 50.3,38.3 49.8,38.3 49.8,38.3 
		49,38.6 48.5,39.3 48.5,39.5 48.5,39.5 48.6,39.5 48.9,39.7 48.4,40.5 48.3,40.6 48.1,40.8 47.8,41.1 47.7,41.2 47.6,41.4 
		47.6,41.4 47.6,41.5 47.6,41.5 47.6,41.6 47.7,41.6 47.7,41.6 47.8,41.6 47.8,41.6 48,41.5 48.2,41.5 48.2,41.5 48.3,41.5 
		48.4,41.5 49,41.4 49.2,41.4 49.2,41.6 49.3,41.7 49.3,41.8 49.4,42 49.7,42.1 49.8,42.2 49.8,42.2 49.9,42.2 50,42.5 50.4,43 
		50.5,43.1 50.5,43.1 50.7,43.2 51.1,43.3 51.2,43.4 51.2,43.4 51.3,43.3 51.3,43.3 51.4,43.3 51.5,43.3 51.6,43.3 51.6,43.4 
		51.7,43.4 51.8,43.6 51.9,43.9 51.9,43.9 52,44 52,44.1 52.1,44.3 52.2,44.3 52.2,44.4 52.3,44.4 52.7,44.5 52.7,44.5 53.1,44.4 
		53.3,44.7 53.3,44.7 53.4,44.8 53.7,44.9 53.7,44.9 53.8,45 53.8,45 53.9,45.2 53.9,45.4 53.9,45.5 54,45.5 54.2,45.3 54.3,45.3 
		54.3,45.3 54.5,45.3 54.6,45.3 54.6,45.3 54.7,45.3 54.7,45.3 54.8,45.3 54.8,45.2 54.8,45.2 54.9,45.2 55,45 55,44.9 55.2,44.9 
		55.7,45.3 55.8,45.5 56,45.6 56,45.6 57.8,46.7 58.4,48.3 58.6,48.5 58.6,48.5 58.8,48.7 58.5,49.1 58.4,49.1 58.4,49.2 58.3,49.7 
		58.2,49.8 58.2,49.8 57.7,50.4 57.6,50.4 57.6,50.5 57.5,51.4 57.5,51.4 57.5,51.4 57.5,51.5 57.7,51.5 57.7,51.5 57.7,51.5 
		57.8,51.6 57.8,51.6 57.8,51.6 57.9,51.6 57.9,51.6 58,51.6 58,51.6 58,51.7 58,51.7 58.1,51.8 58.1,51.8 58.1,51.9 58.1,52.1 
		58.1,52.2 58,52.5 57.9,52.6 57.9,52.6 58,53 58,53.1 57.9,53.2 57.9,53.2 57.9,53.3 57.8,53.3 57.8,53.3 57.7,53.4 57.5,53.6 
		57.5,53.7 57.5,53.7 57.4,53.7 57.4,53.7 57.3,53.7 57.3,53.7 57.2,53.6 57.2,53.6 57.1,53.5 57,53.5 57,53.4 56.9,53.4 56.9,53.4 
		56.7,53.5 56.5,53.5 56.5,53.5 54.9,52.4 54.8,52.3 54.8,52.2 54.7,52.2 54.6,51.7 54.6,51.7 54.6,51.6 54.5,51.5 54.1,51.1 
		53.9,50.8 53.7,50.7 53.7,50.7 53.6,50.7 53.6,50.7 53.5,50.7 53.5,50.7 53.4,50.8 53.4,50.8 53.4,50.8 53.2,51 53.2,51.1 
		53.2,51.1 53.1,51.1 53.1,51.1 52.9,51.1 52.1,50.7 52,50.6 51.9,50.5 51.9,50.4 51.8,50.3 51.7,49.9 51.6,49.7 51.6,49.6 
		51.6,49.4 51.6,49.3 51.5,49.2 50.9,48.6 50.9,48.6 50.8,48.2 50.8,48.1 50.7,47.9 50.6,47.9 50.6,47.8 50.5,47.8 50.5,47.8 
		50.4,47.8 50.4,47.8 50.3,47.9 50.3,47.9 50.3,47.9 50.2,47.9 50.2,48 49.9,47.9 48.8,47.1 48.4,46.7 48.1,46.2 47.8,46 47.7,45.9 
		47.7,45.8 47.8,45.8 47.8,45.7 47.8,45.6 47.8,45.4 47.7,45.3 47.7,45.2 47.6,45.2 47.5,45.1 47.4,45.1 47.2,45.1 47,45.2 
		46.9,45.1 46.8,45.1 46.7,45 46.6,44.9 46.6,44.8 46.6,44.8 46.6,44.7 46.6,44.5 46.6,44.4 46.6,44.4 46.6,44.2 46.5,44.2 
		46.5,44.1 46.4,44.1 46.3,44.1 45.5,44.1 45.2,44.1 45,44 44.4,44 44.2,44 44.2,44 44.1,43.8 44,43.8 43.9,43.7 43.7,43.7 
		42.9,43.7 42.5,43.8 42.3,43.8 42.2,43.8 42.1,43.8 42.1,43.9 42.2,44.2 42.2,44.3 42.2,44.4 42.1,44.4 42.1,44.5 41.9,44.7 
		41.8,44.7 41.8,44.7 41.7,45 41.6,45 41.6,45 41.5,45 41.5,45 41.5,45 41.4,45 41.4,45 41.3,44.9 41.3,44.8 41.2,44.8 41.2,44.8 
		41.1,44.8 40.8,44.9 40.8,44.9 40.7,44.9 40.6,44.8 40.1,44.9 39.9,44.9 39.8,44.9 39.7,44.7 39.6,44.6 39.5,44.4 39.5,44.3 
		39.4,43.7 39.4,43.7 39,43 38.9,42.9 38.9,42.8 38.9,42.5 38.9,42.3 38.8,41.9 38.8,41.8 38.8,41.8 38.8,41.7 38.8,41.7 38.8,41.7 
		38.9,41.6 38.9,41.6 39,41.6 39.4,41.6 39.4,41.6 39.5,41.6 39.5,41.6 39.5,41.6 39.6,41.5 39.6,41.4 39.6,41.3 39.6,41.2 
		39.6,41.1 39.5,41 39.4,40.8 39.4,40.8 39.3,40.7 39.3,40.7 39.1,40.6 39,40.5 39.1,40.4 39.2,40.4 39.3,40.4 39.3,40.3 39.3,40.2 
		39.6,39.8 39.7,39.7 39.7,39.7 39.7,39.6 39.8,39.5 40.1,39.4 40.3,39.2 40.3,39.1 40.4,39.1 40.5,39 41,38.8 41.8,38.7 42.2,38.6 
		42.5,38.7 42.9,38.8 43,38.8 43,38.8 43.2,38.9 43.3,38.9 43.6,38.9 44.8,38.5 45.3,38.4 45.5,38.1 45.8,38 46.2,38.2 46.4,38.3 
		47,38 47.1,38 47.5,38 47.7,38 48.2,37.9 48.5,37.7 48.7,37.1 48.8,36.7 48.8,36.6 48.8,36.5 48.7,36.5 48.5,36.3 48.5,35.9 
		48.5,35.8 48.2,35.5 47.8,34.9 47.8,34.8 47.8,34.7 47.8,34.7 48.6,34.6 48.9,34.5 49.3,34.5 49.4,34.5 49.5,34.4 49.8,33.9 
		50.5,33.9 50.3,34 50.2,34.2 	"/>
	<path id="Puntarenas" fill="#3A9EB5" stroke="#F9F9FA" stroke-width="0.25" stroke-linecap="round" stroke-linejoin="round" d="
		M28.7,35.9L29,36l0.3,0l0.3,0l0.3-0.1l0.2-0.1v-0.1l-0.2,0l-0.1,0l-0.1-0.1l-0.2,0l-0.1,0l-0.2-0.1h0.6v-0.1l-0.5-0.2l-0.6-0.1
		l-0.1,0l-0.3,0.1l0.2,0.4L28.7,35.9z M33.1,40.3l-0.3-0.1l0.2-0.2l0.1-0.1l0.1,0l-0.2-0.2l-0.2-0.3l0-0.3l0.3-0.1v-0.1l-0.2-0.2
		l-0.4-0.3l-0.2-0.2l-0.3,0.1l-0.3,0l-0.3-0.1l-0.7-0.4l-0.3-0.1l-0.1,0l-0.1-0.1l-1-0.4L28.8,37l0,0l-0.2,0.6l-0.1,0.1l-0.4,0.1
		l-0.1,0l-0.4,0.3l-0.1,0l0,0l0,0l0,0l0,0l-0.1,0l-0.2,0.1l-0.4,0.2l-0.2,0.1l-0.1,0.1l0,0.1l0.1,0.1l0.1,0.1l0.1,0l0.1,0l0.2,0
		l0.1,0l0.1,0l0.2,0l0,0l0.1,0l0,0l0,0l0.2,0l0.1,0l0.1,0.1l0.1,0l0,0l0,0l0.1,0.1l0.1,0.1l0,0.1l0,0l0,0l0,0.1l0,0.1l0,0.1l0,0l0,0
		l0,0l0.3,0.1l0,0l0,0l-0.1,0.1l-0.1,0.2l-0.2,0.7l0,0.1l0,0.1l0,0.1l0,0l0,0l-0.1,0.1l0,0.1l0,0.1l0,0.2l0,0.1l0,0l0,0l-0.1,0
		L28,42l0,0l0,0l-0.1,0l0,0l0,0l0,0l1.4,2l0.5,1h0.1l0.2-0.3l0.2-0.3l0.4-1.2l0.1-0.1L31,43l0.1-0.1l0.1,0l0.6-0.3l0-0.1l-0.3-0.3
		l-0.1-0.1l0.1-0.2l0.3,0l0.5,0.3l0.1-0.1l0.1-0.3l0.1-0.1l0.4-0.2l0.1-0.1l0.1-0.3l0.3-0.2l0.3-0.1l0.2-0.2v-0.1l-0.6,0L33.1,40.3z
		 M50.8,60l0.1,0.1l0.2,0l0.1-0.1l0-0.2l-0.2,0L50.8,60z M71,56.1l-0.4-0.8l-0.2-0.2l-0.8-0.3l-0.8-0.6l-0.4-0.2l-0.1-0.1L68.2,54
		l0-0.1l-0.1-0.1L68,53.6l-0.2,0l-0.5,0.2l0-0.2l0,0l-0.2-0.1l-0.1,0l-0.3-0.1l-0.3-0.3l-0.1-0.1l-0.1-0.3l-0.1-0.1l-0.1,0L66,52.4
		l-0.6-0.2l-0.1,0l0,0l-0.1-0.1l0-0.1l-0.2-0.9L65,50.9l0-0.1l0,0l0,0l0,0l-0.6-0.4l-0.1,0l-0.1-0.1l-0.7-0.9l-0.1,0l-0.1,0l-0.4,0
		l-0.2,0h-0.1l-0.1,0l-0.1,0l-0.3-0.1L61.9,49l-0.1,0l-0.3-0.1l-0.1,0l0,0l0,0L61,48.5l-0.1-0.1l-0.1,0l-0.1,0l-0.1,0l-0.1,0.1
		l-0.1,0l0,0l-0.2,0.3l0,0l-0.1,0l-0.3,0l-0.1,0l-0.1,0l-0.1,0.1l0,0l0,0l0,0l0,0l0-0.1l0-0.1l0,0l-0.1-0.1l-0.1,0l-0.5-0.1
		l-0.4,0.4l0,0.1l0,0.1l-0.1,0.4l0,0.1l0,0.1l-0.5,0.5l-0.1,0.1l0,0l-0.2,0.9l0,0l0,0l0,0l0.2,0l0,0l0,0l0,0l0,0l0,0h0l0,0l0,0l0,0
		l0,0l0,0l0,0l0,0.1l0,0.1l0,0.2l0,0.1L58,52.5l0,0.1l0,0.1l0,0.4l0,0.1l0,0.1l0,0l0,0l0,0l-0.1,0l-0.1,0.1l-0.2,0.3l0,0l0,0l0,0
		l0,0l0,0l0,0l-0.1,0l0,0l-0.1-0.1L57,53.5l0,0l-0.1,0l0,0l-0.1,0l-0.2,0l0,0l-1.6-1l-0.1-0.1l0-0.1l0,0l-0.1-0.5l0,0l0,0l-0.1-0.1
		l-0.4-0.5l-0.2-0.2l-0.2-0.1l0,0l0,0h0l-0.1,0l-0.1,0l0,0l0,0l0,0L53.2,51l0,0l0,0l0,0l0,0l-0.1,0l-0.9-0.4L52,50.6l-0.1-0.1l0-0.1
		l-0.1-0.2l-0.1-0.4l0-0.2l0-0.1l0-0.2l-0.1-0.1l-0.1-0.2l-0.6-0.6l0,0l-0.1-0.3l0-0.1l-0.1-0.2l-0.1-0.1l-0.1,0l0,0h-0.1l0,0l0,0
		l0,0l0,0l0,0l0,0l0,0l-0.3-0.1l-1.1-0.8l-0.4-0.4l-0.3-0.5L47.8,46l-0.1-0.1l0-0.1l0-0.1l0-0.1l0-0.1l0-0.2l0-0.1l0-0.1l0,0l-0.1,0
		l-0.2,0l-0.2,0l-0.2,0l-0.1,0l-0.1,0L46.7,45l-0.1-0.1l0-0.1l0-0.1l0-0.1l0-0.1l0-0.1l0-0.1l0-0.1l0-0.1l-0.1,0l0,0l-0.2,0
		l-0.8,0.1l-0.3,0L45,44l-0.6,0l-0.2,0l0,0l-0.1-0.1l-0.1,0l-0.1-0.1l-0.3,0l-0.7,0l-0.5,0.1l-0.2,0l-0.1,0l0,0l0,0l0.1,0.3l0,0.1
		l0,0l0,0.1l-0.1,0.1l-0.2,0.2l0,0l0,0L41.7,45l0,0l-0.1,0l0,0l-0.1,0l0,0l0,0l0,0l-0.1-0.1l0,0l0,0l-0.1,0l-0.1,0l-0.3,0.1l-0.1,0
		l0,0l-0.1,0l-0.5,0.1l-0.2,0l-0.1,0l-0.1-0.1l-0.1-0.1l-0.1-0.2l0-0.1l-0.1-0.6l0,0L39,43l0-0.1l0-0.1l0-0.3l0-0.2l-0.1-0.4l0,0
		l0,0l0,0l0,0l0,0l0,0l0,0l0.1,0l0.3,0l0.1,0l0,0l0,0l0,0l0,0l0-0.1l0-0.1l0-0.1l0-0.1L39.5,41l-0.1-0.1l0,0l-0.1-0.1l-0.1-0.1
		l-0.1-0.1L39,40.5l0.2-0.1l-0.4-0.5l-0.2-0.1l-0.2,0l-0.2,0l-0.3-0.1l-0.4-0.1l-0.1-0.1l-0.1-0.1l0-0.1l0-0.1l0,0l0,0l0,0l0.1-0.1
		l0.3-0.5l0.1-0.1l0.2-0.1l0.8-0.6l0.3-0.1l0.1,0l0.1-0.1l0,0l0-0.1L39.3,37L39.1,37l0,0L39,37.1l-0.1,0l-0.1,0l0,0l0,0l0-0.1l0,0
		l-0.1-0.2l-0.3-0.3l-0.1-0.2l-0.3-0.4l-0.1-0.2l-0.2-0.4l-0.1-0.3l0.1-0.4l0-0.1l0-0.1l-0.1-0.2l0-0.1v-0.1l0.1-0.4l0.1-0.1
		l0.2-0.3l0-0.1l0-0.1l0,0L37.6,33l-0.1-0.1l-0.1-0.3l-0.3-0.2l-0.1,0l0,0l0,0l-0.1,0.1l-0.2,0.1l-0.3,0.1l-0.1,0l-0.1,0l-0.1-0.1
		l0,0l-0.1-0.1l-0.4-0.6l-0.3-0.2l-0.1,0l-0.1,0l-0.1,0l-0.1,0l-0.1,0l-0.1,0l-0.1,0.1l-0.1,0.2l-0.1,0.1l-0.2,0.1L34,32L34,32.1
		l0,0.1l0,0.1l0,0.1v0.1l0,0l0,0l0,0l0.1,0.1l0,0l0,0l0,0l0,0L34,33l0,0.3l0,0.1l-0.1,0.2l0,0.1l0,0l0,0l0,0l0,0l0.1,0.1l0,0.1
		l0,0.1l0,0.1l0,0.1l0,0l-0.3,0.1l-0.1,0l-0.3,0.3l-0.1,0.1l0,0.1l0,0.1l0,0.1l0,0.1l0.1,0.2l0,0.1l0,0l0,0l0,0l0,0l-0.2-0.1
		l-0.1-0.1l-0.1-0.1l-0.2-0.3l-0.1-0.1l0,0l-0.2-0.1l-0.1,0l-0.1,0l-0.1,0l-0.1,0l-0.1,0l0,0l0,0l0,0l0,0l0,0l-0.1-0.1l0,0l0,0l0,0
		l-0.1,0l-0.1,0l-0.1,0l-0.1,0l-0.1,0l-0.3,0.1l0,0l0,0l0,0.1l-0.1,0.2l0.2,0.1l0.1,0l0.1-0.1l0.1,0l0.1,0l0.2,0.2l0.4,0.2l0.7,0.7
		l0.3,0.2l-0.1,0.1l0.2,0.2l0.2,0.1l0.1,0l0.1,0.1l0.5,0.4l0.4,0.2l0.4,0.2l0.5,0.1l0.6,0v0.1l-0.6,0l-0.3,0l-0.2,0.1v0.1l1.5-0.2
		l0.5,0.2l-0.1,0.3l0.1,0.2l0.4,0.4l-0.2,0.4l0,0.3l0.3,0.1l0.2,0.2l0.7,1l0.3,0.3l0.1,0.2l0.1,0.2L38,41.6l-0.1,0.2l-0.1,0.1
		l-0.1,0.3l-0.3,0.3l-0.1,0.2l0,0.2l0,0.2l0,0.2l-0.1,0.2l0.3,0l0,0.1l0,0.2l0.1,0.2l0.2,0.1l0.2,0.1l0.2,0.1l0.1,0.2l0.1,0.3
		l0.6,0.4l0.3,0.2l0-0.1l0-0.1l0-0.1l0.2,0.1l0.1,0.2l0.1,0.2l0.2,0.2l0.2,0l0.2,0l0.2-0.1l0.2,0l0.4,0l2.3,0.6l0.4,0l0.5,0.1
		l0.7,0.4l0.4,0.1l-0.2-0.2l-0.1,0l-0.2,0v-0.1l0.4,0.1l0.5,0.4l0.2,0.5l-0.2,0.3l0.3,0.1l0.2,0.2l0.1,0.1l0.2-0.1l0.1,0.1l0.1,0.1
		l0.1,0l0.1-0.1h0.1l1.7,0.7l0.2,0.2l1.3,0.6l1.4,1.3l0.4,0.1l0.5,0.3l0.4,0.4l0,0.5l0.7,0.1l0.5,0.5l0.4,0.6l0.4,0.5l0.1-0.1
		l0.3,0.3l0.1,0.2l0.5,1.2l-0.2,0.1l-0.1,0.1l-0.1,0.1l-0.1,0.2l0.1,0.1l0.1,0.1l0,0.1l-0.2,0.1l0.2,0l0.1,0.1l0.1,0.1l0.1,0.1
		l0.2,0.1l0.1,0.1l0.1,0.1l-0.2,0l-0.2-0.1l-0.3-0.2l0,0.3l0.2,0.2l0.2,0.1l0.1,0.2l-0.1,0.2l-0.2,0.1l-0.4,0.2l-0.2,0.3l-0.1,0.3
		l0.1,0.2l0.2-0.1l0.2-0.2l0.1-0.1l0.2,0l0.4,0v0.1l-0.4,0.1l-0.5,0.3l-0.3,0.3l0.2,0.3l-0.1,0.1l-0.4,0.6l-0.1,0.1l-0.1-0.1
		l-0.1-0.1l-0.2,0.1l-0.3,0.2L54,60.6l-0.5,0.8l0.1,0.5l0.1,0.1l0.4,0.1l0.1,0l0.1,0.2l1.5,1.4l0.4,0.5l0.2,0.2l0.2,0.1l0.3,0
		l1.1-0.1l0.4,0.1l1,0.4v-0.2l0.1,0.1l0.1,0.1l0.3,0.1l-0.2,0l-0.1,0L59.5,65h-0.1l0.3,0.2l0.6,0.3l0.6,0.2l0.4,0l0.2-0.4l0-0.6
		l-0.1-0.6l-0.3-0.4v-0.1l0.1-0.1l0-0.2l0-0.4L61.1,63l-0.2-0.2l-0.2-0.3l-0.2-0.1l-0.3,0l-0.6-0.2L59.3,62l-0.1-0.2l-0.4-0.6
		L58.7,61l-0.6-0.9H58l0,0l-0.1,0.1l0.1-0.3l0.2-0.1l0.6,0.1l0.2,0l0.1-0.1l0-0.1l0.1-0.1l0.2,0l0.1,0.1l0.1,0l0.1-0.2l0.3,0.1
		l0.4,0.1l0.2,0.1L60.5,60l0.1,0l0.1,0l-0.1,0.4l0.2,0.3l0.5,0.3l0.2-0.1l0.2,0.1l0.2,0.2l0.1,0.2l0.3-0.1l0.4,0l0.3,0l0.1-0.2h0.1
		l0.1,0.2l0.2,0.2l0.3,0.2l0.2,0.1V62l-0.5,0.2l-0.1,0l0-0.2l-0.1-0.1l-0.2-0.3h-0.1l0,0.1l0,0.1l-0.1,0.1l0.3,0.7l0.1,0.1l0.2,0.1
		l0.5,0l0.2,0.1l-0.3,0.2L64,63l-0.1,0.1l0,0.3l0.1,0.2l0.6,0.7l0.1,0.3l-0.1,0.3L64.4,65l-0.1,0.2l-0.1,0l-0.5,0.6l0.6,0.6l2.1,1.6
		l0.4,0.4l1.2,2l0,0.2L67.9,71l-0.1,0.3l0,0.3l0.2,0.2l0.1-0.4l0.1-0.8l-0.9-2L67.2,68l-0.1-0.2l-0.3-0.2l-0.2,0l-0.2,0.1l-0.1,0
		l-0.1-0.1l-0.2-0.2L66,67.3L65.5,67l-0.2-0.2l0-0.2l0.2-0.1l0.8-0.4l0.8-0.7l0.5-0.3l0.5-0.2l0.5-0.2l0.4-0.5l0.2-0.5l0.1-0.6
		L69,61.9l-0.1-0.5l-0.2-0.5l-0.3-0.4l-0.5-0.6l-0.2-0.2l-0.1-0.2l0-0.3l0.1-0.2l0.5-0.3l0.2-0.2l0-0.2l-0.1-0.1l-0.1-0.1l0.2-0.2
		l0.2-0.1l1.8-0.7l0.5-0.3l0.2-0.4l0,0L71,56.1z"/>
	
		<polygon id="Limón" fill-rule="evenodd" clip-rule="evenodd" fill="#3A9EB5" stroke="#F9F9FA" stroke-width="0.25" stroke-linecap="round" stroke-linejoin="round" points="
		54.9,21.1 55,21.1 55.1,21.1 55.5,21.5 55.9,22.3 56.2,23.2 56.2,23.7 55.9,23.4 55.5,22.3 55.8,23.7 55.7,24.3 55.2,24.7 
		55.5,24.6 55.7,24.5 55.9,24.4 56.1,24.2 56,24.3 56,24.4 56,24.5 56.1,24.7 56.2,24.5 56.2,24.1 56.3,23.9 57.2,26.2 58.2,28.7 
		59.4,30.7 62.7,35.1 63,35.3 64.1,36.6 64.8,37.3 65.2,37.1 65.4,37.2 65.8,37.3 65.9,37.4 65.9,37.7 66,38 66.1,38.2 66.3,38.5 
		67.1,39.7 67.4,39.9 68.4,41.2 69.1,41.9 69.6,41.8 69.7,42.1 69.8,42.8 69.9,43.1 70.2,43.3 71.4,43.7 71.8,43.7 72.2,43.7 
		72.5,43.8 72.9,43.9 73.3,44.6 73.6,44.8 73.6,44.8 73.6,44.8 73.8,45.4 73.7,45.4 73.4,45.3 73.1,45.3 73,45.4 73,46.1 72.8,46.3 
		72.6,46.4 72.3,46.3 72,46.2 71.8,46.1 71.6,45.9 71.4,45.5 71.2,45.3 71.1,45.4 70.9,45.3 70.2,44.7 69.2,44.3 68.9,44.3 
		68.6,44.6 68.4,44.9 68.3,45.1 68.6,45.4 68.7,45.9 68.7,46 68.9,46 68.9,46.1 68.9,46.2 68.7,46.4 67.7,46.5 67.4,46.6 67.3,46.9 
		67.2,47.2 67.2,48.7 67.3,50.8 67.3,53.6 67.3,53.6 67.1,53.5 67.1,53.4 66.8,53.4 66.5,53.1 66.4,52.9 66.3,52.6 66.2,52.5 
		66.1,52.4 66,52.4 65.4,52.2 65.4,52.2 65.3,52.1 65.3,52.1 65.3,52 65.1,51.1 65,50.9 65,50.8 65,50.8 64.9,50.7 64.9,50.7 
		64.3,50.4 64.2,50.3 64.1,50.2 63.4,49.3 63.3,49.3 63.2,49.3 62.8,49.3 62.6,49.4 62.5,49.4 62.4,49.3 62.3,49.3 62.1,49.2 
		61.9,49 61.8,49 61.5,48.9 61.4,48.9 61.4,48.8 61.3,48.8 61,48.5 60.9,48.5 60.8,48.4 60.8,48.4 60.7,48.5 60.6,48.5 60.5,48.6 
		60.5,48.6 60.3,48.9 60.2,48.9 60.2,48.9 59.9,49 59.8,49 59.7,49 59.6,49.1 59.6,49.1 59.6,49.1 59.5,49.1 59.5,49.1 59.4,49 
		59.4,48.9 59.4,48.9 59.3,48.8 59.3,48.8 58.8,48.7 58.6,48.5 58.6,48.5 58.4,48.3 57.8,46.7 57.8,46.5 57.7,46.3 57.6,46.2 
		57.6,46.1 57.6,46.1 57.4,45.9 57.4,45.6 57.4,45.5 57.4,44.9 57.7,44.5 58.7,43.2 59.1,42.3 59.2,42 59.7,41.4 60.5,40.5 
		60.6,40.2 60.5,39.9 60.3,39.2 60.3,38.9 60.4,38.5 60.5,38.3 60.7,37.9 60.8,37.9 60.4,37.8 58.6,37.8 56.1,37.7 55.6,37.6 
		53.9,36.8 52.9,36.3 52.1,35.9 50,35 50.2,34.2 50.3,34 50.5,33.9 51.3,33 51.3,32.9 51.6,32.4 51.6,32.3 51.6,32.2 51.6,32.2 
		51.6,32 51.7,31.7 51.7,31.6 51.7,31.5 51.7,31.5 51.6,31.4 51.6,31.3 51.5,31.2 51.5,31 51.3,30.6 51.2,30.5 51.2,30.3 51.2,30.2 
		51.2,30.1 51.3,30 51.3,29.9 51.5,29.6 51.5,29.6 51.5,29.6 51.6,29.6 51.6,29.6 51.7,29.5 51.7,29.5 51.8,29.4 51.9,29.2 52,28.8 
		52,28.8 52,28.7 52,28.5 51.9,28.5 51.9,28.4 52,28.3 52,28.2 52,28.2 51.9,28.1 51.9,28.1 51.9,28 51.8,28 51.8,27.9 51.8,27.8 
		51.9,27.1 51.9,26.9 51.9,26.4 51.9,26.2 52,26.1 52,26.1 52.1,26 52.2,25.9 52.4,25.9 52.4,25.8 52.6,25.6 52.9,25.4 53.1,25.4 
		53.2,25.3 53.7,25.3 53.9,25.3 53.9,25.2 54,25.3 54.1,25.3 54.1,25.3 54.1,25.2 54.1,25.2 54,25.1 54,25.1 53.8,25 53.7,24.9 
		53.7,24.9 53.6,24.8 53.6,24.7 53.6,24.7 53.7,24.3 53.7,24.2 53.7,24.2 53.6,24.1 53.5,24 53.5,23.9 53.4,23.9 53.4,23.9 
		53.3,23.9 53.1,23.8 53.1,23.8 54.2,23.5 54.8,23.2 54.9,22.7 54.7,22.1 54.7,21.3 54.7,21.2 54.7,21.1 54.8,21.1 	"/>
	
		<polygon id="Heredia" fill-rule="evenodd" clip-rule="evenodd" fill="#3A9EB5" stroke="#F9F9FA" stroke-width="0.25" stroke-linecap="round" stroke-linejoin="round" points="
		50.4,24.8 50.6,24.8 50.8,24.6 50.9,24.6 51.4,24.7 51.5,24.6 51.8,24.2 53,23.8 53.1,23.8 53.1,23.8 53.3,23.9 53.4,23.9 
		53.4,23.9 53.5,23.9 53.5,24 53.6,24.1 53.7,24.2 53.7,24.2 53.7,24.3 53.6,24.7 53.6,24.7 53.6,24.8 53.7,24.9 53.7,24.9 53.8,25 
		54,25.1 54,25.1 54.1,25.2 54.1,25.2 54.1,25.3 54.1,25.3 54,25.3 53.9,25.2 53.9,25.3 53.7,25.3 53.2,25.3 53.1,25.4 52.9,25.4 
		52.6,25.6 52.4,25.8 52.4,25.9 52.2,25.9 52.1,26 52,26.1 52,26.1 51.9,26.2 51.9,26.4 51.9,26.9 51.9,27.1 51.8,27.8 51.8,27.9 
		51.8,28 51.9,28 51.9,28.1 51.9,28.1 52,28.2 52,28.2 52,28.3 51.9,28.4 51.9,28.5 52,28.5 52,28.7 52,28.8 52,28.8 51.9,29.2 
		51.8,29.4 51.7,29.5 51.7,29.5 51.6,29.6 51.6,29.6 51.5,29.6 51.5,29.6 51.5,29.6 51.3,29.9 51.3,30 51.2,30.1 51.2,30.2 
		51.2,30.3 51.2,30.5 51.3,30.6 51.5,31 51.5,31.2 51.6,31.3 51.6,31.4 51.7,31.5 51.7,31.5 51.7,31.6 51.7,31.7 51.6,32 51.6,32.2 
		51.6,32.2 51.6,32.3 51.6,32.4 51.3,32.9 51.3,33 50.5,33.9 49.8,33.9 49.5,34.4 49.4,34.5 49.3,34.5 48.9,34.5 48.6,34.6 
		47.8,34.7 47.8,34.7 47.8,34.8 47.8,34.9 48.2,35.5 48.5,35.8 48.5,35.9 48.5,36.3 48.7,36.5 48.8,36.5 48.8,36.6 48.8,36.7 
		48.7,37.1 48.5,37.7 48.2,37.9 47.7,38 47.5,38 47.1,38 47,38 46.4,38.3 46.2,38.2 45.8,38 45.5,38.1 45.5,37.9 45.5,37.8 
		45.5,37.8 45.5,37.7 45.6,37.6 45.9,37.3 45.9,37.2 46.1,34.6 46.2,32.2 46.2,30.1 46.2,27.3 46.3,23.6 46.3,23.5 46.4,23.5 
		46.6,23.5 46.9,23.8 47.1,23.9 47.3,23.7 47.5,23.7 47.7,23.9 48.1,23.7 48.4,23.7 48.6,23.5 48.8,23.5 49,23.6 49.1,23.9 
		50.1,24.7 50.3,24.8 	"/>
	
		<polygon id="Guanacaste" fill-rule="evenodd" clip-rule="evenodd" fill="#3A9EB5" stroke="#F9F9FA" stroke-width="0.25" stroke-linecap="round" stroke-linejoin="round" points="
		27.6,18.8 27.6,18.9 27.5,18.9 27.4,18.9 27.3,19 27.2,19 27.2,19 26.4,20 25,20.9 25,21 24.9,21 24.8,21.1 24.2,21.2 24.1,21.2 
		24.1,21.3 24.1,21.3 24.1,21.4 24.2,21.4 24.9,22.3 25.1,22.5 25.6,22.7 25.7,22.8 26.1,22.8 26.1,22.8 26.1,22.8 26.2,22.9 
		26.3,22.9 26.4,23.2 26.8,24 27.3,24 27.8,24 28.2,23.9 28.4,23.9 28.5,23.9 28.6,23.9 28.7,23.9 28.8,24 29.4,24.3 29.5,24.5 
		29.6,24.5 29.9,24.6 30.8,24.8 31,24.9 31.2,25 31.3,25.1 31.4,25.2 31.7,25.6 31.9,25.9 31.9,26.4 32,26.5 32.1,26.7 32.2,26.7 
		32.6,27.2 32.8,27.4 33,27.5 34,27.7 34.3,27.9 35.3,28.6 35.4,28.8 35.8,29.6 35.5,30.6 35.6,30.9 35.6,31 35.7,31 35.7,31.1 
		35.7,31.3 35.4,31.8 35.1,31.6 35.1,31.6 35,31.5 34.9,31.5 34.7,31.5 34.7,31.5 34.6,31.6 34.5,31.6 34.4,31.8 34.3,31.8 
		34.1,31.9 34,32 34,32.1 33.9,32.1 33.9,32.2 33.9,32.3 33.9,32.3 33.9,32.4 33.9,32.4 33.9,32.4 34,32.5 34.1,32.6 34.1,32.6 
		34.1,32.7 34.1,32.7 34,33 34,33.3 33.9,33.3 33.8,33.6 33.8,33.6 33.8,33.7 33.8,33.7 33.9,33.8 33.9,33.8 33.9,33.9 34,33.9 
		34,34 34,34.1 33.9,34.2 33.9,34.2 33.6,34.3 33.5,34.4 33.2,34.7 33.1,34.8 33,34.9 33,35 33,35 33.1,35.1 33.1,35.3 33.1,35.4 
		33.1,35.4 33.1,35.4 33,35.4 33,35.4 32.8,35.3 32.7,35.2 32.6,35.1 32.4,34.9 32.3,34.7 32.2,34.7 32.1,34.6 32,34.6 31.9,34.6 
		31.9,34.6 31.8,34.6 31.7,34.6 31.7,34.6 31.7,34.6 31.6,34.6 31.6,34.6 31.5,34.6 31.5,34.5 31.4,34.5 31.4,34.5 31.3,34.5 
		31.2,34.5 31.1,34.5 31.1,34.5 31,34.5 30.9,34.5 30.5,34.6 30.5,34.6 30.5,34.6 30.4,34.5 30.2,34.3 29.9,34.4 28.7,34.4 
		28.4,34.4 28.1,34.2 27.7,33.7 27.7,33.6 27.8,33.3 27.5,32.9 26.7,32.4 26.8,32.7 27.3,33.1 27.4,33.5 27.5,34.4 27.6,34.8 
		27.8,35.2 27.6,35.3 27.6,35.5 27.8,35.8 28.3,36 28.5,36.2 28.7,36.6 28.9,36.6 29,36.6 29.1,36.6 29.1,36.7 28.9,36.7 28.8,36.7 
		28.6,36.7 28.5,36.6 28.5,36.7 28.8,37 28.6,37.6 28.5,37.7 28.2,37.8 28.1,37.8 27.6,38.1 27.6,38.1 27.5,38.1 27.5,38.1 27.5,38 
		27.4,38 27.3,38 27.1,38.1 26.7,38.3 26.5,38.4 26.5,38.6 26.5,38.7 26.6,38.8 26.6,38.8 26.7,38.9 26.8,38.9 26.9,38.8 27,38.8 
		27,38.8 27.2,38.9 27.2,38.9 27.3,38.9 27.4,39 27.4,39 27.6,39 27.7,39 27.8,39.1 27.9,39.1 28,39.1 28,39.1 28.1,39.2 28.2,39.3 
		28.2,39.4 28.2,39.5 28.2,39.5 28.3,39.6 28.3,39.7 28.3,39.8 28.3,39.8 28.4,39.8 28.4,39.9 28.7,39.9 28.7,39.9 28.7,40 
		28.7,40.1 28.6,40.3 28.4,40.9 28.4,41.1 28.4,41.1 28.5,41.2 28.5,41.2 28.5,41.3 28.4,41.3 28.4,41.4 28.3,41.5 28.3,41.6 
		28.2,41.7 28.2,41.7 28.1,41.8 28.1,41.8 28,42 27.9,42.1 27.9,42.1 27.8,42.1 27.8,42.2 27.8,42.2 27.7,42 27.6,41.9 27.4,41.8 
		27,41.6 27,41.4 27,41.3 27,41.2 26.5,40.7 26,40.4 24.1,39.7 24,39.8 23.7,39.9 23.6,40 23.4,39.9 23.2,39.8 23,39.7 22.9,39.7 
		22.9,39.7 22.8,39.6 22.8,39.6 22.6,39.5 22.5,39.5 22.5,39.6 22.5,39.6 21.5,39.3 21,39.2 20.9,39.2 20.8,39.1 20.7,39 20.5,39 
		20.4,39.1 20.3,39.1 20.1,38.9 20.2,38.6 20,38.1 18.3,35.9 18.2,35.8 18,35.3 17.8,34.9 17.1,33.3 17.1,32.8 17,32.5 16.9,32.3 
		17.1,32 17.2,31.9 17.2,31.7 16.8,31.3 16.6,31.1 16.7,30.9 17,30.7 17.2,30.4 17.4,30.1 17.7,30.2 17.8,30 18,29.8 18.3,29.5 
		18.2,29.2 17.9,28.9 17.7,28.7 17.8,28.6 17.9,28.6 18,28.5 18,28.4 17.7,28.4 17.7,28.3 17.9,28.3 18.1,28.1 18.2,27.8 18.3,27.8 
		18.6,28 18.9,27.9 19.3,27.7 19.5,27.7 19.6,27.7 19.6,27.5 19.7,27.4 19.8,27.3 19.8,27.2 20,27 20.1,27 20.3,27 20.8,26.4 
		20.8,26.3 20.7,26.2 20.4,26 19.7,26.7 19.7,26.7 19.7,26.6 19.7,26.6 19.6,26.6 19.6,26.5 19.8,26.3 19.9,26.2 20.1,26.1 20,26 
		20,26 19.9,26.1 19.9,26.1 19.8,26.1 19.9,26 19.9,26 20.1,25.9 20.1,25.8 20,25.8 20,25.7 20.3,25.4 20.3,24.8 20.2,23.7 20,23.4 
		19.4,23.1 18.8,23 18.6,23.2 18.5,23.2 18,22.8 17.8,22.6 17.9,22.7 18,22.6 18.1,22.5 18,22.4 17.8,22.4 17.5,22.4 17.4,22.4 
		16.9,22.2 16.5,22 16,21.8 15.4,21.7 15.4,21.6 15.8,21.5 16.5,21.1 16.9,21.1 16.8,21 16.8,20.9 16.7,20.9 16.5,20.8 16.5,20.7 
		17.4,20.7 17.6,20.7 17.7,20.9 17.7,21 17.6,21.1 17.7,21.2 17.8,21.2 18,21.4 18.1,21.4 18.2,21.3 18.2,21.2 18,21 18.2,20.9 
		18.6,20.8 18.9,20.8 19,20.9 19.2,21.1 19.3,21.1 19.4,21 19.5,20.9 19.5,20.8 19.4,20.7 19.4,20.6 19.6,20.5 19.7,20.3 19.7,20.1 
		19.5,19.9 19.4,19.8 19.1,19.7 19,19.6 18.8,19.4 18.8,19.4 18.9,19.4 19,19.3 19.3,19 19.5,19.1 19.6,19.3 20,19.3 20.2,19.1 
		20.1,18.8 20,18.6 19.7,18.4 19.6,18.4 19.6,18.4 20,17.7 20.3,17 20.8,16.3 21.4,16.1 21.9,16.3 22.4,16.8 22.9,17.1 24.7,17.7 
		27,18.6 	"/>
	
		<polygon id="Cartago" fill-rule="evenodd" clip-rule="evenodd" fill="#3A9EB5" stroke="#F9F9FA" stroke-width="0.25" stroke-linecap="round" stroke-linejoin="round" points="
		57.8,46.7 56,45.6 56,45.6 55.8,45.5 55.7,45.3 55.2,44.9 55,44.9 55,45 54.9,45.2 54.8,45.2 54.8,45.2 54.8,45.3 54.7,45.3 
		54.7,45.3 54.6,45.3 54.6,45.3 54.5,45.3 54.3,45.3 54.3,45.3 54.2,45.3 54,45.5 53.9,45.5 53.9,45.4 53.9,45.2 53.8,45 53.8,45 
		53.7,44.9 53.7,44.9 53.4,44.8 53.3,44.7 53.3,44.7 53.1,44.4 52.7,44.5 52.7,44.5 52.3,44.4 52.2,44.4 52.2,44.3 52.1,44.3 
		52,44.1 52,44 51.9,43.9 51.9,43.9 51.8,43.6 51.7,43.4 51.6,43.4 51.6,43.3 51.5,43.3 51.4,43.3 51.3,43.3 51.3,43.3 51.2,43.4 
		51.2,43.4 51.1,43.3 50.7,43.2 50.5,43.1 50.5,43.1 50.4,43 50,42.5 49.9,42.2 49.8,42.2 49.8,42.2 49.7,42.1 49.4,42 49.3,41.8 
		49.3,41.7 49.2,41.6 49.2,41.4 49,41.4 48.4,41.5 48.3,41.5 48.2,41.5 48.2,41.5 48,41.5 47.8,41.6 47.8,41.6 47.7,41.6 47.7,41.6 
		47.6,41.6 47.6,41.5 47.6,41.5 47.6,41.4 47.6,41.4 47.7,41.2 47.8,41.1 48.1,40.8 48.3,40.6 48.4,40.5 48.9,39.7 48.6,39.5 
		48.5,39.5 48.5,39.5 48.5,39.3 49,38.6 49.8,38.3 49.8,38.3 50.3,38.3 50.4,38.3 50.5,38.3 50.5,38.3 50.6,38.3 50.6,38.3 
		50.8,38.1 51,38 51.1,38 51.2,37.9 51.3,37.9 51.3,37.7 51.2,37.3 51.2,36.9 51.1,36.7 51.1,36.6 50.7,36.2 50.7,36.2 50.6,36.2 
		50.5,36.1 50.3,35.9 50.3,35.9 50.2,35.8 50,35 52.1,35.9 52.9,36.3 53.9,36.8 55.6,37.6 56.1,37.7 58.6,37.8 60.4,37.8 60.8,37.9 
		60.7,37.9 60.5,38.3 60.4,38.5 60.3,38.9 60.3,39.2 60.5,39.9 60.6,40.2 60.5,40.5 59.7,41.4 59.2,42 59.1,42.3 58.7,43.2 
		57.7,44.5 57.4,44.9 57.4,45.5 57.4,45.6 57.4,45.9 57.6,46.1 57.6,46.1 57.6,46.2 57.7,46.3 57.8,46.5 	"/>
	
		<polygon id="Alajuela" fill-rule="evenodd" clip-rule="evenodd" fill="#3A9EB5" stroke="#F9F9FA" stroke-width="0.25" stroke-linecap="round" stroke-linejoin="round" points="
		38.6,19.2 38.9,19.2 39.3,19.3 40.2,19.7 40.3,19.7 40.4,19.7 40.5,19.8 40.5,19.8 40.9,20.3 41.1,20.5 41.2,20.5 41.4,20.6 
		41.6,20.6 41.8,20.6 42.7,20 42.8,19.9 43,20 43.1,20.1 43,20.3 43.1,20.5 43.2,20.6 43.4,20.9 43.4,21 43.6,21.2 44.4,21.5 
		44.6,21.6 44.8,21.8 45.1,22 45.4,22.2 45.5,22.6 45.2,22.8 45.1,22.8 45.1,23 45.1,23.1 45.2,23.1 45.2,23.2 45.6,23.5 45.7,23.6 
		45.9,23.5 46.1,23.5 46.3,23.5 46.3,23.6 46.2,27.3 46.2,30.1 46.2,32.2 46.1,34.6 45.9,37.2 45.9,37.3 45.6,37.6 45.5,37.7 
		45.5,37.8 45.5,37.8 45.5,37.9 45.5,38.1 45.3,38.4 44.8,38.5 43.6,38.9 43.3,38.9 43.2,38.9 43,38.8 43,38.8 42.9,38.8 42.5,38.7 
		42.2,38.6 41.8,38.7 41,38.8 40.5,39 40.4,39.1 40.3,39.1 40.3,39.2 40.1,39.4 39.8,39.5 39.7,39.6 39.7,39.7 39.7,39.7 39.6,39.8 
		39.3,40.2 39.3,40.3 39.3,40.4 39.2,40.4 39.1,40.4 38.7,39.9 38.6,39.8 38.4,39.8 38.2,39.7 37.9,39.7 37.5,39.5 37.4,39.4 
		37.3,39.4 37.4,39.3 37.4,39.2 37.4,39.1 37.4,39.1 37.4,39.1 37.5,39 37.9,38.5 38,38.4 38.2,38.3 39,37.8 39.3,37.7 39.4,37.6 
		39.5,37.6 39.5,37.5 39.5,37.4 39.3,37 39.1,37 39.1,37 39,37.1 38.8,37.1 38.8,37.1 38.7,37.1 38.7,37.1 38.7,37 38.7,37 
		38.6,36.8 38.3,36.5 38.2,36.3 37.9,35.9 37.8,35.7 37.6,35.3 37.5,35.1 37.6,34.6 37.6,34.6 37.5,34.5 37.4,34.3 37.4,34.2 
		37.4,34.2 37.5,33.8 37.6,33.6 37.8,33.3 37.8,33.2 37.8,33.1 37.8,33.1 37.6,33 37.6,32.9 37.5,32.7 37.2,32.5 37,32.4 37,32.5 
		37,32.5 36.8,32.5 36.6,32.6 36.3,32.7 36.1,32.7 36,32.7 35.9,32.6 35.9,32.6 35.8,32.4 35.4,31.8 35.7,31.3 35.7,31.1 35.7,31 
		35.6,31 35.6,30.9 35.5,30.6 35.8,29.6 35.4,28.8 35.3,28.6 34.3,27.9 34,27.7 33,27.5 32.8,27.4 32.6,27.2 32.2,26.7 32.1,26.7 
		32,26.5 31.9,26.4 31.9,25.9 31.7,25.6 31.4,25.2 31.3,25.1 31.2,25 31,24.9 30.8,24.8 29.9,24.6 29.6,24.5 29.5,24.5 29.4,24.3 
		28.8,24 28.7,23.9 28.6,23.9 28.5,23.9 28.4,23.9 28.2,23.9 27.8,24 27.3,24 26.8,24 26.4,23.2 26.3,22.9 26.2,22.9 26.1,22.8 
		26.1,22.8 26.1,22.8 25.7,22.8 25.6,22.7 25.1,22.5 24.9,22.3 24.2,21.4 24.1,21.4 24.1,21.3 24.1,21.3 24.1,21.2 24.2,21.2 
		24.8,21.1 24.9,21 25,21 25,20.9 26.4,20 27.2,19 27.2,19 27.3,19 27.4,18.9 27.5,18.9 27.6,18.9 27.6,18.8 30.1,19.8 32.9,20.8 
		33.3,20.8 33.7,20.7 35.5,19.5 36.8,18.7 37.3,18.5 37.6,18.7 38.3,19.2 	"/>
</g>
<g>
	<g>
		<rect x="-20.8" y="90.8" fill="none" width="128.6" height="38.1"/>
		<text transform="matrix(1 0 0 1 11.7109 100.1426)" fill="#818281" font-family="'ArialMT'" font-size="13px">Costa Rica</text>
	</g>
</g>
</svg>
