<?xml version="1.0" encoding="utf-8"?>
<!-- Generator: Adobe Illustrator 23.0.1, SVG Export Plug-In . SVG Version: 6.00 Build 0)  -->
<svg version="1.0" id="Countries" xmlns="http://www.w3.org/2000/svg" xmlns:xlink="http://www.w3.org/1999/xlink" x="0px" y="0px"
	 viewBox="0 0 87 130" enable-background="new 0 0 87 130" xml:space="preserve">
<circle fill="#DAF1F9" stroke="#FFFFFF" stroke-width="0.25" cx="43.5" cy="44.7" r="39"/>
<g id="Ecuador">
	
		<polygon id="Zamora-Chinchipe" fill-rule="evenodd" clip-rule="evenodd" fill="#D96CAA" stroke="#F9F9FA" stroke-width="0.25" stroke-linecap="round" stroke-linejoin="round" points="
		65,52.9 65.1,52.9 65.1,52.9 65.1,52.8 65.1,52.8 65.2,52.8 65.2,52.7 65.3,52.7 65.4,52.8 65.5,52.8 65.8,52.7 66.4,52.7 
		66.4,52.7 66.4,52.7 66.3,52.9 66.3,53 66.3,53.1 66.3,53.2 66.3,53.3 66.3,53.4 66.3,53.4 66.2,53.4 66.2,53.4 66.2,53.4 
		66.2,53.5 66.2,53.8 66.2,53.9 66.1,54 66.1,54 66,54 66,54 65.9,54.1 65.9,54.2 65.9,54.6 65.9,54.6 65.8,54.6 65.8,54.6 
		65.7,54.7 65.7,54.7 65.6,54.7 65.6,54.7 65.6,54.8 65.6,55.1 65.5,55.3 65.2,55.8 65.2,56 65.2,56.1 65.1,56.2 65,56.3 65,56.4 
		65.1,56.6 65.1,56.7 65.2,56.8 65.2,56.8 65.2,56.9 65.1,57 65.1,57.1 65.1,57.2 65.1,57.3 65,57.4 64.9,57.4 64.9,57.5 64.5,57.6 
		64.3,57.7 64.1,57.9 64,58 63.9,58.2 63.9,58.3 64,58.5 64.1,58.6 64,58.7 63.9,58.7 63.8,58.7 63.7,58.7 63.7,58.8 63.6,59 
		63.6,59.1 63.5,59.2 63.3,59.4 63.2,59.3 63.2,59.2 63.1,59.2 63.1,59.2 63,59.2 63,59.2 62.9,59.2 62.8,59.2 62.7,59.1 62.6,59.1 
		62.4,59.2 62.3,59.1 62.2,59.1 62.1,59 62.1,58.9 62,58.8 62,58.8 61.9,58.8 61.9,58.7 61.9,58.7 61.8,58.6 61.8,58.6 61.7,58.5 
		61.6,58.4 61.6,58.4 61.5,58.3 61.6,58.3 61.8,58 61.9,57.8 62,57.7 62.1,57.5 62.2,57.5 62.2,57.4 62.2,57.4 62.2,57.3 62.2,57.2 
		62.2,57.1 62.3,57.1 62.3,57 62.3,57 62.3,56.9 62.4,56.9 62.4,57 62.5,57 62.5,57 62.6,57 62.6,57 62.7,57.1 62.7,57.1 62.7,57 
		62.7,57 62.8,57 62.8,57 62.8,57 62.9,56.9 62.9,56.9 63,56.8 63,56.8 63.1,56.7 63.1,56.7 63.1,56.6 63.1,56.5 63.1,56.4 
		63.1,56.3 63.1,56.2 63.2,56 63.1,55.9 63.2,55.8 63.2,55.7 63.1,55.7 63.1,55.7 63.1,55.6 63.1,55.6 63.1,55.6 63,55.5 63,55.5 
		63,55.5 63,55.5 62.9,55.5 62.9,55.5 62.9,55.4 62.9,55.4 62.9,55.3 63,55 63,55 63,54.8 63,54.7 63,54.6 63,54.5 63.1,54.4 
		63.1,54.3 63.1,54.3 63.1,54.2 63.1,54.2 63,54.1 62.9,54 62.9,53.9 62.8,53.8 62.8,53.7 62.8,53.6 62.7,53.6 62.8,53.6 62.8,53.5 
		62.8,53.5 62.8,53.5 62.8,53.5 62.9,53.5 62.9,53.5 62.9,53.5 63,53.5 63,53.5 63,53.4 63,53.4 63,53.3 63.1,53.3 63.2,53.2 
		63.2,53.2 63.3,53.2 63.3,53.1 63.3,53.1 63.3,53.1 63.4,52.8 63.4,52.6 63.4,52.6 63.4,52.5 63.4,52.5 63.4,52.4 63.4,52.4 
		63.4,52.4 63.3,52.3 63.3,52.3 63.3,52.2 63.4,52.2 63.4,52.1 63.5,52.1 63.5,52 63.8,51.9 63.9,51.8 64.3,52 64.3,52.1 64.3,52.1 
		64.3,52.1 64.3,52.2 64.3,52.2 64.2,52.2 64.2,52.2 64.2,52.3 64.2,52.3 64.2,52.3 64.2,52.4 64.2,52.5 64.2,52.5 64.2,52.6 
		64.2,52.6 64.3,52.6 64.3,52.6 64.3,52.7 64.3,52.7 64.3,52.7 64.4,52.8 64.4,52.8 64.5,52.8 64.7,52.8 64.9,52.9 64.9,52.9 
		65,52.9 	"/>
	
		<polygon id="Tungurahua" fill-rule="evenodd" clip-rule="evenodd" fill="#D96CAA" stroke="#F9F9FA" stroke-width="0.25" stroke-linecap="round" stroke-linejoin="round" points="
		66.6,42.1 66.7,42 66.8,42 66.8,42 66.9,42 67,42 67.1,42 67.1,42 67.1,42 67.1,42 67.1,42.1 67.2,42.1 67.2,42.1 67.2,42.1 
		67.3,42.1 67.3,42.2 67.4,42.2 67.5,42.2 67.6,42.3 67.6,42.3 67.6,42.4 67.6,42.9 67.6,43 67.5,43 67.4,43.3 67.3,43.4 67.2,43.4 
		67.2,43.5 67.1,43.5 67,43.5 66.9,43.5 66.8,43.5 66.7,43.5 66.6,43.6 66.6,43.6 66.5,43.7 66.5,43.7 66.5,43.6 66.4,43.6 
		66.4,43.5 66.3,43.5 66.3,43.5 66.2,43.5 66.2,43.5 66.1,43.4 66,43.4 65.9,43.3 65.9,43.3 65.9,43.4 65.8,43.5 65.8,43.5 
		65.7,43.5 65.7,43.5 65.6,43.5 65.5,43.5 65.4,43.5 65.3,43.6 65.2,43.5 65,43.5 64.9,43.5 64.8,43.4 64.6,43.3 64.6,43.3 
		64.5,43.3 64.4,43.3 64.4,43.3 64.2,43.4 64.1,43.4 64.1,43.4 64.1,43.3 64,43.1 63.9,43.1 64,42.8 64,42.8 64.1,42.6 64.1,42.6 
		64.1,42.4 64.1,42.3 64.2,42.2 64.3,42.1 64.5,42 64.6,42 64.7,41.9 64.7,41.9 64.9,42 65.1,42 65.1,42 65.2,41.9 65.3,41.9 
		65.4,41.8 65.5,41.8 65.5,41.8 65.5,41.8 65.6,41.8 65.6,41.7 65.6,41.7 65.6,41.6 65.7,41.6 65.7,41.6 65.7,41.6 65.8,41.7 
		65.8,41.7 65.8,41.7 65.9,41.7 66,41.7 66.1,41.7 66.1,41.6 66.1,41.6 66.1,41.5 66.2,41.4 66.2,41.4 66.2,41.3 66.2,41.3 
		66.3,41.2 66.4,41.3 66.5,41.5 66.6,41.6 66.6,41.6 66.6,41.8 66.6,41.9 66.6,41.9 66.5,42 66.5,42.1 66.5,42.1 	"/>
	
		<polygon id="Sucumbíos" fill-rule="evenodd" clip-rule="evenodd" fill="#D96CAA" stroke="#F9F9FA" stroke-width="0.25" stroke-linecap="round" stroke-linejoin="round" points="
		71.6,35.4 71.7,35.4 72,35.3 72,35.3 72.1,35.3 72.2,35.3 72.4,35.5 72.5,35.6 72.7,35.6 72.7,35.6 72.8,35.6 72.9,35.6 73,35.7 
		73,35.8 73.1,35.8 73.2,35.8 73.5,35.8 73.5,35.8 73.7,35.8 73.8,35.8 73.8,35.7 73.8,35.6 74,35.7 74.2,35.7 74.2,35.7 74.3,35.8 
		74.4,35.9 74.5,35.9 74.6,35.9 74.7,35.8 75.1,35.8 75.2,35.7 75.2,35.4 75.2,35.1 75.2,35.1 75.2,35.1 75.3,35.1 75.4,35.1 
		75.4,35.1 75.5,34.9 75.6,34.9 75.6,34.9 75.7,34.8 75.7,34.8 75.8,34.8 75.9,35 76,35 76,35.1 76.1,35.1 76.3,35.1 76.4,35.1 
		76.4,35.1 76.4,35.1 76.5,35.1 76.5,35.3 76.5,35.3 76.6,35.3 76.7,35.3 76.8,35.2 76.9,35.3 76.9,35.4 77.2,35.7 77.2,35.8 
		77.2,35.9 77.3,36 77.4,36.1 77.7,36.2 77.7,36.3 77.9,36.4 78,36.5 78.1,36.5 78.2,36.5 78.3,36.6 78.4,36.5 78.6,36.5 78.6,36.5 
		78.7,36.5 78.8,36.6 78.9,36.7 78.9,36.7 79,36.7 79.2,36.9 79.4,37.1 79.6,37.1 79.6,37.2 79.9,37.2 80.2,37.3 80.3,37.4 
		80.2,37.4 80.1,37.5 80,37.5 80,37.5 79.9,37.5 79.8,37.5 79.7,37.5 79.6,37.6 79.5,37.6 79.2,37.4 79.1,37.4 79.1,37.4 79,37.4 
		78.9,37.4 78.8,37.4 78.7,37.4 78.7,37.4 78.7,37.5 78.7,37.6 78.7,37.6 78.8,37.7 78.8,37.7 78.9,37.7 78.9,37.7 79,37.7 
		79.1,37.8 79.1,37.8 79.2,37.9 79.3,37.9 79.4,38 79.5,38.5 79.6,38.7 79.7,38.9 79.8,38.9 79.8,39 79.9,39 79.9,39 80,39 80,39 
		80.2,39.1 80.2,39.2 80.2,39.2 80.2,39.2 80.3,39.2 80.3,39.2 80.3,39.2 80.4,39.3 80.4,39.4 80.4,39.6 80.4,39.6 80.4,39.6 
		80.4,39.7 80.4,39.7 80.3,39.8 80.3,39.8 80.3,39.8 80.3,39.7 80.2,39.7 80.3,39.7 80.2,39.7 80.2,39.6 80.2,39.7 80.2,39.7 
		80.1,39.7 80,39.6 79.9,39.6 79.9,39.6 79.8,39.6 79.8,39.5 79.8,39.5 79.8,39.5 79.7,39.4 79.7,39.4 79.7,39.4 79.6,39.4 
		79.6,39.4 79.5,39.3 79.3,39.3 79.3,39.4 79.2,39.4 79.1,39.3 79,39.3 79,39.2 79,39.2 79,39.2 79,39.1 79,39.1 79,39.1 78.9,39.1 
		78.9,39.1 78.9,39.1 78.9,39.1 78.8,39 78.8,39 78.7,39 78.6,38.9 78.6,38.9 78.6,38.9 78.5,38.9 78.5,39 78.4,39 78.3,38.9 
		78.3,38.9 78.3,38.8 78.3,38.8 78.2,38.8 78.2,38.8 78.1,38.8 78.1,38.8 78,38.8 77.9,38.8 77.9,38.8 77.8,38.8 77.8,38.8 
		77.8,38.8 77.7,38.8 77.6,38.7 77.6,38.7 77.4,38.7 77.3,38.7 77.3,38.8 77.3,38.8 77.3,38.9 77.3,39.3 77.3,39.3 77.4,39.3 
		77.4,39.4 77.4,39.4 77.3,39.4 77.3,39.4 77.2,39.4 77.1,39.4 77,39.3 76.8,39.2 76.7,39.1 76.7,39.1 76.7,39 76.6,38.9 76.6,38.9 
		76.6,38.9 76.2,38.8 75.8,38.9 75.8,38.9 75.7,38.9 75.5,39 75.5,39 75.3,39.1 75.2,39.2 75.2,39.1 75.1,39.1 75.1,39 74.9,39 
		74.8,39 74.6,38.8 74.5,38.7 74.4,38.7 74.3,38.8 74.2,38.7 74.2,38.7 74.2,38.6 73.9,38.5 73.9,38.4 73.8,38.4 73.8,38.3 
		73.8,38.3 73.7,38.2 73.6,38.1 73.6,38.1 73.6,38 73.6,38 73.6,38 73.5,37.9 73,37.3 73,37.3 72.9,37.2 72.9,37.2 72.8,37.2 
		72.7,37.2 72.6,37.2 72.6,37.2 72.5,37.3 72.4,37.3 72.4,37.3 72.2,37.3 72,37.3 71.9,37.2 71.8,37.3 71.8,37.3 71.7,37.3 
		71.7,37.3 71.6,37.2 71.4,37.1 71.4,37.1 71.3,37.1 71.2,37.1 71.1,37.3 71.1,37.3 71,37.4 71,37.5 71,37.5 70.9,37.5 70.9,37.5 
		70.8,37.5 70.6,37.5 70.6,37.4 70.6,37.4 70.6,37.4 70.6,37.3 70.6,37.3 70.6,37.3 70.6,37.3 70.6,37.2 70.6,37.2 70.6,37.2 
		70.6,37.2 70.6,37.1 70.6,37.1 70.6,37.1 70.5,37.1 70.5,37 70.5,37 70.5,37 70.4,37 70.4,37 70.4,37.1 70.3,37.1 70.3,37.1 
		70.3,37.1 70.3,37.1 70.2,37.1 70.2,37.2 70.1,37.2 70,37.3 70,37.3 69.9,37.3 69.9,37.3 69.8,37.3 69.7,37.2 69.3,37.2 69.2,37.2 
		69.1,37.2 69.1,37.1 69.1,36.9 69.1,36.9 69.1,36.9 69.1,36.9 69.1,36.9 69.1,36.9 69.1,36.8 69.1,36.8 69.1,36.8 69.1,36.8 
		69.1,36.8 69,36.8 68.8,36.7 68.8,36.7 68.8,36.7 68.8,36.7 68.8,36.7 68.8,36.6 68.7,36.6 68.7,36.6 68.7,36.5 68.6,36.5 
		68.6,36.5 68.6,36.5 68.6,36.5 68.5,36.5 68.4,36.4 68.4,36.4 68.4,36.4 68.4,36.4 68.4,36.4 68.3,36.4 68.3,36.4 68.2,36.4 
		68.2,36.4 68.2,36.4 68.2,36.3 68.2,36.3 68.3,36.2 68.5,36 68.6,35.9 68.6,35.9 68.6,35.9 68.6,35.9 68.6,35.9 68.7,35.9 
		68.7,35.8 68.8,35.7 68.8,35.7 68.8,35.7 68.8,35.7 68.8,35.6 68.8,35.6 68.8,35.6 68.8,35.6 68.8,35.6 68.8,35.6 68.8,35.6 
		68.8,35.6 68.8,35.6 68.8,35.6 68.8,35.5 68.9,35.3 69,35.2 69,35.2 69,35.1 69,35.1 69,35 69.1,34.9 69.1,34.9 69.4,34.5 
		69.4,34.4 69.6,34.3 69.6,34.3 69.7,34.3 69.7,34.2 69.7,34.2 69.6,34.2 69.6,34.2 69.6,34.1 69.6,34.1 69.6,34.1 69.6,34 69.6,34 
		69.6,34 69.6,34 69.6,34 69.7,34 69.7,34 69.8,34 69.9,34 69.9,34 70,34.1 70.1,34.1 70.3,33.9 70.3,33.9 70.3,33.9 70.5,34 
		70.5,34.2 70.6,34.6 70.6,34.8 70.6,34.9 70.7,35 70.8,35.1 70.9,35.2 71.4,35.3 71.5,35.3 71.6,35.4 	"/>
	
		<polygon id="Santa_Elena" fill-rule="evenodd" clip-rule="evenodd" fill="#D96CAA" stroke="#F9F9FA" stroke-width="0.25" stroke-linecap="round" stroke-linejoin="round" points="
		56.8,45.1 56.9,45.3 57,45.5 57.2,45.7 57.6,45.8 57.8,45.9 58,46.1 58.2,46.3 58.2,46.7 58.1,47.2 57.9,47.5 57.7,47.6 57.3,47.7 
		57,47.9 56.7,48.2 56.6,48 56.2,47.7 56,47.7 55.9,47.6 55.8,47.6 55.5,47.5 55.5,47.5 55.3,47.3 55.2,47.3 55.1,47.3 55,47.3 
		55,47.2 55,47.1 54.9,47 54.9,46.9 54.8,46.8 54.6,46.7 54.6,46.7 54.6,46.6 54.6,46.6 54.6,46.6 54.6,46.6 54.7,46.6 54.7,46.6 
		54.7,46.6 54.8,46.7 54.9,46.7 54.9,46.7 54.9,46.7 55,46.8 55.1,46.8 55.2,46.7 55.5,46.6 55.6,46.5 55.8,46.3 55.8,46 55.8,45.9 
		55.7,45.8 55.7,45.7 55.7,45.7 55.8,45.7 55.9,45.6 55.9,45.5 55.9,45.4 55.7,44.9 55.7,44.7 55.6,44.7 55.6,44.6 55.5,44.5 
		55.5,44.5 55.5,44.4 55.5,44.4 55.6,44.4 55.7,44.4 55.7,44.4 55.8,44.4 56.1,44.4 56.2,44.3 56.3,44.3 56.4,44.3 56.5,44.3 
		56.6,44.3 56.6,44.4 56.6,44.4 56.6,44.5 56.6,44.5 56.7,44.5 56.7,44.6 56.7,44.6 56.7,44.7 56.7,44.8 56.6,44.9 56.6,44.9 
		56.6,44.9 56.6,45 56.6,45 56.7,45.1 56.7,45.1 	"/>
	
		<polygon id="Santo_Domingo_de_los_Tsáchilas" fill-rule="evenodd" clip-rule="evenodd" fill="#D96CAA" stroke="#F9F9FA" stroke-width="0.25" stroke-linecap="round" stroke-linejoin="round" points="
		63.2,37.2 64,37.2 64.1,37.4 64.5,37.6 64.8,37.8 64.7,38.2 64.1,38.2 64,38.4 63.9,38.4 63.9,38.4 63.9,38.5 63.9,38.5 63.8,38.5 
		63.8,38.5 63.8,38.5 63.8,38.5 63.8,38.6 63.8,38.6 63.8,38.6 63.7,38.7 63.7,38.7 63.6,38.7 63.6,38.7 63.6,38.8 63.6,38.8 
		63.5,38.9 63.5,39 63.5,39 63.5,39 63.5,39 63.5,39.1 63.6,39.1 63.6,39.1 63.6,39.2 63.6,39.2 63.7,39.2 63.7,39.3 63.6,39.3 
		63.6,39.3 63.6,39.3 63.5,39.3 63.5,39.3 63.5,39.4 63.5,39.4 63.4,39.5 63.4,39.5 63.4,39.5 63.3,39.5 63.3,39.5 63.3,39.5 
		63.2,39.3 63.1,39.3 63.1,39.3 63,39.4 62.7,39.7 62.6,39.7 62.5,39.8 62.5,39.8 62.4,39.9 62.4,39.9 62.3,40 62.3,40 62.2,40 
		62.1,40 62.1,40 62,39.9 62,39.9 62,39.9 62,39.8 62,39.8 62,39.7 62.1,39.7 62,39.6 62,39.5 62,39.5 62,39.4 62.1,39.4 62.1,39.4 
		62,39.3 61.9,39.3 61.7,39.3 61.6,39.3 61.5,39.3 61.5,39.2 61.6,39.1 61.6,39 61.6,38.9 61.7,38.7 61.8,38.7 61.8,38.6 61.8,37.8 
		61.8,37.7 61.7,37.7 61.7,37.7 61.7,37.7 61.6,37.7 61.6,37.7 61.4,37.6 61.4,37.6 61.3,37.5 61.2,37.4 61.1,37.3 61.1,37.3 
		61,37.3 61,37.2 61,37.2 60.9,37.2 60.9,37.1 60.9,37.1 60.9,37 60.9,37 60.9,36.9 61,36.9 61.1,37 61.4,37 61.5,37 61.6,37 
		61.6,37.1 61.7,37.1 61.7,37.1 61.7,37.1 61.7,37.1 61.7,37.1 61.7,37 61.7,37 61.7,37 61.7,37 61.7,37 61.7,37 61.6,37 61.6,36.9 
		61.6,36.9 61.6,36.9 61.7,36.9 61.7,36.8 61.8,36.8 61.9,36.8 62,36.7 62,36.7 62.2,36.8 63.1,36.9 	"/>
	
		<polygon id="Pichincha" fill-rule="evenodd" clip-rule="evenodd" fill="#D96CAA" stroke="#F9F9FA" stroke-width="0.25" stroke-linecap="round" stroke-linejoin="round" points="
		62.8,35.5 63,35.5 63.4,35.6 63.5,35.6 63.5,35.6 63.6,35.7 63.6,35.9 63.7,35.9 63.8,35.9 63.8,35.9 63.9,35.9 64,35.9 64,35.9 
		64.2,35.8 64.6,35.8 64.7,35.8 65.2,35.9 65.3,35.9 65.3,35.9 65.4,35.9 65.6,35.9 65.7,35.8 65.8,35.8 66,35.8 66.2,35.8 
		66.4,35.8 66.4,35.8 66.5,35.9 66.5,35.9 66.5,36 66.5,36 66.5,36.1 66.4,36.1 66.5,36.1 66.5,36.1 66.6,36 66.6,36 66.7,36 
		66.7,36.1 66.8,36.2 66.9,36.2 67,36.2 67.1,36.3 67.2,36.3 67.3,36.2 67.5,36.2 67.6,36.1 67.7,36 67.7,36 67.8,36 68.3,36.2 
		68.2,36.3 68.2,36.3 68.2,36.4 68.2,36.4 68.2,36.4 68.3,36.4 68.3,36.4 68.4,36.4 68.4,36.4 68.4,36.4 68.4,36.4 68.4,36.4 
		68.5,36.5 68.6,36.5 68.6,36.5 68.6,36.5 68.6,36.5 68.7,36.5 68.7,36.6 68.7,36.6 68.8,36.6 68.8,36.7 68.8,36.7 68.8,36.7 
		68.8,36.7 68.8,36.7 68.8,36.8 68.7,36.9 68.4,37 68.3,37.1 68.2,37.1 68.2,37.2 68.2,37.3 68.2,37.3 68.2,37.3 68.1,37.4 
		68.1,37.4 68.1,37.5 68,37.5 68,37.5 67.9,37.5 67.9,37.5 67.8,37.5 67.8,37.5 67.8,37.6 67.8,37.6 67.7,37.7 67.7,37.7 67.6,37.7 
		67.6,37.7 67.6,37.6 67.5,37.6 67.5,37.6 67.4,37.7 67.3,37.7 67.3,37.7 67.3,37.7 67.3,37.8 67.3,37.8 67.3,38.2 67.2,38.3 
		67.2,38.4 67,38.6 67,38.7 67,38.7 67,38.9 67,38.9 67,39 67,39.1 66.9,39.1 66.9,39.2 66.9,39.2 66.9,39.3 66.9,39.3 66.8,39.4 
		66.7,39.5 66.7,39.6 66.7,39.6 66.7,39.7 66.6,39.8 66.6,39.8 66.6,39.9 66.5,39.9 66.4,39.9 66.3,39.9 66,39.6 65.9,39.6 
		65.8,39.6 65.7,39.6 65.7,39.6 65.6,39.6 65.5,39.6 65.5,39.7 65.4,39.6 65.4,39.6 65.4,39.6 65.3,39.6 65.3,39.6 65.2,39.7 
		65.2,39.7 65.2,39.7 65.1,39.7 65.1,39.7 65,39.8 64.9,39.8 64.9,39.8 64.9,39.8 64.8,39.7 64.8,39.6 64.8,39.5 64.7,39.4 
		64.4,39.2 64.4,39.2 64.4,39.1 64.3,39 64.3,39 64.3,38.9 64.2,38.8 64,38.6 64,38.5 64,38.5 64,38.5 64,38.4 64.1,38.2 64.7,38.2 
		64.8,37.8 64.5,37.6 64.1,37.4 64,37.2 63.2,37.2 63.1,36.9 62.2,36.8 62,36.7 62.1,36.4 62.1,36.3 62.2,36.2 62.2,36.1 62.3,36.1 
		62.3,36.1 62.2,36 62.2,36 62.2,36 62.1,35.9 62,35.9 62,35.8 62.1,35.8 62.1,35.8 62.2,35.7 62.3,35.7 62.3,35.6 62.4,35.6 
		62.4,35.6 62.5,35.5 62.6,35.5 62.7,35.5 62.7,35.4 	"/>
	
		<polygon id="Pastaza" fill-rule="evenodd" clip-rule="evenodd" fill="#D96CAA" stroke="#F9F9FA" stroke-width="0.25" stroke-linecap="round" stroke-linejoin="round" points="
		73.2,42.1 73.2,42.1 73.3,42 73.3,42 73.3,41.9 73.3,41.9 73.3,41.8 73.4,41.8 73.4,41.7 73.5,41.8 73.5,41.8 73.6,41.8 73.6,41.8 
		73.7,41.8 73.7,41.8 73.8,41.7 73.9,41.7 74,41.7 74.1,41.7 74.1,41.7 74.1,41.7 74.2,41.6 74.2,41.6 74.3,41.6 74.4,41.6 
		74.5,41.6 74.5,41.6 74.6,41.6 74.7,41.6 74.7,41.7 74.7,41.7 74.7,41.8 74.7,41.9 74.7,42 74.7,42.1 74.8,42.2 74.8,42.2 
		74.8,42.3 74.8,42.3 74.9,42.3 74.9,42.4 74.9,42.4 74.9,42.4 74.9,42.4 75,42.5 75,42.5 75,42.5 75,42.5 75,42.5 75,42.5 75,42.5 
		75,42.5 75.1,42.5 75.1,42.5 75.2,42.5 75.2,42.5 75.2,42.5 75.3,42.5 75.3,42.5 75.3,42.5 75.3,42.5 75.4,42.5 75.4,42.5 
		75.4,42.5 75.4,42.6 75.5,42.6 75.5,42.6 75.5,42.6 75.4,42.6 75.5,42.6 75.5,42.6 75.6,42.7 75.7,42.7 75.8,42.7 75.8,42.7 
		75.8,42.7 75.8,42.8 75.8,42.7 75.8,42.7 75.8,42.7 75.9,42.7 75.9,42.7 75.9,42.7 75.9,42.7 75.9,42.7 75.9,42.7 75.9,42.6 
		76,42.6 76,42.6 76,42.6 76,42.7 76,42.7 76,42.7 76.1,42.6 76.1,42.6 76.1,42.6 76.1,42.7 76.2,42.6 76.2,42.6 76.3,42.7 
		76.3,42.7 76.3,42.7 76.3,42.7 76.4,42.7 76.4,42.7 76.4,42.7 76.4,42.6 76.4,42.6 76.5,42.6 76.5,42.6 76.5,42.6 76.5,42.6 
		76.5,42.6 76.5,42.6 76.5,42.6 76.5,42.6 76.6,42.6 76.7,42.6 76.7,42.6 76.7,42.6 76.7,42.6 76.8,42.6 76.8,42.6 76.8,42.6 
		76.8,42.6 76.8,42.7 76.8,42.7 76.8,42.7 76.8,42.7 76.8,42.7 76.8,42.7 76.9,42.7 76.9,42.7 77,42.7 77,42.7 77.1,42.8 77.1,42.8 
		77.1,42.8 77.2,42.8 77.2,42.8 77.2,42.9 77.3,42.9 77.3,42.9 77.4,42.9 77.5,42.9 77.5,42.9 77.5,42.9 77.5,42.9 77.5,42.9 
		77.5,42.8 77.5,42.8 77.6,42.8 77.6,42.8 77.6,42.8 77.6,42.8 77.6,42.9 77.6,42.9 77.6,42.9 77.7,42.9 77.7,43 77.8,43 77.8,43.1 
		77.8,43.1 77.8,43.1 77.8,43.1 77.9,43.1 77.9,43.1 77.9,43.1 77.9,43.1 78,43.1 78,43.1 78,43.1 78.1,43.2 78.2,43.2 78.2,43.2 
		78.2,43.2 78.2,43.2 78.2,43.3 78.3,43.4 78.3,43.4 78.3,43.4 78.3,43.4 78.4,43.4 78.4,43.4 78.4,43.4 78.4,43.4 78.4,43.4 
		78.4,43.4 78.5,43.4 78.6,43.5 78.6,43.5 78.7,43.5 78.7,43.5 78.7,43.5 78.8,43.6 78.8,43.6 78.8,43.6 78.9,43.6 78.9,43.7 
		78.9,43.8 78.9,43.8 78.9,43.9 78.6,44.1 78.4,44.3 78.2,44.6 78,44.9 77.8,45.1 77.5,45.4 77.3,45.6 77.1,45.9 76.9,46.2 
		76.6,46.4 76.4,46.6 76.1,46.8 75.8,47 75.6,47.2 75.3,47.4 75,47.6 74.8,47.8 74.5,48.1 74.3,48.2 74.1,48.4 74,48.4 74,48.4 
		73.9,48.4 73.8,48.4 73.6,48.3 73.5,48.3 73.4,48.3 73.3,48.2 73.3,48.2 73.1,48.3 72.9,48.3 72.8,48.2 72.6,48.1 72.5,48 
		72.4,47.8 72.4,47.8 72.4,47.8 72.4,47.7 72.4,47.7 72.3,47.6 72.2,47.5 72.1,47.3 72,47.2 72,47.2 71.9,47.2 70.9,46.5 69.6,46 
		69.5,46 69.4,45.9 69.3,45.9 69.3,45.8 69.3,45.7 69.3,45.7 69.2,45.6 69.1,45.6 68.9,45.5 68.9,45.5 68.8,45.4 68.8,45.4 
		68.8,45.2 68.8,45.2 68.7,45.1 68.7,45 68.7,44.9 68.7,44.9 68.6,44.7 68.5,44.4 68.5,44.4 68.4,44.3 68.3,44.3 68.1,44.3 
		68.1,44.4 68,44.3 68,44.2 67.9,44 67.8,43.7 67.7,43.6 67.7,43.6 67.6,43.5 67.5,43.4 67.3,43.4 67.4,43.3 67.5,43 67.6,43 
		67.6,42.9 67.6,42.4 67.8,42.4 67.9,42.4 68.2,42.4 68.4,42.4 68.4,42.4 68.5,42.4 68.5,42.4 68.6,42.4 68.6,42.4 68.6,42.3 
		68.6,42.3 68.6,42.3 68.7,42.3 68.7,42.4 68.8,42.4 68.8,42.4 69,42.3 69.1,42.2 69.2,42.2 69.3,42.1 69.3,42.1 69.4,42.1 69.5,42 
		69.5,42 69.6,42 69.6,42 69.7,42 69.7,42 69.8,42 69.8,42 69.9,42 70.1,42 70.5,41.8 70.6,41.7 70.6,41.7 70.8,41.7 70.9,41.7 
		71.3,41.6 71.4,41.5 71.5,41.5 71.5,41.5 71.6,41.5 72.3,41.4 72.3,41.5 72.2,41.5 72.2,41.6 72.3,41.6 72.3,41.7 72.3,41.8 
		72.4,41.8 72.7,41.9 	"/>
	
		<polygon id="Orellana" fill-rule="evenodd" clip-rule="evenodd" fill="#D96CAA" stroke="#F9F9FA" stroke-width="0.25" stroke-linecap="round" stroke-linejoin="round" points="
		71.7,37.3 71.8,37.3 71.8,37.3 71.9,37.2 72,37.3 72.2,37.3 72.4,37.3 72.4,37.3 72.5,37.3 72.6,37.2 72.6,37.2 72.7,37.2 
		72.8,37.2 72.9,37.2 72.9,37.2 73,37.3 73,37.3 73.5,37.9 73.6,38 73.6,38 73.6,38 73.6,38.1 73.6,38.1 73.7,38.2 73.8,38.3 
		73.8,38.3 73.8,38.4 73.9,38.4 73.9,38.5 74.2,38.6 74.2,38.7 74.2,38.7 74.3,38.8 74.4,38.7 74.5,38.7 74.6,38.8 74.8,39 74.9,39 
		75.1,39 75.1,39.1 75.2,39.1 75.2,39.2 75.3,39.1 75.5,39 75.5,39 75.7,38.9 75.8,38.9 75.8,38.9 76.2,38.8 76.6,38.9 76.6,38.9 
		76.6,38.9 76.7,39 76.7,39.1 76.7,39.1 76.8,39.2 77,39.3 77.1,39.4 77.2,39.4 77.3,39.4 77.3,39.4 77.4,39.4 77.4,39.4 77.4,39.3 
		77.3,39.3 77.3,39.3 77.3,38.9 77.3,38.8 77.3,38.8 77.3,38.7 77.4,38.7 77.6,38.7 77.6,38.7 77.7,38.8 77.8,38.8 77.8,38.8 
		77.8,38.8 77.9,38.8 77.9,38.8 78,38.8 78.1,38.8 78.1,38.8 78.2,38.8 78.2,38.8 78.3,38.8 78.3,38.8 78.3,38.9 78.3,38.9 78.4,39 
		78.5,39 78.5,38.9 78.6,38.9 78.6,38.9 78.6,38.9 78.7,39 78.8,39 78.8,39 78.9,39.1 78.9,39.1 78.9,39.1 78.9,39.1 79,39.1 
		79,39.1 79,39.1 79,39.2 79,39.2 79,39.2 79,39.3 79.1,39.3 79.2,39.4 79.3,39.4 79.3,39.3 79.5,39.3 79.6,39.4 79.6,39.4 
		79.7,39.4 79.7,39.4 79.7,39.4 79.8,39.5 79.8,39.5 79.8,39.5 79.8,39.6 79.9,39.6 79.9,39.6 80,39.6 80.1,39.7 80.2,39.7 
		80.2,39.7 80.2,39.6 80.2,39.7 80.3,39.7 80.2,39.7 80.3,39.7 80.3,39.8 80.3,39.8 80.3,39.8 80.3,39.8 80.3,39.8 80.2,39.8 
		80.2,39.9 80.2,39.9 80.2,40 80.2,40 80.2,40.1 80.2,40.2 80.2,40.2 80.4,40.9 80.4,40.9 80.4,41 80.4,41.1 80.4,41.1 80.5,41.1 
		80.5,41.2 80.5,41.2 80.5,41.2 80.3,41.2 80.1,41.2 80,41.2 79.9,41.2 79.9,41.2 79.8,41.1 79.7,41 79.7,41 79.6,41.2 79.5,41.8 
		79.4,42.3 79.2,42.8 79.1,43.3 79,43.6 79,43.8 78.9,43.8 78.9,43.8 78.9,43.7 78.9,43.6 78.8,43.6 78.8,43.6 78.8,43.6 78.7,43.5 
		78.7,43.5 78.7,43.5 78.6,43.5 78.6,43.5 78.5,43.4 78.4,43.4 78.4,43.4 78.4,43.4 78.4,43.4 78.4,43.4 78.4,43.4 78.3,43.4 
		78.3,43.4 78.3,43.4 78.3,43.4 78.2,43.3 78.2,43.2 78.2,43.2 78.2,43.2 78.2,43.2 78.1,43.2 78,43.1 78,43.1 78,43.1 77.9,43.1 
		77.9,43.1 77.9,43.1 77.9,43.1 77.8,43.1 77.8,43.1 77.8,43.1 77.8,43.1 77.8,43 77.7,43 77.7,42.9 77.6,42.9 77.6,42.9 77.6,42.9 
		77.6,42.8 77.6,42.8 77.6,42.8 77.6,42.8 77.5,42.8 77.5,42.8 77.5,42.9 77.5,42.9 77.5,42.9 77.5,42.9 77.5,42.9 77.4,42.9 
		77.3,42.9 77.3,42.9 77.2,42.9 77.2,42.8 77.2,42.8 77.1,42.8 77.1,42.8 77.1,42.8 77,42.7 77,42.7 76.9,42.7 76.9,42.7 76.8,42.7 
		76.8,42.7 76.8,42.7 76.8,42.7 76.8,42.7 76.8,42.7 76.8,42.6 76.8,42.6 76.8,42.6 76.8,42.6 76.7,42.6 76.7,42.6 76.7,42.6 
		76.7,42.6 76.6,42.6 76.5,42.6 76.5,42.6 76.5,42.6 76.5,42.6 76.5,42.6 76.5,42.6 76.5,42.6 76.5,42.6 76.4,42.6 76.4,42.6 
		76.4,42.7 76.4,42.7 76.4,42.7 76.3,42.7 76.3,42.7 76.3,42.7 76.3,42.7 76.2,42.6 76.2,42.6 76.1,42.7 76.1,42.6 76.1,42.6 
		76.1,42.6 76,42.7 76,42.7 76,42.7 76,42.6 76,42.6 76,42.6 75.9,42.6 75.9,42.7 75.9,42.7 75.9,42.7 75.9,42.7 75.9,42.7 
		75.9,42.7 75.8,42.7 75.8,42.7 75.8,42.7 75.8,42.8 75.8,42.7 75.8,42.7 75.8,42.7 75.7,42.7 75.6,42.7 75.5,42.6 75.5,42.6 
		75.4,42.6 75.5,42.6 75.5,42.6 75.5,42.6 75.4,42.6 75.4,42.5 75.4,42.5 75.4,42.5 75.3,42.5 75.3,42.5 75.3,42.5 75.3,42.5 
		75.2,42.5 75.2,42.5 75.2,42.5 75.1,42.5 75.1,42.5 75,42.5 75,42.5 75,42.5 75,42.5 75,42.5 75,42.5 75,42.5 75,42.5 74.9,42.4 
		74.9,42.4 74.9,42.4 74.9,42.4 74.9,42.3 74.8,42.3 74.8,42.3 74.8,42.2 74.8,42.2 74.7,42.1 74.7,42 74.7,41.9 74.7,41.8 
		74.7,41.7 74.7,41.7 74.7,41.6 74.6,41.6 74.5,41.6 74.5,41.6 74.4,41.6 74.3,41.6 74.2,41.6 74.2,41.6 74.1,41.7 74.1,41.7 
		74.1,41.7 74,41.7 73.9,41.7 73.8,41.7 73.7,41.8 73.7,41.8 73.6,41.8 73.6,41.8 73.5,41.8 73.5,41.8 73.4,41.7 73.4,41.8 
		73.3,41.8 73.3,41.9 73.3,41.9 73.3,42 73.3,42 73.2,42.1 73.2,42.1 72.7,41.9 72.4,41.8 72.3,41.8 72.3,41.7 72.3,41.6 72.2,41.6 
		72.2,41.5 72.3,41.5 72.3,41.4 72.4,41.3 72.3,41.3 72.3,41.2 72.3,41.2 72.3,41.2 72.4,41.1 72.4,41.1 72.4,41 72.4,41 72.3,41 
		72.1,41 72.1,40.9 71.9,40.8 71.8,40.8 71.8,40.8 71.7,40.7 71.7,40.7 71.7,40.6 71.7,40.5 71.7,40.5 71.8,40.4 72,40.2 72,40.1 
		72.1,40.1 72,40.1 72,40 72,40 71.9,40.1 71.8,40.1 71.6,40.3 71.5,40.5 71.5,40.6 71.4,40.6 71.3,40.7 70.6,41 70.5,41 70.4,41.1 
		70.4,41.1 70.3,41.1 70.2,41.1 70.1,41.1 70,41.1 70,41.1 70,41 70,41 70.1,41 70.1,40.9 70.2,40.6 70.2,40.6 70.2,40.4 70.2,40.4 
		70.2,40.3 70.2,40.2 70.3,40.2 70.3,40.1 70.4,40 70.3,40 70.3,39.9 70.3,39.8 70.3,39.8 70.2,39.7 70.2,39.7 70.1,39.6 70,39.5 
		69.9,39.4 69.9,39.4 69.9,39.4 69.8,39.4 69.8,39.3 69.8,39.3 69.8,39.2 69.9,39.2 70,39.1 70,39.1 70.1,39.1 70,39 70,39 
		70.1,38.9 70.1,38.9 70.2,39 70.4,39.1 70.5,39.1 70.6,39.2 70.7,39.2 70.7,39.2 70.8,39.1 70.8,39.1 70.9,38.9 71,38.8 71,38.8 
		71,38.8 71,38.8 71.1,38.8 71.1,38.8 71.1,38.7 71.1,38.7 71.1,38.6 71.1,38.6 71.3,38.6 71.3,38.5 71.3,38.5 71.4,38.5 71.4,38.4 
		71.4,38.4 71.4,38.3 71.4,38.3 71.4,38.3 71.4,38.2 71.4,38.1 71.4,38.1 71.4,38.1 71.4,38 71.4,38 71.4,38 71.4,37.9 71.3,37.8 
		71.3,37.8 71.2,37.7 71.2,37.7 71.3,37.6 71.3,37.5 71.3,37.5 71.2,37.1 71.3,37.1 71.4,37.1 71.4,37.1 71.6,37.2 71.7,37.3 	"/>
	
		<polygon id="Napo" fill-rule="evenodd" clip-rule="evenodd" fill="#D96CAA" stroke="#F9F9FA" stroke-width="0.25" stroke-linecap="round" stroke-linejoin="round" points="
		69.9,37.3 70,37.3 70,37.3 70.1,37.2 70.2,37.2 70.2,37.1 70.3,37.1 70.3,37.1 70.3,37.1 70.3,37.1 70.4,37.1 70.4,37 70.4,37 
		70.5,37 70.5,37 70.5,37 70.5,37.1 70.6,37.1 70.6,37.1 70.6,37.1 70.6,37.2 70.6,37.2 70.6,37.2 70.6,37.2 70.6,37.3 70.6,37.3 
		70.6,37.3 70.6,37.3 70.6,37.4 70.6,37.4 70.6,37.4 70.6,37.5 70.8,37.5 70.9,37.5 70.9,37.5 71,37.5 71,37.5 71,37.4 71.1,37.3 
		71.1,37.3 71.2,37.1 71.3,37.5 71.3,37.5 71.3,37.6 71.2,37.7 71.2,37.7 71.3,37.8 71.3,37.8 71.4,37.9 71.4,38 71.4,38 71.4,38 
		71.4,38.1 71.4,38.1 71.4,38.1 71.4,38.2 71.4,38.3 71.4,38.3 71.4,38.3 71.4,38.4 71.4,38.4 71.4,38.5 71.3,38.5 71.3,38.5 
		71.3,38.6 71.1,38.6 71.1,38.6 71.1,38.7 71.1,38.7 71.1,38.8 71.1,38.8 71,38.8 71,38.8 71,38.8 71,38.8 70.9,38.9 70.8,39.1 
		70.8,39.1 70.7,39.2 70.7,39.2 70.6,39.2 70.5,39.1 70.4,39.1 70.2,39 70.1,38.9 70.1,38.9 70,39 70,39 70.1,39.1 70,39.1 70,39.1 
		69.9,39.2 69.8,39.2 69.8,39.3 69.8,39.3 69.8,39.4 69.9,39.4 69.9,39.4 69.9,39.4 70,39.5 70.1,39.6 70.2,39.7 70.2,39.7 
		70.3,39.8 70.3,39.8 70.3,39.9 70.3,40 70.4,40 70.3,40.1 70.3,40.2 70.2,40.2 70.2,40.3 70.2,40.4 70.2,40.4 70.2,40.6 70.2,40.6 
		70.1,40.9 70.1,41 70,41 70,41 70,41.1 70,41.1 70.1,41.1 70.2,41.1 70.3,41.1 70.4,41.1 70.4,41.1 70.5,41 70.6,41 71.3,40.7 
		71.4,40.6 71.5,40.6 71.5,40.5 71.6,40.3 71.8,40.1 71.9,40.1 72,40 72,40 72,40.1 72.1,40.1 72,40.1 72,40.2 71.8,40.4 71.7,40.5 
		71.7,40.5 71.7,40.6 71.7,40.7 71.7,40.7 71.8,40.8 71.8,40.8 71.9,40.8 72.1,40.9 72.1,41 72.3,41 72.4,41 72.4,41 72.4,41.1 
		72.4,41.1 72.3,41.2 72.3,41.2 72.3,41.2 72.3,41.3 72.4,41.3 72.3,41.4 71.6,41.5 71.5,41.5 71.5,41.5 71.4,41.5 71.3,41.6 
		70.9,41.7 70.8,41.7 70.6,41.7 70.6,41.7 70.5,41.8 70.1,42 69.9,42 69.8,42 69.8,42 69.7,42 69.7,42 69.6,42 69.6,42 69.5,42 
		69.5,42 69.4,42.1 69.3,42.1 69.3,42.1 69.2,42.2 69.1,42.2 69,42.3 68.8,42.4 68.8,42.4 68.7,42.4 68.7,42.3 68.6,42.3 68.6,42.3 
		68.6,42.3 68.6,42.4 68.6,42.4 68.5,42.4 68.5,42.4 68.4,42.4 68.4,42.4 68.2,42.4 67.9,42.4 67.8,42.4 67.6,42.4 67.6,42.3 
		67.6,42.3 67.5,42.2 67.4,42.2 67.3,42.2 67.3,42.1 67.2,42.1 67.2,42.1 67.2,42.1 67.1,42.1 67.1,42 67.1,42 67.1,42 67.1,42 
		67,42 66.9,42 66.8,42 66.8,42 66.7,42 66.6,42.1 66.5,42.1 66.5,42.1 66.5,42 66.6,41.9 66.6,41.9 66.6,41.8 66.6,41.6 66.6,41.6 
		66.5,41.5 66.4,41.3 66.3,41.2 66.3,41.2 66.2,41.1 66.1,41.1 66.1,41.1 66.1,41.1 66.2,41 66.2,41 66.2,41 66.2,40.9 66.2,40.9 
		66.2,40.8 66.2,40.8 66.3,40.7 66.3,40.6 66.4,40.5 66.4,40.4 66.3,40.3 66.3,40.1 66.3,40.1 66.3,39.9 66.4,39.9 66.5,39.9 
		66.6,39.9 66.6,39.8 66.6,39.8 66.7,39.7 66.7,39.6 66.7,39.6 66.7,39.5 66.8,39.4 66.9,39.3 66.9,39.3 66.9,39.2 66.9,39.2 
		66.9,39.1 67,39.1 67,39 67,38.9 67,38.9 67,38.7 67,38.7 67,38.6 67.2,38.4 67.2,38.3 67.3,38.2 67.3,37.8 67.3,37.8 67.3,37.7 
		67.3,37.7 67.3,37.7 67.4,37.7 67.5,37.6 67.5,37.6 67.6,37.6 67.6,37.7 67.6,37.7 67.7,37.7 67.7,37.7 67.8,37.6 67.8,37.6 
		67.8,37.5 67.8,37.5 67.9,37.5 67.9,37.5 68,37.5 68,37.5 68.1,37.5 68.1,37.4 68.1,37.4 68.2,37.3 68.2,37.3 68.2,37.3 68.2,37.2 
		68.2,37.1 68.3,37.1 68.4,37 68.7,36.9 68.8,36.8 68.8,36.7 69,36.8 69.1,36.8 69.1,36.8 69.1,36.8 69.1,36.8 69.1,36.8 69.1,36.9 
		69.1,36.9 69.1,36.9 69.1,36.9 69.1,36.9 69.1,36.9 69.1,37.1 69.1,37.2 69.2,37.2 69.3,37.2 69.7,37.2 69.8,37.3 69.9,37.3 	"/>
	
		<polygon id="Morona-Santiago" fill-rule="evenodd" clip-rule="evenodd" fill="#D96CAA" stroke="#F9F9FA" stroke-width="0.25" stroke-linecap="round" stroke-linejoin="round" points="
		68.1,44.4 68.1,44.3 68.3,44.3 68.4,44.3 68.5,44.4 68.5,44.4 68.6,44.7 68.7,44.9 68.7,44.9 68.7,45 68.7,45.1 68.8,45.2 
		68.8,45.2 68.8,45.4 68.8,45.4 68.9,45.5 68.9,45.5 69.1,45.6 69.2,45.6 69.3,45.7 69.3,45.7 69.3,45.8 69.3,45.9 69.4,45.9 
		69.5,46 69.6,46 70.9,46.5 71.9,47.2 72,47.2 72,47.2 72.1,47.3 72.2,47.5 72.3,47.6 72.4,47.7 72.4,47.7 72.4,47.8 72.4,47.8 
		72.4,47.8 72.5,48 72.6,48.1 72.8,48.2 72.9,48.3 73.1,48.3 73.3,48.2 73.3,48.2 73.4,48.3 73.5,48.3 73.6,48.3 73.8,48.4 
		73.9,48.4 74,48.4 74,48.4 74.1,48.4 74,48.4 73.6,48.6 73,48.8 72.4,48.9 71.9,49.1 71.3,49.3 70.8,49.5 70.2,49.7 69.6,49.9 
		69.1,50.1 68.9,50.2 68.8,50.2 68.7,50.3 68.4,50.6 67.9,51.2 67.7,51.4 67.6,51.4 67.5,51.7 67.4,51.8 67.3,51.9 67.2,52 
		67.2,52.1 67.3,52.1 67.3,52.2 67.4,52.2 67.4,52.4 67.4,52.5 67.3,52.5 67.2,52.5 67.1,52.6 67.1,52.6 67,52.5 67,52.2 66.9,52.2 
		66.9,52.1 66.7,52.1 66.6,52 66.5,52.1 66.5,52.2 66.5,52.2 66.5,52.3 66.5,52.3 66.5,52.5 66.4,52.7 66.4,52.7 65.8,52.7 
		65.5,52.8 65.4,52.8 65.3,52.7 65.2,52.7 65.2,52.8 65.1,52.8 65.1,52.8 65.1,52.9 65.1,52.9 65,52.9 65,52.9 64.9,52.9 64.9,52.9 
		64.7,52.8 64.5,52.8 64.4,52.8 64.4,52.8 64.3,52.7 64.3,52.7 64.3,52.7 64.3,52.6 64.3,52.6 64.2,52.6 64.2,52.6 64.2,52.5 
		64.2,52.5 64.2,52.4 64.2,52.3 64.2,52.3 64.2,52.3 64.2,52.2 64.2,52.2 64.3,52.2 64.3,52.2 64.3,52.1 64.3,52.1 64.3,52.1 
		64.3,52 63.9,51.8 63.9,51.7 63.9,51.7 63.9,51.6 64.4,51.2 64.5,51.1 64.7,51 64.9,50.9 65,50.9 65.1,50.7 65.1,50.6 65.1,50.6 
		65.1,50.5 65.1,50.4 65.2,50.4 65.3,50.1 65.3,50.1 65.3,50 65.5,49.7 65.5,49.6 65.5,49.6 65.5,49.5 65.5,49.5 65.5,49.4 
		65.4,49.4 65.4,49.4 65.4,49.3 65.6,49.1 65.6,49 65.6,49 66.1,48.7 66.2,48.7 66.2,48.6 66.2,48.6 66.2,48.6 66.2,48.5 66.1,48.5 
		66,48.4 66,48.4 65.9,48.4 65.9,48.4 65.9,48.4 65.8,48.5 65.8,48.5 65.8,48.6 65.8,48.6 65.7,48.6 65.7,48.6 65.7,48.6 65.6,48.6 
		65.6,48.5 65.6,48.5 65.6,48.4 65.7,48.4 65.7,48.4 65.7,48.4 65.7,48.4 65.7,48.4 65.8,48.3 65.9,48.1 65.9,48.1 65.9,48.1 
		65.9,48 65.9,48 65.9,47.9 65.9,47.6 65.9,47.6 65.9,47.5 65.9,47.5 65.8,47.4 65.6,47.3 65.5,47.3 65.5,47.2 65.7,47.1 65.7,47.1 
		65.7,47 65.7,47 65.7,46.9 65.8,46.9 65.8,46.8 65.9,46.8 65.9,46.8 65.8,46.7 65.8,46.7 65.8,46.5 65.9,46.4 65.9,46.3 66,46.3 
		66,46.3 66.1,46.2 66.1,46.2 66.1,46.1 66,46 66,45.9 66,45.9 66,45.8 66,45.8 65.9,45.8 65.9,45.7 65.9,45.7 65.9,45.6 66,45.4 
		66.2,45.2 66.2,45.2 66.2,45 66.2,44.9 66.2,44.9 66.1,44.9 66.1,44.9 66.1,44.8 66.1,44.7 66.1,44.7 66.1,44.6 66.1,44.5 
		66.1,44.5 66.1,44.5 66.2,44.4 66.2,44.4 66.2,44.3 66.3,44.3 66.3,44.3 66.4,44.2 66.4,44.2 66.5,44.1 66.5,44.1 66.5,44.1 
		66.5,44 66.5,43.9 66.5,43.8 66.5,43.8 66.5,43.7 66.6,43.6 66.6,43.6 66.7,43.5 66.8,43.5 66.9,43.5 67,43.5 67.1,43.5 67.2,43.5 
		67.2,43.4 67.3,43.4 67.5,43.4 67.6,43.5 67.7,43.6 67.7,43.6 67.8,43.7 67.9,44 68,44.2 68,44.3 	"/>
	
		<polygon id="Manabí" fill-rule="evenodd" clip-rule="evenodd" fill="#D96CAA" stroke="#F9F9FA" stroke-width="0.25" stroke-linecap="round" stroke-linejoin="round" points="
		60.6,36.1 60.6,36.1 60.6,36.1 60.6,36.1 60.6,36.1 60.7,36.1 60.7,36.1 60.7,36.1 60.7,36.2 60.7,36.2 60.7,36.2 60.7,36.2 
		60.7,36.2 60.7,36.2 60.8,36.2 60.8,36.2 60.8,36.2 60.8,36.2 60.9,36.2 61,36.3 61,36.3 61,36.3 61,36.3 61.1,36.3 61.1,36.4 
		61.1,36.4 61.1,36.4 61,36.5 60.9,36.5 60.9,36.5 60.9,36.6 60.9,36.6 60.9,36.6 60.9,36.6 60.9,36.6 60.9,36.6 60.9,36.6 
		60.9,36.6 60.9,36.6 60.9,36.6 60.9,36.7 60.8,36.7 60.8,36.7 60.8,36.7 60.9,36.7 60.9,36.8 60.9,36.8 60.9,36.8 60.9,36.9 
		60.9,37 60.9,37 60.9,37.1 60.9,37.1 60.9,37.2 61,37.2 61,37.2 61,37.3 61.1,37.3 61.1,37.3 61.2,37.4 61.3,37.5 61.4,37.6 
		61.4,37.6 61.6,37.7 61.6,37.7 61.7,37.7 61.7,37.7 61.7,37.7 61.8,37.7 61.8,37.8 61.8,38.6 61.8,38.7 61.7,38.7 61.6,38.9 
		61.6,39 61.6,39.1 61.5,39.2 61.5,39.3 61.4,39.5 61.4,39.6 61.3,39.8 61.2,40 61.2,40 61.2,40 61.1,40 61.1,40.1 61,40.1 61,40.2 
		60.9,40.5 60.8,40.7 60.5,40.7 60.5,40.8 60.4,40.8 60.4,40.8 60.2,41.1 60.2,41.1 60.2,41.2 60.1,41.2 60.1,41.3 60.1,41.3 
		60,41.3 60.1,41.4 60,41.4 60,41.4 60,41.5 60,41.5 59.9,41.6 59.8,41.7 59.8,41.8 59.6,41.9 59.5,42 59.4,42 59.4,42 59.3,42 
		59.3,42 59.2,42 59.2,42 59.2,41.9 59.3,41.9 59.2,41.9 59.2,41.9 59.2,41.9 59.1,42 59.1,42.1 59.1,42.2 59,42.3 58.9,42.6 
		58.9,42.6 58.7,42.8 58.6,42.8 58.6,42.9 58.5,42.9 58.5,43 58.6,43.1 58.5,43.1 58.5,43.2 58.4,43.2 58.4,43.2 58.3,43.2 
		58.3,43.3 58.3,43.3 58.3,43.3 58.2,43.5 58.2,43.5 58.2,43.6 58.3,43.6 58.3,43.7 58.3,43.7 58.3,43.8 58.1,43.9 57.9,43.9 
		57.9,43.9 57.9,44 57.9,44 58,44.1 58,44.1 58.1,44.1 58.1,44.1 58.1,44.1 58.1,44.2 58.1,44.2 58.1,44.2 58.2,44.4 58.1,44.4 
		58.1,44.4 57.9,44.4 57.8,44.4 57.8,44.5 57.8,44.5 57.8,44.5 57.7,44.4 57.7,44.4 57.7,44.4 57.6,44.5 57.6,44.5 57.6,44.6 
		57.5,44.6 57.4,44.6 57.4,44.7 57.4,44.7 57.3,44.8 57.3,44.8 57.3,44.8 57.2,44.9 57.2,44.9 57.2,45 57.2,45 57.2,45 57.2,45.1 
		57.2,45.1 57.1,45.1 57,45.1 56.8,45.1 56.7,45.1 56.7,45.1 56.6,45 56.6,45 56.6,44.9 56.6,44.9 56.6,44.9 56.7,44.8 56.7,44.7 
		56.7,44.6 56.7,44.6 56.7,44.5 56.6,44.5 56.6,44.5 56.6,44.4 56.6,44.4 56.6,44.3 56.5,44.3 56.4,44.3 56.3,44.3 56.2,44.3 
		56.1,44.4 55.8,44.4 55.7,44.4 55.7,44.4 55.6,44.4 55.5,44.4 55.5,44.4 55.4,44.2 55.3,44.1 55.3,44.1 55.3,44 55.3,43.9 
		55.5,43.8 55.5,43.7 55.5,43.6 55.5,43.6 55.6,43.5 55.6,43.5 55.7,43.5 55.7,43.4 55.7,43.4 55.7,43.3 55.7,43.2 55.7,43.1 
		55.7,43 55.8,43 55.8,42.9 55.7,42.7 55.4,42.4 55.2,42 55.1,41.8 55,41.7 55.1,41.6 55.1,41.5 55.2,41.5 55.2,41.4 55.3,41.3 
		55.3,41.3 55.4,41.2 55.4,41.2 55.4,41.1 55.5,41.1 55.5,41.1 55.6,41.1 55.7,41.1 55.7,41.1 55.8,41.1 55.8,41.1 55.9,41 
		55.9,41.1 56,41.1 56,41.1 56.1,41.1 56.1,41.1 56.2,41 56.2,41 56.3,41.1 56.3,41.1 56.4,41.1 56.5,41.1 56.6,41 56.7,40.9 
		56.7,40.6 56.8,40.5 56.8,40.2 56.9,40 57,39.8 57.1,39.6 57.1,39.6 57.1,39.6 57.2,39.6 57.2,39.6 57.3,39.7 57.3,39.8 57.4,39.8 
		57.6,39.8 57.8,39.8 57.8,39.8 57.7,39.8 57.5,39.7 57.4,39.7 57.4,39.7 57.3,39.6 57.3,39.4 57.2,39.4 57.2,39.4 57.2,39.3 
		57.1,39.1 57.1,39 57,38.9 57,38.8 56.9,38.6 57,38.5 57.1,38.5 57.2,38.4 57.3,38.2 57.4,38.1 57.4,38 57.4,37.9 57.5,37.9 
		57.6,37.8 57.6,37.7 57.7,37.7 57.8,37.7 57.9,37.7 58,37.6 58.1,37.5 58.4,37.2 58.6,36.9 58.7,36.8 58.7,36.8 58.7,36.7 
		58.7,36.7 58.7,36.7 58.8,36.6 58.9,36.5 58.9,36.3 59,36.1 59,36 58.9,35.8 58.9,35.5 59,35.3 59,35.3 59,35.3 59,35.3 59,35.3 
		59.1,35.4 59.1,35.4 59.1,35.4 59.1,35.4 59.1,35.3 59.1,35.3 59.3,35.6 59.3,35.7 59.3,35.7 59.4,35.7 59.4,35.7 59.4,35.7 
		59.5,35.7 59.5,35.7 59.5,35.7 59.5,35.7 59.5,35.6 59.5,35.6 59.6,35.6 59.6,35.6 59.6,35.5 59.6,35.5 59.6,35.5 59.6,35.5 
		59.6,35.4 59.6,35.4 59.7,35.4 59.8,35.5 59.9,35.4 60,35.4 60,35.4 60.1,35.4 60.1,35.4 60.2,35.3 60.2,35.2 60.2,35.2 60.3,35.2 
		60.3,35.2 60.4,35.2 60.4,35.2 60.4,35.2 60.4,35.3 60.5,35.3 60.5,35.3 60.5,35.3 60.5,35.3 60.5,35.3 60.5,35.3 60.5,35.3 
		60.4,35.4 60.4,35.4 60.4,35.4 60.4,35.5 60.4,35.5 60.4,35.5 60.4,35.5 60.4,35.5 60.4,35.5 60.4,35.5 60.7,35.7 60.7,35.7 
		60.7,35.7 60.7,35.7 60.7,35.7 60.7,35.7 60.7,35.8 60.6,35.8 60.6,35.8 60.6,35.8 60.6,35.9 60.6,35.9 60.5,36 60.5,36 60.5,36 
		60.5,36.1 60.5,36.1 60.6,36.1 	"/>
	
		<polygon id="Los_Ríos" fill-rule="evenodd" clip-rule="evenodd" fill="#D96CAA" stroke="#F9F9FA" stroke-width="0.25" stroke-linecap="round" stroke-linejoin="round" points="
		61.7,39.3 61.9,39.3 62,39.3 62.1,39.4 62.1,39.4 62,39.4 62,39.5 62,39.5 62,39.6 62.1,39.7 62,39.7 62,39.8 62,39.8 62,39.9 
		62,39.9 62,39.9 62.1,40 62.1,40 62.2,40 62.3,40 62.3,40 62.4,39.9 62.4,39.9 62.5,39.8 62.5,39.8 62.6,39.7 62.7,39.7 63,39.4 
		63.1,39.3 63.1,39.3 63.2,39.3 63.2,39.5 62.9,40.3 62.8,40.4 62.8,40.4 62.7,40.5 62.7,40.5 62.7,40.5 62.6,40.6 62.5,40.8 
		62.5,40.8 62.4,40.9 62.4,40.9 62.3,41 62.3,41.1 62.2,41.2 62.2,41.3 62.2,41.4 62.2,41.7 62.2,41.8 62.2,41.9 62.2,42 62.3,42.1 
		62.4,42.3 62.1,42.4 62.1,42.5 62,42.6 61.9,42.7 61.9,42.8 61.9,42.8 61.9,42.8 62,42.8 62,42.8 62,42.7 62.1,42.7 62.1,42.7 
		62.1,42.7 62.2,42.8 62.3,42.9 62.3,42.9 62.3,42.9 62.3,42.9 62.2,42.9 62.2,42.9 62.2,42.9 62.2,43 62.2,43 62.2,43.4 62.2,43.5 
		62.2,43.5 62.3,43.6 62.4,43.7 62.5,43.7 62.5,43.8 62.5,43.8 62.5,43.9 62.4,43.9 62.4,44 62.4,44 62.4,44 62.4,44 62.3,44 
		62.3,44 62.2,44.1 62.1,44.1 62.1,44.2 62.1,44.2 62.1,44.2 62.1,44.2 62.1,44.2 62.1,44.3 62.2,44.3 62.2,44.3 62.2,44.3 
		62.2,44.3 62.3,44.3 62.3,44.4 62.4,44.5 62.5,44.7 62.5,44.7 62.5,44.8 62.5,44.8 62.5,44.9 62.5,44.9 62.6,45 62.6,45 62.6,45.1 
		62.5,45.2 62.5,45.5 62.4,45.5 62.4,45.6 62.4,45.6 62.4,45.6 62.5,45.8 62.7,46.1 62.7,46.1 62.7,46.2 62.7,46.2 62.6,46.4 
		62.6,46.5 62.3,46.3 62,45.8 61.9,45.7 61.8,45.6 61.8,45.6 61.7,45.5 61.5,45.4 61.4,45.3 61.3,45.3 61.2,45.3 61,45.4 60.8,45.4 
		60.7,45.4 60.7,45.4 60.6,45.3 60.5,45.1 60.5,44.9 60.4,44.9 60.3,44.7 60.3,44.7 60.3,44.6 60.2,44.5 60.2,44.4 59.8,44.2 
		59.8,44.2 59.8,44.2 59.7,44.1 59.7,44 59.8,44 59.8,43.9 59.7,43.7 59.7,43.7 59.7,43.4 59.7,43.3 59.8,43.1 59.8,43.1 59.9,43 
		60,42.9 60,42.9 60.3,42.4 60.3,42.4 60.3,42.3 60.3,42.2 60.3,42.2 60.3,42.2 60.3,42.2 60.3,42.2 60.4,42.2 60.4,42.1 60.4,42.1 
		60.4,42.1 60.4,42 60.5,42 60.5,42 60.5,42 60.5,42 60.6,42 60.6,42 60.6,41.9 60.6,41.9 60.6,41.9 60.7,41.8 60.7,41.8 60.8,41.8 
		60.8,41.7 60.8,41.7 60.9,41.7 60.9,41.6 60.9,41.6 61,41.6 61,41.6 61,41.5 61.1,41.4 61.1,41.3 61.1,41.3 61.1,41.3 61.2,41.2 
		61.2,41.2 61.2,41.2 61.2,41.1 61.2,41.1 61.2,41.1 61.3,40.9 61.3,40.7 61.3,40.7 61.2,40.6 61.1,40.6 61,40.6 60.8,40.7 
		60.9,40.5 61,40.2 61,40.1 61.1,40.1 61.1,40 61.2,40 61.2,40 61.2,40 61.3,39.8 61.4,39.6 61.4,39.5 61.5,39.3 61.6,39.3 	"/>
	
		<polygon id="Loja" fill-rule="evenodd" clip-rule="evenodd" fill="#D96CAA" stroke="#F9F9FA" stroke-width="0.25" stroke-linecap="round" stroke-linejoin="round" points="
		62,51.9 62.1,51.8 62.1,51.9 62.2,51.9 62.2,51.9 62.3,52 62.3,52 62.3,52.1 62.3,52.2 62.3,52.3 62.4,52.3 62.5,52.4 62.6,52.4 
		62.6,52.4 62.7,52.3 62.8,52.3 62.8,52.3 62.8,52.4 62.9,52.5 63,52.7 63.1,52.8 63.1,52.9 63.1,53.1 63.2,53.2 63.1,53.3 63,53.3 
		63,53.4 63,53.4 63,53.5 63,53.5 62.9,53.5 62.9,53.5 62.9,53.5 62.8,53.5 62.8,53.5 62.8,53.5 62.8,53.5 62.8,53.6 62.7,53.6 
		62.8,53.6 62.8,53.7 62.8,53.8 62.9,53.9 62.9,54 63,54.1 63.1,54.2 63.1,54.2 63.1,54.3 63.1,54.3 63.1,54.4 63,54.5 63,54.6 
		63,54.7 63,54.8 63,55 63,55 62.9,55.3 62.9,55.4 62.9,55.4 62.9,55.5 62.9,55.5 63,55.5 63,55.5 63,55.5 63,55.5 63.1,55.6 
		63.1,55.6 63.1,55.6 63.1,55.7 63.1,55.7 63.2,55.7 63.2,55.8 63.1,55.9 63.2,56 63.1,56.2 63.1,56.3 63.1,56.4 63.1,56.5 
		63.1,56.6 63.1,56.7 63.1,56.7 63,56.8 63,56.8 62.9,56.9 62.9,56.9 62.8,57 62.8,57 62.8,57 62.7,57 62.7,57 62.7,57.1 62.7,57.1 
		62.6,57 62.6,57 62.5,57 62.5,57 62.4,57 62.4,56.9 62.3,56.9 62.3,57 62.3,57 62.3,57.1 62.2,57.1 62.2,57.2 62.2,57.3 62.2,57.4 
		62.2,57.4 62.2,57.5 62.1,57.5 62,57.7 61.9,57.8 61.8,58 61.6,58.3 61.5,58.3 61.5,58.3 61.4,58 61.4,57.8 61.2,57.6 61.3,57.5 
		61.4,57.3 61.4,57.2 61.3,57.2 61.3,57.1 61.1,57.1 61.1,57.1 61.1,57.1 61,57.1 60.8,56.8 60.7,56.8 60.5,56.8 60.4,56.9 60,57 
		59.9,57 59.8,56.8 59.7,56.7 59.6,56.6 59.4,56.6 59.3,56.6 59.2,56.6 59.1,56.5 59,56.4 58.9,56.3 58.8,56.2 58.7,56.2 58.6,56.2 
		58.5,56.1 58.5,56.1 58.5,56.1 58.3,56.1 58.3,56.1 58.2,56.1 58.2,56.2 58.1,56.2 58.1,56.4 58.1,56.5 58,56.5 57.6,56.8 
		57.5,56.9 57.4,56.9 57.4,57 57.3,57 57.2,56.9 57,56.8 57,56.8 56.9,56.7 56.9,56.6 57.5,55.8 57.6,55.7 57.4,55.7 57.2,55.8 
		57,55.8 56.9,55.6 56.9,55.5 57,55.4 57,55.4 56.9,55.3 56.9,55.2 56.8,55.2 56.8,55.1 56.8,55.1 56.9,55 56.9,54.9 57,54.8 
		57,54.8 57.1,54.7 57.2,54.7 57.3,54.7 57.4,54.8 57.6,54.9 57.7,54.9 57.8,54.8 57.8,54.7 57.9,54.6 58,54.6 58.3,54.4 58.4,54.3 
		58.4,54.3 58.5,54.3 58.8,54.3 59.1,54.2 59.3,54.1 59.4,54 59.7,54 59.8,54 59.8,54 59.9,54.1 60,54.1 60.3,54.1 60.4,54 60.5,54 
		60.6,53.9 60.6,53.8 60.8,53.8 60.8,53.7 60.9,53.7 60.9,53.7 60.9,53.7 61,53.8 61,53.8 61.1,53.9 61.1,53.9 61.2,53.9 61.3,53.9 
		61.4,53.9 61.5,53.9 61.5,53.9 61.6,53.9 61.7,53.9 61.8,53.9 61.8,53.8 61.8,53.8 61.8,53.8 61.8,53.7 61.8,53.6 61.8,53.6 
		61.8,53.5 61.9,53.5 61.9,53.4 61.9,53.4 62,53.3 62,53.3 62,53.2 61.9,53.1 61.9,53.1 61.9,53.1 61.8,53 61.8,53 61.7,53 61.7,53 
		61.7,53 61.6,53 61.6,53.1 61.5,53.1 61.5,53.2 61.5,53.2 61.4,53.1 61.4,53.1 61.4,53 61.5,52.8 61.5,52.8 61.5,52.7 61.5,52.6 
		61.5,52.6 61.7,52.4 61.7,52.4 61.7,52.3 61.7,52.3 61.7,52.3 61.7,52.3 61.6,52.3 61.6,52.2 61.6,52.2 61.6,52.2 61.5,52.1 
		61.5,52 61.6,51.8 61.7,51.8 61.8,51.9 	"/>
	
		<polygon id="Imbabura" fill-rule="evenodd" clip-rule="evenodd" fill="#D96CAA" stroke="#F9F9FA" stroke-width="0.25" stroke-linecap="round" stroke-linejoin="round" points="
		68.9,35.3 68.8,35.5 68.8,35.6 68.8,35.6 68.8,35.6 68.8,35.6 68.8,35.6 68.8,35.6 68.8,35.6 68.8,35.6 68.8,35.6 68.8,35.6 
		68.8,35.7 68.8,35.7 68.8,35.7 68.8,35.7 68.7,35.8 68.7,35.9 68.6,35.9 68.6,35.9 68.6,35.9 68.6,35.9 68.6,35.9 68.5,36 
		68.3,36.2 67.8,36 67.7,36 67.7,36 67.6,36.1 67.5,36.2 67.3,36.2 67.2,36.3 67.1,36.3 67,36.2 66.9,36.2 66.8,36.2 66.7,36.1 
		66.7,36 66.6,36 66.6,36 66.5,36.1 66.5,36.1 66.4,36.1 66.5,36.1 66.5,36 66.5,36 66.5,35.9 66.5,35.9 66.4,35.8 66.4,35.8 
		66.2,35.8 66,35.8 65.8,35.8 65.7,35.8 65.6,35.9 65.4,35.9 65.3,35.9 65.3,35.9 65.2,35.9 64.7,35.8 64.6,35.8 64.2,35.8 64,35.9 
		64,35.9 63.9,35.9 63.8,35.9 63.8,35.9 63.7,35.9 63.6,35.9 63.6,35.7 63.6,35.7 63.7,35.7 63.7,35.7 63.7,35.6 63.9,35.4 64,35.3 
		64,35.3 64,35.3 64,35.2 64,35.2 64,35.2 64.1,35.1 64.1,35.1 64.2,35 64.2,35 64.3,35 64.3,35 64.5,35 64.6,35 64.7,35 64.8,35.1 
		64.8,35.1 64.9,35.1 64.9,35.1 64.9,35.1 65,35.2 65,35.2 65.1,35.2 65.1,35.2 65.1,35.2 65.2,35.1 65.3,35.1 65.4,34.9 65.6,34.7 
		65.6,34.6 65.7,34.6 65.8,34.5 65.9,34.4 65.9,34.4 66,34.5 66,34.5 66.1,34.4 66.1,34.4 66.2,34.4 66.2,34.4 66.2,34.3 66.2,34.3 
		66.2,34.2 66,34 66,34 66,33.9 66,33.8 65.9,33.8 65.8,33.5 65.8,33.5 65.8,33.4 65.8,33.4 65.9,33.4 66,33.4 66,33.4 66,33.4 
		66.1,33.3 66.1,33.3 66.1,33.2 66.1,33.1 66.1,33 66.2,33 66.3,33 66.4,33 66.5,33.1 66.5,33.1 66.6,33.2 66.8,33.3 66.9,33.4 
		67,33.5 67.2,33.7 67.3,34 67.4,34.2 67.4,34.3 67.4,34.4 67.4,34.5 67.5,34.5 67.5,34.6 67.7,34.6 67.7,34.7 67.8,34.7 67.9,34.7 
		67.9,34.7 68.1,34.8 68.3,34.9 68.5,35 68.7,35.1 68.7,35.2 68.8,35.3 	"/>
	<path id="Guayas" fill="#D96CAA" stroke="#F9F9FA" stroke-width="0.25" stroke-linecap="round" stroke-linejoin="round" d="
		M59.1,48.8l-0.2,0l-0.1,0L58.5,49L58.3,49l-0.1,0l-0.1,0.2L58,49.5l0,0.1l0,0.5l0,0.2l0,0.1l0.1,0l0.1,0l0.1,0l0.1,0l0.1-0.1l0.2,0
		l0.1-0.1l0-0.1l0.1-0.1l0-0.1l0.1-0.1l0.1,0l0-0.1l0.1-0.1l0.1-0.1l0-0.1l0,0l0,0l0-0.1l0-0.1l0,0l0.1-0.1l0,0l0.2-0.1l0,0l0,0l0,0
		l0,0l0,0l-0.2,0L59.1,48.8z M59.8,48.8l0.1-0.1l0-0.2l0.2-0.1l0.1-0.1l-0.1-0.1l-0.1,0l0-0.1l-0.1,0.2l-0.1,0.2l-0.1,0.2L59.8,48.8
		L59.8,48.8z M63,46.5L63,46.5L63,46.5l-0.1,0l0,0l0,0l-0.1,0l-0.1,0l-0.2,0l-0.2-0.2L62,45.8l-0.1-0.1l-0.1-0.1l-0.1,0l-0.1,0
		l-0.2-0.1l-0.1,0l-0.1,0l-0.1,0L61,45.4l-0.2,0l-0.1,0l0,0l0-0.1l-0.1-0.2l-0.1-0.2l0-0.1l-0.1-0.2l0-0.1l0-0.1l0-0.1l-0.1-0.1
		l-0.4-0.2l0,0l0,0l0-0.1l0-0.1l0-0.1l0,0l-0.1-0.2l0,0l0-0.3l0-0.1l0.1-0.2l0,0l0.1-0.1l0.1-0.1l0,0l0.3-0.5l0,0l0,0l0-0.1l0,0l0,0
		l0,0l0,0l0,0l0,0l0,0l0-0.1l0,0l0,0l0,0l0,0l0,0l0,0l0,0l0-0.1l0,0l0,0l0.1,0l0,0l0-0.1l0-0.1l0,0l0,0l0,0l0,0l0,0l0,0l0,0l0-0.2
		l0,0l0,0l0,0l0,0l0,0l0,0l0,0l0,0l0,0l0.1-0.2l0-0.1l0-0.1l-0.1,0l-0.1,0l-0.2,0l-0.1,0l-0.3,0l-0.1,0l-0.1,0l0,0l-0.2,0.2l0,0
		l0,0.1l0,0l-0.1,0l0,0l0,0l0,0l0,0l0,0l0,0l0,0l-0.1,0.1l-0.1,0.1l-0.1,0.1l-0.2,0.2l-0.1,0l-0.1,0l0,0l0,0l-0.1,0l0,0l0,0l0,0l0,0
		l0,0l0,0l0,0l0,0.1l0,0.1l0,0.1l0,0.1l-0.1,0.2l0,0.1l-0.2,0.1l-0.1,0l0,0l0,0.1l0,0.1l0,0.1l0,0l0,0l-0.1,0l-0.1,0l0,0l0,0l0,0
		l0,0.1l0,0.1l0,0.1l0,0.1l0,0l0.1,0.1l0,0l0,0l-0.2,0.1l-0.3,0l0,0l0,0l0,0.1l0.1,0l0,0l0,0l0,0l0,0l0,0l0,0l0,0l0,0.1l0,0l-0.1,0
		l-0.2,0l-0.1,0l0,0l0,0l0,0l0,0l0,0l0,0l0,0l0,0.1l0,0l-0.1,0l0,0l-0.1,0l0,0l0,0.1l0,0l0,0l0,0.1l0,0l0,0l0,0l0,0l0,0l0,0l0,0
		l-0.1,0l-0.2,0l0,0.2l0.1,0.2l0.2,0.1l0.4,0.1l0.3,0.2l0.2,0.1l0.2,0.3l0,0.4l-0.1,0.5l-0.2,0.3l-0.2,0.1l-0.4,0.1L57,47.9
		l-0.3,0.3l0.3,0.4l0.2,0.1l0,0l0.1,0l0,0l0,0l0.1,0.1l0.1,0l0.2,0.2l0.2,0.1l0.1,0l0,0l0-0.1l0-0.1l0,0l-0.1-0.1l0,0l0-0.1l0-0.1
		l0,0l0.1,0l0,0l0,0l0,0l0,0l0,0l0,0l0-0.1l0.1-0.1l0.1-0.1l0.3-0.4l0.2-0.5l0-0.1l0.1,0l0,0l0.1,0l0,0l0,0l0,0l0,0l-0.1,0.1l0,0
		l0,0l-0.1,0l0,0l0,0.1l0,0.1L59,47.8l0,0.1l0,0.1l0.1,0l0.1,0l0.1,0l0.1,0.1l0.1,0l0-0.1l0,0l0,0l0,0l0,0l-0.1,0l0,0l0,0l0,0
		l-0.1,0l0,0l0,0.1l0,0.1l-0.1,0.1l-0.1,0.1l0,0.1l0.1,0l0,0l0.1,0l0,0l0,0.1l0,0l0.1,0l0.2-0.1l0.1,0l0,0l0.1-0.1l0,0l0-0.2
		l0.1-0.9l0-0.1l-0.1-0.2l0-0.1l0-0.1l0-0.2l0-0.1l0,0l0,0l0.1,0l0,0l0-0.1l0,0l0,0l0.3-0.2l0,0.1l-0.1,0L60,46l0,0.1l0,0.1l-0.1,0
		l-0.1,0l-0.1,0.1l0,0.1l0,0l0,0l0,0l0,0.1l0,0l0,0l0,0l0,0l0.1,0.1l0,0l0,0l0,0.1l0,0.1l0,0.1l0,0.2l0,0.3l0,0.1l0,0.1l0.1,0.1
		l0.1,0.2l0.1,0.1l0,0l0.1,0l0.1,0l0,0l0.1,0.2l0,0.2l0,0.1l0,0.1l-0.1,0.1l-0.1,0.1L60,49.1l0,0.1l0,0.1l0,0l-0.1,0.2l-0.1,0.5
		l0,0.1l-0.1,0.2l0,0.1l0,0.1l0,0.1l-0.1,0.1l0,0l0,0l0.3,0l0,0l0.2,0.1l0-0.1l0,0l0-0.1l0.2-0.3l0,0l0-0.1l0-0.1l0-0.1l0-0.1l0-0.1
		l1-1l0,0l0,0l0,0l0,0l0.1-0.1l0,0l0-0.1l0-0.1l-0.1-0.1l-0.1,0l-0.1,0.1l-0.1,0l0,0l0-0.1l0.3-0.2l0.1-0.1l0,0l0,0l0,0l0,0l0,0
		l0-0.1l0-0.1l0,0l0.1-0.1l0.1,0l0.1,0l0.5-0.1l0.1,0l0.1,0l0.1-0.1l0.1,0l0-0.1l0,0l0-0.1L63,46.5L63,46.5z"/>
	<path id="Galápagos" fill="#D96CAA" stroke="#F9F9FA" stroke-width="0.25" stroke-linecap="round" stroke-linejoin="round" d="
		M17.7,39.9L17.7,39.9L17.6,40l-0.1,0l-0.1,0l-0.1,0l-0.1,0l-0.1,0l0,0L17,40.1l0,0l0,0l-0.1,0.1l0,0.1l-0.1,0.1l-0.1,0.1l-0.2,0
		l0,0l0,0.2l-0.1,0l-0.2,0.1l0,0L16,40.9l0,0l0,0l0,0l0.2,0l0,0l0.1,0.1l0,0l0.1,0l0.1-0.1l0,0l0.2,0l0.1,0l0.1,0l0.1,0l0.1-0.1
		l0.1-0.1l0.1-0.1l0,0l0,0l0.2,0l0.1-0.1l0.1-0.2l0.1-0.2L17.7,39.9z M5.3,29.4L5.3,29.4L5.3,29.4L5.3,29.4L5.3,29.4L5.3,29.4z
		 M6.2,30.7L6.2,30.7L6.2,30.7L6.2,30.7L6.2,30.7L6.2,30.7L6.2,30.7L6.2,30.7L6.2,30.7z M10.9,34.4l0.1-0.1L11,34.1l-0.2-0.1l0,0.1
		l0,0.2l0,0.1L10.9,34.4z M12,35.6L12,35.6L12,35.6l0.1,0.1l0.1,0.1l0.1,0l0.1,0l0.1-0.1l0.1-0.1l0-0.1l0-0.1l-0.1-0.1l-0.1-0.1
		l-0.1,0l-0.1,0l-0.1,0l-0.1,0.1L12,35.6L12,35.6L12,35.6z M7.7,39.1L8,38.9l0,0v-0.4l0-0.2l0-0.1l-0.1,0l0,0L7.8,38l-0.1,0l0,0
		l-0.1,0l-0.2,0l-0.2,0.1l-0.4,0l0,0.1l0.1,0.2l0,0.2l0,0.1L7,38.8l0.1,0.1l0,0l0,0l0,0l0,0l0,0l0,0l0,0L7.4,39l0.1,0l0.1,0.1l0,0
		L7.7,39.1L7.7,39.1z M6.2,30.6L6.2,30.6L6.2,30.6L6.2,30.6z M16,42.9l-0.1,0l-0.1,0l-0.2,0l-0.1,0L15.4,43l0.4,0.2l0.1,0l0.1,0
		L16,42.9L16,42.9z M13.4,39.3L13.4,39.3l-0.1,0l0,0l0,0l0-0.1l0,0l0,0l0,0l0,0l0,0l-0.1,0l-0.4,0l0,0l-0.1,0l0,0l0,0l-0.1,0l0,0
		l-0.1,0l-0.1,0.1l0,0L12,39.3L12,39.4l0,0.1l0,0.1l0,0.2l0,0.1l0,0l0.1,0l0.1,0l0.1,0l0,0l0.1,0.1l0,0l0,0l0,0l0,0l0.1,0l0.2,0.1
		l0.1,0l0.1,0l0.1,0l0-0.1l0,0l0.2,0l0,0l0,0l0.1-0.1l0-0.1l0.1-0.1l0.1,0l0,0l0-0.1l0,0l0-0.1l0-0.1l0-0.1l0.1-0.2l0-0.1L13.4,39.3
		L13.4,39.3z M12.7,42.5L12.7,42.5L12.7,42.5L12.7,42.5l-0.2-0.1l-0.1,0l-0.1,0l0-0.1l-0.1,0l0,0.1l0,0.1l0,0.1l0,0.1l0,0l0.1,0.1
		l0.1,0.1l0.1,0l0.2,0l0,0l0.1-0.1l0,0l0,0l0-0.1l0,0l0,0l0.1,0l0,0l0,0L12.7,42.5L12.7,42.5L12.7,42.5L12.7,42.5L12.7,42.5z
		 M10.8,40.2L10.8,40.2L10.8,40.2L10.5,40l-0.1,0l0-0.1l0-0.1l0,0l-0.1,0l-0.1,0l0-0.1l-0.1,0l-0.2,0l0-0.1l0-0.1l0,0l-0.1,0.1
		l0-0.1l0.1-0.1l0-0.1l0-0.2l0-0.2l0,0l0,0l0,0l0,0l-0.1,0l0,0l-0.1-0.1l0,0l0,0l0,0l-0.5-0.3l0,0l0,0l0,0l0-0.1l0-0.1l0,0l0,0
		l-0.2-0.2l0-0.1L9,37.3l0-0.2L9,37l0-0.1l0,0l0,0l-0.1,0l0,0l-0.1-0.1l0,0l0,0l-0.1-0.2l-0.1,0l0,0l0-0.1l0-0.1l-0.1-0.1l0,0
		l-0.1,0l-0.1,0l0,0l0,0l0,0l-0.1,0l-0.1,0l-0.1,0l-0.1,0l0,0.2l-0.1,0.1l-0.3,0.2l0,0l0,0l0,0l0,0l0.1,0.1l0.1,0l0.1,0L7.6,37
		l0.2-0.1l0.1,0L8,37l0,0.1l0,0l0,0.1l0,0v0.2l0,0.1l0,0.1l0.1,0.1l-0.1,0l0,0.1l0.1,0.1L8.2,38l0,0.1l0.1,0.1l0.3,0.1l0,0.1l0,0
		l0,0l0.1,0l0,0l0.1,0l0,0l0,0.1l0,0.2L8.9,39L9,39.2l0.1,0.1l0.1,0l0.1,0l0.1,0l0.1,0l0,0.1l0,0.1l-0.1,0.1l-0.1,0l-0.1,0.1l0,0.1
		l0,0l0,0l0,0.1l0,0l0,0l0,0l-0.1,0l0,0l0,0l0,0l0,0l-0.1,0l-0.2,0l-0.1,0l-0.1,0l0,0v0l0,0l-0.5,0.3l-0.1,0.1l-0.1,0.2l0,0.2
		l0.1,0.2l0,0l0.1,0l0,0l0,0.1l0,0.1l0,0l0,0L8,41.4l0.1,0l0.5,0L9,41.5l0.1,0l0.1,0l0.5-0.2l0.1-0.1l0.1,0l0.1,0l0.1,0l0.1,0l0-0.1
		l0.1-0.1l0.1-0.1l0.1,0l0-0.1l0-0.1l0.1-0.4l0,0l0.1,0L10.8,40.2L10.8,40.2L10.8,40.2z M11.8,38.1L11.8,38.1L11.8,38.1L11.8,38.1
		l-0.3-0.4l-0.1-0.1l-0.1,0l-0.3-0.1l-0.1-0.1l0,0l0,0l0,0l-0.1,0l-0.1,0.1l0,0.1l0,0.1l0,0.1l-0.2,0.3l0.1,0l0,0.1l0,0.1l0.1,0.1
		l0.1,0l0.1,0l0.1,0l0.1,0h0.3l0.2,0.1l0.1,0l0.1,0l0-0.1l0.1-0.1L11.8,38.1L11.8,38.1L11.8,38.1z"/>
	<path id="Esmeraldas" fill="#D96CAA" stroke="#F9F9FA" stroke-width="0.25" stroke-linecap="round" stroke-linejoin="round" d="
		M63.7,31.3L63.7,31.3l0.1,0l0-0.1l0.1,0.1l0.1-0.1l0-0.2l0-0.2l0-0.1l0,0l0,0L63.7,31l-0.1,0.1L63.7,31.3L63.7,31.3z M66.2,34.3
		L66.2,34.3L66,34l0,0l0,0l0-0.1l0,0l-0.1-0.2l0,0l0,0l0,0l0,0l0.1,0l0,0l0,0l0,0l0-0.1l0-0.1l0-0.1l0-0.2l0,0L66,32.9l-0.1-0.1
		l-0.1,0l0,0l-0.1-0.1l0,0l0-0.1l0-0.1l0-0.3l0-0.1l0.1-0.2l0-0.1l0-0.1l0-0.1l0-0.1l0,0l0.1-0.1l0,0l0,0l-0.2-0.1l-0.1,0l-0.1,0
		l0-0.1l-0.1-0.1l0,0l0-0.1l0,0l-0.1,0l-0.1,0l-0.1,0L65,31.1L65,31l0-0.1l0-0.1l-0.1-0.1l-0.1-0.1l-0.3-0.2l0,0l0,0l0,0.1l0,0.1
		l0,0.1l-0.2,0.2l0,0.1l0,0.1l0,0.1l0.1,0l0.1,0l0.1,0l0,0.1l-0.2-0.1l-0.1,0l-0.1,0.1l0,0l0,0l0,0l0,0l0,0l0,0l0,0l0,0l0,0.1l0,0
		l0,0.1l0,0.2l0,0.1l0,0.1l-0.1,0l0-0.1l0-0.1l-0.1-0.1l-0.1-0.1l-0.1,0l-0.1,0L63,31.9l-0.1,0l-0.1,0l-0.1,0l-0.1,0L62.4,32l-0.1,0
		l-0.1,0l-0.1,0l0,0l-0.1,0l0,0l-0.3,0l-0.1,0l-0.3,0.3l-0.2,0.1l-0.2-0.1l-0.1,0l0,0.1l0,0.1l0,0.1l0,0l0,0l0,0l0,0l0.1,0l0.1,0.2
		l0,0l-0.1-0.1l-0.1,0l0,0l0,0l0-0.1l0.1-0.3l0,0l0,0l-0.1,0.1l-0.3,0.1l-0.1,0l0,0l-0.1,0.1l0,0l-0.1,0.1l0,0l-0.1,0L59.8,33
		l-0.1,0l-0.1,0l-0.1,0l-0.1,0l-0.1,0.1l-0.1,0l-0.1,0l-0.1,0l-0.1,0l-0.1,0.1l-0.1,0.2l-0.1,0.2l0,0.2l0,0.1l0,0.1l0,0.1l0.1,0
		l0.1,0l0.1,0l0,0.1l0,0.1l0,0.1l0,0.1l0,0.1l0,0.1l0,0l0,0.1l0,0.1l0,0.1l0,0.1l0.1,0.2l0.1,0.1l0,0l0,0.1l0,0l0,0.1l0,0l0.1,0.3
		l0.1,0.1l0,0l0,0l0,0l0,0l0,0l0,0l0,0l0,0l0,0l0,0l0,0l0,0l0-0.1l0,0l0,0l0,0l0,0l0,0l0,0l0.2,0l0.1,0l0.1,0l0.1,0l0,0l0,0l0.1-0.1
		l0,0l0,0l0.1,0l0,0l0,0l0,0l0,0l0,0l0,0l0,0l0,0l0,0l0,0l0,0l0,0l0,0l0,0l0,0l0,0l0,0l0,0l0,0l0,0l0,0l0,0l0.2,0.1l0,0l0,0l0,0l0,0
		l0,0l0,0l0,0l0,0l0,0l0,0l0,0L60.5,36l0,0l0,0l0,0l0,0l0,0l0,0l0,0l0,0l0,0l0,0l0,0l0,0l0,0l0,0.1l0,0l0,0l0,0l0,0l0,0l0,0l0,0l0,0
		l0,0l0,0l0.1,0.1l0,0l0,0l0,0l0,0l0,0l0,0l0,0L61,36.5l0,0l0,0l0,0l0,0l0,0l0,0l0,0l0,0l0,0l0,0l0,0l0,0l0,0l0,0l0,0l0,0l0,0l0,0
		l0,0l0,0l0.1,0.1l0.1,0l0.1,0l0.3,0l0.1,0l0,0l0,0l0,0l0,0l0,0l0,0l0,0l0,0l0,0l0,0l0,0l0,0l0,0l0,0l0-0.1l0,0l0,0l0.1,0l0,0l0.1,0
		l0.1,0l0.1-0.1l0,0l0.1-0.2l0.1-0.1l0.1-0.1l0.1-0.1l0,0l0,0l0,0l0,0l0,0l-0.1-0.1l0,0l0,0l0,0l0,0l0.1,0l0.1,0l0.1-0.1l0,0l0.1,0
		l0,0l0.1-0.1l0.1,0l0.1,0l0.1,0l0.1,0l0.5,0.1l0,0l0,0l0.1,0.1l0.1,0l0,0l0,0l0,0l0.1-0.2l0.1-0.1l0.1,0l0,0l0,0l0,0l0,0l0,0
		l0.1-0.1l0.1,0l0.1-0.1l0.1,0l0.1,0l0.1,0l0.2,0l0.1,0l0.1,0l0,0l0,0l0,0l0,0l0.1,0.1l0,0l0,0l0,0l0,0l0.1-0.1l0.1-0.1l0.1-0.2
		l0.2-0.2l0.1-0.1l0,0l0.1-0.1l0,0l0,0l0.1,0l0,0l0.1,0l0,0l0,0l0,0L66.2,34.3L66.2,34.3z"/>
	
		<polygon id="El_Oro" fill-rule="evenodd" clip-rule="evenodd" fill="#D96CAA" stroke="#F9F9FA" stroke-width="0.25" stroke-linecap="round" stroke-linejoin="round" points="
		60.2,50.6 60.8,50.9 60.9,51 60.9,51.1 61,51.2 60.9,51.2 60.9,51.3 60.8,51.5 60.8,51.6 60.8,51.6 60.7,51.7 60.6,51.7 60.6,51.7 
		60.6,51.8 60.7,51.8 60.7,51.8 60.9,51.8 61.1,51.7 61.3,51.7 61.3,51.7 61.4,51.7 61.6,51.8 61.5,52 61.5,52.1 61.6,52.2 
		61.6,52.2 61.6,52.2 61.6,52.3 61.7,52.3 61.7,52.3 61.7,52.3 61.7,52.3 61.7,52.4 61.7,52.4 61.5,52.6 61.5,52.6 61.5,52.7 
		61.5,52.8 61.5,52.8 61.4,53 61.4,53.1 61.4,53.1 61.5,53.2 61.5,53.2 61.5,53.1 61.6,53.1 61.6,53 61.7,53 61.7,53 61.7,53 
		61.8,53 61.8,53 61.9,53.1 61.9,53.1 61.9,53.1 62,53.2 62,53.3 62,53.3 61.9,53.4 61.9,53.4 61.9,53.5 61.8,53.5 61.8,53.6 
		61.8,53.6 61.8,53.7 61.8,53.8 61.8,53.8 61.8,53.8 61.8,53.9 61.7,53.9 61.6,53.9 61.5,53.9 61.5,53.9 61.4,53.9 61.3,53.9 
		61.2,53.9 61.1,53.9 61.1,53.9 61,53.8 61,53.8 60.9,53.7 60.9,53.7 60.9,53.7 60.8,53.7 60.8,53.8 60.6,53.8 60.6,53.9 60.5,54 
		60.4,54 60.3,54.1 60,54.1 59.9,54.1 59.8,54 59.8,54 59.7,54 59.4,54 59.3,54.1 59.1,54.2 58.8,54.3 58.5,54.3 58.4,54.3 
		58.4,54.3 58.4,54.2 58.3,54.2 58.3,54.2 58.3,54.1 58.3,54 58.3,54 58.2,53.9 58.1,53.8 58.1,53.7 58.1,53.6 58.1,53.6 58.2,53.6 
		58.2,53.5 58.1,53.5 58.1,53.4 58.1,53.4 58.1,53.3 58.2,53.2 58.2,53.2 58.2,53.2 58.1,53.1 58.1,53 58.1,53 58.1,53 58,52.9 
		58,52.9 58,52.9 58,52.8 58.1,52.7 58.1,52.6 58,52.6 58,52.6 57.9,52.5 57.9,52.5 57.9,52.4 57.9,52.3 57.9,52.2 57.9,52.2 
		57.7,52.1 57.6,52.1 57.6,52.1 57.6,52.1 57.6,52.1 57.6,52 57.6,52 57.7,51.9 57.7,51.9 57.7,51.8 57.8,51.8 57.7,51.9 57.7,51.9 
		57.7,52 57.8,52 57.8,51.8 57.9,51.8 58,51.9 58,51.9 58.4,51.8 58.4,51.8 58.5,51.8 58.5,51.8 58.5,51.8 58.6,51.7 58.6,51.7 
		58.8,51.3 58.9,51.2 59,51.3 59,51.4 59,51.6 59,51.5 59,51.5 59.1,51.5 59.1,51.4 59.1,51.4 59.3,51.3 59.3,51.2 59.4,51.1 
		59.4,51 59.4,50.8 59.5,50.7 59.6,50.5 59.6,50.5 59.6,50.5 60,50.5 60,50.6 	"/>
	
		<polygon id="Cotopaxi" fill-rule="evenodd" clip-rule="evenodd" fill="#D96CAA" stroke="#F9F9FA" stroke-width="0.25" stroke-linecap="round" stroke-linejoin="round" points="
		64.9,39.8 65,39.8 65.1,39.7 65.1,39.7 65.2,39.7 65.2,39.7 65.2,39.7 65.3,39.6 65.3,39.6 65.4,39.6 65.4,39.6 65.4,39.6 
		65.5,39.7 65.5,39.6 65.6,39.6 65.7,39.6 65.7,39.6 65.8,39.6 65.9,39.6 66,39.6 66.3,39.9 66.3,40.1 66.3,40.1 66.3,40.3 
		66.4,40.4 66.4,40.5 66.3,40.6 66.3,40.7 66.2,40.8 66.2,40.8 66.2,40.9 66.2,40.9 66.2,41 66.2,41 66.2,41 66.1,41.1 66.1,41.1 
		66.1,41.1 66.2,41.1 66.3,41.2 66.3,41.2 66.2,41.3 66.2,41.3 66.2,41.4 66.2,41.4 66.1,41.5 66.1,41.6 66.1,41.6 66.1,41.7 
		66,41.7 65.9,41.7 65.8,41.7 65.8,41.7 65.8,41.7 65.7,41.6 65.7,41.6 65.7,41.6 65.6,41.6 65.6,41.7 65.6,41.7 65.6,41.8 
		65.5,41.8 65.5,41.8 65.5,41.8 65.4,41.8 65.3,41.9 65.2,41.9 65.1,42 65.1,42 64.9,42 64.7,41.9 64.7,41.9 64.6,42 64.5,42 
		64.3,42.1 64.2,42.2 64.1,42.1 64,42.1 64,42.2 63.8,42.3 63.8,42.3 63.7,42.3 63.5,42.3 63.5,42.2 63.3,42.1 63.3,42.1 63.3,42.1 
		63.2,42.1 63.2,42 63.1,42 63,42.1 62.9,42.1 62.6,42.3 62.4,42.3 62.3,42.1 62.2,42 62.2,41.9 62.2,41.8 62.2,41.7 62.2,41.4 
		62.2,41.3 62.2,41.2 62.3,41.1 62.3,41 62.4,40.9 62.4,40.9 62.5,40.8 62.5,40.8 62.6,40.6 62.7,40.5 62.7,40.5 62.7,40.5 
		62.8,40.4 62.8,40.4 62.9,40.3 63.2,39.5 63.2,39.3 63.3,39.5 63.3,39.5 63.3,39.5 63.4,39.5 63.4,39.5 63.4,39.5 63.5,39.4 
		63.5,39.4 63.5,39.3 63.5,39.3 63.6,39.3 63.6,39.3 63.6,39.3 63.7,39.3 63.7,39.2 63.6,39.2 63.6,39.2 63.6,39.1 63.6,39.1 
		63.5,39.1 63.5,39 63.5,39 63.5,39 63.5,39 63.5,38.9 63.6,38.8 63.6,38.8 63.6,38.7 63.6,38.7 63.7,38.7 63.7,38.7 63.8,38.6 
		63.8,38.6 63.8,38.6 63.8,38.5 63.8,38.5 63.8,38.5 63.8,38.5 63.9,38.5 63.9,38.5 63.9,38.4 63.9,38.4 64,38.4 64,38.5 64,38.5 
		64,38.5 64,38.6 64.2,38.8 64.3,38.9 64.3,39 64.3,39 64.4,39.1 64.4,39.2 64.4,39.2 64.7,39.4 64.8,39.5 64.8,39.6 64.8,39.7 
		64.9,39.8 64.9,39.8 	"/>
	
		<polygon id="Chimborazo" fill-rule="evenodd" clip-rule="evenodd" fill="#D96CAA" stroke="#F9F9FA" stroke-width="0.25" stroke-linecap="round" stroke-linejoin="round" points="
		65.3,43.6 65.4,43.5 65.5,43.5 65.6,43.5 65.7,43.5 65.7,43.5 65.8,43.5 65.8,43.5 65.9,43.4 65.9,43.3 65.9,43.3 66,43.4 
		66.1,43.4 66.2,43.5 66.2,43.5 66.3,43.5 66.3,43.5 66.4,43.5 66.4,43.6 66.5,43.6 66.5,43.7 66.5,43.7 66.5,43.8 66.5,43.8 
		66.5,43.9 66.5,44 66.5,44.1 66.5,44.1 66.5,44.1 66.4,44.2 66.4,44.2 66.3,44.3 66.3,44.3 66.2,44.3 66.2,44.4 66.2,44.4 
		66.1,44.5 66.1,44.5 66.1,44.5 66.1,44.6 66.1,44.7 66.1,44.7 66.1,44.8 66.1,44.9 66.1,44.9 66.2,44.9 66.2,44.9 66.2,45 
		66.2,45.2 66.2,45.2 66,45.4 65.9,45.6 65.9,45.7 65.9,45.7 65.9,45.8 66,45.8 66,45.8 66,45.9 66,45.9 66,46 66.1,46.1 66.1,46.2 
		66.1,46.2 66,46.3 66,46.3 65.9,46.3 65.9,46.4 65.8,46.5 65.8,46.7 65.8,46.7 65.9,46.8 65.9,46.8 65.8,46.8 65.8,46.9 65.7,46.9 
		65.7,47 65.7,47 65.7,47.1 65.7,47.1 65.5,47.2 65.4,47.2 64.8,47.3 64.7,47.3 64.6,47.3 64.5,47.4 64.4,47.5 64.2,47.6 64.1,47.6 
		64,47.6 63.9,47.6 63.8,47.6 63.7,47.5 63.6,47.5 63.6,47.4 63.5,47.4 63.3,47.2 63.3,47.1 63.3,47.1 63.2,47.1 63.2,47.1 63.2,47 
		63.2,47 63.1,47 63.1,47 63.1,46.9 63.1,46.9 63,46.9 63,46.8 63.3,46.6 63.4,46.5 63.5,46.3 63.5,46.3 63.5,46.2 63.5,46.2 
		63.5,46.1 63.5,46.1 63.5,46 63.6,45.5 63.6,45.4 63.6,45.3 63.6,45.2 63.6,45 63.6,44.9 63.6,44.9 63.6,44.8 63.7,44.8 63.7,44.8 
		63.9,44.7 63.9,44.7 64.1,44.6 64.2,44.4 64.2,44.3 64.3,44.2 64.3,44.1 64.3,44 64.3,43.9 64.3,43.8 64.3,43.7 64.2,43.6 
		64.2,43.5 64.1,43.5 64.1,43.4 64.2,43.4 64.4,43.3 64.4,43.3 64.5,43.3 64.6,43.3 64.6,43.3 64.8,43.4 64.9,43.5 65,43.5 
		65.2,43.5 	"/>
	
		<polygon id="Carchi" fill-rule="evenodd" clip-rule="evenodd" fill="#D96CAA" stroke="#F9F9FA" stroke-width="0.25" stroke-linecap="round" stroke-linejoin="round" points="
		68.4,33 68.4,33 68.5,33 68.5,33 68.5,33.1 68.5,33.1 68.5,33.1 68.6,33.2 68.7,33.2 68.8,33.3 68.9,33.3 69,33.2 69.3,33.1 
		69.4,33.1 69.6,33.2 69.6,33.5 69.7,33.7 70,33.9 70.1,33.9 70.3,33.9 70.3,33.9 70.1,34.1 70,34.1 69.9,34 69.9,34 69.8,34 
		69.7,34 69.7,34 69.6,34 69.6,34 69.6,34 69.6,34 69.6,34 69.6,34.1 69.6,34.1 69.6,34.1 69.6,34.2 69.6,34.2 69.7,34.2 69.7,34.2 
		69.7,34.3 69.6,34.3 69.6,34.3 69.4,34.4 69.4,34.5 69.1,34.9 69.1,34.9 69,35 69,35.1 69,35.1 69,35.2 69,35.2 68.9,35.3 
		68.8,35.3 68.7,35.2 68.7,35.1 68.5,35 68.3,34.9 68.1,34.8 67.9,34.7 67.9,34.7 67.8,34.7 67.7,34.7 67.7,34.6 67.5,34.6 
		67.5,34.5 67.4,34.5 67.4,34.4 67.4,34.3 67.4,34.2 67.3,34 67.2,33.7 67,33.5 66.9,33.4 66.8,33.3 66.6,33.2 66.5,33.1 66.5,33.1 
		66.4,33 66.3,33 66.2,33 66.1,33 66.1,33 66,32.9 65.9,32.8 65.9,32.8 65.8,32.8 65.8,32.7 65.7,32.7 65.7,32.6 65.7,32.6 
		65.7,32.3 65.7,32.2 65.9,32 65.9,31.9 65.9,31.8 65.9,31.7 65.9,31.7 65.9,31.6 66,31.6 66,31.6 66,31.6 66.4,32.1 66.5,32.1 
		66.6,32.2 66.9,32.3 67,32.3 67.6,32.8 67.7,32.8 68.1,32.9 68.4,33 	"/>
	
		<polygon id="Cañar" fill-rule="evenodd" clip-rule="evenodd" fill="#D96CAA" stroke="#F9F9FA" stroke-width="0.25" stroke-linecap="round" stroke-linejoin="round" points="
		64,47.6 64.1,47.6 64.2,47.6 64.4,47.5 64.5,47.4 64.6,47.3 64.7,47.3 64.8,47.3 65.4,47.2 65.5,47.2 65.5,47.3 65.6,47.3 
		65.8,47.4 65.9,47.5 65.9,47.5 65.9,47.6 65.9,47.6 65.9,47.9 65.9,48 65.9,48 65.9,48.1 65.9,48.1 65.9,48.1 65.8,48.3 65.7,48.4 
		65.7,48.4 65.7,48.4 65.7,48.4 65.7,48.4 65.6,48.4 65.6,48.4 65.4,48.5 65.4,48.5 65.3,48.6 65.3,48.6 65.3,48.7 65.2,48.7 
		65.2,48.7 65.1,48.8 65,48.8 64.9,48.9 64.9,48.9 64.8,48.9 64.8,48.9 64.7,48.9 64.7,48.9 64.6,48.9 64.6,49 64.6,49 64.5,49.1 
		64.5,49.1 64.6,49.2 64.6,49.2 64.6,49.2 64.5,49.2 64.5,49.4 64.4,49.4 64.4,49.4 64.4,49.5 64.4,49.5 64.4,49.5 64.4,49.5 
		64.4,49.5 64.3,49.5 64.3,49.5 64.2,49.5 64.2,49.5 64,49.5 63.9,49.5 63.9,49.5 63.9,49.3 63.9,49.3 63.8,49.3 63.7,49.2 
		63.7,49.1 63.5,48.9 63.5,48.9 63.4,48.8 63.3,48.8 63.3,48.8 63.3,48.8 63.2,48.8 63.2,48.8 63.2,48.8 63.2,48.9 63.1,48.9 
		63.1,48.9 63,49 63,49 63,49 63,49.1 63,49.1 62.9,49.1 62.9,49.1 62.8,49.1 62.4,48.7 62.4,48.6 62.4,48.6 62.3,48.5 62.3,48.5 
		62.2,48.4 62.1,48.4 62,48.4 62,48.3 61.9,48.2 61.9,48.1 61.8,48.1 61.7,48.1 61.5,48.1 61.4,48.2 61.4,48.1 61.3,48.1 61.3,48.1 
		61.6,47.8 61.7,47.7 61.7,47.7 61.7,47.7 61.7,47.6 61.7,47.6 61.7,47.6 61.7,47.5 61.7,47.4 61.8,47.3 61.9,47.3 62,47.2 62,47.2 
		62.6,47.1 62.7,47.1 62.8,47 62.9,47 62.9,46.9 63,46.9 63,46.8 63,46.8 63,46.9 63.1,46.9 63.1,46.9 63.1,47 63.1,47 63.2,47 
		63.2,47 63.2,47.1 63.2,47.1 63.3,47.1 63.3,47.1 63.3,47.2 63.5,47.4 63.6,47.4 63.6,47.5 63.7,47.5 63.8,47.6 63.9,47.6 	"/>
	
		<polygon id="Bolivar" fill-rule="evenodd" clip-rule="evenodd" fill="#D96CAA" stroke="#F9F9FA" stroke-width="0.25" stroke-linecap="round" stroke-linejoin="round" points="
		63.7,42.3 63.8,42.3 63.8,42.3 64,42.2 64,42.1 64.1,42.1 64.2,42.2 64.1,42.3 64.1,42.4 64.1,42.6 64.1,42.6 64,42.8 64,42.8 
		63.9,43.1 64,43.1 64.1,43.3 64.1,43.4 64.1,43.4 64.1,43.5 64.2,43.5 64.2,43.6 64.3,43.7 64.3,43.8 64.3,43.9 64.3,44 64.3,44.1 
		64.3,44.2 64.2,44.3 64.2,44.4 64.1,44.6 63.9,44.7 63.9,44.7 63.7,44.8 63.7,44.8 63.6,44.8 63.6,44.9 63.6,44.9 63.6,45 
		63.6,45.2 63.6,45.3 63.6,45.4 63.6,45.5 63.5,46 63.5,46.1 63.5,46.1 63.5,46.2 63.5,46.2 63.5,46.3 63.5,46.3 63.4,46.5 
		63.3,46.6 63,46.8 63,46.6 63,46.5 63,46.5 62.9,46.5 62.9,46.5 62.9,46.5 62.8,46.6 62.8,46.6 62.7,46.6 62.6,46.5 62.6,46.4 
		62.7,46.2 62.7,46.2 62.7,46.1 62.7,46.1 62.5,45.8 62.4,45.6 62.4,45.6 62.4,45.6 62.4,45.5 62.5,45.5 62.5,45.2 62.6,45.1 
		62.6,45 62.6,45 62.5,44.9 62.5,44.9 62.5,44.8 62.5,44.8 62.5,44.7 62.5,44.7 62.4,44.5 62.3,44.4 62.3,44.3 62.2,44.3 62.2,44.3 
		62.2,44.3 62.2,44.3 62.1,44.3 62.1,44.2 62.1,44.2 62.1,44.2 62.1,44.2 62.1,44.2 62.1,44.1 62.2,44.1 62.3,44 62.3,44 62.4,44 
		62.4,44 62.4,44 62.4,44 62.4,43.9 62.5,43.9 62.5,43.8 62.5,43.8 62.5,43.7 62.4,43.7 62.3,43.6 62.2,43.5 62.2,43.5 62.2,43.4 
		62.2,43 62.2,43 62.2,42.9 62.2,42.9 62.2,42.9 62.3,42.9 62.3,42.9 62.3,42.9 62.3,42.9 62.2,42.8 62.1,42.7 62.1,42.7 62.1,42.7 
		62,42.7 62,42.8 62,42.8 61.9,42.8 61.9,42.8 61.9,42.8 61.9,42.7 62,42.6 62.1,42.5 62.1,42.4 62.4,42.3 62.6,42.3 62.9,42.1 
		63,42.1 63.1,42 63.2,42 63.2,42.1 63.3,42.1 63.3,42.1 63.3,42.1 63.5,42.2 63.5,42.3 	"/>
	
		<polygon id="Azuay" fill-rule="evenodd" clip-rule="evenodd" fill="#D96CAA" stroke="#F9F9FA" stroke-width="0.25" stroke-linecap="round" stroke-linejoin="round" points="
		62.9,49.1 63,49.1 63,49.1 63,49 63,49 63,49 63.1,48.9 63.1,48.9 63.2,48.9 63.2,48.8 63.2,48.8 63.2,48.8 63.3,48.8 63.3,48.8 
		63.3,48.8 63.4,48.8 63.5,48.9 63.5,48.9 63.7,49.1 63.7,49.2 63.8,49.3 63.9,49.3 63.9,49.3 63.9,49.5 63.9,49.5 64,49.5 
		64.2,49.5 64.2,49.5 64.3,49.5 64.3,49.5 64.4,49.5 64.4,49.5 64.4,49.5 64.4,49.5 64.4,49.5 64.4,49.4 64.4,49.4 64.5,49.4 
		64.5,49.2 64.6,49.2 64.6,49.2 64.6,49.2 64.5,49.1 64.5,49.1 64.6,49 64.6,49 64.6,48.9 64.7,48.9 64.7,48.9 64.8,48.9 64.8,48.9 
		64.9,48.9 64.9,48.9 65,48.8 65.1,48.8 65.2,48.7 65.2,48.7 65.3,48.7 65.3,48.6 65.3,48.6 65.4,48.5 65.4,48.5 65.6,48.4 
		65.6,48.4 65.6,48.5 65.6,48.5 65.6,48.6 65.7,48.6 65.7,48.6 65.7,48.6 65.8,48.6 65.8,48.6 65.8,48.5 65.8,48.5 65.9,48.4 
		65.9,48.4 65.9,48.4 66,48.4 66,48.4 66.1,48.5 66.2,48.5 66.2,48.6 66.2,48.6 66.2,48.6 66.2,48.7 66.1,48.7 65.6,49 65.6,49 
		65.6,49.1 65.4,49.3 65.4,49.4 65.4,49.4 65.5,49.4 65.5,49.5 65.5,49.5 65.5,49.6 65.5,49.6 65.5,49.7 65.3,50 65.3,50.1 
		65.3,50.1 65.2,50.4 65.1,50.4 65.1,50.5 65.1,50.6 65.1,50.6 65.1,50.7 65,50.9 64.9,50.9 64.7,51 64.5,51.1 64.4,51.2 63.9,51.6 
		63.9,51.7 63.9,51.7 63.9,51.8 63.8,51.9 63.5,52 63.5,52.1 63.4,52.1 63.4,52.2 63.3,52.2 63.3,52.3 63.3,52.3 63.4,52.4 
		63.4,52.4 63.4,52.4 63.4,52.5 63.4,52.5 63.4,52.6 63.4,52.6 63.4,52.8 63.3,53.1 63.3,53.1 63.3,53.1 63.3,53.2 63.2,53.2 
		63.2,53.2 63.1,53.1 63.1,52.9 63.1,52.8 63,52.7 62.9,52.5 62.8,52.4 62.8,52.3 62.8,52.3 62.7,52.3 62.6,52.4 62.6,52.4 
		62.5,52.4 62.4,52.3 62.3,52.3 62.3,52.2 62.3,52.1 62.3,52 62.3,52 62.2,51.9 62.2,51.9 62.1,51.9 62.1,51.8 62,51.9 61.8,51.9 
		61.7,51.8 61.6,51.8 61.4,51.7 61.3,51.7 61.3,51.7 61.1,51.7 60.9,51.8 60.7,51.8 60.7,51.8 60.6,51.8 60.6,51.7 60.6,51.7 
		60.7,51.7 60.8,51.6 60.8,51.6 60.8,51.5 60.9,51.3 60.9,51.2 61,51.2 60.9,51.1 60.9,51 60.8,50.9 60.2,50.6 60.2,50.5 60.2,50.5 
		60.3,50.4 60.5,50.1 60.5,50.1 60.5,50 60.5,49.8 60.5,49.8 60.5,49.6 60.5,49.5 61.5,48.5 61.5,48.5 61.5,48.5 61.6,48.5 
		61.6,48.4 61.7,48.3 61.7,48.3 61.7,48.2 61.7,48.2 61.7,48.1 61.8,48.1 61.9,48.1 61.9,48.2 62,48.3 62,48.4 62.1,48.4 62.2,48.4 
		62.3,48.5 62.3,48.5 62.4,48.6 62.4,48.6 62.4,48.7 62.8,49.1 62.9,49.1 	"/>
</g>
<g>
	<rect x="-22.4" y="90.2" fill="none" width="128.6" height="38.1"/>
	<text transform="matrix(1 0 0 1 17.6855 99.4734)" fill="#818281" font-family="'ArialMT'" font-size="13px">Ecuador</text>
</g>
</svg>
