<?xml version="1.0" encoding="utf-8"?>
<!-- Generator: Adobe Illustrator 23.0.1, SVG Export Plug-In . SVG Version: 6.00 Build 0)  -->
<svg version="1.0" id="Countries" xmlns="http://www.w3.org/2000/svg" xmlns:xlink="http://www.w3.org/1999/xlink" x="0px" y="0px"
	 viewBox="0 0 87 130" enable-background="new 0 0 87 130" xml:space="preserve">
<circle fill="#DAF1F9" stroke="#FFFFFF" stroke-width="0.25" cx="43.1" cy="40.5" r="39"/>
<g id="Panama">
	<path id="Veraguas" fill="#77AE87" stroke="#F9F9FA" stroke-width="0.25" stroke-linecap="round" stroke-linejoin="round" d="
		M24.9,50.8l-0.4,0l-0.1-0.1h-0.1l-0.1,0.1l-0.1,0l-0.1-0.1l0-0.1l0-0.1l-0.2-0.2l-0.1-0.2l0-0.1l0.1-0.4l0-0.1l0.4-0.1l0.1-0.1
		l0-0.2l0-0.1l-0.1,0L24,49l0,0l-0.1,0l0,0l0,0l0-0.1l0,0l-0.1-0.2l0,0l0-0.1l-0.3-0.8l0,0l0,0l0,0l0,0.1h-0.1v-0.1h-0.1l0,0.1
		l0,0.2l0,0.1h-0.1l0,0l-0.1,0.1l-0.3,0.3l-0.2,0l-0.1,0.1l-0.1,0.1l0,0.1l0,0.1l0,0.1l0,0l-0.2,0.3l0,0l-0.1,0l-0.3,0l0,0l0.1,0.3
		l0,0.1l0.1,0.1l0.3,0.6l0.5,0.4l0.2,0.1l0.3,0.3l0.1,0.1l0.2,0.1l0.5,0l0.4,0.2l0.3,0l0.3-0.1l0.2-0.1L24.9,50.8L24.9,50.8z
		 M22.8,52.1L22.8,52.1l-0.2,0l0-0.1l0,0l0,0l0,0l-0.1,0.1l0,0l0.1,0.1l0,0.1l0.2,0.6h0.1l0-0.1l0-0.1l0.1-0.2l0.2-0.3l0.2-0.1
		l-0.2,0L22.8,52.1z M37.3,52.3l-0.1-0.2L37.1,52l-0.3-0.2l-0.1-0.1l-0.2-0.1l0-0.1l0-0.1l0-0.2L36.5,51l-0.3-0.4L35.9,50l-0.1-0.5
		l0-0.3l-0.3-0.3l-0.1,0l-0.2-0.1l-0.4-0.2l-0.9-1.4l-0.1-0.2l-0.1-0.4l-0.1-0.2l-0.1-0.1l-0.1-0.1l-0.1-0.1l-0.3,0.1L33.1,46l0-1.4
		l0.1-0.1l0.1-0.1l0.3-0.1l0.3-0.3l0.3-0.3l0.1-0.1l0.1-0.2l0-0.2l-0.2-0.5l0.4-0.2l0.4-0.2l0.2-0.2l0.3-0.3l0.1,0l0.2,0l0.1,0
		l0.3,0l-0.6-0.4l0-0.2l0.3-0.6l0.2-0.6l0-0.4l-0.3-0.5l-0.5-1.2l-0.3-0.5L34.9,37l-0.3-0.2l0.1-0.1l0.4-0.1l0.3-0.4l0.1-0.4
		l0.2-0.4l0-0.1l0-0.1l-0.1-0.1l-0.1-0.1l0-0.2l0-0.1l0.1-0.1l0.1-0.2l-0.1-0.2L35.6,34l-0.3-0.3l-0.1-0.1l-0.1-0.1l-0.2-0.1
		l-0.2-0.1l-0.2-0.1l-0.1-0.1l-0.1-0.1l-0.1-0.1l0-0.1l0-0.3l0,0l0-0.1l-0.2,0l-0.2,0.1l-0.9,0.4l-1,0.3l-0.1,0.1l-0.1,0.1l-0.1,0
		l-0.1,0l-0.5,0.1l-0.5,0.1l-0.5,0.1l0,0l0,0l0,0.1L29.8,34l0.1,0.9l0,0.7l0,0.5l0.1,0.3l0.1,0.2l0.1,0.1l0.1,0.1l0,0.1l0.1,0.2
		l0.2,0.2l-0.3,0.1h-0.1l-0.1,0l-0.3-0.1L29.2,37L29,36.9l-0.6-0.4l-0.1,0L28,36.5l-0.6,0l-0.1-0.1l-0.1,0l-0.1-0.1l-0.4-0.1
		L26.5,36l0,0.5L26.4,37l-0.3,0.7l0,0.2l0,0.2l0.1,0.6l0,0.5l0.1,0.4l0,0.4l0,0.4l0,0.1l0,0l-0.1,0.1l-0.6,0.8l-0.3,0.3l0,0.1
		l-0.1,0.1l-0.3,1.2l0,0.2l-0.1,0.1l-0.1,0.1l-0.2,0.1l0,0l0.2,0.3l0,0.1l0,0.1l0,0.1l0.1,0l0.1,0l0,0l0-0.1l-0.1-0.2l0-0.2l0,0
		l0.1,0l0.1-0.1l0,0.1l0,0.2L25,43.9l0.2,0.1l0,0.1l0,0.1L25,44.2l-0.1,0.1l0,0.2l0,0.2l0.2,0l0.1,0.1l0,0.1L25,44.9V45l0.1,0.1h0.1
		l0.1-0.1l0.1,0l0.1,0l0.1,0.1v0.1l-0.2,0.2l-0.1,0.1l0,0.2l0.1,0.1l0.1,0.1l0.1,0.1l-0.1,0.1v0.1l0.1,0.1l0.3,0.2l0-0.2l0.1,0
		l0.5,0.1l-0.1,0.1l-0.2,0.1l-0.1,0l0,0.2l0.3,0.1l0.4,0L27,47l0.1,0.1l0.1,0.1l0.1,0.1l0.1,0.1l0.3,0l1,0.3l0.3,0l0.2,0.1l0.1,0.2
		l0.1,0l0.4,0.2l0.1,0.1h0.1l0.1-0.1L30,48l0-0.1l0-0.1l0-0.1l0-0.1l0.1-0.5l-0.1-0.1L29.9,47l-0.2,0.1h-0.1l-0.1-0.1l-0.1-0.1
		l0.1,0.1l0.1,0l0.2-0.1l-0.1-0.2l-0.1-0.1l-0.1,0v-0.1l0.2,0l0.2,0v0.1l0,0l0,0l0,0.1l0.1,0.1l0.3-0.2l0.3-0.3l0.1-0.3l-0.2-0.4
		l0-0.1l0-0.1l0-0.1l0,0l-0.2-0.1l-0.2-0.2l0-0.1l0.2-0.1l0-0.1l0,0l-0.1-0.1l0.2,0l0,0.2l0.1,0.2l0.3,0.1l0.2,0l0.2,0.1l0.1,0h0.6
		v-0.1l-0.1,0l-0.1-0.1l0-0.1l0-0.1h0.1l0.1,0.2l0.2-0.2l0.3-0.5l0,0.8l0.1,0.3l0.3-0.2h0.1l0,0.2l-0.1,0.1l-0.1,0h-0.2l-0.1,0
		l-0.1,0.1l-0.1,0.1l-0.1,0l-0.1,0.1l0,0.2l0.1,0.2l0.3,0.1l0,0.1l0,0l0,0l0,0l0.1,0.1l0.1,0l0.1,0l0.1,0l-0.2,0.4l0,0.1l0.1,0
		l0.2,0.1l0.1,0.1l0.1,0.1l-0.1,0l-0.1,0L32,47.3L32,47.4l0,0.1l0,0l0.1,0l0.1,0.1l0.6,0.6v0.1h-0.1v0.1l0.1,0.1l0.2,0.2l0.1,0.2
		l0,0.1l0,0.1l0,0.1l0,0.1l-0.1,0.1l0.1,0.1l0.1,0.1l0,0l0.4,0.5l0.1,0.2l-0.1,0.4l0,0.2l0.3,0.2l0,0.2l0,0.2l0,0.2l0,0.1l-0.1,0.1
		l-0.1,0.1l0,0.1l0,0.3l0,0.1l-0.1,0l-0.1,0.1l0,0.1l0.1,0l0.1,0l0.1,0l0.1,0.1l0.1,0.1L34,53l0.1,0.1l0.2-0.2h0.1l0.1,0.1l0.1,0
		l0.1,0l0.1-0.1h0.1L35,53l1,0l1.3-0.2L37.3,52.3z M31.6,48.5l-0.2-0.1L31,48.6l-0.2,0.1l-0.2,0.1l-0.1,0.1L30.5,49l-0.1,0.1
		l-0.4,0.1l-0.1,0.1l-0.1,0.1l-0.1,0.1l-0.1,0.2l0.1,0l0.3-0.1l0,0l0.1,0l0.1,0h0.1l0.1,0l0.2-0.2l0.3-0.2l0.1-0.1l0-0.1l0.1-0.1
		l0.1,0l0.1,0l0.1,0l0.1,0l0.1,0.1l0.1,0l0.1,0l0.1-0.1l0.1,0l0.1-0.1l0.1-0.3l-0.3,0L31.6,48.5z"/>
	<path id="Guna_Yala" fill="#77AE87" stroke="#F9F9FA" stroke-width="0.25" stroke-linecap="round" stroke-linejoin="round" d="
		M76.6,35.1L76.6,35.1l-0.1-0.1l0-0.1l-0.2,0.1l-0.4,0l-0.4-0.1l-0.3-0.1l-0.4-0.3l-0.2-0.1l0.1-0.1l0-0.2l0-0.2l-0.1-0.2l-0.1,0
		L74.4,34l-0.2-0.2l0-0.2l-0.4-0.3l0-0.1l-0.1-0.2l-0.1-0.1L73.5,33l0,0.1l0.1,0.1l0.1,0.1l0.1,0.1l-0.2-0.1L73.2,33L73,32.7
		l-0.2-0.1l0-0.2l-0.1,0l-0.1,0.1l-0.1-0.1L72.3,32L72,31.7l0.1-0.2l0-0.1L72,31.3l-0.1-0.1l0-0.1l-0.2-0.2l-0.2-0.1l-0.1-0.1l0-0.3
		L71,30.1l-0.1-0.1l-0.2-0.3l-0.2-0.1l0,0.2l0.1,0.3l0.1,0.2l0.1,0.2l-0.4-0.3l-0.2-0.3L70,29.6l-0.2-0.3l-0.4-0.5l-0.2-0.1l-0.2,0
		l-0.3-0.3l0-0.2l-0.2-0.1L68.4,28L68,28l-0.3-0.1l-0.1-0.2l-0.2-0.1l-0.2,0L67,27.5l-0.1,0l-0.2,0l-0.2,0l-0.2-0.1l-0.2-0.1
		l-0.2-0.1l-0.2,0l-0.1,0L65.5,27l-0.2-0.1l-0.2-0.1l-0.3-0.1l-0.3-0.1l-0.2-0.1l-0.1-0.1L64,26.3l-0.1-0.1L63.7,26L63.5,26L63.4,26
		l-0.2-0.1l-0.4,0l-0.2-0.1l-0.2-0.2l-0.2,0L62,25.7l-0.1,0.1l-0.2,0.1l-0.2,0l-0.2-0.1l-0.3,0l-0.4-0.1l-0.2,0l-0.2-0.1l-0.1-0.2
		L60,25.5l-0.1,0.1l-0.1,0l-0.2,0l-0.1,0.1l-0.3,0.1l-0.2-0.1l-0.1,0l-0.1,0.1l-0.2,0l-0.1,0l-0.1,0l-0.2,0l-0.1,0L58,25.7l-0.1-0.1
		l-0.1-0.1l-0.1,0l-0.2-0.1l-0.2,0l-0.1,0l-0.1,0l-0.2,0l-0.2,0l-0.1-0.1l-0.2,0l-0.2-0.1L56.1,25l0-0.3l0.1-0.2l0.2,0l0.4,0l0.1,0
		l0.1-0.1l0.2,0l0.2-0.1l0-0.1l-0.2-0.1l-0.5,0l-0.4,0.1l-0.3,0l0,0.3l0,1l0,0.1l-0.1,0l-0.1,0l-0.1,0l-0.1,0.1l-0.1,0.1l-0.1,0.2
		l0,0.1l0,0.2l0,0.1l0,0.1L55,26.4l-0.1,0.1l-0.2,0.1l-0.2,0.1l-0.3,0.2l-0.2,0.2l-0.1,0l0-0.1l-0.2,0.1l-0.1,0.1l-0.1,0.1l0,0.1
		l0,0.1l0.1,0.1l0.4-0.1l0.8-0.3l0.2,0l0.2,0l0.2,0l0.2,0l0.3,0.1l0.1,0.1l0.1,0.1l0.1,0.1l0.2,0l0.6,0l0.1,0l0,0v-0.1l0-0.1l0-0.1
		l0-0.1l0-0.1l0.1-0.1l0.3-0.1l0.1,0l0.1,0l0.1,0l0.1,0l0-0.1l0-0.1l0-0.1l0.1,0l0.1,0l0.1,0.1l0.2,0l0.1,0l0.2-0.1l0.1,0l0.2,0
		l0.2,0l0.4,0.1l0.2,0l0.1-0.1l0.1-0.1l0,0l0.1,0l0.1,0l0.1,0l0.2,0.2l0.2,0.1l0.1,0l0-0.1l0-0.2l0.1,0l0.1,0l0.3,0.2l0.4,0.3
		l0.2,0.1l0.2,0l0.2,0l0.6-0.2l0.1,0l0.1-0.2l0.1,0l0.1,0l0.2,0.1L63,27l0.1,0.2l0.1,0l0.1,0l0.1-0.1l0.1,0l0.1,0l0.1,0.1l0,0.1
		l0,0.1l0,0l0.1,0l0.1,0.1l0.1,0.1l0,0.1l0,0.1l0,0.1l0,0.1l0.1,0.1l0.2,0l0.4,0l0.2,0l0.1,0l0.1,0l0.4-0.2l0.1,0l0.1,0.1l0.1,0.2
		l0.1,0.3l0.1,0.1l0.1,0.1l0.3,0l0.3,0l0.3,0l0.1,0l0.1,0l0-0.1l0-0.1l0,0l0.1,0l0.1,0.1l0.1,0.3L67.2,29l-0.1,0.2l0,0.1l0.1,0.1
		l0.8,0.2l0.1,0.1l0.1,0.1l0.3,0.4h0.3l0.9,0.6l0.4,0.3l0.7,0.7l0.1,0.2l0.1,0.2l0.1,0.1l0.1,0.1l0.2,0.1l0.3,0.2l0.2,0.1l0.1,0.1
		l0.5,0.4l0.1,0.2l0.1,0.2l0,0.2l0,0.1l0.1,0.1l0.1,0.1l0.3,0.2l0.3,0.3l0.2,0.3l0.4,0.4l0.1,0.2l0.1,0.4l0.2,0.2l0.5,0.2l0.2,0
		l0.3,0.4l0,0l0.3-0.4L76,36l0-0.2l-0.1-0.1l0-0.1l0.2-0.1l0.2,0l0.2,0l0.1-0.1L76.6,35.1L76.6,35.1z M59,24L59,24L59,24L59,24
		L59,24L59,24z"/>
	
		<polygon id="Panamá_Oeste" fill="#77AE87" stroke="#F9F9FA" stroke-width="0.25" stroke-linecap="round" stroke-linejoin="round" points="
		49.9,31.4 49.9,31.3 49.8,31.2 49.7,31.1 49.6,31 49.6,31 49.6,30.9 49.6,30.9 49.4,30.8 49.3,30.7 49.1,30.6 48.9,30.3 48.8,30.2 
		48.6,29.9 48.4,29.7 48.4,29.6 48.5,29.6 48.3,29.7 47.6,29.7 47.4,29.6 47.2,29.5 47,29.1 46.9,29 46.7,28.9 46.4,28.8 46,28.6 
		45.8,28.7 45.6,28.9 45.1,30 45.2,30.2 45.3,30.4 45.3,30.5 45.3,30.7 45.3,30.9 45.2,31.1 44.8,31.3 44.4,31.4 44,31.4 43.5,31.2 
		43,31.7 43,32 42.8,32.4 42.7,32.6 42.7,32.8 42.7,33.1 43,34 43.3,35.4 43.4,35.6 43.4,36.1 43.4,36.2 43.4,36.6 43.5,36.9 
		43.5,37.6 43.6,37.7 43.7,37.9 44.2,38.4 45,37.9 45.3,37.7 45.3,37.6 45.4,37.6 45.5,37.3 45.6,37.3 45.7,37.2 45.8,37.2 45.9,37 
		46,37 46.1,37 46.2,36.9 46.2,36.9 46.2,36.8 46.2,36.7 46.3,36.5 46.8,36.4 47.2,36.3 47.4,36.2 47.9,35.8 48.3,35.4 48.4,35.4 
		48.4,35.3 48.3,35.3 48.2,35.3 48.1,35.4 47.7,35.6 47.3,35.7 46.9,35.6 46.8,35.5 47,35.4 47.2,35.3 47.2,35.3 47.2,35.2 
		47.2,35.2 47.4,35.1 47.5,35.1 47.6,35 47.6,35 47.7,34.9 47.7,34.8 47.8,34.7 47.8,34.6 47.8,34.5 47.9,34.4 47.8,34.4 47.8,34.4 
		47.7,34.3 47.7,34.3 47.6,33.5 47.7,33.3 47.8,33.1 47.9,32.9 48.1,32.8 48.4,32.9 48.3,32.8 48.3,32.8 48.3,32.7 48.3,32.6 
		48.4,32.6 48.4,32.6 48.4,32.7 48.4,32.7 48.6,32.7 48.6,32.7 48.7,32.7 48.9,32.8 48.9,32.7 48.8,32.6 49,32.5 49.5,32.4 
		49.8,32.5 50,32.3 50,32.1 49.9,31.8 50,31.8 50,31.7 50,31.6 50,31.6 49.9,31.5 50,31.5 49.9,31.5 	"/>
	<path id="Panamá" fill="#77AE87" stroke="#F9F9FA" stroke-width="0.25" stroke-linecap="round" stroke-linejoin="round" d="
		M55.8,38.2l0,0.1l-0.1,0l-0.1-0.2l-0.2-0.1l-0.1,0.3l0.2,0.2l0.2,0.2l0.1-0.1l0.1-0.1l0-0.1l-0.1-0.1L55.8,38.2L55.8,38.2z
		 M55.3,31.5L55.3,31.5L55.3,31.5L55.3,31.5L55.3,31.5L55.3,31.5l0,0.1l0,0l0,0l0.1,0l0-0.1L55.3,31.5L55.3,31.5L55.3,31.5z
		 M55.9,40.1L55.8,40l-0.1-0.3l-0.1-0.2l0,0l-0.1-0.1l-0.1,0l-0.1,0l-0.1,0.2l-0.1,0.2l0,0.1l-0.1,0.2l0,0.1l-0.1,0l0,0.2l0.2,0.4
		l0.2,0l0-0.2l0-0.1l0.1,0l0-0.1l-0.1-0.1l0-0.1l0.2-0.1l0.1,0.1l0.1,0l0.1,0L55.9,40.1L55.9,40.1z M49.6,36L49.6,36L49.6,36
		l-0.1-0.1l0,0l0,0l0,0.1l0,0.1l0,0l0,0.1l0,0l0-0.1l0,0L49.6,36l0,0.1l0,0L49.6,36L49.6,36z M50.5,33.4L50.5,33.4L50.5,33.4
		L50.5,33.4L50.5,33.4L50.5,33.4l0.1,0l0-0.1l0-0.1L50.5,33.4z M56.1,37.2L56.1,37.2L56,37.4l0.1,0l0.1,0L56.1,37.2L56.1,37.2
		L56.1,37.2z M50.2,33.6L50.2,33.6l-0.1-0.1l0,0l0,0l0,0l-0.1,0l-0.1,0.1l0,0.1l0,0.1l0.1,0L50.2,33.6l0,0.1l0,0.1l0.1,0L50.2,33.6
		L50.2,33.6L50.2,33.6z M58.7,38.7l0.1-0.1l0-0.1l-0.1-0.2l-0.2,0l0-0.1l0-0.1l0-0.1l-0.1-0.1l-0.1-0.1l-0.1-0.1l-0.1-0.1l0,0.1
		l0,0.1l0,0.1l0-0.1l0-0.1L58,37.6l-0.5,0.2l-0.1-0.1l-0.2,0l0,0.2l0.1,0.3l0,0.1l0.1,0.2l0,0.1l-0.1,0.1l-0.1,0.1l0,0.1l0.1,0.1
		l0,0.1l0,0.2l-0.1,0.1l-0.1,0.2l0.1,0.1l0.1,0.1l0.2,0.1l0.1,0.1l0.1,0.3l0,0.2l0.1,0.1l0.2,0.1l0.1-0.1l0-0.1l-0.1,0l-0.1-0.1
		l0-0.2l-0.1-0.1l0-0.1l0-0.1l0.1-0.1l0.1-0.1l0-0.1l0,0.1l0,0.1l0.1,0l0.1,0l0.1,0l0.1,0.1l0.2,0l0.1-0.1l0-0.1l0.1-0.1l0.1-0.3
		l-0.2-0.3L58.7,38.7z M59,38.5L59,38.5l-0.2,0.1l0,0.1l0.1,0.1l0.1,0l0.1-0.1L59,38.5L59,38.5z M68.2,29.7L68.2,29.7L68,29.6
		l-0.8-0.2l-0.1-0.1l0-0.1l0.1-0.2l0.1-0.1l-0.1-0.3l-0.1-0.1l-0.1,0l0,0l0,0.1l0,0.1l-0.1,0l-0.1,0l-0.3,0l-0.3,0l-0.3,0l-0.1-0.1
		l-0.1-0.1l-0.1-0.3L65.6,28l-0.1-0.1l-0.1,0L65,28.1l-0.1,0l-0.1,0l-0.2,0l-0.4,0l-0.2,0L64,28l0-0.1l0-0.1l0-0.1l0-0.1l-0.1-0.1
		l-0.1-0.1l-0.1,0l0,0l0-0.1l0-0.1l-0.1-0.1l-0.1,0l-0.1,0l-0.1,0.1l-0.1,0l-0.1,0L63,27l-0.1-0.1l-0.2-0.1l-0.1,0l-0.1,0l-0.1,0.2
		l-0.1,0l-0.6,0.2l-0.2,0l-0.2,0l-0.2-0.1l-0.4-0.3l-0.3-0.2l-0.1,0l-0.1,0l0,0.2l0,0.1l-0.1,0L60,26.7l-0.2-0.2l-0.1,0l-0.1,0
		l-0.1,0l0,0l-0.1,0.1l-0.1,0.1l-0.2,0l-0.4-0.1l-0.2,0l-0.2,0l-0.1,0l-0.2,0.1l-0.1,0l-0.2,0l-0.1-0.1l-0.1,0l-0.1,0l0,0.1l0,0.1
		l0,0.1l-0.1,0l-0.1,0l-0.1,0l-0.1,0l-0.3,0.1l-0.1,0.1l0,0.1l0,0.1l0,0.1l0,0.1v0.1l0,0l-0.1,0l-0.6,0l-0.2,0l-0.1-0.1l-0.1-0.1
		l-0.1-0.1l-0.3-0.1l-0.2,0l-0.2,0l-0.2,0l-0.2,0l-0.8,0.3l-0.4,0.1l-0.1-0.1l0-0.1l0-0.1l0.1-0.1l0.1-0.1l0.2-0.1l0.1-0.1l0-0.1
		l0-0.1l0-0.1l0-0.1l-0.1-0.1l-0.1,0l-0.1,0l0-0.1l0.1-0.1l0-0.1l-0.1-0.1L53.6,26l-0.3-0.1l-0.2,0l-0.1,0L52.8,26l-0.1,0l-0.3,0
		l-0.1,0l-0.2,0.1l-0.1,0l-0.1,0l0-0.1l0-0.1l0-0.1l0.1,0l0.2-0.1l0.1,0l0,0l0-0.1l-0.1-0.2l0-0.1l-0.1-0.1L52,25.3l-0.2-0.1
		l-0.3-0.1l-0.5,0.1l-0.5,0.2l-0.3,1.1l0,0.1l0,0.1l0,0l0,0.1l-0.1,0.2L50,27.5l-0.1,0.3l0,0.2l0.1,0.2l0,0.1l-0.1,0.1l-0.2,0.1
		l-0.2,0.1l-0.2,0.1l-0.1,0.1l-0.1,0L49,29l-0.3,0.4l-0.2,0.2l-0.1,0l0.1,0l0.2,0.3l0.1,0.3l0.2,0.1l0.2,0.3l0.2,0.2l0.1,0l0.1,0.1
		l0,0l0,0l0.1,0l0.1,0.1l0.1,0.1l0.1,0.1l0,0.1l0.1,0.1l0,0H50l0.1,0.2l0.2,0.2l0.2,0.2l0.2,0.1l0-0.1l-0.2-0.4l0.1,0l0-0.1l0-0.1
		l0-0.1l0.3-0.2l0,0l0,0l0-0.1l0-0.1l0.1,0l0.1,0l0.2-0.1l0.2,0l0.1,0l0.1,0l0.1,0.1l0.3-0.1l0.7,0.1l0.3-0.1v0.1h0.1l0.3-0.1l1,0.2
		l0.2-0.1l0-0.1l0.1,0l0.1,0.1l0,0.1l0.3,0.1l0.1,0l0.2,0l0.2-0.1l0.1-0.2l0.1-0.2l0-0.3l-0.1-0.1l-0.2,0l-0.1-0.1l0-0.1l0.1-0.1
		l0.1,0l0.1,0l0.1,0l0.1-0.1l0-0.1l0,0l0.1,0l0.1-0.2l0.1-0.1l0.1,0l0,0.1l0,0.1l0.1,0l0.1,0l0.2-0.2l0.1-0.1l0.1,0l0.2,0l0.1,0
		l-0.1,0.1L57,29.4l-0.2,0.1l-0.2,0.2l-0.1,0l-0.1-0.2h-0.1l-0.1,0.2L56,29.9L55.8,30l-0.3,0v0.1l0.2,0l0.1,0.1l0,0.2l0,0.3l0,0.1
		l0,0.1l0,0.1l0,0.1l0.1,0.1l0.3,0.2l0.6,0.1l1.6,0.8l0.1,0.2l0,0.2l0.1,0.2l0.2,0.3l0.1,0l0.2,0l0.2-0.1l0.1-0.1l0-0.2l-0.1-0.2
		l0.1,0.1l0.1,0.1l0.1,0.1l0.2,0.1v0.1h-0.1v0.1l0.2,0.2l0.2,0.5l0.2,0.1l0.3,0l0.4,0.5l0.2-0.2l0.2,0l0-0.2l0-0.3l0-0.2h0.1
		l0.1,0.2l0,0.3l-0.1,0.2l-0.2,0.1l0.1,0.3l0.1,0.1l0.1,0.1l0.1,0l0.1,0l0.1,0l0.1,0.1l0.1-0.1l0,0l0.1,0l0,0.1l-0.1,0.2l0.8,0.2
		l0,0.4l0.1,0.1l0.2,0.2L63,36.3l-0.1,0l-0.1,0l-0.2,0l0.1,0.2l0.4,0.5l0.1,0.2L63,37.5l0,0.2l0.1,0.1l0.1,0.2l0.1,0.1l0-0.1l0-0.1
		l0-0.1l0.1-0.1l0.1,0.2l0.1,0.2l0,0.2l-0.1,0.2l0.1,0.1L64,39l0.1,0l0,0l0-0.5l-0.2-0.7l0-0.3l-0.2-0.4l0-0.3l0-0.2l0-0.1l0,0l0,0
		l0-0.1l0.1-0.4l0-0.5l0-0.2l0-0.1l0.1-0.1l0-0.1l0-0.2l0-0.1l-0.1-0.3l0-0.1l-0.1-0.7l0-0.2l0.1-0.1l0.1-0.1l0.6-0.2l0.2,0l0.2,0
		l0.3,0.1l0.1,0.1l0.1,0.2l0.2,0.1l0.1,0l0.1-0.1l0.1-0.1l0-0.1l0-0.1l0.1-0.1l0.3-0.2l0.3-0.1l0.2,0l0.2,0l0.1,0l0.1-0.1l0.2-0.3
		l0.2-0.2l0.2-0.1l0.3-0.1l0.1-0.1l0.1-0.1l0-0.2l0-0.2l0-0.3l0.1-0.2l0.1-0.2l0.2-0.3l0.1-0.1L68.2,29.7z M56.1,35.6L56.1,35.6
		L56,35.7l0.1,0.1l0,0.1l0,0l0-0.1l0-0.1L56.1,35.6L56.1,35.6z M56.5,36L56.5,36L56.5,36l-0.1,0.1l0,0.1l0.1,0l0.1-0.1L56.5,36
		L56.5,36z M58.7,39.9l0,0.1l0.1,0l0-0.1l0-0.1L58.7,39.9z M57,37.7L57,37.7L57,37.7L57,37.5l0.1,0l0.1-0.1l0-0.1l-0.1,0L57,37.4
		l-0.1,0.1l-0.1,0l-0.1,0l-0.1,0l-0.1,0l0,0l0,0l0.1,0l0,0l0.1,0L57,37.7L57,37.7l0,0.2l0,0l0,0l0,0L57,37.7l0.1,0.1l0,0L57,37.7
		L57,37.7z"/>
	<path id="Ngäbe-Buglé" fill="#77AE87" stroke="#F9F9FA" stroke-width="0.25" stroke-linecap="round" stroke-linejoin="round" d="
		M25.5,29.8L25.5,29.8L25.5,29.8l0.1,0.1l0.1,0l0.1,0l0.1,0l0.1,0l0,0l0,0l0,0l0,0l-0.1,0l-0.1,0l-0.1,0l0,0l-0.1,0l0,0l-0.1,0l0,0
		L25.5,29.8L25.5,29.8z M30.4,37.1l-0.1-0.2l0-0.1l-0.1-0.1l-0.1-0.1L30,36.4l-0.1-0.3l0-0.5l0-0.7L29.8,34l0.1-0.3l0-0.1l0,0
		l-0.6,0l-0.5,0.1l-0.7,0l-0.3-0.2l-0.3,0l-0.1,0l-0.6-0.1l-0.2,0.1l-0.1,0l-0.2-0.1l-0.1,0l-0.1-0.1l-0.1-0.1l-0.1-0.1L25.6,33
		l-0.2-0.2l-0.5-0.5l-0.7-1l-0.2-0.1L23.9,31l-0.2-0.4l-0.2-0.1l-0.3-0.3l-0.2,0l-0.3,0l-0.2,0l-0.1,0L22.4,30l-0.1-0.1l-0.1-0.1
		v-0.1l0.1,0l0.1,0l0.1,0l0-0.1l-0.1-0.1l-0.3-0.2L21.9,29l-0.2-0.2l-0.2,0l-0.1,0.1l0.2,0.1l0.4,0.2l-0.1,0.2l-0.3,0l-0.3-0.1
		l-0.2,0l0,0.1l0.2,0.2l0.2,0.2l0.2,0.1l0.1,0.1l0.4,0.6l0.8,0.5l0,0.5L23,31.8l-0.2,0.1l-0.7-0.3l-0.1,0l-0.1,0.1l-0.1-0.1
		l-0.1-0.1l0,0l-0.2-0.1l-0.1,0l-0.1,0.1l0,0.1l-0.1,0.1L21,31.8l-0.2,0l-0.2,0l-0.1-0.1l-0.2-0.1l-0.1,0l0,0l0,0.1L20.1,32
		l-0.2,0.1l-0.3,0.1H19l-0.4,0l-0.2,0.1l-0.2,0.3l-0.1,0.3l-0.1,0L18,32.8l-0.1-0.3l0-0.1l-0.2-0.1l0-0.2l0.1-0.1l0-0.2l-0.1-0.2
		l-0.3-0.2l-0.4-0.1L17,31.2L16.9,31l-0.3,0l-0.3-0.1l0-0.2l0.1-0.2l0.2-0.1l0.2-0.2l0.1-0.2l-0.1,0l-0.3-0.1l-0.1-0.1l0.1-0.2
		l0-0.1l-0.1,0l-0.2,0.2L16,30l0,0.3l-0.3,0.3l-0.2,0.2l-0.4,0.2L14.9,31l0.1,0.1l0.3,0.1l0.5,0.2l0.3,0.2l0.2,0.3l0,0.3l-0.1,0.2
		L16,32.8L16,33.2l-0.1,0.2l0,0l0.5,0.2l0.2,0.1l0.2,0.1l0.4,0.1l0.3,0l0.1,0l0.2,0l0.1,0l0.5,0.1l0,0l0.2,0.7l-0.1,1l-0.1,0.4
		l0,0.3l0.1,0.1l-0.4,0.9l-0.1,0.3l0.2,0.1l0.4,0l0.4-0.1l0.2-0.1l0.1,0l0.1,0.1l0.1,0.2l0.2,0.4l0.2,0.2l0,0.4l0.3,0.4l0.6,0.2
		l1.1,0l0.3,0.1l0.2,0.4l0.4,0.3l0.6,0l0.2-0.2l0.1-0.2l0.2,0l0.1,0.2l0.3-0.1l0.3-0.2l0.1-0.2l0.2-0.4l0.2-0.3l0.5-0.2l0.3,0.1
		l-0.1-0.6l0-0.2l0-0.2l0.3-0.7l0.1-0.5l0-0.5l0.3,0.2l0.4,0.1l0.1,0.1l0.1,0l0.1,0.1l0.6,0l0.3-0.1l0.1,0l0.6,0.4l0.2,0.1l0.5,0.1
		l0.3,0.1l0.1,0h0.1l0.3-0.1L30.4,37.1z"/>
	
		<polygon id="Los_Santos" fill-rule="evenodd" clip-rule="evenodd" fill="#77AE87" stroke="#F9F9FA" stroke-width="0.25" stroke-linecap="round" stroke-linejoin="round" points="
		37.3,52.7 37.3,52.3 37.2,52.1 37.1,52 36.8,51.8 36.7,51.7 36.5,51.7 36.5,51.6 36.5,51.5 36.5,51.3 36.5,51 36.1,50.6 35.9,50 
		35.9,49.5 35.9,49.1 36.6,48.5 37.2,47.5 37.2,47.4 37.4,47.4 37.5,47.4 37.6,47.3 37.7,47.2 37.9,46.9 37.9,46.8 37.9,46.6 
		37.9,46.5 37.9,46.4 37.7,46.2 37.7,46.1 37.7,46 37.7,45.9 37.6,45.7 37.6,45.7 37.6,45.6 37.7,45.5 37.8,45.4 38,45.3 38.1,45.1 
		38.5,44.4 38.7,44.3 39.1,44.2 39.4,44.2 39.6,44.2 39.7,44.1 39.9,43.9 39.9,43.7 40,43.6 40.1,43.4 40.1,43.4 40.4,43.5 
		40.7,43.9 40.8,44.4 41,44.8 42.2,45.7 42.9,46.4 44,47.8 44.6,48.9 44.7,49.2 44.7,49.5 44.5,49.9 44.4,50 44.3,50.1 44,50.1 
		43.9,50.1 43,50.4 42.2,50.4 42.1,50.5 41.9,50.4 41.6,50.4 41.5,50.3 41.4,50.3 41.3,50.3 40.9,50.4 40.9,50.5 41.1,50.5 
		41.2,50.5 41.3,50.4 41.4,50.4 41.5,50.4 40.6,50.7 40.3,51 40.3,51.3 40.5,51.6 40.4,51.7 40.1,51.8 40,51.8 39.9,51.9 39.9,51.9 
		39.8,52 39.8,52.1 39.7,52.2 39.6,52.2 39.5,52.3 39.4,52.4 39.4,52.5 39.4,52.5 39.3,52.6 39.2,52.6 39,52.6 38.9,52.5 37.4,52.7 
		37.3,52.7 	"/>
	
		<polygon id="Herrera" fill-rule="evenodd" clip-rule="evenodd" fill="#77AE87" stroke="#F9F9FA" stroke-width="0.25" stroke-linecap="round" stroke-linejoin="round" points="
		38,42 38,42 38.2,41.9 38.2,41.9 38.4,42 38.7,42.2 38.8,42.2 38.8,42.2 38.8,42.3 39,42.4 39,42.7 39.1,42.9 39.2,43 39.4,43.1 
		39.9,43.3 40,43.4 40.1,43.4 40.1,43.4 40,43.6 39.9,43.7 39.9,43.9 39.7,44.1 39.6,44.2 39.4,44.2 39.1,44.2 38.7,44.3 38.5,44.4 
		38.1,45.1 38,45.3 37.8,45.4 37.7,45.5 37.6,45.6 37.6,45.7 37.6,45.7 37.7,45.9 37.7,46 37.7,46.1 37.7,46.2 37.9,46.4 37.9,46.5 
		37.9,46.6 37.9,46.8 37.9,46.9 37.7,47.2 37.6,47.3 37.5,47.4 37.4,47.4 37.2,47.4 37.2,47.5 36.6,48.5 35.9,49.1 35.6,48.8 
		35.5,48.8 35.2,48.7 34.9,48.5 33.9,47.1 33.9,46.9 33.8,46.6 33.7,46.4 33.6,46.3 33.6,46.2 33.5,46.2 33.2,46.2 33.1,46 
		33.2,44.6 33.2,44.4 33.3,44.4 33.6,44.3 33.9,44 34.2,43.7 34.3,43.6 34.4,43.3 34.4,43.2 34.3,42.6 34.7,42.4 35.1,42.3 
		35.3,42.1 35.6,41.8 35.7,41.7 35.9,41.7 36,41.7 36.3,41.7 36.6,41.8 36.8,41.8 37.2,41.7 37.5,41.6 37.6,41.7 37.9,42 	"/>
	
		<path id="Emberá-Wounaan" fill="#77AE87" stroke="#F9F9FA" stroke-width="0.25" stroke-linecap="round" stroke-linejoin="round" d="
		M69.6,46.4l0-0.2l-0.1-0.2l-0.1-0.2l-0.1,0l-0.1-0.1l-0.1-0.4l-0.4-1.2L68.6,44l-0.3,0.2L68,44.4l-0.1-0.7l-0.1-0.1l-0.1-0.1
		l-0.1-0.4L67.5,43l-0.1-0.1L67,42.3l-0.2-0.1l-0.2,0.2l-0.3,0.1l0,0.2l0.2,0.1l0,0.1l0,0.1l0.1,0.1l0,0.1l-0.3,0.2l-0.4-0.1
		l-0.3,0.2l-0.2,0.2l-0.2,0L65,43.8L65,44l0.1,0.1l0,0.2l0,0.3l0,0.2l0.1,0.1l0.1,0.1l0.1,0l0.2,0.5l0.2,0.6l0.3,0.5l0.6,0.7
		l0.2,0.2l0.5-0.1l0.2,0.1l0.2,0.1l0.2,0.1l0.1,0.1l0.1,0.5l0.3,0.1l0.1-0.2l0.2-0.1l0.2,0.1l0.2,0.2l0.3-0.1l0.2-0.2l0.1-0.4
		l-0.1-1.1L69.6,46.4z M77.6,40.8l-0.3-0.6l-0.1-0.1l-0.2-0.1l-0.2,0L76.8,40l-0.1-0.2l-0.1-0.4l-0.1-0.8l-0.2-0.4l-0.2-0.3L76,37.6
		l-0.2-0.1l-0.4,0l-0.1-0.1l0-0.3l0.1-0.4l0.1-0.1l0,0l-0.3-0.4l-0.2,0l-0.5-0.2l-0.2-0.2l-0.1-0.4l-0.1-0.2l-0.4-0.4l-0.2-0.3
		l-0.3-0.3L73,34.1L72.9,34l-0.1-0.1l0-0.1l-0.1,0l-0.3-0.1l-0.3,0L71.9,34l-0.1,0.2l-0.1,0.1l-0.2,0l-0.2,0.1L71,34.5l-0.1,0.3
		l-0.4,0.5l-0.2,0.1l-0.1,0.2l0,0.3l0.1,0.2l0.2,0.2l0.2,0.2l0,0.2l-0.1,0.1l0,0v0l0,0l0.2,0.2l0.1,0l0.1,0l0,0.1l0,0.1l0,0.1
		l0.3,0.3l0.1,0.1l0,0.1l0,0.1l0,0.1l0,0.1l0,0.1l0.2,0.3l0,0.2l0,0.2l0.1,0.1l0.1,0.1l0.1,0.1l0.1,0.1l0,0l0,0.1l0.1,0.1l0.1,0.1
		l0.1,0l0.1,0l0,0.1l0,0.1l0.1,0.2l0.1,0.1l0.4,0.1l0.3,0.2l0.5,0.4l0.2,0.5l0,0.2l0.1,0.2l0.2,0.1l0.1,0.1l0.2,0.3l0.2,0l0.2-0.1
		l0.3,0l0.1,0l0.1,0l0.3,0l0.1-0.1l0.1-0.1l0.1-0.1l0.2-0.1l0.3-0.1l0.3,0l1.4-0.4l0,0L77.6,40.8z"/>
	
		<path id="Darién" fill-rule="evenodd" clip-rule="evenodd" fill="#77AE87" stroke="#F9F9FA" stroke-width="0.25" stroke-linecap="round" stroke-linejoin="round" d="
		M79.1,43.9L79,43.8l-0.1-0.1l-0.1-0.1l-0.1-0.2l0-0.3l-0.3-1l-0.4-0.7l-0.1-0.2l0,0l-1.4,0.4l-0.3,0L76,41.8l-0.2,0.1L75.8,42
		l-0.1,0.1l-0.1,0.1l-0.3,0l-0.1,0l-0.1,0l-0.3,0l-0.2,0.1l-0.2,0L74.3,42l-0.1-0.1l-0.2-0.1l-0.1-0.2l0-0.2l-0.2-0.5l-0.5-0.4
		l-0.3-0.2l-0.4-0.1l-0.1-0.1L72.3,40l0-0.1l0-0.1l-0.1,0l-0.1,0L72,39.7l-0.1-0.1l0-0.1l0,0l-0.1-0.1l-0.1-0.1l-0.1-0.1l-0.1-0.1
		l0-0.2l0-0.2l-0.2-0.3l0-0.1l0-0.1l0-0.1l0-0.1l0-0.1l-0.1-0.1L71,37.4l0-0.1l0-0.1l0-0.1l-0.1,0l-0.1,0L70.6,37l0,0v0l0,0l0.1-0.1
		l0-0.2l-0.2-0.2l-0.2-0.2l-0.1-0.2l0-0.3l0.1-0.2l0.2-0.1l0.4-0.5l0.1-0.3l0.2-0.2l0.2-0.1l0.2,0l0.1-0.1l0.1-0.2l0.3-0.1l0.3,0
		l0.3,0.1l0.1,0l0-0.2l-0.1-0.2l-0.1-0.2l-0.5-0.4l-0.1-0.1l-0.2-0.1l-0.3-0.2l-0.2-0.1l-0.1-0.1L71,32.1L70.9,32l-0.1-0.2l-0.7-0.7
		l-0.4-0.3l-0.9-0.6h-0.3l-0.1,0.1l-0.2,0.3l-0.1,0.2L68.1,31l0,0.3l0,0.2l0,0.2L68,31.8l-0.1,0.1L67.6,32l-0.2,0.1l-0.2,0.2
		L67,32.5l-0.1,0.1l-0.1,0l-0.2,0l-0.2,0l-0.3,0.1l-0.3,0.2L65.6,33l0,0.1l0,0.1l-0.1,0.1l-0.1,0.1l-0.1,0l-0.2-0.1L65,33.2
		l-0.1-0.1L64.6,33l-0.2,0l-0.2,0l-0.6,0.2l-0.1,0.1l-0.1,0.1l0,0.2l0.1,0.7l0,0.1l0.1,0.3l0,0.1l0,0.2l0,0.1l-0.1,0.1l0,0.1l0,0.2
		l0,0.5l-0.1,0.4l0,0.1l0,0l0,0l0,0.1l0,0.2l0,0.3l0.2,0.4l0,0.3l0.2,0.7l0,0.5l0,0l0.1,0l0.1,0.1l0,0.1l0.3-0.7l-0.1-0.2l-0.2-0.2
		l-0.1-0.6L64,36.9l0-0.3h0.1v0.3h0.1v-0.1h0.1l0,0.1l0,0.1l0.1,0.2l0.1,0.7l0.1,0.2l0.2-0.1l0.2-0.2l0.2-0.2l0-0.2l0.1-0.1l0.1,0.4
		l0.1,0.1l0.2,0l0.2-0.3l0.1-0.1l0.1,0l0-0.1l-0.1-0.2l0.2,0.1l0,0.1L66,37.6l0,0.1l0,0l0,0l0,0.1l0,0l0.1,0l0.1,0.1l0.1,0.1l0.1,0
		l0,0l0,0v-0.1l-0.1-0.1l0.1-0.1l0.1-0.2l0-0.2l-0.1-0.1L66.2,37l-0.1-0.1l0.1-0.2h0.1l0.2,0.7l0.1,0.4l0,0.4l-0.1,0l0,0l0,0
		L66,38.2L66,38.3l0,0.1l0,0.1l0,0.1l0.1,0l0.2,0l0.2-0.1l0.2-0.1l0.1-0.2l0-0.3l0.1-0.2l0.2-0.1l0.2,0l0.1,0.1l0.1,0.2l0.2,0.4h0.1
		l0.1-0.1l0-0.1l-0.2-0.4l0-0.1l0-0.4l0,0l-0.1,0L67.5,37l-0.1-0.1l0-0.3l0-0.1l0.1,0.1l0,0.1l0,0.1l0.1,0.1l0.1,0.1l0.1,0l0.1,0
		l0,0.2l0,0.1l-0.1,0.1l0,0.1l0.1,0.2l0.1,0.2l0.1,0.1l0.1,0.1l0.1,0.1l-0.2,0.2l0.1,0.3l0.3,0.5l0.1,0.3l0.1,0.2L69,40l0.3,0.1
		l1.1,0.2l0.2,0.1l0.1,0.1l0.6,0.8l0.2,0l0.4,0.5l0.3,0l-0.1,0.2L71.9,42l-0.2,0l-0.1-0.1l0-0.2l-0.1-0.2l-0.1-0.1l-0.1,0.1
		l-0.1-0.1L71,41.3l0-0.1l0-0.2l-0.1-0.1l-0.3-0.2l-0.2-0.2l-0.3-0.1l-0.6-0.1l0.1,0.2l0.1,0.1l0.2,0.1l0.2,0v0.1h-0.2l-0.1,0
		l-0.1,0l-0.1-0.1l-0.1-0.2l-0.1,0l-0.1,0l-0.1,0l-0.2,0l-0.2-0.1l-0.1-0.2l-0.2-0.6l-0.1-0.2l-0.1-0.1l-0.2,0l-0.2-0.1l-0.2-0.1
		L67.6,39l0-0.1l-0.1-0.4l-0.1-0.1l-0.1,0l-0.1,0.1l-0.1,0.1l0,0.2l0,0.1L67.1,39l-0.2,0.2l0,0l0,0.1l0,0.3l0,0l-0.1,0.2l0,0l-0.2,0
		l-0.1,0l-0.1,0l-0.1-0.1L66,39.8l-0.1-0.1l0,0.1l0,0l-0.1,0l0,0.1l0,0l0,0l0.1,0v0.1l-0.2,0.1l-0.1,0l-0.3,0v0.1l0.1,0.1l0.4,0.4
		l0.1,0.1l0.1,0.1l0.1,0.2l0,0.3L66,41.9l-0.4,0.5l-0.5,0.2l-0.3-0.2l-0.1,0.1l-0.2,0l-0.2-0.1l-0.1-0.4l-0.1,0.1l-0.1,0.2l-0.1,0.2
		l0,0.2l0.2,0.4l0,0.1l0,0.1l0,0.1l0.1,0.4l0.2,0.4l0.2,0.3l0.3,0.3l0.3,0.3l0.1,0.4l0.1,0.1l0.4,0.6l0.1,0.2l0,0.2l-0.1,0.2
		l-0.1,0.2l0.1,0l0.1,0.1l0.1,0.1l0,0.1l0.2,0l0.2,0.1l0.3,0.3l0.1,0.1l0.1,0.1l0,0.1l0,0.1l0,0.1l0,0.1l0.1,0.2l0-0.2l0.1-0.1
		l0.1,0l0.1,0.2l0,0.4l0,0.1l0.1-0.2h0.1l0.1,0.2l0.1,0.1l0.1,0.1l0.1,0.1l0.1,0.1l0,0.1l0,0.1l0.1,0.1l0.2,0.2l0.3,0.3h0.1l0.1-0.1
		l0.1,0l0.1,0.2l-0.1,0l0,0.1l0,0.1l0.1,0l0,0l0,0l0,0l0.1,0.1l0.1,0.1l0,0.1l0,0.1l0,0.1l0,0.1l0.1,0.1l0.2,0.1l0.5,0.7l0.4,0.3
		l0.3,0.1l0,0l0.5-1.6l0.4-1.4l0.3,0.1l0.3,0l0.2-0.1l0.2-0.2l0.1-0.3l0-0.3L72,48.3l-0.1-0.4l-0.1-0.5l0.1-0.5l0.3-0.2l0.1,0.1
		l0.6,0.5l0.1,0.1l0,0L73,47.7l0,0l0,0l0.1,0l0,0l0.3,0.5l0.1,0.2l0.1,0.6l0.1,0.1l0.3,0l0.3-0.2l0.6-0.6l1.7-1.1l0.4-0.3L77,46.7
		l-0.3-0.2l-0.2-0.4l0-0.2l0.4-0.5l0.3-0.7l0.3-0.3l0.4-0.2l0.4-0.1l0.4-0.1l0.5,0l0.1-0.1L79.1,43.9z M69.7,48l-0.2,0.2l-0.3,0.1
		L69,48.2l-0.2-0.1l-0.2,0.1l-0.1,0.2l-0.3-0.1L68,47.7l-0.1-0.1l-0.2-0.1l-0.2-0.1l-0.2-0.1l-0.5,0.1l-0.2-0.2l-0.6-0.7l-0.3-0.5
		l-0.2-0.6l-0.2-0.5l-0.1,0L65.1,45l-0.1-0.1l0-0.2l0-0.3l0-0.2L65,44l0.1-0.2l0.2-0.1l0.2,0l0.2-0.2l0.3-0.2l0.4,0.1l0.3-0.2l0-0.1
		L66.5,43l0-0.1l0-0.1l-0.2-0.1l0-0.2l0.3-0.1l0.2-0.2l0.2,0.1l0.4,0.5l0.1,0.1l0.1,0.2l0.1,0.4l0.1,0.1l0.1,0.1l0.1,0.7l0.3-0.2
		l0.3-0.2l0.2,0.2l0.4,1.2l0.1,0.4l0.1,0.1l0.1,0l0.1,0.2l0.1,0.2l0,0.2l0,0.1l0.1,1.1L69.7,48z"/>
	
		<polygon id="Colón" fill-rule="evenodd" clip-rule="evenodd" fill="#77AE87" stroke="#F9F9FA" stroke-width="0.25" stroke-linecap="round" stroke-linejoin="round" points="
		55.9,24.1 55.9,24.3 55.9,25.4 55.9,25.5 55.8,25.5 55.7,25.5 55.6,25.5 55.5,25.6 55.4,25.7 55.2,25.9 55.2,26 55.2,26.2 
		55.2,26.3 55.1,26.4 55,26.4 54.9,26.5 54.7,26.6 54.5,26.7 54.2,26.9 53.9,27.1 53.9,27.1 53.8,26.9 53.9,26.8 53.9,26.8 
		53.9,26.7 53.9,26.6 53.9,26.5 53.8,26.5 53.7,26.4 53.7,26.4 53.7,26.3 53.8,26.2 53.8,26.1 53.7,26.1 53.6,26 53.3,25.9 
		53.1,25.9 53,25.9 52.8,26 52.8,26.1 52.5,26.1 52.4,26.1 52.2,26.1 52.1,26.2 52,26.1 52,26 52,26 52.1,25.9 52.1,25.9 52.3,25.8 
		52.3,25.8 52.3,25.7 52.3,25.7 52.2,25.5 52.2,25.5 52.1,25.4 52,25.3 51.8,25.2 51.5,25.1 50.9,25.2 50.5,25.4 50.2,26.5 
		50.1,26.6 50.1,26.7 50.2,26.8 50.2,26.9 50.1,27.1 50,27.5 49.9,27.8 49.9,28 49.9,28.2 49.9,28.3 49.9,28.3 49.7,28.4 49.5,28.5 
		49.3,28.6 49.2,28.6 49.1,28.7 49,29 48.7,29.4 48.5,29.6 48.3,29.7 47.6,29.7 47.4,29.6 47.2,29.5 47,29.1 46.9,29 46.7,28.9 
		46.4,28.8 46,28.6 45.8,28.7 45.6,28.9 45.1,30 45.2,30.2 45.3,30.4 45.3,30.5 45.3,30.7 45.3,30.9 45.2,31.1 44.8,31.3 44.4,31.4 
		44,31.4 43.5,31.2 43,31.7 42.8,31.6 42.7,31.5 42.7,31.4 42.6,31.3 42.5,30.9 42.5,30.8 42.3,30.4 42.2,30.7 42.1,31 42,31.2 
		42,31.3 41.8,31.4 41.7,31.5 40.7,32.4 40.5,32.5 40.3,32.6 40.2,32.6 39.9,32.5 39.6,32.4 39.5,32.3 38.4,31.9 38.3,32 38.2,32 
		38.1,32.5 38,32.6 38.1,32.7 38.1,32.7 38.1,32.8 38.2,33.2 38.1,33.4 38,33.6 37.9,33.7 37.7,33.8 37.5,33.9 37.3,33.9 37.2,33.9 
		37,33.8 36.9,33.8 36.7,33.9 36.5,34.1 36.4,34.3 36.3,34.5 36.2,34.8 36.2,35 36.2,35.2 36.2,35.3 36.2,35.4 36.1,35.6 35.9,35.8 
		35.6,35.8 35.8,35.4 35.8,35.3 35.8,35.2 35.7,35.2 35.7,35.1 35.6,34.8 35.7,34.7 35.7,34.5 35.8,34.4 35.7,34.2 35.6,34 
		35.4,33.7 35.3,33.7 35.2,33.6 34.9,33.6 34.7,33.5 34.5,33.3 34.4,33.2 34.3,33.1 34.2,32.9 34.2,32.8 34.2,32.6 34.2,32.5 
		34.1,32.4 34.4,32.5 34.6,32.4 34.8,32.2 34.9,32.1 35.1,31.8 35.2,31.6 35.4,31.5 35.4,31.5 35.4,31.4 35.5,31.3 35.6,31.3 
		35.8,31.1 36.1,30.9 36.5,30.7 36.7,30.6 36.9,30.4 37.6,30 38.5,29.7 39.7,29.3 41.1,29.2 41.3,29.1 41.7,28.9 41.8,28.8 
		42.2,28.8 42.7,28.6 43.1,28.5 43.4,28.3 43.9,27.8 44.3,27.4 44.7,27.1 44.7,26.9 44.9,26.5 45.2,26.4 45.3,26.4 45.3,26.5 
		45.3,27 45.3,27.1 45.4,27.2 45.5,27.3 45.6,27.3 45.8,27.2 45.9,27 45.9,26.7 45.9,26.6 46.2,26.8 46.2,26.7 46.1,26.5 46.1,26.4 
		46.1,26.4 46.2,26.4 46.3,26.4 46.1,26.2 46.2,26 46.4,26.1 46.6,26.1 46.9,26.2 47.1,26.6 47.2,26.7 47.1,26.4 47.1,26.3 
		47.1,26.1 47.2,25.9 47.4,25.7 47.7,25.6 47.9,25.4 48,25.4 48,25.3 48,25.3 48.1,25.2 48.1,25.1 48.3,25 48.4,24.9 48.5,24.6 
		48.6,24.3 48.8,24.2 48.9,24.1 48.8,24 48.7,24.1 48.6,24.1 48.5,24.1 48.6,24 48.7,23.9 48.8,23.8 48.9,23.7 49.1,23.6 49.2,23.5 
		49.4,23.4 49.6,23.5 49.8,23.4 50.1,23.3 50.4,23.3 50.4,23.5 50.5,23.6 50.5,23.7 50.4,23.7 50.4,23.8 50.5,23.9 50.5,23.9 
		50.5,24 50.6,24 50.6,23.9 50.7,23.9 50.7,23.8 50.8,23.8 50.9,23.9 51,23.9 51.2,24 51.2,23.9 51.3,23.7 51.3,23.8 51.4,23.8 
		51.5,23.8 51.6,23.7 52.1,23.9 52.8,23.9 53.5,24.1 53.9,24.3 54.5,24.4 54.7,24.2 54.9,24.2 55.2,24.2 55.4,24.2 55.6,24.2 
		55.9,24.1 	"/>
	
		<polygon id="Coclé" fill-rule="evenodd" clip-rule="evenodd" fill="#77AE87" stroke="#F9F9FA" stroke-width="0.25" stroke-linecap="round" stroke-linejoin="round" points="
		43,31.7 43,32 42.8,32.4 42.7,32.6 42.7,32.8 42.7,33.1 43,34 43.3,35.4 43.4,35.6 43.4,36.1 43.4,36.2 43.4,36.6 43.5,36.9 
		43.5,37.6 43.6,37.7 43.7,37.9 44.2,38.4 44.2,38.4 43.7,38.8 43.1,39.1 42.3,39.5 41.9,39.6 41.3,39.7 41.2,39.7 41.1,39.7 
		41,39.6 40.9,39.7 40.7,39.8 40.6,39.8 40.3,39.7 40.1,39.6 40,39.5 40.1,39.5 40,39.5 40,39.6 40,39.6 39.9,39.7 39.7,39.9 
		38.9,40.6 38.8,40.9 38.9,42 38.9,42.2 38.8,42.2 38.7,42.2 38.4,42 38.2,41.9 38.2,41.9 38,42 38,42 37.9,42 37.6,41.7 37.5,41.6 
		37.2,41.7 36.8,41.8 36.6,41.8 36.3,41.7 35.7,41.3 35.7,41.1 36,40.6 36.2,39.9 36.2,39.5 35.9,39.1 35.4,37.8 35.2,37.3 34.9,37 
		34.6,36.7 34.8,36.6 35.2,36.5 35.5,36.1 35.6,35.8 35.9,35.8 36.1,35.6 36.2,35.4 36.2,35.3 36.2,35.2 36.2,35 36.2,34.8 
		36.3,34.5 36.4,34.3 36.5,34.1 36.7,33.9 36.9,33.8 37,33.8 37.2,33.9 37.3,33.9 37.5,33.9 37.7,33.8 37.9,33.7 38,33.6 38.1,33.4 
		38.2,33.2 38.1,32.8 38.1,32.7 38.1,32.7 38,32.6 38.1,32.5 38.2,32 38.3,32 38.4,31.9 39.5,32.3 39.6,32.4 39.9,32.5 40.2,32.6 
		40.3,32.6 40.5,32.5 40.7,32.4 41.7,31.5 41.8,31.4 42,31.3 42,31.2 42.1,31 42.2,30.7 42.3,30.4 42.5,30.8 42.5,30.9 42.6,31.3 
		42.7,31.4 42.7,31.5 42.8,31.6 	"/>
	<path id="Chiriquí" fill="#77AE87" stroke="#F9F9FA" stroke-width="0.25" stroke-linecap="round" stroke-linejoin="round" d="
		M16.4,40.4l-0.3-0.2v-0.1l0.2,0.1l0.1-0.1l0-0.1l-0.1-0.1L16,39.7l-0.6,0.4l-0.3,0H15l0.1,0.2l0.1,0.2l0.2,0.2l0.1,0.1l0.2,0
		l0.4-0.2L16.4,40.4z M16.4,41.8L16.4,41.8l-0.2-0.1l-0.1,0.1L16,42l-0.1,0.2l0,0.1l0.2,0l0.1,0l0.2-0.1l0-0.2L16.4,41.8z
		 M17.4,40.6l-0.3-0.1l-0.2-0.1l-0.4,0.1l-0.1,0.1l0.1,0.2l0.1,0l0.2,0l0.1,0l0.3,0.3L17.2,41l0-0.1l0-0.1l0.1-0.1l0.2,0l0.3,0.1
		l-0.1-0.2L17.4,40.6z M26.2,39.5l-0.1-0.4l0-0.5l-0.3-0.1l-0.5,0.2L25,39.1l-0.2,0.4l-0.1,0.2l-0.3,0.2l-0.3,0.1l-0.1-0.2l-0.2,0
		l-0.1,0.2l-0.2,0.2l-0.6,0l-0.4-0.3l-0.2-0.4L22,39.3l-1.1,0l-0.6-0.2l-0.3-0.4l0-0.4l-0.2-0.2l-0.2-0.4l-0.1-0.2l-0.1-0.1l-0.1,0
		l-0.2,0.1l-0.4,0.1l-0.4,0l-0.2-0.1l0.1-0.3l0.4-0.9l-0.1-0.1l0-0.3l0.1-0.4l0.1-1L18.4,34l0,0l-0.5-0.1l-0.1,0l-0.2,0l-0.1,0
		l-0.3,0l-0.4-0.1l-0.2-0.1l-0.2-0.1l-0.5-0.2l0,0l-1-0.5l-0.6-0.2l-0.5,0l-0.1-0.3l-0.1-0.1l-0.2-0.1l-0.7,0l-0.8,0.1l-0.3-0.3
		l-0.1,0l-0.2,0.3L11,32.5L9.7,33l-0.1,0.1l-0.1,0.2l0.1,0.1l0.1,0.1l0,0.2l-0.1,0.1l-0.4,0.2L9,34l0,0.2l0.1,0.2l0.1,0.2L9.6,35
		l0.2,0.3l0.2,0.3L10,36l0.1,0.9l0,0.4l-0.1,0.4L9.7,38l-0.3,0.2L9,38.2l-0.4,0.2l-0.5,0.5l-0.6,0.3l-0.1,0.1l0,0.2l0.1,0.1l0.3,0.2
		L8,39.9L8.1,40l0.1,0.1l0.1,0L8.4,40l0.1,0l0.2,0.1l0.1,0.1l0.1,0.4l0.6,1.4l-0.1,0.5l-0.1,0.3l0,0l0.3,0.1L9.7,43l0.1-0.2l0.2-0.2
		v-0.1l-0.3-0.8l-0.1-0.5l0-0.5l0.2-0.4l0.3-0.3l0.4-0.2l0.9-0.3l0.5-0.1l0.5,0l0.4,0.1l0.9,0.3l0.5,0.1l0.3-0.1l0.1,0l0.1,0l0.2,0
		l0-0.1l0-0.1l0-0.1l-0.1-0.1v-0.1l0.2-0.1l0.1-0.2l0-0.2L15,39l0,0.1l0,0.1l0.1,0.1l0.1,0v0.1L15,39.5l0,0.1l0.2,0.1l0.2,0.1l0.2,0
		l0.3-0.2l0.2,0l0-0.1l0-0.2l0-0.1l0.2,0.1l0.2,0l0.2-0.1l0.2-0.1l-0.1,0.3l0.1,0.2l0.2,0.1l0.2,0l0-0.1l0.2-0.4l0.1,0l0.1,0l0.3,0
		l-0.2,0l-0.1,0.1l0,0.1l0.1,0.2l-0.1,0l0,0l0,0l0,0l-0.1,0.1l0,0.1l0,0.1l0.1,0.1v0.1l-0.1,0.1l0,0.2l0.1,0.4l-0.1,0l-0.1,0l-0.1,0
		v0.1l0.1,0l0.2,0.2l0.1,0l0.2,0l0.2-0.1l0.2,0v0.1l-0.1,0l0,0l0,0.1l0,0.1l0.1,0l0,0.1l-0.1,0.3h0.1v-0.1l0,0l0.1,0l0,0l0.3-0.7
		l0-0.2h0.1l0.2,0.2l0.4,0.1l0.4,0l0.2-0.1l0.3,0.2l0.2,0.1l0.1,0l0.1-0.2l0.1-0.1l0.2-0.1l0.1,0l-0.2,0.3l0,0.2l0.1,0.1l0.2,0
		l0.5,0.1l0.1,0.1l1,0.4l0.2,0.2H23l0.1-0.1l0.2-0.2l0.1-0.1l-0.1,0l0-0.1l0-0.1l0.1-0.1h0.1l0,0.2l0.1,0.2l0.3,0.3l0.4,0.8l-0.1,0
		l0,0l0,0H24l-0.1,0.1l-0.1,0l-0.1,0l-0.1-0.1v0.1l0.2,0.1l0,0.2l0,0.2l0.1,0.1l0-0.1l0-0.1l0.1-0.2l0.1,0.1l0.2,0.5l0.1,0.1l0,0
		l0,0l0.2-0.1l0.1-0.1l0.1-0.1l0-0.2l0.3-1.2l0.1-0.1l0-0.1l0.3-0.3l0.6-0.8l0.1-0.1l0,0l0-0.1l0-0.4L26.2,39.5z"/>
	
		<path id="Bocas_del_Toro" fill="#77AE87" stroke="#F9F9FA" stroke-width="0.25" stroke-linecap="round" stroke-linejoin="round" d="
		M19.8,29.3l0.1,0.1l0.1,0l0.1-0.1l0.1,0l0-0.1l-0.1,0l-0.1,0l0-0.1l0-0.1l-0.1,0l-0.1,0l0-0.1l-0.1,0l0,0.1l0.1,0.1L19.6,29l0,0.1
		L19.8,29.3L19.8,29.3z M18.2,26.9l0.2,0.1l0.1,0.3l-0.2-0.1v0.1l0.1,0.1l0,0.1l0,0.3l0,0.1l0,0l0,0l0.1,0.1l0.1,0l0.1-0.3l0.2-0.2
		l0.2-0.1l0.2,0l-0.1-0.2l-0.2-0.1L18.8,27l-0.3-0.3l-0.1-0.1l-0.1,0.1l-0.1,0l-0.1,0l-0.1,0l-0.1-0.1l-0.1,0l-0.1,0l-0.1,0.1v0.1
		l0.2,0.1L18.2,26.9z M20,31.7l-0.6,0.2l-0.2,0l-0.1,0l-0.1,0l0,0l0-0.1l0,0l-0.1-0.1l-0.2-0.3l0-0.1l-0.2-0.1L18.1,31l-0.2,0.1
		l-0.3,0L17.3,31l-0.2-0.2l0,0l0,0l0,0l0.1,0l0.1-0.8l-0.1-0.1L17,29.8l-0.1-0.2l0.2,0l0.1,0v-0.1l-0.1-0.1l0-0.2l0-0.2l0.1-0.1
		l0.3,0l0.2,0.1l0.4,0.2l0.1-0.2l0-0.3l0-0.2h-0.1v0.1H18L18,28.6l0-0.1l0-0.1l0-0.1l-0.1,0l0,0l0,0l0,0l-0.1-0.1l-0.1,0l0,0.1
		l0,0.2l0,0l-0.1,0l-0.1-0.1l0-0.2h-0.1l0,0.2l0,0.1l-0.1,0.1l-0.1,0L17,28.6l0-0.1l-0.1-0.1l-0.2,0l0.1,0.2l-0.1,0l-0.1,0l-0.1,0.1
		h-0.1L16,28.5l-0.1-0.1l0-0.2L15.8,28l-0.1-0.1l-0.1-0.1l-0.1,0l-0.1,0l0-0.1l0.1-0.1l0-0.1l0.3,0l0.2-0.1l0-0.1l-0.1-0.1l-0.1-0.1
		l-0.1-0.1l0-0.2l0-0.1l0.3-0.6l0.1-0.2l0-0.2l-0.3,0.2l-0.5-0.3l-0.7-0.7L13.4,24l-0.1-0.1l0.1,0.5l-0.1,0l-0.2-0.1l-0.2,0
		l-0.1,0.1l-0.1,0.5L12.7,25l-0.2,0l-0.2,0l-0.2-0.1L12,24.9l-0.1-0.1l-0.2-0.3l-0.1-0.1l-0.1,0l-0.1,0l-0.5-0.4l-0.7-0.3l-0.2,0
		l-0.2,0.2L9.6,24l0,0.1l0.1,0.3l0.1,0.3l0.1,0.1l0.1,0l0.1,0l0,0.1L9.8,25l-0.7,0.1l-0.2,0.1l-0.1,0.2l0,0.2l0,1l0,1.5l0,2l0,0.1
		l0.4-0.2l0.1,0l0.1,0.1l0,0.1l0,0.1l0.1,0.1l0.1,0l0.3,0.1l0.6,0.4l0.6,0.2l0.2,0.1l0.3,0.5l0,0.1l0,0l0.1,0l0.3,0.3l0.8-0.1l0.7,0
		l0.2,0.1l0.1,0.1l0.1,0.3l0.5,0l0.6,0.2l1,0.5l0.1-0.2l0.1-0.4l0.1-0.4l0.1-0.2l0-0.3L16,31.6l-0.3-0.2l-0.5-0.2l-0.3-0.1L14.9,31
		l0.2-0.2l0.4-0.2l0.2-0.2l0.3-0.3l0-0.3l0.2-0.3l0.2-0.2l0.1,0l0,0.1l-0.1,0.2l0.1,0.1l0.3,0.1l0.1,0l-0.1,0.2l-0.2,0.2l-0.2,0.1
		l-0.1,0.2l0,0.2l0.3,0.1l0.3,0l0.1,0.1l0.1,0.1l0.4,0.1l0.3,0.2l0.1,0.2l0,0.2L17.7,32l0,0.2l0.2,0.1l0,0.1l0.1,0.3l0.1,0.1l0.1,0
		l0.1-0.3l0.2-0.3l0.2-0.1l0.4,0h0.5l0.3-0.1l0.2-0.1l0.1-0.3l0-0.1l0,0L20,31.7z M17.1,26.7l0.2,0.3l0.1-0.1l0,0l0,0l-0.1-0.1v-0.1
		l0.2-0.2l-0.1-0.3L17,25.6l-0.2,0l-0.2,0.1l-0.3,0.3l0.6,0.5L17.1,26.7z"/>
</g>
<g>
	<rect x="-20.8" y="86.6" fill="none" width="128.6" height="38.1"/>
	<text transform="matrix(1 0 0 1 19.2945 95.9017)" fill="#818281" font-family="'ArialMT'" font-size="13px">Panama</text>
</g>
</svg>
