<?xml version="1.0" encoding="utf-8"?>
<!-- Generator: Adobe Illustrator 23.0.1, SVG Export Plug-In . SVG Version: 6.00 Build 0)  -->
<svg version="1.0" id="Countries" xmlns="http://www.w3.org/2000/svg" xmlns:xlink="http://www.w3.org/1999/xlink" x="0px" y="0px"
	 viewBox="0 0 87 130" enable-background="new 0 0 87 130" xml:space="preserve">
<circle fill="#DAF1F9" stroke="#FFFFFF" stroke-width="0.25" cx="43.9" cy="40.6" r="39"/>
<path id="Malta" fill="#73AFDF" d="M37.9,26.9l0.2-0.2v-0.2L38,26.5l-0.4,0l-0.2,0.2v0.1l0.1,0.1L37.9,26.9z M16.6,22.7L16.6,22.7
	l-0.2-0.1l-0.1,0.1V23l0.1,0.1l0.2-0.2L16.6,22.7z M38.2,27.9l-0.4,0l-0.1,0.3l-0.2-0.3L37,28l-0.1-0.2h-0.3l-0.2,0.2l0.1,0.2v0.2
	l0.1,0.1l0,0.6l0.2,0.4l0.7,0.1L37.4,30h-0.1L37,30.5l-0.2,0.1l0.1,0.2l0.4,0l0.1-0.2l0.1,0.2l0.6,0l0.4-0.3l0.2,0.1l0.5,0l0.1-0.2
	l0.9,0l0.7-0.7l-0.2-0.4h-0.1l-0.5-0.6l-0.4-0.3h-0.2l-0.4-0.6h-0.2l-0.3,0.3L38.4,28L38.2,27.9z M35.3,26.8h1l0.2-0.3h0.6l0.7-0.5
	l0.5,0l0.2-0.2l-0.1-1.1L37.7,24h-0.1l-0.1-0.2l-0.8-1L35.9,22l-0.1,0.2l-0.3,0l-0.4-0.5l-0.2-1l-0.6-0.2l-0.4,0.3l-0.7,0l-0.4-0.6
	L32.3,20l-0.4-0.6h-0.5l-0.3,0.2L31,19.8L30.5,20l-0.4-0.4l-0.2-0.4h-0.3l-0.1,0.1l-0.2-0.2l-0.6-0.9L28,17.8l-0.5-0.2L27,18
	L27,17.6l-0.3-0.4l-0.6,0l0-0.6l-0.5,0.2l-0.2-0.3l-0.3,0l-0.1,0.2h-0.4l-0.4-0.3l-0.6,0l-0.1,0.1l-0.1-0.1l-0.5,0l-0.1,0.1
	l-0.5-0.1l-0.3,0.1l-0.3-0.2l-0.5,0.3L21,16.4h-0.2l-0.1,0.2l-0.5,0l-0.5,0.3h-1L18,17.5l-0.2,0l-0.1-0.2l-0.1,0.2l-0.2,0l-0.4,0.3
	l-1-0.2l-0.3,0.5l0,0.5l0.4,1l0.5,0.1l0.1,0.5l0.3,0.3l0,0.3l-0.5,0.5v0.1l0.6,1.2l-0.5,0.5l0,0.5l-0.6,0.9l0.2,0.4l0.5,0l0.4,0.3
	l0.4,0l0.1,0.1l0.6-0.1l0.1-0.2l0.4,0l0.4,0.3l0.6,0l0.1,0.3l0.4,0l0.3,0.2L20,26.2L20,26.4l0.3,0.4l0.5,0.3l0.2,0.6h0.5l0.1,0.2
	h0.3l0.5-0.3l0.5,0.3h0.9l0.1,0.2l1,0.1l0.1,0.2l0.3-0.2l0.4,0l0.6,0.5l0.2,0.4h0.5l0.5,0.5l0.4-0.2l0.1-0.3l0.4-0.3l0.6-0.2L29,28
	l0.4,0.5l0.3,0.2l0.5,0l0.3-0.3l0.6,0l0.1-0.2l0.2-0.2l0.5,0.2l0.5-0.3l0.3-0.4l0-0.3l0.4-0.4l0.4-0.3l0.5,0.3l0.2,0l0.4-0.3
	l0.1,0.1l0.4,0L35.3,26.8z M54.8,40.2L54.8,40.2l0.1-0.2l-0.1-0.1h-0.1L54.6,40v0.1l0.1,0.1H54.8z M48.3,38.2l0.2-0.2v-0.3l-0.1-0.1
	h-0.1l-0.1,0.1h-0.1L48,37.8v0.3l0.1,0.1H48.3z M49.3,37.7l0.1-0.2l-0.3-0.2L49,37.4h-0.1l-0.1,0.2l0.1,0.1L49.3,37.7z M74.3,56.5
	h-0.4l-0.1-0.2l-0.6,0L73,56.5l-0.5,0.1l-0.1-0.2l0.2-0.2H73l0.1-0.1l1,0l0.1-0.2L74,55.5l-0.3-0.8l-0.4-0.5l-0.6-0.2l-0.2-0.5
	l-0.1,0L72,53.3l-0.4,0L71.3,53l-0.6-0.9l-0.4-0.2l-0.4-0.5L69.2,51l-0.2-0.3l-0.5,0.1l-0.1-0.2l-0.5-0.1l-0.2-0.3l-1-0.2l-0.1,0.4
	l0.5,0.6l-0.2,0.1L66.6,51l-0.2,0.2l0.5,0.6l-0.2,0.1l-0.1-0.2h-0.1l-0.5-0.6l-0.4,0.1v0.3l0.6,0.9v0.3l-0.2,0.1L65.6,52l-0.3-0.4
	L65,51.7l0.5,1.2l-0.1,0.4l-0.3-0.4l0-0.5l-0.2-0.2l-0.4,0.1l-0.1,0.2l-0.4,0l-0.2,0.1l-0.3,0.4l0,0.5l-0.2,0.2l-0.7-0.2l0.5-0.1
	l0-0.6l0.6-0.5l0.4,0l0.1-0.4l0.2-0.2h0.1l0.8-0.9h0.4l0.4-0.4l-0.1-0.2l0.1-0.3l-0.1-0.7l-0.1,0.1l-1,0l-0.4,0.5l-0.4,0.2l-0.2,0.3
	h-0.3l-0.9,0.9l-0.1-0.4l-0.9,0l0.1-0.2h0.6l0.1-0.2l0.6-0.1l0-0.3l-0.4-0.4h-0.3l-0.2-0.5l0.6-0.5l0.8-0.2l0.5,0.3l0.4,0l0.2,0.3
	l0.4,0l0.3-0.4l-0.2-0.4l-0.4-0.2l-0.3-0.3h-0.4l-0.1-0.2l0.1-0.5l-0.6-0.2l-0.6-0.5h-0.3l-0.2,0.5l-0.4,0L62.1,47l-0.3-0.5l0.3-0.1
	l0.2-0.2l0-0.5l-0.1-0.1l0.4-0.6l-0.3-0.1L62.1,45l-0.6,0l-0.1,0.2l0-0.3h0.4l0.2-0.2v-0.1L61.4,44l-0.5,0l-0.7-0.7L60.1,43
	l-0.6-0.2l-0.1-0.2h-0.3L58.8,43l-0.6,0l-0.1,0.2L57.5,43l-0.5-0.3l-0.2-0.5l-0.1,0.2l-0.3-0.1l0-0.8l-0.2-0.4l-0.3,0.1l-0.3,0.7
	l-0.3-0.4L55,40.9l-0.3-0.5l-0.2-0.2l-0.4,0l-0.5-0.3l-0.1-0.1l-0.5,0l-0.4,0.8l-0.4,0.2L52,41l-0.2-0.2l0.1-1.1l0.3-0.5l0.2,0
	l0.3-0.4l-0.2-0.2h-0.2l-0.1,0.1l-0.4,0l-0.3,0.2l-0.5,0.5l-0.4-0.2L50.5,40L50,40.2l-0.1-0.1l-0.3,0l-0.5,0.6l-0.7,0l-0.1-0.2
	l-0.4,0l-0.1,0.2l-0.3,0.1l-0.1-0.2l-0.1,0.1H47l-0.4,0.5h-0.5L46,41.4l-0.2-0.1l0-0.3l0.6-0.6l0.1-0.5l0.2-0.3v-0.3l-0.2-0.1v-0.2
	h0.5l0.3,0.2l0.3-0.4l0.1-0.8L47.5,38l0.3-0.3l0-0.3l-0.4-0.2l-0.1,0.2h-0.4l-0.1-0.2h-0.5L46.1,37l-0.2,0l-0.1,0.2l-0.5,0L45,36.7
	h-0.4L44.1,37L43,37.1l-0.1,0.1l-0.7,0L42,37.4l-0.7,0l-0.1,0.1l-0.2-0.2l0-0.3l-0.4-0.5l0-0.2l0.3-0.4l0.5,0l0.2-0.1l0.1-0.3l0.2,0
	l0.5-0.6h0.1l0.2-0.6l0.9,0l0.1-0.1h0.2l0.4-0.5l-0.3-0.5l-0.1-0.6L44,32.5l-0.1-0.2l-0.6-0.5l-0.3,0.2h-0.6l-0.1,0.7l0.3,0.2
	l-0.1,0.1h-0.3L42,33.1L41.1,33l-0.2,0.2v0.3l-0.2,0.2l-0.2-0.3h-0.3L40,33.7l-0.3,0l-0.1-0.2h-0.5L39,33.7h-0.4l-0.1-0.2l-0.9,0
	l-0.1-0.1l-0.4,0.1v0.3l0.2,0l0.4,0.3l0.2,0l0.1,0.2l-0.2,0.2l-0.4,0l-0.2,0.5L37,35.3l-0.3-0.2l-0.2,0.2l0,0.3l-0.4,0.6l-0.1,0.6
	l0.3,0.2h0.4l0.1,0.2l0.5,0l0.1-0.2l0.9,0l0.3,0.7l0,0.5l-0.1,0.2l0.1,0.4l0.7,0.1L38.8,39l0.1,0.9L39,40l0.1-0.1l0.1,0.2l-0.4,0.3
	l0,0.5L38.6,41l-0.4,0.6h-0.5l-0.2,0.2l-0.1,0.8l0.2,0.2l0.2,0.4l0.6-0.2l0.5,0.6h0.5l0.2,0.2l-0.1,0.5l0.2,0.3l-0.9,0L39,45
	l0.6,0.2l-0.1,0.5l0.1,0.1l-0.2,0.2L39,45.6l-0.5,0l-0.1-0.2l-0.2,0.2L38,46.3l-0.2,0.1l0,0.5l0.6,0.4l0.1,0.1l-0.1,0.2l0.5,0.5
	l0.2,0.5l-0.7,0.4l-0.9-0.3l-0.1,0.4l0.2,0.3l-0.4,1.4l0.4,0.1l0.6,0.5l0.1,0.3l0.2,0.6l0,0.9l-0.1,0.5l0.3,0.4H39l0.3,0.4l0,0.3
	l0.2,0.2l0.3,0l0.1,0.3l0.2,0.2h0.4l0.1,0.1l0.5,0L41,55.8l0.2,0.2l0.3,0.2h0.4l0.4,0.5l0,0.5l0.3,0.1l0.1,0.1l0.2,0l0.8,0.9
	l0.2,0.2h0.5l0.4,0.6l0.3,0.2h0.6l0.8,0.6l0.9,0.5l0.1,0.5l-0.1,0.1l0.1,0.2l0.6,0l0.2,0.3l0.3,0.1l0.5,0l0.1,0.1l0.7,0l0.3,0.1
	l0.1,0.5l0.3,0.5l0.3,0.2l0.4,0l0.1,0.2l0.9,0l0.1-0.1l0.5,0.3l0.5,0l0.1,0.2l0.4,0.4l0.1-0.2l0.2,0l0.4,0.3l0.6,0.2l0.6,0.5h0.4
	l0.4-0.6l0.4,0.3l0.4-0.1l0.1,0.1l0.4,0l0.9,0.9l1,0.2l0.1-0.2h0.5l0.4,0.3h0.4l0.1-0.2l0.6,0l0.3,0.3l0.7,0l0.4,0.3l0.5,0l0.3,0.3
	l0.7,0.5l0.5,0l0.2,0.2l0.1-0.2l0.8,0l0.1-0.2l0.1,0.2l0.9-0.2l0.1,0.2l0.9-0.2l1-0.6l0.1-0.2L69.4,66l-0.2-0.7l-0.3-0.2l-0.2,0.1
	l-0.3-0.5l-0.7-0.2l-0.2-0.9l0.4-0.1l0.2-0.2v-0.3l-0.4-0.3l0.2-0.2l0.6,0l0.1-0.2l0.2,0l0.4,0.6h0.2l0.1,0.2l0.3-0.1l0.1-0.5
	L70,61.7l-0.3-0.2l0.1-0.5l0.2,0.3h0.2l0.5,0.6l0.6,0.3l0.2,0.4L71.4,64l0.3,0.3l0.1,0.6l0.2,0.1l0.4-0.2l0.1-0.3L72.4,64l0.4-0.9
	l-0.3-0.5l0.1-0.6l-0.3-0.1L72,61.4l0.4-0.1l0.4,0.3l0.1-0.4l-0.4-0.5l0.3-0.2l0.4,0.2l0.3,0.3l0.6-0.1l0-0.3l-0.2-0.4h-0.4L73.2,60
	l0.3-0.5H74l0-0.5l-1.1,0l-0.3-0.5l0.3-0.2l0.4,0.3l0.2-0.2l0-0.3l0.4-0.3l0.1-0.2l0.2-0.1h0.4l0.1-0.4L74.3,56.5z M49.2,70.8
	l-0.1-0.1l-0.2,0l-0.1,0.2l0.2,0.2l0.8-0.1l-0.1-0.2L49.2,70.8z M34.8,27l0.2,0.2l0.3,0l0.2-0.2l-0.6-0.2L34.8,27z M63.7,48.8
	l-0.9,0l-0.2,0.4l0.3,0.4l0.5,0l0.1,0.2h0.3l0.4-0.7L63.8,49L63.7,48.8z M48.6,71.1L48.6,71.1l-0.1,0.2l0,0.1l0.1,0l0.1-0.1v-0.2
	l-0.1-0.1H48.6z M48.1,71.1L48.1,71.1L48,71.4l0.1,0.1h0.2l0.1-0.1v-0.2l-0.1-0.1H48.1z M36.6,29l-0.4-0.4l-0.4,0L35.7,29l0.2,0.2
	l0.7-0.1V29z"/>
<g>
	<rect x="-19.4" y="87" fill="none" width="128.6" height="38.1"/>
	<text transform="matrix(1 0 0 1 29.0268 96.3128)" fill="#818281" font-family="'ArialMT'" font-size="13px">Malta</text>
</g>
</svg>
